<?xml version="1.0" encoding="utf-8"?>
<!-- Generator: Adobe Illustrator 16.0.2, SVG Export Plug-In . SVG Version: 6.00 Build 0)  -->
<!DOCTYPE svg PUBLIC "-//W3C//DTD SVG 1.1//EN" "http://www.w3.org/Graphics/SVG/1.1/DTD/svg11.dtd">
<svg version="1.1" id="Layer_2" xmlns="http://www.w3.org/2000/svg" xmlns:xlink="http://www.w3.org/1999/xlink" x="0px" y="0px"
	 width="85.589px" height="35.034px" viewBox="32.458 20.216 85.589 35.034" enable-background="new 32.458 20.216 85.589 35.034"
	 xml:space="preserve">
<metadata><?xpacket begin="﻿" id="W5M0MpCehiHzreSzNTczkc9d"?>
<x:xmpmeta xmlns:x="adobe:ns:meta/" x:xmptk="Adobe XMP Core 5.3-c011 66.145661, 2012/02/06-14:56:27        ">
   <rdf:RDF xmlns:rdf="http://www.w3.org/1999/02/22-rdf-syntax-ns#">
      <rdf:Description rdf:about=""
            xmlns:xmpMM="http://ns.adobe.com/xap/1.0/mm/"
            xmlns:stRef="http://ns.adobe.com/xap/1.0/sType/ResourceRef#"
            xmlns:stEvt="http://ns.adobe.com/xap/1.0/sType/ResourceEvent#">
         <xmpMM:RenditionClass>proof:pdf</xmpMM:RenditionClass>
         <xmpMM:DocumentID>xmp.did:E18EF617344AE911820997AEC94DEEF8</xmpMM:DocumentID>
         <xmpMM:InstanceID>xmp.iid:E18EF617344AE911820997AEC94DEEF8</xmpMM:InstanceID>
         <xmpMM:OriginalDocumentID>uuid:46837653-16ae-b04f-b144-48752ef136d6</xmpMM:OriginalDocumentID>
         <xmpMM:DerivedFrom rdf:parseType="Resource">
            <stRef:instanceID>uuid:edaee233-863e-7641-bad9-1ed3770add04</stRef:instanceID>
            <stRef:documentID>uuid:46837653-16ae-b04f-b144-48752ef136d6</stRef:documentID>
            <stRef:originalDocumentID>uuid:46837653-16ae-b04f-b144-48752ef136d6</stRef:originalDocumentID>
            <stRef:renditionClass>proof:pdf</stRef:renditionClass>
         </xmpMM:DerivedFrom>
         <xmpMM:History>
            <rdf:Seq>
               <rdf:li rdf:parseType="Resource">
                  <stEvt:action>saved</stEvt:action>
                  <stEvt:instanceID>xmp.iid:E18EF617344AE911820997AEC94DEEF8</stEvt:instanceID>
                  <stEvt:when>2019-03-19T13:45:21+03:00</stEvt:when>
                  <stEvt:softwareAgent>Adobe Illustrator CS6 (Windows)</stEvt:softwareAgent>
                  <stEvt:changed>/</stEvt:changed>
               </rdf:li>
            </rdf:Seq>
         </xmpMM:History>
      </rdf:Description>
      <rdf:Description rdf:about=""
            xmlns:xmp="http://ns.adobe.com/xap/1.0/"
            xmlns:xmpGImg="http://ns.adobe.com/xap/1.0/g/img/">
         <xmp:CreateDate>2019-03-19T13:45:14+03:00</xmp:CreateDate>
         <xmp:CreatorTool>Adobe Illustrator CS6 (Windows)</xmp:CreatorTool>
         <xmp:ModifyDate>2019-03-19T13:45:21+03:00</xmp:ModifyDate>
         <xmp:MetadataDate>2019-03-19T13:45:21+03:00</xmp:MetadataDate>
         <xmp:Thumbnails>
            <rdf:Alt>
               <rdf:li rdf:parseType="Resource">
                  <xmpGImg:width>256</xmpGImg:width>
                  <xmpGImg:height>108</xmpGImg:height>
                  <xmpGImg:format>JPEG</xmpGImg:format>
                  <xmpGImg:image>/9j/4AAQSkZJRgABAgEASABIAAD/7QAsUGhvdG9zaG9wIDMuMAA4QklNA+0AAAAAABAASAAAAAEA&#xA;AQBIAAAAAQAB/+4ADkFkb2JlAGTAAAAAAf/bAIQABgQEBAUEBgUFBgkGBQYJCwgGBggLDAoKCwoK&#xA;DBAMDAwMDAwQDA4PEA8ODBMTFBQTExwbGxscHx8fHx8fHx8fHwEHBwcNDA0YEBAYGhURFRofHx8f&#xA;Hx8fHx8fHx8fHx8fHx8fHx8fHx8fHx8fHx8fHx8fHx8fHx8fHx8fHx8fHx8f/8AAEQgAbAEAAwER&#xA;AAIRAQMRAf/EAaIAAAAHAQEBAQEAAAAAAAAAAAQFAwIGAQAHCAkKCwEAAgIDAQEBAQEAAAAAAAAA&#xA;AQACAwQFBgcICQoLEAACAQMDAgQCBgcDBAIGAnMBAgMRBAAFIRIxQVEGE2EicYEUMpGhBxWxQiPB&#xA;UtHhMxZi8CRygvElQzRTkqKyY3PCNUQnk6OzNhdUZHTD0uIIJoMJChgZhJRFRqS0VtNVKBry4/PE&#xA;1OT0ZXWFlaW1xdXl9WZ2hpamtsbW5vY3R1dnd4eXp7fH1+f3OEhYaHiImKi4yNjo+Ck5SVlpeYmZ&#xA;qbnJ2en5KjpKWmp6ipqqusra6voRAAICAQIDBQUEBQYECAMDbQEAAhEDBCESMUEFURNhIgZxgZEy&#xA;obHwFMHR4SNCFVJicvEzJDRDghaSUyWiY7LCB3PSNeJEgxdUkwgJChgZJjZFGidkdFU38qOzwygp&#xA;0+PzhJSktMTU5PRldYWVpbXF1eX1RlZmdoaWprbG1ub2R1dnd4eXp7fH1+f3OEhYaHiImKi4yNjo&#xA;+DlJWWl5iZmpucnZ6fkqOkpaanqKmqq6ytrq+v/aAAwDAQACEQMRAD8A9U4q7FXYq7FXYq7FVG+n&#xA;eCyuJ0ALxRu6g9KqpIrTFX5k+Z/NvmPzRq0ura9qE1/fSsW9SViQlT9mNfsoo7KoAGKvvD/nGzUr&#xA;/UvyT8s3V/cPc3JS6iM0pLOUhvJoowSf5Y0VR8sVemYq7FXYq7FXYq7FXYq7FXYq7FXYq7FXYq7F&#xA;XYq7FXYq7FXYq7FXYq7FXYqo3l9ZWUJnvLiO2gBAMszrGlT0HJiBiq+CeCeJZoJFlhcVSRCGVh4g&#xA;jY4qvxV2KobUtT03S7KW/wBSuobKxgHKe6uJFiiQdKs7kKPpxViOj/nb+VWs65Doel+Y7a71S4f0&#xA;4IIxIQ70rRJCnpn6GxVmdxEJreWJl5LIjIVJKghhSlRWmKvy0urae1uZbadDHPA7RyxnYq6HiwPy&#xA;IxV90f8AOJmneZ9P/KeODXLVrSB7uWbSEkBSRrSVUfmVPRWkLla9Rv0oSq9nJAFTsB1OKvJ/O/8A&#xA;zk7+VHlWeW0N/JrOoREq9tparMFYbUaZmSHY9aOSPDFXmOo/85xwhyum+UWdP2Zbm9CGnuiQv/xP&#xA;FUHF/wA5yagHBl8nwtH+0q3zKT8iYG/Vir1T8r/+cm/IfnvUotGMc2i63Ptb2t2VaKZqV4QzKaFt&#xA;ujKpPauKvTPMnmLSPLehXuu6xP8AV9NsIzLcy0LELWgAVakliQAB3xV88at/znB5fiuCuk+V7q8t&#xA;w1PVurmO1Yjx4Ilz/wASxV9KWs4uLWGcDiJkWQL1pyANMVVcVQba1o63osWv7cXpPEWplT1akVpw&#xA;ry/DFUk/M7zTeeVPIGu+YbGJJrzTrV5beOT7HqbKpYAiqqWqRXfFXwXqn54fm5qWoNfzebdThlZu&#xA;XpWtzJbQDetBDCUjp/scVfoR5Wv31DyxpF/I5lku7K3neQihYyxK5YjbrXFUzxVLfMvmPR/LWhXu&#xA;uaxcC202wjMtxKfAbBVH7TMaKqjqTTFXw5+Y3/OQP5j/AJheYfqOh3N3pek3Ewg0zR7F2jll5sFT&#xA;1niIaV3NPhrxHYdyq+sPyP8Ay01byL5WaDWtWuNU1rUCk9+JZWlhgcKQIoORJ2B+Jv2j7UxV6Lir&#xA;sVYlrv5t/lloLMmq+Z9OgmSpaAXCSyinjFEXf8MVYfe/85WfkjbFhHrUt2V/3xZ3W5rSgMkcY/hi&#xA;qdeTPz+/KrzfqEem6RrKrqc1BDZXUclvI7H9mMyAI7f5KsTir0PFX5t/mt5/1bzv511PV7y6ea0N&#xA;xKmmQFiY4bVXIiRF+yPgALEdTvir2n/nDD8wVtNZ1LyReSUi1FTe6XyY0E8IpNEoPd4/j2/kOKvr&#xA;vFXYq+U/+c4Ndl9TyvoMc5EXG5vrm2HQtVIoHO/b96Bt44q8H/J/VjpP5p+Vb7iHVNTto3BAPwTS&#xA;CJyK7VCuSPfFX6SYqxTXdF/KrSr79P69Y6FYX7v6n6WvorOGYuP2vXlCty9+WKp5ovmHQNdtGvND&#xA;1K11W0RzE9xZTx3EYkUBiheJmUMAwNPfFXzX/wA5ifmpq9hPaeQtIna2hurYXetSxkq8kcjMkdvy&#xA;G4U8Czj9qqjpUFV5n/zit5B0Hzf+Y0o123jvbDSbN7z6lMoeKWX1EiQSKdmVfULUPUgV2xV9ur5Y&#xA;8tLbm2XSbMW53MIt4ghP+rxp2xV85f8AOV/5QeS9N8oR+bNB0qPTNThuo4bpLGLhBLFKrlmkijHB&#xA;WVlrzoPA12oq8H/Kf8vPPPmDzjos2jaXdGC3vbeeXUvTeOCFI5VdpDMeKjiBUAHke2Kvs3/nJH/y&#xA;SXmn/jBD/wBRMWKvz1xV+ovl6cXGgabOBxE1rBIF605RqaYqxD8+tY1PRvyh8y6jpdy9pfRWyLFc&#xA;xHjInqzJGxVhup4uaEbjtir87RPMswnEjCcNzEoJ5h615cuta71xV+hH5libUf8AnH/WpJy0s0ug&#xA;G4lcbszpbiVmP0rU4q/PPFX6VflTdfWvyw8o3Bbmz6NYc2Ap8YtkDf8ADA4qyrFXyF/zmT+ZL3mt&#xA;2nkOwlItdNC3erhTQPcyryhjbx9ONuXzb2xVLf8AnDr8vV1jzjd+bb2LlY6AnCz5DZr2cEAjsfSi&#xA;5H2LKcVfZ+KvP/zk/OLQ/wAs/L6Xt0n1zVrwsml6YrBTKygcndt+MaVHI07gd8VfLGhav+bv5/8A&#xA;nI6Ld6zLaaOFM9/Fbho7G2twaU9FWHqsSeKc2Zj40Boq9+0r/nEX8mrJEF1aXmpsoozXN3InI+JF&#xA;v6H4Yqkn5zf84y/l0vkPVdW8sacdJ1fSLaW9jMMssiTJApkeJ0laQbop4laGtO22KvjKGaWGVJoX&#xA;aOWNg8ciEqyspqGUjcEHFX6Xflvr9x5h8geXdbuWDXV/p9tNcsKUMzRj1Dtt9uuKvzRmhkhmeGVe&#xA;MkbFHXwZTQjbFUx8seYdQ8t+YtO17Tm4Xum3EdzDvQEo1SjU/ZYfCw8Dir9MPL2uWGvaFp+t6e/O&#xA;y1K3jurdu/CVQwBp0YVoR2OKphir4F/5yk8zDXfzk1ZI352+kJFpkJ8PRXnKPonkkGKsA8jwC486&#xA;+X4CeIm1K0jLdacp0FcVfpzir85fzxuNSm/NvzWt/cy3LxandRwGYsSkAlYxRryJoiIQFptTFX0T&#xA;/wA4RTOfJ/mOE/YTUI3Xxq8AB/4gMVeaf85l6c1t+a9tdU+C+0q3kB/yklliI+5Biq//AJwwvTB+&#xA;at7bk/Dd6ROnGtPiSeBwad9lOKvtnFXYq7FXn/5/2v1n8mvNkfHnxsWlpWn906yV+jhXFX514q/T&#xA;P8ubr63+Xvle7qW+saTYy8m6nnbI1T9+KpF+flr9Z/JvzZHxDcbB5aH/AIqZZK/Rwrir86cVfohA&#xA;v6X/AOceo1oWOoeUgtCdyZtNpQt4/Fir878Vfol/zj7dm6/JjypKakrZelv1/cyPF/xptirJ/Ovm&#xA;vTvKXlTU/Meon/RdNgaYpWhkf7McSn+aRyFHucVfmxq+qar5j1+61K7LXWqarctNJxBLPLM9eKqP&#xA;c0UD5Yq/Q38m/IEXkT8vdL0Hgq3wT6xqjrQ87yYBpdx14bIp/lUYqzXFX56f85D+c7nzV+bGtztI&#xA;Ws9MmbTLBK1VYrVijFf9eTm/04q+h/8AnC7y9BZ/l7qetlALrVdQaMvtvBaxqIx9EkkmKvoTFUl8&#xA;7yRR+S9fkmXlCmm3bSLQGqiByRQ9dsVfmLir9Dv+cdZ3m/JXyq7AAi1dNvCOeRB+C4q+FPzIs1sf&#xA;zE80Wa/YttXv4l7bJcuo6/LFWOYq+z/+cNfPR1XyVe+VLmTldaBN6lqCdzaXRLgDx4Sh6+zKMVe6&#xA;+YdatdD0HUdau/8AebTbaa7mFaVSFC5APieOKvzG1XUrrVNUvNTvG53d9PJc3D/zSTOXc/SzYqmv&#xA;5e/8p95a/wC2rY/9RKYq/TTFX51/n9/5OTzZ/wAxzf8AEVxV9Af84Q/8ot5l/wCY6H/kzirEv+c3&#xA;eP8Ai7y58NG/R8tXp1HrGgr7fxxVin/OIssafnNZqzANJZXaxg92EfKg+hScVfdmKuxV2KsV/Ne0&#xA;+t/lf5ut+PJn0a/4LWnxi2cpv/rAYq/NXFX6O/khci4/KHyjIGLcdLto6t1/dII6b9hxoMVTP8y7&#xA;P67+XPmmzAq1xpF9GopyPJrZwtB416Yq/M/FX6Hfkcy6r+R3lqJiOMumm0YlaikZeDde/wBn6cVf&#xA;nm6OjsjqVdSQykUII6gjFX3p/wA4o3gn/JHRogR/ok17CaAjrdSS716/3vbFXkX/ADmF+a1vqV9b&#xA;+QtJn5wabL9Y1xlrxNyBSKCvf0wxZu3IjuuKsa/5xG/L+08yfmBLrl9wktPLKR3MduxBL3cpYW7c&#xA;evGPgz17MFxV9wYq7FX5ca1I8msX8kh5O9xKzMepJcknFX23/wA4gujfk5CFIJS/ulcDsaqaH6CM&#xA;Ve2Yqlfmu3Nz5W1i3CeoZrG5j9M9G5QsKb+NcVfl/ir7/wD+cXHD/kX5a+LkV+uq29SKX9xQH6KY&#xA;q+Nfzr/8m55v/wC2rdf8nTirEjYXYsE1Axn6o8rW4l7eoiq5U/7FxTFWf/8AOP3n1fJf5oaXqFxL&#xA;6Ol3pOn6mxNFEFwQA7e0cgRz7DFX0z/zl/5zXRfyzXQ4ZON55iuFg4jZvq1uRLMw/wBkI0Ps2Kvi&#xA;Ch+7riqP8v3gste029JoLa6gmry409ORW+126dcVfqJir85vz1glh/ODzckhqx1KZx1+zIea9f8A&#xA;JYYq97/5wev4m0nzXp9QJop7S4pXcrKkidPYxfjiqaf85gflnrnmHSNK8zaLbSXs2jCaHULaFS8n&#xA;1eXi6yqo3IjZTyp2avY4q+S/K3mXWfKvmKx17SJPQ1PTpfUhZlqK0KsjqeqspKsPA4q+jLX/AJzk&#xA;1BbXjdeT4Zbun97FfNFHWnX02glbr/l4qhZf+c4PMZkrF5Xs0j2+FriVm9/iCr+rFXp/5Sf85SeV&#xA;/PWqw6FqNk+ha5c1W0RpBNbzsN+CS8YyrnsrLv0BJxV6p51gW48m69AxIWXTrtGI6gNA42xV+YmK&#xA;v0A/I/zX5WsPye8rR32sWNo8dkqyLPcwxlW5NswZhQ4qyLW/zJ/LGbTr6wl82aIJJoJImhfUrRCf&#xA;UQihrKKVrir83cVffn/OLNyJvyN8vLVi0DXsbFv+Y2ZhT2CsBir4Z83WgsvNetWYAAtr+5hABJA9&#xA;OZl2J37Yq+qv+cafPGm+Vv8AnHvXdf1Nj9U0XUroBCd5HaG3aOJPAySShR7muKvk7Xtav9d1u/1r&#xA;UGD3uo3El1csBQepK5dqDsKnbFWZfkV+Yz+QvzE0/VZXK6Vcn6nq69vq0xFXp/xUwWT6Kd8Vfokj&#xA;o6K6MGRgCrA1BB3BBGKt4q/MPzlYHT/N+uWBXgbPULqArvt6U7JT4t+3fFX0D/zjZ+evkDyL+X19&#xA;pHmW9mivm1KW5treKCWUmGSCFRRlXgPjR+rYq9Vg/wCct/yXkYh7+7hAFeT2kpB9vgDnFUZJ/wA5&#xA;Q/kPPbMkvmJuMqFXiNlf8qMKFarBT7jir4FxV9I/kb/zk35V8j+TdN8qaxpl46wTTNNqEBjdVWeZ&#xA;pAfTJVjx5b0PyxV5X+fEKRfnF5tVBQHUJHPfd6M34nFWbfkv5Al8+fk7590e3XnqVlcWeoaQnf61&#xA;FFNVB7yx1j+kYq8NIIJBFCNiD1rirKPPP5i6/wCc49DXV35toenx6dC1SfUEbMfWev7brxDHvxri&#xA;rKvJ3kiKT8iPP/nOdf3kMun6dYNT/l8t5Lj7/Ui+7FXlmKv1N0+Z5rC2mkNZJIkdz03ZQTir4V/5&#xA;yz0Y6d+dGo3AHFNUtrW8QUoP7oW7EfNoCfniqf8A/OFurPb/AJk6npxNIr/S5G4+MkE0bL/wrPir&#xA;7SxVL7ny75fupmnutMtJ5m+1LLBG7H5syk4qrWmlaXZgLaWcFuoBAEUaIKE1I+EDrirw/wD5yi/K&#xA;Hy5qnkO+806bYQ2mvaKouZJ4IxGZ7cMBMkvAfFxU81Y7ilOhOKviu0u7mzuobu1kaG5t5FlgmQ0Z&#xA;JEIZWU+IIrir9Fb/AMxtq/5I3XmN2ET3/lqS/kZTQI0tiZW6E04k4q/OTFX0f5M/5w4u/MXljSde&#xA;m81R2SatZW99HAliZyguY1lCljPFWgbriqdP/wA4MuEJj86hnp8KtpnEE+5F21PuxV8vX9nJZX1z&#xA;Zy/3ltK8L/60bFT+rFX3F/ziHd+v+TVtFWv1S+u4aUpSriX6f7zFXyJ+cFuLf81vOEYII/TN84oK&#xA;AB7h3A+jlTFUq/xXqi+Th5Ujb09Ma/bUrgA7yy+kkMYb2jCsR7t7DFXq35G/848z+fvKmv67flre&#xA;IwSWvlxiSokvlo3qt4xIV9M+NW7rirxO4t57a4lt7iNop4XaOWJxRldDRlYHoQRir7s/5xX/ADBb&#xA;zV+WcNhdSc9U8uMLC4qas0HGttIf9gPT9yhxV7Jir85fz0sls/zg83RAUDalNNSlN5z6pP8Aw+Ks&#xA;y/5x0/Izy5+ZsOs3Gt395aR6W8EaR2RiVn9ZXJJaVJaU9P8AlxV6nqn/ADhB5XkB/RXma9tT2N1B&#xA;Fc/8mzbYql9l/wA4N2qyVvvODyR1PwQWAjaldjya4k7f5OKvla8gFveTwA8hFI6Bj1IViMVfVH/O&#xA;Lf5J+Qdc8rWvnXWbSTUNUju5Uht53raoYGHB/RAXmf8AXLD2xV43/wA5HwCH87fNKBOFbiJ+JFP7&#xA;y2ieu/8ANyrir13/AJwZmQT+c4T9t10118KIboH/AImMVef/APOVP5dxeU/zHfULGL0tJ8xo17Aq&#xA;iiJcBqXMa/7IrJ/s6Yq8YxV9Y/of9Bf84S3Jli/fahFFeSA7V+t6lEIm/wCRRQ4q+TsVfqdZQNb2&#xA;cEDEFoo0RiOhKqBtir5A/wCc3LWNfO3l66H95LprRNsK8Yp3Zd/+ehxVjX/OIf8A5OW2/wCYG7/4&#xA;iMVfdWKuxV2KsS/N4wj8qfOJlpx/QuoAchUcjbOE+nlSmKvzYxV96Gtj/wA4n7fvOfk75f70af8A&#xA;T9n1MVfBeKv0z/LlEj/L3yuiAKiaTYqqjoALZABirIcVfmd+ZNmLL8xPNFmBQW+r30SgCgoly4FK&#xA;9qYq+qv+cJ771Py71qyJqbfVmlA32Wa2hA+isRxV84/n2iJ+cfm0KoUG/c0ApuwBJ+knFXfk1+Uu&#xA;r/mR5qj06APBo9qVl1jUQNoYSfsqTt6klCEH09AcVfoRoujaZomk2mkaXAttp9jEsFrAnRUQUHuT&#xA;4k7k7nFXw5/zlZ5MXy7+a93e28fCy8wRrqUdB8PrMSlwK/zGVTIf9bFVX/nE7zsvl380odNuJOFj&#xA;5jiNg9T8IuAeds3zLgxj/XxV914q/Pb/AJyR/wDJ2+af+M8P/UNFir2H/nBl3KedUJPBTpjBewLf&#xA;WwT9PEYq+qMVdir8v/NKInmfV0RQqLe3AVQKAASsAABir7M/5w2J/wCVRze2q3NP+RcOKvnn/nKi&#xA;Bo/zy8wOSCJksnWnYCyhTf6UxV6B/wA4PzlfMHmmCm0lpbScvDhI4p9PPFWf/wDOZej2d1+V9pqU&#xA;lVutO1GL6uwUtVZ0dJEJH2QaBq+Kgd8VfH3lfyl5k81atFpWgafNqF7KQOESkqgJpzkb7KIO7MQB&#xA;ir7b/wCcidNh0v8A5xw1fTIEEUFjb6ZbRRruqpDe2yKo9gFxV8JWckUV5BJKOUSSI0i0rVQwJFD7&#xA;Yq/U4EEVG4PQ4q+Ov+c3DP8A428vBv7gaaxj2FOZnfnv8uOKsW/5xHnji/OixRzRp7S7jjHiwiL/&#xA;APEUOKvtvzTq02jeWNX1eCJZ59Osri7igY8Vd4ImkVCw6BitK4q+CPMH/ORn5x61eNcSeY7iwQms&#xA;dtp9LWJB/KPT+Nh/rsx98Vfcf5YX2q6h+XPlm/1aVp9Su9MtJ7qZ6cneWFX5NSm5rviqG/OK2nuv&#xA;yp83QQIXlbSbwqg6njCzGn0DFX5t4q+7tPuV13/nEzla7lfKktuAN6vY2rQuBTuWgIxV8I4q/Rn8&#xA;iNXXVvye8pXSmoj0+K0JG+9nW1P4w4qzvFX5z/nvCkP5w+bUStDqMrmvi9HP4tir3n/nBy45aV5u&#xA;tudfTnspOHh6iTLX6fT/AAxV4X/zkAVP5zebOIoPrp2JrvwWp+k4q90/5wc/45Xm7/jPZf8AEJsV&#xA;fT+KvEP+ct/IZ8xflt+mrWPnqHlqQ3YoKsbSQBLlR7CiyH2TFXw/a3VxaXUN1bSNFc27rLDKpoyO&#xA;hDKwPiCK4q/Sn8tPOdv508i6P5khKh763U3Ua9EuE+CdADvRZFantir4c/5yR/8AJ2+af+M8P/UN&#xA;Fir1/wD5wY/6bb/t1/8AY5ir6qxV2KvzM/MWAwfmD5ngZeDRatfIUFKKVuXFNvDFX1j/AM4VXTSf&#xA;lpq1san0NYlZSTsFktoNh9Kk/TirwT/nKO/t7z87NeMBJEAtreQkU+OO2jDUr2rirPf+cIWA82eZ&#xA;F3qbCIjY02m8enfFX13dWlreW7213DHcW0opJDKodGHWjKwIOKqWnaTpWmQehptlBYwdfStokiSv&#xA;+qgUYqwP/nIrTH1L8lfNVunVLVLo08LSeO4P4RYq/PHFX6X/AJZ6tLrH5d+WdTmqZ7vTLSWYnvIY&#xA;V5n6Wrir59/5zh0hDD5U1hdnDXdnL7giOSP7qP8Afirxj/nHeW5i/Onyq1ty9Q3TK3EEn03hkWTp&#xA;24Fq+2KvuD837k235Veb5Vry/Q98ikGhBe3dAa+3KuKvzZxV+m/kO4s7nyR5fnsmV7STTbQwMn2e&#xA;HoLSmKpjrV3pVppF5c6tLHDpcULteyyniiw8Tz5Hwpir8uxGZJ/Tt1aQu3GFKVdqmiigrufbFX6C&#xA;fkb5K1LSPyT0ry5r8TRXNzb3JurV68oo72WSQRkdVYJKOS9mrir8+54XgnkhenOJmRqdKqaHFX3Z&#xA;/wA4lPcN+SunCUERrdXgt6909Ziaf7Mtir2TFX52fn/cW0/5y+bHtwBGL5o2oa/HGipJ/wAOpxV7&#xA;x/zg9pzx6H5r1IpSO5urW2WTfc28cjkeG31gffirwD887kXH5webpAKBdSnj2Nd4m9M/8RxV9E/8&#xA;4RWzL5O8x3NBxl1GOMHvWOAMa/8AIzFX0jiqldWtvd2s1rcxrLbXCNFNEwqro4KspHgQaYq/NT8x&#xA;/KE/k7zzrPluWpGnXLJA7dXgekkDn3aJlOKvoz/nCXzdNJb6/wCUZmLRwFNTshuQoekM4r2FRGQP&#xA;nirxr/nJH/ydvmn/AIzw/wDUNFir2H/nBmOQR+dZCpEbHTVV6HiWUXRYA+I5CvzxV9UYq7FX5qfm&#xA;nf2eofmX5qvrIq1pcateyQuhqrq070cEfz/a+nFX19/ziP5P1jy9+WU0+rW8lpNrF895bwSgo4tx&#xA;FHEjMp+JeZRiK/s0PfFWTfmL/wA4/wD5c+ftUTVtYtprfUwoSW8spBC8qqKKJQVdWKjYNStNq0GK&#xA;p95C/LLyX5DsJbPyzp62guCpurhmaSaYrXj6kjkk0qaAbDsMVZTirsVY3+ZOgax5i8ha7oWjXEdr&#xA;qOp2ctrDNOCY6Sji6tQMQHQsvIA0rXFXyp5W/wCcMfP13qcY8x31npelqw9d4JDcXDqOoiUKEFel&#xA;WbbwPTFX2LpWmWWlaXZ6XYx+lZWEEdraxVJ4xQoERanwVRirDPzU/Jjyz+ZaacmvXuoW0WmGVoI7&#xA;GWKNWabiGLiWKapAQUpTviq78vvyR/LnyFMbrQdN/wByTKY21K5dp7jieoVm+GOvfgq174qy/WdK&#xA;s9Y0i+0m9UvZajby2lyoNCYp0MbgH/VY4q+LPM3/ADh7+aenX8qaILXW7CpNvMkyW8pXt6kc5RVb&#xA;5OR74qjPLX5M/wDOV+lWH6M0y5vNF0+rBbZNXiSJOVSzIsE0nCpP7O9cVZRbf84o/mn5jZG89+eW&#xA;lhDBvSE11qT7bdbhoVU02r8WKvYvy4/5x8/LfyHLHe6fZtf6zGPh1W/IlmU9zEoCxxfNV5U2qcVe&#xA;k4q8Os/+cPPykhvnurqTVNQV3Ltb3N0gj3JJFYYoZO/89cVeyaLomk6HpVtpOkWsdlptmnp21rCO&#xA;KItamnuSSSTuTucVRuKvnHzZ/wA4aaXrnmvUNbt/NE1la6jcyXctk9os7q8zmR1Wb1o9qt8NUNPf&#xA;FXtH5dfl7oHkHyxD5e0RXNtGzTTzzENLNM4AeVyABUhQNhQADFXnuu/84l/lZrXmS8165l1OOW/n&#xA;e6ubOG4jFuZJWLuRyiaUBmJNBJ8sVen+UfJ3lvyhokWi+XbFLDTomL+kpZmZ2pyeR3LO7Gg3Y+3Q&#xA;YqnOKuxV5J+bP/ON/lP8xdci124vrnTNTWJYJ5LcI6SoleBZHFeYrTkD07Yqnv5U/kp5O/LW2uBo&#xA;wmudQvQq3mpXTBpXRSSI1ChURATWgG/cmgxVrX/yF/KbzB5guPMOsaAt5q12yvcTvcXYV2RAgrEs&#xA;qxfZUfs4qzDQ9A0TQdPTTdFsINOsI90traNYkqerUUCrHuTucVR+KtMqspVgGVhRlO4IPY4qx7TP&#xA;y4/L3SrtbzTPLGlWV4h5R3NvZW8cin/JdUDL9GKsixV2KuxV2KuxV2KrZZooYzJK6xxr9p3IUCpp&#xA;uTiqH/S2lf8ALbB/yNT+uKoVvNXldWKtrFirKaMpuYQQR2PxYq1/izyr/wBXmx/6SYf+asVVoPMG&#xA;g3AJg1K1lC7MUnjYA+9GxVWXVNMZgq3cLMxoqiRCST2G+KonFXYq7FXYq7FXYq7FXYq7FXYq7FXY&#xA;q7FVCfULCByk9zFE4FSruqmnjQnFUD/izyr/ANXmx/6SYf8AmrFVS38x+XrmQRW+qWk0h6JHPEzf&#xA;cGOKpjirsVdirsVdiqhe3kNlayXMyytHGKssEUs8h7fDHCskjfQuKvL/ADT/AM5AQaQWh07yX5n1&#xA;S6pVQdMuLSI/Np1En3RnFXkvmT/nI/8A5yAvTIuieR5tGgNeLvY3d3Ov+zdI4j/yKxV5Zr/5r/8A&#xA;OQmoKX1LV9ato3PH/R43sVPen+jpCMVYDc6r5jv7mRLq8vLu6k5LKsskskjHfkGDEk964qtg8va/&#xA;ccvq+mXc3GnL04JGpXpWi+2KoqDyT5zuCRBoOoyld2CWk7ED3omKq3/KvfP3/Utar/0g3P8AzRir&#xA;v+Ve+fv+pa1X/pBuf+aMVcfy98/AVPlrVQB1P1K5/wCaMVQn+E/NP/Vmvv8ApGm/5pxVDyaLrUMh&#xA;SSwuY5F6q0UisD16EYq2+pa1DLxe6uYpUO6tJIrA9e5riqIHm3zWpBGtX4I3BFzNUH/gsVRX/Kwv&#xA;P3/Uy6r/ANJ1z/zXiqJT81fzQjQJH5w1tEUUVV1G7AA8ABJiq9Pzb/NVHDjzlrZKmoDajdMPpBkI&#xA;OKon/ldf5uf9Tfqv/SVL/XFXf8rr/Nz/AKm/Vf8ApKl/rirv+V1/m5/1N+q/9JUv9cVUp/zi/Nif&#xA;jz846yONaenfXEfXx4OtfpxVDy/mn+Z00Zjl8363JG32kfUbtgaGu4MmKoOfzz52uFCz+YNSlUGo&#xA;V7ydgD47viqBa81zUS6NPc3jN8UqlpJSaHqwqe+Koi38pearnh9W0a+n9T7Hp20z8vlxU1xVFf8A&#xA;KvfP3/Utar/0g3P/ADRiqta/lj+ZN1J6dv5U1eVtqhbC5IFTTc8KAe5xVmXl38mf+cjIuP6F0nVd&#xA;O2qtLpbGmxP+7JoaYq9S8uflT/zlz8PrecW09R1+vajLdtTlXoqXIP0nFXrnlXyf+e+nlG1jz/Ya&#xA;ii9YJtIWUdenqQzWT9O5xV6VarcJbRJcOJbhUUTSKOKs4HxMF3oCe2KqmKuxV2KuxV2KuxV2KuxV&#xA;2KuxV2KuxV2KuxVLrj/DvrP9Y+p+vX956npc6+9d8VSu6/5Vt67fW/0N9Y25+r9V59BSvLfpiqCv&#xA;f+VOekPr3+HfS5fD6/1HjyoenLatK4qgf+QBf9+p/wBy7FVC8/6Fz9H/AE3/AAf6NRT1v0Zx5dvt&#xA;bVxVA/8AWLH/AH43/coxVVtv+hYfXT6t/gn1/wBj0/0TzrTtx3xVMP8AkAX/AH6n/cuxVGWP/KmK&#xA;P9Q/w5Tb1PQ+o0r2rwxVN7L/AAN6R+o/ov0uXxeh9X48qDrx2rSmKp6KUFOnanSmKuxV2KuxV2Ku&#xA;xV2KuxV2Kv8A/9k=</xmpGImg:image>
               </rdf:li>
            </rdf:Alt>
         </xmp:Thumbnails>
      </rdf:Description>
      <rdf:Description rdf:about=""
            xmlns:pdf="http://ns.adobe.com/pdf/1.3/">
         <pdf:Producer>Adobe PDF library 9.90</pdf:Producer>
      </rdf:Description>
      <rdf:Description rdf:about=""
            xmlns:dc="http://purl.org/dc/elements/1.1/">
         <dc:format>image/svg+xml</dc:format>
      </rdf:Description>
      <rdf:Description rdf:about=""
            xmlns:xmpTPg="http://ns.adobe.com/xap/1.0/t/pg/"
            xmlns:stDim="http://ns.adobe.com/xap/1.0/sType/Dimensions#"
            xmlns:xmpG="http://ns.adobe.com/xap/1.0/g/">
         <xmpTPg:MaxPageSize rdf:parseType="Resource">
            <stDim:w>85.589355</stDim:w>
            <stDim:h>35.034180</stDim:h>
            <stDim:unit>Pixels</stDim:unit>
         </xmpTPg:MaxPageSize>
         <xmpTPg:NPages>1</xmpTPg:NPages>
         <xmpTPg:HasVisibleTransparency>False</xmpTPg:HasVisibleTransparency>
         <xmpTPg:HasVisibleOverprint>False</xmpTPg:HasVisibleOverprint>
         <xmpTPg:PlateNames>
            <rdf:Seq>
               <rdf:li>Cyan</rdf:li>
               <rdf:li>Magenta</rdf:li>
               <rdf:li>Yellow</rdf:li>
               <rdf:li>Black</rdf:li>
            </rdf:Seq>
         </xmpTPg:PlateNames>
         <xmpTPg:SwatchGroups>
            <rdf:Seq>
               <rdf:li rdf:parseType="Resource">
                  <xmpG:groupName>Группа образцов по умолчанию</xmpG:groupName>
                  <xmpG:groupType>0</xmpG:groupType>
               </rdf:li>
            </rdf:Seq>
         </xmpTPg:SwatchGroups>
      </rdf:Description>
   </rdf:RDF>
</x:xmpmeta>
                                                                                                    
                                                                                                    
                                                                                                    
                                                                                                    
                                                                                                    
                                                                                                    
                                                                                                    
                                                                                                    
                                                                                                    
                                                                                                    
                                                                                                    
                                                                                                    
                                                                                                    
                                                                                                    
                                                                                                    
                                                                                                    
                                                                                                    
                                                                                                    
                                                                                                    
                                                                                                    
                           
<?xpacket end="w"?>
	</metadata>
<g>
	<path d="M36.638,46.517c-0.014-3.472-0.262-6.938-0.356-10.409c-0.008-0.34-0.015-0.681-0.02-1.021
		c0.049,0.122,0.097,0.243,0.146,0.364c0.54,1.352,1.103,2.663,1.839,3.92c0.731,1.244,1.099,2.58,1.521,3.939
		c-0.159,0.182-0.256,0.39-0.196,0.596c-0.033,0.15,0.059,0.245,0.212,0.306c0.537,0.46,1.55,0.231,2.113-0.008
		c0.242-0.102,0.474-0.221,0.696-0.355c0.29-0.181,0.744-0.572,0.613-0.977c-0.024-0.079-0.049-0.157-0.072-0.235
		c0.396-1.068,0.598-2.179,0.813-3.308c0.23-1.206,0.659-2.345,1.092-3.485c0.043,0.521,0.088,1.044,0.129,1.566
		c0.174,2.147,0.028,4.27,0.008,6.422c-0.008,0.713,0.046,1.375,0.184,2.075c0.059,0.287,0.31,1.521,0.235,1.588
		c-0.516,0.476-0.366,1.061,0.326,1.211c0.771,0.169,1.753-0.088,2.333-0.625c1.009-0.934,0.531-2.396,0.304-3.572
		c-0.385-1.973,0.077-4.181,0.017-6.189c-0.069-2.26-0.43-4.503-0.399-6.769c0.023-1.831,0.328-3.714-0.303-5.471
		c0.039-0.2,0.08-0.398,0.117-0.6c0.163-0.879-2.754-0.414-3.212,0.392c-0.29,0.235-0.438,0.519-0.313,0.806
		c0.031,0.071,0.057,0.146,0.084,0.219c-0.552,2.699-1.321,5.313-2.207,7.93c-0.339,1.001-0.748,1.977-1.095,2.978
		c-0.49-0.933-0.986-1.851-1.384-2.847c-1.155-2.891-2.199-5.813-3.61-8.596c0.16-1.289-2.698-1.153-3.261,0.026
		c-0.682,1.426-0.592,2.866-0.369,4.393c0.254,1.721,0.298,3.411,0.32,5.147c0.039,3.347,0.3,6.689,0.351,10.04
		c-0.298,0.331-0.389,0.741-0.078,1.158c0.136,0.182,0.306,0.321,0.482,0.46C34.454,48.198,36.643,47.679,36.638,46.517z"/>
	<path d="M54.834,28.145c-0.089-0.613-3.416,0.084-3.3,0.885c0.259,1.776,0.167,3.561,0.136,5.352
		c-0.031,1.722,0.394,3.282,0.615,4.971c0.226,1.732-0.071,3.502,0.126,5.235c0.09,0.812,0.632,2.312,0.074,3.018
		c-0.354,0.447,1.237,0.285,1.31,0.275c0.646-0.12,1.509-0.331,1.938-0.875c0.552-0.697,0.165-2.042,0.045-2.827
		c-0.267-1.734-0.097-3.537-0.162-5.286c-0.061-1.676-0.644-3.254-0.65-4.946C54.957,32.001,55.119,30.077,54.834,28.145z"/>
	<path d="M57.958,34.791c0.91,2.514,4.648,1.327,6.551,1.471c3.238,0.239,2.272,4.607,2.313,6.641
		c0.022,1.085,0.995,2.889,0.179,3.798c-0.502,0.556-1.669,0.589-2.352,0.646c-0.687,0.057-1.854,0.261-2.312-0.39
		c-0.836-1.194,0.077-3.2-0.102-4.568c-0.103-0.78-3.424-0.08-3.299,0.884c0.29,2.211-1.179,5.175,2.022,5.556
		c2.059,0.244,4.372-0.136,6.317-0.783c1.008-0.334,1.943-0.792,2.731-1.509c0.872-0.794,0.585-1.979,0.352-2.987
		c-0.569-2.458,0.616-5.289-0.987-7.454c-1.738-2.345-4.962-0.657-7.212-1.297c-1.161-0.33-1.175-1.911-1.17-2.86
		c0.002-1.202-0.098-2.302-0.231-3.491c-0.1-0.887-0.021-1.787,0.628-2.447c0.119-0.121,0.723-0.283,0.681-0.286
		c0.299-0.051,0.572-0.063,0.9-0.076c1.304-0.056,3.885,0.195,3.386,2.092c-0.226,0.851,3.028,0.363,3.266-0.537
		c1.021-3.874-6.138-3.131-8.159-2.593c-1.863,0.494-3.916,1.555-4.023,3.704c-0.052,1.027,0.229,2.006,0.274,3.022
		C57.764,32.494,57.546,33.662,57.958,34.791z"/>
	<path d="M72.413,36.661c-0.053,1.799-0.208,3.593-0.22,5.393c-0.006,0.921,0.146,1.842,0.278,2.75
		c0.122,0.841,0.407,1.964,0.152,2.796c-0.198,0.646,3,0.242,3.254-0.587c0.458-1.497-0.188-3.402-0.341-4.918
		c-0.147-1.451-0.032-2.945,0.072-4.42c1.708-0.11,3.418-0.249,5.119-0.011c0.076,1.163,0.164,2.321,0.272,3.483
		c0.088,0.976,0.151,1.948,0.164,2.929c0.015,0.855,0.12,2.099-0.185,2.913c-0.651,1.731,2.655,1.59,3.136,0.308
		c0.592-1.577,0.423-3.537,0.323-5.194c-0.13-2.059-0.404-4.106-0.47-6.166c-0.102-3.183-0.58-6.329-0.594-9.516
		c-0.007-1.661-3.338-1.099-3.331,0.288c0.012,3.04,0.417,6.037,0.571,9.068c0.005,0.061,0.008,0.121,0.01,0.185
		c-1.64-0.016-3.281,0.149-4.929,0.207c0.171-3.902-0.515-7.771-0.364-11.672c0.02-0.492-3.264-0.077-3.3,0.883
		C71.887,29.151,72.526,32.891,72.413,36.661z"/>
	<path d="M86.493,42.032c-0.254,0.259-0.159,0.414,0.045,0.506c0.001,1.474-0.05,2.949-0.178,4.424
		c-0.396,0.63,0.39,0.96,0.912,0.96c0.028,0,0.055,0,0.082,0c0.622,0,2.209-0.293,2.289-1.148c0.162-1.769,0.211-3.535,0.196-5.299
		c1.337-1.446,2.434-3.057,3.416-4.748c0.64,1.248,1.247,2.505,1.676,3.861c0.725,2.31,1.938,4.431,2.637,6.75
		c0.459,1.521,3.754,0.621,3.298-0.885c-0.701-2.319-1.856-4.462-2.638-6.75c-0.791-2.322-1.998-4.361-3.046-6.568
		c0.845-1.641,1.699-3.283,2.47-4.96c0.698-1.524,1.219-3.216,2.594-4.289c0.483-0.376,0.464-0.755-0.216-0.801
		c-0.737-0.054-1.738,0.159-2.334,0.625c-1.25,0.974-2.042,2.158-2.694,3.595c-0.784,1.726-1.598,3.421-2.455,5.117
		c-0.061,0.123-0.125,0.248-0.188,0.373c-0.412,0.264-0.66,0.642-0.539,1.064c-0.666,1.316-1.347,2.627-2.104,3.885
		c-0.252-4.661-0.803-9.317-0.969-13.983c-0.036-1.068-3.345-0.403-3.297,0.886c0.204,5.785,1.024,11.557,1.083,17.34
		C86.52,42.002,86.505,42.018,86.493,42.032z"/>
	<path d="M118.027,35.8c-0.177-0.701-1.155-0.716-1.914-0.648c-0.01-0.281-0.017-0.566-0.029-0.849
		c-0.106-2.241-0.139-4.53-0.329-6.765c-0.176-2.069-1.335-2.812-3.346-2.734c-2.035,0.077-4.404,0.443-6.302,1.183
		c-2.197,0.853-3.421,2.471-3.841,4.784c-0.464,2.539,0.201,5.238,0.313,7.789c0.13,2.951,0.056,5.909,0.054,8.859
		c0,0.484,3.297,0.027,3.297-0.884c0.004-2.338,0.037-4.676,0-7.014c-0.011-0.688-0.043-1.374-0.085-2.057
		c1.155-0.499,3.106,0.01,4.255,0.118c0.933,0.089,1.826-0.138,2.732-0.244c0.017,1.946,0.09,3.905,0.17,5.851
		c0.042,0.997,0.402,2.975-0.297,3.799c-0.368,0.436,1.249,0.288,1.31,0.28c0.668-0.124,1.482-0.338,1.939-0.877
		c0.8-0.942,0.384-3.192,0.338-4.316c-0.065-1.611-0.086-3.223-0.121-4.834C117.144,37.111,118.208,36.515,118.027,35.8z
		 M111.365,35.638c-1.928-0.046-3.828-0.349-5.651,0.036c-0.086-1.051-0.183-2.098-0.255-3.154
		c-0.134-1.962,0.099-4.702,1.928-5.896c0.492-0.318,1.413-0.264,1.984-0.368c0.819-0.147,1.647-0.328,2.384,0.16
		c1.018,0.676,0.769,3.08,0.766,4.101c-0.002,1.69,0.177,3.37,0.262,5.059C112.317,35.622,111.844,35.648,111.365,35.638z"/>
	<path d="M51.159,24.322c-0.048,0.18,0.013,0.356,0.119,0.497c0,0.039,0.002,0.075,0.002,0.114c0.004,0.094,0.009,0.188,0.013,0.282
		c0.062,0.194,0.182,0.343,0.362,0.446c0.325,0.196,0.737,0.232,1.108,0.196c0.439-0.041,0.882-0.191,1.245-0.439
		c0.072-0.062,0.143-0.122,0.216-0.183c0.438-0.282,0.818-0.697,0.612-1.146c-0.424-0.932-0.358-1.88-0.35-2.875
		c0.005-0.808-0.812-1.051-1.501-0.989c-0.608,0.054-1.827,0.489-1.831,1.279c-0.007,0.836-0.062,1.698,0.092,2.522
		C51.206,24.119,51.182,24.225,51.159,24.322z"/>
	<path d="M112.736,53.505c-1.558-0.585-3.283-0.615-4.851-0.787c-1.603-0.17-3.245-0.41-4.884-0.563
		c-1.637,0.053-3.31,0.027-4.972,0.129l-4.88,0.268c-6.487,0.289-12.999,0.253-19.517,0.107c-6.517-0.123-13.045-0.477-19.63-0.453
		c-3.288,0.008-6.565,0.099-9.862,0.25c-1.632,0.283-3.239,0.501-4.904,0.913c-1.615,0.399-3.145,0.907-4.794,1.048
		c1.623,0.362,3.341,0.292,4.962,0.297c1.579,0.01,3.243,0.143,4.872,0.231c3.229-0.172,6.487-0.246,9.733-0.258
		c6.487-0.024,13.015,0.329,19.565,0.451c6.548,0.146,13.114,0.186,19.683-0.11l4.907-0.269c1.603-0.071,3.198-0.127,4.829-0.067
		c1.628-0.148,3.253-0.33,4.918-0.532c1.664-0.238,3.22-0.627,4.854-0.509l0.074,0.006l0.006-0.055
		c0.021-0.178-0.04-0.323-0.04-0.479C112.772,53.251,112.767,53.388,112.736,53.505z"/>
</g>
</svg>
