<?xml version="1.0" encoding="utf-8"?>
<!-- Generator: Adobe Illustrator 16.0.2, SVG Export Plug-In . SVG Version: 6.00 Build 0)  -->
<!DOCTYPE svg PUBLIC "-//W3C//DTD SVG 1.1//EN" "http://www.w3.org/Graphics/SVG/1.1/DTD/svg11.dtd">
<svg version="1.1" id="Layer_1" xmlns="http://www.w3.org/2000/svg" xmlns:xlink="http://www.w3.org/1999/xlink" x="0px" y="0px"
	 width="148.051px" height="72.707px" viewBox="0 0 148.051 72.707" enable-background="new 0 0 148.051 72.707"
	 xml:space="preserve">
<metadata><?xpacket begin="﻿" id="W5M0MpCehiHzreSzNTczkc9d"?>
<x:xmpmeta xmlns:x="adobe:ns:meta/" x:xmptk="Adobe XMP Core 5.3-c011 66.145661, 2012/02/06-14:56:27        ">
   <rdf:RDF xmlns:rdf="http://www.w3.org/1999/02/22-rdf-syntax-ns#">
      <rdf:Description rdf:about=""
            xmlns:xmpMM="http://ns.adobe.com/xap/1.0/mm/"
            xmlns:stRef="http://ns.adobe.com/xap/1.0/sType/ResourceRef#"
            xmlns:stEvt="http://ns.adobe.com/xap/1.0/sType/ResourceEvent#">
         <xmpMM:RenditionClass>proof:pdf</xmpMM:RenditionClass>
         <xmpMM:DocumentID>xmp.did:02751F54694AE911A942F5DCA5CF7BD7</xmpMM:DocumentID>
         <xmpMM:InstanceID>xmp.iid:02751F54694AE911A942F5DCA5CF7BD7</xmpMM:InstanceID>
         <xmpMM:OriginalDocumentID>uuid:408ab4d5-f5f7-524d-aeaa-10fddd7e5627</xmpMM:OriginalDocumentID>
         <xmpMM:DerivedFrom rdf:parseType="Resource">
            <stRef:instanceID>uuid:d1d44b86-1d8f-1a44-a17a-95f75366a3c7</stRef:instanceID>
            <stRef:documentID>uuid:408ab4d5-f5f7-524d-aeaa-10fddd7e5627</stRef:documentID>
            <stRef:originalDocumentID>uuid:408ab4d5-f5f7-524d-aeaa-10fddd7e5627</stRef:originalDocumentID>
            <stRef:renditionClass>proof:pdf</stRef:renditionClass>
         </xmpMM:DerivedFrom>
         <xmpMM:History>
            <rdf:Seq>
               <rdf:li rdf:parseType="Resource">
                  <stEvt:action>saved</stEvt:action>
                  <stEvt:instanceID>xmp.iid:02751F54694AE911A942F5DCA5CF7BD7</stEvt:instanceID>
                  <stEvt:when>2019-03-19T20:07:38+03:00</stEvt:when>
                  <stEvt:softwareAgent>Adobe Illustrator CS6 (Windows)</stEvt:softwareAgent>
                  <stEvt:changed>/</stEvt:changed>
               </rdf:li>
            </rdf:Seq>
         </xmpMM:History>
      </rdf:Description>
      <rdf:Description rdf:about=""
            xmlns:xmp="http://ns.adobe.com/xap/1.0/"
            xmlns:xmpGImg="http://ns.adobe.com/xap/1.0/g/img/">
         <xmp:CreateDate>2019-03-19T20:07:38+03:00</xmp:CreateDate>
         <xmp:CreatorTool>Adobe Illustrator CS6 (Windows)</xmp:CreatorTool>
         <xmp:ModifyDate>2019-03-19T20:07:38+03:00</xmp:ModifyDate>
         <xmp:MetadataDate>2019-03-19T20:07:38+03:00</xmp:MetadataDate>
         <xmp:Thumbnails>
            <rdf:Alt>
               <rdf:li rdf:parseType="Resource">
                  <xmpGImg:width>256</xmpGImg:width>
                  <xmpGImg:height>128</xmpGImg:height>
                  <xmpGImg:format>JPEG</xmpGImg:format>
                  <xmpGImg:image>/9j/4AAQSkZJRgABAgEASABIAAD/7QAsUGhvdG9zaG9wIDMuMAA4QklNA+0AAAAAABAASAAAAAEA&#xA;AQBIAAAAAQAB/+4ADkFkb2JlAGTAAAAAAf/bAIQABgQEBAUEBgUFBgkGBQYJCwgGBggLDAoKCwoK&#xA;DBAMDAwMDAwQDA4PEA8ODBMTFBQTExwbGxscHx8fHx8fHx8fHwEHBwcNDA0YEBAYGhURFRofHx8f&#xA;Hx8fHx8fHx8fHx8fHx8fHx8fHx8fHx8fHx8fHx8fHx8fHx8fHx8fHx8fHx8f/8AAEQgAgAEAAwER&#xA;AAIRAQMRAf/EAaIAAAAHAQEBAQEAAAAAAAAAAAQFAwIGAQAHCAkKCwEAAgIDAQEBAQEAAAAAAAAA&#xA;AQACAwQFBgcICQoLEAACAQMDAgQCBgcDBAIGAnMBAgMRBAAFIRIxQVEGE2EicYEUMpGhBxWxQiPB&#xA;UtHhMxZi8CRygvElQzRTkqKyY3PCNUQnk6OzNhdUZHTD0uIIJoMJChgZhJRFRqS0VtNVKBry4/PE&#xA;1OT0ZXWFlaW1xdXl9WZ2hpamtsbW5vY3R1dnd4eXp7fH1+f3OEhYaHiImKi4yNjo+Ck5SVlpeYmZ&#xA;qbnJ2en5KjpKWmp6ipqqusra6voRAAICAQIDBQUEBQYECAMDbQEAAhEDBCESMUEFURNhIgZxgZEy&#xA;obHwFMHR4SNCFVJicvEzJDRDghaSUyWiY7LCB3PSNeJEgxdUkwgJChgZJjZFGidkdFU38qOzwygp&#xA;0+PzhJSktMTU5PRldYWVpbXF1eX1RlZmdoaWprbG1ub2R1dnd4eXp7fH1+f3OEhYaHiImKi4yNjo&#xA;+DlJWWl5iZmpucnZ6fkqOkpaanqKmqq6ytrq+v/aAAwDAQACEQMRAD8A9U4q7FXYq7FXYq7FXYq7&#xA;FXYq8w8//wDOR35X+SruXT7y+k1HVYSVmsNOQTvGw2KyOzJErA9VL8h4Yq87P/ObvlL1CB5bvzHX&#xA;ZjLCG4168a9fauKs/wDIn/OS/wCVnnC6jsYb2TSdTmIWKz1NFhLsdqJKrSQkk9AXDHwxV6pirsVd&#xA;irsVdirsVdirsVdirx788P8AnIrRPy6B0nT4k1XzVInMWhakFsrCqvclTyqeqxruRuSooSq+PvN/&#xA;5w/mT5tuHk1nXrp4WO1lA5gtlFdgIYuKGniwJ98VYcCQQQaEbgjrXFXqv5Q/85AecvJOu2cd9qNx&#xA;qPlh5Fjv9PuXaYRwk0aS35EsjoPiCrs3Q+IVffkckcsayRsHjcBkYbggioIxVdirsVdirsVdirsV&#xA;dirsVdirsVYp5r/NX8vfKeq22k+Ytah07ULuMTQQyrIaxs5QMzIrKoLA/aI6YqysEEVG4PQ4q7FX&#xA;Yq8j/wCcofPeqeUPyvlk0mc22o6vcx6dFcRnjJEkiPJK6EGoPCIryHTl44q+CCSTU7k4q1irsVfX&#xA;X/OKP543mrMPIXmW6M17DGW0G8lNXljjFXtnY7syIOSH+UEdhir6axVJvM/nPyp5WtYrrzFqttpc&#xA;EzcIWuZAhdhSoRftNSu9BtiqJvdf0iz8vz+YZblX0e3tH1B7yL96htkjMxkThy5j0xyHHr2xVhv5&#xA;Ufnd5V/MyTVYtEt7u1k0oxmRLxY1Lxzcgjp6byd4zyB6bYq9CxV2Kqc9xbwIHnlSJCaBnYKK9aVO&#xA;KsN/OP8AMW3/AC/8hahr54vfUFvpcD9JLuUERgjuqULsP5VOKvzr1PUr/VNRudS1Cd7m+vJGmubi&#xA;Q1d5HPJmJ9ycVQuKuxV2Kv048iLMvkfy8s9fWGmWYl5Gp5C3TlU/PFU8xV2KuxV2KuxV2KuxV2Ku&#xA;xV2KvHfzj/5xu0f8yfMdjrp1Z9IuoIRbXojgE/rxIxZKEyR8HXkw5Ubam22KvWNK0+PTdLs9Oike&#xA;WOygjt0llPKRliQIGdqCrHjucVSLzn+ZPk/yabOPXb1orvUWKWFlBFLc3EzAgHhFCrvty60/HFWS&#xA;xSCSJJFDAOoYBgVYAiu6tQg+xxV4f/zmLo8l9+UQu41qNK1K2upWA6I6yW33c51xV8O4q7FXYqjt&#xA;D1rUND1my1jTZfRv9PnjubaTweNgy1HcbbjuMVfQv5hfmn5o/Oyax0f8todUtLvTI3ur/TRNDbid&#xA;CY09USLKlfRkYDiTuG5UFDirz/8ANv8ANC085eUvJ2l3hnufNHl2Ge31bUGAEMvqcAoUlmd3URLz&#xA;cgAtUioOKvVvyI/PGDzNo+k/k7q+ln/TdOu9LGs+uOJQQSmNGgKCg9BRHUSbntirCf8AnF/zFF5J&#xA;/NrUdN8w3MGl20trc2N/Jezx20UU9vIrLVpWQFuUbIB1+LFUX+VXmmWf/nKuW91PUDcRTXurW8d3&#xA;PNVFiEc5hVWY04fAqoBt0pir6k82fm/+XflTWbbRNb1dLfV7sxiGySOWaT963FC/pI4QH/KIxV8w&#xA;/mDcv+aX/OUNn5dEv1nRrK9isFiDco/q9mPVvqAfDVikor8sVRv/ADmr5ve781aP5Vhc/V9LtjeX&#xA;Kg7Ge6NFDDxSOMEf6+Kvm7FXYq7FU98ieWZvNHnLRfL8QNdSvIoJGH7MbMPVf/YR8m+jFX6bIiRo&#xA;saAKiAKqjoANgBiryf8AOjyV+cXm/UdN03ylrsPl/wAtqvLUrqOeeG7eUkggiJatGqU4oHFWJ5dq&#xA;Kp7r/wCYfkL8rdD0nTPM+vStOkCQ273Hq3d7cCIBGmkEau25G7tQV264qy3QNbstd0Sx1mxEgs9Q&#xA;hS4t/WRopOEg5LyRqEbYqjyQBU7AdTiqUaN5v8q63eXdlo+r2eo3dgQLyC1njleKpIHMITTcUxVN&#xA;8VdirsVeH/mF/wA5P23kfzp+gNU8p6iunK5VtVkZYvVRaAy2sRUrMm/X1VxV6h5M8++UvOelDVPL&#xA;moxX1sKesqnjLCxFeM0bUdD8x8tsVeH/AJnf85gWOgeY5NI8p2FtrltbDjdak8rrE01SGjiCr8Sr&#xA;T7fIg9vEqsZtf+c4tYXj9a8pW8u/xelePFUe3KKWmKpzZ/8AOb3l+Rke/wDKVzC69Ghuo5ytftUL&#xA;xw4qnMH/ADmx+WzA+vo2sxn9n047V6/OtwlMVY9+ZH/OWP5a+Z/JOreXrfQ9VuH1O3e3pci2t0Qs&#xA;KpKHSW4PKNwrAcO2KvlDFVRIJ5EeRI2dI6GRlBIUHpyI6Yqp4q7FU58qecPMnlLVxq/l29bT9REb&#xA;wi4RUc8JBRl4yK67/LFUpmmkmmeaQ8pJGLuaAVZjU7DbFU58keabryp5u0nzHbJ6sul3Mdx6NePq&#xA;Ipo8de3NCVr74qivPH5j+b/PF5Hd+ZL1buSBpGtwsMUIjEvHko9NVJHwLTkT+vFVvkTzBoei+eNM&#xA;1vW9OXUNJtLgz3OnKqsGWh4hVchTxYggE9sVTH84vPTeePPt/wCYVkVrW44rYxhDG0VugpHHKDWs&#xA;ij7ZBIJ6GmKsb0XX9Y0O5ku9Iu5bG8kiaD61bu0cqo9OYR1oy8gKEg9KjFVHU9V1TVbtrzU7ya+v&#xA;HVVa5uZGlkKooVQXcs3wqABiqExV2KuxVMdA8w635e1OPVdFvJLDUYVdYrqEgSKJFKNxJ6VViMVT&#xA;ef8ANH8ybi7iu7jzRqk80EiywmW8nkVXU1BCMxTr2pTFWSJ/zkn+dyOrDzTMSpBFYLVht4gxEHFW&#xA;L6j+YHmPV/OMPm7zA8Wt6rFJFKyXsam3k9AAJG8MXpJ6fw7qtAe/U4q+oPyn/wCcuf8AE3mLTfLf&#xA;mLRY7K81KZLa3v7OWkHqybIrQzfEvJqKKSMd+mKso/OaT82/N2oP+X/k/SZdM0a6VV1nzVcsI4Wh&#xA;cVaKAqSxWnwvxHI/ZoFqSqzn8sPyx8ufl35bTRtGUySOfUv7+QD1rian2nI6KOiL+yPepKrL8Vdi&#xA;rsVSnzP5T8ueadJl0nzBp8Oo2EvWKZalWpTnGwoyOK7MpBGKvlv81P8AnHR/y08t+YPO3lXzXeWl&#xA;pDGkH6KEZWR4L2aO2eF7pJU5L++rvF28fixV8y4q7FXYq7FXYq7FX6SflVpGi235W+WrSxtYUsLn&#xA;SrSWSNUULKbi3RpHkFPiMnIlieuKvzhvLSezu57S4Qx3FvI0UyHqroxVgfkRiqjirsVdirsVdirs&#xA;VdirOY/yQ/NV/K83mg+XZ4tDt7dryW5meGFhbopdpRDI6zMvAcqhOm+KsGxV2KvQ7D8gvzVvPLUv&#xA;mU6N9U0eKBro3F7PBbEwqvMyCOV1fjx3BIFe2KvPMVdirsVdirsVXRySRSLJGxSRCGR1JDBgaggj&#xA;oRir2T/nG380/MGh/mhp9heX011pnmOdLG+hnkeSs0x4wTDkT8YlYAnupOKvu7FXYq7FXYq7FXnH&#xA;/ORQ0dvyY8zx6rcC3he2H1cmhL3Mciy28agkVLyoo9hv2xV+eWKvor/nHb/nHDy9558tS+aPNE9y&#xA;LR7h7ewsrZ1iDrFQPJI5VmILkqAtOnXFWBf85AflRD+XPnYWGn+s+g38K3OmTTsHfb4Zo2cKoJR/&#xA;b7JWuKvMsVfSn/OLn5GeS/OXl7UPM3mq1e/SK8NlZWRkkiiHpRxyPK3plGeplCj4qbHbFWC/85N+&#xA;RdD8mfmSunaFZJYaXc2EF3Bbxs7gcmkic1dnbd4j3xVPfLn/ADlf+YOl+SrLytpWk2kl3p1pHZ2u&#xA;olZZZFhhT00b0QeJdVC0J28VOKvKfJ3lXWPO3nSw8v2sldS1a4KyTzVbjsZJpX/aPBFZz8sVfVvm&#xA;3yZ+Vv5Dfl+muweXYPMWuSTxWdtd6mFlZ7mRHfn8SssKqsTGkagnpXvirB9A/wCc1tdtrqGLVPLN&#xA;idLBAeOwaSGRVJ3KBzIh8abV8Rir3n82vLH5feZfy71LU/MFraxxfUXubTU51SGeGQx84SspoysW&#xA;4jjX4vskHFXg3/OFnljy7q2oeab/AFTTre+vNOWwFjJcRrL6XrG4MhQOCAx9Jfi64ql//OadrbW/&#xA;n3QxBEkQbSgWCKFBP1iXwxVhn/OO/wCVOjfmP5yutO1m5mg06wtDeSpbFVklIkSNU5sG4r8dSaV/&#xA;Xiqdf85N/k75X/Lm+0F/LpuFtNXjuRLFcSCXjJbGLdTQNuJh1xV9iee401L8uvMUSL6iXukXiqhP&#xA;EsJbVwBWopWuKvzOxV71/wA4n/lNaebPMtx5l1mBZ9F0FkENvIA0c9445IGB2KxL8ZHiV7VxVkH/&#xA;ADmN+Z91caxB5A024ZLKyRLnWlRqCWeQB4YXp1WNKPToSw7qMVeAeTvJ3mDzh5gttB0C1N1qFySQ&#xA;K8URF3aSRzsqKOp+gbkDFXt3mL8l/wAoPyp06xuPzH1S+17Wr2rQ6LpPGGMqv22ZnKycFO3Iuley&#xA;9aKrfKv5of8AONo1u000/lqtrp9zKsJ1C7m+uNH6hC83jmMh4jvR606Yq9R/Pf8A5x8/L2X8vtX1&#xA;rQdIg0fWNGtpL6OW0HpRyRW6+pLHJEDwNY1NDSoPelQVXxPirsVZH+W8Uk35ieVooxykk1ewRF2F&#xA;S1zGAN8VfpjirsVdirsVdirwP/nM+/jg/K2xteY9W81aBRHyoxSOCZ2bj+0AwUH5jFXxPir7v/5x&#xA;JuYpvyW0+NDVra7vIpemzGYydv8AJkGKt/8AOVPkJfM/5X3OoQRhtT8uMdQgYD4jABS6Svh6f7w+&#xA;6DFXwfir9Dv+cevLDeXPyg8u2kicLm6g/SFx4lrxjMvL3WN1X6MVfOn/ADmvKT+ZukQ0FE0WJw1P&#xA;iJa7uRQnwHHbFXvP/OLlpp0f5K6Bd21pFbz3YuTdyxqoeV4ruaIPIwALHig69Btir558gXUNh/zm&#xA;BcPxAj/xDrNuiLsB631qFaUHYuMVe2f85jWaz/lCkppW01S2mWviUli2+iXFXw7iqJudR1C6jjiu&#xA;bqaeOEBYkkkZ1QDoFDE0+jFX0l/zg9OF17zVBTeS1tXDdgEkkFP+HxVZ/wA5v2vHzL5Yu6L+9sri&#xA;Kv7X7qVW39v3u2KpP/zhXd+n+aGp27NRbjRpuK06ulzbkb/6vLFWaf8AOcdoX0zyjeUNIZr6GtRT&#xA;96kLdOv+6sVfQHl6mseQNM5fENR0mCpfevr2y/ap/rb4q/NC3tri4uI7aCNpbiZ1jiiUEszseKqA&#xA;OpJNMVfoF5W03SPyX/JRW1Djy0i0a81MqQDPfTUJjVu5aRliQ+FMVfBHmDXNQ17XL/WtRf1L7UZ5&#xA;Lm4YbDnKxYgDsBWgHhir63/5ws8p2lr5O1XzQ8YN/qV2bOKQipW2tlU0B7cpXblT+UYq8M/5yd1u&#xA;41X86deEjlodPMNjbKa0RIoVLKK+MrO304q8rxV+mv5hQfWPIPmW34ep62lXsfp9eXK2cU+muKvz&#xA;KxV2Ksn/ACw1KPTPzH8r38iho7bVbN5Aa/ZE6VO1dwOmKv0a8xeZtA8t6VNq2u38OnafAKyXEzUF&#xA;eyqPtMx7KoJPbFUo8g/md5N8+2l1deWLxruKykWK55wywlWccl2kVa1A7YqyrFXYq7FXyv8A85zu&#xA;4TyUgY8CdTJWuxI+qUNPapxV8p4q+1/+cLJXf8q9SVmqI9buFQeCm1tW/WTir3meCC5glt50WWGV&#xA;WjmiYVVlYUZWHgQcVfnzdflDeQfnov5c8XaJ9TWKOT9o6e/771vmLX4j7g4q/QiKKOKNIolCRxqF&#xA;RFFAFAoAB7Yq+M/+c2LZ1/MjRro/Yl0eOIbbVjup2O//AD0GKvef+cXP/JE+Wf8Ao+/7qFxir5js&#xA;7+10X/nK24vNTcW9tH5quzJKxHFVnupAjsegX94CT2GKvrH89vIOpeevy11HQtLKDU+UVzZJI3FH&#xA;kgcN6ZY7DmtQCdq0rtir47i/5xl/PGSVo18ryBlrUtdWSLsabM0wU/QcVSTzh+TP5neTrH6/5i0G&#xA;azsahWukeG4iUsaLze3eVUqdhyIxV6l/zhPOq/mNrVvvyk0d5B4US6gBr/weKsi/5znRA/kpwo5k&#xA;amC1NyB9UoK+1Tirzz/nEi7aD86LCIVpdWl3E1DTYRGXcd94+mKvaP8AnNi1Rvy50W6NOcWsJENt&#xA;6S2s7Hft/dDFXqX5K3gu/wApPKEoNeOk2kOwp/cRCLv/AKmKvm7/AJxv/KltT/N3Wtdv4SdL8p30&#xA;6Q86EPfiVliWo2JhAMhp0bh44q9e/wCcs/LWta1+U88+mSv6ekXCX9/aJ0mt0Vkcnv8AuufqeFAe&#xA;4GKvhLFX3P8A84fzI/5OxKpqYtQukf2J4N+phir56/5yF8l+Zrr86vM50vR7y9heWCYSWttLKh9S&#xA;1hdt0Vh9pqH3xV5g/lfzKhUPpN6pc8UBt5RU+Aqu+Kv0nuEn1PyXKihvrF7prKocHnzlgoOQ61q2&#xA;+Kvzc8y+UvM/li9Wx8w6ZcaXdOvOOO5jKc0qRyQnZhUUqMVSjFUVpZvRqdobBGkvhNH9UjQFmaXm&#xA;PTCgbklqUxV9V6L/AM49fmZ+YurReYvzg1qWG3HxQaJA6GVVO/ABP3FupFK8AzHvQ74q+ivLHlXy&#xA;95X0iHR9AsItP0+D7EMQ6nuzsas7nuzEk4qmuKuxV2Kvmf8A5zgs2fy55XvP2Yby4hO21ZolYb/8&#xA;8sVfIeKvsr/nCX/lANd/7ap/6hosVZ3pPn+Ky/PjXfI15JRdTs7XUtL5Hb6xHAI54l/1oo1cD/Jb&#xA;xxVls/kPQJvPlp52eL/c1aWMunI+3ExyOrhz/lIOag+Dn2xVLLHzrJe/m/qflGNx9W0rR4LuVNuR&#xA;uLiY1+hYvT/4LFXz7/znDCg1rypMB+8e2u0Y+ySRkf8AEzir0f8A5w91j69+UIsyfi0rULm2Ck1P&#xA;GThcg07Amc4q+c/+co9LTT/zs10xjjHeLbXSilN5LdA596urHFWOaV+dH5raVZR2Nj5p1CK1iAWK&#xA;JpjIEUCgVfU5EKOwG2KovT/z8/OGxv471PNV9M8bc/RuJPWhbfdWieqEH5fLFX3d5Z1PT/Pv5d6f&#xA;fX1sj2fmHTkN7aHdP38fGaPeuwYsuKvmf/nEbRV0v84/NlizFpNMsbmyDGm4S+iUk07/ALoYq9U/&#xA;5yC/OLQPIOo6Hbal5TtvM1xdRzzQvcyRxm2Csi/Bzt7j+870p9nFWJ/lN/zk3p3mXzvpnlqLyXaa&#xA;S2pyuiX1vcKPTKxM9fTFunItx4/aGKsl/wCcxbX1vygElAfqup2stSKkVWSPbwP7zFWSf841XP1n&#xA;8kPK8lWPGK4i+Lr+6u5o/fb4dvbFUT5u1zyr+TvkDVtWhiVTPdXN3bWrH4rrUL6VpQlepArueyL7&#xA;YqmX5YedLH8w/wAutP1qWONzfwNb6paUBRZ0rHcRlTX4WO4B/ZIxV8F/mv5Il8k/mBrHl0g/V7WY&#xA;vYuf2raUCSE13qeDAH3BxV9O/wDOE14X8ga7ZV/uNVMwFOnrW8S9f+eWKrvzu/5yX8y/l959by7p&#xA;+k2V5aRW8M7y3BlEjGUEkDgwUUp4HFWKj/nOS/8AqvE+T4vrVN5fr7enX/jH9X5f8Pir6c0LV7nV&#xA;fKmn6wsKrdX9hDeCAElRJNCJOAJptVqYq/PL8zfzW81/mNrEOpa+8Si1QxWdnbIUhhRjVuIYuxLE&#xA;blmJ+jFWG4qzf8ktIOrfm35TswvMDUoLh18UtW+sPXrtxiNcVfo7irsVfM+of85N/mrrWoXNl5G/&#xA;L25k9CRojLeQ3Nw60NKyxwiFYW9mkNPHFXoX5MXv59399qF3+ZFta2OlSRA6daIsS3AlLDcCFn4x&#xA;ha1Eh5VpTbFXq2KvCv8AnMnTzdflJDcAf7wapbTkjsGjlh32O1ZRir4gxV9e/wDOEEyHy15nhB+N&#xA;Ly3cjtR4mA/4gcVYR/zlXquoeXvz30jXLA+jeWljZXltINuTRXE1K06g8OJ9tsVfX+gazZ65oen6&#xA;zZGtpqVtFdwE9eEyB1r70bfFXz/+RGvw+Zf+cgvzJ11DzR0FvayA1DQQzLBGdtviSBTirEv+c35Z&#xA;D5k8rxE/u0s7h1XbYtKoJ/4UYqy//nCRJB5H8wOXrG2pqqx+DC3Qk/TUfdiryP8A5y9/8nJc/wDM&#xA;Daf8ROKoTyZ/zix+aXmrQrbW4BY6dZXsSXFl9endXmikXkjqsMc/EMpqOdMVeQyIY5GjahZCVJBB&#xA;FQabEdcVfot+Q8Ri/J3ykpIYnT4nqpqKPVgPmK74q8X/AOcWDOfze/MU3ApOZJfVG32/rr8unviq&#xA;Vf8AOcNrKuveVboj9zLa3USH/KikRm/CVcVeNfkpefVPzc8oS1py1W1h6V/v5RF/xvir7J/5yjtD&#xA;cfkd5i4jk8P1SVd6fZvIeR3/AMgnFVL/AJxVlL/kdoCkgiKS9UAAggG9mahr/rYq+X/+cl/P2u+Z&#xA;vzM1PTL1+Gm+XriWx060QngODcZJWr1eQrufAAdsVejf84UedVh1DW/JtzLRbpV1LTkJoPUjAjuF&#xA;WvVmT02+SnFUy/5zV8iGW00fzvax1a3/ANxmpsB/utyZLdz4BXLqT/lLiqO/5wh/5RXzL/zHQ/8A&#xA;JnFXmP8AzmNCifm8rKKGXTLV39yHlX9SjFXhuKv0w/LOcXH5b+VJwOIl0fT3CnqA1rGaYq/NKaKS&#xA;GV4pBxkjYo67GhU0I2xVZir3D/nD3R/r35vLeFajStPubkMRWjScbYUPYkTn8cVfTf5jf85A/l75&#xA;A1iPRtbkuptSeJZ3gs4RJ6aOSELszRrVqHYEn8MVYtD/AM5i/lFJKkbJqkQdgpka1Qqte5Cys33A&#xA;4q9yxV2KuxV57/zkHo36X/JrzVbUBaGzN6Ce31J1uSR9ERxV+duKvrX/AJwc/wCOV5u/4z2X/EJs&#xA;VYT/AM5qOjfmppgVgSmiW4YA9D9bujQ/QcVYEPz9/NlPKtv5Xh16S30i2t0s4lgihimFvGoRI/XR&#xA;BKAqilQ1adTir0n/AJwm1CKLz7rlg2z3WmerGSaf3E8YKj3/AHtfoxVkP/OcWlxcPKeqAgS1vLV1&#xA;2qy/upEI7/CeX34qif8AnB3U3fSfNmlkHhbz2lyp3pWdJUb2H9wMVYP/AM5nxWK/mlYSQSKbmTSY&#xA;frca7lWWeYIW9ylNvCnjir6o8hQ3UX5ReXYbFhJdJ5fsktXBorSCyQIajsWpir84zpuoi8ksjay/&#xA;XImKSW3BvUVlNCClKgg4q++f+cfP0lon5I6KfNCnS/qUdw7te/uDHbevI8bSc6cBwIpyp8NMVeO/&#xA;kL5q0vUf+cnfNt5pFX0rXU1BrZwKB6XEcwmoQpHPgzUIr8W+Kp//AM5vR2h8reWZHYC8W+mWFO5i&#xA;aEGQj5MqYq+bvyhhlm/NbyckSF2Gtae5A3PFLqN2P0KpJxV9q/8AOTd5Ba/kj5kMpoZkt4Yl7s73&#xA;UQAFfv8Aliqz/nF+1a3/ACN8th09N5Rdyt4kPezFW+lOOKviz83Ltbv80/N06lSjaxfBGXcFUuHV&#xA;SPmBXFUD5D823nlHzhpPmS0qZdNuEldBt6kX2ZY/+ekbMv04q/Q/zfoOmeffy+1DSldZLLXbGtnc&#xA;dVDSKJbaYf6r8HHyxV4n/wA4SxtH5Z80RvsyahErAEEVERB3G2KvJP8AnLe4gm/OW8EUiyGKztY5&#xA;QjBuLhCSrU6GhG2KvGMVfoh5E8zaJ5U/Jfyzf+YtSgtILTR7USPJKtS0dup9JN/jcD4eK712xV+e&#xA;t5OLi8nnA4iWR3CnqAzE0xVRxV9U/wDOEXly9WTzJ5kkhK2TrDp9tOSPikUmWZQPtfCDH7b9+yr6&#xA;Q1ryP5K126W71vy/puqXSqI1uL2zguJAgJIUPKjNSp6YqhLb8sPy1tbiK5tfKWjQXMLB4Z4tPtUd&#xA;HU1DKyxggg9xirJsVdirsVYd+ceqR6Z+Vfmu6aRInOl3cULOwUGSWFkQDlsWq2w74q/NzFU18v8A&#xA;mrzL5cuZLrQNUutKuJU9OWW0meEula8W4EVFd98VQeoajqGpXkt7qN1Ne3sx5TXNxI0srnpVnclj&#xA;9JxVDYqzH8sPzR8wflxrs+s6Hb2lxdXFu1rIl7G8icGdXJX03icGqD9rFXfmX+a/nD8xdUhv/MU0&#xA;fG1Vks7K2Qx28IcgvwUl2q1BVmYnYb7DFUm8v+cPNnlwzHQNZvdK+sACcWdxLAHoCBzEbLWlTSvT&#xA;FUuvb28vrqW7vZ5Lq7mblNcTO0kjse7OxLE/PFXsP5f/APOVX5g+T9AtNBNtZ6tp1iojtGulkE8c&#xA;K9IhJG6gqo2XkpI+W2Kp1qf/ADml+ZVwjJY6ZpVjUmknpzTOB2pylCbe64q8p85/mt+YXnT4fMet&#xA;3F7b1DCzBWG2BHQ+hEEjqPErXFUl0DzJr/l6/wD0hoeoT6bfcGj+s20jRvwanJeS02NBireveZvM&#xA;XmC7F5rup3WqXSjik13M8zKvXipctxHsMVUdG1jU9F1W11bS7hrTUbKRZrW4SnJHU1B3qD8jscVZ&#xA;H51/N38xvO9tDaeZ9akv7S3b1I7YRwwRc6EBmSBIlZgCaFgSMVQdl+ZH5gWGjLolj5j1G10lVKJZ&#xA;Q3UscSqx5MqqrCikk1AxVjhJJqdyepxVrFWYw/m/+ZsHllfLMPmK8i0RIvQS1RgpEPT0hKB6vCm3&#xA;HlSm3TFWPaf5g17TYJrfTtSurKC4oZ4beeSJJCNhzVGUN9OKoAksSSak7knqTirWKuxV2KuxV+in&#xA;5CeUD5U/KjQNOlTheTwfXr0HZvWuz6xVvdFZU/2OKvQMVdirsVdirsVeVf8AOSP5f6d5w/LqY3Wq&#xA;Q6RNo7/XbS7u5BFalwpj9OYk0HPlxVuoanuCq+A3jdD8QoDWh6g0NDQjY7+GKrMVdirsVdirsVdi&#xA;rsVRVvpmpXIQ29pNMJDSMxxs3I1pQUBrviqZW/kXzvcAm38vanMAaEx2dwwr4bIcVTSD8nfzYnBK&#xA;eT9ZHHr6ljcR9fDmi1xVMP8AlQP5yf8AUp33/Ar/AM1YqiY/+ccvzskQOvlW4AbcBpLdT9IaQEYq&#xA;vT/nGz87ndVHlaYFiAKz2qjfxJlAGKon/oVz89v+pZ/6ftP/AOyjFXH/AJxc/PYCv+Gf+n7T/wDs&#xA;oxVhV9+Xvn2wkeO98uanbtG3BvUs51HL58KHFUkntri3f07iJ4XpXhIpU06dDTwxVSxV2KuxV2Ku&#xA;xV2Ksq/KzRNO1z8x/Lek6kT9RvNQt4rhQpbmpcHhQdn+yT2rXFX6VAACg2A6DFXYq7FXYq7FXYq+&#xA;evzM/Kb83PzP/MFbHXLmLSPy5sJSbUW0yu8yD/dnpbkzv9msgCoOld+Sr12z/LHyBbeWbPyydCs7&#xA;nRrFClvbXUMc4BbdpCZAx5sfiZutcVSV/wDnH38mHmWU+VLIMtaBfUVd/FA4U/SMVfOv/OU+j+Rd&#xA;B1LRPJXk/wAv2dnqk9Ly9mtoh659UmK3gD7t8R5MVr/Lir6S/L78pvK3lnyRpWgXWl2d7cW1uov5&#xA;5oI5TLcP8czEupJUux4g9FoMVTr/AJV55A/6lnSv+kG2/wCaMVWz/lv+Xs9vJby+WdKaGYcZU+pW&#xA;4DCtd6J4iuKpZ/ypT8o/+pQ0r/pFi/piqX+fYvJP5a+Qda8zaToGmWF1YW5Nl9XtIIq3MhEUFeCq&#xA;T+9da+1cVebf842+d/M115c82fmJ+YHmO4l0WKVIYzcs31eIxqHmeKFBxWvqRoqxruaihOKvZfy/&#xA;/Mvyr5+sLvUPLcs09nZz/VpJpYXhVn4h/g5gV2Ye474qynFXYq7FXYq7FXYq7FUFqeh6Jqqquqaf&#xA;bX6qCFW5hjmABoSBzDeGKpDd/lP+V13yNx5R0Z2enJ/qFsHNOnxhA344qld1+QX5N3PL1PKdivOl&#xA;fSVounh6bJT6MVY1e/8AOJX5L3Ls0Wn3Vpy5GkF3KQOXh6pk6dsVYl5o/wCcR/yb0mzN/eeZ73Qr&#xA;UsI/rF/dWa24dh8K8pYotzQmnPfFUAv/ADhJ5fuUS4s/OEz2syrJA4tY5AyMAQwdZQrAjcEYqj9L&#xA;/wCcI/J8UobVPMV/dxg14W8cNtUeBLfWMVew+Q/yk/L/AMixn/Dukx290y8JdQkJmunHcGV6soPd&#xA;VovtirMMVdirsVdirsVdirsVdirsVYNd/kt+Xt957Pnm+sHu9f5wyxyTTStFHJbqqRukXLhVQgpW&#xA;oB3GKs5xV2KuxV2KpH5x8k+WfOWj/obzJZ/XtNMizGD1Zof3kdeJ5QvG23LpWmKu03yN5P03y0vl&#xA;i00e1Xy+BQ6ZJGJoWq3MmRZefM8t6tU1xVNrKxsrG2jtLK3jtbWIUighRY41HgqqABiqtirsVdir&#xA;sVdirsVdirsVdirsVYH+dH5lX/5d+TW8w2ejnV6Tx28q+p6UcAlBCyykK7FefFaAdSNxirw7zhc3&#xA;/wDzkR+Vltqug2wTzj5ZvGW90GOaiPBcigdPVKKSVRWUt/K6jtir278ifLnnDy5+WWk6P5rZDqVq&#xA;rCKFTzaG3LcooZHBKs0YNPh2AoO1cVZ/irsVdirsVdirsVdirsVdirsVdirsVdirsVdirsVdirsV&#xA;dirsVdirsVdirsVdirsVdirsVdiqC1vRtN1vSLzSNTgW50+/ieC5hboyOKH5HuCOh3xV82flP+QX&#xA;5rfl9+bbX+nT258prJJBcXU0w5XVi5qqmFKsJV+EioADDrx6qvqDFXYq7FXYq7FXYq//2Q==</xmpGImg:image>
               </rdf:li>
            </rdf:Alt>
         </xmp:Thumbnails>
      </rdf:Description>
      <rdf:Description rdf:about=""
            xmlns:pdf="http://ns.adobe.com/pdf/1.3/">
         <pdf:Producer>Adobe PDF library 9.90</pdf:Producer>
      </rdf:Description>
      <rdf:Description rdf:about=""
            xmlns:dc="http://purl.org/dc/elements/1.1/">
         <dc:format>image/svg+xml</dc:format>
      </rdf:Description>
      <rdf:Description rdf:about=""
            xmlns:xmpTPg="http://ns.adobe.com/xap/1.0/t/pg/"
            xmlns:stDim="http://ns.adobe.com/xap/1.0/sType/Dimensions#"
            xmlns:xmpG="http://ns.adobe.com/xap/1.0/g/">
         <xmpTPg:MaxPageSize rdf:parseType="Resource">
            <stDim:w>148.050781</stDim:w>
            <stDim:h>72.707031</stDim:h>
            <stDim:unit>Pixels</stDim:unit>
         </xmpTPg:MaxPageSize>
         <xmpTPg:NPages>1</xmpTPg:NPages>
         <xmpTPg:HasVisibleTransparency>False</xmpTPg:HasVisibleTransparency>
         <xmpTPg:HasVisibleOverprint>False</xmpTPg:HasVisibleOverprint>
         <xmpTPg:PlateNames>
            <rdf:Seq>
               <rdf:li>Cyan</rdf:li>
               <rdf:li>Magenta</rdf:li>
               <rdf:li>Yellow</rdf:li>
               <rdf:li>Black</rdf:li>
            </rdf:Seq>
         </xmpTPg:PlateNames>
         <xmpTPg:SwatchGroups>
            <rdf:Seq>
               <rdf:li rdf:parseType="Resource">
                  <xmpG:groupName>Группа образцов по умолчанию</xmpG:groupName>
                  <xmpG:groupType>0</xmpG:groupType>
               </rdf:li>
            </rdf:Seq>
         </xmpTPg:SwatchGroups>
      </rdf:Description>
   </rdf:RDF>
</x:xmpmeta>
                                                                                                    
                                                                                                    
                                                                                                    
                                                                                                    
                                                                                                    
                                                                                                    
                                                                                                    
                                                                                                    
                                                                                                    
                                                                                                    
                                                                                                    
                                                                                                    
                                                                                                    
                                                                                                    
                                                                                                    
                                                                                                    
                                                                                                    
                                                                                                    
                                                                                                    
                                                                                                    
                           
<?xpacket end="w"?>
	</metadata>
<g id="Layer_2">
	<g>
		<path d="M143.165,31.397c-1.481,1.055-3.054,1.942-4.657,2.777c0.037-1.747-0.119-3.465-0.591-5.127
			c0.051-0.333,0.103-0.667,0.146-1.002c0.375-3.005,0.656-7.122-2.004-9.224c-0.334-0.265-1.248-0.035-1.922,0.274
			c-0.156-0.151-0.322-0.289-0.496-0.415c-0.082-0.242-0.158-0.487-0.229-0.735c-0.035-0.12-0.168-0.188-0.36-0.215
			c0.285-0.383,0.263-0.818-0.419-1.092c-0.378-0.152-0.759-0.287-1.143-0.413c-0.067-0.072-0.127-0.096-0.172-0.058
			c-0.002,0.001-0.004,0.002-0.006,0.003c-0.938-0.3-1.894-0.533-2.859-0.705c0.138-0.331,0.396-0.813,0.552-1
			c0.132-0.157,0.279-0.3,0.429-0.439c0.063-0.057,0.125-0.111,0.188-0.165c0.032-0.027,0.053-0.046,0.069-0.061
			c0.02-0.014,0.045-0.034,0.084-0.062c0.379-0.288,0.846-0.865,0.221-1.202c-0.57-0.307-1.508-0.142-2.008,0.238
			c-0.862,0.655-1.625,1.379-2.092,2.361c-2.01-0.169-4.049-0.155-6.078-0.078c0.062-0.076,0.111-0.158,0.141-0.25
			c0.184-0.585-0.908-0.525-1.188-0.488c-1.563,0.205-3.125,0.407-4.688,0.604c1.367-3.773,3.083-8.578,1.001-12.264
			c-1.189-2.106-3.906-2.579-6.098-2.652c-2.437-0.081-4.898,0.461-7.036,1.636c-4.763,2.618-7.11,7.71-8.21,13.138
			c-0.497-0.657-2.301-0.425-2.645,0.468c-0.125,0.32-0.229,0.645-0.328,0.972c-0.16,0.174-0.281,0.386-0.345,0.637
			c-0.015,0.056-0.026,0.111-0.041,0.167c-0.065,0.002-0.131,0.005-0.196,0.007c0.021-0.104,0.041-0.207,0.064-0.31
			c0.146-0.109,0.247-0.232,0.279-0.366c0.574-2.296,1.156-4.588,1.949-6.82c0.269-0.756-2.512-0.399-2.805,0.426
			c-0.424,1.193-0.785,2.403-1.119,3.622c-0.166,0.078-0.357,0.187-0.426,0.326c-0.018,0.034-0.031,0.07-0.047,0.104
			c-0.107-0.093-0.271-0.151-0.467-0.178c0-0.319,0-0.639,0-0.959c0-0.432-2.822-0.034-2.822,0.757c0,0.522,0,1.046,0,1.568
			c-0.167,0.072-0.327,0.158-0.473,0.266c-0.063,0.057-0.127,0.114-0.189,0.172c-0.072,0.071-0.113,0.152-0.12,0.245
			c-0.007,0.026-0.013,0.053-0.022,0.078c-0.018,0.022-0.032,0.046-0.053,0.066c-0.125,0.128-0.184,0.335-0.026,0.467
			c0.19,0.16,0.508,0.167,0.737,0.159c0.049-0.002,0.098-0.007,0.146-0.011c0,0.156,0,0.312,0,0.468
			c-0.227-0.001-0.45-0.003-0.675-0.006l-0.411-0.051c-0.021-0.385-0.676-0.452-1.352-0.328c0.006-0.049,0.008-0.098,0-0.148
			c-0.102-0.595-0.174-1.192-0.229-1.79c0.237-0.079,0.472-0.18,0.681-0.313c0.158-0.102,0.327-0.224,0.327-0.43
			c0-0.064,0-0.13,0-0.194c0-0.18-0.411-0.204-0.499-0.208c-0.195-0.009-0.395,0.009-0.589,0.041
			c-0.075-1.305-0.081-2.615-0.081-3.925c0-0.84-2.824-0.315-2.822,0.757c0,1.786,0.008,3.57,0.192,5.343
			c-0.087-0.002-0.179,0.001-0.271,0.009c0-0.511,0-1.021,0-1.532c0-1.045-1.297-1.22-2.146-0.809
			c0.313-0.262,0.488-0.622,0.37-1.039c-0.403-1.414-0.778-2.827-0.974-4.287c-0.188-1.394-3.018-0.677-2.825,0.756
			c0.196,1.46,0.57,2.873,0.975,4.287c0.235,0.828,1.338,0.889,2.104,0.51c-0.227,0.196-0.373,0.452-0.373,0.76
			c0,0.21,0,0.42,0,0.63c-0.188-0.098-0.438-0.16-0.77-0.16c-1.057,0-1.671,0.885-1.4,1.477c-0.164-0.027-0.327-0.054-0.491-0.083
			c-0.382-1.248-0.686-2.514-0.714-3.83c-0.02-0.942-1.27-1.049-2.108-0.672c-0.008-0.056-0.022-0.111-0.049-0.168
			c-0.385-0.804-0.567-1.674-0.78-2.533c-0.332-1.35-3.158-0.601-2.823,0.756c0.157,0.638,0.3,1.281,0.519,1.898
			c-0.018,0.005-0.039,0.009-0.056,0.014c-0.3,0.081-0.601,0.205-0.854,0.387c-0.832,0.079-1.828,0.565-1.752,1.208
			c0.058,0.478,0.131,0.953,0.209,1.427c-0.546,0.091-1.092,0.177-1.639,0.26c-0.289-0.787-0.499-1.601-0.618-2.443
			c-0.131-0.924-1.555-0.854-2.332-0.26c-0.774-2.062-1.796-4.019-3.122-5.761c-2.621-3.439-7.097-4.613-11.242-3.794
			c-1.9,0.376-3.735,1.184-5.043,2.646c-1.21,1.353-1.352,3.089-1.17,4.805c0.158,1.493,0.61,4.005,1.584,5.976
			c-0.35-0.012-0.709,0.041-0.949,0.139c-0.283,0.117-0.561,0.248-0.833,0.388c-1.939,0.029-3.877,0.019-5.803-0.07
			c-4.179-0.194-8.301-0.86-12.497-0.742c-0.923,0.026-1.534,0.719-1.465,1.262c-1.046,0.502-1.733,1.315-2.143,2.287
			c-1.732-1.15-3.479-2.266-5.335-3.211c-0.689-0.351-3.3,0.707-2.285,1.224c1.84,0.938,3.561,2.072,5.278,3.216
			c0.512,0.341,1.32,0.133,1.842-0.07c0.03-0.012,0.09-0.039,0.165-0.077c-0.306,1.44-0.157,3.067,0.241,4.493
			c0.03,0.11,0.093,0.198,0.172,0.27c-0.021,0.338-0.023,0.677-0.007,1.015c-0.001,0.055-0.001,0.109-0.002,0.165
			c-0.4,0.189-0.712,0.48-0.76,0.839c-0.188,1.411-0.278,2.82-0.305,4.229c-0.272,0.199-0.462,0.469-0.485,0.798
			c-0.233,3.345,0.037,6.651,0.467,9.95c0.185,2.693,0.69,5.344,1.172,7.998c0.058,0.416,0.113,0.832,0.167,1.25
			c-0.265,1.133-0.398,2.395-0.237,3.481c-0.881,0.171-1.729,0.866-1.233,1.617c0.765,1.158,1.644,2.019,2.606,2.649
			c-0.633-0.104-1.42,0.109-1.871,0.555c-0.818,0.809-1.715,1.531-2.533,2.339c-0.429,0.424-0.314,0.935,0.289,1.078
			c0.651,0.155,1.516-0.06,1.997-0.535c0.817-0.808,1.715-1.531,2.533-2.339c0.248-0.245,0.308-0.518,0.204-0.73
			c3.21,1.734,7.235,1.27,11.114,0.942c-0.882,1.589-1.542,3.272-2.17,4.997c-0.262,0.719,2.507,0.373,2.801-0.436
			c0.61-1.676,1.237-3.344,2.103-4.896c3.741,0.117,7.479,0.122,11.215,0.051c0.149,0.183,0.416,0.306,0.746,0.336
			c3.27,0.312,6.489-0.096,9.688-0.698c4.789-0.229,9.577-0.525,14.366-0.81c7.527-0.187,15.056-0.347,22.587-0.319
			c0.1,0.108,0.204,0.215,0.314,0.317c0.271,0.256,0.621,0.345,0.979,0.33c0.063,0.009,0.129,0.016,0.199,0.019
			c0.714,0.036,1.428,0.088,2.141,0.146c0.156,0.04,0.342,0.059,0.56,0.046c0.002,0,0.004,0,0.005,0
			c0.781,0.066,1.563,0.141,2.346,0.208c0.172,0.214,0.497,0.342,0.792,0.36c3.804,0.25,7.612,0.522,11.423,0.703
			c0.141,0.229,0.537,0.34,0.82,0.344c7.066,0.06,15.277,2.804,21.559-1.736c0.5-0.361,0.272-0.877-0.265-0.984
			c-0.108-0.021-0.217-0.031-0.325-0.033c0.008-0.017,0.018-0.03,0.022-0.045c1.194-2.77,2.174-5.633,2.944-8.553
			c0.365-0.197,0.633-0.494,0.646-0.859c0.049-1.189,0.188-2.406,0.371-3.639c0.166-0.885,0.313-1.771,0.441-2.66
			c0.387-2.17,0.806-4.367,1.018-6.542c2.279-1.147,4.538-2.335,6.622-3.819C146.563,31.417,144.213,30.651,143.165,31.397z
			 M87.835,16.351c-0.049,0.039-0.094,0.079-0.134,0.123c0.072-0.312,0.148-0.623,0.229-0.934c0.035,0.001,0.072,0.001,0.11,0
			C87.973,15.81,87.902,16.081,87.835,16.351z"/>
		<path d="M63.261,12.626c0.127,0.196,0.562,0.217,0.753,0.217c0.377,0.001,0.759-0.083,1.106-0.225
			c0.404-0.166,1.101-0.559,0.77-1.07c-0.363-0.562-0.609-1.19-0.975-1.754c-0.127-0.196-0.562-0.217-0.754-0.217
			c-0.376-0.001-0.758,0.083-1.105,0.226c-0.404,0.165-1.101,0.558-0.77,1.069C62.649,11.434,62.896,12.063,63.261,12.626z"/>
		<path d="M20.683,10.907c0.216,0.647,1.111,0.647,1.648,0.504c0.472-0.127,1.39-0.616,1.175-1.26
			c-0.208-0.624-0.433-1.293-0.893-1.78c-0.479-0.507-1.324-0.417-1.902-0.151c-0.412,0.19-1.177,0.838-0.695,1.349
			C20.398,9.974,20.494,10.341,20.683,10.907z"/>
		<path d="M30.66,13.895c0.843,0,3.073-1.276,1.186-1.276C31.003,12.619,28.772,13.895,30.66,13.895z"/>
		<path d="M122.563,12.274c0.346,0.072,0.717,0.032,1.055-0.059c0.32-0.086,0.699-0.234,0.941-0.477
			c0.354-0.355,0.728-0.729,0.961-1.178c0.104-0.198,0.174-0.399-0.004-0.587c-0.188-0.197-0.508-0.245-0.764-0.251
			c-0.376-0.01-0.761,0.074-1.105,0.22c-0.252,0.106-0.621,0.294-0.756,0.553c-0.099,0.186-0.219,0.353-0.352,0.513
			c-0.008,0.009-0.016,0.018-0.023,0.027c-0.011,0.012-0.021,0.023-0.027,0.032c-0.064,0.067-0.131,0.133-0.195,0.199
			c-0.158,0.158-0.346,0.365-0.279,0.614C122.077,12.121,122.348,12.229,122.563,12.274z"/>
		<path d="M135.861,17.692c0.631-0.061,1.395-0.246,1.894-0.662c1.319-1.103,2.603-2.248,3.623-3.642
			c0.288-0.393-1.049-0.243-1.118-0.23c-0.533,0.099-1.316,0.276-1.66,0.746c-0.949,1.296-2.164,2.349-3.392,3.374
			C134.71,17.693,135.648,17.712,135.861,17.692z"/>
		<path d="M146.74,44.77c-1.624,0-3.248,0-4.872,0c-0.616,0-1.476,0.467-1.556,1.139c-0.09,0.738,0.754,0.922,1.304,0.922
			c1.624,0,3.247,0,4.87,0c0.617,0,1.476-0.469,1.558-1.139C148.134,44.952,147.29,44.77,146.74,44.77z"/>
		<path d="M57.021,60.784c-0.498,0.08-1.412,0.296-1.639,0.831c-0.538,1.271-0.981,2.57-1.364,3.896
			c-0.211,0.733,2.571,0.333,2.798-0.451c0.383-1.326,0.825-2.625,1.363-3.896C58.401,60.637,57.213,60.752,57.021,60.784z"/>
		<path d="M61.602,63.375c-0.347-0.003-0.696,0.063-1.029,0.152c-0.333,0.089-0.67,0.207-0.968,0.383
			c-0.141,0.084-0.338,0.199-0.338,0.39c-0.001,0.116-0.007,0.231-0.021,0.347c-0.025,0.103-0.06,0.199-0.125,0.285
			c0.004-0.004,0.008-0.009,0.012-0.014c-0.064,0.082-0.108,0.18,0.018,0.253c0.196,0.114,0.502,0.083,0.712,0.062
			c0.374-0.037,0.745-0.127,1.099-0.252c0.243-0.084,0.613-0.207,0.795-0.406c0.149-0.164,0.241-0.286,0.284-0.501
			c0.035-0.177,0.05-0.349,0.05-0.529C62.09,63.378,61.669,63.376,61.602,63.375z"/>
		<path d="M116.652,67.051c-0.354-0.686-3.043,0.331-2.823,0.758c0.844,1.637,1.938,3.121,2.923,4.676
			c0.436,0.689,3.04-0.414,2.823-0.756C118.593,70.174,117.496,68.689,116.652,67.051z"/>
		<path d="M120.744,64.713c-0.294-0.588-1.066-0.563-1.624-0.414c-0.351,0.094-1.485,0.598-1.199,1.17
			c0.39,0.78,0.779,1.559,1.169,2.34c0.294,0.588,1.068,0.562,1.624,0.414c0.351-0.095,1.486-0.599,1.199-1.172
			C121.523,66.271,121.134,65.493,120.744,64.713z"/>
		<path d="M5.668,43.105c-1.486,0.358-3.006,0.57-4.481,0.975c-0.537,0.146-1.342,0.641-1.16,1.318
			c0.181,0.675,1.128,0.709,1.664,0.562c1.476-0.403,2.995-0.615,4.482-0.976c0.541-0.129,1.338-0.65,1.16-1.317
			C7.148,42.982,6.209,42.975,5.668,43.105z"/>
	</g>
</g>
<g id="Layer_1_1_">
	<g>
		<path fill="#FFFFFF" d="M43.752,40.105c-0.083-2.707-0.514-5.396-0.479-8.107c0.028-2.194,0.393-4.45-0.363-6.554
			c0.047-0.239,0.097-0.477,0.141-0.717c0.195-1.055-3.3-0.497-3.849,0.468c-0.346,0.283-0.523,0.621-0.377,0.965
			c0.037,0.087,0.069,0.175,0.102,0.263c-0.662,3.233-1.584,6.364-2.645,9.498c-0.406,1.199-0.896,2.37-1.31,3.565
			c-0.587-1.114-1.181-2.215-1.658-3.408c-1.386-3.464-2.636-6.965-4.326-10.299c0.192-1.543-3.232-1.381-3.907,0.032
			c-0.816,1.709-0.711,3.434-0.442,5.262c0.303,2.061,0.356,4.086,0.381,6.167c0.048,4.012,0.361,8.016,0.421,12.027
			c-0.357,0.396-0.466,0.889-0.092,1.388c0.163,0.217,0.365,0.385,0.576,0.554c0.913,0.73,3.533,0.107,3.528-1.283
			c-0.014-4.16-0.314-8.312-0.424-12.471c-0.011-0.407-0.018-0.814-0.024-1.222c0.058,0.146,0.115,0.293,0.173,0.438
			c0.646,1.618,1.322,3.19,2.205,4.696c0.876,1.49,1.315,3.092,1.819,4.719c-0.19,0.219-0.305,0.467-0.234,0.715
			c-0.04,0.182,0.071,0.294,0.253,0.363c0.645,0.552,1.858,0.277,2.532-0.007c0.29-0.122,0.566-0.263,0.834-0.427
			c0.348-0.215,0.891-0.687,0.735-1.17c-0.03-0.094-0.059-0.188-0.088-0.281c0.475-1.281,0.716-2.612,0.975-3.965
			c0.275-1.441,0.789-2.806,1.307-4.172c0.053,0.625,0.107,1.25,0.157,1.873c0.206,2.576,0.033,5.117,0.008,7.695
			c-0.009,0.854,0.054,1.648,0.221,2.484c0.068,0.345,0.37,1.824,0.283,1.904c-0.617,0.569-0.438,1.268,0.389,1.449
			c0.923,0.203,2.1-0.105,2.795-0.749c1.209-1.116,0.638-2.87,0.364-4.28C43.273,45.158,43.826,42.512,43.752,40.105z"/>
		<path fill="#FFFFFF" d="M52.192,40.788c-0.074-2.007-0.771-3.897-0.781-5.925c-0.011-2.327,0.183-4.635-0.156-6.949
			c-0.107-0.732-4.093,0.101-3.953,1.059c0.312,2.129,0.199,4.268,0.161,6.412c-0.037,2.063,0.472,3.934,0.737,5.958
			c0.271,2.073-0.085,4.195,0.15,6.271c0.11,0.971,0.758,2.768,0.09,3.612c-0.424,0.537,1.482,0.344,1.568,0.33
			c0.775-0.144,1.809-0.396,2.324-1.049c0.659-0.835,0.198-2.447,0.054-3.387C52.066,45.041,52.271,42.885,52.192,40.788z"/>
		<path fill="#FFFFFF" d="M68.671,37.438c-2.081-2.809-5.943-0.787-8.64-1.554c-1.39-0.396-1.407-2.292-1.403-3.428
			c0.004-1.439-0.115-2.757-0.276-4.184c-0.119-1.061-0.024-2.14,0.753-2.93c0.143-0.146,0.866-0.339,0.817-0.342
			c0.356-0.062,0.683-0.077,1.077-0.094c1.562-0.067,4.654,0.234,4.056,2.506c-0.269,1.019,3.629,0.435,3.913-0.643
			c1.224-4.64-7.352-3.749-9.774-3.106c-2.231,0.592-4.692,1.862-4.819,4.438c-0.062,1.23,0.274,2.401,0.328,3.62
			c0.061,1.403-0.2,2.802,0.291,4.155c1.092,3.01,5.57,1.59,7.849,1.761c3.88,0.29,2.722,5.52,2.772,7.955
			c0.027,1.301,1.192,3.461,0.213,4.549c-0.601,0.668-2,0.707-2.817,0.774c-0.821,0.069-2.221,0.315-2.768-0.465
			c-1.002-1.431,0.093-3.834-0.121-5.474c-0.122-0.934-4.104-0.097-3.953,1.059c0.346,2.65-1.412,6.199,2.424,6.654
			c2.464,0.293,5.238-0.162,7.568-0.936c1.207-0.4,2.328-0.951,3.272-1.811c1.045-0.948,0.701-2.368,0.421-3.578
			C69.172,43.422,70.593,40.032,68.671,37.438z"/>
		<path fill="#FFFFFF" d="M86.154,37.248c-0.121-3.812-0.695-7.582-0.711-11.4c-0.008-1.989-4-1.317-3.992,0.346
			c0.015,3.641,0.501,7.232,0.688,10.863c0.004,0.073,0.008,0.147,0.012,0.223c-1.967-0.019-3.934,0.179-5.904,0.248
			c0.203-4.675-0.617-9.312-0.438-13.983c0.021-0.587-3.91-0.091-3.954,1.059c-0.172,4.516,0.593,8.997,0.457,13.514
			c-0.064,2.154-0.247,4.303-0.262,6.46c-0.008,1.104,0.173,2.204,0.332,3.293c0.147,1.008,0.488,2.353,0.183,3.349
			c-0.238,0.779,3.594,0.293,3.897-0.701c0.55-1.793-0.224-4.076-0.407-5.892c-0.178-1.74-0.041-3.53,0.084-5.296
			c2.047-0.131,4.096-0.3,6.135-0.012c0.09,1.391,0.197,2.779,0.324,4.172c0.106,1.168,0.182,2.334,0.198,3.507
			c0.017,1.028,0.144,2.519-0.223,3.492c-0.78,2.075,3.179,1.905,3.757,0.368c0.71-1.888,0.507-4.237,0.386-6.221
			C86.564,42.169,86.234,39.717,86.154,37.248z"/>
		<path fill="#FFFFFF" d="M103.242,41.762c-0.948-2.783-2.395-5.224-3.649-7.868c1.011-1.967,2.036-3.935,2.959-5.942
			c0.839-1.824,1.46-3.854,3.107-5.139c0.579-0.451,0.555-0.904-0.259-0.96c-0.883-0.061-2.082,0.194-2.795,0.749
			c-1.498,1.168-2.447,2.587-3.229,4.307c-0.939,2.069-1.914,4.101-2.939,6.13c-0.074,0.149-0.15,0.298-0.227,0.448
			c-0.494,0.318-0.792,0.769-0.645,1.277c-0.799,1.578-1.614,3.146-2.521,4.653c-0.302-5.584-0.963-11.162-1.161-16.751
			c-0.045-1.281-4.007-0.484-3.952,1.059c0.245,6.93,1.229,13.845,1.299,20.775c-0.018,0.018-0.033,0.034-0.049,0.051
			c-0.304,0.311-0.191,0.498,0.053,0.606c0.002,1.767-0.061,3.534-0.211,5.303c-0.478,0.752,0.467,1.149,1.094,1.149
			c0.033,0,0.064,0,0.098,0c0.746,0,2.648-0.354,2.742-1.377c0.193-2.118,0.254-4.233,0.234-6.349
			c1.604-1.731,2.916-3.663,4.093-5.687c0.766,1.494,1.495,3,2.007,4.625c0.868,2.766,2.32,5.308,3.159,8.087
			c0.55,1.821,4.497,0.745,3.952-1.06C105.563,47.072,104.178,44.505,103.242,41.762z"/>
		<path fill="#FFFFFF" d="M126.96,37.085c-0.212-0.84-1.385-0.857-2.292-0.777c-0.014-0.338-0.021-0.677-0.036-1.016
			c-0.127-2.686-0.168-5.428-0.396-8.105c-0.211-2.479-1.6-3.368-4.008-3.276c-2.438,0.093-5.277,0.532-7.551,1.416
			c-2.632,1.023-4.096,2.961-4.601,5.733c-0.556,3.041,0.241,6.275,0.377,9.331c0.155,3.535,0.065,7.078,0.062,10.614
			c0,0.579,3.952,0.031,3.953-1.06c0.004-2.801,0.043-5.602,0-8.401c-0.014-0.826-0.052-1.647-0.104-2.466
			c1.382-0.6,3.721,0.013,5.097,0.143c1.117,0.105,2.188-0.166,3.272-0.294c0.021,2.333,0.108,4.679,0.205,7.009
			c0.049,1.193,0.48,3.563-0.356,4.551c-0.44,0.521,1.493,0.348,1.567,0.334c0.802-0.147,1.777-0.404,2.324-1.051
			c0.959-1.129,0.461-3.824,0.405-5.172c-0.079-1.929-0.103-3.859-0.144-5.789C125.902,38.656,127.178,37.943,126.96,37.085z
			 M112.208,36.934c-0.104-1.258-0.22-2.514-0.306-3.777c-0.161-2.352,0.117-5.634,2.31-7.063c0.587-0.383,1.69-0.317,2.377-0.442
			c0.979-0.177,1.974-0.393,2.854,0.192c1.222,0.81,0.92,3.69,0.918,4.913c-0.002,2.024,0.211,4.038,0.313,6.058
			c-0.558,0.056-1.122,0.09-1.698,0.078C116.67,36.837,114.393,36.474,112.208,36.934z"/>
		<path fill="#FFFFFF" d="M48.771,25.176c0.526-0.051,1.055-0.229,1.49-0.529c0.087-0.073,0.173-0.146,0.26-0.219
			c0.524-0.338,0.979-0.834,0.734-1.373c-0.509-1.115-0.428-2.251-0.42-3.445c0.007-0.966-0.972-1.257-1.797-1.185
			c-0.729,0.064-2.188,0.586-2.194,1.534c-0.007,1.002-0.072,2.034,0.11,3.02c-0.049,0.113-0.075,0.241-0.105,0.358
			c-0.056,0.214,0.016,0.424,0.144,0.595c0,0.045,0.002,0.09,0.002,0.135c0.005,0.113,0.011,0.226,0.015,0.338
			c0.074,0.235,0.218,0.413,0.433,0.535C47.833,25.176,48.327,25.219,48.771,25.176z"/>
	</g>
</g>
</svg>
