<?xml version="1.0" encoding="utf-8"?>
<!-- Generator: Adobe Illustrator 16.0.2, SVG Export Plug-In . SVG Version: 6.00 Build 0)  -->
<!DOCTYPE svg PUBLIC "-//W3C//DTD SVG 1.1//EN" "http://www.w3.org/Graphics/SVG/1.1/DTD/svg11.dtd">
<svg version="1.1" id="Layer_1" xmlns="http://www.w3.org/2000/svg" xmlns:xlink="http://www.w3.org/1999/xlink" x="0px" y="0px"
	 width="112.389px" height="46.087px" viewBox="19.137 15.003 112.389 46.087"
	 enable-background="new 19.137 15.003 112.389 46.087" xml:space="preserve">
<metadata><?xpacket begin="﻿" id="W5M0MpCehiHzreSzNTczkc9d"?>
<x:xmpmeta xmlns:x="adobe:ns:meta/" x:xmptk="Adobe XMP Core 5.3-c011 66.145661, 2012/02/06-14:56:27        ">
   <rdf:RDF xmlns:rdf="http://www.w3.org/1999/02/22-rdf-syntax-ns#">
      <rdf:Description rdf:about=""
            xmlns:xmpMM="http://ns.adobe.com/xap/1.0/mm/"
            xmlns:stRef="http://ns.adobe.com/xap/1.0/sType/ResourceRef#"
            xmlns:stEvt="http://ns.adobe.com/xap/1.0/sType/ResourceEvent#">
         <xmpMM:RenditionClass>proof:pdf</xmpMM:RenditionClass>
         <xmpMM:DocumentID>xmp.did:01751F54694AE911A942F5DCA5CF7BD7</xmpMM:DocumentID>
         <xmpMM:InstanceID>xmp.iid:01751F54694AE911A942F5DCA5CF7BD7</xmpMM:InstanceID>
         <xmpMM:OriginalDocumentID>uuid:5cd65576-4458-e945-8e18-d994787c8ef8</xmpMM:OriginalDocumentID>
         <xmpMM:DerivedFrom rdf:parseType="Resource">
            <stRef:instanceID>uuid:87becd9a-618e-8e45-84c6-b7c87398f26b</stRef:instanceID>
            <stRef:documentID>uuid:5cd65576-4458-e945-8e18-d994787c8ef8</stRef:documentID>
            <stRef:originalDocumentID>uuid:5cd65576-4458-e945-8e18-d994787c8ef8</stRef:originalDocumentID>
            <stRef:renditionClass>proof:pdf</stRef:renditionClass>
         </xmpMM:DerivedFrom>
         <xmpMM:History>
            <rdf:Seq>
               <rdf:li rdf:parseType="Resource">
                  <stEvt:action>saved</stEvt:action>
                  <stEvt:instanceID>xmp.iid:01751F54694AE911A942F5DCA5CF7BD7</stEvt:instanceID>
                  <stEvt:when>2019-03-19T20:06:25+03:00</stEvt:when>
                  <stEvt:softwareAgent>Adobe Illustrator CS6 (Windows)</stEvt:softwareAgent>
                  <stEvt:changed>/</stEvt:changed>
               </rdf:li>
            </rdf:Seq>
         </xmpMM:History>
      </rdf:Description>
      <rdf:Description rdf:about=""
            xmlns:xmp="http://ns.adobe.com/xap/1.0/"
            xmlns:xmpGImg="http://ns.adobe.com/xap/1.0/g/img/">
         <xmp:CreateDate>2019-03-19T20:06:13+03:00</xmp:CreateDate>
         <xmp:CreatorTool>Adobe Illustrator CS6 (Windows)</xmp:CreatorTool>
         <xmp:ModifyDate>2019-03-19T20:06:25+03:00</xmp:ModifyDate>
         <xmp:MetadataDate>2019-03-19T20:06:25+03:00</xmp:MetadataDate>
         <xmp:Thumbnails>
            <rdf:Alt>
               <rdf:li rdf:parseType="Resource">
                  <xmpGImg:width>256</xmpGImg:width>
                  <xmpGImg:height>108</xmpGImg:height>
                  <xmpGImg:format>JPEG</xmpGImg:format>
                  <xmpGImg:image>/9j/4AAQSkZJRgABAgEASABIAAD/7QAsUGhvdG9zaG9wIDMuMAA4QklNA+0AAAAAABAASAAAAAEA&#xA;AQBIAAAAAQAB/+4ADkFkb2JlAGTAAAAAAf/bAIQABgQEBAUEBgUFBgkGBQYJCwgGBggLDAoKCwoK&#xA;DBAMDAwMDAwQDA4PEA8ODBMTFBQTExwbGxscHx8fHx8fHx8fHwEHBwcNDA0YEBAYGhURFRofHx8f&#xA;Hx8fHx8fHx8fHx8fHx8fHx8fHx8fHx8fHx8fHx8fHx8fHx8fHx8fHx8fHx8f/8AAEQgAbAEAAwER&#xA;AAIRAQMRAf/EAaIAAAAHAQEBAQEAAAAAAAAAAAQFAwIGAQAHCAkKCwEAAgIDAQEBAQEAAAAAAAAA&#xA;AQACAwQFBgcICQoLEAACAQMDAgQCBgcDBAIGAnMBAgMRBAAFIRIxQVEGE2EicYEUMpGhBxWxQiPB&#xA;UtHhMxZi8CRygvElQzRTkqKyY3PCNUQnk6OzNhdUZHTD0uIIJoMJChgZhJRFRqS0VtNVKBry4/PE&#xA;1OT0ZXWFlaW1xdXl9WZ2hpamtsbW5vY3R1dnd4eXp7fH1+f3OEhYaHiImKi4yNjo+Ck5SVlpeYmZ&#xA;qbnJ2en5KjpKWmp6ipqqusra6voRAAICAQIDBQUEBQYECAMDbQEAAhEDBCESMUEFURNhIgZxgZEy&#xA;obHwFMHR4SNCFVJicvEzJDRDghaSUyWiY7LCB3PSNeJEgxdUkwgJChgZJjZFGidkdFU38qOzwygp&#xA;0+PzhJSktMTU5PRldYWVpbXF1eX1RlZmdoaWprbG1ub2R1dnd4eXp7fH1+f3OEhYaHiImKi4yNjo&#xA;+DlJWWl5iZmpucnZ6fkqOkpaanqKmqq6ytrq+v/aAAwDAQACEQMRAD8A9SXV1bWltLdXUqQW0CNJ&#xA;PPIwRERBVmZjQAACpJxV4X5r/wCcxvy10md7fRra816VCR60Si3tiR4SS/GfmI6Yq8+1H/nODzDJ&#xA;X9G+VrS28PrFzLceH8iW/viqRXX/ADmj+akpIh0/RrdeRK8YLhmp2BLXBH4DFUDP/wA5hfnDIQUb&#xA;ToQOoS1JB+fN3xVS/wChvPzl/wCWmx/6RF/rirv+hvPzl/5abH/pEX+uKoiL/nMb83kjCsumSsOr&#xA;vauCd+/GVR+GKq8H/OZ35sxuWe00eYEU4vbTgfP4LhDiqJj/AOc1vzPDgyaTojJ+0qw3akj2Jum/&#xA;ViqI/wCh2vP/AP1YtK+65/6q4q0//ObP5glGCaHpIeh4krckA9qj1hX78VQ3/Q6v5p/9WrQ/+ke8&#xA;/wCyvFXf9Dq/mn/1atD/AOke8/7K8VREf/ObP5hhAJdE0hpP2mVblQfkDM368VRsP/Ob3mocPW8t&#xA;WL0p6nCaZK+PGvOn44qmEH/Oct2pPr+TY5B+z6eoMlPnW2euKo6H/nOPTiq+t5QmRj9sJfK4HyJg&#xA;SuKo5f8AnN7ypyHLy1fha/ERLCSB7DbFUT/0O15B/wCrFqv3W3/VXFXf9DteQf8Aqxar91t/1VxV&#xA;Azf85weWwhMPle8eTsr3ESD7wr/qxVKL/wD5zjumBXT/ACgkZ34yT3xevhVEgT/iWKsX1L/nM/8A&#xA;NG4qtnYaVYp+yywzSyD6XmK/8LirFtR/5ye/O6+5KfMRt42r8FvbWsVKimziLn/w2Ksavvzg/NW+&#xA;r9Z83auVavJEvJ4kNfFY2VfwxVIrrzN5ku25Xeq3lw1S1ZbiVzU9T8THFUuZmZizEszGrMdyScVa&#xA;xVMtO8yeYtMZW03VbyyZacWtriWIilQKcGXpXFXo3k//AJye/Nzy5NGJtWOt2SkepaamPXLDvSfa&#xA;cGnT46exxV9lflT+Z+i/mN5Vj1zTUa3lRzBf2LkM8E6gErUU5KQQVam48DUBV5D/AM5l/mHNpnl7&#xA;T/JdjLwn1mt1qRU0YWkLUjQ+0soP/AU74q+O8VdirsVdirsVdirsVfaP/ON35LflzP8AltpXmTVt&#xA;GttY1bVVllmlv41uI0VZnjSOOGQNGAFStePImu9KAKvC/wDnKLyj5f8AK/5pPZ6FZx2FldWUF21p&#xA;COMSSOXRvTQbKD6YNBtXFXkWKuxV2KuxV2KuxV2KuxV2KuxV2KuxV2KuxV2KuxV2KuxV2KuxV2Kv&#xA;qP8A5wd1Qrf+bNKY1EsVpdRjw9NpY3+/1F+7FXmH/OTfmF9a/ObXfi5QaaYtPtx/KLeMeoP+RzOc&#xA;VeV4qm/lvyj5o8z3jWfl7S7nVLhAGkS2jaTgp2BcgcUHuxxVd5n8m+avKt5HZ+YtLuNLuJV9SFLh&#xA;CodelUb7LU70OKpNirsVeleRf+cefzR86adHqmmaaltpU4rBfXsqwJIK0qi/FIy/5QSnvirD/OXl&#xA;LV/KHmW+8uawIxqOnsqz+i4kj/eRrIpVh4q49x33xV9pf84u+b/L0n5N6PYSanbpfaYbuO8t5Zo1&#xA;kjBupZUJUkEL6ci0OKvA/wDnLPzh5L8zefLKXy5crfz2Fn9U1G+hIa3dlkZ40jcbOU5tyYEjcDti&#xA;ryTy15X8weZ9Xi0jQLCXUdRmqUghFSFHVmY0VFFd2YgDFXvOkf8AOHV7a6emo+ePNdjoEBKh40Al&#xA;CluiNPM9vGrV8OQ8MVZNpH/OJ35O6o4t7DztPqN0BV0tLixkPjXgiyEdMVU/Mv8AzhFafVHk8teY&#xA;5BdKCY7fUYlZHNOhlh4lPn6bYq+ZL7yzrNh5ll8tXsHoavDdfUZYGIoJufp05CoK16MNqb4q+mdE&#xA;/wCcILf6ira55ncXzAF4rK3HpIabgPK3J/nxX5Yq+Um48jxJK1+EkUJHuKnFUy8v+WvMHmLUV03Q&#xA;tPn1K+cFhb2yNIwUdWan2VFdydsVTDzf+XXnfyc0A8zaPPpguq/V5JQrI5WhYK6FkqKiorXFX1b/&#xA;AM4xflH+Xlx+Wml+ab/R4NU1jVGuGlnv41nWMQ3MkCpFG/JEFIq8qciT1pQBV4n/AM5X+XtF0P8A&#xA;NZoNIs4bC2uLC3uHt7aNIYhIzOjMEQKo5emCffFXjeKs5/KD8qtX/MjzWmkWbG2sIFE2q6gV5LBB&#xA;Wmw/akc7Ivfr0BxV9XfmA/5YfkX+X6TaToFlNq0/+i6Wk8aST3E3H45biZh6jIg+JqGm4Ucaiir4&#xA;h1K/m1DUbq/mWNJruaSeRIUWOMNKxchEWiqoJ2UbDFVGKKWWRYokaSRyFRFBLEnoAB1xV6L5c/5x&#xA;1/OPXkSW28tz2kD/AO7r8pZgA9+E7JIR8lOKs3sf+cLfzQmUPdalpFoCN0M1xI4PgQsHH/hsVYz+&#xA;Y3/ONH5j+R9Jl1m5FtqmkwUNzc2Du7QqTTlLHIkbBa9StQO9MVeTYq7FXvX/ADhlqH1f81ry2J+G&#xA;90meNVr+2k0MgPT+VGxV5B521A6l5z1/USeRvdRu7gt4+rO7+A8cVSTFX3f/AM4meX7XTPyb0++S&#xA;PjdazPc3dy5FGPCZreMV/l4Qgj54qhv+csvy8/xN+XR1u0j5ap5aZrtSBVmtGAFyn+xAWT/YnxxV&#xA;8M4qujjklkWONS8jkKijckk0AGKv0+8q6ONF8saRo9FH6Osre1PEALWGJUNANv2cVfE//OXOmQ2X&#xA;5y3c8YCnULK1upKfzBDBU/RCMVYv+Wv5G+f/AMxIZLvQbaGLTIZPQl1K8k9KASABio4h5GIDCvFD&#xA;TFVv5tfk35h/LK80621i7tbz9JxSSQSWhkIBiYK6sJFQ/tjFX1N/ziJ5R0nTPyrtvMEMSnU9emuJ&#xA;Lq5IHMR28728cQb+QekWp4scVeO/85panqM35k6bp0sjfULTS45bWHfgHnmlEsgHi3pqpP8AkjFX&#xA;gVtc3FrcR3NtK8FxCweKaNijoymoZWWhBHiMVfZ2if8AOXX5bWPk3Sf0nc3+o6/FZQJqMUdtR3uk&#xA;iVZWLOyRfHJU7Nir5n1bznJ5v/OSPzT9XFodQ1a1mjtiRJwVJI0jViQAx4oK7Yq/RnFX5a6rAINU&#xA;vIAnpiKeRPTIoV4uRSh8MVfTv/ODIh9bzmSF9cLpoQmnPgTdc6d6V41+jFWUf85sQMfy40Weo4x6&#xA;xGhHer2s5H/EMVZN/wA4n3Xrfklo8fLl9WnvIqUpxrcvJTpv/eVxV4h/zmxbFfzI0a5rtLo8cdKd&#xA;47qc1r/z0xV884q+/f8AnGr8uh5M/LWze5i9PWdb46hqPIUdQ6/uIj3Hpx0qD0Ytir5f/wCcn/zA&#xA;/wAW/mdd29tLz0rQAdOtKH4WkjY/WJB1HxS1Wo6qq4q8y8v6FqfmDW7HRNLi9bUNQmS3to+xdzSr&#xA;Hso6sew3xV92eUfy38g/kp5GvdelgW71HT7RrjU9XdQbiV1Wpig5f3au/wAKKPbkSd8VfI3nD8+/&#xA;zT8zatc3r+YL3TbaZm9LTtPuJba3jjJ2j4xMnOg/aepOKqn5P/mZ5t0L8x9DuBq91JaXl9Bb6nBN&#xA;O7xTQzOsUnqK5KkqjVUnoQMVfoHqunW2p6ZeabcqHtr2CS3nQioKSoUYEfJsVflsysrFWBVlNGU7&#xA;EEdjirWKvWv+cWL76r+d+goW4pdJdwMakDe0ldQfGrIMVeTySPJI0jnk7kszHqSTUnFVuKvvT/nE&#xA;7UEuvyT0mBaVsLi8t3p4tcvPvv4TDFXrlxbwXNvLb3EaywTI0csTiqsjijKwPUEHFX5r/md5Mn8m&#xA;efNZ8tyA+nY3DfVHbq9tJ+8gf5mJlr74qnP5B+Vj5l/Nvy5YMnO3guRfXW1V9KzHrkN7OyBPpxV+&#xA;ieKvhj/nMCWR/wA4pVY1WLT7VEG2wIZqfexxV7D/AM4TzyN+XWtQk/u49Xd1Hu9tAD/xEYqxv/nO&#xA;cCvkk03P6TBPeg+qYq9B/wCcQ9Qe6/Jq1gavGwvru3Svgzifb6Zjirxz/nNmJB+YeiSgfvG0hVZv&#xA;ELczED/hjir53xV2KojT7o2l/bXQLA28qSgqaN8DBtj47Yq/UzFX5k+frX6p578x2tCv1fVL2Li3&#xA;2hwuHWh99sVe8f8AOEF4E8z+Z7OorNZQTAUNf3MpXr0/3bir0/8A5zDsvrH5PmalfqepWs1ePKlR&#xA;JDWv7P8Ae9fo74qhv+cM7wz/AJTXUJO9pq9xEAT2aGCXb2rIcVYF/wA5xWfDVvKV5TaaC9hrXb9y&#xA;8LdP+euKvK/+ce/y4Pnr8x7G0uI+ej6bS/1UkfCYomHCI/8AGWSi0/lqe2KvsT8/PzHHkP8ALm/1&#xA;G3k4axe/6DpAB+ITzKf3o/4xIGf5gDvir88SSxJJqTuSepOKveP+cNdEgvvzTudQmUN+itNmmgr1&#xA;EsrxwAj/AJ5yPir3f/nLW6mg/JbUI42otzdWkUvugmElP+CjGKvg/FU88jeh/jby/wDWP7j9JWfq&#xA;1rTh66cuntir9OMVfl35hgNvr+pQE8jDdTxluleMjCuKpfirPvyFuza/nH5SlFQW1COLbr++Bi/4&#xA;33xVgOKuxV9sf84WzO/5U6irGoi1q4RPYG1tm/WxxV75ir5V/wCc1vIv/HG872qf9qzUiP8AZS27&#xA;mn/PRSf9UYq1/wA4S+T6vr/nCdNgF0qxc+J4z3H/ADK/HFX1Xir4d/5zGtWh/N5ZDWl1plrKKjag&#xA;eWPb/kXir1j/AJwl/wCUA13/ALap/wCoaLFUg/5znBp5JNNh+kwT2qfqmKsr/wCcL9RtJ/yx1Cxj&#xA;et1Z6pK08XcLNDEY2+TcWH0HFUH/AM5Z/lH5r82nRde8tWTalPYRy2t9ZxcfW9NmEkbopoXAbkGA&#xA;NdxQdcVfN0P5G/m/M/BPKOpg0rV4GQfe/EYqg9f/ACm/Mry9ZNf6x5bv7SyjFZbpoWaJB4u6clT/&#xA;AGWKsSxV+o+iTrcaLYXCklZraGQE9SGjB3+/FX50fnDAYPzX84oTyrrN9JXp/eXDvT6OWKvTP+cL&#xA;7oxfmrfQ1PG50edaVoOS3Fu4NO+ykfTir6E/5yhtPrP5HeZKCrw/VJUqaU4XkPI/8BXFXn//ADhD&#xA;eB/KnmWzrvDfwzUpv++h49f+eWKqX/OcFoG8v+Vrym8N3cw1p/v2NG+12/uumKs//wCcZvy7j8of&#xA;lrZXFzaC31zXFF7qLmvqFGLG2jav2eETD4ezE98Veff85r+VNXutI0PzPBK8umaa8lpeWv7ETXJU&#xA;pOP9YpwYn/JxV8jYq+jP+cJLrj57160qP3ul+rx7n0riNaj/AJG4q9o/5yxs/X/JLV5af7yT2c3W&#xA;nW5SL6f73FXwXiqN0W6+qaxYXdQv1e4il5N0HBw1T92Kv1HxV+a35k+W9Z0jzfrb3mnXVpZyaldi&#xA;0nuIZI0kX1n4lHZVDVXfbFWKYqyX8spzb/mR5UnA5GHWdPkC9K8bqM0xVj91Abe6mgJ5GJ2Qt0rx&#xA;JFcVUsVfZ3/OE8zn8udagNOCaw7jxq9rAD/xAYq9G88+fT5Y/MjyNp1y/DSfMY1GwnY7It1W1a0Y&#xA;nxLcox/rHFWQfmB5OsfOXk3VfLV6eMWowFElpX05lIeGT/YSKrYql/5ReRF8jfl7pHl1uBvLeIya&#xA;hJHur3UxMkxDUUsFZuKkj7IGKq35dedYvOGl6lqcAH1a31S8sbYgg8orWT00f/Zj4t/HFXzD/wA5&#xA;tWgXz5oN3QVm0v0q9/3VxI3/ADNxVlP/ADg9qwfSvNWkFqGCe1u0Xx9ZJI2I+XorXFU8/wCc09GF&#xA;1+XOl6oqgy6dqSozU3EVxE6tv/romKvlHyP+YXm7yPqjan5a1B7K4kUJOlFeKVAa8ZI3DK3ttUdq&#xA;Yq9RH/OZH5u8aelpRNKcvq0lfn/fUxV2m/8AOYv5sW97FLepp99aqw9a2aAxclruA6MCpp0O/wAj&#xA;ir7E8n+Z9K85eUdP1+yTlp+rW4k9GUBitapJE43BKMGRu22KvhX/AJyL8gWHkn80L3T9NjEOlX8U&#xA;eo2FuBQRxzllaNf8lZY3C+AoMVfe3l2A2/l/TICeRhtIIy3SvGNRXFXz55n13/nDuLzNqc2sQC81&#xA;x72d9UdotUk/0oSH1QeXwU512T4PDbFWS/lT5m/5xqvPN8Nt5EtIbXzJJFKLcraXUTNGELSgO68B&#xA;8K9zirLP+cgrX6z+TPmuOjHjZer8PX9zIkn3fBv7Yq8U/wCcGroibzjampDLp8qivwgqbhW28TyH&#xA;3Yq95/Mr8t7Hzy3lyC/o2n6TqqajewN0mijglAipTflK0Yb/ACeWKt/mH+a3ljyJPokGsSUl1y8S&#xA;0iVSAYoiaSXMlf8AdcZZeXzxVPvNXlvTfM3lzUdA1JOdlqUD28vivIfC61/aRqMvuMVfmp5n8vah&#xA;5c8xajoOoLxvNNuJLabwJjYjkv8AksPiX2xV6x/ziDfm2/OOGEGgvrC6gPXcKFm7f8YcVfZvnXW9&#xA;D0LyrqWsa7B9Z0mwi9e6gEazFlRgRRHIUnlQipxV4zY/85a/khcy8JtKv7Jdv3k9lbsv/JGaZvwx&#xA;VE3f/ORP/ONkUJljhjupKE+jFpRDk77VkjjWv+yxV7rBMk8EcyV4SqrrXrRhUYq+Pv8AnJn8/wCD&#xA;zDFqf5e6bpbQw6fqDwajqFyVLPLZSshECLXipdK8y1SNqDFXzfiqY+XZxb+YNMnI5CK7gcqOpCyK&#xA;aYqi/PNm1l528wWTCjW2pXkJFOO8c7r07dMVSPFX2H/zhFM58n+Y4T9hNQjdfGrwAH/iAxVD/wDO&#xA;bqTpo3lK7ifgYLu5CspIcOyRsrKR4cMVes/kT+Yb+fPy307WLllbVIOVlqoX/lpgoCx8PUQrJ/ss&#xA;VZD+YGvDy/5H1/Wufpvp9hczxN0PqpExjA9y9AMVeVf84bf+Sjm/7atz/wAmocVeX/8AObk4bzn5&#xA;dgpvHpzycvHnOwp9HDFUN/zhPdyL+Y2tWg/uptHeVv8AWiuoFX8JTir2P/nLz/yTVz/zHWn/ABI4&#xA;q+FcVdirsVfe3/OKLu35I6KGYkJNehQT0H1qQ0H0nFXhf/OalX/NLSI1SrnRIKEVLNyu7oBfw2xV&#xA;9oRxpHGsaDiiAKqjoABQDFX5i+cZHk83a3I55O+oXTMx6kmZiTirNf8AnGu7W0/O/wArSmlGmnh3&#xA;r1mtJoh0/wBfFX3D+Z9l9e/LbzVaUqZtIvkTavxG2fiaDrRqYq+Z/wDnCFyPNPmaPlQNYwtwr14z&#xA;EVp7csVfU/mzzVonlTy/ea9rdwLfT7JC8jbcmP7McYJHJ3Pwqvc4q/O/80fzG1b8wfOF35h1Aekj&#xA;/urCzB5Lb2yE+nED3O9WPdiTt0xV9xf84/edn84flVo2oXEnq6haIdP1BiasZrWiBmP80kfBz/rY&#xA;q+e/+czvJB0/zhp3m23jpba3B9XvHA2+tWoCgsf8uEqB/qHFWF/84syOv56eXFU0EgvlceI+oTtT&#xA;71GKvsf87VVvyi83hgCP0VdGh33EZIP34q/OHFXYq/UnR2VtIsWUhla3iKsNwQUG4xV+cv5vwPD+&#xA;a/nFGIJOtX77eEly7j8GxViGKr4ZXhmSaM0kjYOh67qajFWcfnrp/wBQ/ODzdBSnPUprinT/AHpP&#xA;r+J/35irBMVfWf8Azg5Kh07zfEG+NJrFyvgGWcA/TxOKpp/zm3Ch8j+X5zXmmpsi+FHt3J/4gMVY&#xA;j/zhd5us9NvPMukajqNtaWs6W91bRXMqxM0qF0kMYYgN8JXn8hirLf8AnKX84vJU3kK88o6Pq8eo&#xA;axqMkImSxdZo44opVlcTSrVBXhTiDy8dsVZJ/wA4hAf8qbt/e+u6/wDBDFXjf/ObFtMv5kaNckfu&#xA;ZdGjjQ7/AGo7q4ZvbpIuKqP/ADhV/wCTT1X/ALYdx/1GWmKvdf8AnK+ya5/JPV5FBP1SeznNOwNy&#xA;kVf+SmKvkb8jfJ2i+cvzQ0Xy9rSyvpt2Z3uEhbgzCC3kmClxuqsY6Ejfwp1xV9U/nR+Vv5X+XPyb&#xA;8xXOneW9Os57S1X6reCBGuEkaRI0InYNLUlqfaxV8NYq+8/+cTdQtLr8k9KggA9WxuLy3uqdfUa4&#xA;ecV/55zJirx7/nNSwubTz95b1xdkm070Iidx6lncvKf+olcVfXtrcxXVrDcwnlDOiyRt4q4DA7ex&#xA;xV+cH5w6Q2kfmn5qsCKKmp3MkYIp+7mkM0f/AAjjFVb8k5vR/Nzyg/P066rapyrT7cgTj/suVMVf&#xA;ohr0CT6HqMDkhJbWZGI60aMg0rir5J/5wjSQ+dfMLgL6a6aisaDlyM6laHrTY1xV6p/zmHOY/wAn&#xA;ygFRNqVqhPgAJHr/AMJir4bxV9Hf84Zefv0d5pv/ACbdSUttaQ3NgCdhd26kuoH/ABZCCT/qDFX0&#xA;P+e3kIed/wAs9W0qKP1NSt0+u6XQVb6zbgsqr7yLyj/2WKvj/wD5xc/8nt5Z/wCj7/un3GKvsr86&#xA;/wDyUfm//tlXX/Jo4q/ODFXYq/TvyXOk/k7QZ0BCS6daOoPWjQIRWmKvgP8APy0Nr+cnmyIgjlfv&#xA;LQ7/AN8qy9v9fFWAYq7FXsf/ADlnpv1P86tTnpQahbWlyPogWAn74cVeOYq+rP8AnCC40aGHzTAb&#xA;5BrF49qRpzEBzb2yyfvUruw5TkNT7NB44qj/APnNjXtGfy1oehpeRPqy331qSyVg0qQiF05uo3UF&#xA;nAFeu9OhxV8iYq7FX2n/AM4WajJP+Wmp2Tq1LPVZPTeh48ZYIm4gnaoYEmnjirFv+c5Fsa+T25D6&#xA;+PrwKDqYT6G7f7L7P04q88/5xHnvo/znsUtkZoZrO7S9YdFiEXMFvb1UQfM4q+lf+cl/NflvSvyp&#xA;13TdQvYU1HU4BBYWHJTPI7SKQyx15cUpyLdB86Yq+ZP+cTntl/OzShM3F2t7xbcVA5P9Xc0Nf8gM&#xA;dsVfXH56eU9X82flR5g0HSEEupXMcMltCSF9Rra4juOAJIFXERUVPXFXxFb/AJE/nDcSenH5S1FW&#xA;6VkhMS7mn2pCoxV9Z/8AOPHkfVvyv/Li/wD8aXFvpj3N499NHJMnp20fpRx/vZQ3pcj6dTxJFKb+&#xA;Cr57/wCcoPze0L8wPMem2mgFptJ0JJ0S+ZSgnmuCnqNGp+L0wIVALUqa7UpVV9e/lfqLy/lZ5Vv7&#xA;9hCzaNYyTyyMAP8AedPjZjQDl9rFXw1/zkFrmka5+cXmTUtImjuNPllhjinhIaN2gtooZGVl2YGS&#xA;Ntx1xVCfkfpkmpfm95Rt4zRo9Tt7o1NPhtH+sN/wsRxV9+/mBrttoHkfXtZuXVI7KxuJQWIHJxGR&#xA;Ggr3dyFHucVfM3/OD1sG1vzXc8gDFbWkYSoqfUkkatOu3p/jirLf+c0vMelp5F03QEvIjqs+pxXE&#xA;lkGVpRbxQTAuyjdRzkShPX78VfG2Kpj5c12+0DX9O1uwbjeabcRXUBPQtEwYA+xpQ+2Kv000DWrP&#xA;XND0/WbJuVpqVvFdQHvwmQOAadxXfFXx15HXy1ov/OXzCwvIF0SK/wBSaO49RRAhlsZy0YcnjRJH&#xA;MY37Yq92/Pr80PIFl+W3mHSW1yzn1XUbGW1tLC2mSednmXipZIyxRd68moKYq+CcVXIvJ1WoXkQK&#xA;nYCvjir72sfzw/J/yZ5I0mwm8z2uoyaXYW9oItPLXUsrW8Kx/CFrTlx6uw9zir4l8+eaZPNfnLWf&#xA;Mbxeh+lLqS4SCtSkbGkaE9yqAAnFUhxV2Kvo7/nNvTUi87eX9SFOV1prW7Adf9HnZgTv/wAX+GKv&#xA;nHFVyO8bh42KOpqrKaEHxBGKtEliSTUnck9ScVaxV2KvQPy//PT8xfIekT6R5fvYo9Pnlaf0Z4I5&#xA;eErqFZ0ZhXcINiae3XFWMebPOHmXzbrEmseYr+TUNQkAT1ZOICoOiIiBURRX7KgDFUqhuJ4H5wSN&#xA;E9KckYqaeFRiq2SSSRzJIxd23ZmJJJ9ycVRGmanqGlajb6lp1w9pf2kizW1zEeLo6moYEYq9lsv+&#xA;cwfzht7ZIZX067dBQ3E1qRI3u3pPEn3LiqG1T/nLb8572MpBfWmnVFC1raRlvvn9fFXmfmTzp5t8&#xA;zzifzBq93qjqeSC5ld0Q9PgQngn+xAxVJcVVnvLt4RA88jQrTjEWYqKdKLWmKqOKq1peXdldRXdn&#xA;PJbXUDCSC4hZo5EdTUMjqQykHoRiqceYPPvnbzHBHb69rt/qdvEeUcF1cSSxhv5gjEry96VxVJYb&#xA;ieB+cEjRPSnJGKmnhUYqtd3d2d2LOxJZiakk7kknFVuKuxVNbXzX5ptNObTLTWL630168rGK5mSA&#xA;1rWsSsE3qe2KpVirsVdirsVdirsVdiqYeXrI3+v6ZYheRuruCAKRyB9SRVpx79emKvYv+cmfye82&#xA;aB5v1TzePV1Py9rFy90b4Vc2rzNX0JuvBEJ4xt9njQddsVeG4q7FXYq7FXYq7FXYq7FXYq7FXYq7&#xA;FXYq7FXYq7FXYq7FXYq7FXYq7FXYq7FXYq7FXYq7FXYq7FXq/wDzjp+XuteYvzP0G8NlMNH02ddS&#xA;ub1o2ENLVucahyOJLyqq0r4+GKvvqeCC4heCeNZYZVKSROAysrChVlOxBxV4B59/5w58m65fzah5&#xA;b1CTy5LMSz2QiFxaBuv7tOUTxgnsGIHYdsVeaX3/ADhP+Ykbn6jrWkXEYrvK9zCx8NlhlH/DYqlv&#xA;/Qm35uf7+0r/AKSZf+qOKo+D/nCj8zC5E+saKiU2KS3TmvyNsn68VTW2/wCcH/MbD/SfNFnEaD+6&#xA;t5ZN+4+Jo8VTaD/nBq2Un1/OTyDsE04Ia/TcviqpJ/zg3pxQiPzfMr/ss1irAH3AnX9eKpTdf84O&#xA;60pP1TzZbSiu3q2kkXw+Pwyy7+2KpfL/AM4Seeg5EWv6W0f7LMLhSfmBG368VWf9CS+f/wDq+6V9&#xA;9z/1SxVXg/5wi85FCZ/MWnRvXYIk7inzKp+rFUwt/wDnBzU2KfWfN0MYI+P07F5KGnblNHXf5Yqm&#xA;lp/zg5pS8frfm6ealefpWSRV8KcppaYqm9p/zhN+Xij/AEvW9XmNNzE1tFv4/FDLiqdWv/OHv5PQ&#xA;n94mo3O4NJboDp2/dpH1xVN7b/nFn8joKFvLzTsG5Bpby9PTtRZlUj5jFUzg/wCcePyWgBCeVLQ8&#xA;uvqNNJ08ObtTFUbF+SH5QxoEXyjpZC9C1ujn6WYEnFV3/KlPyj/6lDSv+kWL+mKqU/5F/k/OAH8o&#xA;6aOPT04RH18eHGuKpDrP/OLf5K6mjBdEbT5TX99Z3E8ZFfBWZ4/+FxVhOpf84SeSZGY6b5g1K1Br&#xA;xE6wXFOn8qwe+KpHc/8AODRo5tvOVT+xHJp1Nvd1uf8AjXFUDN/zg9rgSsHmu1d6/Ze0kQU+Ykf9&#xA;WKsD/NH/AJxm88eRNJi1dZE1zTqsL2ayjk5W1KENKhqeDb/ENhTelRVV4/irsVZV5Z/Kv8xvMzL+&#xA;g/Lt9dxvTjcekYoN+n7+XhEP+CxV7N5P/wCcK/Nl4Un81avb6TCaFrW0BurindWb93Eh9wXxV7v5&#xA;L/5xy/KbyoY5bfSF1O+SlL3UyLp6juEIEKn3VBir0xVVVCqAqqKKo2AA7DFW8VdirsVdirsVdirs&#xA;VdirsVdirsVdirsVdirsVdirsVdirsVdirsVdirsVdirsVdirznWv+hdf0hJ+nP8IfpH/dv139Ge&#xA;t1P2vV+LriqYeV/+VK/WE/wr/hv6xX93+i/qHPl7ehvXFWbYq7FXYq7FX//Z</xmpGImg:image>
               </rdf:li>
            </rdf:Alt>
         </xmp:Thumbnails>
      </rdf:Description>
      <rdf:Description rdf:about=""
            xmlns:pdf="http://ns.adobe.com/pdf/1.3/">
         <pdf:Producer>Adobe PDF library 9.90</pdf:Producer>
      </rdf:Description>
      <rdf:Description rdf:about=""
            xmlns:dc="http://purl.org/dc/elements/1.1/">
         <dc:format>image/svg+xml</dc:format>
      </rdf:Description>
      <rdf:Description rdf:about=""
            xmlns:xmpTPg="http://ns.adobe.com/xap/1.0/t/pg/"
            xmlns:stDim="http://ns.adobe.com/xap/1.0/sType/Dimensions#"
            xmlns:xmpG="http://ns.adobe.com/xap/1.0/g/">
         <xmpTPg:NPages>1</xmpTPg:NPages>
         <xmpTPg:HasVisibleTransparency>False</xmpTPg:HasVisibleTransparency>
         <xmpTPg:HasVisibleOverprint>False</xmpTPg:HasVisibleOverprint>
         <xmpTPg:MaxPageSize rdf:parseType="Resource">
            <stDim:w>112.388672</stDim:w>
            <stDim:h>46.087402</stDim:h>
            <stDim:unit>Pixels</stDim:unit>
         </xmpTPg:MaxPageSize>
         <xmpTPg:PlateNames>
            <rdf:Seq>
               <rdf:li>Cyan</rdf:li>
               <rdf:li>Magenta</rdf:li>
               <rdf:li>Yellow</rdf:li>
               <rdf:li>Black</rdf:li>
            </rdf:Seq>
         </xmpTPg:PlateNames>
         <xmpTPg:SwatchGroups>
            <rdf:Seq>
               <rdf:li rdf:parseType="Resource">
                  <xmpG:groupName>Группа образцов по умолчанию</xmpG:groupName>
                  <xmpG:groupType>0</xmpG:groupType>
               </rdf:li>
            </rdf:Seq>
         </xmpTPg:SwatchGroups>
      </rdf:Description>
   </rdf:RDF>
</x:xmpmeta>
                                                                                                    
                                                                                                    
                                                                                                    
                                                                                                    
                                                                                                    
                                                                                                    
                                                                                                    
                                                                                                    
                                                                                                    
                                                                                                    
                                                                                                    
                                                                                                    
                                                                                                    
                                                                                                    
                                                                                                    
                                                                                                    
                                                                                                    
                                                                                                    
                                                                                                    
                                                                                                    
                           
<?xpacket end="w"?>
	</metadata>
<g id="Layer_2">
	<g>
		<path d="M129.364,56.884c4.394,0.868,0.843-35.858,0.147-38.311c-1.96-6.569-26.677-2.144-32.18-1.717
			c-12.723,0.987-25.189-0.96-37.611-0.376c-6.205,0.292-34.854-1.813-37.519,1.986c-5.048,7.208-2.652,25.797-1.278,35.076
			c-4.043,0.779,2.309,4.154,3.138,4.897c6.314,2.192,16.358-0.219,23.007,0.396c15.434,1.472,31.797-2.194,47.276-0.955
			c4.496,1.144,9.604,1.019,14.224,1.239C111.982,64.691,128.232,56.658,129.364,56.884
			C129.264,56.864,129.871,56.984,129.364,56.884z"/>
	</g>
</g>
<g id="Layer_1_1_">
	<g>
		<path fill="#FFFFFF" d="M45.195,39.413c-0.079-2.546-0.484-5.074-0.451-7.624c0.026-2.063,0.37-4.185-0.341-6.164
			c0.043-0.225,0.091-0.449,0.132-0.675c0.184-0.992-3.103-0.467-3.62,0.44c-0.325,0.266-0.492,0.584-0.354,0.908
			c0.035,0.082,0.065,0.165,0.096,0.247c-0.623,3.041-1.49,5.985-2.487,8.932c-0.382,1.128-0.843,2.229-1.232,3.354
			c-0.553-1.049-1.111-2.083-1.56-3.206c-1.303-3.257-2.479-6.55-4.068-9.685c0.181-1.452-3.039-1.299-3.674,0.03
			c-0.767,1.607-0.668,3.229-0.416,4.948c0.285,1.938,0.334,3.842,0.358,5.8c0.045,3.771,0.339,7.537,0.396,11.311
			c-0.335,0.372-0.438,0.835-0.087,1.305c0.153,0.203,0.344,0.362,0.542,0.521c0.858,0.687,3.323,0.101,3.318-1.207
			c-0.013-3.911-0.295-7.815-0.399-11.727c-0.01-0.383-0.017-0.766-0.022-1.149c0.055,0.137,0.108,0.275,0.163,0.411
			c0.607,1.522,1.243,3.001,2.073,4.416c0.824,1.401,1.237,2.908,1.711,4.438c-0.179,0.206-0.288,0.439-0.221,0.674
			c-0.038,0.169,0.067,0.275,0.238,0.342c0.606,0.519,1.747,0.261,2.381-0.008c0.273-0.114,0.532-0.247,0.784-0.401
			c0.327-0.202,0.838-0.645,0.691-1.1c-0.028-0.089-0.056-0.176-0.083-0.265c0.447-1.204,0.674-2.456,0.917-3.728
			c0.259-1.356,0.742-2.64,1.229-3.924c0.049,0.587,0.1,1.176,0.147,1.762c0.194,2.422,0.031,4.812,0.008,7.236
			c-0.009,0.803,0.05,1.55,0.208,2.337c0.064,0.324,0.348,1.714,0.266,1.79c-0.581,0.535-0.412,1.192,0.366,1.363
			c0.868,0.19,1.975-0.101,2.628-0.705c1.137-1.05,0.6-2.699,0.342-4.024C44.745,44.165,45.265,41.677,45.195,39.413z"/>
		<path fill="#FFFFFF" d="M53.132,40.056c-0.069-1.888-0.725-3.666-0.734-5.573c-0.01-2.188,0.172-4.358-0.146-6.535
			c-0.101-0.688-3.849,0.095-3.717,0.996c0.293,2.002,0.187,4.014,0.151,6.029c-0.035,1.941,0.444,3.699,0.694,5.603
			c0.254,1.95-0.081,3.945,0.141,5.897c0.103,0.913,0.712,2.603,0.084,3.398c-0.398,0.505,1.394,0.322,1.474,0.31
			c0.729-0.136,1.702-0.372,2.186-0.987c0.62-0.784,0.186-2.3,0.051-3.185C53.014,44.054,53.206,42.026,53.132,40.056z"/>
		<path fill="#FFFFFF" d="M68.629,36.903c-1.957-2.641-5.589-0.739-8.125-1.46c-1.308-0.372-1.323-2.155-1.319-3.224
			c0.003-1.353-0.108-2.592-0.26-3.935c-0.112-0.998-0.022-2.013,0.708-2.755c0.135-0.137,0.815-0.318,0.768-0.322
			c0.335-0.058,0.643-0.072,1.013-0.088c1.469-0.063,4.376,0.22,3.814,2.356c-0.253,0.958,3.413,0.409,3.68-0.604
			c1.15-4.364-6.914-3.526-9.192-2.921c-2.098,0.557-4.412,1.751-4.531,4.174c-0.059,1.156,0.257,2.258,0.309,3.404
			c0.057,1.319-0.188,2.635,0.273,3.907c1.027,2.831,5.238,1.495,7.38,1.656c3.65,0.271,2.561,5.19,2.608,7.48
			c0.025,1.224,1.121,3.255,0.2,4.278c-0.565,0.627-1.881,0.664-2.649,0.729c-0.772,0.064-2.089,0.296-2.604-0.438
			c-0.942-1.345,0.087-3.605-0.114-5.146c-0.115-0.879-3.859-0.091-3.717,0.995c0.325,2.492-1.328,5.83,2.279,6.258
			c2.318,0.275,4.926-0.152,7.118-0.881c1.135-0.376,2.188-0.894,3.077-1.701c0.982-0.892,0.659-2.228,0.396-3.365
			C69.1,42.531,70.436,39.344,68.629,36.903z"/>
		<path fill="#FFFFFF" d="M85.07,36.725c-0.114-3.584-0.653-7.129-0.669-10.719c-0.007-1.871-3.762-1.239-3.754,0.325
			c0.014,3.424,0.472,6.801,0.646,10.215c0.004,0.068,0.008,0.138,0.012,0.209c-1.85-0.017-3.699,0.169-5.553,0.233
			c0.191-4.396-0.58-8.756-0.411-13.149c0.021-0.553-3.677-0.085-3.718,0.995c-0.162,4.248,0.558,8.461,0.43,12.709
			c-0.061,2.026-0.232,4.046-0.247,6.074c-0.007,1.039,0.164,2.074,0.313,3.098c0.138,0.947,0.458,2.212,0.172,3.149
			c-0.224,0.731,3.379,0.275,3.666-0.659c0.516-1.687-0.211-3.834-0.383-5.541c-0.167-1.636-0.039-3.319,0.078-4.98
			c1.925-0.123,3.852-0.281,5.77-0.011c0.084,1.308,0.186,2.613,0.305,3.924c0.101,1.099,0.171,2.194,0.187,3.298
			c0.016,0.966,0.135,2.367-0.21,3.282c-0.733,1.953,2.99,1.792,3.533,0.347c0.667-1.775,0.477-3.984,0.363-5.85
			C85.455,41.354,85.145,39.047,85.07,36.725z"/>
		<path fill="#FFFFFF" d="M101.139,40.971c-0.892-2.617-2.252-4.913-3.431-7.399c0.95-1.85,1.915-3.7,2.782-5.588
			c0.788-1.715,1.373-3.624,2.922-4.833c0.545-0.424,0.522-0.85-0.243-0.902c-0.83-0.058-1.958,0.182-2.629,0.704
			c-1.408,1.099-2.301,2.433-3.035,4.05c-0.885,1.946-1.801,3.856-2.765,5.765c-0.069,0.14-0.141,0.28-0.213,0.421
			c-0.465,0.3-0.744,0.723-0.606,1.201c-0.75,1.484-1.518,2.959-2.371,4.375c-0.283-5.25-0.905-10.496-1.093-15.752
			c-0.041-1.205-3.768-0.455-3.715,0.996c0.23,6.517,1.155,13.021,1.221,19.536c-0.017,0.017-0.031,0.033-0.047,0.048
			c-0.285,0.293-0.179,0.469,0.051,0.571c0.002,1.66-0.057,3.322-0.199,4.985c-0.448,0.709,0.439,1.081,1.029,1.081
			c0.031,0,0.061,0,0.092,0c0.701,0,2.49-0.331,2.579-1.294c0.182-1.992,0.237-3.981,0.221-5.971
			c1.508-1.627,2.741-3.444,3.849-5.348c0.72,1.405,1.405,2.821,1.887,4.35c0.816,2.602,2.182,4.991,2.971,7.604
			c0.518,1.713,4.229,0.701,3.717-0.996C103.321,45.964,102.02,43.551,101.139,40.971z"/>
		<path fill="#FFFFFF" d="M123.443,36.573c-0.199-0.791-1.302-0.807-2.156-0.731c-0.012-0.318-0.02-0.637-0.033-0.956
			c-0.12-2.525-0.158-5.104-0.371-7.622c-0.198-2.331-1.505-3.167-3.77-3.08c-2.293,0.087-4.962,0.5-7.101,1.332
			c-2.475,0.962-3.852,2.784-4.326,5.391c-0.522,2.86,0.227,5.901,0.354,8.775c0.146,3.324,0.063,6.655,0.059,9.98
			c0,0.545,3.717,0.03,3.717-0.996c0.004-2.633,0.041-5.268,0-7.9c-0.013-0.777-0.049-1.549-0.097-2.318
			c1.3-0.563,3.499,0.011,4.792,0.133c1.052,0.1,2.059-0.155,3.079-0.275c0.02,2.193,0.101,4.4,0.191,6.591
			c0.047,1.122,0.453,3.351-0.335,4.279c-0.414,0.491,1.405,0.326,1.475,0.314c0.753-0.139,1.671-0.381,2.186-0.988
			c0.901-1.062,0.433-3.597,0.381-4.863c-0.074-1.814-0.097-3.63-0.135-5.443C122.448,38.051,123.647,37.38,123.443,36.573z
			 M109.571,36.43c-0.099-1.183-0.207-2.364-0.288-3.552c-0.15-2.212,0.111-5.298,2.172-6.642c0.553-0.36,1.59-0.298,2.235-0.416
			c0.922-0.166,1.856-0.369,2.685,0.181c1.148,0.762,0.865,3.47,0.863,4.62c-0.002,1.904,0.198,3.797,0.295,5.698
			c-0.524,0.052-1.056,0.084-1.597,0.073C113.767,36.339,111.625,35.998,109.571,36.43z"/>
		<path fill="#FFFFFF" d="M49.915,25.373c0.495-0.047,0.992-0.215,1.401-0.497c0.082-0.068,0.162-0.138,0.244-0.206
			c0.493-0.318,0.92-0.785,0.69-1.291c-0.479-1.049-0.403-2.117-0.395-3.241c0.006-0.908-0.914-1.182-1.689-1.114
			c-0.686,0.061-2.058,0.551-2.063,1.443c-0.007,0.942-0.068,1.913,0.104,2.84c-0.046,0.106-0.071,0.226-0.099,0.336
			c-0.053,0.201,0.015,0.399,0.135,0.56c0,0.042,0.002,0.085,0.002,0.127c0.004,0.106,0.01,0.212,0.014,0.318
			c0.07,0.221,0.205,0.388,0.407,0.503C49.033,25.373,49.498,25.414,49.915,25.373z"/>
	</g>
</g>
</svg>
