<svg width="24" height="24" viewBox="0 0 24 24" fill="none" xmlns="http://www.w3.org/2000/svg">
<path d="M2.62963 1C1.72961 1 1 1.72961 1 2.62963V16.0692C1 16.9692 1.72961 17.6988 2.62963 17.6988H10.3163V20.2964H9.25471C9.03514 20.2964 8.85714 20.4744 8.85714 20.694C8.85714 20.9135 9.03514 21.0915 9.25471 21.0915H14.7453C14.9649 21.0915 15.1429 20.9135 15.1429 20.694C15.1429 20.4744 14.9649 20.2964 14.7453 20.2964H13.6837V17.6988H17.1633V21.5422C17.1633 22.346 17.7172 23 18.398 23H20.6429C21.3237 23 21.8776 22.346 21.8776 21.5422V17.6988C22.4975 17.6988 23 17.1963 23 16.5764V2.62963C23 1.72961 22.2704 1 21.3704 1H2.62963ZM13.0102 20.2964H10.9898V17.6988H13.0102V20.2964ZM21.2041 21.5422C21.2041 21.9076 20.9523 22.2048 20.6429 22.2048H18.398C18.0885 22.2048 17.8367 21.9075 17.8367 21.5422V11.0192H21.2041V21.5422ZM22.3266 16.9036H21.8776V10.2241H17.1633V16.9036H2.48827C2.03826 16.9036 1.67345 16.5388 1.67345 16.0888V2.60997C1.67345 2.15996 2.03825 1.79516 2.48826 1.79516H21.5117C21.9617 1.79516 22.3265 2.15996 22.3265 2.60997L22.3266 16.9036Z" fill="#46A6E4" stroke="#46A6E4" stroke-width="0.3"/>
<path d="M4.13953 3C3.51019 3 3 3.52623 3 4.17537V14.8246C3 15.4738 3.51019 16 4.13953 16H16.2907V15.2353H4.00773C3.79795 15.2353 3.62789 15.0599 3.62789 14.8435V4.15647C3.62789 3.94009 3.79795 3.76468 4.00773 3.76468H12.3767H13.2648H14.5909H15.4789H19.9923C20.202 3.76468 20.3721 3.94009 20.3721 4.15647V9.70392H21V4.17538C21 3.52623 20.4898 3 19.8605 3H4.13953Z" fill="#46A6E4" stroke="#46A6E4" stroke-width="0.3"/>
<path d="M19.15 16.8501V16.1501H19.85V16.8501H19.15Z" fill="#46A6E4" stroke="#46A6E4" stroke-width="0.3"/>
<path d="M19.15 14.8499V14.1499H19.85V14.8499H19.15Z" fill="#46A6E4" stroke="#46A6E4" stroke-width="0.3"/>
</svg>
