<svg width="30" height="30" viewBox="0 0 30 30" fill="none" xmlns="http://www.w3.org/2000/svg">
<path d="M24.3752 1.25226H25.623V5.62856C25.623 5.97421 25.9042 6.25542 26.2499 6.25542C26.5955 6.25542 26.8767 5.97421 26.8767 5.62856V1.25226H28.1246C28.4702 1.25226 28.7515 0.971048 28.7515 0.625396C28.7515 0.279744 28.4702 0.00439453 28.1246 0.00439453H24.3752C24.0295 0.00439453 23.7483 0.285603 23.7483 0.631255C23.7483 0.976906 24.0295 1.25226 24.3752 1.25226Z" fill="#46A6E4"/>
<path d="M19.9987 6.25542C20.3443 6.25542 20.6255 5.97421 20.6255 5.62856V4.63847L22.055 6.07381C22.178 6.19684 22.3362 6.25542 22.5003 6.25542C22.6584 6.25542 22.8225 6.19684 22.9397 6.07381C23.1857 5.82775 23.1857 5.43523 22.9397 5.18917L21.4926 3.74212C22.4124 3.62495 23.1271 2.83405 23.1271 1.88498C23.1271 0.853879 22.2835 0.0102539 21.2524 0.0102539H20.0045C19.6589 0.0102539 19.3777 0.291462 19.3777 0.637114V5.62856C19.3777 5.97421 19.653 6.25542 19.9987 6.25542ZM20.6255 1.25226H21.2524C21.5981 1.25226 21.8793 1.53347 21.8793 1.87912C21.8793 2.22477 21.5981 2.50598 21.2524 2.50598H20.6255V1.25226Z" fill="#46A6E4"/>
<path d="M13.5312 6.21442C13.8534 6.33159 14.2166 6.17341 14.3338 5.85119L14.6501 5.00757H16.5952L16.9115 5.85119C17.0053 6.10311 17.2455 6.25543 17.4974 6.25543C17.5735 6.25543 17.6438 6.24371 17.72 6.21442C18.0422 6.09139 18.2063 5.73402 18.0832 5.4118L16.2085 0.414497C16.0269 -0.0717593 15.2184 -0.0717593 15.0368 0.414497L13.1621 5.4118C13.0449 5.73402 13.2089 6.09139 13.5312 6.21442ZM15.6285 2.40639L16.1323 3.75384H15.1247L15.6285 2.40639Z" fill="#46A6E4"/>
<path d="M7.50259 6.25546C7.84824 6.25546 8.12945 5.97425 8.12945 5.6286V2.50602L8.87934 3.50782C9.11954 3.82418 9.6468 3.82418 9.88114 3.50782L10.631 2.50602V5.6286C10.631 5.97425 10.9122 6.25546 11.2579 6.25546C11.6035 6.25546 11.8847 5.97425 11.8847 5.6286V0.631293C11.8847 0.361802 11.7149 0.121603 11.4571 0.0395842C11.2052 -0.0482934 10.924 0.0395842 10.7599 0.256349L9.37731 2.0842L8.00056 0.25049C7.83653 0.0337257 7.55532 -0.0541519 7.3034 0.0337257C7.04563 0.121603 6.87573 0.355943 6.87573 0.625435V5.6286C6.87573 5.97425 7.15694 6.25546 7.50259 6.25546Z" fill="#46A6E4"/>
<path d="M21.4459 12.5358C21.1237 12.4245 20.7663 12.6061 20.655 12.9283L18.751 18.6521L16.847 12.9342C16.7357 12.6061 16.3842 12.4303 16.0561 12.5416C15.728 12.653 15.5522 13.0045 15.6636 13.3325L18.1651 20.8314C18.253 21.0892 18.4874 21.2591 18.7568 21.2591C19.0263 21.2591 19.2665 21.0892 19.3486 20.8314L21.8501 13.3325C21.9497 12.9986 21.774 12.6412 21.4459 12.5358Z" fill="#46A6E4"/>
<path d="M13.3768 26.2505V26.0005H13.1268H2.50534C1.61231 26.0005 0.880615 25.2688 0.880615 24.3758V9.37802C0.880615 8.48499 1.61231 7.7533 2.50534 7.7533H27.4977C28.3961 7.7533 29.1224 8.48448 29.1224 9.37802V24.3758C29.1224 25.2688 28.3907 26.0005 27.4977 26.0005H16.8763H16.6263V26.2505V27.598V27.8098L16.8353 27.8446L23.8113 29.0043C23.8114 29.0044 23.8116 29.0044 23.8118 29.0044C24.0193 29.0405 24.1572 29.2365 24.1229 29.4359C24.091 29.6203 23.9318 29.75 23.7541 29.75C23.7157 29.75 23.7012 29.7494 23.6898 29.7475C23.6898 29.7475 23.6898 29.7475 23.6898 29.7475L16.2437 28.5055L16.2232 28.5021H16.2025H13.8005H13.7798L13.7594 28.5055L6.31327 29.7475C6.31326 29.7475 6.31325 29.7475 6.31324 29.7475C6.30185 29.7494 6.28736 29.75 6.24892 29.75C6.072 29.75 5.91327 29.6213 5.8805 29.4381C5.84977 29.2326 5.98844 29.0397 6.19123 29.0044C6.19142 29.0044 6.19161 29.0044 6.1918 29.0043L13.1678 27.8446L13.3768 27.8098V27.598V26.2505ZM15.6284 27.7484H15.8784V27.4984V26.2505V26.0005H15.6284H14.3805H14.1305V26.2505V27.4984V27.7484H14.3805H15.6284ZM28.3383 24.6258H28.3804V24.3758V9.37802C28.3804 8.89429 27.9873 8.50116 27.5036 8.50116H2.50534C2.02161 8.50116 1.62848 8.89429 1.62848 9.37802V24.3758C1.62848 24.8595 2.02161 25.2527 2.50534 25.2527H27.4977C27.8946 25.2527 28.2305 24.988 28.3383 24.6258Z" fill="#46A6E4" stroke="#46A6E4" stroke-width="0.5"/>
<path d="M3.12638 5.00756C2.3882 5.00756 1.90195 4.65605 1.87266 4.40413C1.8375 4.05848 1.53286 3.80656 1.19307 3.84172C0.853275 3.87687 0.595501 4.18151 0.630652 4.5213C0.724388 5.51139 1.79649 6.25542 3.12638 6.25542C4.52656 6.25542 5.62796 5.42937 5.62796 4.3807C5.62796 3.40233 4.85463 2.78133 3.32556 2.52941L3.13809 2.50012C2.04255 2.3185 1.87851 2.03144 1.87851 1.87912C1.87851 1.63306 2.37649 1.25226 3.13223 1.25226C3.87041 1.25226 4.35666 1.60377 4.38595 1.85568C4.4211 2.20133 4.73746 2.45911 5.06554 2.4181C5.40533 2.38295 5.66311 2.07831 5.62796 1.73851C5.52836 0.748425 4.45626 0.00439453 3.13223 0.00439453C1.73205 0.00439453 0.630652 0.830444 0.630652 1.87912C0.630652 2.85749 1.40397 3.47849 2.9389 3.7304L3.12052 3.7597C4.15747 3.92959 4.3801 4.19323 4.3801 4.3807C4.3801 4.62676 3.88212 5.00756 3.12638 5.00756Z" fill="#46A6E4"/>
<path d="M14.3747 12.5006H8.12955C7.78389 12.5006 7.50269 12.7818 7.50269 13.1275C7.50269 13.4731 7.78389 13.7543 8.12955 13.7543H10.6311V20.6264C10.6311 20.972 10.9123 21.2532 11.258 21.2532C11.6036 21.2532 11.8848 20.972 11.8848 20.6264V13.7543H14.3864C14.7321 13.7543 15.0133 13.4731 15.0133 13.1275C15.0133 12.7818 14.7204 12.5006 14.3747 12.5006Z" fill="#46A6E4"/>
</svg>
