<svg width="22" height="22" viewBox="0 0 22 22" fill="none" xmlns="http://www.w3.org/2000/svg">
<path d="M5.13341 18.3334H4.40008C3.99507 18.3334 3.66675 18.6617 3.66675 19.0667V19.8C3.66675 20.205 3.99507 20.5334 4.40008 20.5334H5.13341C5.53842 20.5334 5.86675 20.205 5.86675 19.8V19.0667C5.86675 18.6617 5.53842 18.3334 5.13341 18.3334ZM4.40008 19.8V19.0667H5.13341V19.8H4.40008Z" fill="#46A6E4" stroke="#46A6E4" stroke-width="0.3"/>
<path d="M8.06676 18.3334H7.33343C6.92842 18.3334 6.6001 18.6617 6.6001 19.0667V19.8C6.6001 20.205 6.92842 20.5334 7.33343 20.5334H8.06676C8.47177 20.5334 8.80009 20.205 8.80009 19.8V19.0667C8.80009 18.6617 8.47177 18.3334 8.06676 18.3334ZM7.33343 19.8V19.0667H8.06676V19.8H7.33343Z" fill="#46A6E4" stroke="#46A6E4" stroke-width="0.3"/>
<path d="M11 18.3334H10.2667C9.86165 18.3334 9.53333 18.6617 9.53333 19.0667V19.8C9.53333 20.205 9.86165 20.5334 10.2667 20.5334H11C11.405 20.5334 11.7333 20.205 11.7333 19.8V19.0667C11.7333 18.6617 11.405 18.3334 11 18.3334ZM10.2667 19.8V19.0667H11V19.8H10.2667Z" fill="#46A6E4" stroke="#46A6E4" stroke-width="0.3"/>
<path d="M13.9333 18.3334H13.2C12.795 18.3334 12.4667 18.6617 12.4667 19.0667V19.8C12.4667 20.205 12.795 20.5334 13.2 20.5334H13.9333C14.3383 20.5334 14.6667 20.205 14.6667 19.8V19.0667C14.6667 18.6617 14.3383 18.3334 13.9333 18.3334ZM13.2 19.8V19.0667H13.9333V19.8H13.2Z" fill="#46A6E4" stroke="#46A6E4" stroke-width="0.3"/>
<path d="M8.06674 11.0001H10.2667C10.4692 11.0001 10.6334 10.8359 10.6334 10.6334C10.6334 10.4309 10.4692 10.2667 10.2667 10.2667H8.06674C7.86424 10.2667 7.70007 10.4309 7.70007 10.6334C7.70007 10.8359 7.86424 11.0001 8.06674 11.0001Z" fill="#46A6E4" stroke="#46A6E4" stroke-width="0.3"/>
<path d="M9.90002 11.7332C9.90002 11.5307 9.73586 11.3666 9.53335 11.3666H8.80002C8.59751 11.3666 8.43335 11.5307 8.43335 11.7332C8.43335 11.9357 8.59751 12.0999 8.80002 12.0999H9.53335C9.73586 12.0999 9.90002 11.9357 9.90002 11.7332Z" fill="#46A6E4" stroke="#46A6E4" stroke-width="0.3"/>
<path d="M20.5531 -8.61927e-05H20.5135C19.9147 -0.00487924 19.4225 0.471167 19.4073 1.06985L19.1462 10.6333H18.3333C18.3321 9.62123 17.512 8.80113 16.5 8.79992H1.83333C0.821314 8.80113 0.00121224 9.62123 0 10.6333V20.1666C0.00121224 21.1786 0.821314 21.9987 1.83333 21.9999H16.5C17.512 21.9987 18.3321 21.1786 18.3333 20.1666V13.5666H19.0667C19.0667 13.7614 19.1442 13.9482 19.2821 14.0858C19.42 14.2234 19.607 14.3004 19.8018 14.2999H21.2619C21.4607 14.3013 21.6515 14.2219 21.7907 14.0799C21.9298 13.9379 22.0054 13.7455 22 13.5468L21.6594 1.07021C21.6444 0.47139 21.1521 -0.00487531 20.5531 -8.61927e-05ZM17.6 20.1666C17.6 20.7741 17.1075 21.2666 16.5 21.2666H1.83333C1.22582 21.2666 0.733333 20.7741 0.733333 20.1666V10.6333C0.733333 10.0257 1.22582 9.53325 1.83333 9.53325H16.5C17.1075 9.53325 17.6 10.0257 17.6 10.6333V20.1666ZM18.3333 11.3666H19.1261L19.0861 12.8333H18.3333V11.3666ZM19.8 13.5666L20.1406 1.09001C20.146 0.88894 20.3124 0.729755 20.5135 0.733247H20.5531C20.7543 0.729755 20.9206 0.88894 20.926 1.09001L21.2634 13.5666H19.8Z" fill="#46A6E4" stroke="#46A6E4" stroke-width="0.3"/>
<path d="M3.95413 4.46257C5.20445 2.88064 7.10995 1.95789 9.12633 1.95789C11.1427 1.95789 13.0482 2.88064 14.2985 4.46257C14.4258 4.61603 14.6523 4.63971 14.8085 4.51588C14.9648 4.39206 14.9934 4.16609 14.8731 4.00717C13.4837 2.24971 11.3665 1.22461 9.12615 1.22461C6.8858 1.22461 4.76861 2.24971 3.3792 4.00717C3.25344 4.16593 3.2802 4.39658 3.43896 4.52234C3.59773 4.64809 3.82837 4.62133 3.95413 4.46257Z" fill="#46A6E4" stroke="#46A6E4" stroke-width="0.3"/>
<path d="M12.5767 5.82704C12.6579 5.93039 12.7883 5.98235 12.9183 5.96323C13.0484 5.94411 13.1582 5.85684 13.2063 5.73448C13.2543 5.61212 13.2332 5.47341 13.1509 5.37091C12.1772 4.14205 10.6953 3.42554 9.12747 3.42554C7.55961 3.42554 6.07772 4.14205 5.10403 5.37091C4.97936 5.52954 5.00627 5.75909 5.16425 5.88459C5.32223 6.01008 5.55192 5.98437 5.67823 5.82704C6.5128 4.7733 7.78327 4.15885 9.12747 4.15885C10.4717 4.15885 11.7421 4.7733 12.5767 5.82704Z" fill="#46A6E4" stroke="#46A6E4" stroke-width="0.3"/>
<path d="M9.1264 5.62454C8.22908 5.62102 7.38065 6.03298 6.8285 6.74031C6.70355 6.89998 6.73171 7.13071 6.89138 7.25566C7.05106 7.3806 7.28179 7.35245 7.40673 7.19277C7.82216 6.6656 8.45631 6.35793 9.1275 6.35793C9.79869 6.35793 10.4328 6.6656 10.8483 7.19277C10.9291 7.29587 11.0588 7.34801 11.1885 7.32956C11.3182 7.31111 11.4282 7.22487 11.477 7.10333C11.5259 6.98179 11.5062 6.8434 11.4254 6.74031C10.873 6.03267 10.0241 5.62068 9.1264 5.62454Z" fill="#46A6E4" stroke="#46A6E4" stroke-width="0.3"/>
</svg>
