<svg width="30" height="28" viewBox="0 0 30 28" fill="none" xmlns="http://www.w3.org/2000/svg">
<path d="M28.807 9.95219V2.66005C28.807 1.49264 27.8572 0.542847 26.6898 0.542847H2.1172C0.949725 0.542847 0 1.49264 0 2.66005V17.5152C0 18.6826 0.94979 19.6324 2.1172 19.6324H9.08121L8.28402 20.4904H7.08967C6.81817 20.4904 6.59806 20.7105 6.59806 20.982C6.59806 21.2535 6.81817 21.4736 7.08967 21.4736H13.9303V26.215C13.9303 26.8999 14.4875 27.4572 15.1725 27.4572H20.4575C21.1424 27.4572 21.6997 26.9 21.6997 26.215V25.2164H28.3161C29.2446 25.2164 30 24.4607 30 23.5318V11.5634C30 10.8055 29.497 10.1631 28.807 9.95219ZM29.0168 11.5634V11.6977H17.7104V11.5634C17.7104 11.1767 18.025 10.8621 18.4118 10.8621H28.3161C28.7025 10.8621 29.0168 11.1768 29.0168 11.5634ZM20.4575 15.7168H17.7104V12.681H29.0168V22.4142H21.6997V16.9589C21.6997 16.274 21.1424 15.7168 20.4575 15.7168ZM20.7164 17.6052H14.9136V16.959C14.9136 16.8162 15.0298 16.7 15.1726 16.7H20.4575C20.6003 16.7 20.7165 16.8162 20.7165 16.959V17.6052H20.7164ZM27.8237 3.15166V9.87885H18.4117C17.4828 9.87885 16.7271 10.6346 16.7271 11.5634V15.7168H15.1725C14.4881 15.7168 13.9312 16.2732 13.9304 16.9574H0.983154V3.15166H27.8237ZM14.9135 18.5884H20.7163V24.5857H14.9135V18.5884ZM2.11713 1.52607H26.6898C27.1388 1.52607 27.5265 1.78905 27.71 2.16844H1.09681C1.28041 1.78905 1.66813 1.52607 2.11713 1.52607ZM1.06673 17.9407H13.9303V18.6492H2.11713C1.64237 18.6492 1.23538 18.3556 1.06673 17.9407ZM9.62611 20.4904L10.4233 19.6324H13.9303V20.4904H9.62611ZM20.4574 26.474H15.1725C15.0297 26.474 14.9135 26.3579 14.9135 26.215V25.5689H20.7163V26.215C20.7164 26.3578 20.6002 26.474 20.4574 26.474ZM28.316 24.2333H21.6996V23.3975H29.0167V23.5319C29.0167 23.9186 28.7024 24.2333 28.316 24.2333Z" fill="#46A6E4" stroke="#46A6E4" stroke-width="0.3"/>
</svg>
