<svg width="30" height="30" viewBox="0 0 30 30" fill="none" xmlns="http://www.w3.org/2000/svg">
<path d="M14.9838 1C14.4819 1 13.9803 1.02698 13.4812 1.08078C13.0238 1.1275 12.572 1.20413 12.1262 1.29711C12.0399 1.31516 11.9536 1.3342 11.8674 1.35411C9.24102 1.95207 6.84288 3.29488 4.96052 5.22152C4.78548 5.40094 4.61412 5.58568 4.44655 5.77567C-0.638256 11.6132 -0.0280323 20.4675 5.80957 25.5524C11.3983 30.4204 19.8108 30.0965 25.0087 24.8132C25.1841 24.6337 25.3554 24.449 25.5226 24.259C27.7666 21.7035 29.0033 18.4183 29.0013 15.0173C29.0013 7.27571 22.7255 0.999942 14.9838 1ZM5.58336 5.92239C5.65719 5.84576 5.73382 5.7724 5.80904 5.69811C5.89595 5.6126 5.98239 5.52663 6.07117 5.44392C6.1492 5.37103 6.22956 5.30095 6.30946 5.22993C6.39964 5.15003 6.48935 5.07013 6.58187 4.99303C6.66317 4.92435 6.7468 4.85846 6.82997 4.79212C6.92342 4.71736 7.01687 4.6426 7.11313 4.57064C7.19816 4.50663 7.28461 4.44448 7.37151 4.38374C7.46823 4.31459 7.56542 4.24357 7.66401 4.17909C7.75232 4.11928 7.84156 4.06134 7.93127 4.00387C8.03126 3.93986 8.13172 3.87678 8.23312 3.81697C8.3244 3.76248 8.41628 3.70886 8.50879 3.65624C8.61223 3.59737 8.71607 3.53989 8.82044 3.48383C8.91389 3.43401 9.00734 3.38524 9.10079 3.33758C9.20732 3.28384 9.31479 3.23198 9.42272 3.18105C9.51617 3.13666 9.61336 3.09227 9.70961 3.05022C9.81942 3.0035 9.93062 2.95677 10.0418 2.91005C10.1385 2.87033 10.2348 2.83155 10.3325 2.79417C10.4455 2.75118 10.56 2.711 10.6745 2.67082C10.7721 2.63671 10.8698 2.6026 10.9688 2.57036C11.0852 2.53298 11.2025 2.4984 11.3202 2.46429C11.4188 2.43579 11.5165 2.40635 11.6155 2.37972C11.6534 2.36991 11.6912 2.36197 11.7291 2.35215C10.346 3.69508 9.31964 5.36175 8.74288 7.20124C7.63387 6.90874 6.56026 6.49558 5.54131 5.96911C5.55673 5.95276 5.56981 5.9364 5.58336 5.92239ZM4.91146 6.67465C6.03385 7.28277 7.22404 7.75645 8.45739 8.08574C7.85278 10.1881 7.5354 12.3626 7.51402 14.5501H1.91174C2.01354 11.6655 3.06841 8.896 4.91146 6.67465ZM4.91146 23.36C3.06853 21.1386 2.01366 18.3691 1.91174 15.4846H7.51402C7.5354 17.6721 7.85272 19.8466 8.45739 21.9489C7.2241 22.2784 6.0339 22.752 4.91146 23.36ZM11.6127 27.6568C11.5183 27.633 11.4207 27.6022 11.3235 27.5737C11.2053 27.5391 11.0866 27.5045 10.9698 27.4667C10.8712 27.4349 10.774 27.4008 10.6768 27.3667C10.5619 27.327 10.4469 27.2863 10.3334 27.2429C10.2362 27.2059 10.1404 27.1672 10.0442 27.1279C9.93249 27.0812 9.82082 27.0345 9.71008 26.9877C9.61476 26.9457 9.51991 26.9024 9.42553 26.8578C9.31666 26.8064 9.20826 26.7541 9.09846 26.6999C9.00501 26.6532 8.91156 26.6065 8.81811 26.5555C8.71251 26.499 8.60785 26.4411 8.50318 26.3812C8.40973 26.3294 8.32096 26.2761 8.23078 26.2219C8.12799 26.1602 8.02706 26.0967 7.92613 26.0317C7.83736 25.9752 7.74858 25.9177 7.66121 25.8589C7.56168 25.7916 7.46309 25.7215 7.36544 25.6514C7.27993 25.5902 7.19443 25.529 7.11032 25.4645C7.0136 25.3916 6.91875 25.3164 6.82437 25.2407C6.74166 25.1748 6.65943 25.1094 6.5786 25.0417C6.48515 24.9641 6.39497 24.8833 6.30432 24.8029C6.22489 24.7323 6.14499 24.6627 6.06743 24.5908C5.97818 24.5076 5.89174 24.4212 5.80484 24.3356C5.72961 24.2614 5.65298 24.188 5.57916 24.1118C5.56561 24.0973 5.55252 24.0824 5.53897 24.0684C6.55786 23.5417 7.63148 23.1283 8.74054 22.8358C9.31742 24.6752 10.3437 26.3418 11.7267 27.6849C11.6889 27.6751 11.6506 27.6671 11.6127 27.6568ZM14.5166 28.0633C12.5173 27.7793 10.7647 25.6925 9.66195 22.611C11.2562 22.2541 12.8831 22.0625 14.5166 22.0396V28.0633ZM14.5166 21.1051C12.7837 21.1279 11.0581 21.3337 9.36852 21.7191C8.78184 19.692 8.47235 17.5947 8.44852 15.4846H14.5166V21.1051ZM14.5166 14.5501H8.44852C8.47229 12.44 8.78178 10.3427 9.36852 8.31562C11.0581 8.70093 12.7838 8.90675 14.5166 8.92959V14.5501ZM14.5166 7.99509C12.883 7.97231 11.2562 7.7808 9.66195 7.42365C10.7647 4.34216 12.5173 2.25543 14.5166 1.97135V7.99509ZM25.0563 6.67465C26.8993 8.89606 27.9541 11.6655 28.056 14.5501H22.4538C22.4324 12.3626 22.1151 10.1881 21.5104 8.08574C22.7437 7.75627 23.9339 7.28266 25.0563 6.67465ZM18.3513 2.37738C18.4495 2.40168 18.5471 2.43252 18.6443 2.46102C18.7625 2.4956 18.8812 2.53017 18.998 2.56802C19.0966 2.59979 19.1938 2.6339 19.291 2.66801C19.4059 2.70773 19.5209 2.74838 19.6344 2.79183C19.7316 2.82875 19.8274 2.86753 19.9236 2.90678C20.0353 2.9535 20.147 3.00022 20.2577 3.04695C20.353 3.089 20.4479 3.13228 20.5423 3.17684C20.6511 3.22824 20.7595 3.28057 20.8693 3.33477C20.9628 3.3815 21.0562 3.42822 21.1497 3.47915C21.2553 3.53569 21.3599 3.59363 21.4646 3.65344C21.558 3.7053 21.6468 3.75857 21.737 3.81277C21.8398 3.87444 21.9407 3.93799 22.0416 4.00294C22.1304 4.05947 22.2192 4.11694 22.3066 4.17582C22.4061 4.2431 22.5042 4.31272 22.6019 4.38281C22.6878 4.44402 22.7734 4.50569 22.8579 4.56971C22.9542 4.64213 23.0486 4.71736 23.1434 4.79305C23.2256 4.85846 23.3083 4.92388 23.3892 4.9921C23.4826 5.06966 23.5728 5.15049 23.6635 5.23086C23.7429 5.30141 23.8228 5.37103 23.9004 5.44299C23.9896 5.52616 24.076 5.6126 24.1629 5.69811C24.2382 5.7724 24.3148 5.84576 24.3886 5.92192C24.4022 5.9364 24.4153 5.95135 24.4288 5.96537C23.4099 6.49208 22.3363 6.90541 21.2272 7.19797C20.6493 5.3583 19.6216 3.69181 18.2373 2.34935C18.2752 2.35916 18.3135 2.36711 18.3513 2.37738ZM15.4511 1.97135C17.4505 2.25543 19.2031 4.34216 20.3058 7.42365C18.7116 7.78063 17.0847 7.97214 15.4511 7.99509V1.97135ZM15.4511 8.92959C17.184 8.90681 18.9096 8.70098 20.5993 8.31562C21.1859 10.3427 21.4954 12.44 21.5193 14.5501H15.4511V8.92959ZM15.4511 15.4846H21.5193C21.4955 17.5947 21.186 19.692 20.5993 21.7191C18.9096 21.3338 17.184 21.1279 15.4511 21.1051V15.4846ZM15.4511 28.0633V22.0396C17.0847 22.0624 18.7116 22.2539 20.3058 22.611C19.2031 25.6925 17.4505 27.7793 15.4511 28.0633ZM24.3844 24.1123C24.3106 24.1885 24.2344 24.2618 24.1592 24.3361C24.0723 24.4216 23.9854 24.5081 23.8961 24.5912C23.8186 24.6637 23.7387 24.7314 23.6593 24.8038C23.5686 24.8842 23.4784 24.9646 23.3859 25.0421C23.3041 25.1103 23.221 25.1762 23.1378 25.2426C23.0444 25.3173 22.9509 25.3921 22.8547 25.464C22.7696 25.5281 22.6832 25.5902 22.5963 25.6509C22.4995 25.7201 22.4024 25.7911 22.3038 25.8556C22.2155 25.9154 22.1262 25.9733 22.0365 26.0303C21.9365 26.0948 21.8358 26.1571 21.7342 26.2172C21.6407 26.2719 21.5515 26.3252 21.4595 26.378C21.356 26.4369 21.252 26.4943 21.1473 26.5504C21.0539 26.6002 20.9604 26.649 20.867 26.6966C20.7605 26.7504 20.653 26.8022 20.5451 26.8532C20.4516 26.8976 20.3544 26.9419 20.2582 26.984C20.1484 27.0307 20.0372 27.0774 19.926 27.1242C19.8292 27.1634 19.733 27.2027 19.6358 27.2396C19.5218 27.283 19.4073 27.3237 19.2924 27.3634C19.1952 27.3975 19.098 27.4316 18.9994 27.4634C18.8826 27.5012 18.7658 27.5358 18.6466 27.5699C18.549 27.5989 18.4509 27.6279 18.3523 27.6545C18.3144 27.6643 18.2766 27.6723 18.2387 27.6821C19.6218 26.3391 20.6481 24.6725 21.2249 22.833C22.3339 23.1255 23.4075 23.5386 24.4265 24.0651C24.4111 24.0819 24.398 24.0983 24.3844 24.1123ZM25.0563 23.36C23.9339 22.7519 22.7437 22.2782 21.5104 21.9489C22.115 19.8466 22.4324 17.6721 22.4538 15.4846H28.056C27.9543 18.3691 26.8994 21.1387 25.0563 23.36Z" fill="#46A6E4" stroke="#46A6E4" stroke-width="0.5"/>
</svg>
