<svg width="30" height="30" viewBox="0 0 30 30" fill="none" xmlns="http://www.w3.org/2000/svg">
<path d="M15.0001 0C6.7291 0 0 6.72899 0 15C0 23.271 6.72899 30 15 30C23.271 30 29.9999 23.271 29.9999 15C29.9999 6.72899 23.2711 0 15.0001 0ZM15.0001 28.3045C7.6639 28.3045 1.69553 22.3362 1.69553 15C1.69553 7.66379 7.6639 1.69553 15.0001 1.69553C22.3361 1.69553 28.3045 7.6639 28.3045 15C28.3045 22.3361 22.3361 28.3045 15.0001 28.3045Z" fill="#46A6E4"/>
<path d="M18.283 13.9815L9.45728 8.20211C9.24014 8.05991 9.00141 7.98474 8.76698 7.98474C8.14291 7.98474 7.67212 8.49295 7.67212 9.16686V20.8329C7.67212 21.5067 8.14268 22.0149 8.76687 22.015H8.76698C9.00141 22.015 9.24026 21.9398 9.45717 21.7978L18.2831 16.0192C18.6506 15.7784 18.8614 15.4071 18.8614 15.0003C18.8614 14.5936 18.6506 14.2223 18.283 13.9815ZM9.36765 19.8298V10.1703L16.7439 15.0004L9.36765 19.8298Z" fill="#46A6E4"/>
<path d="M20.8456 7.75415C20.3774 7.75415 19.9978 8.13372 19.9978 8.60191V21.3983C19.9978 21.8665 20.3774 22.2461 20.8456 22.2461C21.3139 22.2461 21.6933 21.8665 21.6933 21.3983V8.60191C21.6933 8.13361 21.3139 7.75415 20.8456 7.75415Z" fill="#46A6E4"/>
</svg>
