<svg width="22" height="24" viewBox="0 0 22 24" fill="none" xmlns="http://www.w3.org/2000/svg">
<path d="M11.0018 12.4626C14.4304 12.4626 17.2331 9.6599 17.2331 6.2313C17.2331 2.80271 14.4304 0 11.0018 0C7.57316 0 4.77051 2.80271 4.77051 6.2313C4.77051 9.6599 7.57322 12.4626 11.0018 12.4626Z" fill="#FF7A5F"/>
<path d="M21.6958 17.442C21.5325 17.0339 21.3149 16.6529 21.07 16.2992C19.8182 14.4488 17.8863 13.2243 15.7094 12.925C15.4374 12.8978 15.138 12.9522 14.9203 13.1155C13.7775 13.959 12.4169 14.3944 11.0019 14.3944C9.58693 14.3944 8.22641 13.959 7.08355 13.1155C6.86584 12.9522 6.56651 12.8706 6.29443 12.925C4.11755 13.2243 2.15839 14.4488 0.933908 16.2992C0.689012 16.6529 0.471303 17.0611 0.308074 17.442C0.22646 17.6053 0.253647 17.7958 0.335262 17.9591C0.55297 18.34 0.825054 18.721 1.06995 19.0475C1.45089 19.5645 1.85906 20.0271 2.32167 20.4625C2.70261 20.8434 3.13797 21.1971 3.57339 21.5509C5.72302 23.1564 8.30808 23.9998 10.9747 23.9998C13.6414 23.9998 16.2265 23.1563 18.3761 21.5509C18.8115 21.2244 19.2468 20.8434 19.6278 20.4625C20.0632 20.0271 20.4986 19.5645 20.8795 19.0475C21.1516 18.6938 21.3966 18.34 21.6142 17.9591C21.7502 17.7958 21.7774 17.6053 21.6958 17.442Z" fill="#FF7A5F"/>
</svg>
