<svg width="11" height="20" viewBox="0 0 11 20" fill="none" xmlns="http://www.w3.org/2000/svg">
<path d="M10.6748 0.328484C10.5726 0.224399 10.451 0.141782 10.3171 0.0854031C10.1831 0.0290245 10.0394 -1.24725e-06 9.89426 -1.23457e-06C9.74913 -1.22188e-06 9.60544 0.0290245 9.47147 0.0854032C9.33751 0.141782 9.21592 0.224399 9.11372 0.328484L0.318835 9.21249C0.216945 9.31626 0.136333 9.43932 0.0816236 9.57462C0.0269144 9.70992 -0.000816508 9.8548 2.00002e-05 10.0009C-0.000816483 10.1471 0.0269144 10.292 0.0816237 10.4273C0.136333 10.5626 0.216945 10.6856 0.318836 10.7894L9.11372 19.6734C9.21622 19.777 9.33791 19.8591 9.47184 19.9151C9.60576 19.9712 9.7493 20 9.89427 20C10.0392 20 10.1828 19.9712 10.3167 19.9151C10.4506 19.8591 10.5723 19.777 10.6748 19.6734C10.8818 19.4643 10.9981 19.1807 10.9981 18.885C10.9981 18.5892 10.8818 18.3056 10.6748 18.0965L2.64948 9.98984L10.6748 1.90539C10.7779 1.80216 10.8596 1.67934 10.9154 1.54401C10.9713 1.40869 11 1.26354 11 1.11694C11 0.970339 10.9713 0.825191 10.9154 0.689866C10.8596 0.554541 10.7779 0.43172 10.6748 0.328484V0.328484Z" fill="#FF7A5F"/>
</svg>
