<svg width="30" height="30" viewBox="0 0 30 30" fill="none" xmlns="http://www.w3.org/2000/svg">
<path d="M2.0002 9.87302C3.60379 7.79254 5.76818 6.77635 8.61718 6.76645C8.63154 6.76645 8.64548 6.76639 8.65984 6.76639C11.1924 6.76639 14.0606 7.54779 16.8223 8.43584C17.2734 7.64072 17.9901 7.16658 18.7876 7.16658C20.2606 7.16658 21.4058 8.20228 21.6116 9.64234C25.2631 10.8656 28.1888 12.1626 28.6042 12.349C29.3559 12.5667 30.0712 13.6019 29.9943 14.3921C29.8272 16.1179 29.371 17.3906 28.5997 18.2831C27.7434 19.2729 26.523 19.7949 24.8692 19.8784L23.6242 20.0032C24.2489 20.6206 24.6367 21.477 24.6367 22.4226C24.6367 22.7651 24.3589 23.0428 24.0165 23.0428H21.0417H19.0498C18.0458 23.0428 17.2292 22.2261 17.2292 21.2221V20.2589H14.761C15.3482 20.8709 15.7104 21.7004 15.7104 22.6134C15.7104 22.956 15.4326 23.2337 15.0901 23.2337H5.79168C4.18023 23.2337 2.65979 22.3096 1.6204 20.6985C0.933447 19.6345 0.0959663 17.9217 0.00778389 15.8047C-0.0800476 13.698 0.590322 11.7023 2.0002 9.87302ZM2.6626 20.0258C3.13663 20.7605 4.17338 21.9931 5.79156 21.9931H14.3792C14.1119 21.1013 13.2833 20.4496 12.3054 20.4496H10.0884C10.0421 20.4496 9.99718 20.4442 9.95376 20.4346C9.64157 20.4022 9.39812 20.1385 9.39812 19.8178C9.39812 19.4752 9.67585 19.1976 10.0183 19.1976C10.0357 19.1975 10.0533 19.1976 10.0707 19.1971C10.0727 19.1971 10.0748 19.1971 10.0769 19.197C10.3807 19.1915 10.6795 19.1412 10.9662 19.0474C11.4208 18.8998 11.8409 18.6419 12.1812 18.3017C12.7589 17.7239 13.0772 16.9555 13.0772 16.1381C13.0772 14.1269 11.814 12.2968 9.9339 11.5843C9.61362 11.4628 9.45226 11.1048 9.57372 10.7845C9.69513 10.4642 10.0533 10.3029 10.3735 10.4243C11.5208 10.8592 12.5015 11.6215 13.2098 12.6291C13.9346 13.6602 14.3176 14.8736 14.3176 16.1381C14.3176 17.2129 13.9261 18.2272 13.2107 19.0185H17.2292V17.9098V17.2419C17.2292 16.8994 17.5069 16.6217 17.8494 16.6217C18.1919 16.6217 18.4696 16.8994 18.4696 17.2419V17.9098V19.6388V21.2223C18.4696 21.5422 18.7299 21.8025 19.0498 21.8025H21.0417H23.3056C23.0382 20.9107 22.2097 20.259 21.2318 20.259H21.0421C21.0418 20.259 21.0413 20.2591 21.041 20.2591C21.0202 20.2591 20.9997 20.2579 20.9794 20.2559C20.9757 20.2555 20.9722 20.2548 20.9686 20.2543C20.9524 20.2524 20.9361 20.2501 20.9202 20.247C20.9134 20.2456 20.9067 20.2437 20.9 20.2421C20.8877 20.2392 20.8754 20.2363 20.8633 20.2327C20.8551 20.2303 20.8473 20.2273 20.8392 20.2245C20.8289 20.221 20.8185 20.2174 20.8084 20.2132C20.7999 20.2098 20.7916 20.2059 20.7833 20.202C20.774 20.1978 20.7649 20.1935 20.7558 20.1888C20.7474 20.1845 20.7394 20.1798 20.7312 20.1751C20.7226 20.1701 20.7141 20.165 20.7057 20.1595C20.698 20.1545 20.6903 20.1493 20.6827 20.1439C20.6744 20.138 20.6662 20.1319 20.6582 20.1256C20.6512 20.1201 20.6443 20.1144 20.6376 20.1087C20.6295 20.1017 20.6217 20.0946 20.614 20.0872C20.6078 20.0814 20.6019 20.0755 20.5959 20.0694C20.5882 20.0613 20.5808 20.0531 20.5734 20.0446C20.5681 20.0386 20.5629 20.0326 20.5579 20.0264C20.5506 20.0173 20.5437 20.0079 20.5369 19.9984C20.5325 19.9921 20.5279 19.9859 20.5236 19.9795C20.5171 19.9696 20.5111 19.9594 20.5052 19.9491C20.5013 19.9425 20.4973 19.936 20.4937 19.9291C20.4883 19.9188 20.4833 19.9081 20.4785 19.8975C20.4752 19.8901 20.4716 19.8829 20.4685 19.8755C20.4643 19.8653 20.4608 19.8547 20.4571 19.8443C20.4541 19.8359 20.4509 19.8277 20.4483 19.8192C20.4454 19.8094 20.4432 19.7994 20.4407 19.7894C20.4383 19.7799 20.4356 19.7704 20.4336 19.7608C20.4316 19.7505 20.4304 19.74 20.4288 19.7295C20.4274 19.7199 20.4256 19.7104 20.4246 19.7007C20.4246 19.7006 20.4245 19.7005 20.4245 19.7003C20.4234 19.689 20.4234 19.678 20.4228 19.6668C20.4224 19.6573 20.4214 19.648 20.4214 19.6385C20.4214 19.6384 20.4214 19.6383 20.4214 19.6382C20.4213 19.5747 20.431 19.513 20.4491 19.4547C20.4527 19.4431 20.4573 19.4319 20.4615 19.4206C20.4643 19.4132 20.4666 19.4056 20.4697 19.3982C20.4755 19.3845 20.4822 19.3712 20.489 19.358C20.4912 19.3535 20.4932 19.3487 20.4956 19.3443C20.5024 19.3316 20.5101 19.3196 20.5177 19.3075C20.5208 19.3027 20.5233 19.2977 20.5265 19.293C20.5335 19.2826 20.5412 19.2728 20.5488 19.263C20.5533 19.257 20.5575 19.2508 20.5623 19.245C20.5687 19.2372 20.5758 19.23 20.5825 19.2225C20.5892 19.2152 20.5955 19.2076 20.6025 19.2006C20.6078 19.1952 20.6138 19.1903 20.6193 19.1851C20.6284 19.1767 20.6372 19.1681 20.6467 19.1603C20.651 19.1568 20.6557 19.1537 20.6601 19.1503C20.6714 19.1414 20.6827 19.1325 20.6947 19.1244C20.6988 19.1216 20.7032 19.1193 20.7075 19.1166C20.72 19.1086 20.7326 19.1005 20.7458 19.0933C20.7527 19.0895 20.76 19.0865 20.7671 19.083C20.7779 19.0776 20.7886 19.072 20.7999 19.0672C20.856 19.0435 20.9164 19.0277 20.9796 19.0214C20.9797 19.0214 20.9799 19.0214 20.9799 19.0214L24.7612 18.6424C24.7717 18.6414 24.7823 18.6406 24.7929 18.6401C26.0979 18.5765 27.0363 18.1943 27.6615 17.4717C28.259 16.7804 28.6183 15.7339 28.7599 14.2723C28.7743 14.0805 28.4465 13.5959 28.2689 13.5427C28.2247 13.5333 28.1818 13.5191 28.1408 13.5004C28.1089 13.486 24.9349 12.0461 20.9392 10.7259C20.6373 10.6841 20.4045 10.4257 20.4045 10.1122C20.4045 9.12408 19.7246 8.40701 18.7879 8.40701C18.3664 8.40701 17.9551 8.79818 17.7397 9.40457C17.6408 9.68171 17.5885 9.99519 17.5885 10.3114C17.5885 11.344 18.1377 12.2163 18.7879 12.2163C19.1304 12.2163 19.4081 12.494 19.4081 12.8365C19.4081 13.1791 19.1304 13.4567 18.7879 13.4567C17.4198 13.4567 16.348 12.0751 16.348 10.3113C16.348 10.0707 16.3688 9.835 16.4091 9.60584C13.7554 8.75342 11.0162 8.00681 8.66042 8.00681C8.64765 8.00681 8.6347 8.00682 8.62187 8.00687C6.14769 8.01549 4.35596 8.8491 2.98317 10.6302C-0.153759 14.7 1.71391 18.5565 2.6626 20.0258Z" fill="#535353"/>
<path d="M23.2343 13.39C23.5768 13.39 23.8545 13.6677 23.8545 14.0103V14.9252C23.8545 15.2677 23.5768 15.5454 23.2343 15.5454C22.8918 15.5454 22.6141 15.2677 22.6141 14.9252V14.0103C22.6141 13.6677 22.8918 13.39 23.2343 13.39Z" fill="#535353"/>
<path d="M8.20851 10.0295C8.27953 10.0295 8.35019 10.0307 8.42062 10.0332C8.76299 10.0449 9.03093 10.332 9.01916 10.6744C9.00761 11.0095 8.73234 11.2732 8.39965 11.2732C8.3925 11.2732 8.38517 11.2731 8.37797 11.2729C8.32172 11.271 8.26523 11.27 8.20851 11.27C7.86604 11.27 7.5883 10.9923 7.5883 10.6498C7.5883 10.3072 7.86604 10.0295 8.20851 10.0295Z" fill="#535353"/>
</svg>
