<svg width="61" height="60" viewBox="0 0 61 60" fill="none" xmlns="http://www.w3.org/2000/svg">
<g clip-path="url(#clip0_962_5331)">
<path d="M29.5706 9.46884H29.5811L48.3252 4.44134C49.4306 4.1502 50.5631 4.80662 50.8597 5.91027L53.5289 15.8824L54.7392 20.4032V20.4137L60.4286 41.6201C60.7248 42.7224 60.072 43.8567 58.9698 44.1542L47.5598 47.206L29.5706 9.46884Z" fill="#F3D55B"/>
<path d="M12.1708 5.51746C12.6574 5.19108 13.2617 5.09267 13.8261 5.2483L53.7976 15.9552C54.8998 16.2527 55.5526 17.387 55.2564 18.4893L44.5496 58.4608C44.252 59.563 43.1177 60.2158 42.015 59.9196L2.04349 49.2128C0.941224 48.9152 0.288467 47.7809 0.585092 46.6782L9.19177 14.548L12.1708 5.51746Z" fill="#F9EAB0"/>
<path d="M47.2847 23.2789C47.1941 23.2793 47.1044 23.2674 47.017 23.2441L32.3025 19.3056C31.7509 19.1577 31.4231 18.5905 31.5714 18.0385C31.7193 17.4864 32.2864 17.1591 32.8385 17.307L47.5525 21.2505C48.0542 21.3847 48.3783 21.8699 48.311 22.3844C48.2433 22.8989 47.8047 23.2839 47.2857 23.2844L47.2847 23.2789Z" fill="#802F34"/>
<path d="M45.677 29.279C45.5869 29.279 45.4967 29.2671 45.4092 29.2438L35.4059 26.5673C35.0475 26.4735 34.7665 26.1947 34.6699 25.8367C34.5733 25.4788 34.6758 25.0965 34.9381 24.8347C35.2004 24.5729 35.5831 24.4712 35.9406 24.5687L45.9439 27.2452C46.4456 27.3794 46.7697 27.8641 46.7024 28.3791C46.6347 28.8936 46.1961 29.2786 45.677 29.279Z" fill="#802F34"/>
<path d="M44.075 35.2789C43.9839 35.2789 43.8937 35.267 43.8058 35.2436L31.3613 31.9034C30.8093 31.7551 30.4824 31.1875 30.6303 30.6354C30.7786 30.0838 31.3462 29.7565 31.8983 29.9048L44.3428 33.2451C44.8444 33.3792 45.1685 33.8644 45.1008 34.3794C45.033 34.8944 44.5941 35.2789 44.075 35.2789Z" fill="#802F34"/>
<path d="M13.4888 33.5056C13.3982 33.5061 13.3075 33.4942 13.2201 33.4708L10.2199 32.667C9.6683 32.5187 9.341 31.9511 9.48932 31.399C9.63718 30.8474 10.2048 30.5201 10.7569 30.6684L13.7571 31.4718C14.2583 31.6064 14.5829 32.0916 14.5151 32.6066C14.4474 33.1211 14.0084 33.5061 13.4888 33.5056Z" fill="#802F34"/>
<path d="M42.4651 41.2695C42.3749 41.2695 42.2847 41.2576 42.1973 41.2342L19.2157 35.0719C18.6637 34.9241 18.3364 34.3565 18.4842 33.8044C18.6321 33.2528 19.1997 32.9251 19.7518 33.0734L42.7333 39.2302C43.2345 39.3648 43.5591 39.8495 43.4913 40.3645C43.4236 40.879 42.9855 41.264 42.4664 41.264L42.4651 41.2695Z" fill="#802F34"/>
<path d="M11.8817 39.5003C11.791 39.5007 11.7009 39.4888 11.6134 39.465L8.6137 38.6626C8.06164 38.5147 7.73434 37.9471 7.88219 37.395C8.03005 36.8434 8.59768 36.5157 9.14928 36.664L12.1495 37.4664C12.6512 37.601 12.9753 38.0862 12.9075 38.6012C12.8398 39.1158 12.4008 39.5007 11.8817 39.5003Z" fill="#802F34"/>
<path d="M40.8597 47.2651C40.7691 47.2651 40.6793 47.2532 40.5919 47.2298L17.609 41.0717C17.252 40.976 16.9732 40.6972 16.8775 40.3402C16.7823 39.9831 16.8844 39.6018 17.1458 39.3409C17.4072 39.0795 17.788 38.9774 18.1451 39.0731L41.1266 45.2313C41.6278 45.3654 41.9524 45.8506 41.8846 46.3651C41.8173 46.8796 41.3788 47.2646 40.8597 47.2651Z" fill="#802F34"/>
<path d="M30.4705 31.2859L23.6537 29.0099L29.5088 23.1548L31.7843 29.9721C31.9065 30.3447 31.8081 30.7549 31.5307 31.0323C31.2533 31.3097 30.8436 31.4076 30.4705 31.2859Z" fill="#BDC3C7"/>
<path d="M10.4951 4.14149L4.63993 9.99661L1.71259 7.06882C0.0958034 5.45204 0.0958034 2.83094 1.71259 1.21415C3.32938 -0.40309 5.95093 -0.40309 7.56772 1.21415L10.4951 4.14149Z" fill="#FF7A5F"/>
<path d="M29.5088 23.1548L27.3157 25.3479V25.3584L25.8568 26.8168H25.8468L23.6537 29.0099L7.56775 12.924L9.77092 10.7309L11.2298 9.27247L13.4229 7.06885L29.5088 23.1548Z" fill="#FF7A5F"/>
<path d="M4.64087 9.99661L10.4955 4.14148L13.4229 7.06927L7.5682 12.9239L4.64087 9.99661Z" fill="#BDC3C7"/>
<path d="M14.8812 14.3828C14.6844 14.5742 14.4212 14.6817 14.147 14.6826C13.8755 14.6813 13.6155 14.5737 13.4228 14.3828L9.77087 10.7309L11.2297 9.27246L14.8812 12.924C15.2822 13.3277 15.2822 13.9791 14.8812 14.3828Z" fill="#C03A2B"/>
<path d="M27.3157 25.3479V25.3584L25.8568 26.8168H25.8468L16.3401 17.3102C16.0774 17.0479 15.9748 16.6652 16.071 16.3068C16.1671 15.9484 16.4472 15.6682 16.8057 15.5726C17.1641 15.4764 17.5463 15.579 17.8091 15.8413L27.3157 25.3479Z" fill="#C03A2B"/>
</g>
<defs>
<clipPath id="clip0_962_5331">
<rect width="60" height="60" fill="white" transform="translate(0.5)"/>
</clipPath>
</defs>
</svg>
