<svg width="61" height="60" viewBox="0 0 61 60" fill="none" xmlns="http://www.w3.org/2000/svg">
<path d="M18.654 14.1274C18.654 14.1274 12.2559 7.23503 6.78711 8.58925C1.31832 9.94347 -1.12738 19.2636 1.66391 21.3995C4.05031 23.2255 7.58586 15.4287 7.58586 15.4287C7.58586 15.4287 7.29278 19.9951 9.71879 20.2067C12.0038 20.4061 13.6646 15.1751 13.6646 15.1751L18.654 14.1274Z" fill="#CCE7F0"/>
<path d="M35.4958 11.0779C35.4958 11.0779 39.0709 2.37962 44.6674 1.73017C50.2639 1.08071 55.8222 8.95173 53.9571 11.9306C52.3624 14.4776 46.3175 8.41548 46.3175 8.41548C46.3175 8.41548 48.1931 12.5892 45.9954 13.6381C43.9253 14.6259 40.5358 10.3093 40.5358 10.3093L35.4958 11.0779Z" fill="#CCE7F0"/>
<path d="M33.831 27.1457C32.6444 27.7419 31.3764 28.1706 30.0624 28.4196C22.2995 29.8905 14.7848 24.7698 13.3107 17.0045C11.858 9.35048 17.0606 1.7047 24.7156 0.253917C32.4002 -1.20261 40.011 3.99888 41.467 11.6687C42.6549 17.9259 39.5147 24.2902 33.831 27.1457Z" fill="#FF7A5F"/>
<path d="M41.467 11.6688C40.7531 7.90848 38.6182 4.65008 35.4558 2.49406C32.3684 0.389142 28.6623 -0.418631 24.9902 0.205392C26.9863 0.548635 28.9032 1.31879 30.6272 2.49395C33.7896 4.64996 35.9245 7.90836 36.6384 11.6687C37.8263 17.9258 34.6861 24.2901 29.0024 27.1456C27.8157 27.7418 26.5477 28.1704 25.2338 28.4195C25.1487 28.4356 25.0636 28.4499 24.9785 28.4645C26.6183 28.7469 28.3341 28.7469 30.0623 28.4195C31.3763 28.1703 32.6443 27.7418 33.831 27.1456C39.5147 24.2902 42.6549 17.9259 41.467 11.6688Z" fill="#FF7A5F"/>
<path d="M31.1904 24.0949C36.5693 21.9999 39.2299 15.9373 37.133 10.5536C35.0361 5.16995 28.9759 2.50394 23.597 4.59892C18.2182 6.6939 15.5576 12.7565 17.6545 18.1402C19.7513 23.5239 25.8116 26.1899 31.1904 24.0949Z" fill="#F9EAB0"/>
<path d="M26.7885 41.2782C26.7885 41.2782 24.493 32.1583 19.0469 30.7158C13.6007 29.2734 6.97455 36.2692 8.39486 39.4842C9.60916 42.2328 16.4584 37.0967 16.4584 37.0967C16.4584 37.0967 14.0057 40.9595 16.0309 42.3117C17.9386 43.5852 21.9101 39.7973 21.9101 39.7973L26.7885 41.2782Z" fill="#CCE7F0"/>
<path d="M43.0216 46.7031C43.0216 46.7031 50.3389 40.7957 55.5581 42.9175C60.7773 45.0393 61.866 54.6134 58.7982 56.3283C56.1753 57.7946 53.7902 49.5726 53.7902 49.5726C53.7902 49.5726 53.4278 54.134 50.9963 53.9967C48.7063 53.8675 47.81 48.4528 47.81 48.4528L43.0216 46.7031Z" fill="#CCE7F0"/>
<path d="M33.8354 59.9907C32.5083 59.9428 31.1904 59.7089 29.9185 59.2954C22.4048 56.8522 18.2784 48.7488 20.72 41.2313C22.6875 35.1741 28.5009 31.1039 34.8573 31.3333C36.1845 31.3813 37.5024 31.6153 38.7744 32.0289C42.4152 33.2127 45.377 35.7444 47.1142 39.1576C48.8502 42.5687 49.1552 46.4523 47.9729 50.0926C46.0056 56.15 40.1919 60.2201 33.8354 59.9907Z" fill="#FF7A5F"/>
<path d="M47.1142 39.1576C45.377 35.7444 42.4152 33.2127 38.7744 32.029C37.5025 31.6154 36.1846 31.3813 34.8573 31.3333C33.8645 31.2975 32.8849 31.3666 31.9313 31.5317C32.6118 31.6488 33.2851 31.814 33.9458 32.029C37.5866 33.2127 40.5484 35.7444 42.2856 39.1576C44.0216 42.5687 44.3267 46.4523 43.1444 50.0926C41.4842 55.204 37.0854 58.9003 31.9328 59.7924C32.5622 59.9006 33.1977 59.9678 33.8355 59.9908C40.1919 60.2203 46.0056 56.1501 47.9731 50.0927C49.1553 46.4523 48.8502 42.5687 47.1142 39.1576Z" fill="#FF7A5F"/>
<path d="M44.7472 47.0262C45.4982 41.296 41.4658 36.0425 35.7407 35.2922C30.0155 34.5419 24.7657 38.579 24.0147 44.3093C23.2638 50.0395 27.2962 55.293 33.0213 56.0433C38.7464 56.7936 43.9963 52.7565 44.7472 47.0262Z" fill="#F9EAB0"/>
<path d="M30.1538 13.0355C31.6185 12.3542 32.2559 10.6083 31.5746 9.14354C30.8932 7.67882 29.1473 7.04148 27.6826 7.72281L24.1407 9.37032C23.6517 9.5978 23.4397 10.1786 23.6672 10.6677L24.9028 13.324L24.0173 13.7359C23.5283 13.9634 23.3163 14.5442 23.5438 15.0332C23.7712 15.5223 24.3521 15.7343 24.8411 15.5068L25.7266 15.0949L26.5504 16.8659L25.6649 17.2778C25.1759 17.5053 24.9638 18.0861 25.1913 18.5751C25.4188 19.0642 25.9996 19.2762 26.4887 19.0487L27.3741 18.6368L27.7859 19.5221C28.0134 20.0112 28.5942 20.2232 29.0832 19.9957C29.5723 19.7682 29.7843 19.1874 29.5568 18.6984L29.145 17.8131L31.8014 16.5774C32.2903 16.35 32.5024 15.7691 32.275 15.2801C32.0475 14.7911 31.4666 14.5791 30.9776 14.8065L28.3213 16.0422L27.4975 14.2712L30.1538 13.0355ZM25.85 10.7294L28.5063 9.49372C28.9946 9.26661 29.5765 9.47905 29.8036 9.96729C30.0308 10.4555 29.8183 11.0375 29.3301 11.2646L26.6737 12.5003L25.85 10.7294Z" fill="#FF7A5F"/>
<path d="M37.3017 46.2234C38.8888 46.5246 40.4251 45.4784 40.7263 43.8913C41.0275 42.3042 39.9813 40.768 38.3942 40.4668L34.5564 39.7385C34.0265 39.6379 33.5155 39.986 33.4149 40.5158L32.8687 43.3942L31.9092 43.2121C31.3793 43.1115 30.8683 43.4596 30.7677 43.9895C30.6672 44.5194 31.0152 45.0304 31.5451 45.131L32.5045 45.313L32.1404 47.232L31.1809 47.0499C30.651 46.9494 30.14 47.2974 30.0394 47.8273C29.9388 48.3572 30.2869 48.8683 30.8168 48.9688L31.7762 49.1509L31.5942 50.1101C31.4936 50.64 31.8416 51.1511 32.3715 51.2517C32.9014 51.3522 33.4125 51.0042 33.5131 50.4743L33.6951 49.515L36.5734 50.0613C37.1032 50.1618 37.6144 49.8138 37.7149 49.2839C37.8155 48.754 37.4674 48.2429 36.9376 48.1424L34.0592 47.5962L34.4234 45.6772L37.3017 46.2234ZM35.1517 41.8394L38.03 42.3857C38.5591 42.4861 38.9078 42.9981 38.8074 43.5272C38.707 44.0562 38.1949 44.4049 37.6659 44.3045L34.7876 43.7583L35.1517 41.8394Z" fill="#FF7A5F"/>
</svg>
