<svg width="40" height="40" viewBox="0 0 40 40" fill="none" xmlns="http://www.w3.org/2000/svg">
<path d="M23.7809 12.33C23.3928 12.1402 22.9252 12.3009 22.7356 12.6885C22.5459 13.0762 22.7065 13.5441 23.0941 13.7338C23.2617 13.8157 23.4247 13.9047 23.5839 13.999L21.5351 17.5476H18.467L16.4182 13.9991C16.5826 13.9018 16.751 13.81 16.9245 13.7258C17.3127 13.5372 17.4744 13.0697 17.2858 12.6815C17.0972 12.2933 16.6295 12.1318 16.2416 12.3202C14.8054 13.018 13.5905 14.0994 12.7281 15.4472C11.8413 16.8332 11.3726 18.4372 11.3726 20.0859V23.449C11.3726 28.2067 15.2432 32.0774 20.0011 32.0774C24.7588 32.0774 28.6295 28.2067 28.6295 23.449V20.0859C28.6295 18.4412 28.1628 16.8404 27.28 15.4567C26.4215 14.1109 25.2114 13.0298 23.7809 12.33ZM27.0667 20.0858V20.986H24.4224L22.8883 18.329L24.84 14.9485C26.2321 16.2682 27.0667 18.1272 27.0667 20.0858ZM21.535 24.4243H18.4669L16.933 21.7673L18.467 19.1103H21.5351L23.0691 21.7673L21.535 24.4243ZM15.1618 14.9482L17.1137 18.329L15.5797 20.986H12.9353V20.0858C12.9353 18.1258 13.7696 16.2675 15.1618 14.9482ZM12.9353 23.4488V22.5486H15.5797L17.1137 25.2056L15.1596 28.5902C13.7911 27.3008 12.9353 25.473 12.9353 23.4488ZM16.4178 29.5363L18.467 25.987H21.5351L23.5843 29.5362C22.533 30.1574 21.3081 30.5145 20.0011 30.5145C18.6942 30.5145 17.4691 30.1575 16.4178 29.5363ZM24.8424 28.5901L22.8884 25.2056L24.4224 22.5486H27.0668V23.4488C27.0667 25.4729 26.2109 27.3007 24.8424 28.5901Z" fill="#535353"/>
<path d="M38.3292 13.9389L34.9476 10.5573C33.8684 9.47809 32.4334 8.88371 30.9072 8.88371C29.5923 8.88371 28.3459 9.3258 27.3357 10.138C26.4748 9.50145 25.5289 8.97349 24.5181 8.57531V4.95974C24.5181 2.46847 22.4913 0.441711 20.0001 0.441711C17.5088 0.441711 15.482 2.46855 15.482 4.95974V8.57531C14.4713 8.97349 13.5254 9.50145 12.6645 10.138C11.6543 9.3258 10.4079 8.88371 9.09305 8.88371C7.56683 8.88371 6.13187 9.47809 5.05258 10.5573L1.67103 13.9389C-0.556848 16.1668 -0.556848 19.7919 1.67103 22.0198C1.81761 22.1663 2.01631 22.2486 2.22353 22.2486C2.43074 22.2486 2.62944 22.1663 2.77602 22.0198L8.11057 16.6853C7.801 17.7661 7.63496 18.9069 7.63496 20.0858V23.4488C7.63496 26.4035 8.67721 29.1189 10.4126 31.2482C9.63734 32.5642 9.39317 34.0959 9.72751 35.6005C10.0876 37.221 11.0682 38.5865 12.4887 39.4456C12.6116 39.52 12.7517 39.5583 12.893 39.5583C12.9589 39.5583 13.025 39.55 13.0899 39.5331C13.2939 39.4799 13.4679 39.3466 13.5722 39.1634L15.8804 35.1073C16.9354 35.4812 18.0555 35.7155 19.2189 35.7884V37.3599C19.2189 37.7914 19.5688 38.1412 20.0002 38.1412C20.4317 38.1412 20.7816 37.7914 20.7816 37.3599V35.7884C21.9449 35.7155 23.0651 35.4811 24.12 35.1073L26.4283 39.1634C26.5326 39.3466 26.7064 39.4799 26.9105 39.5331C26.9754 39.55 27.0415 39.5583 27.1074 39.5583C27.2488 39.5583 27.3888 39.52 27.5118 39.4456C28.9322 38.5865 29.9127 37.221 30.2729 35.6006C30.6073 34.0959 30.363 32.5641 29.5878 31.2483C31.3232 29.119 32.3654 26.4035 32.3654 23.4488V20.0858C32.3654 18.9069 32.1994 17.7661 31.8898 16.6852L37.2244 22.0199C37.371 22.1664 37.5697 22.2487 37.7769 22.2487C37.9841 22.2487 38.1828 22.1664 38.3294 22.0199C40.557 19.7919 40.557 16.1668 38.3292 13.9389ZM17.0447 4.95974C17.0447 3.33015 18.3705 2.00442 20 2.00442C21.6295 2.00442 22.9553 3.33015 22.9553 4.95974V8.07844C22.0079 7.84521 21.0183 7.72058 20 7.72058C18.9816 7.72058 17.992 7.84521 17.0447 8.07844V4.95974ZM2.27557 20.3102C1.1794 18.6956 1.34622 16.4737 2.77595 15.0439L6.1575 11.6624C6.94159 10.8783 7.98407 10.4465 9.09289 10.4465C9.93668 10.4465 10.7419 10.6965 11.4242 11.1615L2.27557 20.3102ZM12.646 37.631C11.9456 37.0138 11.4602 36.1947 11.2529 35.2615C11.0401 34.3043 11.1442 33.3324 11.5416 32.4595C12.4002 33.2659 13.3735 33.9515 14.4344 34.4885L12.646 37.631ZM28.7471 35.2616C28.5397 36.1947 28.0544 37.0138 27.354 37.631L25.5657 34.4885C26.6265 33.9515 27.5998 33.266 28.4584 32.4595C28.8558 33.3323 28.9598 34.3043 28.7471 35.2616ZM30.8025 23.4488C30.8025 29.4052 25.9565 34.2512 20.0001 34.2512C14.0436 34.2512 9.19759 29.4052 9.19759 23.4488V20.0858C9.19759 14.1293 14.0436 9.28337 20.0001 9.28337C25.9565 9.28337 30.8025 14.1293 30.8025 20.0858V23.4488ZM37.7245 20.3102L28.5758 11.1614C29.258 10.6964 30.0633 10.4464 30.9071 10.4464C32.0159 10.4464 33.0584 10.8782 33.8425 11.6623L37.224 15.0439C38.6539 16.4737 38.8207 18.6956 37.7245 20.3102Z" fill="#535353"/>
<path d="M20.0106 13.02C20.2161 13.02 20.4177 12.9364 20.563 12.7911C20.7083 12.645 20.792 12.4442 20.792 12.2387C20.792 12.0332 20.7084 11.8316 20.563 11.6863C20.4177 11.5409 20.2161 11.4573 20.0106 11.4573C19.8051 11.4573 19.6035 11.5409 19.4574 11.6863C19.3121 11.8316 19.2292 12.0332 19.2292 12.2387C19.2292 12.4442 19.3121 12.6458 19.4574 12.7911C19.6035 12.9364 19.8052 13.02 20.0106 13.02Z" fill="#535353"/>
</svg>
