<svg width="13" height="24" viewBox="0 0 13 24" fill="none" xmlns="http://www.w3.org/2000/svg">
<path d="M12.3875 1.11252C12.2713 0.995359 12.1331 0.902365 11.9807 0.838903C11.8284 0.775444 11.665 0.742771 11.5 0.742771C11.335 0.742771 11.1716 0.775444 11.0193 0.838904C10.867 0.902365 10.7287 0.99536 10.6125 1.11252L0.612507 11.1125C0.496655 11.2293 0.404997 11.3678 0.342791 11.5201C0.280585 11.6724 0.249055 11.8355 0.250006 12C0.249055 12.1645 0.280585 12.3276 0.342792 12.4799C0.404997 12.6322 0.496656 12.7707 0.612507 12.8875L10.6125 22.8875C10.7291 23.0041 10.8674 23.0965 11.0197 23.1596C11.172 23.2227 11.3352 23.2551 11.5 23.2551C11.6648 23.2551 11.828 23.2227 11.9803 23.1596C12.1326 23.0965 12.271 23.0041 12.3875 22.8875C12.6229 22.6521 12.7551 22.3329 12.7551 22C12.7551 21.6671 12.6229 21.3479 12.3875 21.1125L3.26251 11.9875L12.3875 2.88752C12.5047 2.77131 12.5977 2.63306 12.6611 2.48074C12.7246 2.32841 12.7573 2.16503 12.7573 2.00002C12.7573 1.835 12.7246 1.67162 12.6611 1.5193C12.5977 1.36697 12.5047 1.22872 12.3875 1.11252Z" fill="#AAAAAA"/>
</svg>
