<svg width="22" height="24" viewBox="0 0 22 24" fill="none" xmlns="http://www.w3.org/2000/svg">
<path d="M16.2331 6.2313C16.2331 9.10761 13.8781 11.4626 11.0018 11.4626C8.12551 11.4626 5.77051 9.10762 5.77051 6.2313C5.77051 3.35498 8.12546 1 11.0018 1C13.8781 1 16.2331 3.35499 16.2331 6.2313Z" stroke="#FF7A5F" stroke-width="2"/>
<path d="M20.6706 17.5917C20.4994 17.8767 20.3064 18.1524 20.0869 18.4378L20.0806 18.446L20.0745 18.4542C19.7381 18.9108 19.3442 19.3318 18.9208 19.7553C18.5714 20.1046 18.1719 20.454 17.7768 20.7503C15.8027 22.2244 13.4286 22.9998 10.9747 22.9998C8.52719 22.9998 6.15889 22.2284 4.18779 20.7616C3.75107 20.4068 3.36268 20.0892 3.02878 19.7553L3.01805 19.7446L3.00701 19.7342C2.58966 19.3415 2.22132 18.9243 1.87503 18.4543L1.87506 18.4543L1.86993 18.4475C1.67623 18.1892 1.47967 17.9149 1.31275 17.646C1.43984 17.3765 1.59306 17.1039 1.75611 16.8684L1.76207 16.8598L1.76785 16.851C2.83326 15.241 4.53791 14.1759 6.43065 13.9157L6.46077 13.9115L6.47014 13.9097C6.47304 13.9106 6.47614 13.9118 6.47911 13.9132C6.48151 13.9143 6.48302 13.9152 6.48364 13.9156L6.48969 13.92C7.80894 14.8938 9.37872 15.3944 11.0019 15.3944C12.6215 15.3944 14.1878 14.896 15.5052 13.9266C15.5075 13.926 15.5104 13.9252 15.514 13.9244C15.5349 13.9197 15.5644 13.917 15.597 13.919C17.4739 14.184 19.1485 15.2435 20.2417 16.8595L20.2416 16.8595L20.2478 16.8684C20.4112 17.1045 20.5543 17.3455 20.6706 17.5917Z" stroke="#FF7A5F" stroke-width="2"/>
</svg>
