<svg width="9" height="16" viewBox="0 0 9 16" fill="none" xmlns="http://www.w3.org/2000/svg">
<path d="M0.741662 15.2583C0.819131 15.3364 0.911299 15.3984 1.01285 15.4407C1.1144 15.483 1.22332 15.5048 1.33333 15.5048C1.44334 15.5048 1.55226 15.483 1.65381 15.4407C1.75536 15.3984 1.84753 15.3364 1.925 15.2583L8.59168 8.59165C8.66891 8.51379 8.73002 8.42144 8.77149 8.31991C8.81296 8.21838 8.83398 8.10966 8.83334 7.99998C8.83398 7.89031 8.81296 7.7816 8.77149 7.68006C8.73002 7.57853 8.66891 7.48619 8.59168 7.40832L1.925 0.741658C1.8473 0.66396 1.75506 0.602326 1.65354 0.560275C1.55202 0.518225 1.44321 0.496582 1.33333 0.496582C1.22345 0.496582 1.11464 0.518225 1.01312 0.560275C0.911603 0.602326 0.819361 0.66396 0.741662 0.741658C0.584742 0.898578 0.496586 1.11141 0.496586 1.33332C0.496586 1.55524 0.584742 1.76807 0.741662 1.92499L6.82501 8.00832L0.741662 14.075C0.663555 14.1524 0.60156 14.2446 0.559252 14.3462C0.516945 14.4477 0.495163 14.5566 0.495163 14.6666C0.495163 14.7767 0.516945 14.8856 0.559252 14.9871C0.60156 15.0887 0.663555 15.1808 0.741662 15.2583Z" fill="#FF7A5F"/>
</svg>
