<svg width="30" height="30" viewBox="0 0 30 30" fill="none" xmlns="http://www.w3.org/2000/svg">
<g clip-path="url(#clip0_1186_6356)">
<path d="M28.4249 5.92751L25.73 4.8964C25.2184 4.7007 24.6887 4.5743 24.1487 4.51559C24.1191 4.11351 23.8937 3.73364 23.5144 3.52615C22.9204 3.20142 22.1728 3.42027 21.848 4.01431C21.711 4.26475 21.6662 4.5487 21.7177 4.82568C21.3892 4.88767 21.0507 4.8889 20.72 4.82498L17.9665 4.29258C16.2006 3.95114 14.3833 4.1206 12.7108 4.78273C12.4099 4.90185 12.2626 5.24235 12.3817 5.54324C12.5007 5.84418 12.8413 5.99143 13.1422 5.87237C14.6066 5.29263 16.198 5.14432 17.7441 5.44321L20.4975 5.97561C21.1817 6.10786 21.8891 6.05097 22.5433 5.81114C22.8374 5.70332 23.1452 5.64865 23.4585 5.64865C24.0942 5.64865 24.7175 5.76385 25.3113 5.99102L26.8148 6.56625C26.675 6.57621 26.5405 6.63645 26.4412 6.73589C26.3322 6.84487 26.2694 6.99599 26.2694 7.15016C26.2694 7.30426 26.3321 7.45544 26.4412 7.56437C26.5501 7.67394 26.7013 7.73611 26.8554 7.73611C27.0095 7.73611 27.1601 7.67394 27.2696 7.56437C27.3786 7.45544 27.4413 7.30426 27.4413 7.15016C27.4413 6.99904 27.3808 6.85161 27.2757 6.74263L28.0062 7.02213C28.6329 7.26196 28.9692 7.95221 28.7719 8.59359C28.6688 8.92847 28.4453 9.21002 28.1426 9.38633L28.1374 9.38938C28.059 9.43508 27.9921 9.49842 27.9424 9.57442C27.6736 9.9843 27.1898 10.2596 26.7386 10.2596C26.1169 10.2596 25.5334 10.5642 25.1778 11.0743L24.5897 11.9182C23.7457 11.8681 22.9591 11.5163 22.3562 10.9134C22.1274 10.6846 21.7563 10.6846 21.5276 10.9134C21.2988 11.1423 21.2988 11.5132 21.5276 11.7421C22.4014 12.6159 23.5632 13.0971 24.7989 13.0971H26.5814C27.0503 13.0971 27.4318 13.4786 27.4318 13.9475C27.4318 14.4163 27.0503 14.7978 26.5814 14.7978H24.1549C21.7147 14.7978 19.3791 15.7047 17.5784 17.3513L17.0336 17.8493C16.367 15.6124 14.3003 14.0417 11.918 14.0417C11.5944 14.0417 11.332 14.3041 11.332 14.6277C11.332 14.9512 11.5944 15.2136 11.918 15.2136C13.9288 15.2136 15.6524 16.6462 16.0164 18.6201C16.0676 18.898 16.31 19.0998 16.5926 19.0998H18.1081C19.132 19.0998 19.9965 19.7951 20.2544 20.7384H9.4083C8.40615 20.0203 7.71337 18.7923 7.53407 17.4042L7.96662 12.7737C8.09477 11.4019 8.56963 10.0728 9.33992 8.93022C9.52081 8.66192 9.44991 8.29769 9.1816 8.1168C8.91323 7.93604 8.54912 8.00676 8.36818 8.27513C7.48848 9.58011 6.94613 11.098 6.79981 12.6647L6.38437 17.1122L1.12462 21.3057C0.460557 21.8352 0.052382 22.6251 0.00468542 23.473C-0.0430112 24.3209 0.274048 25.1516 0.874592 25.7521C1.45404 26.3316 2.21971 26.6243 2.98719 26.6242C3.68904 26.6241 4.39242 26.3793 4.9557 25.885L9.48477 21.9103H20.9185C21.242 21.9103 21.5044 21.6479 21.5044 21.3244C21.5044 19.6357 20.2654 18.2314 18.6489 17.9715C20.1916 16.6781 22.1323 15.9697 24.1549 15.9697H26.5814C27.6964 15.9697 28.6036 15.0626 28.6036 13.9475C28.6036 12.8323 27.6964 11.9251 26.5814 11.9251H26.0132L26.1392 11.7445C26.2757 11.5485 26.4999 11.4315 26.7386 11.4315C27.5373 11.4315 28.3489 11.0033 28.8434 10.3305C29.3449 10.0035 29.7149 9.51366 29.892 8.93813C30.2701 7.70933 29.6256 6.38695 28.4249 5.92751ZM4.18265 25.0042C3.46626 25.6329 2.37721 25.5974 1.70325 24.9234C1.33837 24.5586 1.14577 24.0539 1.17472 23.5388C1.20366 23.0236 1.4517 22.5437 1.85507 22.2221L6.55711 18.4733C6.87534 19.6214 7.49417 20.6379 8.32329 21.3704L4.18265 25.0042Z" fill="#535353"/>
<path d="M10.6473 7.23914C10.8014 7.23914 10.9526 7.17644 11.0615 7.06746C11.1705 6.95847 11.2332 6.8073 11.2332 6.6532C11.2332 6.4991 11.1705 6.34792 11.0615 6.23894C10.9526 6.13001 10.8014 6.06726 10.6473 6.06726C10.4932 6.06726 10.342 6.12996 10.233 6.23894C10.124 6.34792 10.0613 6.4991 10.0613 6.6532C10.0613 6.8073 10.124 6.95847 10.233 7.06746C10.3426 7.17644 10.4932 7.23914 10.6473 7.23914Z" fill="#535353"/>
</g>
<defs>
<clipPath id="clip0_1186_6356">
<rect width="30" height="30" fill="white"/>
</clipPath>
</defs>
</svg>
