<svg width="16" height="16" viewBox="0 0 16 16" fill="none" xmlns="http://www.w3.org/2000/svg">
<g clip-path="url(#clip0_1369_5655)">
<path d="M15.372 5.25C15.7752 4.84688 16.0002 4.30937 16.0002 3.7375C16.0002 3.16562 15.7783 2.62812 15.372 2.225L13.7783 0.63125C13.372 0.221875 12.8345 0 12.2627 0C11.6908 0 11.1533 0.221875 10.7502 0.628125L0.809548 10.5688C0.253298 11.125 -0.0404524 11.8906 0.00329755 12.675L0.000172555 15.2188C0.000172555 15.425 0.0814226 15.625 0.228298 15.7719C0.375173 15.9188 0.572048 16 0.781423 16L3.32517 15.9969C4.10955 16.0406 4.87517 15.7469 5.43142 15.1906C5.73767 14.8844 5.73767 14.3906 5.43142 14.0844C5.12517 13.7781 4.63142 13.7781 4.32517 14.0844C4.08142 14.3281 3.7408 14.4562 3.39705 14.4344C3.38142 14.4344 3.36267 14.4312 3.34705 14.4312L1.56267 14.4375L1.5658 12.6531C1.5658 12.6375 1.5658 12.6187 1.56267 12.6031C1.5408 12.2594 1.66892 11.9188 1.91267 11.675L10.197 3.39062L12.6095 5.80312L6.38455 12.0281C6.0783 12.3344 6.0783 12.8281 6.38455 13.1344C6.6908 13.4406 7.18455 13.4406 7.4908 13.1344L15.372 5.25ZM11.3033 2.28437L11.8564 1.73125C11.9658 1.62188 12.1095 1.5625 12.2658 1.5625C12.4189 1.5625 12.5658 1.62188 12.6752 1.73125L14.2689 3.325C14.4939 3.55 14.4939 3.91875 14.2689 4.14375L13.7158 4.69688L11.3033 2.28437Z" fill="#BFBFBF"/>
<path d="M15.372 5.25C15.7752 4.84688 16.0002 4.30937 16.0002 3.7375C16.0002 3.16562 15.7783 2.62812 15.372 2.225L13.7783 0.63125C13.372 0.221875 12.8345 0 12.2627 0C11.6908 0 11.1533 0.221875 10.7502 0.628125L0.809548 10.5688C0.253298 11.125 -0.0404524 11.8906 0.00329755 12.675L0.000172555 15.2188C0.000172555 15.425 0.0814226 15.625 0.228298 15.7719C0.375173 15.9188 0.572048 16 0.781423 16L3.32517 15.9969C4.10955 16.0406 4.87517 15.7469 5.43142 15.1906C5.73767 14.8844 5.73767 14.3906 5.43142 14.0844C5.12517 13.7781 4.63142 13.7781 4.32517 14.0844C4.08142 14.3281 3.7408 14.4562 3.39705 14.4344C3.38142 14.4344 3.36267 14.4312 3.34705 14.4312L1.56267 14.4375L1.5658 12.6531C1.5658 12.6375 1.5658 12.6187 1.56267 12.6031C1.5408 12.2594 1.66892 11.9188 1.91267 11.675L10.197 3.39062L12.6095 5.80312L6.38455 12.0281C6.0783 12.3344 6.0783 12.8281 6.38455 13.1344C6.6908 13.4406 7.18455 13.4406 7.4908 13.1344L15.372 5.25ZM11.3033 2.28437L11.8564 1.73125C11.9658 1.62188 12.1095 1.5625 12.2658 1.5625C12.4189 1.5625 12.5658 1.62188 12.6752 1.73125L14.2689 3.325C14.4939 3.55 14.4939 3.91875 14.2689 4.14375L13.7158 4.69688L11.3033 2.28437Z" fill="black" fill-opacity="0.2"/>
<path d="M15.2188 14.4375H8.17188C7.74062 14.4375 7.39062 14.7875 7.39062 15.2188C7.39062 15.65 7.74062 16 8.17188 16H15.2188C15.65 16 16 15.65 16 15.2188C16 14.7875 15.65 14.4375 15.2188 14.4375Z" fill="#BFBFBF"/>
<path d="M15.2188 14.4375H8.17188C7.74062 14.4375 7.39062 14.7875 7.39062 15.2188C7.39062 15.65 7.74062 16 8.17188 16H15.2188C15.65 16 16 15.65 16 15.2188C16 14.7875 15.65 14.4375 15.2188 14.4375Z" fill="black" fill-opacity="0.2"/>
</g>
<defs>
<clipPath id="clip0_1369_5655">
<rect width="16" height="16" fill="white"/>
</clipPath>
</defs>
</svg>
