<svg width="30" height="18" viewBox="0 0 30 18" fill="none" xmlns="http://www.w3.org/2000/svg">
<path d="M2.0002 3.87302C3.60379 1.79254 5.76818 0.776349 8.61718 0.766447C8.63154 0.766447 8.64548 0.766388 8.65984 0.766388C11.1924 0.766388 14.0606 1.54779 16.8223 2.43584C17.2734 1.64072 17.9901 1.16658 18.7876 1.16658C20.2606 1.16658 21.4058 2.20228 21.6116 3.64234C25.2631 4.8656 28.1888 6.16263 28.6042 6.34901C29.3559 6.56669 30.0712 7.60192 29.9943 8.39206C29.8272 10.1179 29.371 11.3906 28.5997 12.2831C27.7434 13.2729 26.523 13.7949 24.8692 13.8784L23.6242 14.0032C24.2489 14.6206 24.6367 15.477 24.6367 16.4226C24.6367 16.7651 24.3589 17.0428 24.0165 17.0428H21.0417H19.0498C18.0458 17.0428 17.2292 16.2261 17.2292 15.2221V14.2589H14.761C15.3482 14.8709 15.7104 15.7004 15.7104 16.6134C15.7104 16.956 15.4326 17.2337 15.0901 17.2337H5.79168C4.18024 17.2337 2.65979 16.3096 1.6204 14.6985C0.933446 13.6345 0.0959672 11.9217 0.00778376 9.80475C-0.0800481 7.69801 0.590322 5.70232 2.0002 3.87302ZM2.6626 14.0258C3.13662 14.7605 4.17338 15.9931 5.79156 15.9931H14.3792C14.1119 15.1013 13.2833 14.4496 12.3054 14.4496H10.0884C10.0421 14.4496 9.99718 14.4442 9.95376 14.4346C9.64157 14.4022 9.39812 14.1385 9.39812 13.8178C9.39812 13.4752 9.67585 13.1976 10.0183 13.1976C10.0357 13.1975 10.0533 13.1976 10.0707 13.1971C10.0727 13.1971 10.0748 13.1971 10.0769 13.197C10.3807 13.1915 10.6795 13.1412 10.9662 13.0474C11.4208 12.8998 11.8409 12.6419 12.1812 12.3017C12.7589 11.7239 13.0772 10.9555 13.0772 10.1381C13.0772 8.12692 11.814 6.29681 9.9339 5.58431C9.61362 5.46284 9.45226 5.10478 9.57372 4.78451C9.69513 4.46417 10.0533 4.30292 10.3735 4.42433C11.5208 4.85915 12.5015 5.62152 13.2098 6.62909C13.9346 7.66022 14.3176 8.87364 14.3176 10.1381C14.3176 11.2129 13.9261 12.2272 13.2107 13.0185H17.2292V11.9098V11.2419C17.2292 10.8994 17.5069 10.6217 17.8494 10.6217C18.1919 10.6217 18.4696 10.8994 18.4696 11.2419V11.9098V13.6388V15.2223C18.4696 15.5422 18.7299 15.8025 19.0498 15.8025H21.0417H23.3056C23.0382 14.9107 22.2097 14.259 21.2318 14.259H21.0421C21.0418 14.259 21.0413 14.2591 21.041 14.2591C21.0202 14.2591 20.9997 14.2579 20.9794 14.2559C20.9757 14.2555 20.9722 14.2548 20.9686 14.2543C20.9524 14.2524 20.9361 14.2501 20.9202 14.247C20.9134 14.2456 20.9067 14.2437 20.9 14.2421C20.8877 14.2392 20.8754 14.2363 20.8633 14.2327C20.8551 14.2303 20.8473 14.2273 20.8392 14.2245C20.8289 14.221 20.8185 14.2174 20.8084 14.2132C20.7999 14.2098 20.7916 14.2059 20.7833 14.202C20.774 14.1978 20.7649 14.1935 20.7558 14.1888C20.7474 14.1845 20.7394 14.1798 20.7312 14.1751C20.7226 14.1701 20.7141 14.165 20.7057 14.1595C20.698 14.1545 20.6903 14.1493 20.6827 14.1439C20.6744 14.138 20.6662 14.1319 20.6582 14.1256C20.6512 14.1201 20.6443 14.1144 20.6376 14.1087C20.6295 14.1017 20.6217 14.0946 20.614 14.0872C20.6078 14.0814 20.6019 14.0755 20.5959 14.0694C20.5882 14.0613 20.5808 14.0531 20.5734 14.0446C20.5681 14.0386 20.5629 14.0326 20.5579 14.0264C20.5506 14.0173 20.5437 14.0079 20.5369 13.9984C20.5325 13.9921 20.5279 13.9859 20.5236 13.9795C20.5171 13.9696 20.5111 13.9594 20.5052 13.9491C20.5013 13.9425 20.4973 13.936 20.4937 13.9291C20.4883 13.9188 20.4833 13.9081 20.4785 13.8975C20.4752 13.8901 20.4716 13.8829 20.4685 13.8755C20.4643 13.8653 20.4608 13.8547 20.4571 13.8443C20.4541 13.8359 20.4509 13.8277 20.4483 13.8192C20.4454 13.8094 20.4432 13.7994 20.4407 13.7894C20.4383 13.7799 20.4356 13.7704 20.4336 13.7608C20.4316 13.7505 20.4304 13.74 20.4288 13.7295C20.4274 13.7199 20.4256 13.7104 20.4246 13.7007C20.4246 13.7006 20.4245 13.7005 20.4245 13.7003C20.4234 13.689 20.4234 13.678 20.4228 13.6668C20.4224 13.6573 20.4214 13.648 20.4214 13.6385C20.4214 13.6384 20.4214 13.6383 20.4214 13.6382C20.4213 13.5747 20.431 13.513 20.4491 13.4547C20.4527 13.4431 20.4573 13.4319 20.4615 13.4206C20.4643 13.4132 20.4666 13.4056 20.4697 13.3982C20.4755 13.3845 20.4822 13.3712 20.489 13.358C20.4912 13.3535 20.4932 13.3487 20.4956 13.3443C20.5024 13.3316 20.5101 13.3196 20.5177 13.3075C20.5208 13.3027 20.5233 13.2977 20.5265 13.293C20.5335 13.2826 20.5412 13.2728 20.5488 13.263C20.5533 13.257 20.5575 13.2508 20.5623 13.245C20.5687 13.2372 20.5758 13.23 20.5825 13.2225C20.5892 13.2152 20.5955 13.2076 20.6025 13.2006C20.6078 13.1952 20.6138 13.1903 20.6193 13.1851C20.6284 13.1767 20.6372 13.1681 20.6467 13.1603C20.651 13.1568 20.6557 13.1537 20.6601 13.1503C20.6714 13.1414 20.6827 13.1325 20.6947 13.1244C20.6988 13.1216 20.7032 13.1193 20.7075 13.1166C20.72 13.1086 20.7326 13.1005 20.7458 13.0933C20.7527 13.0895 20.76 13.0865 20.7671 13.083C20.7779 13.0776 20.7886 13.072 20.7999 13.0672C20.856 13.0435 20.9164 13.0277 20.9796 13.0214C20.9797 13.0214 20.9799 13.0214 20.9799 13.0214L24.7612 12.6424C24.7717 12.6414 24.7823 12.6406 24.7929 12.6401C26.0979 12.5765 27.0363 12.1943 27.6615 11.4717C28.259 10.7804 28.6183 9.73385 28.7599 8.27229C28.7743 8.08051 28.4465 7.59595 28.2689 7.54268C28.2247 7.53331 28.1818 7.51913 28.1408 7.50044C28.1089 7.48597 24.9349 6.04614 20.9392 4.72585C20.6373 4.68413 20.4045 4.42568 20.4045 4.1122C20.4045 3.12408 19.7246 2.40701 18.7879 2.40701C18.3664 2.40701 17.9551 2.79818 17.7397 3.40457C17.6408 3.68171 17.5885 3.99519 17.5885 4.31136C17.5885 5.34396 18.1377 6.2163 18.7879 6.2163C19.1304 6.2163 19.4081 6.49397 19.4081 6.83651C19.4081 7.17905 19.1304 7.45673 18.7879 7.45673C17.4198 7.45673 16.348 6.07509 16.348 4.3113C16.348 4.07066 16.3688 3.835 16.4091 3.60584C13.7554 2.75342 11.0162 2.00681 8.66042 2.00681C8.64765 2.00681 8.6347 2.00682 8.62187 2.00687C6.14769 2.01549 4.35596 2.8491 2.98317 4.63023C-0.153759 8.69997 1.71391 12.5565 2.6626 14.0258Z" fill="#535353"/>
<path d="M23.2343 7.39005C23.5768 7.39005 23.8545 7.66772 23.8545 8.01026V8.9252C23.8545 9.26774 23.5768 9.54541 23.2343 9.54541C22.8918 9.54541 22.6141 9.26774 22.6141 8.9252V8.01032C22.6141 7.66772 22.8918 7.39005 23.2343 7.39005Z" fill="#535353"/>
<path d="M8.20851 4.02948C8.27953 4.02948 8.35019 4.03071 8.42062 4.03317C8.76299 4.04495 9.03093 4.332 9.01916 4.67436C9.00761 5.00946 8.73234 5.27325 8.39965 5.27325C8.3925 5.27325 8.38517 5.27313 8.37797 5.2729C8.32172 5.27096 8.26523 5.26997 8.20851 5.26997C7.86604 5.26997 7.5883 4.99229 7.5883 4.64975C7.5883 4.30721 7.86604 4.02948 8.20851 4.02948Z" fill="#535353"/>
</svg>
