<svg width="61" height="60" viewBox="0 0 61 60" fill="none" xmlns="http://www.w3.org/2000/svg">
<g clip-path="url(#clip0_962_5362)">
<path d="M46.0172 19.0283V40.8983C46.0172 43.7141 43.7341 45.9973 40.9183 45.9973L23.2586 46.0707L12.9138 57.45V46.0707H5.59897C2.7831 46.0707 0.5 43.7876 0.5 40.9717V19.1017C0.5 16.2859 2.7831 14.0028 5.59897 14.0028L40.9172 13.9293C43.7341 13.9293 46.0172 16.2124 46.0172 19.0283Z" fill="#F9EAB0"/>
<path d="M23.2586 25.3087H9.81036C9.23829 25.3087 8.77588 24.8453 8.77588 24.2742C8.77588 23.7032 9.23829 23.2397 9.81036 23.2397H23.2586C23.8307 23.2397 24.2931 23.7032 24.2931 24.2742C24.2931 24.8453 23.8307 25.3087 23.2586 25.3087Z" fill="white"/>
<path d="M36.7069 31.5156H9.81036C9.23829 31.5156 8.77588 31.0522 8.77588 30.4811C8.77588 29.9101 9.23829 29.4467 9.81036 29.4467H36.7069C37.279 29.4467 37.7414 29.9101 37.7414 30.4811C37.7414 31.0522 37.279 31.5156 36.7069 31.5156Z" fill="white"/>
<path d="M36.7069 37.7224H9.81036C9.23829 37.7224 8.77588 37.259 8.77588 36.6879C8.77588 36.1169 9.23829 35.6534 9.81036 35.6534H36.7069C37.279 35.6534 37.7414 36.1169 37.7414 36.6879C37.7414 37.259 37.279 37.7224 36.7069 37.7224Z" fill="white"/>
<path d="M55.4011 2.62246L20.0828 2.55005C17.2659 2.55005 14.9828 4.83315 14.9828 7.64901V13.9821L40.9183 13.9283C43.7342 13.9283 46.0173 16.2114 46.0173 19.0283V38.1052L53.2587 46.0707V34.6914H55.4011C58.2169 34.6914 60.5 32.4083 60.5 29.5925V7.72246C60.5 4.90557 58.2169 2.62246 55.4011 2.62246Z" fill="#FF7A5F"/>
</g>
<defs>
<clipPath id="clip0_962_5362">
<rect width="60" height="60" fill="white" transform="translate(0.5)"/>
</clipPath>
</defs>
</svg>
