<svg width="40" height="40" viewBox="0 0 40 40" fill="none" xmlns="http://www.w3.org/2000/svg">
<circle cx="20" cy="20" r="20" fill="url(#paint0_linear_1262_9959)"/>
<path d="M29.1688 10.6771C27.0875 8.57499 24.3235 7.28584 21.3753 7.04217C18.4272 6.79851 15.4891 7.61637 13.0909 9.34823C10.6926 11.0801 8.99225 13.6119 8.29638 16.4871C7.6005 19.3623 7.95497 22.3915 9.29583 25.0283L7.97961 31.4185C7.96595 31.4821 7.96556 31.5478 7.97847 31.6116C7.99138 31.6753 8.0173 31.7357 8.05462 31.789C8.1093 31.8699 8.18734 31.9321 8.27833 31.9675C8.36932 32.0028 8.46892 32.0095 8.56384 31.9868L14.8267 30.5023C17.4561 31.8092 20.4639 32.1409 23.3149 31.4383C26.1659 30.7357 28.6752 29.0444 30.3963 26.6654C32.1173 24.2864 32.9385 21.3739 32.7138 18.4462C32.489 15.5185 31.2328 12.7655 29.1688 10.6771ZM27.2161 26.2627C25.776 27.6987 23.9216 28.6466 21.9142 28.9729C19.9069 29.2992 17.8477 28.9873 16.027 28.0813L15.1541 27.6494L11.3145 28.5587L11.3259 28.5109L12.1215 24.6464L11.6941 23.803C10.7638 21.9759 10.4356 19.9012 10.7566 17.8762C11.0776 15.8512 12.0312 13.9797 13.4809 12.5298C15.3025 10.7088 17.7728 9.68579 20.3485 9.68579C22.9242 9.68579 25.3945 10.7088 27.2161 12.5298C27.2316 12.5476 27.2483 12.5643 27.2661 12.5798C29.0651 14.4055 30.0694 16.8684 30.06 19.4316C30.0506 21.9947 29.0284 24.4502 27.2161 26.2627Z" fill="white"/>
<path d="M26.8747 23.4279C26.4041 24.1689 25.6608 25.076 24.7264 25.301C23.0897 25.6966 20.5777 25.3147 17.452 22.4003L17.4133 22.3662C14.6649 19.8179 13.9511 17.6969 14.1239 16.0147C14.2194 15.0599 15.015 14.1961 15.6856 13.6323C15.7917 13.5418 15.9174 13.4774 16.0528 13.4442C16.1881 13.411 16.3294 13.4099 16.4653 13.4411C16.6011 13.4722 16.7278 13.5347 16.8352 13.6236C16.9426 13.7124 17.0277 13.8252 17.0837 13.9528L18.0953 16.2261C18.161 16.3735 18.1854 16.536 18.1658 16.6962C18.1462 16.8564 18.0833 17.0083 17.9839 17.1354L17.4724 17.7992C17.3627 17.9363 17.2964 18.1031 17.2823 18.2781C17.2681 18.4531 17.3066 18.6283 17.3929 18.7813C17.6793 19.2837 18.3658 20.0225 19.1274 20.7067C19.9821 21.4797 20.9301 22.1866 21.5302 22.4276C21.6908 22.4932 21.8674 22.5092 22.0371 22.4736C22.2069 22.4379 22.3621 22.3522 22.4827 22.2276L23.076 21.6297C23.1905 21.5168 23.3329 21.4363 23.4886 21.3963C23.6444 21.3564 23.8079 21.3585 23.9626 21.4024L26.3655 22.0843C26.498 22.125 26.6195 22.1954 26.7207 22.2903C26.8218 22.3851 26.9 22.5018 26.9491 22.6314C26.9982 22.761 27.0171 22.9002 27.0042 23.0382C26.9913 23.1763 26.947 23.3096 26.8747 23.4279Z" fill="white"/>
<defs>
<linearGradient id="paint0_linear_1262_9959" x1="20" y1="0.163636" x2="20" y2="38.0636" gradientUnits="userSpaceOnUse">
<stop stop-color="#35DB23"/>
<stop offset="1" stop-color="#27A11A"/>
</linearGradient>
</defs>
</svg>
