<svg width="30" height="30" viewBox="0 0 30 30" fill="none" xmlns="http://www.w3.org/2000/svg">
<g clip-path="url(#clip0_1136_9559)">
<path d="M28.7512 22.6929L27.6482 16.076C27.3658 14.3811 26.1916 13.2426 24.7266 13.2426H18.0489L19.2513 12.0401C20.465 12.7123 22.0052 12.518 23.017 11.5059C23.6147 10.9083 23.9438 10.1138 23.9438 9.26857C23.9438 8.42354 23.6147 7.62886 23.017 7.03125C22.6183 6.63231 22.1342 6.35353 21.5993 6.21162C21.4574 5.67696 21.1787 5.19264 20.7797 4.79393C20.1821 4.19632 19.3877 3.86719 18.5424 3.86719C17.6974 3.86719 16.9027 4.19632 16.3051 4.79393C15.293 5.80605 15.0989 7.34596 15.7711 8.55972L15.1705 9.16008C14.9419 9.38896 14.9419 9.75998 15.1705 9.98886C15.3994 10.2177 15.7704 10.2177 15.9993 9.98886L16.9384 9.04976C17.1492 8.83896 17.1682 8.50342 16.9823 8.27019C16.3513 7.47826 16.4165 6.34003 17.1339 5.62248C17.5101 5.2462 18.0105 5.03906 18.5426 5.03906C19.0746 5.03906 19.5749 5.2462 19.9512 5.62248C20.2675 5.9388 20.4641 6.34026 20.5193 6.78291C20.5524 7.0491 20.7621 7.25876 21.0283 7.29195C21.4709 7.34711 21.8722 7.54349 22.1885 7.8598C22.5648 8.23608 22.7721 8.73642 22.7721 9.26857C22.7721 9.80072 22.5648 10.3011 22.1885 10.6773C21.4712 11.3947 20.3329 11.4597 19.5408 10.8286C19.3078 10.643 18.9722 10.6618 18.7614 10.8726L16.3916 13.2424H12.737C12.9115 13.0128 12.8943 12.6842 12.6849 12.4745C12.456 12.2459 12.085 12.2459 11.8561 12.4745L11.0882 13.2424H5.27344C3.80836 13.2424 2.6342 14.3811 2.35176 16.0757L1.24878 22.6929C0.527115 22.9118 0 23.5831 0 24.3755C0 25.3448 0.788498 26.1333 1.75781 26.1333H28.2422C29.2115 26.1333 30 25.3448 30 24.3755C30 23.5831 29.4729 22.9118 28.7512 22.6929ZM3.50761 16.2685C3.65021 15.4134 4.19815 14.4145 5.27344 14.4145H24.7266C25.8018 14.4145 26.3498 15.4134 26.4924 16.2687L27.5505 22.6176H2.44949L3.50761 16.2685ZM28.2422 24.9614H1.75781C1.43463 24.9614 1.17188 24.6984 1.17188 24.3755C1.17188 24.0523 1.43463 23.7895 1.75781 23.7895H28.2394H28.2415H28.2429C28.5656 23.7897 28.8281 24.0525 28.8281 24.3755C28.8281 24.6984 28.5654 24.9614 28.2422 24.9614Z" fill="#535353"/>
<path d="M19.4534 21.4456C19.7768 21.4456 20.0393 21.1833 20.0393 20.8596C20.0393 20.536 19.7768 20.2737 19.4534 20.2737H19.4529C19.1293 20.2737 18.8672 20.536 18.8672 20.8596C18.8672 21.1833 19.1297 21.4456 19.4534 21.4456Z" fill="#535353"/>
<path d="M21.7969 21.4456H25.3123C25.6359 21.4456 25.8982 21.1833 25.8982 20.8596C25.8982 20.536 25.6359 20.2737 25.3123 20.2737H21.7969C21.4732 20.2737 21.2109 20.536 21.2109 20.8596C21.2109 21.1833 21.4732 21.4456 21.7969 21.4456Z" fill="#535353"/>
<path d="M15 17.3442C13.7077 17.3442 12.6562 18.2641 12.6562 19.395C12.6562 20.5257 13.7077 21.4458 15 21.4458C16.2923 21.4458 17.3438 20.5257 17.3438 19.395C17.3438 18.2641 16.2923 17.3442 15 17.3442ZM15 20.2739C14.3649 20.2739 13.8281 19.8713 13.8281 19.395C13.8281 18.9185 14.3649 18.5161 15 18.5161C15.6351 18.5161 16.1719 18.9187 16.1719 19.395C16.1719 19.8713 15.6351 20.2739 15 20.2739Z" fill="#535353"/>
<path d="M15 16.7585C15.3236 16.7585 15.5859 16.4958 15.5859 16.1724C15.5859 15.8487 15.3236 15.5864 15 15.5864C14.6764 15.5864 14.4141 15.8487 14.4141 16.1724V16.1726C14.4141 16.4962 14.6764 16.7585 15 16.7585Z" fill="#535353"/>
<path d="M12.304 16.9115C12.4148 17.0914 12.6068 17.1902 12.8034 17.1902C12.9082 17.1902 13.0142 17.1623 13.1101 17.1033C13.3857 16.9337 13.4715 16.5725 13.3019 16.2969C13.1323 16.0213 12.7714 15.9355 12.4958 16.1051C12.2202 16.2747 12.1342 16.6356 12.3038 16.9112L12.304 16.9115Z" fill="#535353"/>
<path d="M16.8903 17.1033C16.986 17.1621 17.092 17.1902 17.1968 17.1902C17.3936 17.1902 17.5859 17.0911 17.6964 16.9112C17.866 16.6354 17.7802 16.2747 17.5046 16.1051C17.2291 15.9355 16.8681 16.0213 16.6985 16.2969L16.6983 16.2974C16.5287 16.5729 16.6148 16.9337 16.8903 17.1033Z" fill="#535353"/>
<path d="M13.9275 11.8179C14.0868 11.8179 14.2456 11.7534 14.3612 11.6261L14.3616 11.6259C14.5793 11.3865 14.5615 11.0162 14.3221 10.7983C14.0826 10.5806 13.7119 10.5985 13.4942 10.8379C13.2765 11.0773 13.2941 11.4481 13.5336 11.6657C13.6459 11.7676 13.7869 11.8179 13.9275 11.8179Z" fill="#535353"/>
</g>
<defs>
<clipPath id="clip0_1136_9559">
<rect width="30" height="30" fill="white"/>
</clipPath>
</defs>
</svg>
