<svg width="61" height="60" viewBox="0 0 61 60" fill="none" xmlns="http://www.w3.org/2000/svg">
<g clip-path="url(#clip0_962_5282)">
<path d="M60.486 55.7445L55.7723 29.7744C55.7253 29.5152 55.5645 29.2906 55.3341 29.1625L43.4698 22.5637C43.3158 22.4779 43.1432 22.4438 42.9736 22.4569L45.1321 50.3017L45.0598 50.334L59.2587 56.704C59.3743 56.7557 59.4971 56.7812 59.6193 56.7812C59.8128 56.7812 60.0045 56.7176 60.1621 56.5942C60.4197 56.3931 60.5443 56.0659 60.486 55.7445Z" fill="#ACE6BC"/>
<path d="M30.5001 28.8722L18.3659 22.5521C18.2205 22.4763 18.0592 22.4454 17.9004 22.456C17.9425 22.4534 17.9848 22.4537 18.0268 22.457L15.8683 50.3017L30.1395 56.7041C30.2547 56.7557 30.3777 56.7813 30.5001 56.7813V28.8722Z" fill="#ACE6BC"/>
<path d="M18.0266 22.4571C17.857 22.4439 17.6844 22.478 17.5304 22.5637L5.66597 29.1625C5.43558 29.2906 5.2748 29.5151 5.22781 29.7744L0.514165 55.7445C0.455806 56.0658 0.580494 56.393 0.837955 56.5943C0.995807 56.7177 1.18741 56.7813 1.38077 56.7813C1.503 56.7813 1.62593 56.7559 1.74136 56.7041L15.8629 50.3688L18.0266 22.4571Z" fill="#82D991"/>
<path d="M42.9733 22.4565C42.8566 22.4656 42.7412 22.4966 42.6342 22.5524L30.5 28.8723V56.7815C30.5 56.7815 30.5 56.7815 30.5001 56.7815C30.6226 56.7815 30.7456 56.756 30.8607 56.7043L45.1319 50.3019L42.9733 22.4565Z" fill="#82D991"/>
<path d="M3.79934 37.6446L2.8418 42.9203L17.0208 35.4313L17.35 31.1845L17.4046 30.4802L3.79934 37.6446Z" fill="#F9EAB0"/>
<path d="M17.1484 33.7845L17.0208 35.4313L2.84175 42.9203L0.514165 55.7445C0.455806 56.0658 0.580494 56.393 0.837955 56.5943C0.995807 56.7177 1.18741 56.7813 1.38077 56.7813C1.503 56.7813 1.62593 56.7559 1.74136 56.7041L15.8629 50.3688L17.1484 33.7845Z" fill="#D6F8FF"/>
<path d="M30.5036 32.3532L17.4045 30.4802L17.0208 35.4313L30.5 55.9015V48.458L22.4566 35.7926L30.5036 36.755V32.3532Z" fill="#F3D55B"/>
<path d="M54.4 28.6432L48.7006 25.4731L43.3051 26.7339L43.3726 27.6053L43.639 31.0428L54.4 28.6432Z" fill="#F3D55B"/>
<path d="M44.1175 37.216L43.6065 30.6243L43.305 26.7338L30.5035 32.3531V36.755L38.8656 33.1186L44.1175 37.216Z" fill="#F9EAB0"/>
<path d="M60.4859 55.7445L59.302 49.2211L43.639 31.0428L44.1176 37.2161L60.1805 56.5779C60.4247 56.3756 60.5428 56.0577 60.4859 55.7445Z" fill="#F3D55B"/>
<path d="M30.5564 3.21851C23.7639 3.21851 18.2377 8.74016 18.2377 15.5272C18.2377 19.7256 20.2309 24.2331 24.1622 28.9243C27.0496 32.37 29.8977 34.5861 30.0176 34.6788C30.1763 34.8015 30.3664 34.8628 30.5566 34.8628C30.7466 34.8628 30.9368 34.8015 31.0955 34.6788C31.2153 34.5861 34.0635 32.37 36.9509 28.9243C40.8822 24.2331 42.8755 19.7257 42.8755 15.5272C42.8752 8.74016 37.349 3.21851 30.5564 3.21851ZM35.1186 15.5271C35.1186 18.0445 33.076 20.0855 30.5564 20.0855C28.0369 20.0855 25.9943 18.0446 25.9943 15.5271C25.9943 13.0095 28.0369 10.9687 30.5564 10.9687C33.076 10.9687 35.1186 13.0097 35.1186 15.5271Z" fill="#FF7A5F"/>
<path d="M30.5565 3.21851C30.0181 3.21851 29.4878 3.25343 28.9675 3.32069C35.0124 4.10198 39.6975 9.27805 39.6975 15.5272C39.6975 19.7256 37.7042 24.2331 33.7729 28.9243C31.9161 31.1401 30.0768 32.8463 28.9676 33.8074C29.5834 34.3409 29.975 34.6458 30.0176 34.6788C30.1763 34.8015 30.3664 34.8628 30.5566 34.8628C30.7467 34.8628 30.9369 34.8015 31.0955 34.6788C31.2153 34.5861 34.0636 32.37 36.9509 28.9243C40.8822 24.2331 42.8755 19.7257 42.8755 15.5272C42.8753 8.74016 37.349 3.21851 30.5565 3.21851Z" fill="#D94604"/>
<path d="M30.8607 56.7042L36.1675 54.3234L30.5 48.458V56.7814C30.5 56.7814 30.5 56.7814 30.5001 56.7814C30.6226 56.7814 30.7455 56.7559 30.8607 56.7042Z" fill="#F9EAB0"/>
<path d="M55.7721 29.7744C55.7251 29.5152 55.5643 29.2906 55.3339 29.1626L54.3999 28.6431L43.6389 31.0427L59.3018 49.221L55.7721 29.7744Z" fill="#C4EBFF"/>
<path d="M30.5 56.7814C30.5001 56.7814 30.5001 56.7814 30.5 56.7814V55.9015L17.0208 35.4313L15.868 50.3018L30.1393 56.7042C30.2545 56.7559 30.3774 56.7814 30.5 56.7814Z" fill="#C4EBFF"/>
</g>
<defs>
<clipPath id="clip0_962_5282">
<rect width="60" height="60" fill="white" transform="translate(0.5)"/>
</clipPath>
</defs>
</svg>
