<svg width="24" height="24" viewBox="0 0 24 24" fill="none" xmlns="http://www.w3.org/2000/svg">
<path d="M23.0576 7.875C23.6623 7.27031 23.9998 6.46406 23.9998 5.60625C23.9998 4.74844 23.667 3.94219 23.0576 3.3375L20.667 0.946875C20.0576 0.332813 19.2513 0 18.3935 0C17.5357 0 16.7295 0.332813 16.1248 0.942188L1.21383 15.8531C0.379458 16.6875 -0.0611669 17.8359 0.00445805 19.0125L-0.000229449 22.8281C-0.000229449 23.1375 0.121646 23.4375 0.341958 23.6578C0.562271 23.8781 0.857583 24 1.17165 24L4.98727 23.9953C6.16383 24.0609 7.31227 23.6203 8.14665 22.7859C8.60602 22.3266 8.60602 21.5859 8.14665 21.1266C7.68727 20.6672 6.94665 20.6672 6.48727 21.1266C6.12165 21.4922 5.61071 21.6844 5.09508 21.6516C5.07165 21.6516 5.04352 21.6469 5.02008 21.6469L2.34352 21.6562L2.34821 18.9797C2.34821 18.9562 2.34821 18.9281 2.34352 18.9047C2.31071 18.3891 2.5029 17.8781 2.86852 17.5125L15.2951 5.08594L18.9138 8.70469L9.57633 18.0422C9.11696 18.5016 9.11696 19.2422 9.57633 19.7016C10.0357 20.1609 10.7763 20.1609 11.2357 19.7016L23.0576 7.875ZM16.9545 3.42656L17.7841 2.59688C17.9482 2.43281 18.1638 2.34375 18.3982 2.34375C18.6279 2.34375 18.8482 2.43281 19.0123 2.59688L21.4029 4.9875C21.7404 5.325 21.7404 5.87813 21.4029 6.21563L20.5732 7.04531L16.9545 3.42656Z" fill="#ff7a5f"/>
<path d="M23.0576 7.875C23.6623 7.27031 23.9998 6.46406 23.9998 5.60625C23.9998 4.74844 23.667 3.94219 23.0576 3.3375L20.667 0.946875C20.0576 0.332813 19.2513 0 18.3935 0C17.5357 0 16.7295 0.332813 16.1248 0.942188L1.21383 15.8531C0.379458 16.6875 -0.0611669 17.8359 0.00445805 19.0125L-0.000229449 22.8281C-0.000229449 23.1375 0.121646 23.4375 0.341958 23.6578C0.562271 23.8781 0.857583 24 1.17165 24L4.98727 23.9953C6.16383 24.0609 7.31227 23.6203 8.14665 22.7859C8.60602 22.3266 8.60602 21.5859 8.14665 21.1266C7.68727 20.6672 6.94665 20.6672 6.48727 21.1266C6.12165 21.4922 5.61071 21.6844 5.09508 21.6516C5.07165 21.6516 5.04352 21.6469 5.02008 21.6469L2.34352 21.6562L2.34821 18.9797C2.34821 18.9562 2.34821 18.9281 2.34352 18.9047C2.31071 18.3891 2.5029 17.8781 2.86852 17.5125L15.2951 5.08594L18.9138 8.70469L9.57633 18.0422C9.11696 18.5016 9.11696 19.2422 9.57633 19.7016C10.0357 20.1609 10.7763 20.1609 11.2357 19.7016L23.0576 7.875ZM16.9545 3.42656L17.7841 2.59688C17.9482 2.43281 18.1638 2.34375 18.3982 2.34375C18.6279 2.34375 18.8482 2.43281 19.0123 2.59688L21.4029 4.9875C21.7404 5.325 21.7404 5.87813 21.4029 6.21563L20.5732 7.04531L16.9545 3.42656Z" fill="#ff7a5f" fill-opacity="0.2"/>
<path d="M22.8281 21.6562H12.2578C11.6109 21.6562 11.0859 22.1812 11.0859 22.8281C11.0859 23.475 11.6109 24 12.2578 24H22.8281C23.475 24 24 23.475 24 22.8281C24 22.1812 23.475 21.6562 22.8281 21.6562Z" fill="#ff7a5f"/>
<path d="M22.8281 21.6562H12.2578C11.6109 21.6562 11.0859 22.1812 11.0859 22.8281C11.0859 23.475 11.6109 24 12.2578 24H22.8281C23.475 24 24 23.475 24 22.8281C24 22.1812 23.475 21.6562 22.8281 21.6562Z" fill="#ff7a5f" fill-opacity="0.2"/>
</svg>
