<svg width="40" height="36" viewBox="0 0 40 36" fill="none" xmlns="http://www.w3.org/2000/svg">
<path d="M39.4061 6.88671C38.9255 6.31608 38.2219 5.98873 37.4757 5.98873H35.6848C34.8898 4.58911 33.4029 3.71004 31.7647 3.71004H31.3943V0.985022C31.3943 0.553534 31.0445 0.203766 30.613 0.203766C27.7009 0.203766 25.3316 2.573 25.3316 5.48513V7.92648C25.3316 9.62564 24.3936 11.1653 22.8836 11.9444L20.3328 13.2606C19.9493 13.4585 19.7989 13.9297 19.9967 14.3131C20.1353 14.5819 20.4085 14.7363 20.6916 14.7363C20.8122 14.7363 20.9346 14.7083 21.0492 14.6492L23.6 13.333C25.632 12.2846 26.8941 10.2129 26.8941 7.92656V5.48506C26.8941 3.70246 28.1551 2.2087 29.8317 1.84878V4.4913C29.8317 4.92279 30.1816 5.27255 30.613 5.27255H31.7647C32.9525 5.27255 34.0186 5.97967 34.4807 7.07398C34.6029 7.36327 34.8863 7.55132 35.2004 7.55132H37.4757C37.7599 7.55132 38.028 7.67601 38.2111 7.89344C38.3942 8.11086 38.4716 8.39617 38.4233 8.67633L38.1342 10.3535C37.9506 11.4174 37.0341 12.1894 35.9546 12.1894H32.4765C32.4683 12.1894 32.4604 12.1903 32.4522 12.1907C32.4441 12.1904 32.4362 12.1894 32.428 12.1894C31.9966 12.1894 31.6468 12.5392 31.6468 12.9707V16.7906C31.6468 19.5541 31.1133 22.2485 30.0614 24.799C29.9965 24.9561 29.9848 25.1301 30.0277 25.2946L31.9493 32.6437C31.9829 32.7721 32.0486 32.8897 32.1402 32.9857L32.8268 33.7047C32.951 33.8347 32.9186 33.9732 32.8883 34.044C32.8579 34.115 32.7801 34.234 32.6004 34.234H29.9977L26.6402 25.5346V21.9217C26.6402 21.4903 26.2903 21.1405 25.8589 21.1405C25.4274 21.1405 25.0776 21.4903 25.0776 21.9217V25.6801C25.0776 25.7763 25.0954 25.8717 25.1301 25.9615L28.3229 34.2339H25.5746C25.1975 31.7898 23.0798 29.9125 20.5318 29.9125H19.65L19.3013 27.8431C18.9285 25.6315 17.27 23.9017 15.0759 23.4364L13.5981 23.1229C13.1764 23.0335 12.7613 23.303 12.6718 23.725C12.5822 24.1472 12.8519 24.5618 13.274 24.6514L14.7518 24.9648C16.3141 25.2961 17.495 26.5279 17.7604 28.1027L18.0654 29.9124H13.2519C12.8204 29.9124 12.4706 30.2622 12.4706 30.6937C12.4706 31.1252 12.8204 31.4749 13.2519 31.4749H20.5318C22.2155 31.4749 23.6284 32.6564 23.985 34.2338H13.1242C9.21557 34.2338 6.03563 31.0538 6.03563 27.1452C6.03563 24.2156 7.6529 21.5612 10.2564 20.2179L14.8023 17.8723C15.1857 17.6744 15.3362 17.2032 15.1384 16.8198C14.9405 16.4363 14.4691 16.2858 14.0858 16.4837L9.53987 18.8294C8.29268 19.4729 7.23478 20.3676 6.41282 21.4333C6.32649 21.0238 6.28258 20.6038 6.28258 20.1755C6.28258 17.9941 7.46454 15.9722 9.36714 14.8989C9.88253 14.6082 10.1271 14.0257 9.97573 13.4495C9.81644 12.8428 9.27151 12.4185 8.64838 12.4136C8.64479 12.4135 8.64135 12.4131 8.63776 12.4131C8.63549 12.4131 8.63315 12.4131 8.6308 12.4132C8.62986 12.4132 8.62901 12.4133 8.62807 12.4133C3.96327 12.4185 0.0943304 16.2605 0.00167344 20.9823C-0.0630146 24.2771 1.75231 27.3468 4.64897 28.8857C5.45672 32.8246 8.94995 35.7963 13.1242 35.7963H32.6004C33.3639 35.7963 34.0246 35.3603 34.3248 34.6584C34.6251 33.9565 34.4841 33.1775 33.9569 32.6253L33.4098 32.0526L31.605 25.1501C32.6696 22.4823 33.2092 19.6712 33.2092 16.7905V13.7518H35.9546C37.7967 13.7518 39.3609 12.4342 39.6739 10.6189L39.963 8.94165C40.0899 8.20633 39.8869 7.45734 39.4061 6.88671ZM1.56395 21.013C1.63481 17.4023 4.38679 14.4181 7.85009 14.0207C5.90023 15.4447 4.72023 17.7303 4.72023 20.1755C4.72023 21.2285 4.92976 22.2424 5.34281 23.1955C4.80804 24.3472 4.50608 25.6153 4.47679 26.934C2.63107 25.564 1.51794 23.3579 1.56395 21.013Z" fill="#535353"/>
</svg>
