<svg width="24" height="24" viewBox="0 0 24 24" fill="none" xmlns="http://www.w3.org/2000/svg">
<path d="M20.4895 8.9942H15.696L16.6375 6.21599C16.9293 5.34859 16.9239 4.41114 16.6221 3.54705C16.3202 2.68296 15.7386 1.93981 14.9662 1.43128C14.388 1.0578 13.6849 0.919461 13.005 1.04543C12.325 1.1714 11.7215 1.55184 11.3215 2.10654L6.20182 9.28789C6.00036 9.09934 5.73278 8.99417 5.45455 8.9942H1.09091C0.801582 8.9942 0.524105 9.10713 0.31952 9.30814C0.114935 9.50915 0 9.78177 0 10.066V22.9282C0 23.2124 0.114935 23.4851 0.31952 23.6861C0.524105 23.8871 0.801582 24 1.09091 24H5.45455C5.74387 24 6.02135 23.8871 6.22593 23.6861C6.43052 23.4851 6.54545 23.2124 6.54545 22.9282V22.7867L8.12182 23.8199C8.30127 23.937 8.51184 23.9997 8.72727 24H18.5455C18.7482 24.0001 18.9469 23.9447 19.1194 23.84C19.2918 23.7353 19.4312 23.5854 19.5218 23.4073L23.5124 15.5646C23.832 14.9339 23.9989 14.2391 24 13.5345V12.4434C23.9988 11.529 23.6286 10.6523 22.9705 10.0057C22.3124 9.3591 21.4202 8.99534 20.4895 8.9942ZM4.36364 21.8563H2.18182V11.1379H4.36364V21.8563ZM21.8182 13.5345C21.8175 13.9065 21.7294 14.2733 21.5607 14.6064L17.8713 21.8563H9.05455L6.54545 20.211V12.5474L13.1095 3.33487C13.1796 3.23542 13.2868 3.16708 13.4079 3.14462C13.5289 3.12216 13.6541 3.14738 13.7564 3.21483C14.1317 3.46167 14.4142 3.82259 14.5608 4.24229C14.7074 4.66199 14.7099 5.11734 14.568 5.53858L13.1498 9.72734C13.0953 9.88822 13.0804 10.0595 13.1063 10.2271C13.1323 10.3948 13.1983 10.554 13.299 10.6917C13.3998 10.8294 13.5323 10.9416 13.6858 11.0192C13.8392 11.0967 14.0092 11.1374 14.1818 11.1379H20.4895C20.8418 11.1382 21.1796 11.2758 21.4287 11.5206C21.6778 11.7653 21.8179 12.0972 21.8182 12.4434V13.5345Z" fill="#FF7A5F"/>
</svg>
