<svg width="40" height="40" viewBox="0 0 40 40" fill="none" xmlns="http://www.w3.org/2000/svg">
<path d="M37.4128 35.7801C38.9751 34.6846 39.9993 32.8716 39.9993 30.8228C39.9993 29.5646 39.6038 28.3339 38.8783 27.314C38.958 26.9647 39.0124 26.6086 39.0406 26.2509C39.0876 25.6536 39.062 25.0533 38.9643 24.4671C38.8945 24.0472 38.64 23.6887 38.2662 23.4836C37.8923 23.2785 37.4532 23.2566 37.0615 23.4234C36.2543 23.7668 35.5261 24.2442 34.8913 24.8453C34.5778 24.7956 34.2616 24.7706 33.947 24.7706H32.3657C32.0533 24.7706 31.7396 24.7952 31.4284 24.8441C30.7938 24.2435 30.066 23.7665 29.2594 23.4233C28.8675 23.2566 28.4284 23.2786 28.0547 23.4835C27.6809 23.6886 27.4265 24.0471 27.3566 24.467C27.2598 25.0483 27.234 25.6432 27.2794 26.2353H27.0158C26.5007 26.2353 26.0351 25.9504 25.8006 25.4917L22.0696 18.192C21.7828 17.6309 21.4388 17.0992 21.0471 16.6113C20.7769 16.2749 20.2852 16.2213 19.9487 16.4914C19.6123 16.7615 19.5586 17.2533 19.8287 17.5897C20.154 17.9948 20.4399 18.4367 20.6783 18.9032L24.4093 26.2029C24.9122 27.1867 25.911 27.7978 27.0157 27.7978H27.1253C26.598 28.7124 26.3134 29.7575 26.3134 30.8229C26.3134 34.1601 29.0285 36.8752 32.3657 36.8752H36.0098C36.4405 36.8752 36.791 37.2256 36.791 37.6564C36.791 38.0872 36.4405 38.4376 36.0098 38.4376H29.8528C25.3574 38.4376 21.0574 36.7641 17.7447 33.7252L15.8185 31.9582C16.1507 31.7382 16.4621 31.4853 16.7455 31.2018C19.0704 28.8769 19.0704 25.094 16.7455 22.7692C16.4404 22.4643 15.9457 22.4643 15.6406 22.7692C15.3355 23.0743 15.3355 23.569 15.6406 23.8741C17.3563 25.5898 17.3563 28.3813 15.6406 30.097C15.3235 30.4141 14.9596 30.6795 14.5655 30.8857L14.3597 29.8483C14.2758 29.425 13.8646 29.15 13.4413 29.2341C13.0181 29.318 12.7431 29.7292 12.8271 30.1524L14.2279 37.2111C14.288 37.5137 14.2101 37.8241 14.0143 38.0625C13.8185 38.301 13.5293 38.4377 13.2208 38.4377C12.8125 38.4377 12.4432 38.1959 12.2799 37.8218L6.87269 25.438C5.21272 21.6365 6.93371 17.1454 10.709 15.4267C11.8248 14.9188 13.0577 14.6843 14.274 14.7491C14.7052 14.7699 15.0727 14.4414 15.0956 14.0103C15.1185 13.5795 14.7878 13.2116 14.3569 13.1887C12.8906 13.1107 11.4053 13.393 10.0617 14.0046C9.18656 14.403 8.39243 14.9266 7.69776 15.554L6.20645 14.0625C5.22686 13.083 4.6875 11.7807 4.6875 10.3956C4.6875 8.60708 5.63396 6.9143 7.15753 5.97768L9.81928 4.34122C10.3526 4.01341 10.7263 3.49741 10.8716 2.88843C11.0169 2.27946 10.9163 1.65041 10.5884 1.11714C10.2605 0.583788 9.74459 0.210123 9.1357 0.0648132C8.52673 -0.0803404 7.89767 0.0201266 7.3644 0.348011L4.70257 1.98454C3.26885 2.86593 2.07684 4.10833 1.25545 5.57737C0.434133 7.04633 0 8.71247 0 10.3956C0 13.0329 1.02701 15.5123 2.8919 17.3771L5.10522 19.5905C4.425 21.72 4.53922 23.9987 5.44076 26.0632L10.848 38.4469C11.26 39.3903 12.1913 40 13.2209 40C13.9989 40 14.7283 39.6551 15.2219 39.0538C15.7157 38.4526 15.912 37.6699 15.7605 36.9068L15.0614 33.3839L16.6885 34.8764C20.2901 38.1804 24.9653 40 29.8528 40H36.0097C37.302 40 38.3534 38.9486 38.3534 37.6562C38.3535 36.8897 37.9836 36.208 37.4128 35.7801ZM32.3658 35.3126C29.8901 35.3126 27.876 33.2985 27.876 30.8228C27.876 29.786 28.2379 28.7746 28.895 27.9749C29.0578 27.7767 29.113 27.5112 29.0426 27.2646C28.9372 26.8953 28.8685 26.513 28.8382 26.1281C28.8073 25.7369 28.816 25.3445 28.8639 24.9582C29.5167 25.2677 30.0999 25.6931 30.5998 26.225C30.7905 26.4279 31.0748 26.5139 31.3459 26.4509C31.6824 26.3727 32.0256 26.333 32.3658 26.333H33.9471C34.2892 26.333 34.6344 26.3732 34.9731 26.4522C35.2445 26.5154 35.5292 26.4295 35.7202 26.2263C36.2203 25.6939 36.8038 25.268 37.4573 24.9582C37.5052 25.3443 37.5139 25.7369 37.4831 26.1282C37.4555 26.4783 37.3961 26.8264 37.3062 27.1645C37.1903 27.4282 37.2271 27.7425 37.4179 27.9749C38.075 28.7745 38.4369 29.7861 38.4369 30.8229C38.4369 33.2984 36.4228 35.3126 33.9471 35.3126H32.3658ZM1.56247 10.3956C1.56247 8.97879 1.92786 7.5764 2.61925 6.33986C3.31064 5.10332 4.31399 4.05748 5.52084 3.31554L8.18267 1.67908C8.3604 1.56986 8.57001 1.53619 8.77305 1.58471C8.97602 1.63314 9.14804 1.75775 9.25734 1.93548C9.36663 2.11321 9.40015 2.3229 9.35171 2.52594C9.30327 2.72891 9.17875 2.90086 9.00094 3.01015L6.33919 4.64668C4.35656 5.86549 3.12495 8.06834 3.12495 10.3956C3.12495 12.1981 3.82689 13.8928 5.10155 15.1674L6.63176 16.6977C6.30473 17.1154 6.0131 17.5627 5.7606 18.0362L3.99673 16.2723C2.42699 14.7025 1.56247 12.6154 1.56247 10.3956Z" fill="#535353"/>
</svg>
