<svg width="30" height="30" viewBox="0 0 30 30" fill="none" xmlns="http://www.w3.org/2000/svg">
<g clip-path="url(#clip0_1136_9503)">
<path d="M26.0326 13.7878C25.8784 13.7878 25.7273 13.8505 25.6183 13.9596C25.5093 14.0685 25.4472 14.2197 25.4472 14.3738C25.4472 14.5279 25.5093 14.6791 25.6183 14.788C25.7279 14.897 25.8784 14.9597 26.0326 14.9597C26.1873 14.9597 26.3379 14.8971 26.4468 14.788C26.5564 14.6791 26.6191 14.5279 26.6191 14.3738C26.6191 14.2197 26.5564 14.0685 26.4468 13.9596C26.3384 13.8506 26.1873 13.7878 26.0326 13.7878Z" fill="#535353"/>
<path d="M30 15C30 14.004 29.6139 13.0634 28.9129 12.3518C27.5549 10.9733 25.96 9.9174 24.2191 9.22003C24.6003 8.05012 24.2154 6.75155 23.2038 5.97655C22.5787 5.49767 21.8045 5.29067 21.0239 5.39426C20.2433 5.49762 19.5496 5.8988 19.0707 6.52392C18.6859 7.0264 18.478 7.63107 18.4644 8.25068C17.8475 8.27787 17.2376 8.34566 16.6379 8.45259C16.4168 7.31098 15.4996 6.4178 14.3085 6.25064C12.7986 6.03883 11.3982 7.09472 11.1864 8.6044C11.0952 9.25378 11.2375 9.90568 11.5793 10.4526C10.8062 10.9556 10.078 11.5392 9.40626 12.2003C9.15742 12.4453 8.75203 12.4415 8.5026 12.1922L7.99789 11.6875C6.96133 10.6509 5.53221 10.1652 4.07702 10.3548C3.75611 10.3967 3.52988 10.6907 3.57172 11.0115C3.61349 11.3325 3.90792 11.5593 4.22842 11.5168C5.0333 11.412 5.82716 11.5833 6.5005 11.9917C6.97352 12.918 7.22347 13.9546 7.22347 15C7.22347 16.0455 6.97346 17.0823 6.50033 18.0087C5.95829 18.3371 5.3354 18.5127 4.68538 18.5127C3.74708 18.5127 2.86498 18.1474 2.20148 17.4838C1.42414 16.7065 1.05993 15.6345 1.20231 14.5429C1.24414 14.222 1.01798 13.928 0.697069 13.8861C0.376336 13.8445 0.0821447 14.0705 0.0403099 14.3914C-0.14947 15.8467 0.336259 17.2759 1.37287 18.3125C2.25767 19.1973 3.43408 19.6845 4.68538 19.6845C5.93667 19.6845 7.11309 19.1973 7.99789 18.3125L8.50254 17.8078C8.75197 17.5583 9.15737 17.5548 9.40621 17.7997C10.0779 18.4609 10.8063 19.0445 11.5794 19.5475C11.2376 20.0944 11.0953 20.7464 11.1864 21.3957C11.3801 22.7757 12.567 23.7766 13.9225 23.7765C14.0499 23.7765 14.1789 23.7676 14.3086 23.7495C15.4996 23.5823 16.4169 22.6891 16.6379 21.5475C17.2376 21.6543 17.8475 21.7222 18.4644 21.7493C18.478 22.369 18.6859 22.9737 19.0707 23.4762C19.5496 24.1013 20.2433 24.5026 21.0239 24.6059C21.1554 24.6233 21.2866 24.6319 21.4171 24.6319C22.0611 24.6319 22.684 24.4218 23.2038 24.0236C24.2154 23.2486 24.6003 21.95 24.2191 20.78C25.96 20.0827 27.5548 19.0268 28.9128 17.6482C29.6139 16.9366 30 15.9961 30 15ZM19.0838 20.5917C18.3159 20.5917 17.5583 20.5225 16.8175 20.3887C17.067 19.6353 17.2639 18.8645 17.4066 18.0826L17.4967 18.1727C17.6111 18.2871 17.761 18.3443 17.911 18.3443C18.0609 18.3443 18.2108 18.287 18.3253 18.1727L20.1777 16.3202C20.3818 17.7506 20.9148 19.1196 21.7353 20.3139C20.8737 20.4969 19.9864 20.5917 19.0838 20.5917ZM10.4987 12.7778C11.0962 12.2228 11.7384 11.7314 12.4174 11.3078C13.1665 13.7122 13.1664 16.2878 12.4173 18.6923C11.7385 18.2687 11.0964 17.7774 10.4991 17.2226C10.6618 16.4961 10.7442 15.7499 10.7442 15C10.7442 14.2501 10.6614 13.5042 10.4987 12.7778ZM13.4606 10.7239C14.1682 10.3713 14.9077 10.0873 15.6703 9.87421C16.0266 10.9255 16.2723 12.0145 16.4029 13.1207C15.7479 14.2832 15.7478 15.717 16.4029 16.8794C16.2723 17.9854 16.0265 19.0744 15.6702 20.1258C14.9076 19.9128 14.1681 19.6287 13.4605 19.2761C14.3812 16.4997 14.3813 13.5003 13.4606 10.7239ZM19.0838 9.40835C19.9864 9.40835 20.8737 9.50309 21.7355 9.68613C20.9149 10.8804 20.3819 12.2495 20.1778 13.6798L18.3253 11.8274C18.0965 11.5987 17.7256 11.5986 17.4967 11.8274L17.4066 11.9174C17.2639 11.1354 17.067 10.3646 16.8176 9.61125C17.5583 9.47754 18.3159 9.40835 19.0838 9.40835ZM17.8579 13.1233L17.911 13.0704L19.8407 15.0001L17.9109 16.9299L17.858 16.8769C16.8232 15.8419 16.8232 14.1582 17.8579 13.1233ZM22.9486 19.9918C21.8541 18.5624 21.2552 16.8046 21.2552 15.0003C21.2552 15.0001 21.2552 14.9999 21.2552 14.9998C21.2552 13.1954 21.8542 11.4376 22.9486 10.0082C23.3426 10.1343 23.7296 10.2798 24.1086 10.4443C23.0353 11.7108 22.4321 13.33 22.4321 15.0001C22.4321 16.6701 23.0353 18.2892 24.1086 19.5558C23.7296 19.7203 23.3426 19.8658 22.9486 19.9918ZM21.1778 6.55596C21.6482 6.4938 22.1146 6.61825 22.4912 6.90681C23.0922 7.36717 23.3259 8.13391 23.1126 8.83057C21.996 8.49156 20.8301 8.29498 19.6366 8.24834C19.6505 7.88501 19.7752 7.53152 20.0011 7.23657C20.2896 6.85994 20.7075 6.61825 21.1778 6.55596ZM12.3469 8.76729C12.4689 7.89743 13.2762 7.2886 14.1457 7.41123C14.8419 7.50891 15.3746 8.03694 15.4922 8.70764C14.4825 8.97828 13.5092 9.36317 12.5885 9.85576C12.3806 9.53578 12.293 9.15072 12.3469 8.76729ZM8.22798 16.6012C8.33819 16.076 8.39532 15.539 8.39532 15C8.39532 14.461 8.33819 13.924 8.22798 13.3988C8.61234 13.5671 9.04358 13.5967 9.44382 13.4869C9.52861 13.985 9.57232 14.4913 9.57232 15C9.57232 15.5087 9.52855 16.015 9.44376 16.5131C9.04358 16.4034 8.61234 16.433 8.22798 16.6012ZM14.1457 22.5889C13.2761 22.7113 12.469 22.1026 12.3469 21.2328C12.2931 20.8494 12.3806 20.4643 12.5885 20.1444C13.5092 20.6369 14.4825 21.0218 15.4922 21.2924C15.3746 21.9632 14.8419 22.4913 14.1457 22.5889ZM22.4912 23.0934C22.1147 23.3819 21.6486 23.5064 21.1778 23.4442C20.7075 23.3819 20.2896 23.1402 20.0011 22.7636C19.7751 22.4686 19.6505 22.1152 19.6366 21.7517C20.83 21.7051 21.9959 21.5085 23.1125 21.1695C23.3259 21.8661 23.0923 22.6329 22.4912 23.0934ZM28.0781 16.8259C27.2138 17.7032 26.2444 18.4373 25.1985 19.0182C24.1809 17.9332 23.604 16.4907 23.604 15.0001C23.604 13.5093 24.1809 12.0669 25.1986 10.9819C26.2445 11.5628 27.2138 12.2969 28.078 13.1742C29.0698 14.1809 29.0698 15.8191 28.0781 16.8259Z" fill="#535353"/>
<path d="M1.78708 12.6875C1.94118 12.6875 2.09235 12.6253 2.20134 12.5163C2.31032 12.4074 2.37302 12.2563 2.37302 12.1021C2.37302 11.9474 2.31032 11.7962 2.20134 11.6873C2.09235 11.5783 1.94118 11.5156 1.78708 11.5156C1.63298 11.5156 1.48181 11.5783 1.37282 11.6873C1.26384 11.7969 1.20114 11.9474 1.20114 12.1021C1.20114 12.2563 1.26384 12.4068 1.37282 12.5163C1.48181 12.6253 1.63298 12.6875 1.78708 12.6875Z" fill="#535353"/>
</g>
<defs>
<clipPath id="clip0_1136_9503">
<rect width="30" height="30" fill="white"/>
</clipPath>
</defs>
</svg>
