<svg width="30" height="30" viewBox="0 0 30 30" fill="none" xmlns="http://www.w3.org/2000/svg">
<g clip-path="url(#clip0_1136_9549)">
<path d="M28.0767 9.22418L29.8931 6.64605C30.0191 6.46717 30.0349 6.23303 29.9342 6.03879C29.8334 5.84455 29.6329 5.72262 29.4141 5.72262H27.7859C28.1359 5.24748 28.3433 4.66113 28.3433 4.02703V2.77928C28.3433 2.45566 28.081 2.19334 27.7574 2.19334H26.5096C25.7373 2.19334 25.0359 2.50102 24.5202 2.99953C23.9334 1.58426 22.5377 0.585938 20.9127 0.585938H19.0962C18.7726 0.585938 18.5103 0.848262 18.5103 1.17188V2.9884C18.5103 4.05234 18.9386 5.01779 19.6313 5.72268H16.1941C15.7551 5.27133 15.1419 4.99014 14.4639 4.99014C13.786 4.99014 13.1728 5.27133 12.7337 5.72268H7.67736C7.19766 5.2691 6.55125 4.99014 5.84051 4.99014C5.12977 4.99014 4.48342 5.2691 4.00365 5.72268H0.585938C0.262324 5.72268 0 5.985 0 6.30861V8.88674C0 9.21035 0.262324 9.47268 0.585938 9.47268H3.16406V16.2851C3.16406 18.8316 3.89414 21.3015 5.27531 23.4278C5.38758 23.6006 5.57549 23.6947 5.76721 23.6947C5.8766 23.6947 5.98729 23.6641 6.08584 23.6C6.35719 23.4237 6.4343 23.0609 6.25805 22.7895C5.00063 20.8536 4.33594 18.6044 4.33594 16.285V7.66658C4.33594 6.83695 5.01088 6.16201 5.84051 6.16201C6.67014 6.16201 7.34508 6.83695 7.34508 7.66658V14.5077C7.34508 16.1276 8.66297 17.4455 10.2829 17.4455C10.946 17.4455 11.5584 17.2243 12.0507 16.8523C12.0701 17.9639 12.3644 19.0612 12.9063 20.0329C13.0136 20.2252 13.2129 20.3335 13.4186 20.3335C13.5151 20.3335 13.6131 20.3095 13.7034 20.2592C13.986 20.1016 14.0873 19.7447 13.9297 19.4621C13.4658 18.6302 13.2206 17.6872 13.2206 16.7347V7.40525C13.2206 6.71971 13.7784 6.16201 14.4639 6.16201C15.1494 6.16201 15.7071 6.71977 15.7071 7.40525V17.0363C15.7071 18.0799 16.5561 18.9288 17.5996 18.9288C18.3315 18.9288 18.9671 18.511 19.2819 17.9016C20.2819 19.3684 21.9659 20.3334 23.8712 20.3334C25.5405 20.3334 27.0401 19.5925 28.0586 18.4224C27.0481 23.9993 22.1569 28.2422 16.2931 28.2422C13.975 28.2422 11.7267 27.5781 9.79154 26.3219C9.5202 26.1457 9.15727 26.2229 8.98102 26.4943C8.80482 26.7657 8.88205 27.1286 9.15346 27.3049C11.2791 28.6847 13.7479 29.4141 16.2931 29.4141C19.8 29.4141 23.097 28.0484 25.5767 25.5687C28.0564 23.0889 29.4221 19.792 29.4221 16.2851V14.7825C29.4221 12.2848 27.7637 10.1672 25.4903 9.47268H27.5977C27.7882 9.47268 27.9669 9.37998 28.0767 9.22418ZM1.17188 8.3008V6.89455H3.27803C3.2042 7.13918 3.16406 7.39822 3.16406 7.66658V8.3008H1.17188ZM8.51695 9.47268H12.0487V13.0662C11.6176 12.3514 11.0162 11.7368 10.2754 11.2786L8.51695 10.191V9.47268ZM12.0487 7.40525V8.3008H8.51695V7.66658C8.51695 7.39822 8.47682 7.13912 8.40299 6.89455H12.1036C12.068 7.05926 12.0487 7.23 12.0487 7.40525ZM10.2829 16.2735C9.30914 16.2735 8.51695 15.4813 8.51695 14.5076V11.5689L9.65895 12.2752C10.8456 13.0092 11.5745 14.2569 11.6361 15.6405C11.3119 16.0272 10.8257 16.2735 10.2829 16.2735ZM26.5095 3.36521H27.1714V4.02709C27.1714 4.96072 26.4118 5.72021 25.4783 5.72021H24.8164V5.05834C24.8164 4.12477 25.5759 3.36521 26.5095 3.36521ZM19.6821 1.75781H20.9126C22.419 1.75781 23.6445 2.9833 23.6445 4.48963V5.72021H22.4139C20.9076 5.72021 19.6821 4.49473 19.6821 2.9884V1.75781ZM18.3203 17.0363C18.3203 17.4337 17.9971 17.757 17.5997 17.757C17.2023 17.757 16.879 17.4337 16.879 17.0363V12.909C17.7915 13.6959 18.3203 14.836 18.3203 16.0687V17.0363ZM19.4922 14.7825C19.4922 14.6104 19.5033 14.4409 19.5227 14.2739L21.1355 14.0076C21.5273 13.9429 21.8991 14.2092 21.9639 14.6012C22.0286 14.9932 21.7624 15.3649 21.3703 15.4296L19.595 15.7228C19.5283 15.4197 19.4922 15.1053 19.4922 14.7825ZM28.2503 14.7825C28.2503 15.1053 28.2141 15.4197 28.1475 15.7228L26.3722 15.4297C25.9801 15.3649 25.7139 14.9933 25.7786 14.6012C25.8099 14.4113 25.9134 14.245 26.0698 14.1329C26.2263 14.0208 26.417 13.9764 26.607 14.0077L28.2197 14.274C28.2392 14.4409 28.2503 14.6104 28.2503 14.7825ZM27.8834 13.0307L26.798 12.8514C26.2992 12.7689 25.7982 12.8859 25.3873 13.1803C24.9764 13.4747 24.7047 13.9115 24.6224 14.4103C24.4523 15.4399 25.1517 16.4159 26.1813 16.5858L27.7342 16.8422C26.996 18.2211 25.5415 19.1615 23.8712 19.1615C22.2008 19.1615 20.7465 18.2211 20.0082 16.8422L21.5612 16.5858C22.5908 16.4158 23.2901 15.4398 23.12 14.4103C22.95 13.3806 21.9741 12.6813 20.9445 12.8514L19.859 13.0306C20.5362 11.4857 22.0793 10.4034 23.8712 10.4034C25.6631 10.4034 27.2063 11.4858 27.8834 13.0307ZM18.5869 13.0826C18.1692 12.462 17.6181 11.9261 16.9549 11.516L16.879 11.4691V9.47268H22.2522C20.5182 10.0024 19.1423 11.36 18.5869 13.0826ZM16.879 8.3008V7.40525C16.879 7.23 16.8598 7.05926 16.8242 6.89455H28.2845L27.2937 8.3008H16.879Z" fill="#535353"/>
<path d="M23.4568 16.8504C23.3479 16.96 23.2852 17.1106 23.2852 17.2653C23.2852 17.4194 23.3479 17.5699 23.4568 17.6795C23.5658 17.7885 23.717 17.8506 23.8711 17.8506C24.0252 17.8506 24.1764 17.7885 24.2854 17.6795C24.3943 17.5705 24.457 17.4194 24.457 17.2653C24.457 17.1106 24.3943 16.96 24.2854 16.8504C24.1764 16.7414 24.0252 16.6793 23.8711 16.6793C23.717 16.6793 23.5658 16.7414 23.4568 16.8504Z" fill="#535353"/>
<path d="M7.42383 24.5684C7.26973 24.5684 7.11855 24.6311 7.00957 24.74C6.90059 24.849 6.83789 25.0002 6.83789 25.1543C6.83789 25.3084 6.90059 25.4596 7.00957 25.5686C7.11855 25.6775 7.26973 25.7402 7.42383 25.7402C7.57793 25.7402 7.7291 25.6775 7.83809 25.5686C7.94707 25.4596 8.00977 25.3084 8.00977 25.1543C8.00977 25.0002 7.94707 24.849 7.83809 24.74C7.7291 24.6311 7.57793 24.5684 7.42383 24.5684Z" fill="#535353"/>
</g>
<defs>
<clipPath id="clip0_1136_9549">
<rect width="30" height="30" fill="white"/>
</clipPath>
</defs>
</svg>
