<svg width="38" height="40" viewBox="0 0 38 40" fill="none" xmlns="http://www.w3.org/2000/svg">
<path d="M36.7924 16.2074L35.8035 14.7794C34.2552 12.5434 31.7386 11.18 29.0304 11.0963L18.5874 0.653196C17.8588 -0.0753909 16.7749 -0.20789 15.8899 0.323433C15.0086 0.852803 14.6178 1.86803 14.9175 2.84966C15.7017 5.41784 17.106 7.71539 18.9889 9.5667L13.7787 8.17062C12.7837 7.90406 11.7784 8.33117 11.2778 9.23366C10.7792 10.1328 10.9483 11.2074 11.6988 11.9077C14.5529 14.5712 18.3425 16.1021 22.2403 16.1976C22.1118 16.7159 22.0424 17.2574 22.0424 17.8149C22.0424 17.8524 22.0446 17.8894 22.0452 17.9269H14.3963C12.7267 17.9269 11.1223 18.2905 9.6275 19.0077C9.23844 19.1943 9.07446 19.6611 9.26118 20.05C9.39555 20.33 9.67492 20.4936 9.96601 20.4936C10.0793 20.4936 10.1945 20.4688 10.3034 20.4165C11.5855 19.8014 12.9625 19.4894 14.3963 19.4894H22.2535C22.9995 22.389 25.6361 24.5379 28.7652 24.5379H32.2813C31.9928 27.0077 31.0188 29.3171 29.4658 31.2405V30.4428C29.4658 30.0113 29.116 29.6615 28.6846 29.6615C28.2532 29.6615 27.9033 30.0113 27.9033 30.4428V35.6125C27.9033 36.044 28.2532 36.3938 28.6846 36.3938C29.9714 36.3938 31.0599 37.2586 31.3997 38.4375H26.8499L25.0047 31.1264C24.8991 30.7081 24.4742 30.4545 24.056 30.5601C23.6377 30.6657 23.384 31.0904 23.4896 31.5088L24.3938 35.091C23.6502 35.41 22.8799 35.6592 22.0906 35.8354C21.5692 35.4047 20.9472 35.0917 20.2654 34.9382C20.3454 34.4412 20.3618 33.9353 20.3144 33.4258C20.0311 30.3908 17.5038 28.0134 14.5607 28.0134C12.9209 28.0134 11.3782 28.6209 10.2166 29.7241C9.03251 30.8486 8.38033 32.3636 8.38033 33.9898C8.38033 35.0054 8.63447 35.9624 9.08102 36.8021C6.57292 35.096 4.92231 32.219 4.92231 28.9635C4.92231 27.5678 5.21856 26.224 5.80285 24.9694C5.98496 24.5782 5.81559 24.1134 5.42442 23.9313C5.03302 23.7492 4.56841 23.9186 4.38638 24.3098C3.70522 25.7725 3.35983 27.3383 3.35983 28.9636C3.35983 29.8057 3.45498 30.6259 3.63451 31.4144C1.70586 31.8592 0.263062 33.5894 0.263062 35.6512C0.263062 38.0492 2.21398 40.0002 4.61193 40.0002C6.06043 40.0002 7.40698 39.2638 8.20674 38.0967C9.97008 39.2955 12.0969 39.9977 14.3846 40C14.3866 40 14.3885 40.0002 14.3904 40.0002H22.9071C23.3385 40.0002 23.6883 39.6504 23.6883 39.2189C23.6883 38.4802 23.5041 37.7839 23.1802 37.1724C23.7235 37.0205 24.2575 36.8368 24.7803 36.6229L25.4838 39.4101C25.5713 39.757 25.8834 40.0002 26.2412 40.0002H32.2908C32.7222 40.0002 33.072 39.6504 33.072 39.2189C33.072 37.0662 31.5138 35.2706 29.4658 34.9011V33.5547C32.0071 31.0892 33.5549 27.8467 33.8727 24.3367C36.0997 23.7059 37.7365 21.656 37.7365 19.2297C37.7365 18.1445 37.4101 17.0995 36.7924 16.2074ZM4.61185 38.4375C3.07546 38.4375 1.82547 37.1875 1.82547 35.6511C1.82547 34.2925 2.80296 33.1587 4.09138 32.9141C4.71528 34.5359 5.7109 35.9747 6.97432 37.1247C6.47113 37.9256 5.57762 38.4375 4.61185 38.4375ZM14.3962 38.4375C14.3923 38.4375 14.3885 38.4374 14.3846 38.4374C11.9348 38.4342 9.94273 36.4403 9.94273 33.9897C9.94273 31.5146 11.9712 29.5758 14.5606 29.5758C16.7056 29.5758 18.5495 31.3306 18.7585 33.5709C18.8156 34.1834 18.748 34.7883 18.5573 35.3689C18.4792 35.6068 18.5199 35.8679 18.6668 36.0708C18.8137 36.2737 19.0491 36.3939 19.2996 36.3939H19.3009C20.5876 36.3939 21.6762 37.2587 22.016 38.4376H14.3962V38.4375ZM16.4119 2.39341C16.2776 1.95365 16.5942 1.72311 16.6944 1.66287C16.7961 1.60194 17.1531 1.42842 17.4825 1.75803L27.0416 11.3171C26.8074 11.3793 26.5787 11.4544 26.3552 11.5406L22.9073 10.6167C19.7751 8.77429 17.4691 5.85565 16.4119 2.39341ZM12.7648 10.7654C12.4286 10.4518 12.5875 10.0938 12.6443 9.99154C12.7017 9.88795 12.9241 9.55928 13.3743 9.67991L24.4653 12.6518C23.8057 13.2021 23.2528 13.8758 22.8425 14.6376C19.1289 14.6933 15.4774 13.297 12.7648 10.7654ZM32.4281 22.9755H28.7652C25.9198 22.9755 23.6048 20.6605 23.6048 17.8151C23.6048 14.9696 25.9198 12.6546 28.7652 12.6546C31.061 12.6546 33.212 13.7814 34.5189 15.6689L35.5077 17.0969C35.9436 17.7264 36.174 18.4639 36.174 19.2295C36.174 21.295 34.4936 22.9755 32.4281 22.9755Z" fill="#535353"/>
</svg>
