<svg width="40" height="40" viewBox="0 0 40 40" fill="none" xmlns="http://www.w3.org/2000/svg">
<path d="M20 40C31.0457 40 40 31.0457 40 20C40 8.9543 31.0457 0 20 0C8.9543 0 0 8.9543 0 20C0 31.0457 8.9543 40 20 40Z" fill="url(#paint0_linear_1369_5747)"/>
<path fill-rule="evenodd" clip-rule="evenodd" d="M9.05273 19.7889C14.8831 17.2487 18.771 15.574 20.7162 14.7649C26.2704 12.4548 27.4246 12.0535 28.1768 12.0402C28.3422 12.0373 28.7122 12.0783 28.9518 12.2728C29.3072 12.5612 29.3093 13.1873 29.2698 13.6017C28.9688 16.7642 27.6665 24.4386 27.0039 27.9806C26.7235 29.4794 26.1715 29.982 25.6371 30.0311C24.4757 30.138 23.5937 29.2635 22.4688 28.5262C20.7086 27.3723 19.7141 26.654 18.0055 25.5281C16.0308 24.2268 17.3109 23.5117 18.4362 22.3428C18.7308 22.037 23.848 17.3824 23.9471 16.9601C23.9595 16.9073 23.971 16.7104 23.854 16.6065C23.7371 16.5026 23.5645 16.5381 23.44 16.5664C23.2634 16.6064 20.4514 18.4651 15.0039 22.1423C14.2057 22.6904 13.4827 22.9574 12.835 22.9435C12.1208 22.9281 10.7473 22.5397 9.72608 22.2078C8.47359 21.8006 7.47812 21.5853 7.56484 20.8939C7.60999 20.5337 8.10593 20.1654 9.05273 19.7889Z" fill="white"/>
<defs>
<linearGradient id="paint0_linear_1369_5747" x1="20" y1="0" x2="20" y2="39.6875" gradientUnits="userSpaceOnUse">
<stop stop-color="#2AABEE"/>
<stop offset="1" stop-color="#229ED9"/>
</linearGradient>
</defs>
</svg>
