<svg width="40" height="40" viewBox="0 0 40 40" fill="none" xmlns="http://www.w3.org/2000/svg">
<g clip-path="url(#clip0_948_5080)">
<path d="M38.335 30.2573L36.8643 21.4346C36.4877 19.1748 34.9222 17.6569 32.9688 17.6569H24.0652L25.6683 16.0535C27.2867 16.9498 29.3402 16.6907 30.6894 15.3412C31.4862 14.5444 31.925 13.4851 31.925 12.3581C31.925 11.2314 31.4862 10.1718 30.6894 9.375C30.1578 8.84308 29.5123 8.47137 28.7991 8.28217C28.6099 7.56927 28.2382 6.92352 27.7063 6.39191C26.9095 5.59509 25.8502 5.15625 24.7232 5.15625C23.5965 5.15625 22.5369 5.59509 21.7401 6.39191C20.3906 7.74139 20.1318 9.79462 21.0281 11.413L20.2274 12.2134C19.9225 12.5186 19.9225 13.0133 20.2274 13.3185C20.5325 13.6237 21.0272 13.6237 21.3324 13.3185L22.5845 12.0663C22.8656 11.7853 22.8909 11.3379 22.6431 11.0269C21.8018 9.97101 21.8887 8.45337 22.8452 7.49664C23.3469 6.99493 24.014 6.71875 24.7235 6.71875C25.4327 6.71875 26.0999 6.99493 26.6016 7.49664C27.0233 7.9184 27.2855 8.45367 27.359 9.04388C27.4033 9.3988 27.6828 9.67834 28.0377 9.7226C28.6279 9.79614 29.1629 10.058 29.5847 10.4797C30.0864 10.9814 30.3629 11.6486 30.3629 12.3581C30.3629 13.0676 30.0864 13.7347 29.5847 14.2365C28.6282 15.1929 27.1106 15.2795 26.0544 14.4382C25.7437 14.1907 25.2963 14.2157 25.0153 14.4968L21.8555 17.6566H16.9827C17.2153 17.3505 17.1924 16.9122 16.9131 16.6327C16.608 16.3278 16.1133 16.3278 15.8081 16.6327L14.7842 17.6566H7.03125C5.07782 17.6566 3.51227 19.1748 3.13568 21.4343L1.66504 30.2573C0.70282 30.549 0 31.4441 0 32.5006C0 33.793 1.05133 34.8444 2.34375 34.8444H37.6562C38.9487 34.8444 40 33.793 40 32.5006C40 31.4441 39.2972 30.549 38.335 30.2573V30.2573ZM4.67682 21.6913C4.86694 20.5511 5.59753 19.2194 7.03125 19.2194H32.9688C34.4025 19.2194 35.1331 20.5511 35.3232 21.6916L36.734 30.1569H3.26599L4.67682 21.6913ZM37.6562 33.2819H2.34375C1.91284 33.2819 1.5625 32.9312 1.5625 32.5006C1.5625 32.0697 1.91284 31.7194 2.34375 31.7194H37.6526H37.6553H37.6572C38.0875 31.7197 38.4375 32.07 38.4375 32.5006C38.4375 32.9312 38.0872 33.2819 37.6562 33.2819Z" fill="#535353"/>
<path d="M25.9378 28.5941C26.369 28.5941 26.7191 28.2444 26.7191 27.8128C26.7191 27.3813 26.369 27.0316 25.9378 27.0316H25.9372C25.5057 27.0316 25.1562 27.3813 25.1562 27.8128C25.1562 28.2444 25.5063 28.5941 25.9378 28.5941Z" fill="#535353"/>
<path d="M29.0625 28.5941H33.7497C34.1812 28.5941 34.5309 28.2444 34.5309 27.8128C34.5309 27.3813 34.1812 27.0316 33.7497 27.0316H29.0625C28.631 27.0316 28.2812 27.3813 28.2812 27.8128C28.2812 28.2444 28.631 28.5941 29.0625 28.5941Z" fill="#535353"/>
<path d="M20 23.1256C18.277 23.1256 16.875 24.3521 16.875 25.86C16.875 27.3676 18.277 28.5944 20 28.5944C21.723 28.5944 23.125 27.3676 23.125 25.86C23.125 24.3521 21.723 23.1256 20 23.1256ZM20 27.0319C19.1531 27.0319 18.4375 26.4951 18.4375 25.86C18.4375 25.2246 19.1531 24.6881 20 24.6881C20.8469 24.6881 21.5625 25.2249 21.5625 25.86C21.5625 26.4951 20.8469 27.0319 20 27.0319Z" fill="#535353"/>
<path d="M20 22.3447C20.4315 22.3447 20.7812 21.9943 20.7812 21.5631C20.7812 21.1316 20.4315 20.7819 20 20.7819C19.5685 20.7819 19.2188 21.1316 19.2188 21.5631V21.5634C19.2188 21.9949 19.5685 22.3447 20 22.3447Z" fill="#535353"/>
<path d="M16.4053 22.5486C16.553 22.7885 16.8091 22.9203 17.0712 22.9203C17.211 22.9203 17.3523 22.8831 17.4801 22.8043C17.8476 22.5782 17.962 22.0966 17.7359 21.7292C17.5098 21.3618 17.0285 21.2473 16.6611 21.4735C16.2936 21.6996 16.1789 22.1809 16.405 22.5483L16.4053 22.5486Z" fill="#535353"/>
<path d="M22.5204 22.8043C22.648 22.8828 22.7893 22.9203 22.9291 22.9203C23.1915 22.9203 23.4479 22.7882 23.5953 22.5483C23.8214 22.1806 23.707 21.6996 23.3395 21.4735C22.9721 21.2473 22.4908 21.3618 22.2647 21.7292L22.2644 21.7298C22.0383 22.0972 22.153 22.5782 22.5204 22.8043Z" fill="#535353"/>
<path d="M18.5699 15.7573C18.7823 15.7573 18.9941 15.6712 19.1483 15.5015L19.1489 15.5012C19.4391 15.182 19.4153 14.6882 19.0961 14.3977C18.7769 14.1075 18.2825 14.1313 17.9922 14.4505C17.702 14.7697 17.7255 15.2641 18.0447 15.5543C18.1946 15.6901 18.3826 15.7573 18.5699 15.7573Z" fill="#535353"/>
</g>
<defs>
<clipPath id="clip0_948_5080">
<rect width="40" height="40" fill="white"/>
</clipPath>
</defs>
</svg>
