<svg width="13" height="23" viewBox="0 0 13 23" fill="none" xmlns="http://www.w3.org/2000/svg">
<path d="M12.1376 0.369845C12.0214 0.252684 11.8831 0.159689 11.7308 0.0962283C11.5785 0.0327675 11.4151 9.56094e-05 11.2501 9.56094e-05C11.0851 9.56094e-05 10.9217 0.0327675 10.7694 0.0962283C10.617 0.159689 10.4788 0.252684 10.3626 0.369845L0.362569 10.3698C0.246718 10.4866 0.155059 10.6252 0.0928534 10.7775C0.0306476 10.9298 -0.000883173 11.0928 6.79445e-05 11.2573C-0.000883173 11.4218 0.0306476 11.5849 0.0928534 11.7372C0.155059 11.8895 0.246718 12.028 0.362569 12.1448L10.3626 22.1448C10.4791 22.2614 10.6175 22.3538 10.7698 22.4169C10.922 22.48 11.0853 22.5125 11.2501 22.5125C11.4149 22.5125 11.5781 22.48 11.7304 22.4169C11.8827 22.3538 12.021 22.2614 12.1376 22.1448C12.373 21.9095 12.5052 21.5902 12.5052 21.2573C12.5052 20.9245 12.373 20.6052 12.1376 20.3698L3.01257 11.2448L12.1376 2.14484C12.2547 2.02864 12.3477 1.89039 12.4112 1.73806C12.4747 1.58574 12.5073 1.42236 12.5073 1.25734C12.5073 1.09233 12.4747 0.928946 12.4112 0.776622C12.3477 0.624298 12.2547 0.486048 12.1376 0.369845V0.369845Z" fill="white"/>
</svg>
