<svg width="30" height="30" viewBox="0 0 30 30" fill="none" xmlns="http://www.w3.org/2000/svg">
<g clip-path="url(#clip0_1136_9630)">
<path d="M28.4444 14.927H29.4142C29.7377 14.927 30.0001 14.6647 30.0001 14.3411C30.0001 14.0175 29.7378 13.7552 29.4142 13.7552H27.6329L28.856 12.5321C29.0848 12.3033 29.0848 11.9323 28.856 11.7034C28.6273 11.4746 28.2564 11.4746 28.0273 11.7034L26.9276 12.8032L25.7366 11.1356C25.4423 10.7235 25.0919 10.3779 24.7027 10.1028L25.8694 9.9168C27.3824 9.67557 28.4805 8.3885 28.4805 6.85639C28.4805 5.14756 27.0902 3.75737 25.3814 3.75737C23.8493 3.75737 22.5623 4.85553 22.321 6.36848L22.3165 6.39702L22.3119 6.36848C22.0707 4.85553 20.7836 3.75737 19.2516 3.75737C18.2089 3.75737 17.2855 4.27551 16.7235 5.06735C14.5856 3.13874 11.6216 2.63202 8.96079 3.74934C8.66244 3.87467 8.52216 4.21809 8.64744 4.51645C8.77271 4.81475 9.11607 4.95503 9.41455 4.82981C11.6778 3.8793 14.2032 4.32637 16.0049 5.99653L16.2234 6.19909C16.1774 6.41108 16.1525 6.63081 16.1525 6.85633C16.1525 8.38838 17.2506 9.67551 18.7636 9.91674L19.8507 10.0901C18.6994 10.8637 18.0011 12.1499 18.0011 13.6142C18.0011 14.831 18.5141 15.9295 19.3342 16.7072H16.346C16.1133 15.3565 15.0903 14.2727 13.7718 13.9509C14.2095 13.305 14.4537 12.5344 14.4537 11.7395C14.4537 9.56782 12.6869 7.80104 10.5152 7.80104C10.1916 7.80104 9.92929 8.06336 9.92929 8.38698C9.92929 8.71059 10.1916 8.97291 10.5152 8.97291C12.0408 8.97291 13.2818 10.214 13.2818 11.7395C13.2818 12.5655 12.9263 13.326 12.3001 13.8532H11.8946C11.571 13.8532 11.3087 14.1155 11.3087 14.4391C11.3087 14.7627 11.571 15.0251 11.8946 15.0251H12.9561C14.0041 15.0251 14.8881 15.7398 15.1471 16.7073H11.8042C8.39706 16.7072 5.62511 13.9353 5.62511 10.5281C5.62511 9.69965 5.77558 8.90764 6.07242 8.17399C6.19376 7.87399 6.04898 7.53245 5.74898 7.41104C5.44898 7.28969 5.10744 7.43448 4.98603 7.73448C4.81722 8.15166 4.68867 8.58403 4.59984 9.0284C1.89193 9.74307 -0.0240876 12.2276 0.000228835 15.0589C0.0294085 18.4376 2.83124 21.1864 6.24609 21.1864H13.9138C15.1483 21.1864 16.1526 22.1907 16.1526 23.4251C16.1526 24.6596 15.1483 25.6638 13.9138 25.6638H10.8107C10.487 25.6638 10.2247 25.9261 10.2247 26.2497C10.2247 26.5734 10.487 26.8357 10.8107 26.8357H13.9138C15.7945 26.8357 17.3245 25.3057 17.3245 23.4251C17.3245 21.5446 15.7945 20.0145 13.9138 20.0145H6.24609C3.47185 20.0145 1.19572 17.7869 1.17216 15.0489C1.15376 12.9114 2.49949 11.0182 4.45687 10.3006C4.4547 10.3762 4.45324 10.452 4.45324 10.5282C4.45324 14.5815 7.75083 17.8791 11.8042 17.8791H24.3859L23.7434 18.5216C23.5145 18.7505 23.5145 19.1215 23.7434 19.3503C23.8578 19.4647 24.0077 19.5219 24.1577 19.5219C24.3076 19.5219 24.4576 19.4647 24.572 19.3503L25.9751 17.9472V19.0031C25.9751 19.3267 26.2375 19.589 26.561 19.589C26.8846 19.589 27.1469 19.3267 27.1469 19.0031V17.879H29.4142C29.6337 17.879 29.8348 17.7564 29.9352 17.5612C30.0356 17.3661 30.0186 17.1312 29.891 16.9526L28.4444 14.927ZM23.4783 6.55293C23.6283 5.6121 24.4287 4.92919 25.3814 4.92919C26.4441 4.92919 27.3086 5.79368 27.3086 6.85633C27.3086 7.80907 26.6258 8.60946 25.6849 8.7594L23.0598 9.17793L23.4783 6.55293ZM17.3245 6.85639C17.3245 5.79374 18.189 4.92924 19.2516 4.92924C20.2043 4.92924 21.0047 5.61215 21.1547 6.55299L21.5732 9.17799L18.9482 8.75946C18.0073 8.60952 17.3245 7.80913 17.3245 6.85639ZM22.266 16.7072C20.5605 16.7072 19.173 15.3197 19.173 13.6142C19.173 11.9503 20.2832 11.0017 21.3222 10.6688C21.6249 10.5718 21.9627 10.5138 22.3137 10.5138C23.1673 10.5138 24.0977 10.857 24.783 11.8166L28.2758 16.7072H22.266V16.7072Z" fill="#535353"/>
<path d="M22.6846 12.8353C22.5305 12.8353 22.3793 12.898 22.2704 13.007C22.1614 13.116 22.0987 13.2672 22.0987 13.4213C22.0987 13.5754 22.1614 13.7265 22.2704 13.8355C22.3793 13.9445 22.5305 14.0072 22.6846 14.0072C22.8388 14.0072 22.9899 13.9445 23.0989 13.8355C23.2079 13.7265 23.2706 13.5754 23.2706 13.4213C23.2706 13.2672 23.2079 13.116 23.0989 13.007C22.9899 12.898 22.8388 12.8353 22.6846 12.8353Z" fill="#535353"/>
<path d="M6.99473 6.34033C7.14883 6.34033 7.29941 6.27764 7.40898 6.16865C7.51797 6.05967 7.58066 5.9085 7.58066 5.75439C7.58066 5.59971 7.51797 5.44912 7.40898 5.34014C7.29941 5.23057 7.14883 5.16846 6.99473 5.16846C6.84004 5.16846 6.68887 5.23057 6.57988 5.34014C6.4709 5.44912 6.4082 5.59971 6.4082 5.75439C6.4082 5.9085 6.4709 6.05967 6.57988 6.16865C6.68887 6.27758 6.84004 6.34033 6.99473 6.34033Z" fill="#535353"/>
</g>
<defs>
<clipPath id="clip0_1136_9630">
<rect width="30" height="30" fill="white"/>
</clipPath>
</defs>
</svg>
