<svg width="66" height="66" viewBox="0 0 66 66" fill="none" xmlns="http://www.w3.org/2000/svg">
<circle r="32" transform="matrix(-1 0 0 1 33 33)" stroke="#FF7A5F" stroke-width="2"/>
<path d="M26.8126 33.0625H14.9375C14.42 33.0625 14 32.6425 14 32.125C14 31.6075 14.42 31.1875 14.9375 31.1875H26.8126C27.3301 31.1875 27.7501 31.6075 27.7501 32.125C27.7501 32.6425 27.3301 33.0625 26.8126 33.0625Z" fill="#FF7A5F"/>
<path d="M22.1253 37.7499C21.8852 37.7499 21.6453 37.6586 21.4626 37.4751C21.0964 37.1086 21.0964 36.5149 21.4626 36.1487L25.4878 32.1238L21.4626 28.1001C21.0964 27.7336 21.0964 27.1399 21.4626 26.7737C21.8289 26.4075 22.4226 26.4075 22.789 26.7737L27.4765 31.4612C27.8427 31.8274 27.8427 32.4211 27.4765 32.7876L22.789 37.4751C22.6052 37.6586 22.3651 37.7499 22.1253 37.7499Z" fill="#FF7A5F"/>
<path d="M33.9998 49C32.6211 49 31.5 47.8787 31.5 46.4999V23.9999C31.5 22.9313 32.18 21.9776 33.1924 21.6262L40.7024 19.1225C42.3824 18.6075 43.9999 19.8538 43.9999 21.5001V44.0001C43.9999 45.0676 43.3199 46.02 42.3087 46.3725L34.7961 48.8776C34.5224 48.9625 34.2688 49 33.9998 49ZM41.4998 20.875C41.4186 20.875 41.3499 20.8851 41.2762 20.9075L33.7975 23.4012C33.5524 23.4863 33.375 23.7338 33.375 23.9999V46.4999C33.375 46.9263 33.8373 47.2138 34.2237 47.0925L41.7024 44.5988C41.9462 44.5137 42.1249 44.2663 42.1249 44.0001V21.5001C42.1249 21.1563 41.845 20.875 41.4998 20.875Z" fill="#FF7A5F"/>
<path d="M24.9375 25.2501C24.42 25.2501 24 24.8301 24 24.3126V22.4376C24 20.5413 25.5411 19 27.4373 19H41.4998C42.0173 19 42.4373 19.42 42.4373 19.9375C42.4373 20.455 42.0173 20.875 41.4998 20.875H27.4373C26.5761 20.875 25.875 21.5763 25.875 22.4376V24.3126C25.875 24.8301 25.455 25.2501 24.9375 25.2501Z" fill="#FF7A5F"/>
<path d="M32.4375 45.2501H27.4373C25.5411 45.2501 24 43.7088 24 41.8125V39.9375C24 39.42 24.42 39 24.9375 39C25.455 39 25.875 39.42 25.875 39.9375V41.8125C25.875 42.6738 26.5761 43.3751 27.4373 43.3751H32.4375C32.955 43.3751 33.375 43.7951 33.375 44.3126C33.375 44.8301 32.955 45.2501 32.4375 45.2501Z" fill="#FF7A5F"/>
</svg>
