<svg width="16" height="9" viewBox="0 0 16 9" fill="none" xmlns="http://www.w3.org/2000/svg">
<path d="M0.741191 0.741494C0.663084 0.818963 0.601088 0.911131 0.558781 1.01268C0.516473 1.11423 0.494692 1.22315 0.494692 1.33316C0.494692 1.44317 0.516473 1.55209 0.558781 1.65364C0.601088 1.75519 0.663084 1.84736 0.741191 1.92483L7.40786 8.5915C7.48572 8.66873 7.57807 8.72984 7.6796 8.77131C7.78113 8.81278 7.88985 8.8338 7.99952 8.83317C8.10919 8.8338 8.21791 8.81278 8.31944 8.77131C8.42097 8.72984 8.51332 8.66873 8.59119 8.5915L15.2579 1.92483C15.3356 1.84713 15.3972 1.75489 15.4392 1.65337C15.4813 1.55185 15.5029 1.44304 15.5029 1.33316C15.5029 1.22328 15.4813 1.11447 15.4392 1.01295C15.3972 0.911434 15.3356 0.819193 15.2579 0.741494C15.1009 0.584574 14.8881 0.496418 14.6662 0.496418C14.4443 0.496418 14.2314 0.584574 14.0745 0.741494L7.99119 6.82483L1.92452 0.741494C1.84705 0.663387 1.75489 0.601392 1.65334 0.559085C1.55179 0.516777 1.44287 0.494995 1.33286 0.494995C1.22285 0.494995 1.11393 0.516777 1.01238 0.559085C0.910827 0.601392 0.818661 0.663387 0.741191 0.741494Z" fill="#BFBFBF"/>
<path d="M0.741191 0.741494C0.663084 0.818963 0.601088 0.911131 0.558781 1.01268C0.516473 1.11423 0.494692 1.22315 0.494692 1.33316C0.494692 1.44317 0.516473 1.55209 0.558781 1.65364C0.601088 1.75519 0.663084 1.84736 0.741191 1.92483L7.40786 8.5915C7.48572 8.66873 7.57807 8.72984 7.6796 8.77131C7.78113 8.81278 7.88985 8.8338 7.99952 8.83317C8.10919 8.8338 8.21791 8.81278 8.31944 8.77131C8.42097 8.72984 8.51332 8.66873 8.59119 8.5915L15.2579 1.92483C15.3356 1.84713 15.3972 1.75489 15.4392 1.65337C15.4813 1.55185 15.5029 1.44304 15.5029 1.33316C15.5029 1.22328 15.4813 1.11447 15.4392 1.01295C15.3972 0.911434 15.3356 0.819193 15.2579 0.741494C15.1009 0.584574 14.8881 0.496418 14.6662 0.496418C14.4443 0.496418 14.2314 0.584574 14.0745 0.741494L7.99119 6.82483L1.92452 0.741494C1.84705 0.663387 1.75489 0.601392 1.65334 0.559085C1.55179 0.516777 1.44287 0.494995 1.33286 0.494995C1.22285 0.494995 1.11393 0.516777 1.01238 0.559085C0.910827 0.601392 0.818661 0.663387 0.741191 0.741494Z" fill="black" fill-opacity="0.2"/>
</svg>
