<svg width="16" height="9" viewBox="0 0 16 9" fill="none" xmlns="http://www.w3.org/2000/svg">
<path d="M15.2589 8.25851C15.337 8.18104 15.399 8.08887 15.4413 7.98732C15.4836 7.88577 15.5054 7.77685 15.5054 7.66684C15.5054 7.55683 15.4836 7.44791 15.4413 7.34636C15.399 7.24481 15.337 7.15264 15.2589 7.07517L8.5922 0.4085C8.51434 0.33127 8.42199 0.27016 8.32046 0.22869C8.21893 0.18722 8.11021 0.1662 8.00054 0.16683C7.89087 0.1662 7.78215 0.18722 7.68062 0.22869C7.57909 0.27016 7.48674 0.33127 7.40887 0.4085L0.742163 7.07517C0.664463 7.15287 0.602863 7.24511 0.560863 7.34663C0.518763 7.44815 0.497163 7.55696 0.497163 7.66684C0.497163 7.77672 0.518763 7.88553 0.560863 7.98705C0.602863 8.08857 0.664463 8.18081 0.742163 8.25851C0.899163 8.41543 1.11196 8.50358 1.33386 8.50358C1.55576 8.50358 1.76866 8.41543 1.92556 8.25851L8.00887 2.17517L14.0755 8.25851C14.153 8.33661 14.2452 8.39861 14.3467 8.44091C14.4483 8.48322 14.5572 8.505 14.6672 8.505C14.7772 8.505 14.8861 8.48322 14.9877 8.44091C15.0892 8.39861 15.1814 8.33661 15.2589 8.25851Z" fill="black" fill-opacity="0.2"/>
</svg>
