<svg width="30" height="30" viewBox="0 0 30 30" fill="none" xmlns="http://www.w3.org/2000/svg">
<g clip-path="url(#clip0_1136_9540)">
<path d="M29.1813 8.13544C28.5774 7.81622 27.9912 7.46278 27.426 7.07841C27.6544 6.90837 27.8821 6.68261 28.062 6.38425C28.4284 5.77657 28.4966 5.04198 28.2647 4.20081C28.2164 4.02556 28.0964 3.87872 27.9281 3.81011C27.7598 3.74143 27.576 3.75081 27.419 3.84239C27.2088 3.95384 26.9808 3.99567 26.7418 3.96614C26.0643 3.88306 25.389 4.10472 24.7894 4.60757C24.6217 4.74813 24.4367 4.93698 24.2902 5.11704C24.1482 5.09548 24.0043 5.08382 23.8592 5.08382C23.7135 5.08382 23.5695 5.09518 23.428 5.11663C23.2815 4.93669 23.0966 4.74802 22.929 4.60757C22.3295 4.10466 21.6543 3.88288 20.9766 3.96614C20.7387 3.99561 20.5116 3.95419 20.3022 3.8438L20.2991 3.84216C20.142 3.75649 19.9544 3.74747 19.7898 3.81714C19.625 3.88698 19.5012 4.02831 19.4537 4.20087C19.2219 5.04192 19.2901 5.77657 19.6565 6.38425C19.9308 6.83929 20.3164 7.12634 20.6464 7.30259C20.3581 7.4752 20.0239 7.57112 19.6752 7.57112H11.6462C11.3227 7.57112 11.0603 7.8335 11.0603 8.15706C11.0603 8.48061 11.3227 8.743 11.6462 8.743H13.3747V10.5318C13.3747 10.8549 13.1119 11.1177 12.7888 11.1177C11.9487 11.1177 11.2654 11.8011 11.2654 12.6412C11.2654 12.8351 11.1077 12.9927 10.9138 12.9927H7.74123C7.20639 12.9927 6.73506 12.6709 6.54053 12.1727C6.29016 11.5318 5.68383 11.1177 4.99582 11.1177C4.80194 11.1177 4.64426 10.9601 4.64426 10.7662V8.81085C4.89077 8.76673 5.14266 8.743 5.39836 8.743H6.37278C6.69633 8.743 6.95871 8.48061 6.95871 8.15706C6.95871 7.8335 6.69633 7.57112 6.37278 7.57112H5.39836C3.9552 7.57112 2.59881 8.13344 1.57893 9.15444C0.559047 10.1755 -0.00163703 11.5326 3.59031e-06 12.9757L0.00211297 22.3593C0.00211297 22.6829 0.264496 22.9452 0.58805 22.9452C0.911664 22.9452 1.17399 22.6829 1.17399 22.3593V17.9957C1.50797 18.4172 1.90694 18.7922 2.36338 19.106L2.92664 21.0261V25.19C2.92664 25.7662 3.39539 26.2349 3.97155 26.2349H8.52774C8.90637 26.2349 9.24862 26.0409 9.44315 25.7161C9.63768 25.3912 9.64711 24.998 9.4684 24.6641L9.10653 23.9883V20.4374H14.3835C14.509 20.7049 14.6719 20.955 14.8695 21.178V25.1901C14.8695 25.7662 15.3382 26.2349 15.9144 26.2349H20.2567C20.6354 26.2349 20.9777 26.041 21.1722 25.7161C21.3667 25.3912 21.3761 24.998 21.1974 24.6642L20.8355 23.9884V20.1254C22.8838 19.4021 24.3555 17.4469 24.3555 15.1542V12.8922C24.3555 12.4752 24.6948 12.136 25.1117 12.136H28.3734C29.2703 12.136 30 11.4063 30 10.5094V9.49423C30 8.923 29.6864 8.40233 29.1813 8.13544ZM26.599 5.12934C26.8099 5.15513 27.0203 5.15249 27.226 5.12184C27.226 5.37069 27.1716 5.58802 27.0631 5.77147C26.8893 6.06503 26.6022 6.236 26.3994 6.32612C26.1747 6.14958 25.953 5.96917 25.7368 5.78249C25.65 5.70755 25.5589 5.63876 25.4647 5.57524C25.7344 5.32768 26.134 5.07233 26.599 5.12934ZM21.1195 5.12934C21.5846 5.07239 21.9839 5.32733 22.2534 5.57466C21.9411 5.78524 21.6696 6.05782 21.4578 6.38091C21.2759 6.31716 20.8794 6.14284 20.66 5.77909C20.5485 5.59399 20.4926 5.37421 20.4925 5.12196C20.6981 5.15255 20.9085 5.15524 21.1195 5.12934ZM1.17399 14.6179L1.17381 14.4978C2.46528 14.5215 3.50871 15.5786 3.50871 16.8756C3.50871 17.3519 3.36704 17.8085 3.10911 18.1948C1.89791 17.4012 1.17586 16.0704 1.17399 14.6179ZM8.00409 24.412L8.35272 25.0631H7.16332C7.14955 24.9262 7.10895 24.7909 7.0411 24.6641L6.67916 23.9883V21.1606C6.9876 20.9593 7.25877 20.7148 7.487 20.4374H7.93465V24.1353C7.93465 24.2319 7.9585 24.3269 8.00409 24.412ZM19.733 24.412L20.0817 25.0631H18.8356C18.8187 24.8927 18.7611 24.7258 18.6628 24.5777L18.4462 24.2515V21.1291C18.7181 20.9221 18.9598 20.6846 19.1687 20.4236C19.3356 20.421 19.5007 20.4106 19.6636 20.3928V24.1355C19.6637 24.2319 19.6875 24.3269 19.733 24.412ZM23.1836 12.9246C23.1824 13.6922 22.5575 14.3164 21.7896 14.3164H17.5419C17.2819 14.3164 17.0704 14.105 17.0704 13.845C17.0704 13.5851 17.2819 13.3735 17.5419 13.3735H17.5854C18.4172 13.3735 19.094 12.6967 19.094 11.8649C19.094 11.6792 19.2451 11.5281 19.4308 11.5281H21.7896C22.5575 11.5281 23.1824 12.1523 23.1836 12.92V12.9246ZM28.8281 10.5094C28.8281 10.76 28.6242 10.9641 28.3734 10.9641H25.1117C24.6383 10.9641 24.2045 11.1358 23.8685 11.42C23.4019 10.776 22.6439 10.3563 21.7896 10.3563H19.4308C18.5989 10.3563 17.9221 11.033 17.9221 11.8649C17.9221 12.0506 17.7711 12.2017 17.5854 12.2017H17.5419C16.6357 12.2017 15.8985 12.9388 15.8985 13.845C15.8985 14.7511 16.6357 15.4883 17.5419 15.4883H21.7896C22.3034 15.4883 22.7818 15.3355 23.1836 15.0743V15.1541C23.1836 17.153 21.745 18.8211 19.849 19.1802C19.9917 18.7592 20.0674 18.3118 20.0674 17.8522V17.2422C20.0674 16.9186 19.805 16.6563 19.4814 16.6563C19.1579 16.6563 18.8955 16.9186 18.8955 17.2422V17.8522C18.8955 18.8596 18.3899 19.7867 17.543 20.3323C17.3756 20.4401 17.2744 20.6256 17.2744 20.8248V24.4283C17.2744 24.5436 17.3084 24.6564 17.3722 24.7524L17.5785 25.0631H16.0414V20.942C16.0414 20.7814 15.9755 20.6278 15.859 20.5172C15.4784 20.1556 15.2601 19.6471 15.2601 19.1221V17.4667C15.2601 17.1432 14.9978 16.8808 14.6742 16.8808C14.3506 16.8808 14.0882 17.1432 14.0882 17.4667V19.1221C14.0882 19.17 14.0894 19.2179 14.0916 19.2656H8.12754C8.24051 18.9148 8.30034 18.543 8.30034 18.1611V17.0858C8.30034 16.7623 8.03795 16.4999 7.7144 16.4999C7.39084 16.4999 7.12846 16.7623 7.12846 17.0858V18.1611C7.12846 19.0669 6.62866 19.8882 5.82411 20.3043C5.62952 20.4049 5.50735 20.6056 5.50735 20.8247V24.1353C5.50735 24.2318 5.5312 24.3268 5.57678 24.4119L5.92547 25.063H4.09852V20.9419C4.09852 20.8861 4.09055 20.8306 4.07485 20.777L3.66077 19.3654C4.31262 18.7038 4.68065 17.8152 4.68065 16.8755C4.68065 14.9318 3.11069 13.3488 1.17235 13.3258L1.17188 12.9743C1.17053 11.8445 1.60957 10.782 2.40803 9.98255C2.72514 9.66503 3.08438 9.40522 3.47239 9.20612V10.7661C3.47239 11.6062 4.15577 12.2896 4.99582 12.2896C5.19762 12.2896 5.37551 12.411 5.44899 12.599C5.82041 13.55 6.72018 14.1646 7.74123 14.1646H10.9138C11.7539 14.1646 12.4372 13.4812 12.4372 12.6411C12.4372 12.4472 12.595 12.2896 12.7889 12.2896C13.7581 12.2896 14.5466 11.501 14.5466 10.5317V8.74294H19.6752C20.7981 8.74294 21.8289 8.13016 22.3652 7.1438C22.6632 6.59595 23.2356 6.25569 23.8592 6.25569C24.2673 6.25569 24.6619 6.40259 24.9708 6.6693C26.0919 7.63745 27.3243 8.47938 28.6337 9.17143C28.7537 9.23483 28.8281 9.35846 28.8281 9.49417V10.5094Z" fill="#535353"/>
<path d="M24.8438 8.02368C24.6896 8.02368 24.5385 8.08638 24.4295 8.19536C24.3205 8.30435 24.2578 8.45558 24.2578 8.6102C24.2578 8.76431 24.3204 8.91548 24.4295 9.02446C24.5385 9.13345 24.6896 9.19556 24.8438 9.19556C24.9979 9.19556 25.149 9.13351 25.2579 9.02446C25.3669 8.91489 25.4297 8.76431 25.4297 8.6102C25.4297 8.45552 25.367 8.30493 25.2579 8.19536C25.149 8.08644 24.9979 8.02368 24.8438 8.02368Z" fill="#535353"/>
<path d="M9.00977 8.74316C9.16387 8.74316 9.31504 8.68047 9.42402 8.57148C9.53295 8.4625 9.5957 8.31133 9.5957 8.15723C9.5957 8.00248 9.53301 7.85137 9.42402 7.74238C9.31504 7.6334 9.16381 7.57129 9.00977 7.57129C8.85566 7.57129 8.70449 7.6334 8.59551 7.74238C8.48658 7.85195 8.42383 8.00248 8.42383 8.15723C8.42383 8.31133 8.48652 8.4625 8.59551 8.57148C8.70449 8.68041 8.85566 8.74316 9.00977 8.74316Z" fill="#535353"/>
</g>
<defs>
<clipPath id="clip0_1136_9540">
<rect width="30" height="30" fill="white"/>
</clipPath>
</defs>
</svg>
