<svg width="30" height="30" viewBox="0 0 30 30" fill="none" xmlns="http://www.w3.org/2000/svg">
<g clip-path="url(#clip0_1136_9530)">
<path d="M29.9943 7.95246C29.9836 7.58543 29.6754 7.29703 29.3104 7.3074C28.9434 7.31818 28.6546 7.62439 28.6653 7.99136C28.6675 8.06671 28.6693 8.14377 28.6708 8.22234C28.6775 8.58527 28.9738 8.8749 29.3352 8.8749C29.3393 8.8749 29.3435 8.8749 29.3476 8.87484C29.7147 8.86804 30.0068 8.56499 30 8.19785C29.9986 8.11423 29.9967 8.03244 29.9943 7.95246Z" fill="#535353"/>
<path d="M29.3382 9.28043C28.9713 9.25523 28.6548 9.53261 28.6301 9.89888C28.4873 12.0142 27.915 14.9378 25.9999 16.8529C25.0764 17.7763 23.8351 18.4731 22.3103 18.9242C19.753 19.5236 16.9267 19.6437 15.7345 19.6671C15.7284 19.4766 15.7264 19.2833 15.7292 19.0881C15.7295 19.0675 15.7288 19.0468 15.7272 19.0262C15.6871 18.5205 15.6668 17.9942 15.6668 17.462C15.6668 14.9105 16.1308 11.4051 18.3414 9.19441C21.9208 5.61504 29.001 6.66568 29.0721 6.67676C29.4345 6.73289 29.7745 6.48527 29.8313 6.12264C29.888 5.75982 29.6399 5.4198 29.2772 5.36303C29.1982 5.35066 27.3127 5.06232 24.9188 5.25902C21.695 5.52416 19.0955 6.55986 17.4012 8.25416C16.6662 8.98916 16.1006 9.83754 15.6667 10.7394V7.97168C15.6667 5.84555 17.3965 4.11574 19.5227 4.11574H19.5672C19.9343 4.11574 20.232 3.81809 20.232 3.45094C20.232 3.08379 19.9343 2.78613 19.5672 2.78613H19.5227C17.5841 2.78613 15.8916 3.85617 15.0019 5.43586C14.1123 3.85605 12.4198 2.78613 10.4812 2.78613H10.4367C10.0696 2.78613 9.77185 3.08379 9.77185 3.45094C9.77185 3.81809 10.0696 4.11574 10.4367 4.11574H10.4812C12.6073 4.11574 14.3371 5.84555 14.3371 7.97168V10.7394C13.9032 9.83754 13.3378 8.98916 12.6027 8.25416C10.9083 6.55986 8.30871 5.52416 5.085 5.25902C2.69133 5.06215 0.805778 5.35066 0.726618 5.36303C0.441149 5.40773 0.217263 5.63162 0.172555 5.91709C0.160134 5.99619 -0.128265 7.88174 0.0685515 10.2755C0.333688 13.4992 1.36939 16.0987 3.06375 17.7931C3.959 18.6883 5.09285 19.397 6.44303 19.9065C5.8023 20.9347 5.41488 22.2337 5.28855 23.7824C5.21238 24.7107 5.54771 25.6221 6.20865 26.283C6.80789 26.8823 7.61285 27.2139 8.44939 27.2139C8.53564 27.2139 8.62224 27.2103 8.70896 27.2032C10.7999 27.0328 12.4925 26.3557 13.6041 25.2448C13.8759 24.9728 14.12 24.6699 14.3371 24.3378V25.5739C14.3371 25.9411 14.6348 26.2387 15.0019 26.2387C15.369 26.2387 15.6667 25.9411 15.6667 25.5739V24.3315C15.8848 24.6688 16.1294 24.9745 16.4 25.245C17.5113 26.3557 19.2039 27.0328 21.2944 27.2031C21.3813 27.2102 21.4678 27.2138 21.5542 27.2138C22.3909 27.2138 23.1959 26.8822 23.7952 26.283C24.456 25.622 24.7914 24.7106 24.7153 23.7827C24.589 22.2337 24.2015 20.9347 23.5608 19.9064C24.9109 19.3969 26.0448 18.6881 26.9401 17.793C29.1468 15.5863 29.7986 12.3308 29.9567 9.98836C29.9814 9.62215 29.7045 9.30521 29.3382 9.28043ZM12.6638 24.3047C11.5453 25.4226 9.83701 25.7773 8.60051 25.8781C8.06185 25.9222 7.5331 25.7271 7.14885 25.3429C6.76459 24.9586 6.56953 24.4295 6.61371 23.8909C6.69973 22.836 6.97506 21.3999 7.77879 20.3061C10.3006 20.8496 12.9167 20.9705 14.1476 20.996C13.973 22.1058 13.5688 23.3991 12.6638 24.3047ZM14.2765 19.0262C14.275 19.0468 14.2743 19.0675 14.2746 19.0881C14.2774 19.2833 14.2754 19.4767 14.2693 19.6673C13.078 19.6441 10.2543 19.5244 7.69348 18.9241C6.16875 18.4731 4.92732 17.7763 4.00388 16.8529C0.976814 13.8257 1.26117 8.29494 1.42758 6.61752C3.10553 6.4493 8.62939 6.16137 11.6623 9.19441C13.873 11.405 14.337 14.9105 14.337 17.462C14.337 17.9943 14.3167 18.5206 14.2765 19.0262ZM22.8549 25.343C22.4706 25.7272 21.9417 25.9221 21.4028 25.8781C20.1667 25.7773 18.4584 25.4226 17.3401 24.3049C16.4349 23.3996 16.0308 22.1061 15.8561 20.9961C17.0871 20.9705 19.7031 20.8496 22.2249 20.3062C23.0286 21.4 23.304 22.8361 23.39 23.8913C23.4342 24.4295 23.2392 24.9586 22.8549 25.343Z" fill="#535353"/>
</g>
<defs>
<clipPath id="clip0_1136_9530">
<rect width="30" height="30" fill="white"/>
</clipPath>
</defs>
</svg>
