<svg width="40" height="34" viewBox="0 0 40 34" fill="none" xmlns="http://www.w3.org/2000/svg">
<path d="M39.1176 9.37381C38.6283 9.34022 38.2064 9.71006 38.1734 10.1984C37.983 13.0188 37.22 16.9169 34.6665 19.4704C33.4352 20.7017 31.7801 21.6307 29.747 22.2322C26.3373 23.0314 22.5689 23.1915 20.9793 23.2227C20.9712 22.9686 20.9686 22.711 20.9722 22.4508C20.9726 22.4232 20.9717 22.3956 20.9696 22.3682C20.9161 21.694 20.889 20.9922 20.889 20.2826C20.889 16.8806 21.5077 12.2067 24.4552 9.25912C29.2277 4.48663 38.668 5.88748 38.7627 5.90225C39.2459 5.97709 39.6994 5.64694 39.775 5.16342C39.8507 4.67967 39.5199 4.22631 39.0362 4.15061C38.9308 4.13413 36.4169 3.74967 33.2251 4.01194C28.9267 4.36545 25.4607 5.74639 23.2015 8.00545C22.2215 8.98545 21.4675 10.1166 20.889 11.3191V7.62881C20.889 4.79397 23.1954 2.48756 26.0302 2.48756H26.0896C26.579 2.48756 26.976 2.09069 26.976 1.60116C26.976 1.11163 26.579 0.714752 26.0896 0.714752H26.0302C23.4455 0.714752 21.1888 2.14147 20.0026 4.24772C18.8164 2.14131 16.5597 0.714752 13.9749 0.714752H13.9155C13.4261 0.714752 13.0291 1.11163 13.0291 1.60116C13.0291 2.09069 13.4261 2.48756 13.9155 2.48756H13.9749C16.8097 2.48756 19.1162 4.79397 19.1162 7.62881V11.3191C18.5376 10.1166 17.7837 8.98545 16.8036 8.00545C14.5444 5.74639 11.0783 4.36545 6.77998 4.01194C3.58841 3.74944 1.07435 4.13413 0.968804 4.15061C0.588179 4.21022 0.289663 4.50873 0.230054 4.88936C0.213491 4.99483 -0.17104 7.50889 0.0913817 10.7005C0.444897 14.9989 1.82584 18.4649 4.08498 20.724C5.27865 21.9176 6.79045 22.8626 8.59068 23.5419C7.73638 24.9129 7.21982 26.6448 7.05138 28.7098C6.94982 29.9475 7.39693 31.1627 8.27818 32.044C9.07717 32.8429 10.1504 33.2851 11.2658 33.285C11.3808 33.285 11.4963 33.2804 11.6119 33.2708C14.3998 33.0436 16.6566 32.1408 18.1387 30.6596C18.5012 30.2969 18.8266 29.8931 19.1161 29.4504V31.0985C19.1161 31.5881 19.513 31.9849 20.0025 31.9849C20.4919 31.9849 20.8889 31.588 20.8889 31.0985V29.4419C21.1797 29.8916 21.5058 30.2992 21.8666 30.66C23.3483 32.1408 25.6052 33.0436 28.3926 33.2708C28.5083 33.2802 28.6237 33.285 28.7389 33.285C29.8545 33.285 30.9279 32.8429 31.7269 32.0439C32.608 31.1626 33.0552 29.9473 32.9537 28.7102C32.7853 26.6448 32.2687 24.9128 31.4144 23.5418C33.2145 22.8624 34.7264 21.9174 35.9201 20.7239C38.8623 17.7816 39.7314 13.441 39.9423 10.3177C39.9752 9.82944 39.6059 9.40686 39.1176 9.37381ZM16.8851 29.4061C15.3937 30.8967 13.116 31.3697 11.4673 31.504C10.7491 31.5629 10.0441 31.3027 9.53178 30.7904C9.01943 30.278 8.75935 29.5725 8.81826 28.8544C8.93295 27.4479 9.30006 25.5331 10.3717 24.0747C13.7341 24.7994 17.2222 24.9605 18.8635 24.9946C18.6306 26.4743 18.0917 28.1987 16.8851 29.4061ZM19.0354 22.3682C19.0333 22.3957 19.0323 22.4233 19.0327 22.4508C19.0365 22.711 19.0338 22.9688 19.0257 23.2229C17.4373 23.1921 13.6724 23.0325 10.2579 22.2321C8.22498 21.6307 6.56974 20.7017 5.33849 19.4704C1.3024 15.4342 1.68154 8.05983 1.90341 5.82327C4.14068 5.59897 11.5058 5.21506 15.5497 9.25912C18.4972 12.2065 19.1159 16.8805 19.1159 20.2826C19.116 20.9922 19.0889 21.694 19.0354 22.3682ZM30.4732 30.7905C29.9608 31.3029 29.2555 31.5627 28.5371 31.504C26.8889 31.3697 24.6112 30.8967 23.1201 29.4064C21.9132 28.1994 21.3744 26.4747 21.1414 24.9947C22.7828 24.9606 26.2708 24.7994 29.6332 24.0748C30.7048 25.5332 31.072 27.4481 31.1866 28.855C31.2456 29.5725 30.9855 30.2781 30.4732 30.7905Z" fill="#535353"/>
</svg>
