<svg width="16" height="9" viewBox="0 0 16 9" fill="none" xmlns="http://www.w3.org/2000/svg">
<path d="M0.246449 0.246498C0.168343 0.323968 0.106346 0.416135 0.0640392 0.517685C0.0217323 0.619235 -4.96229e-05 0.728156 -4.96277e-05 0.838166C-4.96325e-05 0.948176 0.0217323 1.0571 0.0640392 1.15865C0.106346 1.2602 0.168343 1.35236 0.246449 1.42983L6.91311 8.09651C6.99098 8.17375 7.08332 8.23485 7.18485 8.27632C7.28638 8.31779 7.3951 8.33881 7.50478 8.33818C7.61445 8.33881 7.72317 8.31779 7.8247 8.27632C7.92623 8.23485 8.01857 8.17375 8.09644 8.09651L14.7631 1.42983C14.8408 1.35214 14.9024 1.25989 14.9445 1.15838C14.9865 1.05686 15.0082 0.94805 15.0082 0.838167C15.0082 0.728284 14.9865 0.619477 14.9445 0.517958C14.9024 0.41644 14.8408 0.324198 14.7631 0.246499C14.6062 0.089579 14.3934 0.00142254 14.1714 0.00142253C13.9495 0.00142252 13.7367 0.0895789 13.5798 0.246499L7.49644 6.32984L1.42978 0.246498C1.35231 0.168391 1.26015 0.106396 1.1586 0.0640888C1.05705 0.0217815 0.948125 -6.14584e-07 0.838115 -6.19393e-07C0.728106 -6.24202e-07 0.619184 0.0217815 0.517634 0.0640888C0.416085 0.106396 0.323919 0.168391 0.246449 0.246498Z" fill="#FF7A5F"/>
</svg>
