<svg width="30" height="30" viewBox="0 0 30 30" fill="none" xmlns="http://www.w3.org/2000/svg">
<g clip-path="url(#clip0_1136_9491)">
<path d="M28.3443 12.1556L27.6026 11.0845C26.4414 9.40755 24.5539 8.38504 22.5228 8.32222L14.6905 0.489897C14.144 -0.0565432 13.3311 -0.155917 12.6674 0.242575C12.0064 0.639602 11.7134 1.40102 11.9381 2.13724C12.5263 4.06338 13.5795 5.78655 14.9916 7.17503L11.084 6.12797C10.3378 5.92805 9.58378 6.24838 9.20832 6.92525C8.83438 7.59959 8.96123 8.40554 9.52408 8.93077C11.6647 10.9284 14.5068 12.0766 17.4302 12.1482C17.3338 12.5369 17.2818 12.9431 17.2818 13.3612C17.2818 13.3893 17.2835 13.4171 17.2839 13.4451H11.5472C10.295 13.4451 9.09166 13.7179 7.9706 14.2558C7.6788 14.3958 7.55582 14.7458 7.69585 15.0375C7.79663 15.2475 8.00616 15.3702 8.22448 15.3702C8.30944 15.3702 8.39581 15.3516 8.47754 15.3124C9.43906 14.851 10.4719 14.6171 11.5472 14.6171H17.4401C17.9996 16.7918 19.977 18.4034 22.3239 18.4034H24.9609C24.7445 20.2558 24.0141 21.9878 22.8493 23.4304V22.8321C22.8493 22.5085 22.587 22.2461 22.2634 22.2461C21.9399 22.2461 21.6775 22.5085 21.6775 22.8321V26.7094C21.6775 27.033 21.9399 27.2953 22.2634 27.2953C23.2285 27.2953 24.0449 27.944 24.2998 28.8281H20.8874L19.5035 23.3448C19.4243 23.031 19.1056 22.8409 18.7919 22.9201C18.4782 22.9993 18.288 23.3178 18.3672 23.6316L19.0453 26.3182C18.4876 26.5575 17.9099 26.7444 17.3179 26.8766C16.9269 26.5536 16.4604 26.3188 15.949 26.2036C16.009 25.8309 16.0213 25.4515 15.9857 25.0694C15.7733 22.7931 13.8778 21.0101 11.6705 21.0101C10.4407 21.0101 9.28361 21.4657 8.41239 22.2931C7.52435 23.1365 7.03521 24.2727 7.03521 25.4924C7.03521 26.2541 7.22582 26.9718 7.56074 27.6016C5.67966 26.322 4.4417 24.1642 4.4417 21.7227C4.4417 20.6758 4.66389 19.668 5.10211 18.727C5.23869 18.4337 5.11166 18.0851 4.81828 17.9485C4.52473 17.8119 4.17628 17.9389 4.03976 18.2323C3.52888 19.3294 3.26984 20.5037 3.26984 21.7227C3.26984 22.3543 3.34121 22.9694 3.47585 23.5608C2.02936 23.8944 0.947266 25.192 0.947266 26.7384C0.947266 28.5369 2.41045 30.0001 4.20891 30.0001C5.29529 30.0001 6.3052 29.4478 6.90502 28.5725C8.22753 29.4716 9.82267 29.9982 11.5385 30C11.5399 30 11.5413 30.0001 11.5428 30.0001H17.9303C18.2538 30.0001 18.5162 29.7378 18.5162 29.4142C18.5162 28.8601 18.378 28.3379 18.1351 27.8793C18.5426 27.7654 18.9431 27.6276 19.3352 27.4672L19.8628 29.5576C19.9285 29.8178 20.1625 30.0001 20.4309 30.0001H24.9681C25.2916 30.0001 25.554 29.7378 25.554 29.4142C25.554 27.7997 24.3853 26.4529 22.8493 26.1759V25.166C24.7553 23.3169 25.9161 20.885 26.1545 18.2525C27.8247 17.7794 29.0524 16.242 29.0524 14.4222C29.0524 13.6084 28.8076 12.8246 28.3443 12.1556ZM4.20886 28.8281C3.05656 28.8281 2.11907 27.8907 2.11907 26.7383C2.11907 25.7194 2.85219 24.869 3.81851 24.6855C4.28643 25.9019 5.03314 26.981 5.98071 27.8435C5.60331 28.4442 4.93318 28.8281 4.20886 28.8281ZM11.5471 28.8281C11.5442 28.8281 11.5413 28.828 11.5385 28.828C9.70109 28.8257 8.20702 27.3302 8.20702 25.4923C8.20702 23.636 9.72833 22.1819 11.6704 22.1819C13.2791 22.1819 14.6621 23.498 14.8189 25.1782C14.8617 25.6376 14.8109 26.0913 14.668 26.5267C14.6094 26.7051 14.6399 26.901 14.7501 27.0531C14.8603 27.2053 15.0368 27.2954 15.2247 27.2954H15.2257C16.1907 27.2954 17.0071 27.944 17.2619 28.8282H11.5471V28.8281ZM13.0589 1.79506C12.9582 1.46524 13.1956 1.29233 13.2708 1.24716C13.347 1.20145 13.6148 1.07132 13.8618 1.31852L21.0311 8.48781C20.8555 8.53445 20.684 8.59081 20.5164 8.65544L17.9304 7.96252C15.5813 6.58072 13.8518 4.39173 13.0589 1.79506ZM10.3236 8.07408C10.0715 7.83883 10.1906 7.57036 10.2332 7.49366C10.2762 7.41596 10.4431 7.16946 10.7807 7.25993L19.099 9.48881C18.6043 9.90154 18.1895 10.4069 17.8818 10.9782C15.0966 11.02 12.358 9.97274 10.3236 8.07408ZM25.0711 17.2316H22.3239C20.1898 17.2316 18.4536 15.4954 18.4536 13.3613C18.4536 11.2272 20.1898 9.49098 22.3239 9.49098C24.0458 9.49098 25.6589 10.3361 26.6391 11.7517L27.3808 12.8226C27.7077 13.2948 27.8804 13.8479 27.8804 14.4221C27.8805 15.9713 26.6202 17.2316 25.0711 17.2316Z" fill="#535353"/>
<path d="M23.4472 12.2462C23.2925 12.2462 23.1419 12.3089 23.0323 12.4179C22.9233 12.5269 22.8612 12.6781 22.8612 12.8322C22.8612 12.9863 22.9233 13.1374 23.0323 13.2464C23.1419 13.3554 23.2925 13.4181 23.4472 13.4181C23.6013 13.4181 23.7519 13.3554 23.8614 13.2464C23.9704 13.1374 24.0331 12.9863 24.0331 12.8322C24.0331 12.6781 23.9704 12.5269 23.8614 12.4179C23.7524 12.3089 23.6013 12.2462 23.4472 12.2462Z" fill="#535353"/>
<path d="M6.07722 16.9015C5.92312 16.9015 5.77195 16.8388 5.66297 16.7298C5.55404 16.6208 5.49129 16.4697 5.49129 16.3156C5.49129 16.1614 5.55398 16.0103 5.66297 15.9013C5.77195 15.7923 5.92312 15.7296 6.07722 15.7296C6.23191 15.7296 6.3825 15.7923 6.49148 15.9013C6.60041 16.0103 6.66316 16.1614 6.66316 16.3156C6.66316 16.4697 6.60047 16.6208 6.49148 16.7298C6.3825 16.8388 6.23191 16.9015 6.07722 16.9015Z" fill="#535353"/>
</g>
<defs>
<clipPath id="clip0_1136_9491">
<rect width="30" height="30" fill="white"/>
</clipPath>
</defs>
</svg>
