<svg width="30" height="30" viewBox="0 0 30 30" fill="none" xmlns="http://www.w3.org/2000/svg">
<path d="M29.8791 24.3927C29.7466 23.8206 29.6252 23.2467 29.5182 22.6866C29.4699 22.4337 29.2258 22.2681 28.973 22.3162C28.7201 22.3645 28.5543 22.6087 28.6026 22.8616C28.7119 23.4334 28.8357 24.0193 28.9709 24.603C29.0351 24.8799 29.0675 25.1692 29.0675 25.4629C29.0675 26.4514 28.6864 27.3793 28.0729 27.8844C28.0691 27.8876 28.0653 27.8907 28.0616 27.8939C28.0577 27.8969 28.0538 27.8999 28.05 27.903C27.755 28.1385 27.4216 28.263 27.0859 28.263C26.7502 28.263 26.4167 28.1385 26.1217 27.903C26.118 27.8999 26.1142 27.897 26.1103 27.8941C26.1065 27.8908 26.1028 27.8876 26.0989 27.8844C25.4853 27.3793 25.1043 26.4514 25.1043 25.4629C25.1043 25.1693 25.1368 24.88 25.2009 24.6031C25.8359 21.8608 26.191 19.1955 26.2563 16.6811C26.2595 16.5554 26.2119 16.4338 26.1241 16.3437C26.0364 16.2537 25.916 16.2029 25.7903 16.2029H19.567V14.9378H25.1849C25.4423 14.9378 25.651 14.7292 25.651 14.4717C25.651 14.2142 25.4423 14.0056 25.1849 14.0056H19.567V12.6689H25.1849C25.4423 12.6689 25.651 12.4603 25.651 12.2028C25.651 11.9453 25.4423 11.7367 25.1849 11.7367H19.567V10.4H25.1849C25.4423 10.4 25.651 10.1915 25.651 9.93393C25.651 9.67647 25.4423 9.46788 25.1849 9.46788H19.567V8.13118H25.1849C25.4423 8.13118 25.651 7.92259 25.651 7.66507C25.651 7.40761 25.4423 7.19901 25.1849 7.19901H19.567V5.86243H25.1849C25.4423 5.86243 25.651 5.65384 25.651 5.39632C25.651 5.13886 25.4423 4.93021 25.1849 4.93021H19.567V3.59369H22.1438C22.4012 3.59369 22.6099 3.38509 22.6099 3.12763C22.6099 2.87017 22.4012 2.66152 22.1438 2.66152H19.567V1.73685H25.7324C26.9293 1.73685 27.9031 2.71062 27.9031 3.90752V15.813C27.9031 17.5836 28.0489 19.4348 28.3363 21.3151C28.3752 21.5695 28.6131 21.744 28.8675 21.7053C29.122 21.6664 29.2967 21.4286 29.2578 21.1741C28.9775 19.3403 28.8353 17.5366 28.8353 15.813V3.90752C28.8353 2.19664 27.4434 0.804688 25.7325 0.804688H19.1009C18.8435 0.804688 18.6348 1.01334 18.6348 1.27074V16.6689C18.6348 16.9264 18.8435 17.135 19.1009 17.135H25.3085C25.2146 19.4461 24.8734 21.8851 24.2927 24.3927C24.2126 24.7386 24.172 25.0986 24.172 25.4629C24.172 26.6942 24.6342 27.8284 25.4142 28.525C25.4662 28.6033 25.5413 28.6649 25.6298 28.7003C26.0705 29.0244 26.5716 29.1951 27.0858 29.1951C27.5998 29.1951 28.101 29.0245 28.5417 28.7003C28.6302 28.665 28.7053 28.6033 28.7574 28.525C29.5373 27.8284 29.9996 26.6942 29.9996 25.4629C29.9997 25.0986 29.9591 24.7386 29.8791 24.3927Z" fill="#535353"/>
<path d="M25.1855 2.66162H23.6712C23.4138 2.66162 23.2051 2.87021 23.2051 3.12773C23.2051 3.38519 23.4138 3.59379 23.6712 3.59379H25.1855C25.4429 3.59379 25.6515 3.38519 25.6515 3.12773C25.6516 2.87021 25.4429 2.66162 25.1855 2.66162Z" fill="#535353"/>
<path d="M16.0598 22.2211C14.5422 22.2211 13.3076 23.4557 13.3076 24.9733C13.3076 26.4908 14.5422 27.7254 16.0598 27.7254C17.5773 27.7254 18.8119 26.4908 18.8119 24.9733C18.8119 23.4557 17.5773 22.2211 16.0598 22.2211ZM16.0598 26.7932C15.0562 26.7932 14.2397 25.9767 14.2397 24.9732C14.2398 23.9696 15.0562 23.1532 16.0598 23.1532C17.0633 23.1532 17.8797 23.9696 17.8797 24.9732C17.8797 25.9767 17.0633 26.7932 16.0598 26.7932Z" fill="#535353"/>
<path d="M20.5368 24.8136C20.4586 22.5692 18.6441 20.6775 16.406 20.5067C16.0114 20.4768 15.6162 20.4982 15.2297 20.5708L14.6744 20.4801C13.9543 20.3624 13.2804 20.0158 12.7653 19.5001L12.3871 18.2782L15.1503 3.13182C15.3164 2.22086 14.9879 1.27487 14.2926 0.663089C14.174 0.558675 14.0107 0.52141 13.8584 0.564418C13.7063 0.60725 13.5863 0.724203 13.5395 0.875198L10.27 11.4383L7.00049 0.875316C6.95373 0.72432 6.83367 0.607308 6.68162 0.564535C6.52951 0.521586 6.36603 0.558793 6.24738 0.663206C5.55217 1.27498 5.22352 2.22092 5.38969 3.13188L6.41033 8.72669C6.45656 8.97993 6.69931 9.14769 6.95256 9.10157C7.2058 9.0554 7.37361 8.81265 7.32744 8.55941L6.3068 2.96459C6.25037 2.65545 6.28183 2.33998 6.38918 2.0527L9.82476 13.1524C9.82476 13.1524 9.82476 13.1524 9.82476 13.1524L11.4628 18.4448C11.4628 18.4449 11.4629 18.4449 11.4629 18.445L11.9077 19.8822C11.9286 19.9498 11.9648 20.0118 12.0133 20.0635C12.6765 20.7692 13.5682 21.2439 14.524 21.4001L15.1431 21.5012C15.204 21.5136 15.268 21.5142 15.3317 21.5008C15.6602 21.4322 15.9977 21.4104 16.335 21.4362C18.0772 21.5692 19.5442 23.0988 19.6051 24.846C19.6391 25.8188 19.2864 26.739 18.6119 27.4374C17.9372 28.136 17.0308 28.5209 16.0598 28.5209C14.4477 28.5209 13.0366 27.4331 12.6283 25.8757C12.6249 25.8629 12.621 25.8503 12.6167 25.8379L10.9983 18.9506C10.9628 18.7999 10.8548 18.6766 10.7101 18.6216L10.436 18.5174C10.4358 18.5173 10.4357 18.5172 10.4354 18.5172L9.20407 18.0493L9.04763 17.9899L7.60605 10.0873C7.55982 9.83405 7.31701 9.66613 7.06383 9.71241C6.81058 9.75859 6.64277 10.0013 6.68894 10.2546L8.15273 18.2785L7.77451 19.5003C7.25947 20.0159 6.58553 20.3625 5.86541 20.4802L5.31 20.5709C4.92404 20.4985 4.52701 20.4768 4.13368 20.5068C1.89563 20.6776 0.0811643 22.5693 0.00282466 24.8135C-0.0400073 26.0413 0.40548 27.2031 1.25708 28.085C2.10909 28.9672 3.25354 29.4531 4.47979 29.4531C6.49418 29.4531 8.26025 28.1077 8.7965 26.1733C8.80488 26.1523 8.81179 26.1304 8.81706 26.1077L10.2698 19.9259L11.7225 26.1077C11.7278 26.1302 11.7347 26.1522 11.7431 26.1733C12.2793 28.1077 14.0453 29.4531 16.0597 29.4531C17.2859 29.4531 18.4304 28.9673 19.2824 28.085C20.1341 27.2032 20.5796 26.0413 20.5368 24.8136ZM11.7909 16.3521L10.7579 13.0146L14.1509 2.05276C14.2583 2.33998 14.2896 2.65539 14.2333 2.96459L11.7909 16.3521ZM7.92316 25.8379C7.91882 25.8502 7.9149 25.8628 7.91156 25.8757C7.50322 27.4331 6.09217 28.5208 4.48008 28.5208C3.50907 28.5208 2.60268 28.1361 1.92792 27.4373C1.25356 26.739 0.900831 25.8187 0.934815 24.8459C0.995752 23.0987 2.46276 21.5691 4.20498 21.4362C4.29633 21.4292 4.38885 21.4257 4.48002 21.4257C4.7243 21.4257 4.96934 21.451 5.20822 21.5008C5.27174 21.514 5.33543 21.5135 5.39602 21.5013L6.016 21.4001C6.97183 21.2439 7.86351 20.7693 8.52673 20.0635C8.57525 20.012 8.6114 19.9498 8.63232 19.8822L8.92394 18.9399L9.16997 19.0334L9.49329 19.1562L7.92316 25.8379Z" fill="#535353"/>
<path d="M4.47983 22.2211C2.96226 22.2211 1.72763 23.4557 1.72763 24.9733C1.72763 26.4908 2.96226 27.7254 4.47983 27.7254C5.99741 27.7254 7.23203 26.4908 7.23203 24.9733C7.23203 23.4557 5.99741 22.2211 4.47983 22.2211ZM4.47983 26.7932C3.47624 26.7932 2.6598 25.9767 2.6598 24.9732C2.6598 23.9696 3.47624 23.1532 4.47983 23.1532C5.48342 23.1532 6.29987 23.9696 6.29987 24.9732C6.29987 25.9767 5.48342 26.7932 4.47983 26.7932Z" fill="#535353"/>
</svg>
