<svg width="40" height="32" viewBox="0 0 40 32" fill="none" xmlns="http://www.w3.org/2000/svg">
<path d="M37.9258 15.9027H39.2189C39.6503 15.9027 40.0001 15.553 40.0001 15.1215C40.0001 14.69 39.6504 14.3402 39.2189 14.3402H36.8439L38.4747 12.7094C38.7798 12.4044 38.7798 11.9097 38.4747 11.6046C38.1697 11.2995 37.6751 11.2995 37.3698 11.6046L35.9034 13.0709L34.3155 10.8475C33.923 10.298 33.4559 9.83718 32.9369 9.47038L34.4925 9.22241C36.5098 8.90077 37.974 7.18468 37.974 5.14187C37.974 2.86343 36.1203 1.00984 33.8419 1.00984C31.7991 1.00984 30.083 2.47405 29.7614 4.49132L29.7553 4.52937L29.7492 4.49132C29.4276 2.47405 27.7115 1.00984 25.6687 1.00984C24.2785 1.00984 23.0473 1.7007 22.298 2.75648C19.4475 0.184992 15.4955 -0.490633 11.9477 0.999132C11.5499 1.16624 11.3629 1.62413 11.5299 2.02194C11.6969 2.41968 12.1548 2.60671 12.5527 2.43976C15.5705 1.17241 18.9376 1.76851 21.3398 3.99538L21.6312 4.26546C21.5698 4.54812 21.5367 4.84108 21.5367 5.14179C21.5367 7.18452 23.0009 8.90069 25.0181 9.22233L26.4676 9.45343C24.9326 10.485 24.0015 12.1999 24.0015 14.1523C24.0015 15.7747 24.6855 17.2393 25.7789 18.2763H21.7947C21.4844 16.4754 20.1204 15.0303 18.3624 14.6012C18.946 13.74 19.2716 12.7126 19.2716 11.6527C19.2716 8.7571 16.9159 6.4014 14.0203 6.4014C13.5888 6.4014 13.2391 6.75116 13.2391 7.18265C13.2391 7.61413 13.5888 7.9639 14.0203 7.9639C16.0544 7.9639 17.7091 9.61874 17.7091 11.6527C17.7091 12.754 17.2351 13.768 16.4001 14.4709H15.8595C15.428 14.4709 15.0783 14.8207 15.0783 15.2522C15.0783 15.6837 15.428 16.0334 15.8595 16.0334H17.2748C18.6722 16.0334 19.8508 16.9864 20.1961 18.2764H15.7389C11.1961 18.2763 7.50015 14.5804 7.50015 10.0375C7.50015 8.93288 7.70077 7.87687 8.09656 6.89866C8.25835 6.49866 8.0653 6.04327 7.66531 5.8814C7.26531 5.7196 6.80991 5.91265 6.64804 6.31265C6.42296 6.8689 6.25155 7.44538 6.13312 8.03788C2.52257 8.99077 -0.0321168 12.3034 0.000305113 16.0786C0.0392114 20.5835 3.77499 24.2485 8.32812 24.2485H18.5518C20.1977 24.2485 21.5368 25.5876 21.5368 27.2335C21.5368 28.8794 20.1977 30.2184 18.5518 30.2184H14.4142C13.9827 30.2184 13.633 30.5682 13.633 30.9997C13.633 31.4312 13.9827 31.7809 14.4142 31.7809H18.5518C21.0593 31.7809 23.0993 29.7409 23.0993 27.2335C23.0993 24.7261 21.0593 22.686 18.5518 22.686H8.32812C4.62913 22.686 1.59429 19.7159 1.56288 16.0652C1.53835 13.2152 3.33265 10.691 5.94249 9.73413C5.9396 9.83499 5.93765 9.93601 5.93765 10.0376C5.93765 15.442 10.3344 19.8388 15.7389 19.8388H32.5146L31.6578 20.6955C31.3527 21.0006 31.3527 21.4953 31.6578 21.8004C31.8104 21.953 32.0103 22.0292 32.2102 22.0292C32.4101 22.0292 32.6101 21.9529 32.7626 21.8004L34.6334 19.9296V21.3375C34.6334 21.769 34.9833 22.1187 35.4147 22.1187C35.8461 22.1187 36.1959 21.769 36.1959 21.3375V19.8387H39.2189C39.5116 19.8387 39.7797 19.6752 39.9136 19.415C40.0475 19.1548 40.0248 18.8416 39.8547 18.6034L37.9258 15.9027ZM31.3044 4.73726C31.5044 3.4828 32.5716 2.57226 33.8419 2.57226C35.2587 2.57226 36.4115 3.72491 36.4115 5.14179C36.4115 6.4121 35.501 7.47929 34.2465 7.67921L30.7464 8.23726L31.3044 4.73726ZM23.0993 5.14187C23.0993 3.72499 24.2519 2.57234 25.6688 2.57234C26.9391 2.57234 28.0063 3.48288 28.2063 4.73733L28.7643 8.23733L25.2642 7.67929C24.0098 7.47936 23.0993 6.41218 23.0993 5.14187ZM29.688 18.2763C27.4141 18.2763 25.5641 16.4263 25.5641 14.1523C25.5641 11.9337 27.0443 10.669 28.4296 10.2251C28.8332 10.0958 29.2837 10.0184 29.7516 10.0184C30.8897 10.0184 32.1302 10.476 33.0441 11.7555L37.701 18.2762H29.688V18.2763Z" fill="#535353"/>
<path d="M30.2462 13.1137C30.0407 13.1137 29.8392 13.1973 29.694 13.3426C29.5486 13.488 29.465 13.6895 29.465 13.895C29.465 14.1005 29.5486 14.302 29.694 14.4473C29.8392 14.5926 30.0407 14.6762 30.2462 14.6762C30.4518 14.6762 30.6532 14.5926 30.7986 14.4473C30.9439 14.302 31.0275 14.1005 31.0275 13.895C31.0275 13.6895 30.944 13.488 30.7986 13.3426C30.6532 13.1973 30.4518 13.1137 30.2462 13.1137Z" fill="#535353"/>
<path d="M9.32634 4.4538C9.53181 4.4538 9.73259 4.3702 9.87869 4.22489C10.024 4.07958 10.1076 3.87802 10.1076 3.67255C10.1076 3.4663 10.024 3.26552 9.87869 3.1202C9.73259 2.97411 9.53181 2.8913 9.32634 2.8913C9.12009 2.8913 8.91853 2.97411 8.77322 3.1202C8.62791 3.26552 8.54431 3.4663 8.54431 3.67255C8.54431 3.87802 8.62791 4.07958 8.77322 4.22489C8.91853 4.37012 9.12009 4.4538 9.32634 4.4538Z" fill="#535353"/>
</svg>
