<svg width="28" height="30" viewBox="0 0 28 30" fill="none" xmlns="http://www.w3.org/2000/svg">
<path d="M26.5264 18.2141C25.5494 17.2371 24.1352 16.8514 22.8174 17.1511C22.6842 15.9624 22.3382 14.8126 21.7956 13.7622C22.9971 12.5081 23.631 11.0236 23.631 9.45571C23.631 8.60332 23.4421 7.77193 23.0687 6.97976C23.4375 6.29296 23.631 5.52553 23.631 4.74075C23.631 2.12668 21.5044 0 18.8903 0C17.2697 0 15.7772 0.821952 14.9075 2.16912C14.3023 2.12609 13.6971 2.12609 13.0919 2.16912C12.2223 0.821952 10.7297 0 9.10917 0C6.49509 0 4.36842 2.12668 4.36842 4.74075C4.36842 5.52553 4.56196 6.29296 4.93075 6.97976C4.55739 7.77199 4.36842 8.60332 4.36842 9.45571C4.36842 11.0234 5.0024 12.5082 6.20381 13.7623C5.66171 14.8116 5.31584 15.9604 5.18239 17.1478C3.85791 16.8377 2.46653 17.2206 1.47297 18.2141C0.616775 19.0703 0.200141 20.2518 0.329951 21.4557C0.45976 22.6596 1.11866 23.7252 2.13773 24.3792L7.09677 27.5618C7.19128 27.6224 7.30116 27.6547 7.41343 27.6547H8.93386L7.5895 28.999C7.36055 29.228 7.36055 29.5993 7.5895 29.8283C7.70401 29.9427 7.85405 30 8.00409 30C8.15412 30 8.30422 29.9427 8.41867 29.8283L9.88029 28.3667V29.4136C9.88029 29.7374 10.1428 29.9999 10.4666 29.9999C10.7904 29.9999 11.0529 29.7374 11.0529 29.4136V28.3667L12.5145 29.8283C12.629 29.9427 12.7791 30 12.9291 30C13.0792 30 13.2292 29.9427 13.3437 29.8283C13.5727 29.5993 13.5727 29.2281 13.3437 28.999L11.9993 27.6547H15.9999L14.6557 28.999C14.4267 29.228 14.4267 29.5993 14.6557 29.8283C14.7702 29.9427 14.9202 30 15.0703 30C15.2203 30 15.3704 29.9427 15.4849 29.8283L16.9465 28.3667V29.4136C16.9465 29.7374 17.209 29.9999 17.5328 29.9999C17.8566 29.9999 18.1191 29.7374 18.1191 29.4136V28.3667L19.5807 29.8283C19.6952 29.9427 19.8453 30 19.9953 30C20.1453 30 20.2954 29.9427 20.4099 29.8283C20.6388 29.5993 20.6388 29.2281 20.4099 28.999L19.0655 27.6547H20.586C20.6982 27.6547 20.8081 27.6224 20.9026 27.5618L25.8617 24.3792C26.8807 23.7252 27.5396 22.6596 27.6694 21.4557C27.7993 20.2518 27.3827 19.0703 26.5264 18.2141ZM10.4667 26.3649C10.014 26.3649 9.64582 25.9967 9.64582 25.544V20.5017C9.64582 20.0491 10.014 19.6809 10.4667 19.6809C10.9193 19.6809 11.2875 20.0491 11.2875 20.5017V25.544C11.2875 25.9967 10.9192 26.3649 10.4667 26.3649ZM10.4667 18.5083C9.3675 18.5083 8.4732 19.4025 8.4732 20.5017V23.9887C7.09055 22.4656 6.29141 20.4062 6.29141 18.2621C6.29141 16.9756 6.57307 15.7157 7.10879 14.5776C8.24623 15.4639 9.6528 16.1115 11.2317 16.4694C11.5475 16.5407 11.8616 16.343 11.9331 16.0271C12.0047 15.7113 11.8067 15.3973 11.4909 15.3257C8.695 14.6921 6.57219 13.0266 5.82892 11.0266C7.84666 11.9186 11.5186 12.1965 13.9997 12.1965C16.4809 12.1965 20.1531 11.9186 22.1708 11.0265C21.4266 13.0306 19.2979 14.6976 16.4937 15.329C16.1778 15.4002 15.9794 15.7139 16.0505 16.0298C16.1119 16.3024 16.3538 16.4875 16.622 16.4875C16.6647 16.4875 16.708 16.4828 16.7514 16.4731C18.3368 16.116 19.7492 15.4673 20.8908 14.5777C21.4264 15.7158 21.7081 16.9756 21.7081 18.2621C21.7081 20.4062 20.909 22.4656 19.5263 23.9887V20.5017C19.5263 19.4025 18.6321 18.5083 17.5328 18.5083C16.4336 18.5083 15.5394 19.4025 15.5394 20.5017V25.544C15.5394 25.883 15.6246 26.2023 15.7746 26.4821H12.225C12.3749 26.2023 12.4601 25.883 12.4601 25.544V20.5017C12.4601 19.4025 11.5658 18.5083 10.4667 18.5083ZM18.3536 25.544C18.3536 25.9967 17.9854 26.3649 17.5328 26.3649C17.0802 26.3649 16.712 25.9967 16.712 25.544V20.5017C16.712 20.0491 17.0802 19.6809 17.5328 19.6809C17.9854 19.6809 18.3536 20.0491 18.3536 20.5017V25.544ZM9.10917 1.17263C10.4282 1.17263 11.6346 1.89631 12.2576 3.06126C12.3697 3.27075 12.5969 3.39217 12.8334 3.36808C13.6068 3.29021 14.3927 3.29021 15.1661 3.36808C15.4026 3.39176 15.6299 3.27069 15.7419 3.06126C16.3649 1.89631 17.5713 1.17263 18.8903 1.17263C20.8578 1.17263 22.4584 2.77332 22.4584 4.74075C22.4584 5.41677 22.2676 6.07555 21.9067 6.64563C21.7935 6.82433 21.7854 7.05012 21.8855 7.23645C22.2643 7.94226 22.4569 8.68623 22.4582 9.44756C22.4073 9.58645 21.8683 10.0525 20.0448 10.4582C18.4052 10.823 16.2584 11.0238 13.9997 11.0238C11.741 11.0238 9.59411 10.8229 7.95454 10.4582C6.13117 10.0526 5.59199 9.58651 5.5411 9.44756C5.54245 8.68617 5.73505 7.94226 6.11387 7.23645C6.2139 7.05012 6.2058 6.82433 6.09265 6.64563C5.73171 6.07549 5.54093 5.41677 5.54093 4.74075C5.54098 2.77332 7.14168 1.17263 9.10917 1.17263ZM2.77112 23.3924C2.05225 22.931 1.58742 22.1793 1.49583 21.3301C1.40425 20.4808 1.69817 19.6473 2.30219 19.0433C3.0532 18.2921 4.12703 18.0358 5.11989 18.3458C5.13027 19.6321 5.3791 20.8686 5.86211 22.0303L4.60863 20.7719C4.38008 20.5425 4.00883 20.5419 3.77947 20.7703C3.55004 20.9988 3.54934 21.3701 3.77782 21.5995L8.64141 26.4821H7.58546L2.77112 23.3924ZM26.5036 21.33C26.4121 22.1793 25.9472 22.931 25.2283 23.3924L20.414 26.4821H19.3581L24.2217 21.5995C24.4502 21.3701 24.4495 20.9989 24.22 20.7703C23.9906 20.5418 23.6194 20.5425 23.3909 20.7719L22.1374 22.0302C22.6203 20.8685 22.8692 19.632 22.8796 18.3457C23.8725 18.0357 24.9458 18.2918 25.6973 19.0432C26.3013 19.6473 26.5952 20.4807 26.5036 21.33Z" fill="#535353"/>
</svg>
