<svg width="30" height="30" viewBox="0 0 30 30" fill="none" xmlns="http://www.w3.org/2000/svg">
<g clip-path="url(#clip0_1136_9520)">
<path d="M27.5264 18.2141C26.5494 17.2371 25.1352 16.8514 23.8174 17.1511C23.6842 15.9624 23.3382 14.8126 22.7956 13.7622C23.9971 12.5081 24.631 11.0236 24.631 9.45571C24.631 8.60332 24.4421 7.77193 24.0687 6.97976C24.4375 6.29296 24.631 5.52553 24.631 4.74075C24.631 2.12668 22.5044 0 19.8903 0C18.2697 0 16.7772 0.821952 15.9075 2.16912C15.3023 2.12609 14.6971 2.12609 14.0919 2.16912C13.2223 0.821952 11.7297 0 10.1092 0C7.49509 0 5.36842 2.12668 5.36842 4.74075C5.36842 5.52553 5.56196 6.29296 5.93075 6.97976C5.55739 7.77199 5.36842 8.60332 5.36842 9.45571C5.36842 11.0234 6.0024 12.5082 7.20381 13.7623C6.66171 14.8116 6.31584 15.9604 6.18239 17.1478C4.85791 16.8377 3.46653 17.2206 2.47297 18.2141C1.61677 19.0703 1.20014 20.2518 1.32995 21.4557C1.45976 22.6596 2.11866 23.7252 3.13773 24.3792L8.09677 27.5618C8.19128 27.6224 8.30116 27.6547 8.41343 27.6547H9.93386L8.5895 28.999C8.36055 29.228 8.36055 29.5993 8.5895 29.8283C8.70401 29.9427 8.85405 30 9.00409 30C9.15412 30 9.30422 29.9427 9.41867 29.8283L10.8803 28.3667V29.4136C10.8803 29.7374 11.1428 29.9999 11.4666 29.9999C11.7904 29.9999 12.0529 29.7374 12.0529 29.4136V28.3667L13.5145 29.8283C13.629 29.9427 13.7791 30 13.9291 30C14.0792 30 14.2292 29.9427 14.3437 29.8283C14.5727 29.5993 14.5727 29.2281 14.3437 28.999L12.9993 27.6547H16.9999L15.6557 28.999C15.4267 29.228 15.4267 29.5993 15.6557 29.8283C15.7702 29.9427 15.9202 30 16.0703 30C16.2203 30 16.3704 29.9427 16.4849 29.8283L17.9465 28.3667V29.4136C17.9465 29.7374 18.209 29.9999 18.5328 29.9999C18.8566 29.9999 19.1191 29.7374 19.1191 29.4136V28.3667L20.5807 29.8283C20.6952 29.9427 20.8453 30 20.9953 30C21.1453 30 21.2954 29.9427 21.4099 29.8283C21.6388 29.5993 21.6388 29.2281 21.4099 28.999L20.0655 27.6547H21.586C21.6982 27.6547 21.8081 27.6224 21.9026 27.5618L26.8617 24.3792C27.8807 23.7252 28.5396 22.6596 28.6694 21.4557C28.7993 20.2518 28.3827 19.0703 27.5264 18.2141ZM11.4667 26.3649C11.014 26.3649 10.6458 25.9967 10.6458 25.544V20.5017C10.6458 20.0491 11.014 19.6809 11.4667 19.6809C11.9193 19.6809 12.2875 20.0491 12.2875 20.5017V25.544C12.2875 25.9967 11.9192 26.3649 11.4667 26.3649ZM11.4667 18.5083C10.3675 18.5083 9.4732 19.4025 9.4732 20.5017V23.9887C8.09055 22.4656 7.29141 20.4062 7.29141 18.2621C7.29141 16.9756 7.57307 15.7157 8.10879 14.5776C9.24623 15.4639 10.6528 16.1115 12.2317 16.4694C12.5475 16.5407 12.8616 16.343 12.9331 16.0271C13.0047 15.7113 12.8067 15.3973 12.4909 15.3257C9.695 14.6921 7.57219 13.0266 6.82892 11.0266C8.84666 11.9186 12.5186 12.1965 14.9997 12.1965C17.4809 12.1965 21.1531 11.9186 23.1708 11.0265C22.4266 13.0306 20.2979 14.6976 17.4937 15.329C17.1778 15.4002 16.9794 15.7139 17.0505 16.0298C17.1119 16.3024 17.3538 16.4875 17.622 16.4875C17.6647 16.4875 17.708 16.4828 17.7514 16.4731C19.3368 16.116 20.7492 15.4673 21.8908 14.5777C22.4264 15.7158 22.7081 16.9756 22.7081 18.2621C22.7081 20.4062 21.909 22.4656 20.5263 23.9887V20.5017C20.5263 19.4025 19.6321 18.5083 18.5328 18.5083C17.4336 18.5083 16.5394 19.4025 16.5394 20.5017V25.544C16.5394 25.883 16.6246 26.2023 16.7746 26.4821H13.225C13.3749 26.2023 13.4601 25.883 13.4601 25.544V20.5017C13.4601 19.4025 12.5658 18.5083 11.4667 18.5083ZM19.3536 25.544C19.3536 25.9967 18.9854 26.3649 18.5328 26.3649C18.0802 26.3649 17.712 25.9967 17.712 25.544V20.5017C17.712 20.0491 18.0802 19.6809 18.5328 19.6809C18.9854 19.6809 19.3536 20.0491 19.3536 20.5017V25.544ZM10.1092 1.17263C11.4282 1.17263 12.6346 1.89631 13.2576 3.06126C13.3697 3.27075 13.5969 3.39217 13.8334 3.36808C14.6068 3.29021 15.3927 3.29021 16.1661 3.36808C16.4026 3.39176 16.6299 3.27069 16.7419 3.06126C17.3649 1.89631 18.5713 1.17263 19.8903 1.17263C21.8578 1.17263 23.4584 2.77332 23.4584 4.74075C23.4584 5.41677 23.2676 6.07555 22.9067 6.64563C22.7935 6.82433 22.7854 7.05012 22.8855 7.23645C23.2643 7.94226 23.4569 8.68623 23.4582 9.44756C23.4073 9.58645 22.8683 10.0525 21.0448 10.4582C19.4052 10.823 17.2584 11.0238 14.9997 11.0238C12.741 11.0238 10.5941 10.8229 8.95454 10.4582C7.13117 10.0526 6.59199 9.58651 6.5411 9.44756C6.54245 8.68617 6.73505 7.94226 7.11387 7.23645C7.2139 7.05012 7.2058 6.82433 7.09265 6.64563C6.73171 6.07549 6.54093 5.41677 6.54093 4.74075C6.54098 2.77332 8.14168 1.17263 10.1092 1.17263ZM3.77112 23.3924C3.05225 22.931 2.58742 22.1793 2.49583 21.3301C2.40425 20.4808 2.69817 19.6473 3.30219 19.0433C4.0532 18.2921 5.12703 18.0358 6.11989 18.3458C6.13027 19.6321 6.3791 20.8686 6.86211 22.0303L5.60863 20.7719C5.38008 20.5425 5.00883 20.5419 4.77947 20.7703C4.55004 20.9988 4.54934 21.3701 4.77782 21.5995L9.64141 26.4821H8.58546L3.77112 23.3924ZM27.5036 21.33C27.4121 22.1793 26.9472 22.931 26.2283 23.3924L21.414 26.4821H20.3581L25.2217 21.5995C25.4502 21.3701 25.4495 20.9989 25.22 20.7703C24.9906 20.5418 24.6194 20.5425 24.3909 20.7719L23.1374 22.0302C23.6203 20.8685 23.8692 19.632 23.8796 18.3457C24.8725 18.0357 25.9458 18.2918 26.6973 19.0432C27.3013 19.6473 27.5952 20.4807 27.5036 21.33Z" fill="#535353"/>
<path d="M10.1096 6.61691C11.1441 6.61691 11.9858 5.77525 11.9858 4.7407C11.9858 3.70615 11.1441 2.8645 10.1096 2.8645C9.07505 2.8645 8.2334 3.70615 8.2334 4.7407C8.2334 5.77525 9.07505 6.61691 10.1096 6.61691ZM10.1096 4.03713C10.4976 4.03713 10.8132 4.35274 10.8132 4.7407C10.8132 5.12867 10.4976 5.44428 10.1096 5.44428C9.72164 5.44428 9.40602 5.12867 9.40602 4.7407C9.40602 4.35274 9.72164 4.03713 10.1096 4.03713Z" fill="#535353"/>
<path d="M19.8899 6.61691C20.9244 6.61691 21.7661 5.77525 21.7661 4.7407C21.7661 3.70615 20.9244 2.8645 19.8899 2.8645C18.8553 2.8645 18.0137 3.70615 18.0137 4.7407C18.0137 5.77525 18.8553 6.61691 19.8899 6.61691ZM19.8899 4.03713C20.2778 4.03713 20.5934 4.35274 20.5934 4.7407C20.5934 5.12867 20.2778 5.44428 19.8899 5.44428C19.5019 5.44428 19.1863 5.12867 19.1863 4.7407C19.1863 4.35274 19.5019 4.03713 19.8899 4.03713Z" fill="#535353"/>
<path d="M15.0004 16.7747C15.1546 16.7747 15.3058 16.712 15.4149 16.6029C15.524 16.4938 15.5867 16.3426 15.5867 16.1884C15.5867 16.0342 15.524 15.8829 15.4149 15.7739C15.3058 15.6648 15.1546 15.6021 15.0004 15.6021C14.8462 15.6021 14.6949 15.6648 14.5859 15.7739C14.4768 15.8829 14.4141 16.0342 14.4141 16.1884C14.4141 16.3426 14.4768 16.4938 14.5859 16.6029C14.6949 16.712 14.8462 16.7747 15.0004 16.7747Z" fill="#535353"/>
</g>
<defs>
<clipPath id="clip0_1136_9520">
<rect width="30" height="30" fill="white"/>
</clipPath>
</defs>
</svg>
