<svg width="30" height="30" viewBox="0 0 30 30" fill="none" xmlns="http://www.w3.org/2000/svg">
<g clip-path="url(#clip0_1136_5625)">
<path d="M29.5546 6.66504C29.1941 6.23707 28.6664 5.99156 28.1068 5.99156H26.7636C26.1673 4.94184 25.0521 4.28254 23.8235 4.28254H23.5457V2.23877C23.5457 1.91516 23.2833 1.65283 22.9597 1.65283C20.7756 1.65283 18.9987 3.42976 18.9987 5.61386V7.44487C18.9987 8.71923 18.2952 9.87395 17.1626 10.4583L15.2495 11.4454C14.962 11.5939 14.8491 11.9472 14.9975 12.2348C15.1015 12.4365 15.3063 12.5522 15.5187 12.5522C15.6091 12.5522 15.701 12.5313 15.7869 12.4869L17.7 11.4998C19.2239 10.7134 20.1706 9.15969 20.1706 7.44493V5.6138C20.1706 4.27686 21.1163 3.15654 22.3738 2.88659V4.86848C22.3738 5.1921 22.6362 5.45442 22.9597 5.45442H23.8235C24.7143 5.45442 25.5139 5.98476 25.8605 6.80549C25.9521 7.02246 26.1647 7.1635 26.4003 7.1635H28.1068C28.3199 7.1635 28.521 7.25702 28.6583 7.42008C28.7956 7.58315 28.8537 7.79714 28.8174 8.00726L28.6006 9.26516C28.4629 10.063 27.7755 10.6421 26.9659 10.6421H24.3573C24.3512 10.6421 24.3452 10.6428 24.3391 10.643C24.3331 10.6428 24.3271 10.6421 24.321 10.6421C23.9974 10.6421 23.735 10.9044 23.735 11.228V14.093C23.735 16.1656 23.335 18.1864 22.546 20.0993C22.4974 20.2171 22.4886 20.3476 22.5207 20.4709L23.962 25.9828C23.9872 26.0791 24.0364 26.1673 24.1051 26.2393L24.6201 26.7786C24.7132 26.8761 24.689 26.9799 24.6662 27.033C24.6434 27.0862 24.5851 27.1755 24.4502 27.1755H22.4982L19.9801 20.6509V17.9413C19.9801 17.6177 19.7177 17.3554 19.3941 17.3554C19.0705 17.3554 18.8082 17.6177 18.8082 17.9413V20.7601C18.8082 20.8322 18.8215 20.9038 18.8475 20.9711L21.2421 27.1754H19.1809C18.8981 25.3424 17.3098 23.9344 15.3988 23.9344H14.7375L14.4759 22.3823C14.1964 20.7236 12.9525 19.4263 11.3069 19.0773L10.1985 18.8422C9.88226 18.7751 9.57095 18.9773 9.5038 19.2938C9.43665 19.6104 9.63886 19.9214 9.95544 19.9885L11.0638 20.2236C12.2355 20.4721 13.1212 21.3959 13.3203 22.5771L13.549 23.9343H9.93886C9.6153 23.9343 9.35292 24.1967 9.35292 24.5203C9.35292 24.8439 9.6153 25.1062 9.93886 25.1062H15.3988C16.6616 25.1062 17.7213 25.9923 17.9887 27.1754H9.84312C6.91165 27.1754 4.52669 24.7904 4.52669 21.8589C4.52669 19.6617 5.73965 17.6709 7.69224 16.6634L11.1017 14.9042C11.3892 14.7558 11.5021 14.4024 11.3537 14.1148C11.2054 13.8272 10.8518 13.7143 10.5644 13.8628L7.15487 15.622C6.21948 16.1047 5.42605 16.7757 4.80958 17.575C4.74484 17.2678 4.71191 16.9529 4.71191 16.6316C4.71191 14.9956 5.59838 13.4791 7.02532 12.6742C7.41187 12.4561 7.59527 12.0193 7.48177 11.5871C7.3623 11.1321 6.9536 10.8139 6.48625 10.8102C6.48356 10.8102 6.48098 10.8098 6.47829 10.8098C6.47659 10.8098 6.47483 10.8098 6.47307 10.8099C6.47237 10.8099 6.47172 10.81 6.47102 10.81C2.97242 10.8139 0.0707173 13.6953 0.00122456 17.2367C-0.0472914 19.7078 1.3142 22.0101 3.4867 23.1643C4.09251 26.1184 6.71243 28.3472 9.84312 28.3472H24.4503C25.0229 28.3472 25.5184 28.0202 25.7436 27.4938C25.9688 26.9674 25.8631 26.3832 25.4676 25.969L25.0573 25.5395L23.7037 20.3626C24.5022 18.3617 24.9069 16.2534 24.9069 14.0929V11.8139H26.9659C28.3475 11.8139 29.5206 10.8257 29.7554 9.4642L29.9722 8.20624C30.0674 7.65475 29.9151 7.09301 29.5546 6.66504ZM1.17293 17.2597C1.22608 14.5518 3.29006 12.3136 5.88754 12.0155C4.42515 13.0835 3.54014 14.7977 3.54014 16.6316C3.54014 17.4214 3.69729 18.1818 4.00708 18.8966C3.606 19.7604 3.37953 20.7115 3.35756 21.7005C1.97327 20.673 1.13842 19.0185 1.17293 17.2597Z" fill="#535353"/>
<path d="M24.4172 7.85908C24.5261 7.7501 24.5888 7.59893 24.5888 7.44482C24.5888 7.29072 24.5261 7.13955 24.4172 7.03057C24.3082 6.92158 24.1569 6.85889 24.0029 6.85889C23.8482 6.85889 23.6976 6.92158 23.5886 7.03057C23.4791 7.13955 23.417 7.29072 23.417 7.44482C23.417 7.59893 23.4791 7.7501 23.5886 7.85908C23.6976 7.96807 23.8488 8.03076 24.0029 8.03076C24.1569 8.03076 24.3076 7.96807 24.4172 7.85908Z" fill="#535353"/>
<path d="M13.1758 13.7606C13.3299 13.7606 13.4804 13.6985 13.59 13.5896C13.699 13.48 13.7617 13.3294 13.7617 13.1753C13.7617 13.0212 13.6991 12.87 13.59 12.7604C13.481 12.6515 13.3299 12.5894 13.1758 12.5894C13.0211 12.5894 12.8699 12.6515 12.761 12.7604C12.652 12.8694 12.5898 13.0206 12.5898 13.1753C12.5898 13.3294 12.652 13.4806 12.761 13.5896C12.87 13.6985 13.0211 13.7606 13.1758 13.7606Z" fill="#535353"/>
</g>
<defs>
<clipPath id="clip0_1136_5625">
<rect width="30" height="30" fill="white"/>
</clipPath>
</defs>
</svg>
