<svg width="40" height="40" viewBox="0 0 40 40" fill="none" xmlns="http://www.w3.org/2000/svg">
<path d="M39.8388 32.5236C39.6621 31.7608 39.5003 30.9955 39.3576 30.2488C39.2932 29.9116 38.9677 29.6908 38.6306 29.755C38.2934 29.8194 38.0724 30.1449 38.1367 30.4821C38.2824 31.2445 38.4476 32.0258 38.6278 32.804C38.7134 33.1732 38.7567 33.5589 38.7567 33.9505C38.7567 35.2686 38.2485 36.5057 37.4305 37.1792C37.4254 37.1834 37.4204 37.1876 37.4155 37.1918C37.4103 37.1958 37.405 37.1999 37.3999 37.2039C37.0067 37.518 36.5621 37.6839 36.1145 37.6839C35.6668 37.6839 35.2222 37.518 34.8289 37.2039C34.8239 37.1999 34.8189 37.196 34.8137 37.1921C34.8086 37.1877 34.8036 37.1834 34.7985 37.1792C33.9804 36.5057 33.4723 35.2686 33.4723 33.9505C33.4723 33.559 33.5157 33.1733 33.6011 32.8041C34.4478 29.1478 34.9213 25.594 35.0083 22.2414C35.0126 22.0738 34.9492 21.9117 34.8321 21.7915C34.7151 21.6715 34.5546 21.6038 34.387 21.6038H26.0893V19.917H33.5798C33.923 19.917 34.2013 19.6389 34.2013 19.2955C34.2013 18.9523 33.923 18.6741 33.5798 18.6741H26.0893V16.8919H33.5798C33.923 16.8919 34.2013 16.6137 34.2013 16.2704C34.2013 15.9271 33.923 15.649 33.5798 15.649H26.0893V13.8667H33.5798C33.923 13.8667 34.2013 13.5886 34.2013 13.2452C34.2013 12.902 33.923 12.6238 33.5798 12.6238H26.0893V10.8416H33.5798C33.923 10.8416 34.2013 10.5634 34.2013 10.2201C34.2013 9.8768 33.923 9.59868 33.5798 9.59868H26.0893V7.81657H33.5798C33.923 7.81657 34.2013 7.53844 34.2013 7.19509C34.2013 6.8518 33.923 6.5736 33.5798 6.5736H26.0893V4.79157H29.525C29.8683 4.79157 30.1465 4.51345 30.1465 4.17017C30.1465 3.82689 29.8683 3.54868 29.525 3.54868H26.0893V2.3158H34.3099C35.9057 2.3158 37.2041 3.61415 37.2041 5.21001V21.084C37.2041 23.4448 37.3985 25.913 37.7817 28.4201C37.8336 28.7593 38.1507 28.992 38.49 28.9404C38.8292 28.8886 39.0623 28.5715 39.0104 28.2322C38.6366 25.7871 38.4471 23.3822 38.4471 21.084V5.21001C38.4471 2.92884 36.5912 1.07291 34.31 1.07291H25.4678C25.1246 1.07291 24.8463 1.35111 24.8463 1.69431V22.2252C24.8463 22.5685 25.1246 22.8467 25.4678 22.8467H33.7446C33.6194 25.9282 33.1645 29.1801 32.3902 32.5236C32.2834 32.9847 32.2293 33.4647 32.2293 33.9505C32.2293 35.5923 32.8456 37.1046 33.8855 38.0333C33.955 38.1377 34.055 38.2199 34.173 38.267C34.7607 38.6992 35.4288 38.9268 36.1143 38.9268C36.7997 38.9268 37.4679 38.6993 38.0556 38.267C38.1735 38.22 38.2737 38.1377 38.3431 38.0333C39.383 37.1046 39.9994 35.5922 39.9994 33.9505C39.9996 33.4647 39.9455 32.9847 39.8388 32.5236Z" fill="#535353"/>
<path d="M33.5806 3.54883H31.5615C31.2183 3.54883 30.9401 3.82695 30.9401 4.17031C30.9401 4.51359 31.2183 4.79172 31.5615 4.79172H33.5806C33.9238 4.79172 34.202 4.51359 34.202 4.17031C34.2021 3.82695 33.9238 3.54883 33.5806 3.54883Z" fill="#535353"/>
<path d="M21.413 29.6281C19.3896 29.6281 17.7434 31.2743 17.7434 33.2977C17.7435 35.3212 19.3896 36.9673 21.413 36.9673C23.4364 36.9673 25.0825 35.3212 25.0825 33.2977C25.0825 31.2743 23.4364 29.6281 21.413 29.6281ZM21.413 35.7243C20.0749 35.7243 18.9863 34.6357 18.9863 33.2977C18.9864 31.9595 20.0749 30.871 21.413 30.871C22.7511 30.871 23.8396 31.9595 23.8396 33.2977C23.8396 34.6357 22.7511 35.7243 21.413 35.7243Z" fill="#535353"/>
<path d="M27.3824 33.0848C27.2782 30.0923 24.8588 27.57 21.8747 27.3423C21.3486 27.3024 20.8215 27.3309 20.3063 27.4277L19.5658 27.3067C18.6058 27.1499 17.7072 26.6877 17.0204 26.0002L16.5161 24.371L20.2004 4.17575C20.4219 2.96114 19.9838 1.69981 19.0569 0.884109C18.8986 0.74489 18.6809 0.695203 18.4779 0.752547C18.2751 0.809656 18.1151 0.965593 18.0527 1.16692L13.6933 15.2511L9.33398 1.16708C9.27164 0.965749 9.11156 0.809734 8.90882 0.752703C8.70601 0.695437 8.48805 0.745047 8.32984 0.884265C7.40289 1.69997 6.96469 2.96122 7.18625 4.17582L8.54711 11.6356C8.60875 11.9732 8.93242 12.1969 9.27007 12.1354C9.60773 12.0739 9.83148 11.7502 9.76992 11.4125L8.40906 3.95278C8.33383 3.54059 8.37578 3.11997 8.5189 2.73692L13.0997 17.5365C13.0997 17.5365 13.0997 17.5365 13.0997 17.5366L15.2837 24.5931C15.2837 24.5931 15.2838 24.5932 15.2838 24.5933L15.8769 26.5095C15.9048 26.5998 15.953 26.6824 16.0177 26.7513C16.902 27.6923 18.0909 28.3252 19.3654 28.5334L20.1908 28.6682C20.272 28.6849 20.3574 28.6856 20.4423 28.6677C20.8803 28.5763 21.3303 28.5472 21.78 28.5816C24.1029 28.7589 26.0589 30.7984 26.1402 33.128C26.1854 34.425 25.7152 35.652 24.8159 36.5832C23.9162 37.5147 22.7078 38.0279 21.413 38.0279C19.2636 38.0279 17.3822 36.5775 16.8377 34.5009C16.8333 34.4839 16.828 34.467 16.8222 34.4505L14.6644 25.2675C14.6171 25.0665 14.4731 24.9021 14.2801 24.8288L13.9147 24.6899C13.9144 24.6898 13.9142 24.6896 13.9139 24.6895L12.2721 24.0657L12.0635 23.9865L10.1414 13.4497C10.0798 13.1121 9.75601 12.8882 9.41843 12.9499C9.08078 13.0114 8.85703 13.3351 8.91859 13.6728L10.8703 24.3713L10.366 26.0003C9.67929 26.6878 8.7807 27.15 7.82055 27.3069L7.08 27.4278C6.56539 27.3313 6.03602 27.3024 5.51157 27.3424C2.52751 27.5701 0.108219 30.0924 0.00376621 33.0847C-0.053343 34.7217 0.54064 36.2708 1.67611 37.4466C2.81212 38.6229 4.33805 39.2708 5.97305 39.2708C8.6589 39.2708 11.0137 37.4769 11.7287 34.8977C11.7398 34.8697 11.7491 34.8405 11.7561 34.8102L13.693 26.5678L15.63 34.8102C15.637 34.8403 15.6463 34.8695 15.6574 34.8977C16.3724 37.4769 18.7271 39.2709 21.4129 39.2709C23.0479 39.2709 24.5739 38.623 25.7099 37.4467C26.8455 36.2709 27.4394 34.7217 27.3824 33.0848ZM15.7212 21.8028L14.3439 17.3528L18.8679 2.737C19.0111 3.11997 19.0529 3.54051 18.9777 3.95278L15.7212 21.8028ZM10.5642 34.4505C10.5584 34.467 10.5532 34.4837 10.5487 34.5009C10.0043 36.5775 8.12289 38.0277 5.97344 38.0277C4.67876 38.0277 3.47024 37.5148 2.57056 36.583C1.67142 35.652 1.20111 34.4249 1.24642 33.1279C1.32767 30.7983 3.28368 28.7588 5.60665 28.5816C5.72844 28.5723 5.8518 28.5676 5.97336 28.5676C6.29907 28.5676 6.62578 28.6013 6.9443 28.6677C7.02899 28.6853 7.11391 28.6847 7.19469 28.6684L8.02133 28.5334C9.29578 28.3252 10.4847 27.6924 11.369 26.7513C11.4337 26.6826 11.4819 26.5998 11.5098 26.5095L11.8986 25.2532L12.2266 25.3778L12.6577 25.5417L10.5642 34.4505Z" fill="#535353"/>
<path d="M5.97307 29.6281C3.94964 29.6281 2.30347 31.2743 2.30347 33.2977C2.30347 35.3212 3.94964 36.9673 5.97307 36.9673C7.9965 36.9673 9.64267 35.3212 9.64267 33.2977C9.64267 31.2743 7.9965 29.6281 5.97307 29.6281ZM5.97307 35.7243C4.63495 35.7243 3.54636 34.6357 3.54636 33.2977C3.54636 31.9595 4.63495 30.871 5.97307 30.871C7.31119 30.871 8.39978 31.9595 8.39978 33.2977C8.39978 34.6357 7.31119 35.7243 5.97307 35.7243Z" fill="#535353"/>
</svg>
