<svg width="24" height="24" viewBox="0 0 24 24" fill="none" xmlns="http://www.w3.org/2000/svg">
<g clip-path="url(#clip0_1464_11745)">
<path d="M10.1538 0H0.923096C0.413276 0 0 0.413276 0 0.923096V10.1539C0 10.6637 0.413276 11.077 0.923096 11.077H10.1539C10.6637 11.077 11.077 10.6637 11.077 10.1539V0.923096C11.0769 0.413276 10.6637 0 10.1538 0ZM9.23079 9.23079H1.84614V1.84614H9.23074V9.23079H9.23079Z" fill="#FF7A5F"/>
<path d="M23.0768 0H13.8459C13.3361 0 12.9229 0.413276 12.9229 0.923096V10.1539C12.9229 10.6637 13.3361 11.077 13.8459 11.077H23.0768C23.5866 11.077 23.9999 10.6637 23.9999 10.1539V0.923096C23.9998 0.413276 23.5865 0 23.0768 0ZM22.1537 9.23079H14.769V1.84614H22.1537V9.23079Z" fill="#FF7A5F"/>
<path d="M10.1538 12.9231H0.923096C0.413276 12.9231 0 13.3364 0 13.8462V23.077C0 23.5868 0.413276 24.0001 0.923096 24.0001H10.1539C10.6637 24.0001 11.077 23.5868 11.077 23.077V13.8462C11.0769 13.3364 10.6637 12.9231 10.1538 12.9231ZM9.23079 22.1539H1.84614V14.7693H9.23074V22.1539H9.23079Z" fill="#FF7A5F"/>
<path d="M23.0767 17.5385H19.3844V13.8462C19.3844 13.3364 18.9711 12.9231 18.4613 12.9231C17.9515 12.9231 17.5382 13.3364 17.5382 13.8462V17.5385H13.8459C13.3361 17.5385 12.9229 17.9518 12.9229 18.4616C12.9229 18.9714 13.3361 19.3847 13.8459 19.3847H17.5383V23.077C17.5383 23.5868 17.9515 24.0001 18.4614 24.0001C18.9712 24.0001 19.3845 23.5868 19.3845 23.077V19.3847H23.0768C23.5866 19.3847 23.9999 18.9714 23.9999 18.4616C23.9999 17.9517 23.5865 17.5385 23.0767 17.5385Z" fill="#FF7A5F"/>
</g>
<defs>
<clipPath id="clip0_1464_11745">
<rect width="24" height="24" fill="white"/>
</clipPath>
</defs>
</svg>
