<svg width="30" height="30" viewBox="0 0 30 30" fill="none" xmlns="http://www.w3.org/2000/svg">
<path d="M24.6836 11.8647C24.8377 11.8647 24.9889 11.802 25.0979 11.6929C25.2068 11.5833 25.2695 11.4328 25.2695 11.2787C25.2695 11.1246 25.2068 10.9734 25.0979 10.8645C24.9889 10.7555 24.8377 10.6928 24.6836 10.6928C24.5289 10.6928 24.3783 10.7554 24.2693 10.8645C24.1604 10.9734 24.0977 11.124 24.0977 11.2787C24.0977 11.4328 24.1604 11.584 24.2693 11.6929C24.3783 11.802 24.5295 11.8647 24.6836 11.8647Z" fill="#535353"/>
<path d="M29.9993 13.2279C29.984 12.486 29.6907 11.7622 29.1734 11.1898L27.1291 8.92805C26.4935 8.2248 25.6874 7.71029 24.7849 7.4291L23.1376 4.23029C23.034 4.02914 22.8229 3.90621 22.5981 3.91289C22.3721 3.9201 22.1704 4.05668 22.0798 4.26387L20.465 7.95873C19.8346 8.34311 19.2846 8.86154 18.8655 9.46822L16.705 12.3486H15.5933V7.79672C15.5933 5.71418 14.7823 3.75627 13.3097 2.28363C11.8373 0.810996 9.87932 0 7.79678 0C7.79654 0 7.79695 0 7.79666 0C3.49793 0 5.85938e-05 3.49775 0 7.7966V9.96082C0 10.1423 0.0841406 10.3136 0.227754 10.4245C0.371309 10.5354 0.55834 10.5736 0.733945 10.5278C1.90969 10.2211 2.82855 10.8009 3.29625 11.4459C3.76395 12.0911 4.02961 13.1445 3.37236 14.1668C2.59324 15.3787 2.03584 16.7055 1.71574 18.1102C1.64379 18.4257 1.84137 18.7397 2.15684 18.8117C2.20066 18.8217 2.24443 18.8265 2.2875 18.8265C2.5548 18.8265 2.79639 18.6422 2.85826 18.3706C3.14807 17.0989 3.65273 15.8978 4.35814 14.8005C5.175 13.5299 5.13164 11.981 4.245 10.7581C3.5073 9.74068 2.37457 9.20736 1.17188 9.27727V7.7966C1.17188 6.02707 1.86105 4.36342 3.11227 3.11221C4.36359 1.86094 6.02719 1.17188 7.79678 1.17188C9.56631 1.17188 11.23 1.861 12.4812 3.11221C13.7324 4.36354 14.4215 6.02713 14.4215 7.79666V12.3537C9.68672 12.505 5.88135 16.4033 5.88129 21.1742C5.88129 24.44 7.6643 27.2971 10.3079 28.8233C6.92572 28.7245 3.98895 26.5261 2.95447 23.2882C2.85598 22.98 2.52645 22.8097 2.21807 22.9084C1.90975 23.0069 1.73977 23.3366 1.83826 23.6448C2.42338 25.4764 3.55283 27.053 5.10434 28.2043C6.6873 29.379 8.56875 29.9998 10.5454 29.9999H19.4955C19.819 29.9999 20.0814 29.7376 20.0814 29.414C20.0815 28.5689 19.7524 27.7744 19.1548 27.1767C18.9644 26.9863 18.7539 26.8236 18.5284 26.6896C19.2258 26.2206 19.8281 25.6198 20.3059 24.9095C20.7612 24.2325 21.0829 23.4839 21.2617 22.6843L21.5998 21.1727C22.7797 21.1542 23.8823 20.6246 24.6328 19.7108C24.7811 19.5302 25.0001 19.4267 25.2337 19.4267C26.3968 19.4267 27.3431 18.4805 27.3431 17.3173C27.3431 16.9777 27.2619 16.6568 27.1187 16.3723C27.8773 16.3229 28.5811 16.0013 29.1182 15.4529C29.7037 14.8554 30.0166 14.0652 29.9993 13.2279ZM25.2336 18.2549C24.648 18.2549 24.0989 18.5145 23.7272 18.967C23.1866 19.6251 22.3881 20.0026 21.5364 20.0026H19.746C19.4224 20.0026 19.16 20.265 19.16 20.5886C19.16 20.9121 19.4224 21.1745 19.746 21.1745H20.3985L20.118 22.4286C19.971 23.0852 19.7071 23.6999 19.3334 24.2556C18.8813 24.9277 18.2931 25.48 17.6064 25.8853C18.0187 25.1759 18.2463 24.3622 18.2463 23.5254C18.2463 20.9353 16.1391 18.8281 13.549 18.8281C13.2254 18.8281 12.9631 19.0904 12.9631 19.414C12.9631 19.7376 13.2254 20 13.549 20C15.4929 20 17.0745 21.5815 17.0745 23.5254C17.0745 24.64 16.5377 25.7013 15.6386 26.3644C15.4349 26.5146 15.3507 26.7786 15.4298 27.019C15.5088 27.2594 15.7333 27.4219 15.9864 27.4219H16.9173C17.4494 27.4219 17.9497 27.6291 18.326 28.0054C18.5597 28.2391 18.7282 28.5208 18.8224 28.8281H14.7069C10.4866 28.8281 7.05311 25.3946 7.05311 21.1743C7.05316 16.954 10.4867 13.5205 14.707 13.5205H16.998C17.1824 13.5205 17.3561 13.4337 17.4668 13.2861L19.8101 10.162C19.815 10.1555 19.8197 10.1489 19.8243 10.1422C20.1807 9.62344 20.6602 9.18709 21.2108 8.88018C21.3227 8.81783 21.411 8.72045 21.4624 8.60303L22.66 5.8626L23.8375 8.14904C23.9067 8.31387 24.0498 8.44318 24.2322 8.49C25.017 8.69133 25.718 9.11455 26.2597 9.71385L28.3039 11.9756C28.6322 12.3387 28.8182 12.7921 28.8277 13.252C28.8333 13.5234 28.7825 13.7866 28.6815 14.0292L28.0699 13.7404C27.7773 13.6021 27.428 13.7273 27.2899 14.02C27.1517 14.3126 27.2769 14.6619 27.5695 14.8L27.8798 14.9465C27.5897 15.1168 27.2588 15.208 26.9128 15.208C26.9128 15.208 25.2561 15.208 25.2336 15.208C24.5482 15.208 23.8782 15.3995 23.2963 15.7616C22.9295 15.9899 22.5073 16.1105 22.0753 16.1105H20.3117C19.9881 16.1105 19.7258 16.3729 19.7258 16.6964C19.7258 17.02 19.9881 17.2823 20.3117 17.2823H22.0753C22.7263 17.2823 23.3627 17.1005 23.9154 16.7565C24.3114 16.5101 24.7672 16.3798 25.2336 16.3798C25.7505 16.3798 26.1711 16.8004 26.1711 17.3173C26.1711 17.8344 25.7506 18.2549 25.2336 18.2549Z" fill="#535353"/>
<path d="M2.40639 21.2748C2.51537 21.1658 2.57812 21.0152 2.57812 20.8605C2.57812 20.7064 2.51543 20.5553 2.40639 20.4464C2.29746 20.3374 2.14629 20.2746 1.99219 20.2746C1.83744 20.2746 1.68691 20.3373 1.57793 20.4464C1.46895 20.5553 1.40625 20.7064 1.40625 20.8605C1.40625 21.0153 1.46889 21.1658 1.57793 21.2748C1.68691 21.3838 1.83809 21.4465 1.99219 21.4465C2.14629 21.4465 2.29746 21.3838 2.40639 21.2748Z" fill="#535353"/>
</svg>
