<svg width="40" height="26" viewBox="0 0 40 26" fill="none" xmlns="http://www.w3.org/2000/svg">
<path d="M40 13C40 11.6719 39.4853 10.4179 38.5505 9.46907C36.7399 7.631 34.6134 6.22314 32.2922 5.29332C32.8004 3.73345 32.2873 2.00201 30.9384 0.968679C30.105 0.330181 29.0727 0.0541732 28.0319 0.192294C26.9911 0.330103 26.0662 0.86501 25.4277 1.6985C24.9145 2.36848 24.6373 3.17471 24.6193 4.00086C23.7967 4.03711 22.9836 4.1275 22.184 4.27007C21.8891 2.74793 20.6661 1.55702 19.078 1.33414C17.0648 1.05172 15.1977 2.45958 14.9152 4.47249C14.7937 5.33832 14.9834 6.20752 15.4391 6.93672C14.4083 7.6074 13.4373 8.38551 12.5417 9.26704C12.2099 9.59368 11.6694 9.58868 11.3368 9.25619L10.6639 8.58323C9.28182 7.20116 7.37632 6.5536 5.43606 6.80641C5.00818 6.86219 4.70655 7.25421 4.76233 7.68201C4.81803 8.10997 5.2106 8.41238 5.63793 8.35574C6.71111 8.2159 7.76959 8.44433 8.66738 8.98893C9.29807 10.224 9.63134 11.6061 9.63134 12.9999C9.63134 14.3939 9.29799 15.7763 8.66715 17.0116C7.94443 17.4494 7.11391 17.6835 6.24721 17.6835C4.99615 17.6835 3.82001 17.1964 2.93535 16.3117C1.89889 15.2752 1.41328 13.846 1.60312 12.3905C1.6589 11.9626 1.35735 11.5706 0.929467 11.5148C0.501822 11.4592 0.109567 11.7606 0.0537873 12.1884C-0.199253 14.1289 0.448386 16.0345 1.83054 17.4166C3.01027 18.5963 4.57882 19.246 6.24721 19.246C7.9156 19.246 9.48415 18.5963 10.6639 17.4166L11.3368 16.7437C11.6693 16.4111 12.2099 16.4063 12.5416 16.7329C13.4373 17.6145 14.4084 18.3926 15.4392 19.0633C14.9835 19.7925 14.7938 20.6618 14.9153 21.5276C15.1735 23.3676 16.756 24.7021 18.5634 24.7019C18.7333 24.7019 18.9052 24.6901 19.0781 24.6659C20.6662 24.443 21.8892 23.252 22.184 21.7299C22.9836 21.8724 23.7967 21.9629 24.6193 21.999C24.6373 22.8253 24.9145 23.6316 25.4277 24.3015C26.0662 25.135 26.9911 25.67 28.0319 25.8078C28.2072 25.831 28.3822 25.8424 28.5561 25.8424C29.4148 25.8424 30.2454 25.5624 30.9384 25.0314C32.2873 23.998 32.8004 22.2666 32.2921 20.7066C34.6133 19.7768 36.7398 18.369 38.5505 16.5309C39.4853 15.5821 40 14.3281 40 13ZM25.4451 20.4555C24.4212 20.4555 23.411 20.3632 22.4234 20.1849C22.7561 19.1804 23.0186 18.1526 23.2089 17.11L23.329 17.2302C23.4815 17.3828 23.6814 17.459 23.8813 17.459C24.0813 17.459 24.2812 17.3827 24.4337 17.2302L26.9036 14.7603C27.1758 16.6674 27.8865 18.4927 28.9805 20.0851C27.8316 20.3292 26.6485 20.4555 25.4451 20.4555ZM13.9983 10.037C14.7949 9.29704 15.6513 8.64183 16.5566 8.077C17.5553 11.2829 17.5553 14.7171 16.5565 17.923C15.6514 17.3582 14.7953 16.7032 13.9988 15.9634C14.2158 14.9948 14.3257 13.9999 14.3257 13C14.3256 12.0001 14.2153 11.0056 13.9983 10.037ZM17.9475 7.2985C18.891 6.82828 19.877 6.44962 20.8938 6.16557C21.3688 7.56733 21.6964 9.01932 21.8706 10.4943C20.9972 12.0442 20.9971 13.9559 21.8706 15.5058C21.6964 16.9805 21.3688 18.4325 20.8936 19.8344C19.8768 19.5504 18.8909 19.1716 17.9474 18.7015C19.175 14.9995 19.1751 11.0004 17.9475 7.2985ZM25.4451 5.54441C26.6486 5.54441 27.8317 5.67074 28.9807 5.91479C27.8866 7.50717 27.1759 9.33259 26.9038 11.2397L24.4338 8.76979C24.1288 8.46488 23.6342 8.4648 23.329 8.76979L23.2089 8.88987C23.0186 7.84716 22.7561 6.81938 22.4235 5.81495C23.4111 5.63667 24.4212 5.54441 25.4451 5.54441ZM23.8106 10.4977L23.8813 10.4271L26.4543 13.0001L23.8813 15.5731L23.8107 15.5025C22.431 14.1225 22.431 11.8775 23.8106 10.4977ZM30.5981 19.6557C29.1389 17.7499 28.3404 15.4061 28.3403 13.0003C28.3403 13.0001 28.3403 12.9998 28.3403 12.9997C28.3404 10.5939 29.1389 8.25012 30.5982 6.34423C31.1236 6.51235 31.6396 6.70633 32.1449 6.92562C30.7138 8.61441 29.9095 10.7733 29.9095 13.0001C29.9095 15.2267 30.7137 17.3856 32.1448 19.0744C31.6395 19.2936 31.1235 19.4876 30.5981 19.6557ZM28.2372 1.74124C28.8643 1.65835 29.4862 1.82428 29.9884 2.20904C30.7897 2.82285 31.1013 3.84516 30.8168 4.77404C29.328 4.32202 27.7735 4.05992 26.1822 3.99774C26.2007 3.5133 26.367 3.04198 26.6681 2.64871C27.0528 2.14654 27.61 1.82428 28.2372 1.74124ZM16.4626 4.68967C16.6253 3.52986 17.7016 2.71808 18.861 2.8816C19.7892 3.01183 20.4996 3.71587 20.6563 4.61014C19.31 4.97099 18.0124 5.48418 16.7847 6.14096C16.5075 5.71433 16.3908 5.20091 16.4626 4.68967ZM10.9707 15.1349C11.1176 14.4346 11.1938 13.7186 11.1938 13C11.1938 12.2813 11.1176 11.5653 10.9707 10.865C11.4832 11.0894 12.0581 11.1289 12.5918 10.9825C12.7048 11.6466 12.7631 12.3216 12.7631 12.9999C12.7631 13.6782 12.7048 14.3532 12.5917 15.0174C12.0581 14.8711 11.4832 14.9106 10.9707 15.1349ZM18.861 23.1185C17.7015 23.2817 16.6254 22.4701 16.4626 21.3104C16.3908 20.7991 16.5076 20.2856 16.7847 19.8591C18.0124 20.5159 19.31 21.029 20.6563 21.3898C20.4996 22.2842 19.7892 22.9883 18.861 23.1185ZM29.9884 23.7911C29.4863 24.1758 28.8648 24.3419 28.2372 24.2589C27.6101 24.1758 27.0528 23.8535 26.6681 23.3514C26.3669 22.9582 26.2007 22.4868 26.1822 22.0022C27.7734 21.9401 29.3279 21.678 30.8167 21.226C31.1013 22.1548 30.7897 23.1772 29.9884 23.7911ZM37.4375 15.4345C36.2851 16.6043 34.9926 17.5831 33.598 18.3576C32.2412 16.9108 31.472 14.9876 31.472 13.0001C31.472 11.0124 32.2413 9.08916 33.5982 7.64248C34.9927 8.41699 36.2851 9.39579 37.4374 10.5655C38.7598 11.9078 38.7598 14.0921 37.4375 15.4345Z" fill="#535353"/>
</svg>
