<svg width="61" height="60" viewBox="0 0 61 60" fill="none" xmlns="http://www.w3.org/2000/svg">
<g clip-path="url(#clip0_962_5351)">
<path d="M54.125 60H6.87506C3.31246 60 0.5 57.1875 0.5 53.6251V6.37506C0.5 2.81246 3.31246 0 6.87506 0H54.125C57.6875 0 60.5001 2.81246 60.5001 6.37506V53.6251C60.5 57.1875 57.6875 60 54.125 60Z" fill="#CCE7F0"/>
<path d="M48.875 0C46.6249 9.75006 40.8124 20.25 31.8125 29.2501C22.25 38.8125 10.8125 44.8125 0.5 46.6875V6.37506C0.5 2.81246 3.31246 0 6.87506 0H48.875Z" fill="#E4F0F4"/>
<path d="M38.3749 23.0624H35.9374V32.4374C35.9374 33.3749 35.1874 34.1249 34.2499 34.1249H26.7499C25.8124 34.1249 25.0624 33.3749 25.0624 32.4374V23.0624H22.6249C21.3123 23.0624 20.5624 21.5624 21.3123 20.4374L29.1874 9.93749C29.9374 9 31.2498 9 31.8124 9.93749L39.6873 20.4374C40.4373 21.5625 39.6873 23.0624 38.3749 23.0624Z" fill="#FF7A5F"/>
<path d="M18.4999 40.125V50.4375H15.4998V40.125H11.9375V37.6875H22.0625V40.125H18.4999Z" fill="white"/>
<path d="M34.6249 48.75C33.3125 50.0624 31.8124 50.625 29.75 50.625C27.875 50.625 26.1875 50.0624 24.875 48.75C23.5624 47.4374 23 45.9375 23 44.0624C23 42.1873 23.5625 40.6874 24.875 39.3749C26.1874 38.0623 27.6874 37.4999 29.75 37.4999C31.625 37.4999 33.3125 38.0624 34.625 39.3749C35.9376 40.6873 36.5 42.1873 36.5 44.0624C36.5 45.9375 35.9375 47.4374 34.6249 48.75ZM33.4999 44.0624C33.4999 42.9375 33.125 42 32.375 41.0624C31.625 40.3123 30.6875 39.9374 29.75 39.9374C28.625 39.9374 27.6876 40.3123 27.125 41.0624C26.375 41.8124 26.0001 42.7499 26.0001 44.0624C26.0001 45.1874 26.375 46.1249 27.125 47.0625C27.875 47.8125 28.8125 48.1874 29.75 48.1874C30.875 48.1874 31.8124 47.8125 32.375 47.0625C33.125 46.125 33.4999 45.1875 33.4999 44.0624Z" fill="white"/>
<path d="M47.7499 38.8124C48.6874 39.5624 49.0625 40.6874 49.0625 42.3749C49.0625 43.8749 48.6876 45.1874 47.7499 45.9374C46.8125 46.6874 45.4999 47.0623 43.4375 47.0623H41.75V50.6249H38.9375V37.8749H43.4375C45.4999 37.6875 46.8125 38.0624 47.7499 38.8124ZM45.6875 43.8749C46.0624 43.5 46.25 42.9374 46.25 42.1874C46.25 41.4374 46.0626 40.8749 45.5 40.6874C45.1251 40.3124 44.3751 40.3124 43.4376 40.3124H41.7501V44.6249H43.6251C44.5624 44.4375 45.3124 44.2499 45.6875 43.8749Z" fill="white"/>
</g>
<defs>
<clipPath id="clip0_962_5351">
<rect width="60" height="60" fill="white" transform="translate(0.5)"/>
</clipPath>
</defs>
</svg>
