<svg width="40" height="40" viewBox="0 0 40 40" fill="none" xmlns="http://www.w3.org/2000/svg">
<path d="M23.7295 6.84922C23.8747 6.70391 23.9584 6.50234 23.9584 6.29688C23.9584 6.09141 23.8748 5.88984 23.7295 5.74453C23.5842 5.59922 23.3826 5.51562 23.1771 5.51562C22.9709 5.51562 22.7701 5.59922 22.624 5.74453C22.4788 5.88984 22.3959 6.09141 22.3959 6.29688C22.3959 6.50234 22.4788 6.70391 22.624 6.84922C22.7701 6.99453 22.9709 7.07812 23.1771 7.07812C23.3826 7.07812 23.5842 6.99453 23.7295 6.84922Z" fill="#535353"/>
<path d="M32.8842 25.7284H25.4944C27.1624 24.4048 28.2341 22.3607 28.2341 20.0709V14.9095C30.8756 14.5295 32.9124 12.2523 32.9124 9.50727C32.9124 6.7082 30.7944 4.39562 28.0771 4.085C27.4987 1.7425 25.3803 0 22.8617 0C21.722 0 20.6088 0.204687 19.5531 0.608438C19.15 0.762578 18.9482 1.21414 19.1023 1.61719C19.2563 2.02016 19.7081 2.22187 20.111 2.06789C20.9881 1.7325 21.9135 1.5625 22.8618 1.5625C24.9626 1.5625 26.6717 3.27156 26.6717 5.37234C26.6717 5.37594 26.6721 5.37937 26.6722 5.38289V6.99453C26.6722 7.95227 25.8891 8.73141 24.9263 8.73141C24.6831 8.73141 24.4537 8.84477 24.3059 9.03797C24.1581 9.23117 24.1087 9.48227 24.1724 9.71703C24.5147 10.9801 25.4637 11.9891 26.6722 12.4256L26.6717 20.0708C26.6717 23.1904 24.1337 25.7284 21.014 25.7284H18.4209C19.182 24.3183 19.6145 22.7059 19.6145 20.9941V15.5466C19.6145 12.8931 17.6869 10.6829 15.1588 10.2387V9.26531C15.1588 8.30133 15.3345 7.36141 15.6808 6.47187C15.8374 6.06984 15.6383 5.61695 15.2363 5.46039C14.8341 5.30391 14.3813 5.50297 14.2249 5.905C13.8078 6.97602 13.5964 8.10664 13.5964 9.26531V10.1936C10.9188 10.5056 8.83322 12.7865 8.83322 15.5466V25.7284H7.11462C6.68314 25.7284 6.33337 26.0781 6.33337 26.5096C6.33337 26.9411 6.68314 27.2909 7.11462 27.2909H8.83306V30.2131C8.83306 30.6446 9.18291 30.9944 9.61431 30.9944C11.2121 30.9944 12.7233 30.617 14.0644 29.9478V39.2188C14.0644 39.6502 14.4142 40 14.8456 40C19.1568 40 22.6641 36.4927 22.6641 32.1816V27.2909H25.4517L28.9264 30.7656C29.079 30.9182 29.2789 30.9945 29.4788 30.9945C29.6788 30.9945 29.8787 30.9181 30.0313 30.7656C30.3363 30.4605 30.3363 29.9659 30.0313 29.6608L27.6614 27.2909H32.8841C33.3155 27.2909 33.6653 26.9412 33.6653 26.5097C33.6654 26.0782 33.3156 25.7284 32.8842 25.7284ZM26.0577 10.0952C27.3265 9.63336 28.2346 8.41773 28.2346 6.99461V5.68945C30.01 6.05227 31.3499 7.62617 31.3499 9.50727C31.3499 11.3883 30.01 12.9623 28.2346 13.3251V11.8293C28.2346 11.451 27.9636 11.127 27.5913 11.0603C26.9671 10.9484 26.4202 10.5939 26.0577 10.0952ZM10.3956 15.5467C10.3956 13.4359 12.1128 11.7185 14.2238 11.7185C16.3347 11.7185 18.052 13.4359 18.052 15.5467C18.052 15.5467 18.051 21.1013 18.05 21.1547C18.0296 21.9771 17.3557 22.6403 16.5285 22.6403C15.6885 22.6403 15.005 21.9569 15.005 21.1168V17.3277C15.005 16.8962 14.6552 16.5464 14.2238 16.5464C13.7924 16.5464 13.4425 16.8962 13.4425 17.3277V21.1168C13.4425 21.9569 12.7591 22.6403 11.919 22.6403C11.079 22.6403 10.3956 21.9569 10.3956 21.1168V15.5467ZM10.3956 23.7988C10.8454 24.0553 11.3652 24.2027 11.919 24.2027C12.8347 24.2027 13.6581 23.8014 14.2238 23.1659C14.7894 23.8014 15.6128 24.2027 16.5285 24.2027C16.8599 24.2027 17.1788 24.1495 17.4781 24.0524C16.3413 26.966 13.6302 29.0979 10.3956 29.3961V23.7988ZM21.1016 32.1816C21.1016 35.3666 18.7092 38.0034 15.6269 38.389V28.9798C16.2763 28.4895 16.8642 27.922 17.377 27.2909H21.1016V32.1816Z" fill="#535353"/>
<path d="M16.8802 4.02963C17.0857 4.02963 17.2873 3.94604 17.4325 3.80073C17.5778 3.65541 17.6615 3.45385 17.6615 3.24838C17.6615 3.04291 17.5779 2.84135 17.4325 2.69604C17.2873 2.55073 17.0857 2.46713 16.8802 2.46713C16.6739 2.46713 16.4732 2.55073 16.3279 2.69604C16.1826 2.84135 16.099 3.04291 16.099 3.24838C16.099 3.45385 16.1825 3.65541 16.3279 3.80073C16.4732 3.94604 16.6739 4.02963 16.8802 4.02963Z" fill="#535353"/>
</svg>
