<svg width="34" height="34" viewBox="0 0 34 34" fill="none" xmlns="http://www.w3.org/2000/svg">
<circle cx="17" cy="17" r="17" fill="#FF7A5F"/>
<g clip-path="url(#clip0_1299_10167)">
<path d="M21.7524 26.1927C21.5949 26.1927 21.4341 26.1728 21.2748 26.1311L8.38781 22.6801C7.39368 22.4059 6.80117 21.3776 7.06118 20.3842L8.47784 14.9516C8.56451 14.6182 8.9054 14.4157 9.24034 14.505C9.57376 14.5917 9.77457 14.9333 9.68713 15.2675L8.27032 20.701C8.18288 21.0359 8.38202 21.3817 8.71543 21.4734L21.5949 24.9227C21.9257 25.0102 22.2674 24.8135 22.3541 24.4843L22.794 22.7092C22.8775 22.3743 23.2158 22.1709 23.5507 22.2527C23.8858 22.336 24.09 22.6743 24.0074 23.0092L23.5658 24.7927C23.3432 25.6369 22.5833 26.1927 21.7524 26.1927Z" fill="white"/>
<path d="M25.1251 21.1926H12.2081C11.1739 21.1926 10.333 20.3517 10.333 19.3176V9.73393C10.333 8.69982 11.1739 7.85889 12.2081 7.85889H25.1251C26.1592 7.85889 27.0001 8.69982 27.0001 9.73393V19.3176C27.0001 20.3517 26.1592 21.1926 25.1251 21.1926ZM12.2081 9.10892C11.863 9.10892 11.583 9.38892 11.583 9.73393V19.3176C11.583 19.6626 11.863 19.9426 12.2081 19.9426H25.1251C25.4701 19.9426 25.7501 19.6626 25.7501 19.3176V9.73393C25.7501 9.38892 25.4701 9.10892 25.1251 9.10892H12.2081Z" fill="white"/>
<path d="M14.4998 13.6924C13.5806 13.6924 12.833 12.9449 12.833 12.0256C12.833 11.1064 13.5806 10.3589 14.4998 10.3589C15.419 10.3589 16.1664 11.1064 16.1664 12.0256C16.1664 12.9449 15.419 13.6924 14.4998 13.6924ZM14.4998 11.6089C14.2697 11.6089 14.083 11.7957 14.083 12.0256C14.083 12.2556 14.2697 12.4424 14.4998 12.4424C14.7297 12.4424 14.9163 12.2556 14.9163 12.0256C14.9163 11.7957 14.7297 11.6089 14.4998 11.6089Z" fill="white"/>
<path d="M10.9743 20.3425C10.8144 20.3425 10.6543 20.2816 10.5327 20.1592C10.2886 19.9151 10.2886 19.5191 10.5327 19.275L14.2994 15.5082C14.8695 14.9382 15.797 14.9382 16.3661 15.5082L17.3737 16.5158L20.4687 12.8007C20.7454 12.4689 21.1513 12.2773 21.5822 12.2748C22.0454 12.249 22.4205 12.4598 22.6996 12.7874L26.8481 17.6274C27.073 17.8891 27.0422 18.2842 26.7805 18.5091C26.5181 18.7342 26.1239 18.7034 25.8988 18.4417L21.7488 13.5999C21.6937 13.534 21.6263 13.5374 21.5887 13.5256C21.553 13.5256 21.4838 13.5365 21.4288 13.6015L17.8954 17.8434C17.7828 17.9782 17.6188 18.06 17.4437 18.0675C17.2654 18.0774 17.0971 18.0091 16.9736 17.885L15.482 16.3933C15.3761 16.2874 15.2887 16.2874 15.1828 16.3933L11.4161 20.1592C11.2943 20.2816 11.1344 20.3425 10.9743 20.3425Z" fill="white"/>
</g>
<defs>
<clipPath id="clip0_1299_10167">
<rect width="20" height="20" fill="white" transform="translate(7 7)"/>
</clipPath>
</defs>
</svg>
