<svg width="30" height="24" viewBox="0 0 30 24" fill="none" xmlns="http://www.w3.org/2000/svg">
<path d="M28.4249 2.92751L25.73 1.8964C25.2184 1.7007 24.6887 1.5743 24.1487 1.51559C24.1191 1.11351 23.8937 0.733637 23.5144 0.526151C22.9204 0.201416 22.1728 0.42027 21.848 1.01431C21.711 1.26475 21.6662 1.5487 21.7177 1.82568C21.3892 1.88767 21.0507 1.8889 20.72 1.82498L17.9665 1.29258C16.2006 0.951143 14.3833 1.1206 12.7108 1.78273C12.4099 1.90185 12.2626 2.24235 12.3817 2.54324C12.5007 2.84418 12.8413 2.99143 13.1422 2.87237C14.6066 2.29263 16.198 2.14432 17.7441 2.44321L20.4975 2.97561C21.1817 3.10786 21.8891 3.05097 22.5433 2.81114C22.8374 2.70332 23.1452 2.64865 23.4585 2.64865C24.0942 2.64865 24.7175 2.76385 25.3113 2.99102L26.8148 3.56625C26.675 3.57621 26.5405 3.63645 26.4412 3.73589C26.3322 3.84487 26.2694 3.99599 26.2694 4.15016C26.2694 4.30426 26.3321 4.45544 26.4412 4.56437C26.5501 4.67394 26.7013 4.73611 26.8554 4.73611C27.0095 4.73611 27.1601 4.67394 27.2696 4.56437C27.3786 4.45544 27.4413 4.30426 27.4413 4.15016C27.4413 3.99904 27.3808 3.85161 27.2757 3.74263L28.0062 4.02213C28.6329 4.26196 28.9692 4.95221 28.7719 5.59359C28.6688 5.92847 28.4453 6.21002 28.1426 6.38633L28.1374 6.38938C28.059 6.43508 27.9921 6.49842 27.9424 6.57442C27.6736 6.9843 27.1898 7.25964 26.7386 7.25964C26.1169 7.25964 25.5334 7.56416 25.1778 8.07434L24.5897 8.91824C23.7457 8.86814 22.9591 8.51627 22.3562 7.91338C22.1274 7.68463 21.7563 7.68457 21.5276 7.91344C21.2988 8.14226 21.2988 8.51322 21.5276 8.7421C22.4014 9.61587 23.5632 10.0971 24.7989 10.0971H26.5814C27.0503 10.0971 27.4318 10.4786 27.4318 10.9475C27.4318 11.4163 27.0503 11.7978 26.5814 11.7978H24.1549C21.7147 11.7978 19.3791 12.7047 17.5784 14.3513L17.0336 14.8493C16.367 12.6124 14.3003 11.0417 11.918 11.0417C11.5944 11.0417 11.332 11.3041 11.332 11.6277C11.332 11.9512 11.5944 12.2136 11.918 12.2136C13.9288 12.2136 15.6524 13.6462 16.0164 15.6201C16.0676 15.898 16.31 16.0998 16.5926 16.0998H18.1081C19.132 16.0998 19.9965 16.7951 20.2544 17.7384H9.4083C8.40615 17.0203 7.71337 15.7923 7.53407 14.4042L7.96662 9.77367C8.09477 8.40189 8.56963 7.07283 9.33992 5.93022C9.52081 5.66192 9.44991 5.29769 9.1816 5.1168C8.91323 4.93604 8.54912 5.00676 8.36818 5.27513C7.48848 6.58011 6.94613 8.09796 6.79981 9.66468L6.38437 14.1122L1.12462 18.3057C0.460557 18.8352 0.052382 19.6251 0.00468542 20.473C-0.0430112 21.3209 0.274048 22.1516 0.874592 22.7521C1.45404 23.3316 2.21971 23.6243 2.98719 23.6242C3.68904 23.6241 4.39242 23.3793 4.9557 22.885L9.48477 18.9103H20.9185C21.242 18.9103 21.5044 18.6479 21.5044 18.3244C21.5044 16.6357 20.2654 15.2314 18.6489 14.9715C20.1916 13.6781 22.1323 12.9697 24.1549 12.9697H26.5814C27.6964 12.9697 28.6036 12.0626 28.6036 10.9475C28.6036 9.83232 27.6964 8.92515 26.5814 8.92515H26.0132L26.1392 8.7445C26.2757 8.5485 26.4999 8.43154 26.7386 8.43154C27.5373 8.43154 28.3489 8.00333 28.8434 7.33054C29.3449 7.00351 29.7149 6.51366 29.892 5.93813C30.2701 4.70933 29.6256 3.38695 28.4249 2.92751ZM4.18265 22.0042C3.46626 22.6329 2.37721 22.5974 1.70325 21.9234C1.33837 21.5586 1.14577 21.0539 1.17472 20.5388C1.20366 20.0236 1.4517 19.5437 1.85507 19.2221L6.55711 15.4733C6.87534 16.6214 7.49417 17.6379 8.32329 18.3704L4.18265 22.0042Z" fill="#535353"/>
</svg>
