<svg width="24" height="24" viewBox="0 0 24 24" fill="none" xmlns="http://www.w3.org/2000/svg">
<path d="M20.3952 15.1277C19.1707 15.1277 17.9684 14.9362 16.8291 14.5597C16.2708 14.3693 15.5845 14.544 15.2438 14.8939L12.995 16.5915C10.387 15.1994 8.78056 13.5934 7.40743 11.0051L9.05509 8.81484C9.48316 8.38734 9.6367 7.76286 9.45274 7.17693C9.07462 6.03161 8.88253 4.8299 8.88253 3.6049C8.88259 2.71995 8.16264 2 7.27775 2H3.60484C2.71995 2 2 2.71995 2 3.60484C2 13.7481 10.252 22 20.3952 22C21.2801 22 22 21.2801 22 20.3952V16.7325C21.9999 15.8477 21.28 15.1277 20.3952 15.1277Z" fill="white" stroke="#FF7A5F" stroke-width="2"/>
</svg>
