<svg width="40" height="40" viewBox="0 0 40 40" fill="none" xmlns="http://www.w3.org/2000/svg">
<path d="M37.4355 12.2989L39.8574 8.86141C40.0255 8.62289 40.0466 8.3107 39.9123 8.05172C39.7779 7.79273 39.5105 7.63016 39.2188 7.63016H37.0478C37.5145 6.99664 37.7911 6.21484 37.7911 5.36937V3.7057C37.7911 3.27422 37.4413 2.92445 37.0098 2.92445H35.3461C34.3164 2.92445 33.3812 3.33469 32.6936 3.99938C31.9112 2.11234 30.0502 0.78125 27.8836 0.78125H25.4616C25.0302 0.78125 24.6804 1.13102 24.6804 1.5625V3.98453C24.6804 5.40312 25.2515 6.69039 26.1751 7.63023H21.5922C21.0068 7.02844 20.1892 6.65352 19.2852 6.65352C18.3813 6.65352 17.5638 7.02844 16.9783 7.63023H10.2365C9.59687 7.02547 8.735 6.65352 7.78734 6.65352C6.83969 6.65352 5.97789 7.02547 5.3382 7.63023H0.78125C0.349766 7.63023 0 7.98 0 8.41148V11.849C0 12.2805 0.349766 12.6302 0.78125 12.6302H4.21875V21.7134C4.21875 25.1088 5.19219 28.402 7.03375 31.2371C7.18344 31.4675 7.43398 31.5929 7.68961 31.5929C7.83547 31.5929 7.98305 31.5521 8.11445 31.4667C8.47625 31.2316 8.57906 30.7478 8.34406 30.386C6.6675 27.8048 5.78125 24.8059 5.78125 21.7134V10.2221C5.78125 9.11594 6.68117 8.21602 7.78734 8.21602C8.89352 8.21602 9.79344 9.11594 9.79344 10.2221V19.3436C9.79344 21.5034 11.5506 23.2606 13.7105 23.2606C14.5947 23.2606 15.4112 22.9658 16.0676 22.4697C16.0935 23.9519 16.4859 25.4149 17.2084 26.7105C17.3514 26.9669 17.6173 27.1113 17.8914 27.1113C18.0202 27.1113 18.1508 27.0794 18.2712 27.0123C18.648 26.8021 18.7831 26.3263 18.573 25.9495C17.9545 24.8403 17.6275 23.5829 17.6275 22.313V9.87367C17.6275 8.95961 18.3712 8.21602 19.2852 8.21602C20.1992 8.21602 20.9428 8.95969 20.9428 9.87367V22.7151C20.9428 24.1065 22.0748 25.2384 23.4662 25.2384C24.442 25.2384 25.2895 24.6813 25.7091 23.8688C27.0426 25.8245 29.2879 27.1112 31.8282 27.1112C34.0541 27.1112 36.0535 26.1234 37.4114 24.5632C36.0641 31.9991 29.5425 37.6562 21.7241 37.6562C18.6333 37.6562 15.6356 36.7709 13.0554 35.0959C12.6936 34.8609 12.2097 34.9639 11.9747 35.3258C11.7398 35.6877 11.8427 36.1715 12.2046 36.4065C15.0387 38.2463 18.3305 39.2188 21.7241 39.2188C26.4 39.2188 30.7959 37.3979 34.1023 34.0916C37.4086 30.7852 39.2295 26.3893 39.2295 21.7134V19.71C39.2295 16.3797 37.0183 13.5563 33.987 12.6302H36.7969C37.0509 12.6302 37.2892 12.5066 37.4355 12.2989ZM1.5625 11.0677V9.19273H4.3707C4.27227 9.51891 4.21875 9.8643 4.21875 10.2221V11.0677H1.5625ZM11.3559 12.6302H16.065V17.4216C15.4902 16.4685 14.6882 15.6491 13.7005 15.0381L11.3559 13.588V12.6302ZM16.065 9.87367V11.0677H11.3559V10.2221C11.3559 9.8643 11.3024 9.51883 11.204 9.19273H16.1381C16.0906 9.41234 16.065 9.64 16.065 9.87367ZM13.7105 21.698C12.4122 21.698 11.3559 20.6418 11.3559 19.3435V15.4252L12.8786 16.367C14.4608 17.3455 15.4327 19.0091 15.5148 20.8541C15.0826 21.3696 14.4343 21.698 13.7105 21.698ZM35.346 4.48695H36.2285V5.36945C36.2285 6.6143 35.2158 7.62695 33.971 7.62695H33.0885V6.74445C33.0885 5.49969 34.1012 4.48695 35.346 4.48695ZM26.2428 2.34375H27.8835C29.892 2.34375 31.526 3.97773 31.526 5.98617V7.62695H29.8852C27.8768 7.62695 26.2428 5.99297 26.2428 3.98453V2.34375ZM24.4271 22.7151C24.4271 23.2449 23.9961 23.6759 23.4663 23.6759C22.9364 23.6759 22.5054 23.2449 22.5054 22.7151V17.212C23.722 18.2612 24.4271 19.7813 24.4271 21.425V22.7151ZM25.9896 19.71C25.9896 19.4805 26.0044 19.2545 26.0302 19.0319L28.1806 18.6768C28.7031 18.5905 29.1988 18.9455 29.2852 19.4682C29.3715 19.9909 29.0165 20.4865 28.4937 20.5728L26.1266 20.9637C26.0377 20.5596 25.9896 20.1404 25.9896 19.71ZM37.667 19.71C37.667 20.1404 37.6188 20.5596 37.53 20.9637L35.1629 20.5729C34.6402 20.4866 34.2852 19.9911 34.3714 19.4683C34.4132 19.2151 34.5512 18.9933 34.7598 18.8438C34.9684 18.6944 35.2227 18.6352 35.476 18.6769L37.6263 19.032C37.6523 19.2545 37.667 19.4805 37.667 19.71ZM37.1779 17.3742L35.7306 17.1352C35.0656 17.0252 34.3977 17.1812 33.8498 17.5737C33.3019 17.9662 32.9396 18.5487 32.8298 19.2138C32.6031 20.5865 33.5356 21.8878 34.9084 22.1145L36.9789 22.4563C35.9946 24.2948 34.0554 25.5487 31.8283 25.5487C29.6011 25.5487 27.662 24.2948 26.6777 22.4563L28.7482 22.1144C30.121 21.8877 31.0534 20.5864 30.8267 19.2137C30.6 17.8409 29.2988 16.9084 27.926 17.1352L26.4787 17.3741C27.3816 15.3143 29.4391 13.8712 31.8283 13.8712C34.2175 13.8712 36.275 15.3144 37.1779 17.3742ZM24.7825 17.4435C24.2256 16.616 23.4908 15.9015 22.6065 15.3546L22.5054 15.2921V12.6302H29.6696C27.3576 13.3366 25.5231 15.1466 24.7825 17.4435ZM22.5054 11.0677V9.87367C22.5054 9.64 22.4798 9.41234 22.4323 9.19273H37.7127L36.3916 11.0677H22.5054Z" fill="#535353"/>
</svg>
