<svg width="34" height="34" viewBox="0 0 34 34" fill="none" xmlns="http://www.w3.org/2000/svg">
<circle cx="17" cy="17" r="17" fill="#FF7A5F"/>
<path d="M26.9945 10.5625L22.9998 10.5511C22.999 10.6961 22.9986 10.8699 22.9963 10.9837C23.3357 10.9917 24.2043 11.1514 24.4766 11.8663L20.6502 20.6981C20.4627 20.2598 18.6832 16.3069 18.4801 15.7986L20.3305 11.9601C20.7126 11.3762 21.4432 10.9996 22.1496 10.9723L22.1476 10.5709L18.3044 10.5674C18.2953 10.6692 18.3046 10.8831 18.2906 10.9894C19.3747 11.0188 19.7623 11.2615 19.5024 11.909C19.0736 12.8831 18.1745 14.7287 17.9987 15.0655C17.4488 13.9161 17.0991 13.0314 16.5005 11.7888C16.2422 11.213 16.8123 10.9888 17.4153 10.9721V10.568L12.9645 10.5543C12.9678 10.744 12.9602 10.8503 12.9602 10.989C13.5805 10.9984 14.3856 11.0647 14.7067 11.6048C15.1324 12.4336 16.5515 15.7239 16.9808 16.6051C16.4331 17.6562 15.1028 20.1423 14.6261 21.0749C13.9432 19.5593 11.4171 13.5912 10.7032 12.0507C10.4372 11.3943 11.4645 11.0151 12.0588 10.9874L12.0627 10.5492L7 10.5488C7.00102 10.6806 7.00551 10.8976 7.00592 10.9949C7.82693 10.9874 9.02692 12.3357 9.36961 13.174C10.8472 16.6031 12.372 20.0122 13.8424 23.4441C13.8428 23.45 14.3026 23.4561 14.3077 23.4457C15.2699 21.4767 16.3942 19.4076 17.4094 17.4161L19.9705 23.4488C19.9715 23.4496 20.3952 23.452 20.3974 23.4502C22.0215 19.7386 24.455 14.0432 25.2509 12.2451C25.5748 11.4767 26.1168 11.0082 26.9935 10.9817L27 10.5827L26.9945 10.5625Z" fill="white"/>
</svg>
