<svg width="34" height="34" viewBox="0 0 34 34" fill="none" xmlns="http://www.w3.org/2000/svg">
<circle cx="17" cy="17" r="17" fill="#FF7A5F"/>
<path d="M18.0895 24.352C18.0895 24.528 18.0255 24.68 17.8975 24.808C17.7695 24.936 17.6175 25 17.4415 25H16.5535C16.3775 25 16.2255 24.936 16.0975 24.808C15.9695 24.68 15.9055 24.528 15.9055 24.352V13.168C15.9055 12.992 15.9695 12.84 16.0975 12.712C16.2255 12.584 16.3775 12.52 16.5535 12.52H17.4415C17.6175 12.52 17.7695 12.584 17.8975 12.712C18.0255 12.84 18.0895 12.992 18.0895 13.168V24.352ZM18.3295 9.976C18.3295 10.152 18.2655 10.304 18.1375 10.432C18.0095 10.56 17.8575 10.624 17.6815 10.624H16.3135C16.1375 10.624 15.9855 10.56 15.8575 10.432C15.7295 10.304 15.6655 10.152 15.6655 9.976V8.608C15.6655 8.432 15.7295 8.28 15.8575 8.152C15.9855 8.024 16.1375 7.96 16.3135 7.96H17.6815C17.8575 7.96 18.0095 8.024 18.1375 8.152C18.2655 8.28 18.3295 8.432 18.3295 8.608V9.976Z" fill="white"/>
</svg>
