<svg width="26" height="25" viewBox="0 0 26 25" fill="none" xmlns="http://www.w3.org/2000/svg">
<path d="M12.0609 1.56663C12.3811 0.691451 13.6189 0.691448 13.9391 1.56663L16.4192 8.34488C16.5589 8.72654 16.9156 8.98573 17.3217 9.0006L24.5346 9.26473C25.4659 9.29883 25.8484 10.476 25.115 11.051L19.4349 15.5043C19.1151 15.7551 18.9788 16.1745 19.0902 16.5653L21.0679 23.5068C21.3233 24.4031 20.3219 25.1306 19.5484 24.6108L13.5578 20.5849C13.2205 20.3582 12.7795 20.3582 12.4422 20.5849L6.45161 24.6108C5.67812 25.1306 4.67674 24.4031 4.93209 23.5068L6.90979 16.5653C7.02115 16.1745 6.88489 15.7551 6.56506 15.5043L0.884964 11.051C0.151571 10.476 0.534062 9.29883 1.46536 9.26473L8.67826 9.0006C9.08439 8.98573 9.44113 8.72654 9.58078 8.34488L12.0609 1.56663Z" fill="#FFAF13"/>
</svg>
