<?xml version="1.0" standalone="no"?>
<!DOCTYPE svg PUBLIC "-//W3C//DTD SVG 20010904//EN"
 "http://www.w3.org/TR/2001/REC-SVG-20010904/DTD/svg10.dtd">
<svg version="1.0" xmlns="http://www.w3.org/2000/svg"
 width="1120.000000pt" height="1120.000000pt" viewBox="0 0 1120.000000 1120.000000"
 preserveAspectRatio="xMidYMid meet">
<metadata>
Created by potrace 1.11, written by Peter Selinger 2001-2013
</metadata>
<g transform="translate(0.000000,1120.000000) scale(0.100000,-0.100000)"
fill="#000000" stroke="none">
<path d="M4926 8988 c5 -7 -19 -13 -39 -9 -5 1 -6 -3 -2 -9 3 -5 -1 -13 -9
-16 -9 -3 -13 -10 -10 -15 3 -5 0 -9 -5 -9 -6 0 -11 -7 -11 -16 0 -9 -5 -12
-12 -8 -8 5 -7 0 2 -11 12 -15 12 -17 1 -10 -11 6 -13 4 -8 -9 5 -11 3 -15 -5
-10 -7 5 -9 0 -6 -14 4 -13 0 -23 -9 -26 -12 -5 -13 -9 -3 -21 11 -13 10 -14
-2 -10 -14 6 -18 -3 -19 -48 0 -9 -4 -15 -10 -12 -9 6 -10 2 -13 -34 0 -11 -5
-23 -10 -28 -5 -5 -6 -2 -1 6 6 10 4 12 -4 7 -9 -6 -9 -11 -1 -21 8 -9 6 -14
-7 -19 -15 -6 -15 -8 -3 -16 13 -8 12 -10 -2 -10 -12 0 -15 -5 -11 -17 4 -11
3 -14 -5 -9 -8 5 -10 2 -6 -8 4 -10 1 -16 -7 -16 -7 0 -9 -3 -6 -7 4 -3 1 -13
-6 -21 -10 -13 -9 -14 3 -7 8 5 3 -7 -13 -28 -15 -20 -26 -40 -25 -44 1 -4 -3
-18 -10 -29 -6 -12 -8 -24 -5 -28 3 -3 1 -6 -6 -6 -8 0 -11 -6 -7 -16 6 -15 4
-15 -10 -3 -16 13 -16 12 -6 -8 9 -17 9 -22 -4 -27 -8 -3 -12 -10 -9 -16 3 -5
1 -10 -5 -10 -6 0 -8 -5 -5 -10 3 -6 -1 -13 -10 -16 -9 -4 -14 -13 -11 -21 3
-7 -1 -16 -9 -20 -13 -4 -13 -8 -3 -21 11 -13 11 -14 -1 -7 -11 6 -13 4 -7
-10 5 -15 4 -16 -9 -5 -9 7 -15 9 -14 4 4 -21 -2 -45 -9 -40 -5 3 -9 0 -10 -7
-3 -31 -9 -49 -21 -57 -8 -4 -11 -13 -7 -18 4 -6 -3 -16 -14 -22 -11 -6 -20
-18 -20 -26 0 -9 -5 -12 -12 -8 -8 5 -7 0 2 -11 14 -17 13 -18 -2 -12 -11 4
-17 2 -15 -6 1 -7 -4 -11 -11 -9 -10 2 -10 -2 -1 -19 6 -13 7 -19 1 -15 -6 3
-13 -3 -17 -14 -4 -11 -11 -18 -16 -14 -5 3 -12 -8 -15 -25 -4 -17 -10 -29
-14 -26 -4 3 -11 -6 -14 -20 -4 -14 -12 -25 -19 -25 -8 0 -7 -4 3 -10 13 -8
12 -10 -2 -10 -16 0 -23 -11 -19 -32 0 -5 -6 -8 -15 -8 -8 0 -12 -5 -9 -10 3
-6 -1 -13 -10 -16 -9 -4 -14 -13 -11 -20 3 -7 0 -16 -6 -20 -7 -5 -8 -2 -3 6
6 9 4 11 -4 6 -7 -5 -10 -14 -7 -22 3 -8 2 -13 -2 -11 -4 1 -8 -2 -9 -7 0 -5
-8 -13 -17 -18 -9 -5 -14 -13 -11 -18 3 -4 -2 -11 -11 -14 -9 -4 -14 -13 -10
-21 4 -10 -3 -19 -19 -25 -14 -5 -25 -12 -25 -15 0 -4 4 -4 8 -1 5 3 9 -1 9
-8 0 -8 -7 -12 -15 -8 -10 3 -13 1 -8 -6 4 -7 1 -15 -8 -18 -9 -3 -13 -10 -10
-15 3 -5 -2 -12 -10 -15 -9 -3 -16 -10 -16 -16 0 -5 5 -6 12 -2 7 4 8 3 4 -4
-4 -7 -14 -12 -22 -12 -8 0 -12 -4 -9 -10 3 -5 -5 -19 -18 -31 -17 -14 -23
-27 -19 -41 4 -17 2 -20 -11 -15 -9 3 -16 3 -15 -1 1 -4 -6 -22 -16 -41 -12
-23 -14 -31 -4 -26 7 4 2 -3 -12 -14 -17 -14 -20 -21 -10 -21 9 0 5 -6 -10
-15 -15 -9 -19 -15 -10 -15 12 0 11 -3 -3 -11 -9 -6 -15 -14 -12 -20 4 -5 1
-9 -4 -9 -6 0 -11 -9 -11 -20 0 -11 -7 -23 -15 -26 -8 -4 -12 -10 -9 -16 3 -5
-3 -4 -15 4 -12 7 -21 16 -21 21 0 4 -4 6 -9 3 -5 -3 -19 3 -32 13 -13 10 -30
16 -37 13 -7 -2 -21 3 -31 12 -10 9 -21 13 -24 9 -4 -3 -7 -1 -7 6 0 7 -5 9
-10 6 -6 -3 -13 1 -16 10 -6 13 -8 14 -15 3 -7 -10 -9 -10 -9 0 0 6 -9 12 -20
12 -10 0 -24 8 -29 18 -7 12 -10 13 -11 3 0 -9 -7 -6 -20 9 -18 21 -25 20 -21
-4 1 -5 -5 -4 -13 4 -9 7 -16 20 -16 29 0 14 -2 14 -10 1 -7 -11 -10 -11 -10
-2 0 7 -4 10 -10 7 -5 -3 -10 -1 -10 5 0 6 -4 8 -10 5 -5 -3 -10 0 -10 7 0 9
-3 9 -10 -2 -6 -10 -10 -11 -10 -3 0 7 -11 15 -25 19 -14 3 -25 11 -25 18 0 6
-5 4 -10 -4 -6 -10 -10 -11 -10 -2 0 6 -7 12 -15 12 -8 0 -15 6 -15 13 0 8 -4
7 -10 -3 -8 -13 -10 -12 -10 3 0 10 -5 15 -11 12 -5 -4 -18 0 -27 8 -9 8 -29
14 -45 13 -17 -1 -26 3 -23 10 2 6 -5 11 -17 10 -12 -1 -28 5 -36 12 -7 7 -20
11 -27 8 -8 -3 -14 1 -14 9 0 9 -6 12 -15 9 -9 -4 -15 0 -15 7 0 11 -3 11 -10
-1 -7 -11 -10 -11 -10 -2 0 7 -4 11 -9 8 -5 -3 -14 1 -21 9 -8 10 -17 12 -24
6 -11 -9 -51 11 -41 20 2 3 -6 6 -18 6 -12 1 -23 7 -25 13 -2 5 -16 10 -32 10
-16 0 -31 6 -33 13 -4 9 -8 8 -16 -3 -9 -13 -11 -13 -11 2 0 11 -6 16 -20 13
-12 -2 -20 2 -20 10 0 9 -6 12 -15 9 -8 -4 -22 -1 -30 6 -8 6 -19 9 -25 5 -5
-3 -10 -1 -10 5 0 7 -8 9 -21 5 -15 -5 -19 -4 -15 4 4 7 0 11 -11 11 -11 0
-23 4 -29 10 -5 5 -26 10 -46 12 -21 1 -34 6 -31 12 4 5 -1 7 -10 3 -10 -3
-17 -2 -17 4 0 6 -4 7 -10 4 -5 -3 -10 0 -10 7 0 9 -3 9 -10 -2 -8 -13 -10
-12 -10 3 0 11 -5 15 -11 11 -10 -6 -31 1 -83 28 -12 6 -16 6 -12 -1 4 -6 -2
-8 -16 -6 -26 5 -41 -14 -26 -32 7 -9 6 -14 -6 -19 -9 -3 -16 -14 -16 -23 0
-14 2 -14 10 -1 6 9 10 10 10 3 0 -7 -8 -17 -17 -22 -10 -6 -13 -11 -8 -11 6
0 11 -9 12 -20 1 -11 -2 -18 -7 -15 -10 6 -8 -15 3 -32 4 -7 0 -16 -9 -21 -15
-8 -15 -10 1 -16 14 -5 15 -9 5 -21 -10 -12 -10 -15 1 -15 8 0 6 -6 -7 -16
-10 -8 -13 -13 -6 -9 8 4 12 -1 12 -15 0 -12 -4 -18 -10 -15 -6 4 -7 -1 -3
-11 4 -12 3 -15 -5 -10 -18 11 -14 0 5 -15 14 -12 16 -12 8 0 -6 10 -4 12 4 6
9 -5 10 -10 2 -18 -13 -13 -15 -51 -3 -43 5 3 9 -1 9 -8 0 -9 -7 -12 -16 -8
-14 5 -14 3 -3 -10 11 -14 10 -17 -5 -21 -17 -4 -17 -5 0 -6 19 -1 24 -21 5
-21 -6 0 -3 -10 8 -22 10 -12 14 -18 8 -15 -7 4 -14 -3 -16 -17 -4 -19 -1 -23
11 -18 14 5 14 3 3 -11 -8 -9 -11 -21 -7 -27 4 -6 1 -18 -6 -26 -10 -12 -9
-13 6 -8 16 6 16 5 4 -17 -15 -28 -14 -29 1 -39 9 -6 9 -13 1 -28 -6 -12 -7
-23 -2 -26 11 -7 9 -25 -3 -45 -7 -10 -5 -12 3 -6 9 5 12 1 9 -12 -2 -11 3
-27 11 -37 12 -14 12 -16 -3 -10 -12 5 -15 2 -10 -10 3 -9 11 -13 18 -9 6 4 5
-1 -3 -10 -11 -14 -11 -17 0 -17 11 0 11 -2 -1 -10 -11 -7 -11 -10 -2 -10 10
0 10 -5 1 -21 -9 -17 -8 -20 2 -14 9 6 11 2 7 -13 -4 -12 0 -26 8 -33 10 -8
11 -16 4 -29 -7 -13 -7 -21 0 -25 8 -5 7 -11 -1 -21 -7 -9 -8 -14 -1 -14 6 0
10 -12 10 -27 -1 -47 1 -54 15 -48 6 4 3 -1 -7 -9 -19 -15 -19 -16 -2 -16 15
0 16 -3 7 -14 -9 -11 -9 -16 -1 -21 7 -4 10 -16 7 -26 -4 -13 0 -19 11 -19 13
0 13 -2 -3 -13 -14 -11 -15 -16 -5 -22 9 -6 11 -4 5 6 -5 8 -4 11 0 6 11 -9
14 -48 4 -41 -4 2 -11 -1 -15 -7 -4 -8 -3 -9 4 -5 6 3 16 -3 22 -14 8 -14 8
-20 0 -20 -6 0 -8 -5 -5 -10 4 -6 10 -8 14 -6 3 3 8 -11 9 -30 3 -61 5 -69 16
-83 9 -12 8 -13 -4 -6 -13 8 -13 6 -2 -8 8 -9 12 -26 10 -39 -2 -13 3 -30 12
-38 17 -17 23 -50 8 -50 -5 0 -6 -5 -3 -10 4 -6 11 -8 16 -5 5 3 6 -1 3 -9 -3
-9 -10 -14 -14 -11 -4 3 -11 -2 -14 -10 -4 -13 -10 -14 -26 -5 -11 6 -20 7
-20 3 0 -4 -16 -8 -35 -8 -19 0 -35 5 -35 10 0 6 -4 3 -10 -5 -5 -8 -12 -11
-16 -8 -4 4 -15 3 -25 -2 -13 -7 -22 -5 -35 8 -17 16 -17 16 -11 0 7 -20 -9
-35 -16 -16 -4 9 -8 9 -14 3 -12 -15 -85 -17 -77 -2 3 7 -1 4 -9 -5 -11 -14
-16 -15 -27 -5 -10 10 -12 9 -7 -5 5 -14 1 -15 -23 -8 -17 5 -32 4 -39 -3 -7
-7 -15 -6 -27 4 -15 12 -17 12 -9 0 6 -11 3 -13 -13 -9 -13 4 -22 1 -22 -5 0
-7 -5 -5 -10 3 -8 13 -14 8 -12 -11 1 -3 -5 -6 -13 -6 -8 0 -12 5 -8 10 3 5
-4 4 -16 -2 -12 -7 -26 -9 -31 -6 -6 3 -10 0 -10 -7 0 -9 -3 -9 -10 2 -5 8
-10 10 -10 3 0 -6 -9 -9 -22 -5 -15 4 -19 2 -13 -7 6 -10 3 -11 -15 -1 -18 10
-21 9 -15 -1 6 -9 2 -11 -13 -7 -12 4 -22 2 -22 -3 0 -4 -7 -6 -16 -2 -9 3
-20 0 -25 -8 -7 -12 -9 -12 -9 0 0 11 -4 9 -15 -5 -13 -16 -14 -16 -9 -1 3 9
1 17 -5 17 -6 0 -11 -7 -11 -15 0 -13 -4 -14 -20 -5 -14 8 -20 8 -20 0 0 -6
-4 -9 -9 -5 -5 3 -13 0 -17 -6 -4 -8 -9 -7 -15 2 -6 11 -9 10 -14 -3 -4 -9
-14 -14 -25 -11 -10 3 -27 0 -39 -6 -14 -8 -21 -8 -21 -1 0 5 -5 10 -11 10 -5
0 -7 -5 -3 -12 5 -8 2 -9 -9 -5 -10 4 -17 2 -17 -5 0 -6 -6 -5 -17 3 -14 12
-16 12 -8 0 6 -11 4 -13 -7 -8 -9 3 -20 1 -25 -4 -5 -5 -22 -11 -38 -13 -78
-11 -111 -19 -117 -30 -5 -7 -8 -6 -8 4 0 13 -1 13 -10 0 -8 -12 -10 -12 -10
-1 0 9 -5 7 -17 -6 -10 -10 -15 -14 -11 -8 4 6 -3 10 -17 10 -14 0 -21 -5 -17
-13 3 -10 -3 -11 -23 -6 -20 5 -26 4 -21 -5 5 -8 0 -8 -20 -1 -22 9 -25 8 -16
-3 9 -10 4 -13 -26 -12 -20 1 -46 -6 -56 -14 -16 -14 -18 -14 -11 -1 8 13 6
13 -8 2 -9 -8 -20 -11 -26 -8 -5 3 -12 -1 -15 -10 -5 -13 -9 -14 -20 -5 -10 9
-16 9 -21 1 -4 -6 -14 -9 -22 -6 -8 3 -11 1 -8 -4 4 -7 -3 -9 -19 -6 -15 3
-26 0 -26 -6 0 -6 -11 -8 -24 -6 -18 4 -23 1 -18 -10 3 -9 1 -13 -5 -9 -5 3
-10 0 -10 -8 0 -8 3 -12 7 -10 3 2 12 0 20 -6 12 -6 12 -9 2 -9 -21 0 13 -30
35 -31 16 0 16 -1 -2 -9 -17 -7 -17 -9 -2 -9 15 -1 22 -12 18 -34 -1 -5 4 -5
10 -1 9 5 10 2 6 -10 -4 -9 -3 -15 2 -11 16 9 41 -6 41 -26 0 -10 5 -19 10
-19 6 0 10 -7 10 -15 0 -8 9 -15 20 -15 18 0 26 -16 21 -44 -1 -5 5 -6 14 -3
9 4 15 1 15 -8 0 -8 5 -15 11 -15 5 0 7 -4 4 -10 -3 -5 2 -10 11 -10 10 0 15
-3 11 -6 -9 -9 25 -44 36 -37 6 4 8 0 4 -9 -4 -11 1 -18 14 -21 10 -3 19 -13
19 -22 0 -11 5 -15 16 -11 8 3 12 2 9 -4 -3 -5 3 -17 15 -27 11 -10 20 -24 20
-31 0 -12 3 -12 15 -2 13 11 14 10 10 -2 -4 -9 3 -19 17 -27 17 -9 18 -10 3
-6 -19 6 -19 5 2 -14 12 -12 27 -21 33 -21 5 0 10 -4 10 -8 0 -15 37 -52 44
-45 3 3 6 -1 6 -10 0 -9 5 -17 11 -17 5 0 7 -4 4 -10 -3 -5 -1 -10 5 -10 6 0
21 -10 33 -21 12 -12 15 -18 7 -14 -13 8 -13 7 -1 -8 10 -13 17 -14 27 -6 10
8 12 6 9 -10 -2 -14 1 -21 11 -21 8 0 14 -4 14 -8 0 -5 10 -14 23 -21 14 -7
15 -10 3 -6 -16 4 -15 2 5 -20 13 -13 33 -25 44 -26 11 0 15 -3 9 -5 -8 -3 -1
-17 16 -36 15 -17 33 -27 39 -24 6 4 8 -2 6 -15 -3 -16 0 -19 11 -15 10 4 18
-1 21 -14 3 -11 9 -18 13 -15 5 3 11 -4 15 -15 3 -11 15 -20 25 -20 14 0 18
-5 13 -17 -4 -10 -2 -14 4 -10 6 4 14 0 17 -9 3 -8 10 -12 16 -9 5 3 10 0 10
-8 0 -8 10 -22 23 -33 l22 -19 -20 25 -20 25 22 -19 c13 -11 23 -25 23 -33 0
-8 5 -11 10 -8 6 3 10 -1 10 -10 0 -9 5 -13 10 -10 6 3 10 -2 10 -11 0 -10 3
-14 6 -11 4 3 15 -5 26 -18 11 -14 24 -25 29 -25 6 0 21 -11 35 -25 14 -14 29
-25 34 -25 6 0 10 -7 10 -16 0 -8 5 -12 10 -9 6 3 10 -4 10 -15 0 -16 -4 -20
-16 -16 -11 4 -15 2 -11 -8 4 -10 1 -13 -7 -10 -8 3 -17 1 -21 -5 -3 -6 -12
-11 -18 -11 -7 0 -6 4 3 10 27 18 1 10 -34 -9 -19 -11 -37 -17 -40 -14 -3 4
-6 1 -6 -6 0 -7 -4 -10 -10 -6 -5 3 -17 1 -27 -4 -26 -14 -57 -24 -65 -23 -5
1 -8 -5 -8 -14 0 -8 -5 -12 -11 -8 -6 3 -15 0 -20 -7 -6 -10 -9 -11 -9 -1 0 6
-4 12 -10 12 -5 0 -7 -7 -4 -15 4 -10 0 -13 -15 -10 -12 2 -21 1 -21 -3 0 -4
-10 -9 -22 -9 -13 -1 -24 -7 -26 -13 -2 -5 -8 -8 -13 -4 -5 3 -9 0 -9 -5 0 -6
-9 -11 -20 -11 -11 0 -20 -5 -20 -11 0 -6 -7 -9 -15 -5 -8 3 -15 1 -15 -4 0
-6 -7 -10 -16 -10 -9 0 -12 -5 -8 -12 5 -8 2 -9 -9 -5 -9 3 -22 0 -29 -7 -8
-7 -22 -12 -31 -10 -13 2 -17 -2 -13 -12 3 -8 2 -13 -2 -10 -5 3 -23 -4 -41
-15 -18 -11 -36 -17 -42 -14 -5 4 -9 -2 -9 -12 0 -15 -2 -16 -10 -3 -6 10 -10
11 -10 3 0 -7 -6 -13 -14 -13 -8 0 -17 -7 -20 -16 -4 -9 -13 -14 -21 -10 -8 3
-15 1 -15 -5 0 -6 -7 -8 -16 -5 -8 3 -12 2 -9 -4 3 -6 1 -10 -5 -10 -6 0 -9
-4 -6 -9 4 -5 -4 -7 -16 -3 -14 3 -19 2 -14 -6 5 -8 -1 -12 -14 -12 -16 0 -20
-4 -16 -15 4 -12 2 -13 -12 -6 -19 10 -46 -10 -34 -25 4 -5 -2 -2 -12 6 -13
10 -17 10 -12 2 4 -7 1 -15 -8 -18 -9 -3 -13 -11 -9 -18 5 -7 2 -7 -8 1 -12
10 -20 8 -42 -11 -15 -13 -23 -27 -19 -31 4 -5 1 -5 -6 -1 -8 5 -19 1 -28 -10
-9 -11 -13 -13 -9 -7 4 8 1 11 -9 7 -9 -3 -15 -9 -14 -12 2 -20 -3 -25 -12
-12 -8 13 -10 12 -10 -4 0 -12 -5 -16 -16 -12 -8 3 -12 2 -9 -4 3 -6 1 -10 -5
-10 -6 0 -9 -4 -5 -9 3 -6 -4 -8 -15 -6 -11 2 -25 -4 -32 -14 -12 -17 -18 -21
-35 -21 -5 0 -2 -4 5 -9 10 -6 4 -10 -20 -16 -18 -4 -36 -7 -40 -6 -4 0 -4 -7
-1 -17 3 -9 3 -14 -2 -10 -4 4 -20 -1 -35 -12 -15 -11 -30 -17 -33 -13 -4 3
-4 -4 -2 -17 3 -18 2 -20 -10 -10 -12 10 -15 9 -15 -5 0 -10 -3 -15 -6 -12 -4
3 -16 -5 -27 -19 -10 -14 -26 -23 -33 -20 -8 3 -14 -1 -14 -10 0 -10 -6 -14
-14 -11 -11 4 -13 1 -9 -10 4 -10 2 -14 -4 -10 -6 4 -13 0 -17 -8 -7 -18 -56
-20 -57 -2 0 6 -4 3 -9 -8 -7 -17 -9 -17 -9 -2 -1 9 -6 17 -12 17 -5 0 -7 -5
-3 -11 3 -6 -5 -4 -19 5 -20 13 -26 14 -30 4 -4 -11 -6 -11 -6 0 -1 7 -6 10
-12 7 -5 -4 -20 1 -31 12 -21 18 -21 18 -14 -2 6 -16 5 -18 -5 -7 -7 6 -23 12
-36 12 -13 0 -23 5 -23 10 0 6 -5 10 -11 10 -5 0 -7 -4 -4 -10 3 -5 2 -10 -4
-10 -5 0 -11 5 -13 12 -2 6 -22 13 -44 14 -55 3 -56 3 -49 14 10 16 -1 11 -16
-7 -10 -11 -10 -14 -2 -9 7 4 13 3 13 -2 0 -6 -7 -13 -15 -16 -12 -4 -13 -11
-7 -23 10 -19 5 -46 -7 -39 -4 3 -7 -4 -7 -14 0 -10 4 -16 9 -13 5 3 4 -3 -1
-14 -6 -11 -8 -30 -5 -43 6 -22 7 -23 14 -4 5 13 8 14 8 4 1 -17 55 -21 81 -5
10 5 8 1 -3 -12 -18 -21 -18 -21 6 -19 14 0 22 5 19 11 -3 6 7 2 22 -9 16 -10
25 -13 22 -7 -9 14 32 9 42 -5 8 -10 29 -14 80 -16 17 -1 32 -6 32 -11 0 -5 8
-3 17 4 9 8 14 9 10 3 -4 -7 0 -15 9 -18 8 -3 12 -2 9 4 -3 6 -1 10 4 10 6 0
11 -4 11 -10 0 -5 7 -6 17 -3 11 4 14 3 9 -5 -4 -7 -3 -12 3 -12 5 0 11 6 14
13 3 9 9 8 23 -4 10 -8 29 -14 41 -13 13 0 23 -2 23 -6 0 -5 12 -7 26 -5 15 1
28 -3 31 -12 5 -12 7 -12 14 -1 7 11 11 10 19 -2 9 -13 10 -13 10 0 1 13 2 13
10 -1 6 -10 21 -14 42 -13 18 2 43 -4 55 -11 19 -13 22 -13 26 3 4 16 5 16 6
0 1 -12 6 -15 18 -11 11 5 14 3 8 -6 -6 -10 -3 -11 13 -2 15 8 21 7 25 -3 3
-8 14 -13 24 -12 10 2 26 -1 37 -6 12 -7 16 -7 12 0 -4 6 2 8 14 5 11 -3 18
-9 15 -13 -2 -4 9 -6 26 -4 20 3 28 0 23 -7 -4 -8 0 -8 14 0 17 9 23 7 36 -11
14 -20 21 -18 17 4 0 4 6 5 14 2 8 -4 15 -10 15 -16 0 -5 9 -6 20 -3 11 4 20
2 20 -4 0 -6 5 -11 11 -11 5 0 7 6 3 13 -4 6 2 4 13 -6 11 -9 23 -14 26 -11 4
4 13 1 22 -6 9 -7 18 -10 22 -7 3 4 13 1 21 -6 13 -10 14 -9 3 13 -12 25 -12
25 6 4 11 -12 29 -19 46 -19 16 1 35 -4 43 -12 11 -12 14 -12 14 -1 0 8 3 9 8
3 4 -6 18 -12 32 -13 14 0 26 -6 28 -12 3 -8 8 -7 18 1 8 6 14 7 14 2 0 -5 12
-10 27 -11 15 -1 32 -7 37 -12 6 -6 15 -10 20 -10 6 0 4 5 -4 10 -8 5 -10 10
-4 10 6 0 17 -6 24 -14 6 -8 18 -12 26 -9 8 3 14 0 14 -6 0 -9 5 -9 21 0 15 8
19 8 15 0 -5 -7 4 -11 23 -11 17 0 31 -4 31 -10 0 -5 6 -7 14 -4 8 3 17 1 20
-4 3 -5 19 -8 36 -6 16 2 30 0 30 -5 0 -5 7 -12 16 -15 8 -3 12 -2 9 3 -3 5 0
13 6 17 7 4 9 3 6 -3 -4 -6 1 -17 10 -24 12 -10 14 -10 9 -1 -4 7 -2 12 8 12
8 0 17 -6 19 -12 4 -10 6 -10 6 0 1 10 5 10 16 -2 9 -8 22 -13 30 -9 9 3 21 0
29 -6 7 -6 16 -7 20 -3 4 4 15 -2 23 -13 14 -18 15 -19 9 -1 -5 15 -4 17 7 8
8 -7 17 -9 20 -5 4 3 7 1 7 -7 0 -10 4 -10 17 1 9 8 14 9 10 3 -4 -7 0 -14 8
-18 8 -3 15 -1 15 4 0 6 5 10 11 10 5 0 8 -4 5 -9 -3 -5 1 -11 9 -15 8 -3 15
-1 15 5 0 6 6 7 13 2 6 -4 26 -8 42 -9 45 -3 47 -3 40 -13 -3 -6 4 -8 17 -6
12 3 32 -2 45 -10 14 -10 24 -11 28 -4 5 6 12 6 23 -3 13 -11 14 -11 8 0 -7
12 -4 12 14 2 12 -6 28 -9 36 -6 8 3 14 1 14 -4 0 -5 7 -6 17 -3 10 4 14 2 10
-4 -3 -5 0 -10 8 -10 8 0 12 4 9 9 -3 4 0 8 5 8 6 0 11 -4 11 -9 0 -4 16 -7
36 -6 22 1 38 -4 41 -12 4 -11 8 -10 18 4 13 17 14 17 20 1 4 -9 14 -19 22
-22 14 -6 14 -4 2 10 -13 16 -12 16 9 5 12 -6 22 -8 22 -4 0 4 5 1 10 -7 8
-12 10 -12 10 -1 0 10 6 10 26 -4 15 -9 23 -12 20 -6 -4 6 0 11 8 11 9 0 16
-5 16 -11 0 -8 6 -7 17 2 9 8 14 9 10 3 -3 -6 0 -11 8 -11 8 0 11 5 8 10 -3 5
0 7 8 5 8 -3 13 -9 12 -14 -1 -5 25 -8 58 -8 37 1 59 -2 59 -9 0 -7 4 -7 12 1
17 17 28 15 29 -5 0 -15 2 -15 9 2 6 13 9 15 9 5 1 -13 2 -13 11 0 5 8 10 10
10 4 0 -6 16 -11 35 -12 20 -1 40 -4 45 -7 4 -3 11 1 13 7 3 7 6 8 6 2 1 -6
16 -9 36 -8 22 2 35 -1 35 -9 0 -8 4 -7 9 2 8 12 12 12 24 2 11 -8 17 -9 22
-1 3 6 12 7 18 3 16 -10 38 -13 33 -5 -2 4 22 7 54 7 32 0 56 -3 54 -6 -2 -4
3 -9 11 -12 10 -4 12 -1 8 11 -5 14 -3 15 8 5 14 -14 33 -18 25 -5 -2 4 8 8
24 7 15 0 26 -3 24 -6 -2 -4 3 -10 12 -13 8 -3 12 -2 9 3 -3 5 -1 12 5 16 5 3
10 0 10 -7 0 -9 3 -9 10 2 7 11 10 11 10 2 0 -8 5 -10 13 -5 17 11 38 13 32 3
-3 -4 2 -10 10 -13 8 -4 12 -1 9 6 -5 14 82 18 103 4 6 -4 15 -2 19 4 4 8 9 7
15 -2 6 -10 9 -11 9 -2 0 9 13 12 40 10 24 -2 40 1 40 7 0 6 5 4 10 -4 9 -13
10 -13 10 0 0 12 2 13 9 1 7 -11 9 -11 14 0 4 11 6 11 6 0 1 -11 5 -10 17 5 8
10 13 13 9 7 -3 -7 -2 -13 2 -13 5 0 15 6 22 13 11 10 13 10 7 0 -9 -16 10
-17 19 -3 5 8 11 7 21 -1 11 -9 17 -9 29 1 8 6 20 10 27 7 7 -2 21 0 31 5 12
6 17 5 17 -4 0 -9 3 -9 10 2 10 17 60 22 60 6 0 -7 3 -7 8 1 4 6 26 10 49 10
22 -1 39 1 36 6 -2 4 5 7 16 7 10 0 21 -3 24 -7 2 -5 2 -2 0 6 -2 9 3 12 17 8
11 -3 20 0 20 6 0 7 5 5 10 -3 7 -10 10 -11 10 -2 0 8 8 10 25 6 17 -4 25 -2
25 6 0 10 3 10 15 0 12 -10 16 -9 21 4 3 9 10 13 15 10 6 -3 17 0 26 8 12 9
15 9 9 0 -4 -6 -3 -12 2 -12 6 0 13 7 16 16 5 13 9 14 21 4 10 -8 15 -9 15 -2
0 6 7 9 15 6 9 -4 15 0 15 7 0 11 3 11 10 -1 8 -12 10 -12 10 -1 0 8 7 11 20
8 13 -3 18 -1 13 6 -4 6 0 8 10 4 9 -3 19 -1 23 5 4 7 9 6 15 -3 7 -12 9 -12
9 0 0 8 7 11 20 8 11 -3 18 -1 15 3 -3 5 -1 11 5 15 5 3 10 0 10 -7 0 -10 2
-10 9 1 5 8 14 10 21 6 8 -5 11 -4 6 3 -4 6 1 11 11 11 41 1 65 8 74 22 7 12
9 12 9 -1 0 -13 2 -13 9 -1 5 8 16 11 25 8 9 -4 15 -3 15 1 -3 19 2 25 11 12
6 -10 10 -11 10 -2 0 6 7 12 16 12 9 0 12 5 8 13 -5 8 -2 8 9 -2 10 -8 17 -9
17 -3 0 6 9 9 19 7 14 -2 18 1 15 10 -4 9 2 13 20 11 14 -2 26 1 26 5 0 5 6 8
13 6 6 -1 11 3 10 10 -2 9 4 10 22 3 20 -8 23 -7 18 7 -4 10 -2 14 4 10 6 -4
19 0 27 9 12 11 16 12 16 2 1 -8 6 -6 15 6 8 11 15 17 15 13 0 -4 10 -1 23 7
12 7 30 12 40 11 15 -3 16 -1 5 13 -7 9 -8 14 -4 10 5 -4 16 -2 24 5 13 10 14
9 7 -2 -5 -8 7 -4 25 9 18 13 30 17 25 9 -8 -12 -6 -12 9 0 13 11 14 16 4 23
-8 5 -3 7 15 4 15 -3 27 0 27 6 0 5 7 8 14 5 10 -4 13 -1 9 9 -3 9 0 12 8 9 8
-2 25 5 39 16 14 11 19 17 11 13 -9 -4 -12 -3 -8 3 4 6 18 9 32 8 14 -2 23 1
19 6 -3 5 0 9 6 9 6 0 9 4 6 8 -3 5 1 9 9 10 8 1 22 3 30 4 10 1 14 7 10 17
-3 8 -3 12 1 8 4 -4 12 -3 18 2 21 16 55 19 66 5 7 -7 9 -17 7 -21 -3 -5 4
-10 15 -10 12 -1 25 -8 29 -15 5 -7 14 -13 21 -14 24 -2 48 -16 42 -25 -3 -5
2 -9 10 -9 9 0 16 -5 16 -11 0 -8 6 -7 18 2 9 7 14 9 10 5 -4 -5 2 -17 14 -27
23 -21 32 -24 23 -9 -3 6 1 7 9 4 9 -3 13 -10 10 -15 -3 -5 2 -9 10 -9 9 0 16
-4 16 -10 0 -5 5 -10 11 -10 5 0 7 6 4 13 -4 6 2 2 12 -9 11 -14 27 -21 43
-19 14 2 19 1 13 -1 -7 -3 -13 -9 -13 -14 0 -9 19 -8 37 3 6 4 15 2 19 -4 4
-8 3 -9 -4 -5 -7 4 -12 2 -12 -3 0 -6 5 -12 10 -12 11 -2 25 -5 38 -9 4 -1 11
-2 15 -1 5 1 6 -3 3 -8 -4 -5 -2 -12 4 -16 5 -3 10 0 10 7 1 8 5 7 14 -5 11
-14 15 -15 19 -5 3 8 6 6 6 -5 1 -10 6 -15 11 -12 6 4 18 1 27 -7 14 -11 15
-11 9 0 -7 11 -4 11 12 1 12 -7 18 -18 14 -24 -3 -5 3 -3 13 5 14 11 17 12 10
1 -6 -11 -1 -13 23 -9 24 3 29 1 27 -12 -2 -12 5 -15 31 -15 19 1 31 -3 27 -8
-4 -6 5 -8 21 -5 14 3 29 1 33 -5 4 -6 1 -7 -7 -2 -9 5 -11 4 -6 -4 6 -9 11
-9 22 0 12 10 15 10 12 -2 -2 -9 4 -13 20 -11 12 2 22 -1 22 -6 0 -5 6 -9 13
-10 23 -2 42 -8 57 -17 20 -12 41 -15 35 -5 -3 5 0 12 6 16 8 4 9 3 5 -4 -10
-17 28 -34 44 -19 10 9 11 9 6 0 -5 -9 0 -13 14 -13 12 0 19 -4 16 -8 -3 -5 1
-9 9 -9 8 0 11 5 8 11 -3 6 0 5 8 -2 7 -6 26 -12 42 -12 16 0 26 -4 22 -10 -9
-14 8 -13 23 2 9 9 12 9 12 -1 0 -7 4 -10 9 -6 6 3 14 -3 20 -12 10 -17 10
-17 11 1 0 18 1 18 18 3 15 -13 21 -14 32 -4 10 10 11 9 5 -2 -6 -11 -4 -13 8
-8 9 3 18 1 21 -6 3 -9 7 -8 14 2 6 8 12 9 16 3 3 -6 17 -9 31 -8 13 2 22 -1
19 -5 -3 -5 1 -9 10 -9 8 0 17 6 19 13 4 8 6 7 6 -4 1 -11 9 -14 31 -11 21 3
30 0 30 -9 0 -11 2 -11 10 1 8 12 10 12 10 1 0 -10 3 -11 13 -2 10 7 17 7 24
0 13 -13 112 -18 120 -6 3 5 14 -1 25 -12 16 -18 38 -21 38 -5 0 3 -4 3 -9 -1
-5 -3 -12 -2 -15 3 -2 4 6 8 19 8 13 0 21 -4 19 -8 -3 -5 7 -8 23 -8 65 2 149
-6 162 -14 10 -6 12 -6 7 2 -9 15 -1 15 26 1 15 -8 19 -8 14 0 -4 6 -2 11 3
11 6 0 11 -6 11 -12 0 -8 3 -9 8 -3 10 14 32 17 32 5 0 -12 22 -9 32 5 5 6 8
5 8 -2 0 -7 5 -13 11 -13 5 0 8 4 5 8 -3 5 1 9 9 9 8 0 11 -5 8 -10 -4 -7 1
-8 13 -3 30 13 74 14 80 4 4 -6 10 -5 15 3 6 10 9 11 9 2 0 -7 5 -13 11 -13 5
0 7 6 3 13 -6 10 -4 10 7 0 15 -15 33 -18 25 -5 -3 5 1 9 9 9 8 0 12 -4 9 -9
-3 -4 0 -8 5 -8 6 0 11 5 11 11 0 8 5 8 15 -1 12 -10 15 -10 15 0 0 9 4 9 17
-1 9 -8 14 -9 10 -3 -3 6 0 11 8 11 8 0 12 -4 9 -9 -3 -4 0 -8 5 -8 6 0 11 5
11 11 0 8 4 9 13 0 8 -6 17 -8 21 -4 12 12 40 12 48 0 5 -8 8 -9 8 -1 0 7 17
11 43 10 27 -1 47 4 55 14 8 8 11 10 8 3 -4 -6 -2 -14 4 -18 5 -3 10 0 10 7 0
10 2 10 9 -1 7 -11 11 -10 20 5 7 13 10 14 11 5 0 -8 3 -11 7 -8 3 4 12 2 20
-5 10 -8 12 -8 8 3 -4 11 7 15 52 16 32 0 75 1 96 2 21 1 36 5 33 9 -7 11 35
9 53 -2 10 -6 12 -5 7 2 -10 16 7 15 23 -1 11 -9 13 -9 7 1 -7 12 7 15 67 14
15 0 25 3 23 7 -3 4 1 8 9 8 8 0 12 -3 10 -7 -2 -4 2 -7 10 -7 8 0 12 4 10 8
-3 3 4 9 15 12 13 3 18 1 13 -6 -4 -7 0 -8 13 -3 10 4 24 9 31 10 7 1 16 5 19
9 4 4 12 7 18 7 6 0 4 -5 -4 -10 -9 -6 -10 -10 -3 -10 6 0 15 5 18 10 5 8 11
7 21 -1 11 -9 13 -9 9 2 -4 11 5 14 37 13 53 0 70 5 62 20 -3 6 2 2 10 -8 13
-16 16 -16 16 -5 0 18 31 21 42 5 4 -6 9 -4 14 7 3 9 10 17 16 17 5 0 6 -6 3
-12 -4 -7 1 -4 9 6 16 20 16 20 16 0 1 -17 2 -16 14 5 8 15 16 20 20 12 4 -6
12 -11 17 -11 6 0 8 4 5 8 -3 5 8 8 24 7 17 -1 30 3 30 8 0 5 8 3 17 -4 9 -8
14 -9 11 -4 -4 6 3 17 15 25 21 12 21 12 7 -5 -8 -11 -10 -16 -4 -12 24 14 69
30 79 28 32 -9 45 -9 40 -2 -7 12 22 23 69 27 22 1 43 9 47 16 7 11 9 11 9 0
0 -8 5 -10 12 -6 7 4 23 9 37 10 13 2 27 7 30 11 3 5 16 8 29 7 12 -1 22 4 22
10 0 6 5 4 10 -4 6 -9 10 -10 10 -3 0 6 9 10 20 8 11 -2 23 1 26 7 5 7 2 8 -6
3 -9 -5 -11 -4 -6 4 6 9 11 9 22 0 10 -8 14 -8 14 -1 0 6 7 9 15 6 9 -4 15 0
15 7 0 11 3 11 10 -1 8 -12 10 -12 10 -1 0 9 8 12 25 9 13 -3 22 -1 19 4 -3 5
6 7 20 4 15 -3 24 -1 21 4 -3 4 2 11 11 14 10 4 13 2 8 -6 -5 -8 -2 -9 12 -3
10 4 27 7 37 7 12 -1 17 4 13 13 -3 9 0 12 9 8 8 -3 12 -10 9 -17 -3 -6 0 -4
8 4 7 8 29 16 48 17 51 2 52 2 45 12 -3 6 4 8 17 6 12 -3 26 1 30 8 6 9 8 9 8
-2 0 -10 3 -11 13 -2 8 6 29 13 48 15 19 3 34 5 34 6 0 3 39 11 55 12 8 1 18
6 22 12 5 7 8 6 8 -3 0 -10 8 -7 27 10 14 13 23 19 19 12 -3 -6 -2 -14 4 -18
5 -3 10 -1 10 5 0 6 5 8 10 5 6 -3 10 0 10 7 0 10 3 9 9 -1 8 -12 12 -12 25
-2 9 7 23 11 31 7 9 -3 18 1 21 9 4 8 10 12 15 9 6 -3 16 -1 24 6 9 8 15 8 20
0 9 -14 27 -2 19 13 -5 9 -4 9 6 0 9 -8 19 -9 30 -3 10 5 27 8 38 5 12 -2 23
3 26 11 5 12 10 13 27 3 17 -8 20 -8 14 1 -6 9 2 11 28 8 20 -2 34 -1 31 3 -2
4 3 10 12 13 10 4 13 2 8 -7 -6 -9 -4 -9 8 1 13 10 17 10 21 0 3 -8 6 -6 6 5
1 15 5 16 21 7 17 -9 20 -8 20 7 0 15 2 16 10 3 6 -9 10 -11 10 -3 0 7 7 10
17 6 10 -4 14 -2 9 5 -4 7 2 9 20 6 14 -3 33 1 42 8 9 7 13 8 9 2 -3 -6 0 -11
8 -11 8 0 11 5 8 10 -4 6 3 8 15 5 13 -4 22 -1 22 5 0 7 5 5 10 -3 8 -13 10
-12 10 4 0 13 3 16 13 9 15 -13 50 -8 55 6 3 8 10 7 24 0 12 -6 18 -7 14 -1
-3 5 1 13 10 16 8 3 13 2 10 -3 -4 -5 3 -7 14 -4 11 3 17 10 14 15 -4 6 2 5
14 -1 16 -9 24 -8 36 5 11 10 16 11 16 3 0 -7 8 -5 22 7 14 12 18 14 13 4 -5
-9 -5 -12 1 -7 12 12 12 67 -1 67 -5 0 -3 5 5 10 13 8 12 10 -2 10 -10 0 -18
5 -18 11 0 5 4 8 8 5 4 -2 8 4 8 15 0 10 -4 19 -9 19 -5 0 -7 6 -4 13 3 8 1
20 -4 28 -7 12 -9 12 -9 0 0 -11 -4 -9 -15 5 -9 12 -13 13 -10 4 4 -12 -3 -16
-32 -18 -20 -2 -39 -5 -42 -7 -2 -3 -10 0 -18 7 -11 8 -12 7 -7 -5 4 -12 0
-15 -20 -13 -14 2 -26 -1 -26 -7 0 -5 -8 -3 -17 4 -10 8 -14 9 -10 2 4 -6 3
-14 -3 -18 -5 -3 -10 -1 -10 4 0 6 -5 11 -11 11 -5 0 -7 -4 -4 -10 3 -5 1 -10
-4 -10 -6 0 -11 6 -11 13 0 6 -5 4 -11 -7 -9 -15 -13 -16 -20 -5 -5 9 -9 10
-9 2 0 -6 -9 -9 -20 -6 -12 3 -20 0 -20 -7 0 -8 -9 -10 -25 -6 -17 4 -25 2
-25 -6 0 -9 -3 -8 -10 2 -7 11 -10 11 -10 2 0 -7 -5 -10 -10 -7 -6 4 -8 11 -4
16 3 6 -3 13 -15 16 -11 3 -19 9 -16 13 3 5 1 11 -5 15 -5 3 -10 0 -10 -7 -1
-7 -6 -4 -13 7 -7 11 -19 21 -27 23 -8 2 -26 16 -40 33 -14 16 -33 29 -43 29
-10 0 -15 5 -12 10 3 6 -3 10 -15 10 -14 0 -19 4 -14 12 5 7 2 9 -9 5 -12 -4
-14 -2 -10 10 4 10 2 14 -5 9 -6 -3 -14 -1 -19 6 -4 7 -26 22 -48 34 -22 12
-39 26 -38 32 2 6 -4 9 -12 6 -9 -4 -18 1 -21 11 -6 13 -9 14 -16 3 -7 -9 -8
-6 -4 11 4 18 2 21 -7 12 -15 -15 -28 -14 -25 2 2 6 -5 11 -15 10 -12 -1 -17
4 -13 14 3 8 2 11 -3 8 -5 -3 -13 0 -16 6 -4 5 -13 8 -21 5 -8 -3 -14 1 -14 9
0 14 -12 19 -32 16 -5 0 -8 4 -8 10 0 5 -4 7 -10 4 -5 -3 -10 2 -10 11 0 10
-3 14 -7 11 -3 -4 -12 1 -20 11 -8 9 -12 11 -8 5 9 -18 -1 -16 -21 5 -10 9
-20 17 -23 17 -3 1 -16 6 -27 13 -12 6 -24 9 -27 6 -3 -3 -11 4 -17 16 -10 18
-14 20 -21 9 -7 -11 -9 -10 -9 4 0 9 -5 17 -11 17 -5 0 -7 5 -3 12 5 7 3 8 -7
2 -23 -14 -39 -13 -39 2 0 9 -4 12 -10 9 -5 -3 -10 -2 -10 3 0 5 -12 18 -27
28 -20 13 -25 13 -18 3 6 -8 2 -6 -7 4 -11 12 -18 14 -18 7 0 -7 -9 -3 -19 9
-10 12 -21 17 -23 11 -2 -7 -10 -5 -23 5 -20 15 -20 15 0 9 16 -5 17 -4 5 4
-8 6 -18 8 -23 5 -4 -3 -17 3 -27 12 -11 10 -26 15 -34 12 -9 -4 -18 -1 -22 5
-5 7 -2 8 6 3 9 -6 11 -4 6 4 -5 7 -14 10 -22 7 -8 -3 -24 5 -35 17 -12 12
-19 16 -15 10 5 -9 2 -11 -8 -7 -9 3 -13 11 -9 17 3 6 1 7 -6 3 -6 -4 -23 -1
-36 8 -13 9 -33 16 -45 16 -11 0 -20 5 -20 10 0 6 -9 10 -19 10 -11 0 -22 6
-24 13 -4 9 -6 9 -6 -1 -1 -10 -5 -10 -17 2 -8 9 -20 14 -25 11 -5 -4 -9 -1
-9 4 0 6 -5 11 -11 11 -5 0 -7 -5 -3 -12 4 -7 3 -8 -4 -4 -6 4 -9 12 -7 19 4
8 -7 13 -31 14 -19 1 -42 7 -50 14 -8 6 -14 8 -14 5 0 -4 -10 -1 -22 6 -13 7
-27 11 -33 9 -5 -1 1 8 15 21 13 13 28 22 32 21 5 -2 9 2 9 7 1 6 2 14 3 19 0
5 5 13 10 18 5 5 6 3 2 -4 -4 -7 -2 -13 3 -13 6 0 11 7 11 16 0 8 5 12 10 9 6
-3 10 -1 10 4 0 6 6 10 13 8 6 -1 11 4 10 11 -2 6 2 12 8 12 5 0 7 6 3 13 -6
9 -4 9 8 -1 13 -10 18 -10 24 -1 5 8 3 9 -6 4 -8 -5 -11 -3 -8 6 3 8 11 14 19
14 8 1 13 6 12 13 -2 7 1 12 6 12 12 0 70 58 64 64 -3 2 6 2 19 -1 18 -4 20
-3 8 6 -8 6 -10 11 -5 11 15 0 70 51 68 61 -2 5 4 9 13 9 9 0 12 5 8 12 -5 7
-2 9 9 5 12 -4 14 -2 10 10 -4 11 -2 14 5 9 7 -4 12 -2 12 4 0 6 5 8 12 4 8
-5 9 -2 4 12 -4 10 -4 15 0 12 8 -9 34 16 34 34 0 10 3 9 10 -2 7 -11 10 -12
10 -2 0 16 57 72 65 64 3 -3 5 2 5 12 0 9 5 14 10 11 6 -3 10 0 10 8 0 8 7 18
16 21 8 3 12 10 9 16 -3 5 1 10 9 10 8 0 17 9 21 19 4 12 12 18 21 14 8 -3 14
1 14 11 0 9 5 16 11 16 6 0 9 7 6 14 -4 10 -1 13 9 9 9 -3 14 1 14 12 0 10 5
13 12 9 8 -5 9 -2 4 12 -4 10 -4 16 -1 12 4 -3 21 9 40 27 18 19 36 31 41 27
4 -4 4 -2 1 5 -4 6 -1 18 7 26 8 8 12 18 8 23 -4 5 2 2 12 -6 17 -13 18 -13
11 -1 -6 11 -4 13 10 7 15 -5 16 -4 5 9 -11 14 -10 17 8 21 14 4 19 11 15 22
-5 10 -2 13 6 8 8 -5 14 0 18 14 4 16 8 18 14 8 7 -10 9 -8 9 6 0 24 47 69 63
60 9 -5 9 -4 1 6 -9 9 -7 17 7 31 10 10 24 19 30 19 5 0 8 4 4 9 -3 6 3 14 12
20 10 6 14 11 9 11 -5 0 1 8 12 19 12 10 18 21 15 25 -4 4 0 4 10 0 13 -5 16
-2 10 12 -4 12 -3 15 5 10 11 -6 16 5 14 25 -1 4 6 6 16 5 10 0 16 6 16 17 -1
9 5 17 14 17 8 0 12 3 9 7 -4 3 4 16 18 28 13 13 21 26 17 31 -4 4 2 4 13 1
19 -7 19 -6 2 7 -14 10 -15 15 -5 19 7 3 -3 6 -22 8 -56 3 -58 4 -67 13 -5 5
-2 6 6 1 9 -5 12 -4 7 3 -4 6 -13 9 -21 5 -9 -3 -22 1 -31 8 -9 7 -32 12 -51
10 -23 -2 -33 1 -29 8 4 7 1 8 -8 5 -9 -3 -16 -2 -16 3 0 5 -12 8 -27 7 -16 0
-31 4 -35 9 -8 14 -40 18 -32 5 4 -5 -3 -5 -16 2 -12 6 -28 9 -36 6 -9 -3 -14
1 -15 12 0 11 -2 13 -6 4 -4 -10 -10 -9 -26 5 -11 10 -17 12 -13 6 9 -16 -6
-17 -22 -1 -9 9 -12 9 -12 -1 0 -7 -5 -9 -10 -6 -6 4 -8 10 -6 13 2 4 -8 7
-22 6 -15 -1 -33 3 -39 8 -7 6 -19 8 -27 5 -8 -3 -22 0 -32 8 -13 9 -23 10
-31 3 -9 -7 -13 -7 -13 0 0 5 -7 13 -16 16 -8 3 -13 2 -10 -3 4 -5 -3 -7 -14
-4 -11 3 -17 10 -13 17 4 6 -1 5 -10 -3 -9 -7 -17 -9 -17 -4 0 5 -18 9 -40 9
-24 -1 -39 3 -36 9 2 6 -8 11 -23 12 -71 2 -118 9 -113 17 3 5 -2 7 -11 3 -9
-3 -19 -1 -23 5 -4 7 -9 6 -14 -2 -5 -8 -11 -7 -23 4 -11 12 -17 13 -20 3 -4
-9 -6 -8 -6 2 -1 11 -4 11 -18 0 -14 -12 -16 -12 -11 1 5 13 -1 15 -28 12 -19
-2 -40 -2 -46 1 -7 2 -16 4 -19 3 -3 0 -14 6 -24 14 -11 8 -16 10 -12 4 4 -7
0 -15 -9 -18 -8 -3 -12 -2 -9 4 6 10 -8 14 -34 10 -8 -1 -18 4 -22 12 -5 7 -9
8 -9 2 0 -12 -38 -13 -57 -1 -7 5 -35 9 -63 9 -27 1 -50 5 -50 10 0 11 -23 6
-32 -7 -5 -6 -8 -6 -8 1 0 7 -7 15 -16 18 -8 3 -12 2 -9 -4 10 -16 -7 -12 -27
7 -18 16 -18 16 -12 -3 6 -16 5 -17 -7 -6 -16 15 -33 16 -23 1 5 -8 1 -8 -13
0 -11 6 -23 7 -27 4 -3 -3 -6 -1 -6 5 0 14 -22 12 -32 -3 -5 -6 -8 -4 -8 5 0
13 -1 13 -10 0 -8 -12 -10 -12 -10 -1 0 11 -3 11 -15 1 -12 -10 -16 -8 -24 11
-9 25 -5 43 8 35 3 -3 7 4 7 14 0 11 -6 16 -16 13 -10 -4 -8 0 4 9 13 10 17
23 14 41 -3 14 -1 25 5 24 5 -1 12 4 15 12 3 9 0 11 -9 6 -11 -6 -12 -5 -1 6
6 7 12 26 12 41 0 15 3 28 8 28 4 0 8 13 8 30 1 16 5 37 9 47 5 10 10 27 12
38 2 17 1 17 -8 5 -9 -13 -10 -13 -5 0 3 8 9 23 12 33 4 9 11 17 17 17 6 0 3
6 -8 13 -17 13 -17 15 6 32 18 13 19 16 5 11 -15 -5 -17 -4 -8 7 9 10 8 17 -1
27 -9 10 -9 11 1 6 8 -5 12 0 12 13 0 31 1 35 11 48 7 7 6 13 0 17 -13 8 -7
59 8 64 9 3 9 8 -1 20 -11 13 -11 14 0 8 11 -6 12 -1 9 23 -3 18 -1 31 5 31 6
0 4 7 -3 17 -10 11 -10 14 -1 9 6 -4 12 -2 12 3 0 6 -5 11 -11 11 -5 0 -7 5
-4 10 4 6 9 8 13 6 4 -2 7 9 8 25 1 25 -1 27 -15 17 -14 -12 -15 -11 -1 6 8
10 15 30 15 45 0 14 4 32 8 39 5 7 3 12 -3 12 -8 0 -8 6 0 20 8 15 8 20 -2 20
-10 0 -10 2 1 9 9 6 10 11 3 15 -17 10 -3 36 16 29 10 -4 6 3 -8 15 -14 12
-18 20 -9 17 11 -4 15 1 15 19 0 14 -3 23 -6 21 -3 -2 -7 5 -7 16 -1 10 3 19
8 19 6 0 7 -5 3 -12 -4 -7 -3 -8 5 -4 9 6 9 11 0 22 -12 14 -20 83 -10 82 21
-2 22 4 5 18 -10 8 -13 13 -6 9 7 -4 12 0 12 10 0 10 -5 14 -12 10 -7 -4 -4 1
6 9 18 14 15 21 -7 17 -4 -1 0 10 9 24 16 24 15 25 -1 19 -15 -6 -16 -4 -7 13
6 11 9 23 6 26 -9 8 -11 66 -3 61 4 -2 10 0 14 6 3 6 -4 10 -17 11 -22 0 -22
1 -3 9 13 6 15 9 5 9 -13 1 -13 2 0 11 12 8 12 10 -5 11 -19 0 -19 1 -1 8 18
7 18 8 2 14 -14 6 -16 10 -7 21 7 8 8 16 4 19 -4 3 -8 34 -8 70 0 48 -3 63
-12 56 -7 -7 -13 -5 -15 3 -4 10 -8 10 -20 1 -11 -10 -17 -10 -27 0 -11 10
-11 7 -1 -13 l13 -25 -23 20 c-13 11 -20 14 -16 8 6 -12 -11 -18 -36 -14 -5 0
-8 -7 -8 -17 0 -9 -4 -13 -8 -7 -9 13 -42 16 -42 4 0 -5 -7 -9 -16 -9 -8 0
-13 -4 -10 -9 8 -12 -27 -8 -36 4 -4 6 -8 2 -8 -8 0 -10 -4 -16 -9 -12 -5 3
-12 1 -15 -4 -3 -5 -19 -8 -36 -7 -25 2 -27 0 -17 -13 6 -9 7 -13 3 -9 -5 4
-16 2 -24 -5 -13 -9 -14 -9 -8 1 4 6 2 12 -3 12 -6 0 -11 -5 -11 -11 0 -5 -4
-8 -9 -5 -5 3 -11 -1 -15 -9 -3 -8 -12 -12 -21 -9 -8 4 -23 0 -32 -7 -14 -12
-16 -12 -8 1 8 13 7 13 -9 0 -10 -8 -24 -15 -30 -16 -26 -3 -56 -17 -56 -26 0
-6 -7 -5 -15 2 -9 7 -18 10 -22 6 -3 -3 -1 -6 6 -6 7 0 10 -4 7 -9 -3 -4 -17
-7 -31 -6 -14 2 -23 0 -20 -5 6 -10 -23 -22 -35 -15 -5 3 -11 1 -15 -5 -3 -5
-15 -10 -26 -10 -11 0 -17 -4 -14 -10 3 -6 -1 -7 -9 -4 -9 3 -16 1 -16 -5 0
-6 -6 -8 -14 -5 -8 3 -17 1 -20 -5 -4 -6 -14 -7 -23 -4 -10 4 -14 2 -10 -4 4
-6 0 -14 -9 -17 -10 -4 -13 -2 -8 7 6 8 3 8 -9 -1 -9 -8 -22 -10 -28 -6 -7 4
-9 3 -5 -4 3 -6 2 -13 -4 -17 -5 -3 -10 -2 -10 4 0 5 -12 -1 -26 -14 -21 -19
-30 -22 -40 -14 -13 10 -18 6 -16 -12 1 -4 -7 -6 -16 -6 -40 0 -53 -4 -47 -13
3 -5 -3 -10 -14 -10 -12 0 -21 -6 -21 -12 0 -9 -4 -8 -10 2 -8 13 -10 13 -10
-1 0 -11 -8 -15 -25 -14 -14 2 -25 -1 -25 -6 0 -5 -7 -9 -16 -9 -8 0 -13 -4
-10 -8 4 -7 -10 -11 -51 -14 -7 -1 -13 -5 -13 -10 0 -4 -9 -8 -19 -8 -10 0
-21 -7 -25 -15 -3 -8 -11 -15 -18 -15 -9 0 -8 3 2 10 8 5 11 10 5 10 -17 -1
-45 -27 -37 -35 4 -5 1 -5 -6 -1 -7 4 -19 2 -27 -4 -8 -6 -19 -9 -24 -5 -6 3
-16 -3 -23 -14 -10 -16 -15 -18 -27 -8 -8 7 -12 7 -9 2 4 -6 -7 -18 -23 -28
-18 -10 -28 -12 -24 -4 4 6 0 4 -8 -5 -11 -14 -16 -15 -26 -5 -10 9 -11 9 -6
-4 4 -10 0 -16 -11 -16 -9 0 -19 9 -22 19 -2 10 -9 18 -14 18 -5 0 -8 6 -6 14
2 7 -6 22 -17 32 -12 11 -15 15 -8 10 10 -6 12 -4 7 8 -3 9 -10 16 -15 16 -5
0 -9 9 -9 19 0 10 -7 22 -16 25 -9 4 -14 13 -10 21 3 9 0 15 -10 15 -8 0 -12
5 -9 10 3 6 1 10 -6 10 -7 0 -10 3 -6 6 3 4 -4 15 -16 26 -12 11 -16 17 -9 13
6 -3 12 -1 12 4 0 6 -5 11 -11 11 -6 0 -8 7 -5 17 4 10 4 14 0 10 -10 -10 -34
12 -34 32 0 9 -9 22 -21 29 -17 11 -19 16 -7 29 9 12 10 15 1 9 -8 -4 -13 -2
-13 4 0 6 -4 9 -8 6 -4 -2 -14 5 -22 17 -11 19 -11 21 1 12 8 -5 7 -2 -4 7
-10 10 -16 22 -12 28 6 9 -8 15 -29 11 -5 -1 -4 4 3 13 9 11 9 16 0 22 -8 5
-10 3 -5 -7 4 -8 0 -5 -8 5 -9 11 -16 26 -16 33 0 7 -4 13 -10 13 -5 0 -10 8
-10 18 0 14 -2 15 -10 2 -8 -12 -10 -9 -10 13 0 16 -4 26 -10 22 -5 -3 -10 3
-10 14 0 12 -5 21 -11 21 -5 0 -7 5 -4 10 3 6 -1 10 -10 10 -12 0 -15 5 -11
16 4 11 -1 18 -14 21 -11 3 -17 9 -14 15 7 12 -16 39 -27 32 -8 -4 -14 25 -10
49 0 4 -6 7 -14 7 -9 0 -12 6 -8 17 4 11 3 14 -5 9 -11 -6 -14 -1 -11 20 0 3
-8 13 -18 22 -10 9 -19 24 -21 32 -2 8 -8 17 -13 18 -5 2 -9 12 -9 23 0 11 -7
19 -17 19 -15 0 -16 2 -3 10 12 8 12 10 -3 16 -9 3 -17 12 -17 20 0 8 -5 14
-11 14 -8 0 -7 6 2 17 10 11 10 14 2 9 -9 -4 -13 -1 -13 9 0 11 -5 15 -14 12
-10 -4 -12 0 -8 15 3 14 1 19 -6 14 -8 -5 -10 -2 -6 8 3 9 1 16 -6 16 -6 0 -8
5 -5 10 3 6 0 10 -7 10 -9 0 -9 3 2 10 13 8 12 10 -3 10 -10 0 -15 5 -12 10 3
6 1 10 -5 10 -6 0 -8 5 -5 10 3 6 -1 10 -10 10 -9 0 -13 5 -10 10 4 6 12 8 18
4 7 -3 1 4 -13 16 -14 12 -18 18 -10 14 12 -6 13 -5 3 8 -7 8 -9 19 -5 23 4 5
1 4 -7 0 -11 -6 -13 -4 -8 8 7 19 -9 23 -16 5 -3 -7 -3 1 0 18 4 23 1 33 -12
38 -10 3 -15 12 -11 21 3 8 1 15 -5 15 -6 0 -7 5 -4 10 3 6 1 10 -4 10 -6 0
-11 5 -11 11 0 5 6 7 13 3 8 -5 8 -3 -2 9 -7 9 -18 14 -24 10 -6 -3 -7 -1 -3
6 4 6 0 25 -8 43 -9 17 -16 42 -16 55 0 12 -5 23 -11 23 -5 0 -7 -5 -3 -12 4
-7 3 -8 -5 -4 -9 6 -9 11 0 22 7 9 8 14 1 14 -5 0 -8 9 -5 20 3 12 0 20 -6 20
-7 0 -9 -6 -5 -12 4 -7 3 -9 -1 -5 -5 4 -9 20 -10 35 0 15 -5 26 -11 25 -7 -1
-9 8 -6 24 4 20 2 24 -9 18 -11 -7 -11 -5 1 10 8 10 10 16 5 13 -6 -4 -17 2
-24 14 -7 11 -8 17 -2 14 7 -4 8 -1 5 8 -3 9 -14 16 -23 16 -14 0 -14 2 -1 10
13 8 12 10 -3 10 -10 0 -22 10 -27 23 -5 12 -9 16 -9 9 -1 -7 -6 -10 -11 -7
-6 4 -7 11 -4 17 4 6 -2 6 -15 -1 -16 -9 -21 -9 -21 1 0 8 -3 9 -8 3 -4 -6
-17 -10 -30 -9 -19 1 -20 -1 -10 -14 12 -13 10 -14 -11 -3 -15 8 -21 9 -17 2
4 -6 3 -11 -3 -11 -6 0 -7 -7 -4 -17 4 -10 2 -14 -4 -10 -17 11 -23 -20 -7
-33 8 -7 14 -20 14 -29 0 -9 6 -23 13 -30 10 -10 8 -11 -7 -5 -16 6 -17 4 -9
-10 5 -10 7 -38 3 -64 -8 -51 -4 -72 14 -72 6 0 4 -4 -4 -10 -8 -5 -15 -22
-15 -39 -1 -25 2 -28 14 -18 12 10 13 9 3 -10 -15 -27 -15 -36 -2 -28 6 3 7
-1 4 -9 -3 -9 -10 -14 -14 -11 -5 3 -6 -4 -3 -15 3 -11 8 -18 12 -16 4 3 7 -4
7 -14 0 -15 -3 -16 -13 -8 -11 9 -12 6 -4 -16 7 -18 7 -26 0 -26 -6 0 -7 -5
-4 -10 4 -6 12 -8 18 -4 7 3 4 -1 -5 -8 -15 -13 -15 -15 0 -24 13 -9 13 -12 2
-19 -9 -6 -11 -4 -5 5 6 9 4 11 -5 5 -10 -6 -10 -10 2 -19 13 -10 13 -13 2
-24 -10 -9 -11 -18 -4 -32 7 -13 6 -20 -3 -23 -6 -3 -3 -6 7 -6 20 -1 20 -1 0
-17 -10 -8 -14 -13 -7 -10 6 4 14 2 18 -4 3 -5 -2 -10 -11 -10 -13 0 -15 -3
-7 -11 8 -8 9 -19 2 -37 -8 -22 -8 -23 6 -12 13 11 14 10 9 -4 -3 -9 -10 -16
-15 -16 -5 0 -9 -5 -9 -11 0 -5 5 -7 12 -3 7 5 9 2 5 -8 -3 -9 0 -21 6 -27 9
-9 7 -10 -8 -5 -20 8 -20 8 -1 -20 10 -16 13 -25 7 -22 -15 10 -14 -17 2 -33
10 -10 8 -11 -8 -5 -20 8 -20 8 -1 -20 10 -16 14 -26 8 -22 -5 3 -12 -3 -15
-14 -3 -11 -2 -18 3 -15 4 3 10 -2 13 -10 4 -10 1 -12 -11 -7 -16 6 -16 4 0
-20 10 -15 14 -29 9 -32 -5 -3 -11 -17 -13 -31 -3 -13 -2 -22 2 -20 5 3 10 -2
13 -10 4 -9 1 -12 -9 -8 -7 3 -14 1 -14 -5 0 -5 8 -13 18 -17 16 -6 16 -7 -2
-21 -14 -10 -16 -14 -5 -14 12 0 12 -2 -1 -10 -12 -8 -12 -10 5 -10 17 -1 18
-2 5 -13 -15 -12 -20 -60 -8 -72 3 -4 2 -20 -2 -36 -5 -16 -5 -27 0 -24 5 3
11 1 15 -5 3 -5 0 -10 -7 -10 -10 0 -13 -23 -11 -99 0 -55 4 -105 8 -110 3 -6
0 -11 -7 -12 -7 0 -4 -4 7 -9 13 -6 15 -9 5 -9 -11 -1 -15 -13 -14 -49 2 -71
3 -74 17 -67 6 4 4 0 -6 -8 -14 -11 -15 -16 -5 -20 7 -3 8 -6 2 -6 -14 -1 -6
-53 10 -63 7 -5 3 -8 -9 -8 -17 0 -17 -2 -5 -10 10 -6 11 -10 3 -10 -7 0 -13
-7 -13 -15 0 -9 6 -12 18 -9 10 4 13 3 6 -3 -19 -13 -21 -47 -4 -61 13 -10 13
-11 0 -7 -12 4 -15 -3 -14 -35 1 -22 -2 -37 -7 -34 -5 3 -9 0 -9 -6 0 -7 -7
-10 -15 -6 -9 3 -15 0 -15 -8 0 -14 -20 -26 -55 -33 -11 -2 -26 -11 -32 -20
-7 -9 -13 -13 -13 -9 0 4 -7 0 -16 -8 -8 -9 -20 -13 -26 -10 -6 4 -9 3 -6 -2
3 -5 -4 -18 -15 -29 -11 -11 -16 -13 -12 -5 8 13 6 13 -8 1 -9 -7 -14 -17 -12
-22 3 -4 -4 -6 -15 -4 -11 2 -18 0 -15 -4 6 -11 -20 -33 -29 -24 -4 4 -4 0 -1
-9 4 -9 1 -19 -6 -24 -8 -4 -10 -3 -5 4 4 7 3 12 -3 12 -5 0 -13 -9 -16 -20
-4 -11 -11 -18 -16 -15 -5 4 -9 0 -9 -8 0 -21 -37 -50 -52 -41 -9 5 -8 2 2
-11 9 -11 10 -16 3 -11 -7 4 -13 2 -13 -3 0 -6 -7 -11 -15 -11 -8 0 -15 -9
-15 -19 0 -11 -5 -23 -12 -27 -8 -5 -9 -1 -4 12 5 12 4 15 -2 9 -6 -5 -12 -19
-14 -30 -2 -11 -9 -19 -16 -18 -6 2 -16 -13 -23 -32 -11 -29 -15 -32 -28 -22
-10 8 -13 8 -8 1 4 -7 0 -15 -9 -18 -13 -5 -15 -2 -11 14 3 11 1 20 -5 20 -12
0 -43 30 -31 30 4 0 0 5 -9 11 -10 5 -18 15 -18 20 0 16 -27 39 -44 39 -9 0
-16 5 -16 11 0 5 5 7 10 4 6 -3 10 -1 10 4 0 10 -14 15 -34 12 -5 -1 -6 5 -3
13 4 9 3 15 -1 13 -12 -3 -61 50 -54 59 4 5 -1 2 -11 -6 -10 -7 -17 -9 -16 -4
4 21 -2 35 -11 29 -5 -3 -10 1 -10 9 0 9 -7 16 -16 16 -8 0 -13 4 -10 9 4 5
-7 15 -24 23 -16 7 -30 17 -30 21 0 5 -4 5 -10 2 -5 -3 -10 1 -10 9 0 9 -3 15
-7 15 -20 -3 -34 2 -28 11 3 6 -3 10 -15 10 -12 0 -19 4 -16 9 7 11 -25 27
-60 30 -11 1 -14 7 -10 17 5 13 3 14 -6 7 -19 -14 -53 27 -54 65 0 18 4 32 10
32 6 0 4 5 -4 10 -13 9 -13 10 0 10 13 0 13 1 0 10 -11 7 -11 10 -2 10 7 0 10
5 7 10 -4 6 -11 7 -17 4 -7 -4 -8 -2 -4 5 4 6 12 9 17 6 5 -4 9 -1 9 4 0 6 -6
11 -12 11 -9 0 -8 4 2 10 13 9 13 10 0 10 -13 0 -13 1 0 10 13 9 13 10 0 10
-13 0 -13 1 0 10 12 8 12 10 1 10 -11 0 -11 3 0 16 10 12 10 17 0 23 -13 9
-11 32 4 43 6 5 6 8 -1 8 -7 0 -15 7 -18 16 -5 13 -4 14 7 6 10 -9 14 -8 14 3
0 8 -5 15 -11 15 -6 0 -4 5 4 10 12 8 12 10 1 10 -11 0 -11 3 0 17 10 11 10
14 2 9 -14 -8 -18 6 -6 18 9 9 13 37 4 32 -4 -3 -7 5 -8 17 0 12 1 16 4 9 3
-6 9 -9 14 -6 6 3 2 12 -8 20 -16 12 -16 15 -3 24 13 9 13 10 0 10 -12 0 -13
2 -1 9 11 7 11 9 0 13 -11 4 -11 8 -3 19 14 17 10 49 -8 61 -9 7 -6 8 11 4
l23 -5 -21 20 c-23 21 -29 38 -8 20 11 -8 13 -7 12 7 -2 16 -12 47 -22 64 -2
4 4 5 13 1 13 -5 15 -3 8 8 -13 21 -14 42 -3 55 7 8 6 14 -1 19 -5 3 -10 11
-10 16 0 6 4 8 8 5 5 -3 9 1 9 9 0 8 -4 12 -9 9 -13 -8 -10 10 5 25 7 9 7 11
1 8 -7 -4 -15 0 -18 9 -4 10 -2 13 6 8 7 -5 9 -2 5 9 -3 9 -1 18 6 21 8 3 8 5
-2 5 -11 1 -11 4 0 18 10 11 10 14 2 9 -7 -4 -13 -3 -13 1 0 5 6 15 13 22 10
11 10 13 0 7 -16 -9 -17 6 -1 22 9 9 9 15 0 24 -16 16 -15 31 1 22 10 -6 10
-4 0 7 -7 7 -13 23 -13 35 0 12 6 25 13 27 10 4 10 6 0 6 -7 1 -13 8 -13 17 0
9 5 12 13 8 10 -6 10 -4 0 7 -14 15 -18 43 -5 35 5 -3 9 1 9 9 0 8 -4 12 -7
10 -4 -3 -7 6 -7 20 0 14 3 22 8 19 5 -3 9 -1 9 5 0 5 -6 11 -12 14 -10 3 -9
8 2 22 13 17 13 18 -1 13 -13 -5 -15 -1 -11 20 3 15 10 30 16 34 8 5 7 8 -1 8
-7 0 -13 7 -13 16 0 9 5 12 13 8 10 -6 10 -4 0 7 -14 14 -18 33 -5 25 4 -2 8
4 8 14 0 14 -3 16 -13 8 -11 -8 -12 -7 -7 8 4 10 12 25 18 33 8 11 8 13 -1 7
-8 -4 -13 -2 -13 6 0 8 6 20 13 27 10 11 9 12 -2 6 -10 -6 -13 -4 -8 7 3 9 0
21 -6 28 -9 9 -9 11 -1 7 7 -4 15 0 18 9 3 8 2 13 -3 10 -5 -3 -11 5 -13 18
-4 19 -1 23 11 18 13 -5 14 -3 4 9 -10 12 -10 18 0 29 10 10 9 12 -4 7 -12 -4
-15 0 -11 19 2 13 9 24 16 24 6 0 4 5 -4 10 -13 8 -13 13 -2 31 8 11 9 18 3
14 -7 -4 -10 3 -9 19 1 15 7 26 13 26 6 0 6 3 -1 8 -6 4 -13 17 -16 29 -5 17
-2 20 11 16 13 -5 12 -2 -4 17 -11 13 -15 20 -9 17 13 -8 24 13 24 44 0 11 -4
17 -10 14 -5 -3 -10 1 -10 9 0 9 -9 16 -20 16 -11 0 -20 4 -20 9 0 5 -15 11
-34 13 -19 2 -32 0 -30 -4z m-236 -508 c0 -5 -5 -10 -11 -10 -5 0 -7 5 -4 10
3 6 8 10 11 10 2 0 4 -4 4 -10z m1475 -1169 c3 -5 2 -12 -3 -15 -5 -3 -9 1 -9
9 0 17 3 19 12 6z m4140 -1551 c3 -5 1 -10 -4 -10 -6 0 -11 5 -11 10 0 6 2 10
4 10 3 0 8 -4 11 -10z m-8765 -900 c0 -5 -2 -10 -4 -10 -3 0 -8 5 -11 10 -3 6
-1 10 4 10 6 0 11 -4 11 -10z m301 -287 c13 -16 12 -17 -3 -4 -10 7 -18 15
-18 17 0 8 8 3 21 -13z m-871 -607 c0 -2 -7 -7 -16 -10 -8 -3 -12 -2 -9 4 6
10 25 14 25 6z m1314 -972 c3 -8 2 -12 -4 -9 -6 3 -10 10 -10 16 0 14 7 11 14
-7z"/>
<path d="M6070 6940 c-8 -5 -12 -12 -9 -15 4 -3 12 1 19 10 14 17 11 19 -10 5z"/>
<path d="M2360 6719 c0 -5 5 -7 10 -4 6 3 10 8 10 11 0 2 -4 4 -10 4 -5 0 -10
-5 -10 -11z"/>
<path d="M5760 6700 c-9 -6 -10 -10 -3 -10 6 0 15 5 18 10 8 12 4 12 -15 0z"/>
<path d="M8825 6651 c-3 -5 -2 -12 3 -15 5 -3 9 1 9 9 0 17 -3 19 -12 6z"/>
<path d="M9116 6012 c-3 -5 1 -9 9 -9 8 0 12 4 9 9 -3 4 -7 8 -9 8 -2 0 -6 -4
-9 -8z"/>
<path d="M5403 3035 c3 -7 -14 -10 -48 -10 -30 1 -52 -2 -50 -6 5 -7 -32 -22
-47 -20 -5 1 -8 -6 -8 -15 0 -8 -4 -12 -10 -9 -5 3 -10 -1 -10 -10 0 -9 -4
-13 -10 -10 -5 3 -10 -3 -10 -14 0 -11 -5 -23 -12 -27 -7 -5 -8 -3 -3 6 5 8 4
11 -3 7 -5 -4 -9 -15 -7 -25 1 -9 -5 -25 -13 -35 -15 -16 -14 -17 4 -11 16 6
15 3 -6 -21 -14 -16 -19 -25 -12 -21 8 5 12 1 12 -11 0 -15 2 -16 11 -3 9 12
10 12 5 -4 -9 -28 4 -87 18 -79 6 4 5 -1 -3 -10 -12 -15 -11 -17 2 -17 10 0
14 -6 11 -15 -4 -8 1 -17 10 -21 9 -3 13 -10 10 -15 -3 -5 0 -9 5 -9 6 0 11
-9 11 -19 0 -10 7 -22 16 -25 8 -3 12 -11 8 -17 -4 -8 -3 -9 4 -5 7 4 12 2 12
-4 0 -6 4 -8 10 -5 6 3 7 -1 4 -9 -4 -11 0 -16 10 -16 9 0 16 -8 16 -21 0 -11
4 -18 8 -15 5 3 16 -4 25 -15 9 -10 13 -19 9 -19 -4 0 1 -5 11 -11 9 -6 15
-14 12 -20 -4 -5 2 -6 11 -2 11 4 15 3 10 -5 -3 -6 3 -14 15 -17 17 -6 19 -9
8 -17 -10 -7 -8 -9 8 -5 17 4 21 1 18 -14 -2 -11 0 -17 6 -14 5 4 12 -1 15 -9
3 -9 12 -16 19 -16 8 0 17 -10 20 -21 6 -17 9 -19 17 -8 7 10 8 8 5 -9 -3 -14
-1 -20 5 -15 6 3 16 -1 23 -10 11 -15 15 -14 41 10 16 15 33 28 39 28 5 0 15
11 22 25 7 14 13 19 13 10 1 -8 10 1 21 20 11 19 18 27 15 17 -3 -11 -2 -15 4
-12 6 3 10 12 10 18 0 7 9 18 20 25 12 7 18 18 14 24 -5 7 -2 9 9 5 12 -4 15
-1 12 14 -2 11 -1 17 4 15 9 -6 21 3 41 28 12 16 12 18 1 11 -10 -5 -12 -4 -7
3 4 7 14 12 22 12 8 0 14 7 14 16 0 9 5 12 12 8 8 -5 9 -2 5 9 -4 10 -2 16 6
14 7 -1 11 4 9 12 -2 9 3 11 13 7 10 -3 14 -2 10 5 -4 6 1 16 11 23 10 8 15
20 11 29 -4 11 -2 14 9 10 8 -3 14 1 14 11 0 9 6 16 13 16 8 0 7 4 -3 10 -13
8 -13 10 1 10 11 0 15 8 14 25 -2 16 1 23 8 18 7 -4 8 0 3 12 -6 16 -4 16 10
4 16 -13 16 -12 7 6 -6 11 -11 34 -11 50 0 69 -2 86 -12 80 -6 -3 -10 4 -10
17 -1 26 -24 61 -33 51 -4 -3 -7 1 -7 10 0 15 -5 18 -25 17 -3 -1 -13 6 -21
15 -10 10 -24 13 -36 9 -12 -3 -18 -2 -15 3 4 6 -10 10 -29 11 -19 1 -40 5
-46 8 -7 5 -8 2 -3 -6 6 -10 3 -12 -13 -8 -14 4 -20 2 -16 -4 4 -6 -2 -8 -16
-3 -15 5 -20 4 -16 -4 4 -6 2 -11 -4 -11 -6 0 -9 -4 -6 -9 4 -5 -2 -7 -13 -4
-10 3 -22 -1 -26 -8 -5 -8 -4 -10 3 -5 7 4 12 3 12 -3 0 -5 -9 -13 -20 -16
-18 -6 -22 -12 -19 -32 0 -3 -6 -10 -15 -15 -9 -5 -16 -14 -16 -19 0 -6 6 -7
13 -3 7 4 9 3 4 -2 -5 -5 -14 -9 -20 -9 -7 -1 -11 -7 -9 -14 1 -7 -2 -10 -8
-6 -6 3 -8 11 -4 16 3 6 -2 18 -13 27 -10 9 -19 23 -21 31 -2 8 -18 29 -36 47
-26 26 -36 30 -45 21 -10 -9 -11 -8 -5 6 5 13 2 16 -12 10 -13 -5 -15 -3 -9 7
6 10 4 12 -7 7 -9 -3 -21 0 -28 6 -7 7 -10 7 -7 2z"/>
<path d="M8436 2908 c3 -5 10 -6 15 -3 13 9 11 12 -6 12 -8 0 -12 -4 -9 -9z"/>
<path d="M7735 2870 c-3 -5 -1 -10 4 -10 6 0 11 5 11 10 0 6 -2 10 -4 10 -3 0
-8 -4 -11 -10z"/>
</g>
</svg>
