<svg width="105" height="106" viewBox="0 0 105 106" fill="none" xmlns="http://www.w3.org/2000/svg">
<path d="M100.116 9.06505C100.116 7.95554 101.016 7.04492 102.136 7.04492C103.245 7.04492 104.156 7.94508 104.156 9.06505C104.156 10.185 103.256 11.0852 102.136 11.0852C101.026 11.0852 100.116 10.1745 100.116 9.06505Z" fill="#0B315E"/>
<path d="M100.116 28.0514C100.116 26.9419 101.016 26.0312 102.136 26.0312C103.245 26.0312 104.156 26.9314 104.156 28.0514C104.156 29.1609 103.256 30.0715 102.136 30.0715C101.026 30.061 100.116 29.1609 100.116 28.0514Z" fill="#0B315E"/>
<path d="M100.116 47.0289C100.116 45.9194 101.016 45.0088 102.136 45.0088C103.245 45.0088 104.156 45.9089 104.156 47.0289C104.156 48.1384 103.256 49.049 102.136 49.049C101.026 49.049 100.116 48.1489 100.116 47.0289Z" fill="#0B315E"/>
<path d="M100.116 66.0163C100.116 64.9068 101.016 63.9961 102.136 63.9961C103.245 63.9961 104.156 64.8963 104.156 66.0163C104.156 67.1258 103.256 68.0364 102.136 68.0364C101.026 68.0364 100.116 67.1258 100.116 66.0163Z" fill="#0B315E"/>
<path d="M100.116 84.9919C100.116 83.8824 101.016 82.9717 102.136 82.9717C103.245 82.9717 104.156 83.8719 104.156 84.9919C104.156 86.1014 103.256 87.012 102.136 87.012C101.026 87.012 100.116 86.1118 100.116 84.9919Z" fill="#0B315E"/>
<path d="M100.116 103.98C100.116 102.871 101.016 101.96 102.136 101.96C103.245 101.96 104.156 102.86 104.156 103.98C104.156 105.1 103.256 106 102.136 106C101.026 106 100.116 105.09 100.116 103.98Z" fill="#0B315E"/>
<path d="M82.8031 9.06505C82.8031 7.95554 83.7033 7.04492 84.8233 7.04492C85.9328 7.04492 86.8434 7.94508 86.8434 9.06505C86.8434 10.185 85.9432 11.0852 84.8233 11.0852C83.7137 11.0852 82.8031 10.1745 82.8031 9.06505Z" fill="#0B315E"/>
<path d="M82.8031 28.0514C82.8031 26.9419 83.7033 26.0312 84.8233 26.0312C85.9328 26.0312 86.8434 26.9314 86.8434 28.0514C86.8434 29.1609 85.9432 30.0715 84.8233 30.0715C83.7137 30.061 82.8031 29.1609 82.8031 28.0514Z" fill="#0B315E"/>
<path d="M82.8031 47.0289C82.8031 45.9194 83.7033 45.0088 84.8233 45.0088C85.9328 45.0088 86.8434 45.9089 86.8434 47.0289C86.8434 48.1384 85.9432 49.049 84.8233 49.049C83.7137 49.049 82.8031 48.1489 82.8031 47.0289Z" fill="#0B315E"/>
<path d="M82.8031 66.0163C82.8031 64.9068 83.7033 63.9961 84.8233 63.9961C85.9328 63.9961 86.8434 64.8963 86.8434 66.0163C86.8434 67.1258 85.9432 68.0364 84.8233 68.0364C83.7137 68.0364 82.8031 67.1258 82.8031 66.0163Z" fill="#0B315E"/>
<path d="M82.8031 84.9919C82.8031 83.8824 83.7033 82.9717 84.8233 82.9717C85.9328 82.9717 86.8434 83.8719 86.8434 84.9919C86.8434 86.1014 85.9432 87.012 84.8233 87.012C83.7137 87.012 82.8031 86.1118 82.8031 84.9919Z" fill="#0B315E"/>
<path d="M82.8031 103.98C82.8031 102.871 83.7033 101.96 84.8233 101.96C85.9328 101.96 86.8434 102.86 86.8434 103.98C86.8434 105.1 85.9432 106 84.8233 106C83.7137 106 82.8031 105.09 82.8031 103.98Z" fill="#0B315E"/>
<path d="M65.5003 9.06505C65.5003 7.95554 66.4004 7.04492 67.5204 7.04492C68.6299 7.04492 69.5405 7.94508 69.5405 9.06505C69.5405 10.185 68.6404 11.0852 67.5204 11.0852C66.4004 11.0852 65.5003 10.1745 65.5003 9.06505Z" fill="#0B315E"/>
<path d="M65.5003 28.0514C65.5003 26.9419 66.4004 26.0312 67.5204 26.0312C68.6299 26.0312 69.5405 26.9314 69.5405 28.0514C69.5405 29.1609 68.6404 30.0715 67.5204 30.0715C66.4004 30.061 65.5003 29.1609 65.5003 28.0514Z" fill="#0B315E"/>
<path d="M65.5003 47.0289C65.5003 45.9194 66.4004 45.0088 67.5204 45.0088C68.6299 45.0088 69.5405 45.9089 69.5405 47.0289C69.5405 48.1384 68.6404 49.049 67.5204 49.049C66.4004 49.049 65.5003 48.1489 65.5003 47.0289Z" fill="#0B315E"/>
<path d="M65.5003 66.0163C65.5003 64.9068 66.4004 63.9961 67.5204 63.9961C68.6299 63.9961 69.5405 64.8963 69.5405 66.0163C69.5405 67.1258 68.6404 68.0364 67.5204 68.0364C66.4004 68.0364 65.5003 67.1258 65.5003 66.0163Z" fill="#0B315E"/>
<path d="M65.5003 84.9919C65.5003 83.8824 66.4004 82.9717 67.5204 82.9717C68.6299 82.9717 69.5405 83.8719 69.5405 84.9919C69.5405 86.1014 68.6404 87.012 67.5204 87.012C66.4004 87.012 65.5003 86.1118 65.5003 84.9919Z" fill="#0B315E"/>
<path d="M65.5003 103.98C65.5003 102.871 66.4004 101.96 67.5204 101.96C68.6299 101.96 69.5405 102.86 69.5405 103.98C69.5405 105.1 68.6404 106 67.5204 106C66.4004 106 65.5003 105.09 65.5003 103.98Z" fill="#0B315E"/>
<path d="M48.1879 9.06505C48.1879 7.95554 49.088 7.04492 50.208 7.04492C51.3175 7.04492 52.2281 7.94508 52.2281 9.06505C52.2281 10.185 51.328 11.0852 50.208 11.0852C49.0985 11.0852 48.1879 10.1745 48.1879 9.06505Z" fill="#0B315E"/>
<path d="M48.1879 28.0514C48.1879 26.9419 49.088 26.0312 50.208 26.0312C51.3175 26.0312 52.2281 26.9314 52.2281 28.0514C52.2281 29.1609 51.328 30.0715 50.208 30.0715C49.0985 30.061 48.1879 29.1609 48.1879 28.0514Z" fill="#0B315E"/>
<path d="M48.1879 47.0289C48.1879 45.9194 49.088 45.0088 50.208 45.0088C51.3175 45.0088 52.2281 45.9089 52.2281 47.0289C52.2281 48.1384 51.328 49.049 50.208 49.049C49.0985 49.049 48.1879 48.1489 48.1879 47.0289Z" fill="#0B315E"/>
<path d="M48.1879 66.0163C48.1879 64.9068 49.088 63.9961 50.208 63.9961C51.3175 63.9961 52.2281 64.8963 52.2281 66.0163C52.2281 67.1258 51.328 68.0364 50.208 68.0364C49.0985 68.0364 48.1879 67.1258 48.1879 66.0163Z" fill="#0B315E"/>
<path d="M48.1879 84.9919C48.1879 83.8824 49.088 82.9717 50.208 82.9717C51.3175 82.9717 52.2281 83.8719 52.2281 84.9919C52.2281 86.1014 51.328 87.012 50.208 87.012C49.0985 87.012 48.1879 86.1118 48.1879 84.9919Z" fill="#0B315E"/>
<path d="M48.1879 103.98C48.1879 102.871 49.088 101.96 50.208 101.96C51.3175 101.96 52.2281 102.86 52.2281 103.98C52.2281 105.1 51.328 106 50.208 106C49.0985 106 48.1879 105.09 48.1879 103.98Z" fill="#0B315E"/>
<path d="M30.8773 9.06505C30.8773 7.95554 31.7775 7.04492 32.8975 7.04492C34.007 7.04492 34.9176 7.94508 34.9176 9.06505C34.9176 10.185 34.0174 11.0852 32.8975 11.0852C31.788 11.0852 30.8773 10.1745 30.8773 9.06505Z" fill="#0B315E"/>
<path d="M30.8773 28.0514C30.8773 26.9419 31.7775 26.0312 32.8975 26.0312C34.007 26.0312 34.9176 26.9314 34.9176 28.0514C34.9176 29.1609 34.0174 30.0715 32.8975 30.0715C31.788 30.061 30.8773 29.1609 30.8773 28.0514Z" fill="#0B315E"/>
<path d="M30.8773 47.0289C30.8773 45.9194 31.7775 45.0088 32.8975 45.0088C34.007 45.0088 34.9176 45.9089 34.9176 47.0289C34.9176 48.1384 34.0174 49.049 32.8975 49.049C31.788 49.049 30.8773 48.1489 30.8773 47.0289Z" fill="#0B315E"/>
<path d="M30.8773 66.0163C30.8773 64.9068 31.7775 63.9961 32.8975 63.9961C34.007 63.9961 34.9176 64.8963 34.9176 66.0163C34.9176 67.1258 34.0174 68.0364 32.8975 68.0364C31.788 68.0364 30.8773 67.1258 30.8773 66.0163Z" fill="#0B315E"/>
<path d="M30.8773 84.9919C30.8773 83.8824 31.7775 82.9717 32.8975 82.9717C34.007 82.9717 34.9176 83.8719 34.9176 84.9919C34.9176 86.1014 34.0174 87.012 32.8975 87.012C31.788 87.012 30.8773 86.1118 30.8773 84.9919Z" fill="#0B315E"/>
<path d="M30.8773 103.98C30.8773 102.871 31.7775 101.96 32.8975 101.96C34.007 101.96 34.9176 102.86 34.9176 103.98C34.9176 105.1 34.0174 106 32.8975 106C31.788 106 30.8773 105.09 30.8773 103.98Z" fill="#0B315E"/>
<path d="M13.5746 9.06505C13.5746 7.95554 14.4748 7.04492 15.5947 7.04492C16.7042 7.04492 17.6149 7.94508 17.6149 9.06505C17.6149 10.185 16.7147 11.0852 15.5947 11.0852C14.4748 11.0852 13.5746 10.1745 13.5746 9.06505Z" fill="#0B315E"/>
<path d="M13.5746 28.0514C13.5746 26.9419 14.4748 26.0312 15.5947 26.0312C16.7042 26.0312 17.6149 26.9314 17.6149 28.0514C17.6149 29.1609 16.7147 30.0715 15.5947 30.0715C14.4748 30.061 13.5746 29.1609 13.5746 28.0514Z" fill="#0B315E"/>
<path d="M13.5746 47.0289C13.5746 45.9194 14.4748 45.0088 15.5947 45.0088C16.7042 45.0088 17.6149 45.9089 17.6149 47.0289C17.6149 48.1384 16.7147 49.049 15.5947 49.049C14.4748 49.049 13.5746 48.1489 13.5746 47.0289Z" fill="#0B315E"/>
<path d="M13.5746 66.0163C13.5746 64.9068 14.4748 63.9961 15.5947 63.9961C16.7042 63.9961 17.6149 64.8963 17.6149 66.0163C17.6149 67.1258 16.7147 68.0364 15.5947 68.0364C14.4748 68.0364 13.5746 67.1258 13.5746 66.0163Z" fill="#0B315E"/>
<path d="M13.5746 84.9919C13.5746 83.8824 14.4748 82.9717 15.5947 82.9717C16.7042 82.9717 17.6149 83.8719 17.6149 84.9919C17.6149 86.1014 16.7147 87.012 15.5947 87.012C14.4748 87.012 13.5746 86.1118 13.5746 84.9919Z" fill="#0B315E"/>
<path d="M13.5746 103.98C13.5746 102.871 14.4748 101.96 15.5947 101.96C16.7042 101.96 17.6149 102.86 17.6149 103.98C17.6149 105.1 16.7147 106 15.5947 106C14.4748 106 13.5746 105.09 13.5746 103.98Z" fill="#0B315E"/>
<path d="M-0.000751572 89.0218L89.0211 0L89.0211 89.0219L-0.000751572 89.0218Z" fill="#FFA944"/>
</svg>
