<svg width="147" height="157" viewBox="0 0 147 157" fill="none" xmlns="http://www.w3.org/2000/svg">
    <path d="M140.568 12.691a2.83 2.83 0 0 1 2.828-2.828 2.83 2.83 0 0 1 2.829 2.828 2.821 2.821 0 0 1-2.829 2.829 2.84 2.84 0 0 1-2.828-2.829zM140.568 39.273a2.83 2.83 0 0 1 2.828-2.828 2.83 2.83 0 0 1 2.829 2.828 2.83 2.83 0 0 1-2.829 2.829c-1.553-.015-2.828-1.275-2.828-2.828zM140.568 65.84a2.83 2.83 0 0 1 2.828-2.828 2.83 2.83 0 0 1 2.829 2.828 2.83 2.83 0 0 1-2.829 2.828 2.83 2.83 0 0 1-2.828-2.828zM140.568 92.422a2.83 2.83 0 0 1 2.828-2.828 2.83 2.83 0 0 1 2.829 2.828 2.83 2.83 0 0 1-2.829 2.828 2.84 2.84 0 0 1-2.828-2.828zM140.568 118.988a2.83 2.83 0 0 1 2.828-2.828 2.83 2.83 0 0 1 2.829 2.828 2.83 2.83 0 0 1-2.829 2.829 2.83 2.83 0 0 1-2.828-2.829zM140.568 145.57a2.83 2.83 0 0 1 2.828-2.828 2.83 2.83 0 0 1 2.829 2.828 2.821 2.821 0 0 1-2.829 2.828 2.839 2.839 0 0 1-2.828-2.828zM116.33 12.691a2.83 2.83 0 0 1 2.828-2.828 2.83 2.83 0 0 1 2.828 2.828 2.82 2.82 0 0 1-2.828 2.829 2.84 2.84 0 0 1-2.828-2.829zM116.33 39.273a2.83 2.83 0 0 1 2.828-2.828 2.83 2.83 0 0 1 2.828 2.828 2.83 2.83 0 0 1-2.828 2.829c-1.553-.015-2.828-1.275-2.828-2.828zM116.33 65.84a2.83 2.83 0 0 1 2.828-2.828 2.83 2.83 0 0 1 2.828 2.828 2.83 2.83 0 0 1-2.828 2.828 2.83 2.83 0 0 1-2.828-2.828zM116.33 92.422a2.83 2.83 0 0 1 2.828-2.828 2.83 2.83 0 0 1 2.828 2.828 2.83 2.83 0 0 1-2.828 2.828 2.84 2.84 0 0 1-2.828-2.828zM116.33 118.988a2.83 2.83 0 0 1 2.828-2.828 2.83 2.83 0 0 1 0 5.657 2.83 2.83 0 0 1-2.828-2.829zM116.33 145.57a2.83 2.83 0 0 1 2.828-2.828 2.83 2.83 0 0 1 2.828 2.828 2.82 2.82 0 0 1-2.828 2.828 2.839 2.839 0 0 1-2.828-2.828zM92.107 12.691a2.83 2.83 0 0 1 2.829-2.828 2.83 2.83 0 0 1 2.828 2.828 2.82 2.82 0 0 1-2.828 2.829 2.83 2.83 0 0 1-2.829-2.829zM92.107 39.273a2.83 2.83 0 0 1 2.829-2.828 2.83 2.83 0 0 1 2.828 2.828 2.83 2.83 0 0 1-2.828 2.829c-1.568-.015-2.829-1.275-2.829-2.828zM92.107 65.84a2.83 2.83 0 0 1 2.829-2.828 2.83 2.83 0 0 1 2.828 2.828 2.83 2.83 0 0 1-2.828 2.828 2.82 2.82 0 0 1-2.829-2.828zM92.107 92.422a2.83 2.83 0 0 1 2.829-2.828 2.83 2.83 0 0 1 2.828 2.828 2.83 2.83 0 0 1-2.828 2.828 2.83 2.83 0 0 1-2.829-2.828zM92.107 118.988a2.83 2.83 0 0 1 2.829-2.828 2.83 2.83 0 0 1 0 5.657 2.821 2.821 0 0 1-2.829-2.829zM92.107 145.57a2.83 2.83 0 0 1 2.829-2.828 2.83 2.83 0 0 1 2.828 2.828 2.83 2.83 0 0 1-5.656 0zM67.871 12.691a2.83 2.83 0 0 1 2.828-2.828 2.83 2.83 0 0 1 2.828 2.828A2.82 2.82 0 0 1 70.7 15.52a2.84 2.84 0 0 1-2.828-2.829zM67.871 39.273a2.83 2.83 0 0 1 2.828-2.828 2.83 2.83 0 0 1 2.828 2.828 2.83 2.83 0 0 1-2.828 2.829c-1.553-.015-2.828-1.275-2.828-2.828zM67.871 65.84a2.83 2.83 0 0 1 2.828-2.828 2.83 2.83 0 0 1 2.828 2.828 2.83 2.83 0 0 1-2.828 2.828 2.83 2.83 0 0 1-2.828-2.828zM67.871 92.422a2.83 2.83 0 0 1 2.828-2.828 2.83 2.83 0 0 1 2.828 2.828A2.83 2.83 0 0 1 70.7 95.25a2.84 2.84 0 0 1-2.828-2.828zM67.871 118.988a2.83 2.83 0 0 1 2.828-2.828 2.83 2.83 0 0 1 0 5.657 2.83 2.83 0 0 1-2.828-2.829zM67.871 145.57a2.83 2.83 0 0 1 2.828-2.828 2.83 2.83 0 0 1 2.828 2.828 2.82 2.82 0 0 1-2.828 2.828 2.839 2.839 0 0 1-2.828-2.828zM43.635 12.691a2.83 2.83 0 0 1 2.828-2.828 2.83 2.83 0 0 1 2.828 2.828 2.82 2.82 0 0 1-2.828 2.829 2.84 2.84 0 0 1-2.828-2.829zM43.635 39.273a2.83 2.83 0 0 1 2.828-2.828 2.83 2.83 0 0 1 2.828 2.828 2.83 2.83 0 0 1-2.828 2.829c-1.553-.015-2.828-1.275-2.828-2.828zM43.635 65.84a2.83 2.83 0 0 1 2.828-2.828 2.83 2.83 0 0 1 2.828 2.828 2.83 2.83 0 0 1-2.828 2.828 2.83 2.83 0 0 1-2.828-2.828zM43.635 92.422a2.83 2.83 0 0 1 2.828-2.828 2.83 2.83 0 0 1 2.828 2.828 2.83 2.83 0 0 1-2.828 2.828 2.84 2.84 0 0 1-2.828-2.828zM43.635 118.988a2.83 2.83 0 0 1 2.828-2.828 2.83 2.83 0 0 1 0 5.657 2.83 2.83 0 0 1-2.828-2.829zM43.635 145.57a2.83 2.83 0 0 1 2.828-2.828 2.83 2.83 0 0 1 2.828 2.828 2.82 2.82 0 0 1-2.828 2.828 2.839 2.839 0 0 1-2.828-2.828zM19.412 12.691a2.83 2.83 0 0 1 2.828-2.828 2.83 2.83 0 0 1 2.828 2.828 2.82 2.82 0 0 1-2.828 2.829 2.83 2.83 0 0 1-2.828-2.829zM19.412 39.273a2.83 2.83 0 0 1 2.828-2.828 2.83 2.83 0 0 1 2.828 2.828 2.83 2.83 0 0 1-2.828 2.829c-1.568-.015-2.828-1.275-2.828-2.828zM19.412 65.84a2.83 2.83 0 0 1 2.828-2.828 2.83 2.83 0 0 1 2.828 2.828 2.83 2.83 0 0 1-2.828 2.828 2.82 2.82 0 0 1-2.828-2.828zM19.412 92.422a2.83 2.83 0 0 1 2.828-2.828 2.83 2.83 0 0 1 2.828 2.828 2.83 2.83 0 0 1-2.828 2.828 2.83 2.83 0 0 1-2.828-2.828zM19.412 118.988a2.83 2.83 0 0 1 2.828-2.828 2.83 2.83 0 0 1 0 5.657 2.821 2.821 0 0 1-2.828-2.829zM19.412 145.57a2.83 2.83 0 0 1 2.828-2.828 2.83 2.83 0 0 1 2.828 2.828 2.83 2.83 0 0 1-5.656 0z" fill="#0B315E"/>
    <path d="M.408 124.629 125.037 0v124.629H.407z" fill="#FFA944"/>
</svg>
