<svg width="253" height="475" viewBox="0 0 253 475" fill="none" xmlns="http://www.w3.org/2000/svg">
<path fill-rule="evenodd" clip-rule="evenodd" d="M190.634 264.802C190.651 265.631 191.146 266.636 191.967 266.523C192.808 266.407 193.535 265.842 193.94 265.096C196.985 259.493 207.753 238.891 213.373 227.592C214.951 224.419 214.637 224.326 211.941 226.625C211.719 226.815 211.526 226.967 211.312 227.166C208.737 229.573 211.262 225.227 207.707 232.102C206.654 233.925 204.963 235.348 204.229 237.321C203.814 238.439 203.402 239.559 202.916 240.4C201.578 242.718 201.287 244.776 199.949 247.094C198.611 249.411 197.071 252.078 195.92 254.072C194.582 256.389 193.365 259.243 192.416 260.886C191.129 263.116 190.597 262.996 190.634 264.802ZM246.208 242.787C245.957 243.222 245.971 243.762 246.244 244.184C246.537 244.637 246.528 245.22 246.238 245.674C245.346 247.07 244.825 248.14 244.317 248.98C242.857 251.394 240.238 253.288 238.769 255.697C238.431 256.251 238.056 257.209 237.624 259.146C236.113 263.519 240.453 264.596 242.418 260.407C242.612 259.993 242.788 259.587 242.942 259.201C243.443 257.942 243.885 256.649 244.525 255.455L248.151 248.693C248.811 247.462 248.694 246.09 248.622 244.696C248.44 241.845 248.713 240.739 248.432 239.903C248.234 239.317 247.3 239.638 247.447 240.238C247.5 240.455 247.462 240.616 247.35 240.81L246.208 242.787ZM202.107 369.216C200.777 370.3 200.081 372.11 199.062 373.49C198.534 374.205 198.013 374.812 197.438 376.229C195.136 380.217 197.722 377.291 193.934 383.044C192.071 385.525 191.193 388.538 190.003 391.407C189.24 392.728 189.104 392.218 188.14 393.888L181.112 405.314C180.839 405.788 180.541 406.673 180.252 407.391C180.04 407.92 179.82 408.355 179.641 408.896C178.223 413.186 174.964 410.133 176.271 405.807C177.642 401.267 179.618 396.837 180.999 392.46C181.888 389.609 187.153 377.013 188.736 372.321C188.98 371.596 188.648 371.389 188.334 372.086C188.274 372.22 188.157 372.351 188.039 372.436C187.358 372.927 186.552 373.644 186.21 374.237C185.634 375.234 186.883 374.626 185.771 375.744C184.11 377.875 184.911 375.679 182.22 380.34L175.076 393.459C174.442 395.129 173.509 396.879 172.808 398.822C172.394 399.971 171.37 400.735 170.609 401.69C169.502 403.082 167.124 404.813 167.638 403.111C167.799 402.577 168.115 401.842 168.265 400.827C168.286 400.682 168.314 400.538 168.355 400.397C168.503 399.878 168.676 399.244 168.882 398.559C169.358 396.973 168.84 396.583 167.743 397.822C167.636 397.942 167.536 398.073 167.445 398.205C167.141 398.643 166.692 399.069 166.247 399.496C165.331 400.376 164.516 401.37 163.754 402.385C162.217 404.431 161.074 406.8 159.711 408.514C157.848 410.995 155.787 413.756 153.924 416.237C149.655 422.957 145.142 419.45 144.335 416.42C144.175 415.816 144.42 415.237 144.603 414.639C144.729 414.226 144.669 413.751 144.709 413.321L145.08 409.371C146.374 399.485 156.096 380.346 157.469 374.923C158.399 371.375 160.731 367.031 161.992 363.425C162.358 362.377 161.665 361.218 160.677 361.723C157.839 362.718 152.99 363.857 149.339 363.388C148.593 363.293 148.532 362.676 149.28 362.742C149.378 362.751 149.509 362.742 149.604 362.717L152.603 361.911C153.306 361.723 153.971 361.397 154.674 361.207C154.822 361.167 154.985 361.122 155.174 361.054C155.704 360.867 156.22 360.637 156.77 360.524C157.329 360.41 157.898 360.322 158.459 360.239C161.865 359.736 161.162 358.517 157.723 358.365C157.043 358.335 156.322 358.184 155.553 357.829C154.825 357.493 154.639 356.587 154.146 355.954C153.756 355.454 153.023 355.353 152.209 355.304C151.245 355.246 151.012 354.24 151.791 353.669C152.406 353.219 152.447 352.317 151.861 351.829C150.479 350.679 150.575 350.807 150.567 348.976C150.564 348.261 150.169 347.609 149.55 347.252L149.227 347.065L148.904 346.879C149.703 344.776 152.683 346.005 150.004 342.847C149.796 342.601 149.593 342.347 149.436 342.066C148.697 340.744 148.223 339.033 148.117 337.8C148.105 337.653 148.132 337.438 148.165 337.294C148.42 336.154 147.136 336.206 146.553 337.217C145.956 338.251 145.394 339.224 144.683 340.455C144.108 341.451 143.532 342.448 142.957 343.445C142.817 343.688 142.563 344.128 142.366 344.469C142.256 344.659 142.226 344.884 142.283 345.096C142.394 345.51 142.162 345.931 141.8 346.161C139.628 347.542 139.359 351.095 136.828 354.061C133.091 358.98 133.001 360.689 130.143 362.595C129.78 362.843 129.464 362.996 129.146 363.151C128.486 363.472 127.875 364.035 127.453 364.636C125.97 366.747 124.248 368.858 123.204 371.216C122.477 372.86 121.611 374.625 120.873 375.765C120.574 376.228 120.273 376.689 119.825 377.009C118.949 377.635 118.089 378.383 117.65 379.367C117.624 379.427 117.597 379.488 117.571 379.549C117.237 380.333 116.737 381.026 116.16 381.653L115.829 382.011C115.032 382.876 114.323 383.822 113.794 384.873C113.287 385.881 113.045 386.374 111.631 387.76C110.431 388.842 109.533 390.091 108.333 391.173C107.046 392.657 107.474 391.108 104.849 394.909C101.784 400.217 102.313 397.001 100.399 400.315L99.4426 402.337C98.8143 403.664 96.7255 404.403 96.9236 402.947C97.0676 401.89 96.2266 400.877 95.2197 400.523C92.8152 399.678 93.5449 398.205 94.7442 394.823C94.9968 393.64 95.3857 392.966 95.6115 391.767C95.6183 391.735 95.6256 391.703 95.6334 391.672C96.1733 389.48 97.3837 387.501 98.2506 385.416C99.1622 383.224 100.219 381.105 101.012 378.867C101.34 377.943 101.672 377.014 102.051 376.014L107.371 364.5C107.562 364.169 107.685 363.91 107.769 363.682C108.293 362.255 108.687 360.81 109.314 359.426C109.746 358.474 110.04 357.461 110.38 356.473C110.855 355.09 111.006 354.352 112.034 352.571C112.61 351.574 112.423 351.898 112.999 350.901L141.368 295.611C142.13 294.291 142.772 292.434 143.145 291.787C144.483 289.47 145.245 288.15 146.396 286.156L155.493 268.847C156.71 265.993 160.996 260.061 161.485 257.722C161.964 255.339 175.909 231.993 176.485 230.996C178.534 228.192 186.343 212.367 189.034 207.706C191.846 203.581 193.639 199.731 195.875 196.603C198.177 192.615 201.378 187.817 203.478 184.18C204.054 183.183 204.493 181.676 205.255 180.356L207.169 177.042C207.728 176.074 208.322 175.249 208.918 174.439C211.162 171.389 212.964 168.027 215.09 164.894L226.784 147.665C232.151 138.37 237.88 134.6 242.088 124.204C242.916 122.024 245.152 118.897 245.794 117.04C248.185 111.343 251.437 105.712 254.517 100.378C257.192 95.7433 260.303 92.6538 263.504 87.8557C267.043 81.7253 272.528 75.8687 277.09 70.2819C277.349 69.9656 277.575 69.6249 277.801 69.2847C278.124 68.7971 278.46 68.3786 278.776 67.9816C279.418 67.1771 280.284 66.4357 280.799 65.5447C280.985 65.2214 281.561 64.2245 281.561 64.2245C281.561 64.2245 281.825 63.8037 281.983 63.6113C285.097 59.8031 288.795 56.3321 291.878 52.5065L315.986 25.2919C317.274 23.8078 322.096 17.7546 323.344 17.1461C324.479 16.5928 327.367 14.8535 328.718 13.7018C328.961 13.4941 329.187 13.1564 329.379 12.8997C330.392 11.5395 331.493 14.3505 330.797 15.8974C329.489 18.8088 327.46 22.3229 326.184 24.5332L322.609 29.9779C321.847 31.2982 321.458 31.9717 320.883 32.9686L317.955 38.7862C316.803 40.78 315.143 42.9107 314.128 45.4143C312.179 50.3021 309.902 52.1088 307.315 56.4732C307.171 56.7158 307.061 56.977 306.979 57.2469C306.738 58.0419 306.442 58.9762 306.281 59.8934C306.092 60.9696 307.343 61.6627 308.433 61.7373C308.611 61.7495 308.802 61.7356 308.972 61.6807C309.044 61.6577 309.109 61.6348 309.169 61.6121C310.499 61.1076 310.856 62.895 310.295 64.2029L308.699 67.9299C307.832 70.9857 301.388 78.2941 301.03 81.213C300.785 82.3621 302.468 82.3593 303.263 81.4939C306.546 77.9194 312.448 70.1782 315.241 67.2882C318.257 64.3046 320.213 60.2659 323.3 57.6993C323.462 57.5649 323.52 57.4524 323.702 57.3478C323.859 57.2578 324.121 57.4314 324.235 57.572C325.553 59.1947 324.305 59.354 324.645 61.6888C325.074 64.8471 323.209 66.6809 321.634 68.6827C320.48 70.1509 320.406 72.1374 319.473 73.7548C319.273 74.1 318.976 74.615 318.681 75.1257C318.222 75.9215 317.214 75.8415 317.779 76.5659C317.839 76.6428 317.922 76.7472 318.031 76.885C318.055 76.9144 318.102 76.9512 318.135 76.97C318.365 77.1029 318.355 77.5773 318.091 77.6025C318.014 77.6098 317.915 77.6125 317.785 77.6092C317.716 77.6075 317.649 77.5878 317.59 77.5535C317.578 77.5465 317.564 77.5389 317.55 77.5307C317.252 77.3588 316.871 77.4657 316.707 77.7674L309.474 91.0099C308.656 92.4279 307.378 94.0558 306.213 95.7236C303.338 99.8395 306.481 101.959 310.218 98.606C310.893 98.0007 311.768 97.7084 312.414 97.0724C312.543 96.9449 312.71 96.7689 312.928 96.5246C313.827 95.7142 313.827 95.7142 314.589 94.394C314.918 93.8236 315.283 93.2781 315.679 92.77C316.887 91.216 318.7 91.872 317.716 93.5768L310.945 106.049C309.981 107.72 310.37 107.046 310.117 108.23C309.812 109.472 309.248 110.665 308.681 111.821C307.426 114.382 306.54 117.089 304.914 119.431C304.587 119.902 304.279 120.572 303.953 121.951C303.438 124.047 302.057 124.845 301.607 126.637C301.309 127.824 301.045 128.985 300.28 129.941C300.09 130.178 299.926 130.433 299.735 130.67L296.86 134.237C294.997 136.718 294.118 139.731 292.831 141.215L289.833 145.663C288.358 147.47 287.207 149.464 286.193 151.968C285.236 154.823 286.93 156.378 288.998 154.189C292.638 150.337 296.588 144.713 297.552 143.043C299.466 139.729 299.808 136.837 302.732 134.071C304.556 132.465 304.07 131.754 305.731 129.623C306.816 128.489 308.13 127.021 309.215 125.887C311.173 123.28 313.952 121.098 315.846 118.445L324.127 106.847C324.347 106.538 324.757 106.192 325.03 105.93C326.236 104.774 327.074 105.812 326.445 107.36C325.588 109.467 324.325 111.958 323.71 113.024L317.768 123.316C317.192 124.313 315.368 125.919 313.642 128.909C312.746 130.46 311.745 131.944 310.682 133.386C310.528 133.594 310.383 133.808 310.254 134.031L292.533 163.172C291.77 164.492 290.872 165.303 289.907 166.973L277.132 185.248C276.371 186.565 275.738 187.992 274.698 189.103C274.634 189.172 274.566 189.244 274.495 189.321C274.245 189.589 274.026 189.882 273.843 190.199C273.251 191.225 272.87 191.885 272.205 193.036L262.965 206.741C261.864 208.091 260.285 209.403 259.183 211.247C258.41 212.54 258.506 214.085 258.294 215.577C258.169 217.647 257.124 218.323 256.994 220.055C256.935 220.845 257.768 221.35 258.374 220.84C258.468 220.761 258.562 220.684 258.671 220.61C259.282 220.197 260.175 220.787 259.707 221.357C259.383 221.75 259.181 222.454 259.645 222.666C260.647 223.126 262.336 223.365 263.012 222.755C264.533 221.416 266.674 217.361 267.325 214.749C267.545 213.863 267.655 212.922 267.548 212.015C267.415 210.881 267.408 209.715 267.695 208.61C267.721 208.507 267.75 208.404 267.782 208.299C268.091 207.266 268.284 206.205 268.43 205.135C268.742 202.844 269.447 200.26 270.63 198.809C271.452 197.861 271.797 196.829 272.48 196.06C273.337 195.097 274.791 195.03 275.872 194.328C275.893 194.313 275.913 194.3 275.933 194.286C276.735 193.737 277.133 192.797 276.972 191.838C276.7 190.219 277.825 189.826 279.09 190.873C279.314 191.058 279.59 191.253 279.937 191.46C280.677 191.902 281.618 191.887 282.266 191.318C284.214 189.609 285.775 186.374 286.746 184.691C289.049 180.703 294.633 173.33 296.935 169.342C297.324 168.669 297.414 166.96 297.803 166.287C297.989 165.963 298.312 166.15 298.312 166.15C298.491 166.253 298.719 166.191 298.822 166.013C303.517 158.54 308.448 151.88 313.216 144.604C314.452 142.718 315.704 141.014 317.129 139.268C318.652 137.403 320.076 135.286 321.343 133.24C322.106 132.006 322.897 130.823 323.462 130.232C324.153 129.511 324.47 129.461 324.941 129.138C325.74 128.59 326.227 127.708 326.74 126.885C327.143 126.239 327.542 125.685 328.037 125.198C328.165 125.072 328.242 124.993 328.338 124.841C329.267 123.355 330.138 123.911 329.127 125.342C326.8 128.641 324.39 131.725 323.914 134.049C323.577 135.203 319.042 142.754 316.029 148.497C315.677 149.168 316.39 149.589 316.84 148.98C317.207 148.482 317.779 148.717 317.563 149.297C316.666 151.708 314.563 154.906 313.674 156.446L313.275 157.288C312.252 159.445 310.963 161.414 310.205 163.678C309.986 164.332 309.616 165.111 309.336 165.74C305.798 173.684 285.836 203.973 277.95 218.812C275.65 223.142 272.741 228.027 270.289 232.274C269.499 233.642 268.709 235.011 267.839 236.518C266.541 238.766 266.035 241.47 264.297 243.399C262.434 245.88 263.655 245.256 262.706 246.899C261.78 248.504 260.627 249.861 259.794 251.516L258.117 254.848C257.153 256.518 257.826 256.907 255.951 259.345L247.384 273.439C247.197 273.762 246.167 276.292 245.794 276.939C245.405 277.613 243.557 280.067 243.168 280.74C242.406 282.06 241.765 283.917 241.002 285.238L235.303 296.533C235.103 296.931 235.396 297.651 235.619 297.265C235.841 296.881 236.5 297.116 236.263 297.491C235.468 298.747 233.869 300.507 232.431 302.383C231.241 304.444 230.878 306.854 229.626 308.878C228.8 310.213 227.989 311.761 225.603 318.809L216.666 341.604C216.4 342.283 216.273 342.951 215.922 343.591C215.404 344.531 214.973 345.599 214.622 346.614C214.468 347.059 214.309 347.505 214.034 347.982C212.696 350.299 213.322 348.469 212.12 351.296C209.985 358.039 210.343 355.12 208.803 357.788C207.537 359.981 206.532 362.556 205.405 364.954C204.604 366.658 203.565 368.026 202.107 369.216Z" fill="#E40808"/>
<g filter="url(#filter0_d_1268_6310)">
<path fill-rule="evenodd" clip-rule="evenodd" d="M217.131 186.491C216.012 184.764 215.32 185.964 218.352 183.479L221.628 180.572C222.485 179.986 222.788 178.562 224.094 177.198L226.981 174.068C228.979 171.504 230.093 170.548 232.334 167.563L234.8 164.189C235.882 163.214 236.527 163.068 238.193 162.949L237.22 161.868C239.414 159.937 238.029 162.336 239.19 160.326C240.575 157.927 241.043 157.117 243.218 155.218C243.832 155.053 244.075 154.631 244.075 154.631L245.156 153.656C247.389 154.427 246.354 154.348 248.166 154.875L244.947 160.451C244.418 162.264 244.947 160.451 244.839 162.507C244.956 164.174 244.535 163.931 244.039 165.762C243.511 167.575 243.239 169.018 242.322 170.606C241.55 172.84 241.016 171.97 240.245 174.204C238.167 177.803 237.98 180.893 236.956 184.538L233.082 194.015C231.286 199.893 228.212 206.115 225.217 211.301C221.834 216.264 219.57 222.953 216.351 228.528L189.171 282.036C187.562 284.824 185.016 289.233 184.02 291.856C182.06 297.121 182.167 295.066 180.497 298.856C177.423 305.077 173.961 311.075 170.273 317.461L165.201 326.246C164.284 327.834 163.709 330.701 161.594 331.597C161.673 330.562 161.477 329.93 161.78 328.506C162.58 325.251 165.126 320.842 166.735 318.055C168.588 314.845 176.172 295.278 179.438 288.649C181.576 284.048 183.536 278.783 185.693 274.15C187.663 272.608 185.305 273.926 187.359 274.031C186.465 271.916 186.465 271.916 187.85 269.517L195.924 245.435C196.228 244.011 195.924 245.435 196.228 244.011L196.336 241.956C195.83 240.064 196.949 241.791 195.217 240.229C194.056 242.239 194.22 242.852 192.447 245.027C191.286 247.037 191.675 247.261 190.533 249.238C189.373 251.248 188.984 251.024 188.231 253.226C187.656 256.092 185.236 258.413 184.24 261.036C182.855 263.435 183.665 263.902 182.972 265.101L177.783 272.22C175.317 275.594 173.628 279.416 171.939 283.239C171.247 284.438 169.941 285.802 169.473 286.613C168.556 288.201 169.005 287.423 168.701 288.847C167.784 290.436 167.62 289.822 167.152 290.633C166.684 291.443 166.741 294.112 164.196 298.521C163.503 299.72 162.197 301.085 161.505 302.284L158.403 309.527C156.714 313.349 153.635 316.888 152.17 320.322C151.01 322.331 149.761 326.365 147.955 328.521L143.964 336.331C142.968 338.954 141.049 340.483 140.052 343.106C139.28 345.34 130.025 362.343 129.333 363.542C126.67 366.284 127.644 367.365 125.81 370.542C124.261 372.327 122.427 375.504 121.655 377.738C120.883 379.973 119.517 382.339 118.132 384.738C117.215 386.326 116.583 386.523 115.89 387.723C115.118 389.957 116.007 389.39 114.669 390.735C113.813 391.321 112.311 392.053 111.473 392.607L103.018 406.354C101.857 408.364 99.6344 411.317 99.3305 412.74C98.5305 415.996 98.802 414.553 97.7209 415.528C96.4434 415.871 96.1719 417.314 95.0584 418.27L91.862 420.142C87.224 421.743 88.5257 424.051 84.4878 432.914C82.799 436.737 81.2687 438.49 80.3329 440.111C79.6404 441.31 80.029 441.535 79.1119 443.123C78.644 443.934 77.1419 444.666 76.8704 446.108L73.4834 452.797C73.1417 451.519 73.2588 453.186 73.3663 451.13L73.8342 450.32C73.2492 449.463 72.7153 448.593 71.2737 448.323L71.1566 446.656C71.3812 446.267 70.9926 446.043 70.9926 446.043C71.1001 443.987 72.2136 443.03 72.485 441.588C73.1775 440.389 73.3416 441.002 73.9872 440.856C73.9872 440.856 73.9872 440.856 74.2117 440.467L73.4021 440C72.8171 439.143 73.1775 440.389 73.2381 439.386C73.7666 437.573 75.1985 434.121 75.727 432.308C76.4987 430.074 76.9948 428.242 77.7479 426.041C78.2764 424.228 80.1293 421.018 80.4008 419.576C80.7515 417.099 79.7779 416.018 80.7743 413.395C81.6914 411.806 82.7725 410.831 83.0763 409.407C83.8763 406.152 84.5688 404.953 85.9538 402.554C86.0331 401.519 85.8367 400.887 86.5292 399.687C86.8331 398.264 87.2217 398.488 87.5256 397.064C88.2973 394.83 88.4654 391.772 90.5201 391.877C90.8709 389.4 89.6636 392.463 90.6276 389.822C92.0126 387.423 90.7069 388.787 91.8955 385.756L80.4738 403.669C78.5604 407.881 75.2378 411.841 72.4865 416.606C70.6336 419.815 65.2295 431.045 62.1784 433.563C61.7898 433.338 59.5573 432.568 58.1158 432.298C56.061 432.192 56.3043 431.771 55.1343 430.058C54.4418 431.257 54.1379 432.681 53.2208 434.269C52.3038 435.858 51.4472 436.444 50.5301 438.032C46.5392 445.842 46.3752 445.229 41.8785 451.148L38.9763 447.873C38.9763 447.873 38.9763 447.873 38.7517 448.262L39.0503 448.866C39.392 450.144 39.392 450.144 38.6995 451.344C37.3373 450.039 38.3109 451.119 38.1145 450.487C37.7728 449.209 38.0767 447.786 38.3806 446.362C39.3769 443.739 39.1805 443.107 39.5637 440.648C37.8976 440.767 38.7072 441.234 37.0598 441.32L34.8273 440.55C35.2387 437.07 36.2123 438.151 35.318 436.036L34.4518 432.899L37.1991 431.805C35.0272 430.033 35.1443 431.699 35.2705 429.611C34.9288 428.333 36.763 425.156 37.2309 424.346L37.193 421.644C39.0838 421.137 38.8592 421.526 40.5066 421.439C39.9216 420.583 39.5329 420.359 38.9666 419.47C39.8232 418.884 40.2442 419.127 40.9366 417.927C39.3498 417.011 39.1252 417.4 39.0081 415.733C40.4309 416.036 40.0423 415.812 40.8988 415.226C40.5571 413.948 40.5571 413.948 39.3589 413.256L39.8268 412.446C41.0477 409.433 41.4591 405.954 43.3967 404.393L42.4231 403.312C43.1156 402.112 43.1949 401.078 43.2231 400.056C43.3023 399.022 43.3023 399.022 43.1059 398.39C43.1852 397.355 43.7191 398.225 43.1852 397.355C42.4927 398.554 42.0248 399.365 41.5756 400.143L35.8904 409.092C33.0598 414.893 28.9145 425.812 22.3534 427.902C22.0723 425.622 21.4591 425.787 21.506 424.733C21.3889 423.066 22.0814 421.867 22.9985 420.278C23.3871 420.503 22.306 421.478 24.0327 420.357C23.3629 417.852 22.6098 420.054 23.6062 417.431C24.4062 414.175 26.4368 411.631 27.2555 408.343L30.0951 398.788C30.563 397.977 30.399 397.364 31.0914 396.164L33.2764 390.51C34.4974 387.498 35.6956 388.19 36.107 384.71L36.1862 383.675C36.4108 383.286 36.4108 383.286 36.4108 383.286L36.9015 378.772C36.9808 377.737 37.43 376.959 37.8979 376.149C38.3658 375.338 37.8979 376.149 38.7544 375.562C39.6109 374.976 38.9184 376.176 38.979 375.173C39.0583 374.139 38.4732 373.282 39.3903 371.694C40.3074 370.105 40.2468 371.108 41.9735 369.987C41.1261 366.818 41.0792 367.871 42.6282 366.086C44.1772 364.3 43.6246 363.462 44.3171 362.263C44.153 361.65 44.8455 360.45 45.3134 359.64C46.0059 358.44 46.6984 357.241 47.3909 356.041C47.6155 355.652 48.0834 354.842 48.308 354.453C49.2251 352.864 48.308 354.453 48.6119 353.029C49.1873 350.163 51.7932 344.752 53.1782 342.353C54.3386 340.343 53.1782 342.353 54.4839 340.989C56.95 337.615 56.2803 335.11 57.5012 332.098C59.073 326.608 63.1018 321.5 64.5337 318.048C65.9367 314.795 67.5463 312.007 69.6238 308.409C71.3974 306.234 72.3938 303.611 73.7788 301.212L81.9907 287.886C83.1511 285.876 84.906 283.734 86.0664 281.724L94.2501 269.419C96.0237 267.245 97.4087 264.846 98.5504 262.868C99.4675 261.28 99.6315 261.893 100.745 260.937C102.715 259.395 110.819 248.124 112.369 246.339L121.048 232.202C123.575 227.826 130.392 217.888 133.387 212.701C136.302 208.549 143.929 199.078 147.233 195.15C152.119 189.456 160.078 177.54 163.157 174.001C164.014 173.415 172.501 159.687 175.113 156.958L203.071 117.732C203.764 116.532 204.456 115.333 205.879 115.636C205.772 117.692 202.66 121.211 201.724 122.832C200.807 124.421 202.066 124.11 200.26 126.266L193.19 137.614C187.083 146.321 183.045 155.185 177.36 164.134L179.555 162.203C180.411 161.617 180.411 161.617 181.281 161.082L221.936 110.037C223.241 108.673 223.906 108.495 225.211 107.131C226.527 109.489 225.132 108.165 226.106 109.246C230.074 105.14 232.718 102.431 234.88 100.481C236.429 98.6952 235.348 99.6703 236.382 99.7487C238.273 99.2411 236.607 99.3597 238.109 98.6277C239.658 96.8422 237.603 96.7365 240.224 97.731C239.064 99.7409 237.533 101.494 235.952 103.261C233.982 104.803 233.757 105.192 232.372 107.591L227.604 114.952C225.751 118.162 224.502 122.195 221.84 124.937L218.924 129.089C218.456 129.899 217.619 130.453 216.683 132.074C214.441 135.059 212.528 139.27 210.062 142.644C208.288 144.819 207.535 147.021 206.599 148.642C206.131 149.452 205.682 150.23 204.826 150.816L199.59 158.988C196.067 165.987 191.855 170.515 190.059 176.393C189.287 178.627 186.208 182.166 186.409 185.481C186.409 185.481 186.798 185.705 187.023 185.316C189.381 183.998 192.072 180.235 193.635 178.501C193.859 178.112 194.327 177.302 194.94 177.137C198.969 172.029 203.513 165.056 207.87 161.175C210.677 159.079 212.179 158.347 213.953 156.172C218.146 151.677 220.565 149.357 225.699 145.924C228.507 143.828 228.362 143.182 231.596 144.012L225.752 155.031C223.675 158.63 224.952 158.287 225.037 159.935C223.31 161.056 223.731 161.299 222.374 162.677C221.906 163.487 220.648 163.798 220.18 164.608C218.874 165.972 217.653 168.984 216.881 171.219C216.189 172.418 213.723 175.792 212.806 177.38C212.581 177.769 212.113 178.58 212.113 178.58C210.339 180.754 211.341 180.814 210.424 182.403C209.732 183.602 208.005 184.723 207.509 186.555L209.703 184.623L208.707 187.246C209.741 187.325 209.517 187.714 210.715 188.406C210.022 189.605 209.33 190.804 209.494 191.418C210.996 190.686 211.464 189.875 212.302 189.322C214.66 188.004 214.964 186.58 215.966 186.64L217.131 186.491Z" fill="#086DE4"/>
</g>
<g filter="url(#filter1_d_1268_6310)">
<path fill-rule="evenodd" clip-rule="evenodd" d="M146.635 206.23C147.516 206.738 147.364 207.541 147.195 208.334L145.739 207.782L145.092 208.902C144.967 209.118 144.707 209.57 144.446 210.021C143.675 211.357 143.736 210.213 143.63 211.933C142.768 212.928 142.068 213.102 141.422 214.221C140.82 214.765 140.139 216.442 139.754 217.11L138.427 219.907C137.179 221.57 137.209 223.055 135.818 224.924L136.034 225.049C135.908 225.265 135.773 225.5 135.648 225.717C135.002 226.836 134.305 229.082 133.209 229.942C131.863 231.235 132.823 230.61 132.177 231.729L126.851 241.991L125.611 241.564L124.068 244.236L123.062 243.944C122.48 245.991 122.801 244.395 123.558 245.121C122.786 246.457 122.445 246.549 121.89 248.01L121.07 246.357C121.411 246.265 121.195 246.14 121.195 246.14L120.144 246.424L119.667 246.75C119.576 246.409 119.712 246.175 119.387 245.698L117.995 246.074C117.87 246.291 117.87 246.291 117.87 246.291L118.195 246.767C118.07 246.984 118.15 247.343 118.15 247.343C118.241 247.684 118.214 248.271 118.305 248.612C117.73 248.569 117.73 248.569 117.469 249.02C117.344 249.237 117.174 250.03 117.148 250.616L115.367 249.588L114.92 251.4L116.448 250.79C116.387 251.934 116.062 251.458 116.818 252.183L116.092 252.943L115.967 253.16L114.466 253.184L114.25 253.06C114.061 252.349 113.845 252.224 114.095 251.791C113.835 252.242 113.835 252.242 113.8 252.8C113.891 253.141 114.016 252.925 113.756 253.376L114.205 253.636C114.915 253.444 114.546 253.544 115.347 253.693C115.086 254.144 114.701 254.812 114.315 255.48C113.048 255.64 113.74 255.438 113.139 255.981C113.434 254.972 113.849 255.789 112.518 255.021C112.473 255.597 112.582 255.948 111.656 256.016C111.845 256.727 111.611 256.592 110.885 257.352C110.56 256.875 110.344 256.751 110.264 256.391C110.048 256.267 110.048 256.267 110.048 256.267L109.724 255.791C109.013 255.982 109.247 256.117 108.223 255.815C108.412 256.526 108.287 256.742 107.776 257.627L107.11 257.243C107.11 257.243 107.326 257.368 107.201 257.584L107.606 258.42C106.491 257.776 105.7 257.608 104.917 257.469C105.348 256.225 105.625 255.206 105.345 254.153L106.305 253.528C105.935 252.135 106.215 253.187 106.502 252.149C105.712 251.982 105.126 251.957 104.695 251.708C103.769 251.775 104.604 251.366 103.734 252.333C104.554 253.986 104.014 253.385 102.992 255.154C101.54 258.168 102.035 257.851 99.7627 259.212C97.7243 260.707 99.4678 260.221 96.8087 260.756C94.5813 261.54 94.4306 263.837 93.7679 265.524L92.9326 265.933C92.2863 267.052 92.6377 266.942 92.1165 267.845C91.5609 269.305 90.2939 269.465 88.7512 272.137L86.6528 276.27C85.3859 276.429 85.6924 276.895 84.8751 277.314L82.0014 279.217C81.461 278.616 80.4814 277.738 81.8914 277.372C81.0101 276.864 81.0369 276.277 81.2068 275.485C81.3738 272.62 84.2547 261.524 85.0424 259.62C86.1995 257.616 86.3665 254.751 87.3077 252.623C87.4328 252.406 90.9 242.828 90.6202 241.776C89.6598 242.401 89.3992 242.853 88.8617 244.324C88.0903 245.66 87.9012 244.949 87.0391 245.944L86.0519 247.155C84.8757 247.656 85.4772 247.112 84.1654 247.847C83.5639 248.391 83.5639 248.391 82.5127 248.675C82.0019 249.559 81.5715 250.803 80.1794 251.179C79.4692 251.371 79.6047 251.136 78.6786 251.203C76.7014 251.554 77.4576 252.28 77.5663 252.632C77.5215 253.207 77.3964 253.424 77.5052 253.776C77.3353 254.568 77.2102 254.785 76.6087 255.329C75.3685 254.901 75.2166 255.704 74.2458 256.348L74.7414 257.524C73.5843 259.529 72.8549 258.217 71.9584 259.769L72.3633 260.605C71.5012 261.6 71.9776 261.273 70.8013 261.773C70.6315 262.566 70.7566 262.349 70.8653 262.701C70.8205 263.277 70.956 263.042 70.5704 263.71L69.7798 263.543L68.9473 266.023L68.4708 266.35L69.4609 267.21C68.8146 268.33 68.6255 267.619 68.6447 269.123L67.2271 271.578C67.2271 271.578 67.102 271.795 66.8414 272.246C66.8414 272.246 65.8542 273.458 65.4952 273.539C64.2742 274.616 64.508 274.751 63.8274 276.428L63.4865 276.52C63.4865 276.52 63.4865 276.52 63.3614 276.737C61.9693 277.113 64.088 275.977 63.0205 276.829C62.8238 278.208 62.0792 278.957 61.092 280.169C60.3654 280.929 59.3754 280.069 58.184 282.631L57.0496 282.602C56.7547 283.611 56.7547 283.611 56.0624 283.813C55.0113 284.097 55.7215 283.905 54.9205 283.756C47.9289 283.571 51.8649 275.756 52.8836 271.915C54.7633 265.586 57.6493 259.549 59.7628 253.354L62.2172 247.068C64.4826 240.07 66.8606 236.99 68.3738 232.832C68.3738 232.832 69.4058 231.045 69.656 230.611L71.9061 225.675C72.4169 224.791 72.1028 224.296 72.4885 223.628C73.6159 220.139 75.2494 217.808 76.5124 214.084C77.4537 211.955 80.4141 206.827 81.3553 204.698C82.4217 202.353 84.1802 199.806 85.4624 197.585L86.4944 195.797C88.7178 191.448 94.6282 181.211 97.1134 177.903L102.147 170.722C105.187 165.954 109.172 161.129 112.338 156.144L115.738 151.294C117.28 148.622 119.909 145.108 121.712 141.984C124.276 137.543 126.806 133.659 129.74 129.118C130.602 128.123 131.147 126.681 131.793 125.561C132.656 124.566 133.041 123.898 133.677 122.797C134.323 121.678 135.534 120.619 135.821 119.582C136.082 119.13 136.779 116.884 137.814 117.169C137.814 117.169 137.814 117.169 137.939 116.952C137.75 116.241 137.784 115.683 138.646 114.689L139.759 113.261C141.471 109.796 147.034 103.234 149.609 98.7742C150.766 96.7701 152.237 95.2604 153.394 93.2563L157.701 86.8355C159.398 85.4323 162.008 80.4148 164.296 78.4862C165.023 77.7261 165.544 76.8233 166.288 76.0736C166.89 75.5302 167.509 74.9972 168.236 74.2371C168.963 73.477 168.497 73.7857 169.332 73.3773C171.344 72.4684 171.064 71.4161 172.591 70.8055C173.132 71.4064 173.321 72.1174 173.367 73.0346L173.45 75.4659C173.514 76.3935 173.926 75.1391 173.514 76.3935L172.171 79.7586C170.763 82.196 161.873 96.0572 161.193 97.7345C161.068 97.9512 160.898 98.7438 160.637 99.1952C160.377 99.6466 160.421 99.0706 159.991 100.315C159.544 102.127 157.363 103.828 157.616 105.467C160.104 104.231 162.607 100.934 164.895 99.0056L167.319 96.8423C168.046 96.0822 168.801 95.3144 169.743 94.6789C170.47 93.9189 171.305 93.5104 172.032 92.7504C176.279 88.9671 173.764 90.7892 176.899 89.9274C177.754 91.0225 177.224 90.4036 178.68 90.9554C178.699 92.459 177.648 92.7428 176.887 94.0608C176.501 94.7289 176.457 95.3049 176.305 96.1079C176.135 96.9005 176.135 96.9005 175.983 97.7036C175.722 98.1549 175.212 99.0396 174.951 99.491C173.219 101.452 173.9 99.7748 171.721 103.548C170.314 105.986 169.623 107.681 167.864 110.229C166.582 112.449 164.995 115.698 163.587 118.135C165.179 118.452 164.423 117.727 165.754 118.495C166.124 119.888 165.012 121.317 164.815 122.696C164.429 123.364 164.619 124.075 164.108 124.959L161.347 130.78C160.916 132.024 159.94 133.217 159.293 134.337L158.477 136.249C157.445 138.036 156.083 139.898 155.392 141.593C154.809 143.64 154.62 142.929 153.849 144.265L151.751 148.398C151.625 148.615 151.024 149.158 150.719 150.185L148.54 153.959C147.813 154.719 148.063 154.286 147.643 155.512C149.08 154.56 153.944 148.172 156.402 145.45C161.329 139.99 158.44 143.955 161.916 141.508C163.137 140.431 162.365 141.767 165.75 138.979C170.121 134.979 169.842 133.927 171.929 135.421L171.653 137.934C172.613 137.309 174.217 133.492 175.234 133.766L171.898 139.544C171.468 140.788 170.677 140.62 171.282 142.149C172.182 144.161 171.777 143.326 173.297 144.805L174.368 146.025L173.056 146.76C172.58 147.087 171.577 150.36 171.066 151.245C170.681 151.913 170.465 151.788 170.17 152.797C169.399 154.133 168.688 154.325 168.178 155.21C167.406 156.546 167.084 158.142 166.529 159.602C165.372 161.606 165.478 159.886 165.202 162.399C163.549 163.226 164.106 163.259 163.92 164.62C163.875 165.196 163.625 165.629 163.364 166.081C162.934 167.325 163.383 167.584 162.622 168.902C161.529 171.834 162.096 171.848 162.521 174.188C161.3 175.264 161.919 174.731 161.579 176.316C161.535 176.892 161.454 176.533 161.069 177.201C160.683 177.869 160.774 178.21 160.513 178.662C160.252 179.113 159.911 179.205 159.526 179.873C159.14 180.541 159.636 181.718 159.25 182.386C159.08 183.179 157.938 183.121 156.406 185.775C157.54 187.923 156.671 188.889 155.109 190.058L153.116 192.47C151.709 194.908 151.124 194.883 152.268 197.012L151.622 198.132C151.111 199.016 150.31 198.867 150.31 198.867C150.401 199.208 150.185 199.083 150.185 199.083C149.323 200.078 151.069 201.664 148.903 201.304C147.576 204.101 146.695 203.592 146.635 206.23Z" fill="white"/>
</g>
<defs>
<filter id="filter0_d_1268_6310" x="21.4932" y="93.1025" width="258.673" height="363.695" filterUnits="userSpaceOnUse" color-interpolation-filters="sRGB">
<feFlood flood-opacity="0" result="BackgroundImageFix"/>
<feColorMatrix in="SourceAlpha" type="matrix" values="0 0 0 0 0 0 0 0 0 0 0 0 0 0 0 0 0 0 127 0" result="hardAlpha"/>
<feOffset dx="28"/>
<feGaussianBlur stdDeviation="2"/>
<feComposite in2="hardAlpha" operator="out"/>
<feColorMatrix type="matrix" values="0 0 0 0 0 0 0 0 0 0 0 0 0 0 0 0 0 0 0.15 0"/>
<feBlend mode="normal" in2="BackgroundImageFix" result="effect1_dropShadow_1268_6310"/>
<feBlend mode="normal" in="SourceGraphic" in2="effect1_dropShadow_1268_6310" result="shape"/>
</filter>
<filter id="filter1_d_1268_6310" x="50.8584" y="70.8055" width="142.822" height="233.153" filterUnits="userSpaceOnUse" color-interpolation-filters="sRGB">
<feFlood flood-opacity="0" result="BackgroundImageFix"/>
<feColorMatrix in="SourceAlpha" type="matrix" values="0 0 0 0 0 0 0 0 0 0 0 0 0 0 0 0 0 0 127 0" result="hardAlpha"/>
<feOffset dx="11" dy="16"/>
<feGaussianBlur stdDeviation="2"/>
<feComposite in2="hardAlpha" operator="out"/>
<feColorMatrix type="matrix" values="0 0 0 0 0 0 0 0 0 0 0 0 0 0 0 0 0 0 0.25 0"/>
<feBlend mode="normal" in2="BackgroundImageFix" result="effect1_dropShadow_1268_6310"/>
<feBlend mode="normal" in="SourceGraphic" in2="effect1_dropShadow_1268_6310" result="shape"/>
</filter>
</defs>
</svg>
