<svg width="2208" height="800" viewBox="0 0 2208 800" fill="none" xmlns="http://www.w3.org/2000/svg">
<path d="M1766.57 41.7064C1926.01 54.025 2014.89 139.968 2208 86.2671V703.832C2208 703.832 1988.79 873.505 1797.12 762.103C1605.45 650.702 1551.18 803.808 1432.34 788.954C1313.5 774.1 1211.23 656.986 1020.41 751.82C829.582 846.654 721.784 662.79 563.91 680.98C406.036 699.17 339.16 764.388 228.321 751.82C117.482 739.252 82.0587 736.395 0 680.98L0.000557946 78.269C42.089 110.833 290.788 -0.566055 401.65 0.00216696C585.445 0.944205 637.09 102.349 759.879 78.269C953.865 40.2266 986.247 1.1405 1103.25 13.1419C1207.05 23.789 1324.3 119.072 1431.77 108.547C1552.1 96.7627 1607.13 29.3878 1766.57 41.7064Z" fill="url(#paint0_linear_604_2)"/>
<defs>
<linearGradient id="paint0_linear_604_2" x1="256.326" y1="417.471" x2="2195.7" y2="155.425" gradientUnits="userSpaceOnUse">
<stop stop-color="#19ACFF"/>
<stop offset="0.367738" stop-color="#0073CE"/>
</linearGradient>
</defs>
</svg>
