<svg width="320" height="800" viewBox="0 0 320 800" fill="none" xmlns="http://www.w3.org/2000/svg">
<path d="M817.571 41.7064C977.009 54.025 1065.89 139.968 1259 86.2671V703.832C1259 703.832 1039.79 873.505 848.123 762.103C656.454 650.702 602.177 803.808 483.339 788.954C364.501 774.1 262.234 656.986 71.4079 751.82C-119.418 846.654 -227.216 662.79 -385.09 680.98C-542.964 699.17 -609.84 764.388 -720.679 751.82C-831.518 739.252 -866.941 736.395 -949 680.98L-948.999 78.269C-906.911 110.833 -658.212 -0.566055 -547.35 0.00216696C-363.555 0.944205 -311.91 102.349 -189.121 78.269C4.8653 40.2266 37.2468 1.1405 154.252 13.1419C258.053 23.789 375.3 119.072 482.768 108.547C603.099 96.7627 658.133 29.3878 817.571 41.7064Z" fill="url(#paint0_linear_1268_6486)"/>
<defs>
<linearGradient id="paint0_linear_1268_6486" x1="-692.674" y1="417.471" x2="1246.7" y2="155.425" gradientUnits="userSpaceOnUse">
<stop stop-color="#19ACFF"/>
<stop offset="0.367738" stop-color="#0073CE"/>
</linearGradient>
</defs>
</svg>
