<svg width="1920" height="718" viewBox="0 0 1920 718" fill="none" xmlns="http://www.w3.org/2000/svg">
<path d="M1547.31 1.53343C1686.84 12.3148 1732.12 125.033 1931.83 70.0335V605.033C1931.83 605.033 1740.29 786.033 1572.55 688.533C1404.81 591.033 1357.31 725.034 1253.31 712.033C1149.31 699.033 1059.81 596.533 892.813 679.533C725.813 762.533 654.313 637.033 516.151 652.953C377.989 668.873 328.813 723.033 231.813 712.033C134.813 701.033 -0.187254 627.311 -0.187254 627.311L-0.1875 70.0335C126.625 121.533 254.293 1.03611 351.313 1.53343C512.159 2.35791 557.355 91.1085 664.813 70.0335C834.578 36.7383 865.417 -8.97035 967.813 1.53343C1058.65 10.8519 1159.26 79.245 1253.31 70.0335C1358.62 59.7194 1407.78 -9.24794 1547.31 1.53343Z" fill="url(#paint0_linear_1183_3096)" fill-opacity="0.25"/>
<path d="M1546 37.5019C1685.53 48.2833 1763.31 123.502 1932.31 76.502V617.002C1932.31 617.002 1740.47 765.502 1572.74 668.002C1405 570.502 1357.5 704.502 1253.5 691.502C1149.5 678.502 1060 576.002 893.001 659.002C726.001 742.002 631.663 581.082 493.501 597.002C355.339 612.922 296.813 670.002 199.813 659.002C102.813 648.002 71.813 645.502 0 597.002L0.000488281 69.5019C36.8338 98.0019 254.481 0.504582 351.501 1.0019C512.347 1.82638 557.544 90.5769 665.001 69.5019C834.767 36.2068 863.105 1.99818 965.501 12.502C1056.34 21.8204 1158.95 105.213 1253 96.0019C1358.31 85.6878 1406.47 26.7205 1546 37.5019Z" fill="url(#paint1_linear_1183_3096)"/>
<defs>
<linearGradient id="paint0_linear_1183_3096" x1="224.099" y1="363.753" x2="1920.81" y2="133.526" gradientUnits="userSpaceOnUse">
<stop stop-color="#19ACFF"/>
<stop offset="1" stop-color="#0D75EF"/>
</linearGradient>
<linearGradient id="paint1_linear_1183_3096" x1="224.321" y1="366.376" x2="1921.55" y2="137.066" gradientUnits="userSpaceOnUse">
<stop stop-color="#19ACFF"/>
<stop offset="0.367738" stop-color="#0073CE"/>
</linearGradient>
</defs>
</svg>
