<svg width="154" height="134" viewBox="0 0 154 134" fill="none" xmlns="http://www.w3.org/2000/svg">
<path d="M91.7221 44.2852C90.0019 44.2852 88.7578 45.5292 88.7578 47.2341C88.7578 48.9543 90.0019 50.1984 91.7068 50.1984C93.427 50.1984 94.6557 48.9543 94.6711 47.2495C94.6711 45.5292 93.4424 44.2852 91.7221 44.2852Z" fill="#FF9D00"/>
<path d="M121.303 44.2857C119.583 44.255 118.293 45.4684 118.262 47.1732C118.232 48.8935 119.46 50.1836 121.15 50.2144C122.87 50.2451 124.145 49.0317 124.176 47.3268C124.222 45.5913 123.008 44.3164 121.303 44.2857Z" fill="#FF9D00"/>
<path d="M150.776 44.2853C149.056 44.2699 147.797 45.514 147.781 47.2189C147.766 48.9391 149.01 50.1986 150.715 50.2139C152.435 50.2293 153.679 49.0006 153.695 47.2803C153.71 45.5447 152.497 44.3007 150.776 44.2853Z" fill="#FF9D00"/>
<path d="M17.9022 64.9738C19.6225 64.9738 20.8665 63.7451 20.8665 62.0249C20.8665 60.3046 19.6378 59.0605 17.9176 59.0605C16.1974 59.0605 14.9533 60.3046 14.9533 62.0095C14.9379 63.7144 16.1974 64.9585 17.9022 64.9738Z" fill="#FF9D00"/>
<path d="M47.38 64.9757C49.1002 64.991 50.3597 63.7776 50.3904 62.0574C50.4058 60.3218 49.1924 59.0624 47.4875 59.047C45.7673 59.0317 44.4925 60.245 44.4771 61.9499C44.4464 63.6701 45.6905 64.9449 47.38 64.9757Z" fill="#FF9D00"/>
<path d="M76.9142 59.047C75.2093 59.0624 73.9653 60.3218 73.9806 62.0421C73.996 63.7469 75.2708 64.991 76.9756 64.9757C78.6959 64.9603 79.9092 63.7009 79.8939 61.9806C79.8939 60.2604 78.6344 59.0317 76.9142 59.047Z" fill="#FF9D00"/>
<path d="M106.588 59.0443C104.868 58.9982 103.563 60.1962 103.501 61.8857C103.455 63.6059 104.653 64.9115 106.343 64.9729C108.063 65.019 109.368 63.821 109.415 62.1314C109.476 60.3805 108.293 59.0903 106.588 59.0443Z" fill="#FF9D00"/>
<path d="M136.05 59.047C134.329 59.0317 133.055 60.2604 133.039 61.9499C133.024 63.6701 134.253 64.9449 135.957 64.9603C137.678 64.9757 138.937 63.7469 138.952 62.0421C138.968 60.3218 137.754 59.0624 136.05 59.047Z" fill="#FF9D00"/>
<path d="M32.6789 79.7333C34.3991 79.718 35.6279 78.4739 35.6125 76.7536C35.6125 75.0334 34.3684 73.8047 32.6482 73.8047C30.9279 73.8047 29.6992 75.0641 29.6992 76.7844C29.7146 78.4892 30.974 79.7333 32.6789 79.7333Z" fill="#FF9D00"/>
<path d="M59.2356 76.5552C59.1434 78.2908 60.3107 79.6271 61.9849 79.7346C63.7051 79.8267 65.0567 78.6594 65.1488 76.9853C65.241 75.2497 64.0891 73.9135 62.4149 73.8213C60.664 73.7138 59.3277 74.8811 59.2356 76.5552Z" fill="#FF9D00"/>
<path d="M91.827 73.806C90.1068 73.7599 88.8013 74.9426 88.7552 76.6474C88.7091 78.3677 89.9071 79.6732 91.5966 79.7346C93.3169 79.7807 94.6224 78.5827 94.6685 76.8932C94.7145 75.1422 93.5319 73.8521 91.827 73.806Z" fill="#FF9D00"/>
<path d="M121.177 73.8048C119.472 73.8202 118.243 75.095 118.274 76.8152C118.289 78.5201 119.564 79.7488 121.284 79.7335C122.989 79.7028 124.203 78.4433 124.187 76.7231C124.157 75.0028 122.897 73.7895 121.177 73.8048Z" fill="#FF9D00"/>
<path d="M47.4255 94.4953C49.1457 94.4953 50.3745 93.2666 50.3898 91.5464C50.3898 89.8261 49.1611 88.582 47.4409 88.582C45.7207 88.582 44.4766 89.8261 44.4766 91.531C44.4766 93.2359 45.7207 94.4953 47.4255 94.4953Z" fill="#FF9D00"/>
<path d="M76.8839 88.567C75.179 88.5977 73.9503 89.8725 73.981 91.5927C74.0118 93.2976 75.2866 94.5263 77.0068 94.4956C78.7117 94.4649 79.925 93.2054 79.8943 91.4699C79.879 89.7496 78.6195 88.5363 76.8839 88.567Z" fill="#FF9D00"/>
<path d="M106.526 88.5665C104.806 88.5512 103.531 89.7799 103.516 91.4694C103.5 93.1897 104.729 94.4645 106.434 94.4798C108.154 94.4952 109.414 93.2818 109.429 91.5616C109.444 89.8414 108.231 88.5819 106.526 88.5665Z" fill="#FF9D00"/>
<path d="M62.0781 109.254C63.7983 109.3 65.1038 108.102 65.1499 106.413C65.196 104.677 64.0133 103.387 62.3238 103.341C60.6036 103.295 59.298 104.493 59.2366 106.183C59.1752 107.887 60.3885 109.193 62.0781 109.254Z" fill="#FF9D00"/>
<path d="M91.7839 103.327C90.0636 103.296 88.7735 104.509 88.7428 106.214C88.712 107.934 89.9408 109.225 91.6303 109.255C93.3505 109.286 94.6253 108.073 94.656 106.368C94.7021 104.632 93.4887 103.357 91.7839 103.327Z" fill="#FF9D00"/>
<path d="M76.8995 118.087C75.1947 118.117 73.9659 119.377 73.9967 121.097C74.0274 122.802 75.3022 124.03 77.0071 124C78.7119 123.969 79.9253 122.71 79.9099 120.989C79.8792 119.285 78.6198 118.056 76.8995 118.087Z" fill="#FF9D00"/>
<path d="M47.441 5.93255C49.1613 5.93255 50.39 4.68845 50.39 2.95287C50.39 1.23264 49.1459 0.00390625 47.4257 0.00390625C45.7054 0.00390625 44.4613 1.26336 44.4767 2.96823C44.4767 4.68845 45.7362 5.93255 47.441 5.93255Z" fill="#FF9D00"/>
<path d="M106.526 0.00404865C104.806 -0.0113105 103.531 1.21743 103.516 2.90693C103.5 4.62716 104.729 5.90197 106.434 5.91733C108.154 5.93269 109.414 4.71932 109.429 2.99909C109.444 1.27886 108.231 0.034767 106.526 0.00404865Z" fill="#FF9D00"/>
<path d="M32.7297 20.6951C34.4346 20.6644 35.648 19.4049 35.6326 17.6847C35.6172 15.9798 34.3578 14.7511 32.6222 14.7818C30.9173 14.8125 29.6886 16.072 29.7193 17.7922C29.7347 19.4817 31.0095 20.7105 32.7297 20.6951Z" fill="#FF9D00"/>
<path d="M62.2488 14.7658C60.5286 14.7504 59.2691 15.9638 59.2384 17.6687C59.2231 19.3889 60.4364 20.6637 62.1413 20.679C63.8615 20.6944 65.121 19.481 65.1517 17.7608C65.1671 16.0559 63.9537 14.7965 62.2488 14.7658Z" fill="#FF9D00"/>
<path d="M91.7376 14.7658C90.0174 14.7504 88.758 15.9791 88.758 17.6994C88.7426 19.4196 89.9867 20.679 91.6915 20.6944C93.4118 20.7098 94.6559 19.4657 94.6712 17.7608C94.6712 16.0252 93.4579 14.7811 91.7376 14.7658Z" fill="#FF9D00"/>
<path d="M121.226 14.7656C119.506 14.7656 118.277 16.0097 118.277 17.7299C118.277 19.4502 119.537 20.6943 121.242 20.6789C122.962 20.6789 124.191 19.4348 124.191 17.6992C124.175 15.9944 122.947 14.7656 121.226 14.7656Z" fill="#FF9D00"/>
<path d="M17.8711 35.4542C19.5913 35.4695 20.8354 34.2408 20.8508 32.5206C20.8661 30.8003 19.6374 29.5409 17.9325 29.5255C16.2123 29.5102 14.9529 30.7543 14.9375 32.4591C14.9375 34.164 16.1816 35.4388 17.8711 35.4542Z" fill="#FF9D00"/>
<path d="M47.3945 35.4542C49.1148 35.4695 50.3589 34.2408 50.3742 32.5206C50.3896 30.8003 49.1608 29.5409 47.456 29.5255C45.7357 29.5102 44.4763 30.7543 44.4609 32.4591C44.4609 34.164 45.705 35.4388 47.3945 35.4542Z" fill="#FF9D00"/>
<path d="M77.069 29.5247C75.3487 29.4786 74.0432 30.6767 73.9818 32.3662C73.9357 34.0864 75.1337 35.3919 76.8232 35.4534C78.5434 35.5148 79.849 34.3014 79.895 32.6119C79.9565 30.861 78.7738 29.5862 77.069 29.5247Z" fill="#FF9D00"/>
<path d="M106.48 29.5254C104.76 29.5254 103.516 30.7695 103.516 32.4743C103.516 34.1946 104.76 35.4387 106.465 35.454C108.185 35.454 109.429 34.2253 109.429 32.5051C109.429 30.7695 108.2 29.5254 106.48 29.5254Z" fill="#FF9D00"/>
<path d="M136.019 29.5255C134.298 29.5102 133.039 30.7543 133.024 32.4591C133.008 34.1794 134.252 35.4388 135.957 35.4542C137.677 35.4695 138.921 34.2254 138.937 32.5206C138.952 30.785 137.739 29.5409 136.019 29.5255Z" fill="#FF9D00"/>
<path d="M3.12905 50.2142C4.84928 50.2296 6.09337 48.9855 6.10873 47.2806C6.12409 45.5604 4.89536 44.3009 3.19049 44.3009C1.47026 44.2856 0.210812 45.5297 0.195453 47.2345C0.180094 48.924 1.42419 50.1988 3.12905 50.2142Z" fill="#FF9D00"/>
<path d="M32.5546 50.2131C34.2748 50.2746 35.5804 49.0612 35.6264 47.3717C35.6725 45.6361 34.4899 44.3459 32.8004 44.2845C31.0801 44.2384 29.7746 45.4364 29.7132 47.1259C29.6517 48.8462 30.8651 50.1517 32.5546 50.2131Z" fill="#FF9D00"/>
<path d="M62.2293 44.2853C60.5091 44.2699 59.2343 45.4987 59.2189 47.2035C59.2035 48.9238 60.4323 50.1986 62.1371 50.2139C63.8574 50.2293 65.1168 49.0006 65.1322 47.2957C65.1629 45.5601 63.9495 44.3007 62.2293 44.2853Z" fill="#FF9D00"/>
</svg>
