<svg width="107" height="73" viewBox="0 0 107 73" fill="none" xmlns="http://www.w3.org/2000/svg">
    <path d="M100.293 2.918A2.922 2.922 0 0 1 103.211 0a2.922 2.922 0 0 1 2.918 2.918 2.931 2.931 0 0 1-2.918 2.918 2.913 2.913 0 0 1-2.918-2.918zM75.227 2.918A2.922 2.922 0 0 1 78.145 0a2.922 2.922 0 0 1 2.918 2.918 2.93 2.93 0 0 1-2.918 2.918 2.922 2.922 0 0 1-2.918-2.918zM75.227 30.4a2.922 2.922 0 0 1 2.918-2.918 2.922 2.922 0 0 1 2.918 2.918 2.922 2.922 0 0 1-2.918 2.918c-1.602.014-2.918-1.303-2.918-2.918zM50.162 2.918A2.922 2.922 0 0 1 53.08 0a2.922 2.922 0 0 1 2.918 2.918 2.93 2.93 0 0 1-2.918 2.918 2.922 2.922 0 0 1-2.918-2.918zM50.162 30.4a2.922 2.922 0 0 1 2.918-2.918 2.922 2.922 0 0 1 2.918 2.918 2.922 2.922 0 0 1-2.918 2.918c-1.601.014-2.918-1.303-2.918-2.918zM50.162 57.883a2.922 2.922 0 0 1 2.918-2.918 2.922 2.922 0 0 1 2.918 2.918A2.922 2.922 0 0 1 53.08 60.8c-1.601.014-2.918-1.302-2.918-2.917zM25.106 2.918A2.922 2.922 0 0 1 28.024 0a2.922 2.922 0 0 1 2.917 2.918 2.93 2.93 0 0 1-2.917 2.918 2.913 2.913 0 0 1-2.918-2.918zM25.106 30.4a2.922 2.922 0 0 1 2.918-2.918A2.922 2.922 0 0 1 30.94 30.4a2.922 2.922 0 0 1-2.917 2.918c-1.615.014-2.918-1.303-2.918-2.918zM.043 2.918a2.918 2.918 0 1 0 5.836 0 2.918 2.918 0 0 0-5.836 0z" fill="#0B315E"/>
</svg>
