<svg width="154" height="134" viewBox="0 0 154 134" fill="none" xmlns="http://www.w3.org/2000/svg">
    <path d="M91.72 44.285c-1.72 0-2.964 1.244-2.964 2.95 0 1.72 1.244 2.963 2.949 2.963 1.72 0 2.949-1.244 2.964-2.949 0-1.72-1.229-2.964-2.949-2.964zM121.301 44.286c-1.72-.031-3.01 1.182-3.041 2.887-.03 1.72 1.198 3.01 2.888 3.041 1.72.031 2.995-1.182 3.026-2.887.046-1.736-1.168-3.01-2.873-3.041zM150.776 44.285c-1.72-.015-2.979 1.229-2.995 2.934-.015 1.72 1.229 2.98 2.934 2.995 1.72.015 2.964-1.213 2.98-2.934.015-1.735-1.198-2.98-2.919-2.995zM17.902 64.974c1.72 0 2.964-1.229 2.964-2.95 0-1.72-1.228-2.964-2.948-2.964s-2.965 1.245-2.965 2.95c-.015 1.704 1.244 2.949 2.95 2.964zM47.378 64.976c1.72.015 2.98-1.198 3.01-2.919.016-1.735-1.198-2.995-2.902-3.01-1.72-.015-2.995 1.198-3.01 2.903-.032 1.72 1.212 2.995 2.902 3.026zM76.912 59.047c-1.705.015-2.949 1.275-2.933 2.995.015 1.705 1.29 2.949 2.995 2.934 1.72-.016 2.933-1.275 2.918-2.995 0-1.72-1.26-2.95-2.98-2.934zM106.585 59.044c-1.721-.046-3.026 1.152-3.088 2.842-.046 1.72 1.152 3.026 2.842 3.087 1.72.046 3.026-1.152 3.072-2.842.061-1.75-1.122-3.04-2.826-3.087zM136.046 59.047c-1.721-.015-2.995 1.213-3.011 2.903-.015 1.72 1.214 2.995 2.919 3.01 1.72.016 2.979-1.213 2.995-2.918.015-1.72-1.198-2.98-2.903-2.995zM32.677 79.733c1.72-.015 2.949-1.26 2.934-2.98 0-1.72-1.244-2.948-2.965-2.948-1.72 0-2.949 1.26-2.949 2.98.016 1.704 1.275 2.948 2.98 2.948zM59.234 76.555c-.093 1.736 1.075 3.072 2.749 3.18 1.72.092 3.072-1.076 3.164-2.75.092-1.735-1.06-3.072-2.734-3.164-1.751-.107-3.087 1.06-3.18 2.734zM91.825 73.806c-1.72-.046-3.026 1.137-3.072 2.841-.046 1.72 1.152 3.026 2.842 3.088 1.72.046 3.025-1.152 3.072-2.842.046-1.75-1.137-3.04-2.842-3.087zM121.177 73.805c-1.705.015-2.934 1.29-2.903 3.01.015 1.705 1.29 2.934 3.01 2.919 1.705-.031 2.919-1.29 2.903-3.01-.03-1.721-1.29-2.934-3.01-2.92zM47.424 94.495c1.72 0 2.949-1.228 2.964-2.949 0-1.72-1.229-2.964-2.95-2.964-1.72 0-2.963 1.244-2.963 2.949 0 1.705 1.244 2.964 2.949 2.964zM76.882 88.567c-1.705.03-2.934 1.306-2.903 3.026.03 1.705 1.306 2.933 3.026 2.903 1.705-.031 2.918-1.29 2.887-3.026-.015-1.72-1.274-2.934-3.01-2.903zM106.526 88.567c-1.72-.016-2.995 1.213-3.01 2.902-.016 1.72 1.213 2.996 2.918 3.01 1.72.016 2.98-1.197 2.995-2.917.015-1.72-1.198-2.98-2.903-2.995zM62.076 109.254c1.72.046 3.026-1.152 3.072-2.841.046-1.736-1.137-3.026-2.826-3.072-1.72-.046-3.026 1.152-3.087 2.842-.062 1.704 1.152 3.01 2.841 3.071zM91.78 103.327c-1.72-.031-3.01 1.182-3.041 2.887-.03 1.72 1.198 3.011 2.887 3.041 1.72.031 2.995-1.182 3.026-2.887.046-1.736-1.167-3.011-2.872-3.041zM76.898 118.087c-1.705.03-2.934 1.29-2.903 3.01.03 1.705 1.305 2.933 3.01 2.903 1.705-.031 2.918-1.29 2.903-3.011-.03-1.704-1.29-2.933-3.01-2.902zM47.44 5.933c1.72 0 2.948-1.245 2.948-2.98 0-1.72-1.244-2.95-2.964-2.95s-2.965 1.26-2.95 2.965c0 1.72 1.26 2.965 2.965 2.965zM79.893 3.17c.092-1.736-1.06-3.073-2.734-3.165-1.735-.092-3.072 1.075-3.164 2.75-.092 1.72 1.075 3.071 2.75 3.163 1.72.108 3.071-1.075 3.148-2.749zM106.526.004c-1.72-.015-2.995 1.213-3.01 2.903-.016 1.72 1.213 2.995 2.918 3.01 1.72.016 2.98-1.198 2.995-2.918.015-1.72-1.198-2.964-2.903-2.995zM32.726 20.695c1.705-.03 2.918-1.29 2.903-3.01-.016-1.705-1.275-2.934-3.01-2.903-1.706.03-2.934 1.29-2.904 3.01.016 1.69 1.29 2.918 3.01 2.903zM62.245 14.766c-1.72-.016-2.98 1.198-3.01 2.903-.016 1.72 1.197 2.995 2.902 3.01 1.72.015 2.98-1.198 3.01-2.918.016-1.705-1.197-2.964-2.902-2.995zM91.736 14.766c-1.72-.016-2.98 1.213-2.98 2.933-.015 1.72 1.229 2.98 2.934 2.995 1.72.016 2.964-1.228 2.98-2.933 0-1.736-1.214-2.98-2.934-2.995zM121.224 14.766c-1.72 0-2.949 1.244-2.949 2.964s1.26 2.964 2.965 2.949c1.72 0 2.949-1.244 2.949-2.98-.016-1.705-1.244-2.933-2.965-2.933zM17.871 35.454c1.72.015 2.964-1.213 2.98-2.933.015-1.72-1.214-2.98-2.918-2.995-1.72-.016-2.98 1.228-2.995 2.933 0 1.705 1.244 2.98 2.933 2.995zM47.393 35.454c1.72.015 2.964-1.213 2.98-2.933.015-1.72-1.214-2.98-2.919-2.995-1.72-.016-2.98 1.228-2.995 2.933 0 1.705 1.244 2.98 2.934 2.995zM77.067 29.525c-1.72-.046-3.026 1.152-3.087 2.841-.046 1.72 1.152 3.026 2.841 3.087 1.72.062 3.026-1.152 3.072-2.841.061-1.751-1.121-3.026-2.826-3.087zM106.48 29.525c-1.72 0-2.964 1.245-2.964 2.95 0 1.72 1.244 2.964 2.949 2.979 1.72 0 2.964-1.229 2.964-2.949 0-1.736-1.229-2.98-2.949-2.98zM136.015 29.526c-1.721-.016-2.98 1.228-2.995 2.933-.016 1.72 1.228 2.98 2.933 2.995 1.72.015 2.965-1.229 2.98-2.933.015-1.736-1.198-2.98-2.918-2.995zM3.127 50.214c1.72.016 2.964-1.228 2.98-2.933.015-1.72-1.214-2.98-2.918-2.98-1.72-.015-2.98 1.229-2.996 2.933-.015 1.69 1.23 2.965 2.934 2.98zM32.555 50.213c1.72.062 3.025-1.152 3.071-2.841.047-1.736-1.136-3.026-2.826-3.087-1.72-.047-3.025 1.151-3.087 2.84-.061 1.721 1.152 3.027 2.842 3.088zM62.23 44.285c-1.72-.015-2.996 1.214-3.011 2.919-.016 1.72 1.213 2.995 2.918 3.01 1.72.015 2.98-1.213 2.995-2.918.03-1.736-1.183-2.995-2.903-3.01z" fill="#fff"/>
</svg>
