<svg width="529" height="349" viewBox="0 0 529 349" fill="none" xmlns="http://www.w3.org/2000/svg">
    <path d="M306.663 244.586c-8.859 5.587-19.103 9.404-31.056 13.233-11.422 3.653-61.868 22.043-115.739 20.782-53.871-1.26-89.153-20.715-120.53-40.052C9.471 220.146-6.325 206.175 2.381 201.82c8.706-4.355 27.539-1.4 51.242 2.386 23.706 3.789 38.482 6.588 42.385 7.044 3.904.456 6.002-.068-4.346-4.145-10.347-4.078-25.048-12.895-35.691-20.434-10.644-7.539-19.154-15.975-22.076-19.476-2.922-3.504-.671-4.291 3.379-1.691 4.05 2.599 30.254 19.675 69.403 35.294 39.149 15.619 63.459 16.096 75.615 15.883 12.157-.214 22.847 1.606 24.189 7.25 1.256 5.274-6.876 10.491-12.735 17.709-5.852 7.208-4.175 11.738 7.639 12.087 11.818.352 41.983-1.086 66.182-3.882 24.198-2.792 27.877-3.465 39.095-5.259z" fill="#E40808"/>
    <path d="M479.109 77.065c-5.634 8.063-10.151 21.154-7.236 33.122 2.915 11.969 13.013 40.654 10.747 56.003-2.265 15.352-9.94 34.08-27.963 49.642-18.022 15.558-27.931 19.162-30.625 13.514-2.694-5.648 1.591-15.576 7.008-29.343 5.416-13.768 11.739-31.598 4.76-31.83-6.98-.231-17.334 2.917-33.102 11.706-15.764 8.788-76.464 38.3-103.089 47.306-26.622 9.002-18.287 1.559-9.502-4.527 8.784-6.086 20.049-15.405 14.65-17.367-5.398-1.962-17.705-1.375-40.969 1.463-23.264 2.835-53.272 1.147-84.175-9.721-30.903-10.869-64.34-32.88-77.678-50.657-13.337-17.778-17.523-32.984 6.334-30.249 23.856 2.735 36.901 13.789 63.908 17.478 27.007 3.69 37.661 5.385 46.81 7.489 9.152 2.101 39.146 19.896 93.617 22.211 54.47 2.315 88.927-6.969 101.302-11.933 12.377-4.964 22.675-14.109 27.938-26.449 5.267-12.335 4.835-31.017 9.948-41.547 5.113-10.53 14.272-15.22 27.317-6.31z" fill="#0571C1"/>
    <path d="M499.523 71.386c-7.496-4.522-14.554-2.575-19.51 1.033-7.946-8.287-24.756-8.825-34.672 7.603-10.986 18.2-8.599 42.174-21.815 55.105-11.582 11.331-57.35 24.924-116.167 18.543-63.566-6.902-114.907-37.788-126.603-47.132-11.697-9.344-22.305-16.317-27.814-22.417-5.509-6.1-9.334-5.655-5.859 6.314 3.476 11.969 14.751 28.311 26.597 37.505 11.846 9.195 27.738 21.706 76.946 32.592s72.169 9.106 98.883 6.275c26.715-2.832 64.205-14.067 75.17-25.495 10.964-11.427 20.623-26.071 26.946-44.389 6.08-17.617 9.93-24.223 21.78-19.846-5.713 8.575-9.77 15.494-5.745 39.731 4.025 24.237 13.305 46.373 5.627 71.953-7.679 25.579-20.456 44.681-57.539 63.007-37.084 18.325-52.409 34.714-59.631 54.122 10.369-14.138 22.84-27.221 40.852-34.123 18.011-6.901 47.288-18.614 69.671-40.265 22.382-21.652 28.166-48.136 27.984-70.112-.132-16.107-11.378-24.244-15.553-51.946-4.175-27.702 12.645-35.355 20.452-38.058z" fill="#C2E4FE"/>
    <path d="M381.355 140.65c-3.493-1.407-39.377-14.117-65.007-41.01-25.633-26.894-34.386-50.159-37.975-63.484-3.59-13.326-2.905-19.871.028-25.74s10.144-16.018 12.16-6.535 6.259 40.907 19.964 66.415c13.705 25.508 37.429 46.508 59.362 57.619 20.849 10.562 17.391 15.121 11.468 12.735zM303.044 116.481c4.193 2.542 9.598 6.481-1.202 2.706-10.801-3.775-36.142-23.065-45.287-31.808-9.145-8.739-17.537-19.283-19.332-25.309-1.795-6.022-.135-12.944 3.169-16.402 3.304-3.458 5.851.609 7.35 4.223 1.499 3.615 3.283 16.296 17.523 32.624 14.237 16.328 26.832 27.331 37.779 33.966zM336.334 142.218c-4.385-.192-22.847-.587-34.882-7.036-12.035-6.45-25.755-16.962-31.153-20.128-5.399-3.166-11.928-2.949-12.271 1.681-.342 4.629 5.466 10.053 14.258 15.142 8.792 5.089 25.102 12.442 42.097 13.026 16.995.584 22.622.702 24.759.025 2.141-.669 4.827-2.371-2.808-2.71zM84.736 84.724c-1.91-4.291-9.78-10.427-12.375-7.155-3.468 4.377 3.576 23.454 12.343 35.177 8.766 11.723 52.394 49.927 92.217 65.322 39.824 15.395 61.436 12.482 83.273 11.826-23.849-2.058-64.594-8.194-89.792-20.864-25.198-12.671-49.025-35.273-62.966-51.544-13.94-16.271-19.478-25.519-22.7-32.762zM283.466 255.165c-49.318 22.977-108.231 34.429-146.496 33.485-38.264-.943-59.188-10.622-67.059-16.865-7.871-6.243-11.46-19.34-5.16-16.851 6.302 2.489 38.697 17.2 92.268 18.386 53.572 1.182 87.044-7.585 126.447-18.155zM336.381 236.188c9.313-10.224 23.136-8.209 25.512-2.08 2.469 6.36.275 24.686-28.57 56.864-28.844 32.178-49.568 48.114-68.186 58.029 30.639-25.256 59.783-57.018 71.508-77.081 11.725-20.063 22.176-38.264-.264-35.732z" fill="#C2E4FE"/>
</svg>
