<svg width="100" height="81" viewBox="0 0 100 81" fill="none" xmlns="http://www.w3.org/2000/svg">
<path d="M59.6264 28.8506C58.5058 28.8506 57.6953 29.6611 57.6953 30.7717C57.6953 31.8924 58.5058 32.7028 59.6164 32.7028C60.7371 32.7028 61.5376 31.8924 61.5476 30.7817C61.5476 29.6611 60.7471 28.8506 59.6264 28.8506Z" fill="white"/>
<path d="M78.8975 28.851C77.7769 28.8309 76.9364 29.6214 76.9164 30.7321C76.8964 31.8527 77.6968 32.6932 78.7975 32.7132C79.9181 32.7332 80.7486 31.9428 80.7686 30.8321C80.7987 29.7015 80.0082 28.871 78.8975 28.851Z" fill="white"/>
<path d="M98.0997 28.8507C96.979 28.8407 96.1585 29.6511 96.1485 30.7618C96.1385 31.8825 96.949 32.7029 98.0596 32.7129C99.1803 32.723 99.9908 31.9225 100.001 30.8018C100.011 29.6712 99.2203 28.8607 98.0997 28.8507Z" fill="white"/>
<path d="M11.5365 42.3278C12.6571 42.3278 13.4676 41.5274 13.4676 40.4067C13.4676 39.2861 12.6671 38.4756 11.5465 38.4756C10.4258 38.4756 9.61532 39.2861 9.61532 40.3967C9.60532 41.5074 10.4258 42.3178 11.5365 42.3278Z" fill="white"/>
<path d="M30.7391 42.3282C31.8598 42.3382 32.6803 41.5477 32.7003 40.4271C32.7103 39.2964 31.9198 38.4759 30.8092 38.4659C29.6885 38.4559 28.858 39.2464 28.848 40.357C28.828 41.4777 29.6385 42.3082 30.7391 42.3282Z" fill="white"/>
<path d="M49.9796 38.4659C48.8689 38.4759 48.0584 39.2964 48.0685 40.4171C48.0785 41.5277 48.9089 42.3382 50.0196 42.3282C51.1403 42.3182 51.9307 41.4977 51.9207 40.377C51.9207 39.2564 51.1002 38.4559 49.9796 38.4659Z" fill="white"/>
<path d="M69.3089 38.4657C68.1882 38.4357 67.3377 39.2161 67.2977 40.3168C67.2677 41.4374 68.0482 42.2879 69.1488 42.328C70.2695 42.358 71.12 41.5775 71.15 40.4769C71.19 39.3362 70.4195 38.4957 69.3089 38.4657Z" fill="white"/>
<path d="M88.5023 38.4659C87.3816 38.4559 86.5511 39.2564 86.5411 40.357C86.5311 41.4777 87.3316 42.3082 88.4422 42.3182C89.5629 42.3282 90.3834 41.5277 90.3934 40.4171C90.4034 39.2964 89.6129 38.4759 88.5023 38.4659Z" fill="white"/>
<path d="M21.1618 51.9433C22.2825 51.9333 23.083 51.1228 23.073 50.0022C23.073 48.8815 22.2625 48.0811 21.1418 48.0811C20.0212 48.0811 19.2207 48.9015 19.2207 50.0222C19.2307 51.1329 20.0512 51.9433 21.1618 51.9433Z" fill="white"/>
<path d="M38.4623 49.8724C38.4023 51.0031 39.1627 51.8736 40.2534 51.9436C41.374 52.0037 42.2545 51.2432 42.3146 50.1526C42.3746 49.0219 41.6242 48.1514 40.5335 48.0914C39.3929 48.0213 38.5223 48.7818 38.4623 49.8724Z" fill="white"/>
<path d="M59.6934 48.0809C58.5728 48.0509 57.7223 48.8214 57.6922 49.932C57.6622 51.0527 58.4427 51.9032 59.5433 51.9432C60.664 51.9732 61.5145 51.1928 61.5445 50.0921C61.5745 48.9514 60.8041 48.1109 59.6934 48.0809Z" fill="white"/>
<path d="M78.8153 48.0811C77.7047 48.0912 76.9042 48.9216 76.9242 50.0423C76.9342 51.153 77.7647 51.9534 78.8853 51.9434C79.996 51.9234 80.7865 51.1029 80.7765 49.9823C80.7564 48.8616 79.936 48.0711 78.8153 48.0811Z" fill="white"/>
<path d="M30.7688 61.5593C31.8894 61.5593 32.6899 60.7588 32.6999 59.6382C32.6999 58.5175 31.8995 57.707 30.7788 57.707C29.6581 57.707 28.8477 58.5175 28.8477 59.6282C28.8477 60.7388 29.6581 61.5593 30.7688 61.5593Z" fill="white"/>
<path d="M49.9598 57.6976C48.8492 57.7176 48.0487 58.5481 48.0687 59.6688C48.0887 60.7794 48.9192 61.5799 50.0399 61.5599C51.1505 61.5399 51.941 60.7194 51.921 59.5887C51.911 58.4681 51.0905 57.6776 49.9598 57.6976Z" fill="white"/>
<path d="M69.2718 57.6974C68.1511 57.6874 67.3206 58.4878 67.3106 59.5885C67.3006 60.7091 68.1011 61.5396 69.2118 61.5496C70.3324 61.5596 71.1529 60.7692 71.1629 59.6485C71.1729 58.5278 70.3824 57.7074 69.2718 57.6974Z" fill="white"/>
<path d="M40.3135 71.1754C41.4341 71.2054 42.2846 70.4249 42.3147 69.3243C42.3447 68.1936 41.5742 67.3531 40.4736 67.3231C39.3529 67.2931 38.5024 68.0735 38.4624 69.1742C38.4224 70.2848 39.2128 71.1353 40.3135 71.1754Z" fill="white"/>
<path d="M59.6651 67.3129C58.5445 67.2929 57.704 68.0833 57.684 69.194C57.6639 70.3146 58.4644 71.1551 59.5651 71.1751C60.6857 71.1952 61.5162 70.4047 61.5362 69.294C61.5662 68.1634 60.7758 67.3329 59.6651 67.3129Z" fill="white"/>
<path d="M49.9696 76.9281C48.859 76.9481 48.0585 77.7686 48.0785 78.8893C48.0985 79.9999 48.929 80.8004 50.0396 80.7804C51.1503 80.7604 51.9408 79.9399 51.9308 78.8192C51.9107 77.7086 51.0903 76.9081 49.9696 76.9281Z" fill="white"/>
<path d="M30.7789 3.8652C31.8995 3.8652 32.7 3.05472 32.7 1.92406C32.7 0.8034 31.8895 0.00292969 30.7689 0.00292969C29.6482 0.00292969 28.8377 0.823412 28.8477 1.93406C28.8477 3.05472 29.6682 3.8652 30.7789 3.8652Z" fill="white"/>
<path d="M51.9217 2.06453C51.9818 0.933867 51.2313 0.0633543 50.1407 0.00331903C49.01 -0.0567162 48.1395 0.703732 48.0795 1.79437C48.0195 2.91503 48.7799 3.79555 49.8705 3.85558C50.9912 3.92562 51.8717 3.15517 51.9217 2.06453Z" fill="white"/>
<path d="M69.2718 0.00302245C68.1511 -0.00698342 67.3206 0.793488 67.3106 1.89413C67.3006 3.01479 68.1011 3.84528 69.2118 3.85529C70.3324 3.86529 71.1529 3.07483 71.1629 1.95417C71.1729 0.833511 70.3824 0.0230342 69.2718 0.00302245Z" fill="white"/>
<path d="M21.1939 13.4815C22.3046 13.4615 23.0951 12.641 23.0851 11.5204C23.075 10.4097 22.2546 9.60926 21.1239 9.62927C20.0132 9.64929 19.2128 10.4698 19.2328 11.5904C19.2428 12.6911 20.0733 13.4915 21.1939 13.4815Z" fill="white"/>
<path d="M40.4241 9.61923C39.3035 9.60923 38.483 10.3997 38.463 11.5103C38.453 12.631 39.2434 13.4615 40.3541 13.4715C41.4748 13.4815 42.2952 12.691 42.3152 11.5704C42.3253 10.4597 41.5348 9.63925 40.4241 9.61923Z" fill="white"/>
<path d="M59.6365 9.61923C58.5159 9.60923 57.6954 10.4097 57.6954 11.5304C57.6854 12.651 58.4959 13.4715 59.6065 13.4815C60.7272 13.4915 61.5377 12.681 61.5477 11.5704C61.5477 10.4397 60.7572 9.62924 59.6365 9.61923Z" fill="white"/>
<path d="M78.8468 9.61914C77.7261 9.61914 76.9257 10.4296 76.9257 11.5503C76.9257 12.6709 77.7461 13.4814 78.8568 13.4714C79.9774 13.4714 80.7779 12.6609 80.7779 11.5303C80.7679 10.4196 79.9674 9.61914 78.8468 9.61914Z" fill="white"/>
<path d="M11.5166 23.0967C12.6373 23.1067 13.4477 22.3063 13.4577 21.1856C13.4677 20.065 12.6673 19.2445 11.5566 19.2345C10.436 19.2245 9.61547 20.0349 9.60547 21.1456C9.60547 22.2562 10.4159 23.0867 11.5166 23.0967Z" fill="white"/>
<path d="M30.749 23.0967C31.8697 23.1067 32.6802 22.3063 32.6902 21.1856C32.7002 20.065 31.8997 19.2445 30.789 19.2345C29.6684 19.2245 28.8479 20.0349 28.8379 21.1456C28.8379 22.2562 29.6484 23.0867 30.749 23.0967Z" fill="white"/>
<path d="M50.0804 19.2352C48.9597 19.2052 48.1092 19.9857 48.0692 21.0863C48.0392 22.207 48.8196 23.0575 49.9203 23.0975C51.0409 23.1375 51.8914 22.347 51.9215 21.2464C51.9615 20.1057 51.191 19.2752 50.0804 19.2352Z" fill="white"/>
<path d="M69.2417 19.2344C68.121 19.2344 67.3105 20.0448 67.3105 21.1555C67.3105 22.2762 68.121 23.0866 69.2317 23.0966C70.3523 23.0966 71.1628 22.2962 71.1628 21.1755C71.1628 20.0448 70.3623 19.2344 69.2417 19.2344Z" fill="white"/>
<path d="M88.4825 19.2345C87.3618 19.2245 86.5413 20.0349 86.5313 21.1456C86.5213 22.2662 87.3318 23.0867 88.4425 23.0967C89.5631 23.1067 90.3736 22.2963 90.3836 21.1856C90.3936 20.0549 89.6031 19.2445 88.4825 19.2345Z" fill="white"/>
<path d="M1.91121 32.7127C3.03187 32.7227 3.84235 31.9122 3.85235 30.8016C3.86236 29.6809 3.06189 28.8604 1.95124 28.8604C0.830579 28.8504 0.0100975 29.6609 9.16355e-05 30.7716C-0.00991424 31.8722 0.800562 32.7027 1.91121 32.7127Z" fill="white"/>
<path d="M21.083 32.7117C22.2037 32.7518 23.0542 31.9613 23.0842 30.8606C23.1142 29.73 22.3437 28.8895 21.2431 28.8495C20.1224 28.8195 19.2719 29.5999 19.2319 30.7006C19.1919 31.8212 19.9824 32.6717 21.083 32.7117Z" fill="white"/>
<path d="M40.4144 28.8507C39.2937 28.8407 38.4632 29.6411 38.4532 30.7518C38.4432 31.8725 39.2437 32.7029 40.3543 32.7129C41.475 32.723 42.2955 31.9225 42.3055 30.8118C42.3255 29.6812 41.535 28.8607 40.4144 28.8507Z" fill="white"/>
</svg>
