<svg width="68" height="68" viewBox="0 0 68 68" fill="none" xmlns="http://www.w3.org/2000/svg">
    <mask id="6ret1ifxra" style="mask-type:alpha" maskUnits="userSpaceOnUse" x="0" y="0" width="68" height="68">
        <circle cx="34" cy="34" r="34" fill="#C4C4C4"/>
    </mask>
    <g mask="url(#6ret1ifxra)">
        <path fill="#fff" d="M-5-4h76v74H-5z"/>
        <path d="M63.707 30.817c-.024-.068-.046-.14-.071-.208a3.8 3.8 0 0 0-.072-.202c-.025-.067-.045-.134-.071-.2a4.263 4.263 0 0 0-.071-.195 2.953 2.953 0 0 0-.072-.19c-.025-.063-.045-.126-.071-.184-.026-.06-.046-.122-.071-.182a7.26 7.26 0 0 0-.1-.252l-.023-.052-.024-.067c-.022-.048-.042-.1-.06-.147-.005-.008-.007-.02-.013-.028a29.19 29.19 0 0 0-.25-.59c-.017-.047-.04-.096-.06-.143-.03-.065-.06-.135-.092-.201l-.13-.286c-.053-.113-.11-.225-.163-.339a27.874 27.874 0 0 0-3.645-5.567c-.214.23-.488.416-.784.518a27.098 27.098 0 0 1 3.089 4.53v.004s1.814 8.644 1.847 12.36v.066c-.006.357-.03.71-.075 1.051l-.031.249c0 .002 0 .002-.004.005-.748 2.013-2.518 5.88-4.39 7.531-1.817-.754-5.98-2.51-7.022-2.95-.005-.035-.967.088-.958.15-2.048 1.907-7.154 6.433-9.075 7.126h-.002c-6.406-.212-11.452-3.156-11.503-3.188l-.01-.006c-.365-1.103-1.11-4.099-1.738-6.707-.16.028-.322.078-.483.055-1.946-.289-2.672-.332-5.225-1.409-.384-.162-.344-.682-.412-1.031-.698-.023-1.397-.052-2.097-.077-.997-.035-2.014.007-2.987-.232-1.236-.303-2.295-1.156-2.8-2.23-1.027 1.47-2.319 3.797-3.109 7l-4.71.088h-.004L4.81 42.9a25.174 25.174 0 0 1-.338-4.105c0-.736.037-1.464.099-2.183a1.675 1.675 0 0 1-.915-.646 25.856 25.856 0 0 0-.155 2.828c0 9.374 5.062 17.689 12.825 22.785.013.01.024.015.037.025a32.632 32.632 0 0 0 2.586 1.524c.11.055.216.111.324.167a45.44 45.44 0 0 0 .662.32l.435.202c.051.025.103.047.154.068.058.027.113.054.172.079l.27.12c.128.057.258.114.39.163.099.042.195.086.296.122.21.085.428.17.65.256.144.055.286.112.433.163.186.069.378.137.574.207l.4.135c.1.034.2.065.299.099.243.08.488.155.737.228.073.022.148.044.22.067.17.052.34.1.511.147.073.022.146.038.22.06l.387.102c.13.037.26.067.393.1.16.04.324.078.487.113.14.032.278.062.417.09.071.016.137.032.207.044.186.04.376.078.565.113.135.027.27.052.41.076.096.015.193.033.292.048l.122.02a10.478 10.478 0 0 0 .326.05c.09.015.18.027.267.04a33.586 33.586 0 0 0 4.676.324h.059c16.322-.027 29.722-11.622 30.627-26.454v-.014c.468-3.398-.334-6.935-1.225-9.566zm-46.789 30.06h-.005c-4.795-3.145-8.528-7.554-10.607-12.69l.51-2.625 4.07-.075c1.007 1.814 3.797 6.27 8.172 8.8-.146 2.45 1.064 4.949 1.887 6.514v.004l-4.027.072zm17.01 3.444-.122-.01-.26-.02c-.134-.01-.274-.022-.417-.035-.106-.008-.216-.02-.33-.028l-.39-.039a12.492 12.492 0 0 0-.286-.032c-.15-.015-.303-.033-.463-.053a30.963 30.963 0 0 1-1.314-.199c-.116-.02-.231-.04-.348-.065a7.905 7.905 0 0 1-.353-.071 7.961 7.961 0 0 1-.364-.077c-.122-.027-.245-.054-.37-.085a22.398 22.398 0 0 1-1.56-.424c-.135-.039-.272-.084-.41-.129-.089-.028-.176-.056-.266-.088-.09-.029-.18-.06-.269-.094-.1-.033-.201-.07-.307-.108l-.086-.032-.042-.015a23.228 23.228 0 0 1-.74-.288l-.191-.079c-.024-.012-.051-.022-.077-.033-.075-.032-.153-.062-.228-.095a18.667 18.667 0 0 1-.706-.316 28.713 28.713 0 0 1-.324-.15c-.022-.012-.046-.022-.068-.033-.003 0-.003-.004-.005-.004l-.163-.08a3.856 3.856 0 0 1-.165-.083 23.044 23.044 0 0 1-.755-.39c-.12-.064-.241-.13-.364-.198a1.311 1.311 0 0 1-.095-.052v-.001l-.053-.099c-.764-1.435-2.145-4.03-2.006-6.471l3.394-1.62.02-.007c2.394-1.02 5.167-2.238 6.006-2.606 1.08.595 5.659 2.928 11.498 3.188.583 2.01 1.679 6.365 1.924 7.348-.554.637-3.115 3.184-8.945 3.673zm.426 1.639.052-.791c6.022-.606 8.66-3.295 9.263-4.005 1.353-.184 8.663-1.254 11.218-3.245l.19.297c-5.352 4.782-12.667 7.717-20.723 7.744zm21.429-8.398-.245-.385c.047-.087.1-.172.15-.264.936-1.65 2.34-4.134 3.154-8.057 2.467-2.05 4.457-7.166 4.786-8.044h.293c-.521 6.505-3.526 12.34-8.138 16.75z" fill="url(#wykknid0ub)"/>
        <path d="M34.48 2.343h-1.07C22.651 2.52 13.205 7.725 7.763 15.472a.463.463 0 0 0-.26.383c-2.868 4.23-4.535 9.18-4.618 14.49-.03.073-.064.146-.064.234 0 .09.017.164.048.222.05 15.435 13.674 28.017 30.54 28.312v1.272c0 .295.21.487.535.487.324 0 .534-.192.534-.487v-1.272c16.93-.237 30.637-12.877 30.637-28.385 0-15.509-13.707-28.148-30.637-28.385zM29.36 3.82c-.78.521-1.534 1.17-2.253 1.936-2.154 2.295-3.988 5.63-5.314 9.654h-7.58C16.892 10.85 20.73 7.257 25.24 5.21c1.32-.6 2.698-1.068 4.12-1.389zm-9.866 26.286h-9.35c.098-5.011 1.378-9.697 3.516-13.72h7.825c-1.214 4.037-1.944 8.724-1.991 13.72zm.015.961c.032 4.982.713 9.654 1.896 13.72h-7.859c-2.104-4.037-3.337-8.723-3.385-13.72h9.348zm-1.95-23.292a31.396 31.396 0 0 1 5.66-2.653c-4.18 2.291-7.712 5.87-10.19 10.288H9.075c2.239-3.028 5.13-5.629 8.484-7.635zm-9.164 8.612h4.115c-2.089 4.036-3.305 8.723-3.402 13.72H3.956c.114-5.027 1.717-9.713 4.439-13.72zM3.94 31.068H9.09c.05 4.982 1.231 9.654 3.258 13.72H8.184C5.56 40.75 4.006 36.065 3.94 31.068zM8.865 45.75h4.001c2.495 4.553 6.092 8.234 10.353 10.584-5.912-2.085-10.92-5.825-14.354-10.584zm5.2 0h7.63c1.75 5.499 4.456 9.756 7.649 11.87-6.352-1.463-11.81-5.839-15.278-11.87zM33.41 58.122c-4.438-.4-8.326-5.219-10.643-12.373h10.643v12.373zm0-13.334H22.475c-1.183-4.022-1.88-8.708-1.913-13.72h12.847v13.72zm0-14.68H20.562c.05-5.012.777-9.698 1.977-13.72h10.87v13.72zm0-14.697H22.846c1.331-4.02 3.168-7.287 5.326-9.412 1.594-1.572 3.365-2.516 5.237-2.68v12.092zm30.637 14.681h-5.152c-.097-4.996-1.328-9.668-3.401-13.72h4.114c2.705 4.023 4.31 8.709 4.439 13.72zm-15.552.961h9.347c-.048 5.012-1.28 9.698-3.386 13.72h-7.874c1.183-4.05 1.88-8.738 1.913-13.72zm-.017-.96c-.05-4.997-.777-9.669-1.993-13.72h7.809c2.154 4.021 3.434 8.708 3.531 13.72h-9.347zM58.911 15.41h-3.954c-2.478-4.419-6.01-7.997-10.19-10.288 5.784 2.04 10.725 5.662 14.144 10.288zM42.458 5.09c4.624 2.029 8.563 5.665 11.3 10.321h-7.565c-1.353-4.11-3.239-7.501-5.456-9.8a12.73 12.73 0 0 0-2.11-1.79c1.319.302 2.599.73 3.831 1.269zm-7.995-1.771c1.847.135 3.6 1.038 5.19 2.557 2.213 2.116 4.102 5.43 5.47 9.535h-10.66V3.32zm0 13.054H45.43c1.216 4.006 1.93 8.693 1.994 13.72H34.463v-13.72zm0 28.4v-13.72h12.96c-.032 5.012-.729 9.698-1.91 13.72h-11.05zm.016.976H45.22c-2.332 7.214-6.27 12.062-10.74 12.388V45.749zm11.81 0h7.647c-3.45 6.046-8.926 10.422-15.294 11.885 3.176-2.129 5.881-6.371 7.648-11.885zm-1.587 10.599c4.278-2.335 7.89-6.046 10.4-10.599h4.019c-3.451 4.774-8.473 8.53-14.419 10.599zm15.1-11.56h-4.165c2.026-4.066 3.208-8.738 3.257-13.72h5.152c-.064 5.012-1.604 9.698-4.245 13.72z" fill="url(#a6lszps7sc)"/>
        <path d="M41.18 4.578c-2.379.691-4.771.938-7.383.848-2.505-.007-4.8-.239-7.14-.801-.265.087-1.179.467-1.417.586 2.658.72 5.227 1.07 8.128 1.11h1.07c2.913-.049 5.587-.431 8.255-1.169-.342-.113-1.247-.482-1.513-.574z" fill="url(#h9fpjgk7wd)"/>
        <path d="M36.754 38.18s-15.95 8.692-30.048.749c-12.7-7.158-7.255-6.715.252-5.449 9.042 1.526 1.855.48-2.798-3.963-4.63-4.426 6.617 5.005 16.116 5.153 13.056.204-12.109 7.46 16.478 3.51z" fill="#ED1C24"/>
        <path d="M58.675 17.778s-1.489-.796-1 2.716c.486 3.513 1.292 5.91.224 9.631s-8.782 9.77-6.529 4.149c2.253-5.618 2.427-6.971-3.13-3.973-5.558 2.997-18.525 8.729-13.402 5.024 5.12-3.705-2.05-1.38-7.826-1.761-12.995-.856-23.147-14.482-11.774-10.324 11.344 4.149 3.39-2.142 3.46-3.121.066-.98 9.44 6.842 14.547 7.875 5.108 1.03 10.378.558 15.453-.92 4.905-1.43 4.786-4.634 5.642-7.612.853-2.979 1.44-1.985 4.335-1.684z" fill="#0072BC"/>
        <path d="M50.316 25.817s-6.62 4.549-17.907 2.522c-8.919-1.6-11.5-3.827-12.825-5.249-1.917-2.049-2.173-3.024-2.53-4.088-.36-1.066.286-.752.286-.752s4.989 4.44 9.1 6c4.11 1.56 7.75 3.092 13.268 3.055 5.516-.039 8.314-.846 9.947-1.59 1.635-.743.66.102.66.102z" fill="#000"/>
        <path d="M47.971 26.383s3.215-.615 4.038-3.155c.594-1.834.565-2.722 1.216-4.33.653-1.61 1.758-2.485 2.87-2.384 1.108.1 1.722.609 1.722.609s.673-.364 1.251-.396c.578-.034 1.178.205 1.178.205s-.916.215-1.573.847c-.656.633-.614.787-.878 1.732-.885 3.17 1.816 6.327 1.796 8.717-.023 2.93-1.123 5.856-3.145 7.99-2.175 2.292-6.816 4.472-9.144 5.31-2.328.835-4.614 4.164-4.614 4.164s.892-2.68 3.935-4.78c2.202-1.517 6.663-3.031 8.736-5.968 2.078-2.938 2.414-6.755 1.66-9.425-.752-2.669-1.089-6.124-.612-6.803.48-.678.686-1.069.686-1.069s-1.61-.667-2.149.88c-.541 1.549-1.176 3.188-2.068 4.65-1.384 2.263-3.537 3.725-6.397 4.427-1.946.479-2.157.145-2.157.145l3.649-1.366z" fill="#000"/>
        <path d="M45.083 25.104s-6.478-2.24-9.817-8.13c-3.342-5.888-2.349-6.704-2.349-6.704s1.494-3.88 1.878-.592c.388 3.288 1.676 6.824 3.375 9.088 2.116 2.819 4.879 4.497 6.684 5.482 1.805.985 1.858 1.795.229.856zM28.492 16.433s1.34 2.283 4.745 4.644c3.406 2.358 3.603 1.832 3.603 1.832s-2.966-1.649-4.925-4.088c-1.168-1.458-1.876-2.067-2.434-4.178-.476-1.8-2.154-.1-.99 1.79zM32.498 22.729s1.87 1.241 3.337 1.948c2.877 1.384 3.928.957 4.757 1.03.825.075-.693.684-4.27-.005-2.296-.439-3.426-.926-4.91-2.106-1.486-1.175-.218-2.22 1.086-.867zM6.838 39.352s4.796 2.303 12.263 2.296c9.127-.01 14.722-2.24 14.722-2.24S22.6 44.42 13.718 43.378c-5.135-.606-7.624-2.609-6.88-4.026z" fill="#000"/>
        <path d="m40.297 37.101 1.05-.67c.614-.175 1.752-.34 2.167.622.303.71-1.003 3.782-3.27 6.377-2.268 2.592-4.426 4.503-5.854 5.65-1.429 1.144-2.831 1.9-2.831 1.9s6.412-5.826 7.776-7.935c1.631-2.512 4.374-6.28.962-5.944z" fill="#676767"/>
        <path d="M8.048 18.694s.216 2.504 3.58 5.55c3.362 3.046 9.238 6.48 13.832 6.99 4.593.508 5.61.207 5.61.207s-9.896-.008-15.6-5.532c-5.705-5.522-5.046-5.753-5.919-7.154-.868-1.403-2.002-1.29-1.503-.06z" fill="#000"/>
    </g>
    <defs>
        <linearGradient id="wykknid0ub" x1="31.818" y1="26.103" x2="38.338" y2="66.628" gradientUnits="userSpaceOnUse">
            <stop offset=".341" stop-color="#fff" stop-opacity="0"/>
            <stop offset=".378" stop-color="#F7F7F7" stop-opacity=".088"/>
            <stop offset=".437" stop-color="#E0E1E1" stop-opacity=".225"/>
            <stop offset=".51" stop-color="#BCBCBE" stop-opacity=".396"/>
            <stop offset=".594" stop-color="#898A8C" stop-opacity=".592"/>
            <stop offset=".686" stop-color="#484B4E" stop-opacity=".808"/>
            <stop offset=".768" stop-color="#090C10"/>
        </linearGradient>
        <linearGradient id="a6lszps7sc" x1="33.969" y1="60.872" x2="33.969" y2="2.343" gradientUnits="userSpaceOnUse">
            <stop offset=".534" stop-color="#fff" stop-opacity="0"/>
            <stop offset="1" stop-color="#0091BD"/>
        </linearGradient>
        <linearGradient id="h9fpjgk7wd" x1="33.966" y1="-50.344" x2="33.966" y2="6.321" gradientUnits="userSpaceOnUse">
            <stop offset=".534" stop-color="#fff" stop-opacity="0"/>
            <stop offset="1" stop-color="#0091BD"/>
        </linearGradient>
    </defs>
</svg>
