<svg width="239" height="509" viewBox="0 0 239 509" fill="none" xmlns="http://www.w3.org/2000/svg">
<path fill-rule="evenodd" clip-rule="evenodd" d="M27.8262 64.6531C27.8199 64.3493 27.6388 63.9811 27.3378 64.0225C27.0297 64.0649 26.7636 64.2719 26.6152 64.5451C25.4999 66.5978 21.5555 74.1444 19.4966 78.2835C18.9186 79.4456 19.0337 79.4799 20.0211 78.6375C20.1024 78.5682 20.1734 78.5123 20.2514 78.4394C21.1947 77.5578 20.2701 79.1496 21.5721 76.6313C21.9578 75.9634 22.5774 75.4423 22.8462 74.7194C22.9984 74.3102 23.1491 73.8998 23.3272 73.5915C23.8172 72.7427 23.9241 71.9885 24.4141 71.1397C24.9042 70.2909 25.4683 69.3138 25.89 68.5835C26.38 67.7347 26.8258 66.6893 27.1734 66.0873C27.6449 65.2707 27.8398 65.3147 27.8262 64.6531ZM7.46871 72.7175C7.56084 72.5579 7.55577 72.3601 7.45557 72.2055C7.34816 72.0397 7.35155 71.8262 7.45793 71.6598C7.78477 71.1483 7.97537 70.7563 8.16154 70.4486C8.69651 69.5644 9.65581 68.8706 10.1937 67.9882C10.3175 67.7852 10.4552 67.4343 10.6131 66.7248C11.1666 65.1229 9.57686 64.7285 8.85707 66.2629C8.78592 66.4146 8.7215 66.5631 8.66516 66.7046C8.48159 67.1658 8.31988 67.6395 8.08531 68.0769L6.75696 70.5539C6.5152 71.0048 6.55823 71.5073 6.58444 72.0182C6.65118 73.0624 6.55106 73.4676 6.65429 73.7739C6.72661 73.9884 7.06874 73.871 7.01492 73.6511C6.99542 73.5714 7.00964 73.5126 7.05066 73.4416L7.46871 72.7175ZM23.6237 26.405C24.1106 26.0078 24.3656 25.3448 24.7391 24.8394C24.9325 24.5777 25.1233 24.355 25.3338 23.836C26.1771 22.3753 25.2298 23.4469 26.6172 21.3397C27.2996 20.4309 27.6215 19.3271 28.0575 18.2761C28.3367 17.7925 28.3866 17.9792 28.7399 17.3673L31.3141 13.1818C31.4143 13.0083 31.5235 12.684 31.6291 12.421C31.7068 12.2273 31.7875 12.0681 31.853 11.8699C32.3724 10.2982 33.5663 11.4167 33.0876 13.0013C32.5853 14.6642 31.8615 16.2871 31.3556 17.8905C31.0299 18.9347 29.1014 23.5488 28.5216 25.2678C28.4321 25.5331 28.5536 25.609 28.6687 25.3536C28.6907 25.3047 28.7334 25.2568 28.7769 25.2254C29.0261 25.0456 29.3214 24.7828 29.4468 24.5657C29.6576 24.2005 29.2004 24.4234 29.6077 24.0138C30.216 23.2333 29.9225 24.0376 30.9083 22.3302L33.5252 17.5245C33.7575 16.9129 34.0993 16.2719 34.3561 15.5601C34.5079 15.1393 34.8828 14.8593 35.1614 14.5093C35.5672 13.9996 36.438 13.3654 36.2498 13.9891C36.1908 14.1845 36.0752 14.4537 36.0203 14.8255C36.0125 14.8786 36.0022 14.9314 35.9874 14.983C35.9331 15.173 35.8698 15.4053 35.7943 15.6565C35.6197 16.2372 35.8094 16.3803 36.2116 15.9265C36.2506 15.8825 36.2873 15.8343 36.3208 15.786C36.4319 15.6257 36.5963 15.4694 36.7593 15.313C37.0949 14.9909 37.3936 14.6268 37.6728 14.2549C38.2355 13.5055 38.6545 12.6377 39.1536 12.0099C39.8361 11.1011 40.591 10.0894 41.2734 9.18059C42.8371 6.71902 44.4904 8.00367 44.7859 9.11352C44.8448 9.33492 44.7548 9.54689 44.6879 9.76601C44.6417 9.91727 44.6638 10.0913 44.649 10.2488L44.5133 11.6959C44.039 15.3173 40.4777 22.3281 39.9749 24.3144C39.6341 25.6141 38.7799 27.2056 38.318 28.5265C38.1839 28.9103 38.4377 29.3347 38.7998 29.1497C39.8393 28.7852 41.6157 28.3681 42.9531 28.5398C43.2262 28.5748 43.2488 28.8008 42.9745 28.7765C42.9387 28.7733 42.8907 28.7763 42.856 28.7857L41.7573 29.0808C41.4999 29.1499 41.2562 29.2692 40.9989 29.3387C40.9445 29.3534 40.885 29.3701 40.8155 29.3947C40.6216 29.4633 40.4325 29.5476 40.2311 29.5889C40.0261 29.6309 39.8176 29.6631 39.6121 29.6934C38.3646 29.8776 38.622 30.3243 39.8818 30.3798C40.1311 30.3907 40.3951 30.4462 40.6768 30.5761C40.9435 30.6992 41.0116 31.0312 41.1921 31.2629C41.3349 31.446 41.6034 31.483 41.9016 31.5011C42.2547 31.5225 42.3401 31.891 42.0546 32.1C41.8294 32.2649 41.8145 32.5953 42.0291 32.7739C42.5355 33.1951 42.5001 33.1484 42.5031 33.8192C42.5042 34.0812 42.649 34.3198 42.8759 34.4508L42.9942 34.5191L43.1124 34.5874C42.8198 35.3577 41.728 34.9075 42.7093 36.0643C42.7856 36.1542 42.8599 36.2475 42.9175 36.3505C43.188 36.8345 43.3618 37.4613 43.4005 37.913C43.4051 37.9669 43.395 38.0456 43.3832 38.0985C43.2897 38.5158 43.7599 38.4969 43.9737 38.1266C44.1923 37.7479 44.3982 37.3912 44.6584 36.9407C44.8692 36.5755 45.0801 36.2103 45.2909 35.8451C45.3422 35.7562 45.4352 35.5951 45.5074 35.4702C45.5475 35.4006 45.5585 35.3179 45.5377 35.2403C45.4972 35.0887 45.5821 34.9344 45.7145 34.8502C46.5102 34.3444 46.6089 33.0429 47.536 31.9565C48.905 30.1545 48.9378 29.5286 49.9849 28.8303C50.1175 28.7396 50.2335 28.6835 50.3498 28.6268C50.5916 28.5089 50.8155 28.3027 50.9701 28.0826C51.5132 27.3094 52.1443 26.5363 52.5266 25.6722C52.793 25.0701 53.11 24.4235 53.3803 24.0059C53.49 23.8365 53.6001 23.6677 53.7643 23.5503C54.0852 23.3211 54.4004 23.0469 54.5609 22.6866C54.5707 22.6646 54.5803 22.6424 54.5898 22.62C54.7122 22.3328 54.8954 22.0789 55.107 21.8493L55.228 21.7181C55.5201 21.4013 55.7799 21.0548 55.9735 20.6698C56.1592 20.3004 56.2478 20.12 56.7659 19.6122C57.2053 19.2158 57.5345 18.7584 57.9739 18.3621C58.4455 17.8184 58.2887 18.3859 59.2504 16.9935C60.3729 15.0492 60.1792 16.227 60.8801 15.013L61.2306 14.2726C61.4608 13.7863 62.2259 13.5158 62.1533 14.0488C62.1006 14.4362 62.4087 14.8072 62.7775 14.9369C63.6583 15.2465 63.391 15.7859 62.9517 17.0249C62.8591 17.4584 62.7167 17.7051 62.634 18.1443C62.6315 18.156 62.6288 18.1677 62.626 18.1792C62.4282 18.9822 61.9848 19.7071 61.6672 20.4707C61.3333 21.2737 60.9464 22.0501 60.6556 22.8697C60.5356 23.2081 60.4141 23.5485 60.275 23.9148L58.3262 28.1324C58.2562 28.2537 58.2112 28.3488 58.1806 28.4323C57.9887 28.955 57.8442 29.4842 57.6144 29.9914C57.4565 30.3401 57.3486 30.711 57.2241 31.073C57.0501 31.5795 56.9948 31.8499 56.6182 32.5022C56.4074 32.8674 56.4758 32.7489 56.2649 33.1141L45.8728 53.3674C45.5936 53.851 45.3586 54.5312 45.2219 54.7681C44.7318 55.6169 44.4526 56.1005 44.0309 56.8308L40.6989 63.1712C40.253 64.2166 38.6831 66.3895 38.5037 67.2466C38.3284 68.1192 33.2201 76.6713 33.0092 77.0364C32.2584 78.0637 29.398 83.8604 28.4122 85.5679C27.3822 87.0787 26.7255 88.4893 25.9063 89.635C25.063 91.0957 23.8905 92.8533 23.1213 94.1856C22.9104 94.5508 22.7495 95.1027 22.4703 95.5863L21.7694 96.8003C20.6936 98.6637 19.4303 100.421 18.2219 102.202L14.5839 107.561C12.618 110.966 10.5196 112.347 8.97818 116.155C8.67479 116.954 7.85563 118.1 7.62063 118.78C6.74451 120.866 5.55358 122.929 4.42533 124.883C3.44523 126.581 2.30555 127.713 1.1331 129.47C-0.163428 131.716 -2.17247 133.861 -3.84369 135.908C-3.9383 136.024 -4.02119 136.148 -4.1039 136.273C-4.22242 136.452 -4.34539 136.605 -4.46131 136.75C-4.69622 137.045 -5.01361 137.317 -5.20204 137.643C-5.27043 137.761 -5.48126 138.127 -5.48126 138.127C-5.48126 138.127 -5.57821 138.281 -5.63583 138.351C-6.77651 139.746 -8.1311 141.018 -9.26066 142.419L-18.0917 152.388C-18.5633 152.932 -20.3298 155.149 -20.7871 155.372C-21.2028 155.575 -22.2607 156.212 -22.7554 156.634C-22.8446 156.71 -22.9274 156.833 -22.9975 156.927C-23.3685 157.426 -23.7719 156.396 -23.5172 155.829C-23.0377 154.763 -22.2945 153.476 -21.8271 152.666L-20.5179 150.671C-20.2386 150.188 -20.0962 149.941 -19.8854 149.576L-18.8127 147.445C-18.3911 146.715 -17.7827 145.934 -17.411 145.017C-16.697 143.227 -15.8629 142.565 -14.9154 140.966C-14.8627 140.877 -14.8222 140.781 -14.7923 140.683C-14.7039 140.391 -14.5957 140.049 -14.5366 139.713C-14.4672 139.319 -14.9254 139.065 -15.3248 139.038C-15.3902 139.033 -15.46 139.038 -15.5224 139.058C-15.5485 139.067 -15.5724 139.075 -15.5944 139.084C-16.0817 139.268 -16.2123 138.614 -16.0071 138.135L-15.4223 136.769C-15.1046 135.65 -12.7441 132.973 -12.6131 131.904C-12.5232 131.483 -13.14 131.484 -13.4311 131.801C-14.6335 133.11 -16.7956 135.946 -17.8186 137.004C-18.9234 138.097 -19.64 139.577 -20.771 140.517C-20.8302 140.566 -20.8512 140.607 -20.9181 140.646C-20.9756 140.679 -21.0715 140.615 -21.1133 140.564C-21.5962 139.969 -21.1389 139.911 -21.2634 139.055C-21.4205 137.899 -20.7373 137.227 -20.1607 136.494C-19.7378 135.956 -19.7108 135.228 -19.3688 134.636C-19.2958 134.509 -19.1868 134.32 -19.0788 134.133C-18.9105 133.842 -18.5415 133.871 -18.7485 133.606C-18.7705 133.578 -18.8007 133.539 -18.8409 133.489C-18.8494 133.478 -18.8667 133.465 -18.8786 133.458C-18.963 133.409 -18.9596 133.235 -18.8626 133.226C-18.8343 133.223 -18.7981 133.222 -18.7505 133.224C-18.7254 133.224 -18.7008 133.232 -18.6791 133.244C-18.6746 133.247 -18.6698 133.249 -18.6646 133.252C-18.5555 133.315 -18.4159 133.276 -18.3556 133.166L-15.7063 128.315C-15.4064 127.795 -14.9383 127.199 -14.5116 126.588C-13.4584 125.08 -14.6099 124.304 -15.9788 125.532C-16.226 125.754 -16.5464 125.861 -16.7831 126.094C-16.8305 126.141 -16.8914 126.205 -16.9715 126.295C-17.3006 126.592 -17.3006 126.592 -17.5798 127.075C-17.7004 127.284 -17.8342 127.484 -17.979 127.67C-18.4216 128.239 -19.0858 127.999 -18.7252 127.375L-16.2451 122.806C-15.8918 122.194 -16.0343 122.441 -15.9418 122.007C-15.9079 121.869 -15.8654 121.733 -15.8169 121.599C-15.2373 119.995 -14.0757 118.641 -13.6839 116.981C-13.4951 116.213 -12.9891 115.921 -12.8245 115.264C-12.7154 114.829 -12.6185 114.404 -12.3384 114.054C-12.2688 113.967 -12.2086 113.874 -12.1387 113.787L-11.0855 112.48C-10.4031 111.572 -10.0813 110.468 -9.60969 109.924L-8.5113 108.295C-7.97135 107.633 -7.54968 106.902 -7.17792 105.985C-6.82746 104.94 -7.4479 104.37 -8.20547 105.172C-9.53889 106.583 -10.9859 108.643 -11.3392 109.255C-12.04 110.469 -12.1654 111.528 -13.2367 112.541C-13.9048 113.129 -13.7267 113.39 -14.3351 114.171C-14.7326 114.586 -15.214 115.124 -15.6115 115.539C-16.3286 116.494 -17.3464 117.293 -18.0404 118.265L-21.0738 122.514C-21.1545 122.627 -21.3044 122.753 -21.4046 122.849C-21.8464 123.273 -22.1534 122.893 -21.9229 122.326C-21.609 121.554 -21.1464 120.641 -20.921 120.251L-18.7443 116.481C-18.5335 116.116 -17.8654 115.527 -17.2329 114.432C-16.9048 113.864 -16.5381 113.32 -16.1486 112.792C-16.0922 112.716 -16.0392 112.638 -15.992 112.556L-9.50034 101.881C-9.22113 101.397 -8.892 101.101 -8.53871 100.489L-3.85903 93.7946C-3.58031 93.3119 -3.34818 92.7892 -2.96731 92.3822C-2.94379 92.3571 -2.91909 92.3305 -2.89285 92.3024C-2.80159 92.2045 -2.72112 92.0969 -2.65419 91.9809C-2.43716 91.605 -2.29766 91.3634 -2.05407 90.9415L1.3307 85.9212C1.73377 85.427 2.31226 84.946 2.71592 84.2707C2.99911 83.7969 2.96412 83.2312 3.04155 82.6847C3.08745 81.9264 3.47021 81.6788 3.51783 81.0442C3.53955 80.7547 3.23442 80.5699 3.01218 80.7566C2.97771 80.7856 2.94342 80.814 2.90368 80.8409C2.6798 80.9922 2.35247 80.7762 2.52415 80.5675C2.64284 80.4232 2.71655 80.1655 2.54671 80.0877C2.17971 79.9195 1.56103 79.8318 1.31338 80.0552C0.756153 80.5457 -0.0280726 82.0311 -0.266373 82.9878C-0.3472 83.3123 -0.387474 83.6572 -0.348329 83.9893C-0.299355 84.4048 -0.296885 84.8318 -0.401953 85.2367C-0.411701 85.2743 -0.422389 85.312 -0.433869 85.3504C-0.547066 85.7292 -0.617918 86.1178 -0.671294 86.5095C-0.785697 87.3489 -1.04376 88.2954 -1.47721 88.8269C-1.77833 89.174 -1.90456 89.5524 -2.15491 89.8338C-2.46879 90.1867 -3.00147 90.2113 -3.39757 90.4685C-3.40518 90.4737 -3.41257 90.4788 -3.41975 90.4837C-3.71359 90.6847 -3.85919 91.0293 -3.80021 91.3804C-3.70057 91.9735 -4.11285 92.1173 -4.57631 91.7341C-4.65835 91.6663 -4.7594 91.5948 -4.8865 91.5189C-5.15758 91.3569 -5.50224 91.3625 -5.73956 91.5708C-6.45308 92.1971 -7.02494 93.3821 -7.38076 93.9984C-8.2241 95.4591 -10.2698 98.1601 -11.1131 99.6208C-11.2556 99.8676 -11.2884 100.493 -11.4308 100.74C-11.4992 100.859 -11.6175 100.79 -11.6175 100.79C-11.6828 100.753 -11.7664 100.775 -11.8042 100.84C-13.5242 103.578 -15.3304 106.017 -17.0769 108.683C-17.5295 109.373 -17.9882 109.998 -18.5104 110.638C-19.068 111.32 -19.5897 112.096 -20.0538 112.846C-20.3336 113.298 -20.6231 113.731 -20.8302 113.947C-21.0831 114.211 -21.1993 114.23 -21.3718 114.348C-21.6647 114.549 -21.843 114.872 -22.0309 115.173C-22.1785 115.41 -22.3247 115.613 -22.506 115.791C-22.5529 115.837 -22.5813 115.867 -22.6162 115.922C-22.9566 116.466 -23.2754 116.263 -22.9054 115.739C-22.0527 114.53 -21.1701 113.4 -20.9956 112.549C-20.8724 112.127 -19.2112 109.36 -18.1073 107.257C-17.9784 107.011 -18.2397 106.857 -18.4044 107.08C-18.539 107.262 -18.7482 107.176 -18.6692 106.964C-18.3409 106.081 -17.5704 104.909 -17.2447 104.345L-17.0985 104.037C-16.7237 103.246 -16.2517 102.525 -15.974 101.696C-15.8939 101.456 -15.7582 101.171 -15.6555 100.94C-14.3595 98.0306 -7.04748 86.9351 -4.15877 81.4996C-3.31591 79.9136 -2.25048 78.1239 -1.35247 76.5685C-1.06303 76.0671 -0.773595 75.5658 -0.454809 75.0137C0.0207124 74.1901 0.206155 73.1997 0.842725 72.4931C1.52514 71.5843 1.07773 71.8129 1.42532 71.2109C1.76466 70.6231 2.18688 70.1259 2.49202 69.5197L3.10629 68.2993C3.45958 67.6874 3.21315 67.5451 3.89972 66.6519L7.03807 61.4893C7.10644 61.3709 7.48391 60.4439 7.62066 60.207C7.76312 59.9603 8.43983 59.0614 8.58229 58.8146C8.8615 58.331 9.0965 57.6508 9.37571 57.1672L11.4634 53.0296C11.5369 52.8839 11.4293 52.6201 11.3477 52.7614C11.2665 52.902 11.025 52.816 11.1118 52.6788C11.4029 52.2186 11.9889 51.5737 12.5154 50.8868C12.9514 50.1317 13.0844 49.2488 13.5432 48.5073C13.8457 48.0185 14.1428 47.4513 15.0169 44.8696L18.2904 36.5197C18.388 36.2707 18.4342 36.026 18.5631 35.7917C18.7526 35.4472 18.9106 35.056 19.0391 34.6844C19.0955 34.5215 19.1537 34.3581 19.2547 34.1831C19.7447 33.3344 19.5154 34.0047 19.9555 32.9692C20.7375 30.4993 20.6065 31.5685 21.1706 30.5914C21.6345 29.788 22.0025 28.8445 22.4153 27.9663C22.7087 27.3421 23.0893 26.841 23.6237 26.405Z" fill="#E40808"/>
<path fill-rule="evenodd" clip-rule="evenodd" d="M121.834 341.001C121.844 341.487 122.134 342.076 122.616 342.01C123.109 341.942 123.535 341.611 123.773 341.174C125.558 337.888 131.871 325.81 135.166 319.185C136.091 317.325 135.907 317.271 134.326 318.619C134.196 318.73 134.083 318.819 133.958 318.936C132.448 320.347 133.928 317.799 131.844 321.83C131.227 322.899 130.235 323.733 129.805 324.89C129.561 325.545 129.32 326.201 129.035 326.695C128.251 328.053 128.08 329.26 127.295 330.619C126.511 331.977 125.608 333.541 124.933 334.71C124.149 336.069 123.436 337.742 122.879 338.705C122.125 340.012 121.813 339.942 121.834 341.001ZM154.416 328.094C154.269 328.349 154.277 328.666 154.437 328.913C154.609 329.178 154.604 329.52 154.434 329.787C153.911 330.605 153.605 331.233 153.308 331.725C152.451 333.14 150.916 334.251 150.055 335.663C149.857 335.988 149.637 336.549 149.384 337.685C148.498 340.249 151.042 340.88 152.194 338.424C152.308 338.181 152.411 337.944 152.501 337.717C152.795 336.979 153.054 336.221 153.43 335.521L155.556 331.556C155.942 330.835 155.874 330.031 155.832 329.213C155.725 327.542 155.885 326.893 155.72 326.403C155.604 326.06 155.057 326.248 155.143 326.6C155.174 326.727 155.151 326.821 155.085 326.935L154.416 328.094ZM128.561 402.216C127.781 402.852 127.373 403.913 126.775 404.722C126.466 405.141 126.16 405.497 125.824 406.328C124.474 408.666 125.99 406.951 123.769 410.323C122.677 411.778 122.162 413.544 121.464 415.227C121.017 416.001 120.938 415.702 120.372 416.681L116.252 423.38C116.092 423.658 115.917 424.177 115.748 424.598C115.624 424.908 115.494 425.162 115.39 425.48C114.558 427.995 112.647 426.205 113.414 423.669C114.218 421.007 115.376 418.41 116.186 415.844C116.707 414.173 119.793 406.788 120.721 404.036C120.865 403.612 120.67 403.49 120.486 403.899C120.451 403.977 120.382 404.054 120.313 404.104C119.914 404.392 119.441 404.813 119.241 405.16C118.903 405.745 119.635 405.388 118.983 406.043C118.01 407.293 118.479 406.005 116.902 408.738L112.713 416.43C112.341 417.408 111.794 418.434 111.383 419.573C111.141 420.247 110.54 420.695 110.094 421.255C109.445 422.071 108.051 423.086 108.353 422.088C108.447 421.775 108.632 421.344 108.72 420.749C108.732 420.664 108.749 420.58 108.773 420.497C108.859 420.193 108.961 419.821 109.082 419.419C109.361 418.49 109.057 418.261 108.414 418.987C108.351 419.058 108.293 419.135 108.239 419.212C108.061 419.469 107.798 419.719 107.537 419.969C107 420.484 106.522 421.067 106.075 421.662C105.174 422.862 104.504 424.251 103.705 425.256C102.613 426.71 101.405 428.329 100.312 429.784C97.8097 433.724 95.1636 431.667 94.6907 429.891C94.5964 429.537 94.7404 429.198 94.8475 428.847C94.9214 428.605 94.8861 428.326 94.9097 428.074L95.127 425.758C95.886 419.962 101.586 408.741 102.391 405.562C102.936 403.482 104.303 400.935 105.042 398.821C105.257 398.207 104.851 397.527 104.271 397.823C102.608 398.407 99.7645 399.074 97.624 398.8C97.1869 398.744 97.1507 398.382 97.5897 398.421C97.6471 398.426 97.7238 398.421 97.7795 398.406L99.5378 397.934C99.9498 397.823 100.34 397.632 100.752 397.521C100.839 397.497 100.934 397.471 101.045 397.431C101.356 397.322 101.658 397.187 101.981 397.121C102.309 397.053 102.642 397.002 102.971 396.953C104.968 396.658 104.556 395.944 102.54 395.855C102.141 395.837 101.718 395.748 101.267 395.54C100.84 395.344 100.731 394.812 100.442 394.441C100.214 394.148 99.7842 394.089 99.3069 394.06C98.7417 394.026 98.6051 393.436 99.062 393.102C99.4225 392.838 99.4463 392.309 99.1028 392.023C98.2924 391.349 98.349 391.424 98.3443 390.35C98.3424 389.931 98.1108 389.549 97.7476 389.339L97.5583 389.23L97.369 389.121C97.8373 387.888 99.5848 388.608 98.0142 386.757C97.8921 386.613 97.7732 386.463 97.6811 386.299C97.248 385.524 96.9699 384.521 96.9079 383.798C96.9005 383.712 96.9167 383.586 96.9356 383.501C97.0854 382.833 96.3328 382.863 95.9905 383.456C95.6407 384.062 95.3111 384.633 94.8947 385.354C94.5573 385.939 94.2198 386.523 93.8824 387.108C93.8003 387.25 93.6514 387.508 93.5359 387.708C93.4716 387.819 93.4542 387.951 93.4874 388.076C93.5522 388.318 93.4164 388.565 93.2044 388.7C91.9309 389.509 91.773 391.593 90.2891 393.331C88.0981 396.215 88.0456 397.217 86.3697 398.335C86.1574 398.48 85.9718 398.57 85.7856 398.66C85.3987 398.849 85.0403 399.179 84.7929 399.531C83.9237 400.769 82.9136 402.006 82.3017 403.389C81.8753 404.353 81.368 405.388 80.9353 406.056C80.7597 406.327 80.5836 406.597 80.3207 406.785C79.8071 407.152 79.3028 407.591 79.0459 408.168C79.0302 408.203 79.0148 408.238 78.9996 408.274C78.8037 408.734 78.5105 409.14 78.1718 409.508L77.9781 409.718C77.5107 410.225 77.0949 410.779 76.785 411.395C76.4877 411.987 76.346 412.275 75.5168 413.088C74.8135 413.723 74.2866 414.455 73.5833 415.089C72.8286 415.959 73.0795 415.051 71.5404 417.279C69.7438 420.391 70.0538 418.506 68.9321 420.449L68.3711 421.634C68.0027 422.412 66.7781 422.845 66.8942 421.992C66.9786 421.372 66.4856 420.778 65.8953 420.571C64.4856 420.075 64.9134 419.212 65.6165 417.229C65.7646 416.535 65.9926 416.14 66.1249 415.438C66.129 415.419 66.1332 415.4 66.1378 415.382C66.4544 414.097 67.164 412.936 67.6722 411.714C68.2067 410.429 68.826 409.186 69.2913 407.875C69.4834 407.333 69.6778 406.788 69.9005 406.202L73.0195 399.452C73.1315 399.258 73.2036 399.105 73.2526 398.972C73.5597 398.135 73.7909 397.288 74.1587 396.476C74.4115 395.918 74.5842 395.325 74.7833 394.745C75.062 393.935 75.1505 393.502 75.7531 392.458C76.0906 391.873 75.9811 392.063 76.3186 391.479L92.951 359.063C93.3979 358.289 93.774 357.201 93.9929 356.822C94.7772 355.463 95.2241 354.689 95.899 353.52L101.232 343.372C101.945 341.699 104.458 338.222 104.745 336.85C105.026 335.453 113.202 321.766 113.539 321.181C114.741 319.537 119.319 310.26 120.897 307.527C122.545 305.109 123.596 302.851 124.907 301.017C126.257 298.68 128.133 295.867 129.365 293.734C129.702 293.15 129.96 292.266 130.407 291.492L131.528 289.549C133.25 286.567 135.272 283.754 137.206 280.905L143.029 272.326C146.175 266.877 149.534 264.667 152.001 258.572C152.486 257.294 153.797 255.46 154.173 254.371C155.575 251.032 157.482 247.73 159.287 244.603C160.856 241.886 162.68 240.074 164.556 237.261C166.632 233.667 169.847 230.234 172.522 226.958C172.673 226.773 172.806 226.573 172.938 226.374C173.128 226.088 173.325 225.843 173.51 225.61C173.886 225.138 174.394 224.703 174.696 224.181C174.805 223.992 175.143 223.407 175.143 223.407C175.143 223.407 175.298 223.16 175.39 223.048C177.216 220.815 179.384 218.78 181.192 216.537L195.326 200.582C196.08 199.712 198.908 196.163 199.639 195.806C200.305 195.482 201.998 194.462 202.79 193.787C202.933 193.665 203.065 193.467 203.177 193.317C203.771 192.519 204.417 194.167 204.009 195.074C203.242 196.781 202.052 198.841 201.304 200.137L199.209 203.329C198.762 204.103 198.534 204.498 198.196 205.082L196.48 208.493C195.805 209.662 194.831 210.911 194.236 212.379C193.093 215.245 191.758 216.304 190.242 218.863C190.158 219.005 190.093 219.158 190.045 219.316C189.903 219.782 189.73 220.33 189.636 220.868C189.525 221.499 190.258 221.905 190.897 221.949C191.002 221.956 191.114 221.948 191.213 221.916C191.255 221.902 191.293 221.889 191.329 221.875C192.109 221.58 192.318 222.628 191.989 223.394L191.053 225.579C190.545 227.371 186.767 231.656 186.557 233.367C186.413 234.041 187.4 234.039 187.866 233.532C189.791 231.436 193.251 226.898 194.889 225.203C196.657 223.454 197.804 221.086 199.614 219.582C199.709 219.503 199.742 219.437 199.849 219.375C199.941 219.323 200.095 219.424 200.162 219.507C200.934 220.458 200.203 220.552 200.402 221.92C200.653 223.772 199.56 224.847 198.637 226.021C197.96 226.882 197.917 228.046 197.369 228.994C197.253 229.197 197.078 229.499 196.905 229.798C196.636 230.265 196.045 230.218 196.377 230.643C196.412 230.688 196.46 230.749 196.525 230.83C196.538 230.847 196.566 230.868 196.585 230.879C196.72 230.957 196.715 231.235 196.559 231.25C196.514 231.255 196.456 231.256 196.38 231.254C196.34 231.253 196.3 231.242 196.266 231.222C196.259 231.217 196.251 231.213 196.242 231.208C196.068 231.107 195.844 231.17 195.748 231.347L191.508 239.111C191.028 239.942 190.279 240.896 189.596 241.874C187.91 244.287 189.753 245.53 191.944 243.564C192.339 243.209 192.852 243.038 193.231 242.665C193.307 242.59 193.405 242.487 193.533 242.344C194.059 241.869 194.059 241.869 194.506 241.095C194.699 240.76 194.913 240.441 195.145 240.143C195.854 239.232 196.917 239.616 196.34 240.616L192.37 247.928C191.805 248.907 192.033 248.512 191.885 249.206C191.83 249.426 191.762 249.644 191.685 249.859C190.757 252.427 188.898 254.593 188.271 257.25C187.969 258.48 187.159 258.948 186.895 259.998C186.721 260.694 186.566 261.375 186.117 261.935C186.006 262.074 185.91 262.224 185.798 262.362L184.112 264.454C183.02 265.908 182.505 267.675 181.75 268.545L179.992 271.152C179.128 272.212 178.453 273.381 177.858 274.849C177.297 276.523 178.29 277.434 179.503 276.151C181.637 273.893 183.953 270.596 184.518 269.616C185.64 267.673 185.841 265.978 187.555 264.356C188.624 263.415 188.339 262.998 189.313 261.749C189.949 261.084 190.72 260.223 191.356 259.558C192.504 258.03 194.133 256.751 195.244 255.195L200.098 248.395C200.227 248.215 200.467 248.012 200.628 247.858C201.335 247.18 201.826 247.789 201.457 248.696C200.955 249.932 200.215 251.392 199.854 252.017L196.37 258.051C196.033 258.636 194.963 259.577 193.951 261.33C193.426 262.24 192.839 263.11 192.216 263.955C192.125 264.077 192.041 264.202 191.965 264.333L181.575 281.418C181.128 282.192 180.602 282.667 180.036 283.646L172.546 294.36C172.1 295.133 171.729 295.969 171.119 296.621C171.081 296.661 171.042 296.703 171 296.748C170.854 296.905 170.725 297.077 170.618 297.263C170.271 297.864 170.047 298.251 169.657 298.926L164.24 306.961C163.595 307.752 162.669 308.522 162.023 309.603C161.57 310.361 161.626 311.267 161.502 312.141C161.429 313.355 160.816 313.751 160.74 314.767C160.705 315.23 161.193 315.526 161.549 315.227C161.604 315.181 161.659 315.135 161.723 315.092C162.081 314.85 162.605 315.196 162.33 315.53C162.14 315.761 162.022 316.173 162.294 316.298C162.881 316.567 163.872 316.707 164.268 316.35C165.16 315.565 166.415 313.187 166.796 311.656C166.926 311.137 166.99 310.585 166.927 310.053C166.849 309.388 166.845 308.705 167.013 308.057C167.029 307.997 167.046 307.936 167.064 307.875C167.246 307.269 167.359 306.647 167.444 306.02C167.627 304.676 168.041 303.161 168.734 302.311C169.216 301.755 169.418 301.15 169.819 300.699C170.321 300.134 171.174 300.095 171.808 299.683C171.82 299.675 171.832 299.667 171.843 299.659C172.314 299.337 172.547 298.786 172.452 298.224C172.293 297.275 172.953 297.044 173.694 297.658C173.826 297.766 173.987 297.881 174.191 298.002C174.625 298.262 175.176 298.253 175.556 297.919C176.698 296.917 177.613 295.02 178.183 294.034C179.533 291.696 182.807 287.373 184.156 285.035C184.384 284.64 184.437 283.639 184.665 283.244C184.774 283.054 184.964 283.163 184.964 283.163C185.068 283.224 185.202 283.188 185.262 283.083C188.015 278.702 190.906 274.797 193.701 270.532C194.426 269.426 195.16 268.427 195.996 267.403C196.888 266.31 197.723 265.069 198.466 263.869C198.914 263.146 199.377 262.452 199.709 262.106C200.113 261.683 200.299 261.654 200.575 261.465C201.044 261.143 201.33 260.626 201.63 260.143C201.866 259.764 202.1 259.44 202.391 259.154C202.466 259.081 202.511 259.034 202.567 258.945C203.112 258.074 203.622 258.4 203.03 259.239C201.665 261.173 200.252 262.981 199.973 264.344C199.776 265.02 197.117 269.447 195.351 272.814C195.144 273.207 195.562 273.454 195.826 273.097C196.041 272.805 196.376 272.943 196.25 273.283C195.724 274.696 194.491 276.571 193.97 277.474L193.736 277.968C193.136 279.232 192.381 280.387 191.936 281.715C191.808 282.098 191.591 282.554 191.426 282.923C189.352 287.58 177.649 305.338 173.026 314.038C171.677 316.576 169.972 319.441 168.535 321.93C168.071 322.733 167.608 323.535 167.098 324.419C166.337 325.737 166.04 327.322 165.021 328.453C163.929 329.907 164.645 329.541 164.089 330.505C163.546 331.446 162.87 332.241 162.382 333.212L161.398 335.165C160.833 336.144 161.227 336.372 160.129 337.802L155.106 346.064C154.996 346.254 154.392 347.737 154.173 348.117C153.945 348.511 152.862 349.95 152.634 350.345C152.187 351.119 151.811 352.208 151.364 352.982L148.023 359.604C147.905 359.837 148.078 360.259 148.208 360.033C148.338 359.808 148.725 359.946 148.586 360.165C148.12 360.902 147.182 361.934 146.339 363.033C145.641 364.242 145.429 365.655 144.694 366.842C144.21 367.624 143.735 368.532 142.336 372.664L137.096 386.028C136.94 386.426 136.866 386.818 136.66 387.193C136.357 387.744 136.104 388.371 135.898 388.965C135.808 389.226 135.715 389.488 135.553 389.768C134.769 391.126 135.136 390.053 134.431 391.71C133.18 395.664 133.389 393.952 132.487 395.516C131.744 396.802 131.155 398.312 130.495 399.717C130.025 400.716 129.416 401.519 128.561 402.216Z" fill="#E40808"/>
<g filter="url(#filter0_d_1183_3200)">
<path fill-rule="evenodd" clip-rule="evenodd" d="M119.897 359.83C120.4 360.121 120.314 360.579 120.217 361.032L119.385 360.717L119.016 361.356C118.945 361.48 118.796 361.737 118.647 361.995C118.207 362.758 118.241 362.105 118.181 363.087C117.689 363.655 117.289 363.754 116.92 364.394C116.576 364.704 116.188 365.662 115.967 366.044L115.21 367.641C114.497 368.59 114.514 369.439 113.72 370.506L113.843 370.577C113.771 370.701 113.694 370.835 113.623 370.959C113.254 371.598 112.855 372.88 112.23 373.371C111.461 374.11 112.009 373.753 111.64 374.392L108.599 380.253L107.891 380.009L107.01 381.535L106.435 381.368C106.103 382.537 106.286 381.626 106.718 382.04C106.278 382.803 106.083 382.856 105.766 383.69L105.297 382.746C105.492 382.693 105.369 382.622 105.369 382.622L104.768 382.784L104.496 382.971C104.444 382.776 104.522 382.642 104.337 382.37L103.542 382.584C103.47 382.708 103.47 382.708 103.47 382.708L103.655 382.98C103.584 383.104 103.63 383.309 103.63 383.309C103.682 383.504 103.666 383.839 103.718 384.034C103.39 384.009 103.39 384.009 103.241 384.267C103.17 384.391 103.073 384.843 103.057 385.178L102.041 384.591L101.785 385.626L102.658 385.277C102.623 385.931 102.438 385.659 102.869 386.073L102.454 386.507L102.383 386.631L101.526 386.645L101.403 386.574C101.295 386.168 101.171 386.096 101.314 385.849C101.165 386.107 101.165 386.107 101.146 386.425C101.198 386.62 101.269 386.497 101.12 386.754L101.377 386.903C101.783 386.793 101.572 386.85 102.029 386.935C101.88 387.193 101.66 387.575 101.44 387.956C100.716 388.047 101.112 387.932 100.768 388.242C100.937 387.666 101.174 388.132 100.414 387.694C100.388 388.023 100.45 388.223 99.9213 388.262C100.029 388.668 99.8958 388.591 99.4808 389.025C99.2955 388.753 99.1722 388.682 99.1263 388.476C99.0031 388.405 99.0031 388.405 99.0031 388.405L98.8177 388.133C98.4121 388.243 98.5456 388.32 97.9606 388.147C98.0686 388.553 97.9972 388.677 97.7055 389.182L97.3254 388.963C97.3254 388.963 97.4487 389.034 97.3773 389.158L97.6085 389.635C96.9716 389.267 96.5202 389.171 96.073 389.092C96.3188 388.382 96.477 387.799 96.3172 387.198L96.8657 386.841C96.6541 386.045 96.8139 386.646 96.978 386.054C96.5265 385.958 96.1924 385.944 95.9459 385.802C95.417 385.84 95.894 385.607 95.3974 386.159C95.8658 387.103 95.5572 386.759 94.9738 387.77C94.1445 389.491 94.4269 389.31 93.1293 390.087C91.9652 390.941 92.9609 390.663 91.4423 390.969C90.1703 391.417 90.0842 392.728 89.7058 393.692L89.2288 393.925C88.8597 394.565 89.0603 394.502 88.7627 395.017C88.4454 395.851 87.7219 395.942 86.8408 397.468L85.6425 399.828C84.919 399.919 85.094 400.185 84.6273 400.425L82.9861 401.512C82.6775 401.169 82.1181 400.667 82.9234 400.458C82.4201 400.168 82.4354 399.833 82.5324 399.38C82.6278 397.744 84.273 391.408 84.7228 390.32C85.3836 389.176 85.479 387.54 86.0165 386.324C86.088 386.2 88.068 380.731 87.9082 380.13C87.3597 380.487 87.2109 380.745 86.9039 381.585C86.4634 382.348 86.3554 381.942 85.8631 382.51L85.2993 383.202C84.6276 383.488 84.9711 383.177 84.222 383.597C83.8785 383.907 83.8785 383.907 83.2782 384.069C82.9865 384.575 82.7406 385.285 81.9457 385.5C81.5401 385.609 81.6174 385.475 81.0886 385.514C79.9594 385.714 80.3913 386.128 80.4534 386.329C80.4278 386.658 80.3564 386.782 80.4185 386.983C80.3215 387.435 80.25 387.559 79.9065 387.869C79.1982 387.625 79.1115 388.084 78.5571 388.451L78.8401 389.123C78.1793 390.268 77.7628 389.519 77.2508 390.405L77.482 390.883C76.9897 391.451 77.2618 391.264 76.59 391.55C76.493 392.003 76.5645 391.879 76.6266 392.08C76.601 392.409 76.6784 392.275 76.4581 392.656L76.0066 392.56L75.5312 393.977L75.2591 394.164L75.8245 394.655C75.4554 395.294 75.3475 394.888 75.3584 395.747L74.5488 397.149C74.5488 397.149 74.4774 397.273 74.3286 397.531C74.3286 397.531 73.7648 398.222 73.5598 398.269C72.8625 398.884 72.9961 398.961 72.6074 399.919L72.4127 399.971C72.4127 399.971 72.4127 399.971 72.3412 400.095C71.5462 400.31 72.7562 399.661 72.1465 400.148C72.0342 400.935 71.609 401.363 71.0452 402.055C70.6303 402.489 70.0649 401.998 69.3845 403.461L68.7367 403.444C68.5683 404.021 68.5683 404.021 68.1729 404.136C67.5726 404.298 67.9782 404.189 67.5208 404.104C63.528 403.998 65.7758 399.535 66.3576 397.342C67.431 393.727 69.0792 390.279 70.2862 386.742L71.6878 383.152C72.9815 379.156 74.3396 377.396 75.2037 375.022C75.2037 375.022 75.7931 374.001 75.9359 373.754L77.221 370.935C77.5127 370.43 77.3333 370.148 77.5535 369.766C78.1974 367.773 79.1303 366.442 79.8515 364.315C80.389 363.1 82.0797 360.171 82.6172 358.956C83.2262 357.616 84.2305 356.161 84.9627 354.893L85.552 353.872C86.8218 351.388 90.1971 345.542 91.6163 343.653L94.4907 339.552C96.2272 336.829 98.5028 334.074 100.311 331.227L102.252 328.457C103.133 326.931 104.634 324.925 105.664 323.141C107.129 320.604 108.573 318.387 110.249 315.793C110.741 315.225 111.052 314.401 111.421 313.762C111.914 313.194 112.134 312.812 112.497 312.183C112.866 311.544 113.558 310.94 113.722 310.347C113.871 310.089 114.269 308.807 114.86 308.969C114.86 308.969 114.86 308.969 114.931 308.845C114.823 308.439 114.843 308.121 115.335 307.553L115.97 306.737C116.948 304.758 120.125 301.011 121.596 298.464C122.256 297.32 123.097 296.458 123.757 295.313L126.217 291.646C127.186 290.845 128.676 287.98 129.983 286.878C130.398 286.444 130.696 285.929 131.121 285.5C131.464 285.19 131.818 284.886 132.233 284.452C132.648 284.018 132.382 284.194 132.859 283.961C134.008 283.442 133.848 282.841 134.72 282.492C135.029 282.835 135.137 283.241 135.163 283.765L135.211 285.153C135.247 285.683 135.483 284.967 135.247 285.683L134.48 287.605C133.676 288.997 128.599 296.913 128.211 297.871C128.139 297.994 128.042 298.447 127.893 298.705C127.745 298.962 127.77 298.634 127.524 299.344C127.269 300.379 126.023 301.351 126.168 302.286C127.589 301.581 129.018 299.698 130.325 298.596L131.71 297.361C132.125 296.927 132.556 296.488 133.094 296.126C133.509 295.692 133.986 295.458 134.401 295.024C136.826 292.864 135.39 293.904 137.18 293.412C137.668 294.037 137.366 293.684 138.197 293.999C138.208 294.858 137.608 295.02 137.173 295.773C136.953 296.154 136.928 296.483 136.841 296.942C136.744 297.394 136.744 297.394 136.657 297.853C136.508 298.111 136.217 298.616 136.068 298.874C135.079 299.994 135.467 299.036 134.223 301.191C133.42 302.583 133.025 303.551 132.021 305.006C131.289 306.274 130.382 308.129 129.578 309.521C130.487 309.702 130.055 309.288 130.815 309.726C131.027 310.522 130.392 311.338 130.279 312.125C130.059 312.507 130.167 312.913 129.875 313.418L128.299 316.742C128.053 317.453 127.495 318.134 127.126 318.773L126.66 319.865C126.071 320.886 125.292 321.949 124.898 322.917C124.565 324.086 124.457 323.68 124.017 324.443L122.819 326.803C122.747 326.927 122.404 327.238 122.229 327.824L120.985 329.979C120.57 330.413 120.713 330.166 120.473 330.866C121.294 330.322 124.071 326.674 125.475 325.12C128.289 322.002 126.639 324.266 128.624 322.869C129.321 322.254 128.88 323.017 130.813 321.425C133.31 319.14 133.15 318.539 134.342 319.392L134.184 320.828C134.733 320.471 135.649 318.291 136.23 318.448L134.325 321.747C134.079 322.458 133.627 322.362 133.972 323.235C134.487 324.384 134.255 323.907 135.123 324.752L135.735 325.448L134.986 325.868C134.714 326.055 134.141 327.924 133.849 328.429C133.629 328.811 133.506 328.739 133.337 329.316C132.897 330.079 132.491 330.188 132.2 330.694C131.759 331.457 131.575 332.368 131.258 333.202C130.597 334.347 130.658 333.364 130.5 334.799C129.557 335.272 129.874 335.29 129.768 336.067C129.743 336.396 129.6 336.644 129.451 336.902C129.205 337.612 129.462 337.76 129.027 338.513C128.403 340.187 128.727 340.196 128.969 341.531C128.272 342.146 128.626 341.842 128.432 342.747C128.406 343.076 128.36 342.871 128.14 343.252C127.92 343.634 127.971 343.829 127.823 344.086C127.674 344.344 127.479 344.397 127.259 344.778C127.039 345.16 127.322 345.832 127.101 346.213C127.004 346.666 126.352 346.633 125.477 348.149C126.125 349.375 125.628 349.927 124.736 350.594L123.598 351.972C122.795 353.364 122.461 353.35 123.114 354.566L122.745 355.205C122.454 355.711 121.996 355.625 121.996 355.625C122.048 355.82 121.925 355.749 121.925 355.749C121.432 356.317 122.43 357.223 121.192 357.017C120.435 358.614 119.931 358.324 119.897 359.83Z" fill="white"/>
</g>
<g filter="url(#filter1_d_1183_3200)">
<path fill-rule="evenodd" clip-rule="evenodd" d="M134.386 175.803C133.095 173.812 132.297 175.196 135.794 172.33L139.571 168.978C140.559 168.302 140.909 166.66 142.415 165.087L145.744 161.477C148.048 158.521 149.332 157.418 151.917 153.976L154.761 150.085C156.008 148.961 156.752 148.793 158.673 148.656L157.551 147.41C160.081 145.182 158.484 147.949 159.822 145.631C161.419 142.865 161.959 141.93 164.468 139.74C165.175 139.55 165.456 139.064 165.456 139.064L166.703 137.94C169.277 138.828 168.084 138.738 170.173 139.346L166.461 145.775C165.852 147.866 166.461 145.775 166.337 148.146C166.472 150.068 165.987 149.788 165.415 151.9C164.805 153.99 164.492 155.654 163.435 157.486C162.545 160.062 161.929 159.059 161.039 161.635C158.643 165.784 158.428 169.348 157.246 173.551L152.779 184.479C150.708 191.258 147.163 198.432 143.71 204.413C139.809 210.136 137.198 217.849 133.485 224.279L102.143 285.982C100.287 289.197 97.3521 294.281 96.2032 297.306C93.9425 303.377 94.0665 301.006 92.1405 305.377C88.5959 312.552 84.6031 319.467 80.3514 326.831L74.5025 336.962C73.445 338.794 72.7815 342.099 70.3422 343.133C70.4336 341.94 70.2072 341.211 70.5576 339.569C71.4801 335.815 74.4153 330.731 76.2714 327.516C78.408 323.815 87.1531 301.252 90.9194 293.607C93.3849 288.302 95.6455 282.23 98.1326 276.888C100.404 275.109 97.6845 276.629 100.054 276.751C99.0226 274.311 99.0226 274.311 100.62 271.545L109.931 243.775C110.281 242.133 109.931 243.775 110.281 242.133L110.405 239.763C109.822 237.582 111.112 239.573 109.115 237.772C107.777 240.089 107.966 240.796 105.92 243.304C104.582 245.622 105.03 245.88 103.714 248.161C102.376 250.478 101.928 250.22 101.059 252.759C100.396 256.064 97.6061 258.74 96.4571 261.765C94.86 264.531 95.7936 265.07 94.995 266.453L89.0111 274.662C86.1673 278.552 84.2198 282.96 82.2723 287.369C81.4737 288.752 79.968 290.325 79.4285 291.259C78.3709 293.091 78.8889 292.194 78.5385 293.836C77.481 295.667 77.2918 294.96 76.7523 295.895C76.2127 296.829 76.2779 299.907 73.3427 304.991C72.5441 306.374 71.0384 307.947 70.2399 309.33L66.6628 317.682C64.7152 322.09 61.1643 326.171 59.4758 330.13C58.1377 332.448 56.6972 337.099 54.6146 339.585L50.0124 348.591C48.8635 351.616 46.6507 353.379 45.5017 356.404C44.6117 358.981 33.939 378.587 33.1405 379.97C30.0702 383.132 31.193 384.379 29.0779 388.042C27.2916 390.101 25.1765 393.764 24.2866 396.341C23.3966 398.917 21.8211 401.646 20.224 404.412C19.1664 406.244 18.4377 406.471 17.6392 407.855C16.7492 410.431 17.7742 409.777 16.2312 411.328C15.2435 412.004 13.5113 412.848 12.5452 413.486L2.79503 429.339C1.45691 431.657 -1.1063 435.062 -1.45672 436.704C-2.37921 440.457 -2.06614 438.794 -3.31282 439.918C-4.786 440.314 -5.09906 441.977 -6.3831 443.08L-10.0691 445.239C-15.4174 447.085 -13.9163 449.746 -18.5726 459.967C-20.5201 464.375 -22.2848 466.397 -23.3639 468.266C-24.1624 469.649 -23.7143 469.908 -24.7718 471.74C-25.3114 472.674 -27.0436 473.518 -27.3567 475.182L-31.2624 482.895C-31.6564 481.422 -31.5214 483.344 -31.3974 480.973L-30.8579 480.039C-31.5325 479.051 -32.1482 478.047 -33.8105 477.736L-33.9455 475.814C-33.6866 475.365 -34.1347 475.106 -34.1347 475.106C-34.0107 472.735 -32.7267 471.633 -32.4136 469.969C-31.6151 468.586 -31.4259 469.293 -30.6815 469.125C-30.6815 469.125 -30.6815 469.125 -30.4225 468.677L-31.3561 468.138C-32.0307 467.15 -31.6151 468.586 -31.5452 467.43C-30.9358 465.34 -29.2846 461.359 -28.6752 459.268C-27.7852 456.692 -27.2132 454.58 -26.3448 452.041C-25.7354 449.95 -23.5987 446.249 -23.2856 444.586C-22.8811 441.729 -24.0039 440.483 -22.8549 437.458C-21.7974 435.626 -20.5507 434.502 -20.2002 432.86C-19.2778 429.106 -18.4792 427.723 -16.8821 424.957C-16.7907 423.763 -17.0172 423.035 -16.2186 421.651C-15.8682 420.01 -15.42 420.268 -15.0696 418.626C-14.1796 416.05 -13.9859 412.523 -11.6164 412.645C-11.2119 409.789 -12.6041 413.321 -11.4925 410.275C-9.89539 407.508 -11.4011 409.081 -10.0304 405.586L-23.2013 426.243C-25.4078 431.099 -29.2393 435.666 -32.412 441.161C-34.5486 444.862 -40.7804 457.812 -44.2988 460.715C-44.747 460.456 -47.3213 459.568 -48.9836 459.256C-51.353 459.134 -51.0725 458.648 -52.4217 456.673C-53.2203 458.056 -53.5707 459.698 -54.6282 461.53C-55.6858 463.361 -56.6735 464.037 -57.731 465.869C-62.3332 474.875 -62.5223 474.168 -67.7077 480.993L-71.0544 477.217C-71.0544 477.217 -71.0544 477.217 -71.3133 477.665L-70.969 478.363C-70.575 479.836 -70.575 479.836 -71.3735 481.219C-72.9444 479.714 -71.8216 480.96 -72.0481 480.232C-72.4422 478.758 -72.0918 477.116 -71.7413 475.474C-70.5924 472.449 -70.8188 471.72 -70.377 468.885C-72.2983 469.022 -71.3647 469.561 -73.2644 469.661L-75.8387 468.772C-75.3644 464.76 -74.2416 466.006 -75.273 463.566L-76.2718 459.949L-73.1038 458.688C-75.6083 456.644 -75.4732 458.566 -75.3277 456.158C-75.7218 454.685 -73.6067 451.021 -73.0671 450.087L-73.1107 446.971C-70.9304 446.386 -71.1894 446.834 -69.2897 446.735C-69.9643 445.747 -70.4125 445.489 -71.0655 444.464C-70.0778 443.788 -69.5923 444.068 -68.7938 442.685C-70.6236 441.628 -70.8826 442.077 -71.0177 440.155C-69.377 440.504 -69.8251 440.245 -68.8374 439.57C-69.2314 438.096 -69.2314 438.096 -70.6132 437.298L-70.0736 436.364C-68.6657 432.89 -68.1913 428.877 -65.9569 427.077L-67.0797 425.831C-66.2811 424.448 -66.1897 423.255 -66.1572 422.077C-66.0658 420.884 -66.0658 420.884 -66.2922 420.155C-66.2008 418.962 -65.5851 419.965 -66.2008 418.962C-66.9994 420.345 -67.5389 421.279 -68.0569 422.176L-74.6129 432.497C-77.8769 439.185 -82.6571 451.777 -90.2231 454.187C-90.5473 451.558 -91.2544 451.748 -91.2003 450.533C-91.3354 448.611 -90.5368 447.228 -89.4793 445.396C-89.0311 445.655 -90.2778 446.779 -88.2867 445.486C-89.059 442.598 -89.9274 445.137 -88.7784 442.112C-87.8559 438.358 -85.5144 435.424 -84.5703 431.633L-81.2958 420.614C-80.7562 419.679 -80.9453 418.972 -80.1468 417.589L-77.6272 411.069C-76.2192 407.595 -74.8375 408.393 -74.3631 404.38L-74.2717 403.187C-74.0127 402.738 -74.0127 402.738 -74.0127 402.738L-73.4469 397.533C-73.3555 396.339 -72.8375 395.442 -72.298 394.508C-71.7584 393.573 -72.298 394.508 -71.3103 393.832C-70.3226 393.156 -71.1211 394.539 -71.0513 393.383C-70.9598 392.19 -71.6345 391.202 -70.5769 389.371C-69.5194 387.539 -69.5892 388.695 -67.5981 387.402C-68.5753 383.748 -68.6294 384.962 -66.8432 382.903C-65.0569 380.844 -65.6942 379.878 -64.8956 378.495C-65.0848 377.788 -64.2862 376.405 -63.7467 375.47C-62.9481 374.087 -62.1495 372.704 -61.351 371.321C-61.092 370.872 -60.5524 369.938 -60.2935 369.489C-59.2359 367.657 -60.2935 369.489 -59.943 367.847C-59.2795 364.542 -56.2745 358.302 -54.6774 355.536C-53.3392 353.218 -54.6774 355.536 -53.1717 353.963C-50.3279 350.072 -51.1002 347.184 -49.6923 343.71C-47.8798 337.38 -43.234 331.49 -41.5828 327.508C-39.9648 323.757 -38.1087 320.542 -35.7131 316.393C-33.6678 313.886 -32.5189 310.861 -30.9218 308.094L-21.4521 292.727C-20.114 290.41 -18.0904 287.939 -16.7523 285.622L-7.31515 271.432C-5.26991 268.925 -3.6728 266.158 -2.35627 263.878C-1.29872 262.046 -1.10958 262.754 0.174452 261.651C2.44617 259.872 11.7919 246.876 13.5781 244.817L23.5873 228.516C26.5009 223.469 34.3625 212.008 37.8157 206.027C41.1775 201.239 49.9727 190.318 53.7826 185.789C59.4161 179.222 68.5942 165.481 72.1451 161.401C73.1328 160.725 82.9204 144.894 85.9317 141.748L118.172 96.5133C118.971 95.1302 119.769 93.7471 121.41 94.0962C121.286 96.467 117.698 100.526 116.619 102.395C115.561 104.227 117.013 103.869 114.93 106.355L106.777 119.441C99.7357 129.481 95.0794 139.702 88.5235 150.023L91.0542 147.795C92.0419 147.12 92.0419 147.12 93.0453 146.503L139.926 87.6404C141.431 86.0674 142.197 85.8617 143.703 84.2887C145.22 87.0086 143.612 85.482 144.734 86.7283C149.31 81.9935 152.359 78.8691 154.852 76.6203C156.639 74.5613 155.392 75.6858 156.585 75.7762C158.765 75.1908 156.844 75.3276 158.576 74.4835C160.362 72.4245 157.993 72.3026 161.015 73.4495C159.677 75.7672 157.912 77.7888 156.089 79.8262C153.817 81.6048 153.558 82.0534 151.961 84.8197L146.462 93.3084C144.326 97.0092 142.885 101.66 139.815 104.822L136.453 109.61C135.914 110.544 134.948 111.183 133.868 113.052C131.284 116.494 129.077 121.351 126.233 125.241C124.188 127.749 123.32 130.288 122.241 132.157C121.701 133.092 121.183 133.989 120.195 134.665L114.157 144.088C110.095 152.159 105.238 157.38 103.167 164.159C102.277 166.735 98.7259 170.816 98.9586 174.639C98.9586 174.639 99.4067 174.897 99.6657 174.449C102.386 172.929 105.488 168.59 107.29 166.59C107.549 166.141 108.089 165.207 108.796 165.017C113.442 159.126 118.681 151.086 123.705 146.61C126.943 144.193 128.675 143.349 130.721 140.841C135.556 135.658 138.345 132.982 144.266 129.023C147.503 126.606 147.336 125.861 151.066 126.819L144.327 139.525C141.931 143.675 143.404 143.279 143.502 145.18C141.511 146.473 141.996 146.753 140.432 148.342C139.892 149.276 138.44 149.634 137.901 150.569C136.395 152.142 134.987 155.616 134.097 158.192C133.299 159.575 130.455 163.466 129.397 165.297C129.138 165.746 128.599 166.681 128.599 166.681C126.554 169.188 127.709 169.257 126.651 171.089C125.853 172.472 123.862 173.765 123.29 175.877L125.82 173.649L124.671 176.674C125.864 176.765 125.605 177.213 126.987 178.011C126.188 179.394 125.39 180.777 125.579 181.485C127.311 180.641 127.85 179.706 128.816 179.068C131.536 177.548 131.887 175.906 133.042 175.975L134.386 175.803Z" fill="#086DE4"/>
</g>
<defs>
<filter id="filter0_d_1183_3200" x="65.2012" y="282.492" width="87.9963" height="141.728" filterUnits="userSpaceOnUse" color-interpolation-filters="sRGB">
<feFlood flood-opacity="0" result="BackgroundImageFix"/>
<feColorMatrix in="SourceAlpha" type="matrix" values="0 0 0 0 0 0 0 0 0 0 0 0 0 0 0 0 0 0 127 0" result="hardAlpha"/>
<feOffset dx="11" dy="16"/>
<feGaussianBlur stdDeviation="2"/>
<feComposite in2="hardAlpha" operator="out"/>
<feColorMatrix type="matrix" values="0 0 0 0 0 0 0 0 0 0 0 0 0 0 0 0 0 0 0.25 0"/>
<feBlend mode="normal" in2="BackgroundImageFix" result="effect1_dropShadow_1183_3200"/>
<feBlend mode="normal" in="SourceGraphic" in2="effect1_dropShadow_1183_3200" result="shape"/>
</filter>
<filter id="filter1_d_1183_3200" x="-91.2153" y="68.7246" width="293.388" height="418.171" filterUnits="userSpaceOnUse" color-interpolation-filters="sRGB">
<feFlood flood-opacity="0" result="BackgroundImageFix"/>
<feColorMatrix in="SourceAlpha" type="matrix" values="0 0 0 0 0 0 0 0 0 0 0 0 0 0 0 0 0 0 127 0" result="hardAlpha"/>
<feOffset dx="28"/>
<feGaussianBlur stdDeviation="2"/>
<feComposite in2="hardAlpha" operator="out"/>
<feColorMatrix type="matrix" values="0 0 0 0 0 0 0 0 0 0 0 0 0 0 0 0 0 0 0.15 0"/>
<feBlend mode="normal" in2="BackgroundImageFix" result="effect1_dropShadow_1183_3200"/>
<feBlend mode="normal" in="SourceGraphic" in2="effect1_dropShadow_1183_3200" result="shape"/>
</filter>
</defs>
</svg>
