<svg width="253" height="475" viewBox="0 0 253 475" fill="none" xmlns="http://www.w3.org/2000/svg">
<path fill-rule="evenodd" clip-rule="evenodd" d="M190.634 264.801C190.651 265.63 191.146 266.635 191.967 266.522C192.808 266.407 193.535 265.842 193.94 265.096C196.985 259.492 207.753 238.89 213.373 227.591C214.951 224.419 214.637 224.325 211.941 226.624C211.719 226.814 211.526 226.966 211.312 227.165C208.737 229.572 211.262 225.226 207.707 232.101C206.654 233.925 204.963 235.347 204.229 237.321C203.814 238.438 203.402 239.558 202.916 240.4C201.578 242.717 201.287 244.776 199.949 247.093C198.611 249.41 197.071 252.077 195.92 254.071C194.582 256.388 193.365 259.242 192.416 260.886C191.129 263.115 190.597 262.995 190.634 264.801ZM246.208 242.786C245.957 243.221 245.971 243.761 246.244 244.183C246.537 244.636 246.528 245.219 246.238 245.673C245.346 247.069 244.825 248.14 244.317 248.98C242.857 251.393 240.238 253.288 238.769 255.696C238.431 256.25 238.056 257.208 237.624 259.145C236.113 263.518 240.453 264.595 242.418 260.406C242.613 259.992 242.788 259.587 242.942 259.2C243.443 257.941 243.885 256.648 244.525 255.454L248.151 248.692C248.811 247.461 248.694 246.09 248.622 244.695C248.44 241.844 248.713 240.738 248.432 239.902C248.234 239.316 247.3 239.637 247.447 240.237C247.5 240.455 247.462 240.615 247.35 240.809L246.208 242.786ZM202.107 369.215C200.777 370.299 200.081 372.11 199.062 373.489C198.534 374.204 198.013 374.811 197.438 376.228C195.136 380.216 197.722 377.29 193.934 383.043C192.072 385.524 191.193 388.537 190.003 391.407C189.24 392.727 189.104 392.217 188.14 393.888L181.112 405.314C180.839 405.787 180.541 406.672 180.252 407.39C180.04 407.919 179.82 408.354 179.641 408.895C178.223 413.186 174.964 410.132 176.271 405.806C177.642 401.267 179.618 396.836 180.999 392.459C181.888 389.609 187.153 377.012 188.736 372.32C188.98 371.595 188.648 371.388 188.334 372.085C188.274 372.219 188.157 372.35 188.039 372.436C187.358 372.926 186.552 373.644 186.21 374.236C185.634 375.233 186.883 374.625 185.771 375.743C184.11 377.874 184.911 375.678 182.22 380.339L175.076 393.458C174.442 395.128 173.509 396.878 172.808 398.821C172.394 399.97 171.37 400.734 170.609 401.689C169.502 403.081 167.124 404.812 167.638 403.11C167.799 402.576 168.115 401.841 168.265 400.826C168.286 400.681 168.314 400.537 168.355 400.396C168.503 399.878 168.676 399.244 168.882 398.558C169.358 396.973 168.84 396.582 167.743 397.821C167.636 397.941 167.536 398.072 167.445 398.204C167.141 398.642 166.692 399.069 166.247 399.496C165.331 400.375 164.516 401.369 163.754 402.384C162.217 404.43 161.074 406.799 159.711 408.513C157.848 410.994 155.787 413.756 153.924 416.237C149.655 422.956 145.142 419.449 144.335 416.42C144.175 415.815 144.42 415.237 144.603 414.638C144.729 414.225 144.669 413.75 144.709 413.321L145.08 409.37C146.374 399.484 156.097 380.345 157.469 374.922C158.399 371.374 160.731 367.03 161.992 363.424C162.358 362.376 161.665 361.217 160.677 361.722C157.839 362.717 152.99 363.856 149.339 363.387C148.593 363.292 148.532 362.675 149.28 362.741C149.378 362.75 149.509 362.742 149.604 362.716L152.603 361.911C153.306 361.722 153.971 361.396 154.674 361.206C154.822 361.166 154.985 361.121 155.174 361.054C155.704 360.866 156.22 360.636 156.77 360.523C157.329 360.409 157.898 360.321 158.459 360.238C161.865 359.735 161.162 358.516 157.723 358.364C157.043 358.334 156.322 358.183 155.553 357.828C154.825 357.493 154.639 356.586 154.146 355.954C153.756 355.454 153.023 355.353 152.209 355.303C151.245 355.245 151.012 354.239 151.792 353.668C152.406 353.218 152.447 352.316 151.861 351.829C150.479 350.679 150.575 350.806 150.567 348.975C150.564 348.26 150.169 347.608 149.55 347.251L149.227 347.064L148.904 346.878C149.703 344.775 152.683 346.004 150.004 342.846C149.796 342.601 149.593 342.346 149.436 342.065C148.697 340.744 148.223 339.032 148.117 337.799C148.105 337.652 148.132 337.437 148.165 337.293C148.42 336.154 147.136 336.205 146.553 337.216C145.956 338.25 145.394 339.224 144.683 340.454C144.108 341.451 143.532 342.448 142.957 343.444C142.817 343.687 142.563 344.127 142.366 344.468C142.256 344.658 142.226 344.884 142.283 345.095C142.394 345.509 142.162 345.931 141.8 346.16C139.628 347.541 139.359 351.094 136.828 354.06C133.091 358.979 133.001 360.688 130.143 362.594C129.78 362.842 129.464 362.995 129.146 363.15C128.486 363.472 127.875 364.035 127.453 364.636C125.97 366.746 124.248 368.857 123.204 371.216C122.477 372.859 121.611 374.625 120.873 375.765C120.574 376.227 120.273 376.688 119.825 377.008C118.949 377.634 118.089 378.383 117.65 379.366C117.624 379.426 117.597 379.487 117.571 379.548C117.237 380.332 116.737 381.025 116.16 381.652L115.829 382.01C115.032 382.875 114.323 383.821 113.794 384.872C113.287 385.88 113.045 386.373 111.631 387.759C110.431 388.841 109.533 390.09 108.333 391.172C107.046 392.656 107.474 391.107 104.849 394.908C101.784 400.216 102.313 397 100.399 400.314L99.4426 402.336C98.8143 403.663 96.7255 404.402 96.9236 402.947C97.0676 401.889 96.2266 400.876 95.2197 400.522C92.8152 399.677 93.5449 398.205 94.7442 394.822C94.9968 393.639 95.3857 392.965 95.6115 391.766C95.6183 391.734 95.6256 391.703 95.6334 391.671C96.1733 389.479 97.3838 387.5 98.2506 385.415C99.1622 383.223 100.219 381.104 101.012 378.866C101.34 377.943 101.672 377.013 102.051 376.013L107.371 364.5C107.562 364.169 107.685 363.909 107.769 363.681C108.293 362.254 108.687 360.809 109.314 359.425C109.746 358.473 110.04 357.46 110.38 356.472C110.855 355.089 111.006 354.351 112.034 352.57C112.61 351.573 112.423 351.897 112.999 350.9L141.368 295.61C142.13 294.29 142.772 292.433 143.145 291.786C144.483 289.469 145.245 288.149 146.396 286.155L155.493 268.846C156.71 265.992 160.996 260.061 161.485 257.721C161.964 255.339 175.909 231.992 176.485 230.995C178.534 228.191 186.343 212.366 189.034 207.705C191.846 203.581 193.639 199.73 195.875 196.602C198.177 192.615 201.378 187.817 203.478 184.179C204.054 183.182 204.493 181.676 205.255 180.356L207.169 177.042C207.728 176.073 208.322 175.248 208.918 174.438C211.162 171.388 212.964 168.026 215.09 164.893L226.784 147.664C232.151 138.369 237.88 134.599 242.088 124.204C242.916 122.023 245.152 118.896 245.794 117.039C248.185 111.343 251.437 105.712 254.517 100.377C257.192 95.7426 260.303 92.6531 263.504 87.8551C267.044 81.7246 272.528 75.8681 277.09 70.2812C277.349 69.965 277.575 69.6243 277.801 69.284C278.124 68.7964 278.46 68.3779 278.776 67.981C279.418 67.1764 280.284 66.4351 280.799 65.5441C280.985 65.2207 281.561 64.2238 281.561 64.2238C281.561 64.2238 281.825 63.8031 281.983 63.6107C285.097 59.8025 288.795 56.3315 291.878 52.5058L315.986 25.2912C317.274 23.8072 322.096 17.754 323.344 17.1455C324.479 16.5922 327.367 14.8528 328.718 13.7011C328.961 13.4934 329.187 13.1558 329.379 12.8991C330.392 11.5389 331.493 14.3499 330.797 15.8968C329.489 18.8082 327.46 22.3223 326.184 24.5326L322.61 29.9773C321.847 31.2975 321.458 31.9711 320.883 32.968L317.955 38.7856C316.803 40.7794 315.143 42.9101 314.128 45.4136C312.179 50.3014 309.902 52.1082 307.315 56.4726C307.172 56.7152 307.061 56.9764 306.979 57.2462C306.738 58.0413 306.442 58.9755 306.281 59.8927C306.092 60.969 307.343 61.662 308.433 61.7366C308.611 61.7488 308.802 61.7349 308.972 61.6801C309.044 61.6571 309.109 61.6342 309.169 61.6115C310.499 61.1069 310.856 62.8943 310.296 64.2022L308.699 67.9293C307.832 70.9851 301.388 78.2934 301.03 81.2123C300.785 82.3615 302.468 82.3587 303.263 81.4932C306.546 77.9188 312.448 70.1775 315.241 67.2875C318.257 64.3039 320.213 60.2653 323.3 57.6987C323.462 57.5642 323.52 57.4518 323.702 57.3472C323.859 57.2572 324.121 57.4308 324.235 57.5713C325.553 59.1941 324.305 59.3533 324.645 61.6882C325.074 64.8464 323.209 66.6803 321.634 68.6821C320.48 70.1502 320.406 72.1368 319.473 73.7542C319.273 74.0994 318.976 74.6143 318.681 75.1251C318.222 75.9208 317.214 75.8409 317.779 76.5652C317.839 76.6422 317.922 76.7465 318.031 76.8844C318.055 76.9137 318.102 76.9506 318.135 76.9693C318.365 77.1023 318.356 77.5767 318.091 77.6018C318.014 77.6092 317.915 77.6118 317.785 77.6086C317.716 77.6068 317.649 77.5871 317.59 77.5529C317.578 77.5459 317.564 77.5383 317.55 77.5301C317.253 77.3581 316.871 77.465 316.707 77.7668L309.474 91.0093C308.656 92.4273 307.378 94.0551 306.213 95.7229C303.338 99.8388 306.481 101.958 310.218 98.6054C310.893 98 311.768 97.7077 312.414 97.0717C312.543 96.9442 312.71 96.7682 312.928 96.524C313.827 95.7135 313.827 95.7135 314.589 94.3933C314.918 93.8229 315.283 93.2775 315.679 92.7693C316.887 91.2154 318.7 91.8713 317.716 93.5761L310.945 106.049C309.981 107.719 310.37 107.046 310.117 108.229C309.812 109.472 309.248 110.664 308.681 111.821C307.426 114.382 306.54 117.088 304.914 119.431C304.587 119.901 304.279 120.571 303.953 121.95C303.438 124.046 302.057 124.845 301.607 126.636C301.309 127.824 301.045 128.985 300.28 129.94C300.09 130.177 299.926 130.432 299.735 130.669L296.86 134.236C294.997 136.717 294.118 139.73 292.831 141.214L289.833 145.662C288.359 147.47 287.207 149.463 286.193 151.967C285.236 154.822 286.93 156.377 288.998 154.188C292.638 150.336 296.588 144.712 297.552 143.042C299.466 139.728 299.808 136.836 302.732 134.07C304.556 132.465 304.07 131.753 305.731 129.622C306.816 128.488 308.13 127.02 309.216 125.886C311.173 123.279 313.952 121.097 315.846 118.444L324.127 106.846C324.347 106.538 324.757 106.191 325.03 105.929C326.236 104.773 327.074 105.811 326.445 107.359C325.588 109.466 324.325 111.957 323.71 113.023L317.768 123.316C317.192 124.312 315.368 125.918 313.642 128.909C312.746 130.46 311.745 131.944 310.682 133.385C310.528 133.593 310.383 133.807 310.254 134.03L292.533 163.171C291.77 164.492 290.872 165.302 289.907 166.973L277.132 185.247C276.371 186.565 275.738 187.991 274.698 189.103C274.634 189.171 274.566 189.244 274.495 189.32C274.246 189.588 274.026 189.882 273.843 190.198C273.251 191.224 272.87 191.884 272.205 193.036L262.965 206.741C261.864 208.09 260.285 209.403 259.183 211.246C258.41 212.54 258.506 214.084 258.294 215.576C258.169 217.646 257.124 218.322 256.994 220.054C256.935 220.845 257.768 221.349 258.374 220.839C258.468 220.76 258.562 220.683 258.671 220.61C259.282 220.196 260.175 220.786 259.707 221.356C259.383 221.75 259.181 222.453 259.645 222.666C260.647 223.125 262.336 223.364 263.012 222.754C264.533 221.415 266.674 217.36 267.325 214.749C267.545 213.863 267.655 212.921 267.548 212.015C267.415 210.88 267.408 209.715 267.695 208.609C267.721 208.507 267.75 208.404 267.782 208.299C268.091 207.265 268.284 206.204 268.43 205.135C268.742 202.843 269.447 200.259 270.63 198.808C271.452 197.861 271.797 196.828 272.48 196.059C273.337 195.096 274.791 195.029 275.872 194.327C275.893 194.313 275.913 194.299 275.933 194.285C276.735 193.736 277.133 192.796 276.972 191.837C276.7 190.218 277.825 189.826 279.09 190.872C279.314 191.057 279.59 191.252 279.937 191.459C280.677 191.902 281.618 191.886 282.266 191.318C284.214 189.608 285.775 186.373 286.746 184.69C289.049 180.703 294.633 173.329 296.935 169.342C297.324 168.668 297.414 166.959 297.803 166.286C297.989 165.963 298.312 166.149 298.312 166.149C298.491 166.252 298.719 166.191 298.822 166.012C303.517 158.54 308.448 151.879 313.216 144.603C314.452 142.718 315.704 141.013 317.129 139.267C318.652 137.403 320.076 135.285 321.343 133.239C322.106 132.005 322.897 130.822 323.462 130.232C324.153 129.51 324.47 129.461 324.941 129.138C325.74 128.589 326.227 127.707 326.74 126.884C327.143 126.238 327.542 125.684 328.037 125.197C328.165 125.071 328.243 124.992 328.338 124.84C329.267 123.355 330.138 123.91 329.127 125.341C326.8 128.64 324.39 131.725 323.914 134.049C323.577 135.202 319.042 142.754 316.029 148.496C315.677 149.167 316.39 149.589 316.84 148.979C317.207 148.481 317.779 148.717 317.563 149.297C316.667 151.707 314.563 154.905 313.674 156.445L313.275 157.287C312.252 159.444 310.963 161.414 310.205 163.678C309.987 164.331 309.616 165.11 309.336 165.74C305.798 173.683 285.836 203.973 277.95 218.811C275.65 223.141 272.741 228.027 270.29 232.273C269.499 233.641 268.709 235.01 267.839 236.517C266.541 238.766 266.035 241.469 264.297 243.398C262.434 245.879 263.655 245.255 262.706 246.899C261.78 248.503 260.627 249.86 259.794 251.515L258.117 254.847C257.153 256.517 257.826 256.906 255.951 259.344L247.384 273.438C247.197 273.761 246.167 276.292 245.794 276.938C245.405 277.612 243.557 280.066 243.168 280.739C242.406 282.06 241.765 283.917 241.002 285.237L235.303 296.532C235.103 296.93 235.396 297.65 235.619 297.264C235.841 296.88 236.5 297.115 236.263 297.49C235.468 298.746 233.869 300.507 232.431 302.382C231.241 304.443 230.878 306.853 229.626 308.878C228.8 310.212 227.989 311.76 225.603 318.808L216.666 341.603C216.4 342.283 216.273 342.951 215.922 343.59C215.404 344.531 214.973 345.599 214.622 346.613C214.468 347.058 214.309 347.504 214.034 347.982C212.696 350.299 213.322 348.469 212.12 351.296C209.986 358.038 210.343 355.119 208.803 357.787C207.537 359.98 206.532 362.556 205.405 364.953C204.604 366.657 203.565 368.025 202.107 369.215Z" fill="#E40808"/>
<g filter="url(#filter0_d_1403_3718)">
<path fill-rule="evenodd" clip-rule="evenodd" d="M217.131 186.49C216.012 184.764 215.32 185.963 218.352 183.478L221.628 180.572C222.485 179.986 222.788 178.562 224.094 177.198L226.981 174.067C228.979 171.503 230.093 170.547 232.334 167.562L234.801 164.188C235.882 163.213 236.527 163.067 238.193 162.948L237.22 161.868C239.414 159.936 238.029 162.335 239.19 160.325C240.575 157.926 241.043 157.116 243.219 155.217C243.832 155.052 244.075 154.631 244.075 154.631L245.156 153.656C247.389 154.426 246.354 154.347 248.166 154.875L244.947 160.45C244.418 162.263 244.947 160.45 244.839 162.506C244.956 164.173 244.535 163.93 244.039 165.762C243.511 167.574 243.239 169.017 242.322 170.605C241.55 172.84 241.016 171.969 240.245 174.204C238.167 177.802 237.98 180.893 236.956 184.537L233.082 194.014C231.286 199.892 228.212 206.114 225.217 211.301C221.834 216.263 219.57 222.952 216.351 228.528L189.171 282.036C187.562 284.824 185.016 289.232 184.02 291.856C182.06 297.121 182.167 295.065 180.497 298.855C177.423 305.077 173.961 311.074 170.274 317.46L165.201 326.245C164.284 327.834 163.709 330.7 161.594 331.596C161.673 330.562 161.477 329.93 161.78 328.506C162.58 325.251 165.126 320.842 166.735 318.054C168.588 314.845 176.172 295.277 179.438 288.648C181.576 284.048 183.536 278.782 185.693 274.149C187.663 272.607 185.305 273.925 187.359 274.031C186.465 271.915 186.465 271.915 187.85 269.516L195.924 245.435C196.228 244.011 195.924 245.435 196.228 244.011L196.336 241.955C195.83 240.064 196.949 241.79 195.217 240.228C194.056 242.238 194.22 242.852 192.447 245.026C191.286 247.036 191.675 247.26 190.533 249.238C189.373 251.248 188.984 251.023 188.231 253.225C187.656 256.091 185.237 258.412 184.24 261.035C182.855 263.434 183.665 263.901 182.972 265.101L177.783 272.219C175.317 275.593 173.628 279.416 171.939 283.238C171.247 284.438 169.941 285.802 169.473 286.612C168.556 288.201 169.005 287.423 168.701 288.846C167.784 290.435 167.62 289.822 167.152 290.632C166.684 291.442 166.741 294.112 164.196 298.52C163.503 299.72 162.197 301.084 161.505 302.283L158.403 309.526C156.714 313.349 153.635 316.887 152.17 320.321C151.01 322.331 149.761 326.364 147.955 328.52L143.964 336.33C142.968 338.953 141.049 340.482 140.052 343.105C139.281 345.339 130.025 362.342 129.333 363.542C126.67 366.283 127.644 367.364 125.81 370.541C124.261 372.327 122.427 375.503 121.655 377.738C120.883 379.972 119.517 382.338 118.132 384.737C117.215 386.326 116.583 386.523 115.89 387.722C115.118 389.956 116.007 389.389 114.669 390.734C113.813 391.321 112.311 392.053 111.473 392.606L103.018 406.354C101.857 408.363 99.6344 411.316 99.3305 412.74C98.5305 415.995 98.802 414.553 97.7209 415.528C96.4434 415.871 96.1719 417.313 95.0584 418.27L91.862 420.141C87.224 421.743 88.5257 424.05 84.4879 432.914C82.799 436.736 81.2687 438.489 80.3329 440.11C79.6404 441.31 80.029 441.534 79.1119 443.123C78.644 443.933 77.1419 444.665 76.8704 446.107L73.4834 452.797C73.1417 451.519 73.2588 453.186 73.3663 451.13L73.8342 450.319C73.2492 449.463 72.7153 448.593 71.2737 448.322L71.1566 446.655C71.3812 446.266 70.9926 446.042 70.9926 446.042C71.1001 443.986 72.2136 443.03 72.4851 441.587C73.1776 440.388 73.3416 441.001 73.9872 440.855C73.9872 440.855 73.9872 440.855 74.2118 440.466L73.4021 439.999C72.8171 439.142 73.1776 440.388 73.2381 439.386C73.7666 437.573 75.1985 434.12 75.727 432.308C76.4988 430.073 76.9948 428.242 77.7479 426.04C78.2764 424.227 80.1293 421.018 80.4008 419.575C80.7516 417.098 79.7779 416.017 80.7743 413.394C81.6914 411.806 82.7725 410.83 83.0764 409.407C83.8763 406.151 84.5688 404.952 85.9538 402.553C86.0331 401.518 85.8367 400.886 86.5292 399.687C86.8331 398.263 87.2217 398.487 87.5256 397.064C88.2974 394.829 88.4654 391.771 90.5202 391.877C90.8709 389.399 89.6636 392.463 90.6276 389.821C92.0126 387.422 90.7069 388.786 91.8955 385.755L80.4739 403.668C78.5604 407.88 75.2378 411.84 72.4865 416.605C70.6336 419.815 65.2295 431.045 62.1784 433.562C61.7898 433.338 59.5573 432.567 58.1158 432.297C56.061 432.191 56.3044 431.77 55.1343 430.057C54.4418 431.257 54.1379 432.68 53.2208 434.269C52.3038 435.857 51.4472 436.443 50.5302 438.032C46.5392 445.842 46.3752 445.228 41.8785 451.147L38.9763 447.872C38.9763 447.872 38.9763 447.872 38.7517 448.261L39.0503 448.866C39.392 450.144 39.392 450.144 38.6995 451.343C37.3373 450.038 38.3109 451.119 38.1145 450.487C37.7728 449.209 38.0767 447.785 38.3806 446.361C39.3769 443.738 39.1805 443.106 39.5637 440.647C37.8976 440.766 38.7072 441.233 37.0598 441.32L34.8273 440.549C35.2387 437.07 36.2123 438.151 35.318 436.035L34.4518 432.898L37.1991 431.805C35.0272 430.032 35.1443 431.699 35.2705 429.611C34.9288 428.333 36.763 425.156 37.2309 424.345L37.193 421.644C39.0838 421.136 38.8592 421.525 40.5066 421.439C39.9216 420.582 39.533 420.358 38.9666 419.469C39.8232 418.883 40.2442 419.126 40.9367 417.927C39.3498 417.011 39.1252 417.4 39.0081 415.733C40.4309 416.036 40.0423 415.811 40.8988 415.225C40.5571 413.947 40.5571 413.947 39.3589 413.255L39.8268 412.445C41.0478 409.433 41.4591 405.953 43.3967 404.392L42.4231 403.311C43.1156 402.112 43.1949 401.077 43.2231 400.056C43.3024 399.021 43.3024 399.021 43.106 398.389C43.1852 397.354 43.7192 398.224 43.1852 397.354C42.4927 398.554 42.0248 399.364 41.5757 400.142L35.8904 409.092C33.0598 414.892 28.9145 425.811 22.3534 427.902C22.0723 425.621 21.4591 425.786 21.506 424.732C21.3889 423.066 22.0814 421.866 22.9985 420.278C23.3871 420.502 22.306 421.477 24.0327 420.356C23.3629 417.852 22.6098 420.053 23.6062 417.43C24.4062 414.175 26.4368 411.63 27.2555 408.342L30.0951 398.787C30.563 397.977 30.399 397.363 31.0915 396.164L33.2764 390.51C34.4974 387.497 35.6956 388.189 36.107 384.709L36.1863 383.675C36.4108 383.286 36.4108 383.286 36.4108 383.286L36.9015 378.771C36.9808 377.736 37.43 376.958 37.8979 376.148C38.3658 375.337 37.8979 376.148 38.7544 375.562C39.6109 374.976 38.9184 376.175 38.979 375.173C39.0583 374.138 38.4732 373.282 39.3903 371.693C40.3074 370.105 40.2469 371.107 41.9736 369.986C41.1261 366.817 41.0792 367.87 42.6282 366.085C44.1772 364.299 43.6246 363.462 44.3171 362.262C44.1531 361.649 44.8456 360.449 45.3135 359.639C46.006 358.44 46.6985 357.24 47.3909 356.041C47.6155 355.652 48.0834 354.841 48.308 354.452C49.2251 352.864 48.308 354.452 48.6119 353.028C49.1873 350.162 51.7932 344.751 53.1782 342.352C54.3386 340.342 53.1782 342.352 54.4839 340.988C56.95 337.614 56.2803 335.11 57.5013 332.097C59.073 326.608 63.1018 321.499 64.5337 318.047C65.9368 314.794 67.5463 312.006 69.6238 308.408C71.3974 306.233 72.3938 303.61 73.7788 301.211L81.9907 287.885C83.1511 285.875 84.906 283.733 86.0664 281.723L94.2502 269.419C96.0238 267.244 97.4088 264.845 98.5504 262.868C99.4675 261.279 99.6316 261.893 100.745 260.936C102.715 259.394 110.82 248.124 112.369 246.338L121.048 232.202C123.575 227.825 130.393 217.887 133.387 212.7C136.302 208.548 143.929 199.077 147.233 195.15C152.119 189.455 160.078 177.539 163.157 174.001C164.014 173.415 172.501 159.686 175.113 156.958L203.071 117.731C203.764 116.532 204.456 115.332 205.879 115.635C205.772 117.691 202.66 121.211 201.724 122.832C200.807 124.42 202.066 124.109 200.26 126.265L193.19 137.614C187.083 146.32 183.045 155.184 177.36 164.134L179.555 162.202C180.411 161.616 180.411 161.616 181.282 161.081L221.936 110.036C223.241 108.672 223.906 108.494 225.211 107.13C226.527 109.489 225.132 108.165 226.106 109.246C230.074 105.14 232.718 102.43 234.88 100.48C236.429 98.6945 235.348 99.6695 236.382 99.748C238.273 99.2403 236.607 99.359 238.109 98.627C239.658 96.8415 237.603 96.7357 240.224 97.7303C239.064 99.7402 237.533 101.493 235.952 103.26C233.982 104.803 233.757 105.192 232.372 107.59L227.604 114.952C225.751 118.161 224.502 122.194 221.84 124.936L218.924 129.088C218.456 129.899 217.619 130.452 216.683 132.073C214.441 135.058 212.528 139.27 210.062 142.644C208.288 144.818 207.535 147.02 206.599 148.641C206.131 149.451 205.682 150.229 204.826 150.815L199.59 158.987C196.067 165.987 191.855 170.514 190.059 176.392C189.287 178.627 186.208 182.165 186.409 185.48C186.409 185.48 186.798 185.705 187.023 185.316C189.381 183.998 192.072 180.235 193.635 178.5C193.859 178.111 194.327 177.301 194.94 177.136C198.969 172.028 203.513 165.056 207.87 161.174C210.677 159.078 212.18 158.346 213.953 156.171C218.146 151.676 220.565 149.356 225.699 145.923C228.507 143.827 228.362 143.181 231.596 144.011L225.752 155.031C223.675 158.629 224.952 158.286 225.037 159.934C223.31 161.055 223.731 161.298 222.374 162.676C221.906 163.486 220.648 163.797 220.18 164.607C218.874 165.971 217.653 168.984 216.881 171.218C216.189 172.417 213.723 175.791 212.806 177.38C212.581 177.769 212.113 178.579 212.113 178.579C210.339 180.754 211.341 180.813 210.424 182.402C209.732 183.601 208.005 184.722 207.509 186.554L209.704 184.622L208.707 187.246C209.741 187.324 209.517 187.713 210.715 188.405C210.023 189.604 209.33 190.804 209.494 191.417C210.996 190.685 211.464 189.875 212.302 189.321C214.66 188.003 214.964 186.579 215.966 186.639L217.131 186.49Z" fill="#086DE4"/>
</g>
<g filter="url(#filter1_d_1403_3718)">
<path fill-rule="evenodd" clip-rule="evenodd" d="M146.635 206.229C147.516 206.738 147.364 207.541 147.195 208.333L145.739 207.782L145.092 208.901C144.967 209.118 144.707 209.569 144.446 210.021C143.675 211.357 143.736 210.212 143.63 211.933C142.768 212.927 142.068 213.101 141.422 214.22C140.82 214.764 140.139 216.441 139.754 217.109L138.427 219.906C137.179 221.569 137.209 223.054 135.818 224.924L136.034 225.048C135.908 225.265 135.773 225.5 135.648 225.716C135.002 226.836 134.305 229.081 133.209 229.941C131.863 231.234 132.823 230.609 132.177 231.729L126.851 241.991L125.611 241.563L124.068 244.236L123.062 243.943C122.48 245.99 122.801 244.395 123.558 245.12C122.786 246.456 122.445 246.548 121.89 248.009L121.07 246.356C121.411 246.264 121.195 246.139 121.195 246.139L120.144 246.423L119.667 246.75C119.576 246.409 119.712 246.174 119.387 245.698L117.995 246.073C117.87 246.29 117.87 246.29 117.87 246.29L118.195 246.766C118.07 246.983 118.15 247.342 118.15 247.342C118.241 247.684 118.214 248.27 118.305 248.611C117.73 248.568 117.73 248.568 117.469 249.02C117.344 249.236 117.174 250.029 117.148 250.615L115.367 249.587L114.92 251.4L116.448 250.789C116.387 251.933 116.062 251.457 116.818 252.183L116.092 252.943L115.967 253.159L114.466 253.184L114.25 253.059C114.061 252.348 113.845 252.223 114.095 251.79C113.835 252.241 113.835 252.241 113.8 252.799C113.891 253.141 114.016 252.924 113.756 253.375L114.205 253.635C114.915 253.443 114.546 253.543 115.347 253.692C115.086 254.144 114.701 254.812 114.315 255.48C113.048 255.639 113.74 255.437 113.139 255.98C113.434 254.971 113.849 255.789 112.518 255.02C112.473 255.596 112.582 255.948 111.656 256.015C111.845 256.726 111.611 256.591 110.885 257.351C110.56 256.875 110.344 256.75 110.264 256.391C110.048 256.266 110.048 256.266 110.048 256.266L109.724 255.79C109.013 255.982 109.247 256.117 108.223 255.814C108.412 256.525 108.287 256.742 107.776 257.627L107.11 257.242C107.11 257.242 107.326 257.367 107.201 257.584L107.606 258.419C106.491 257.775 105.7 257.608 104.917 257.469C105.348 256.225 105.625 255.205 105.345 254.153L106.305 253.528C105.935 252.134 106.215 253.186 106.502 252.149C105.712 251.981 105.126 251.956 104.695 251.707C103.769 251.774 104.604 251.366 103.734 252.332C104.554 253.985 104.014 253.384 102.993 255.154C101.541 258.167 102.035 257.851 99.7627 259.211C97.7244 260.706 99.4678 260.22 96.8087 260.755C94.5813 261.54 94.4306 263.836 93.768 265.524L92.9326 265.932C92.2863 267.052 92.6377 266.941 92.1165 267.844C91.5609 269.305 90.2939 269.464 88.7512 272.136L86.6529 276.269C85.3859 276.428 85.6924 276.894 84.8751 277.313L82.0014 279.217C81.461 278.616 80.4814 277.737 81.8915 277.372C81.0101 276.863 81.0369 276.277 81.2068 275.484C81.3738 272.619 84.2547 261.524 85.0424 259.619C86.1995 257.615 86.3665 254.751 87.3078 252.622C87.4329 252.405 90.9 242.828 90.6203 241.776C89.6598 242.401 89.3992 242.852 88.8617 244.323C88.0903 245.659 87.9013 244.948 87.0391 245.943L86.0519 247.154C84.8757 247.655 85.4772 247.112 84.1654 247.847C83.5639 248.39 83.5639 248.39 82.5127 248.674C82.002 249.559 81.5715 250.803 80.1794 251.179C79.4692 251.37 79.6047 251.136 78.6786 251.203C76.7014 251.554 77.4576 252.279 77.5663 252.631C77.5215 253.207 77.3964 253.424 77.5052 253.775C77.3353 254.568 77.2102 254.784 76.6087 255.328C75.3685 254.901 75.2166 255.704 74.2458 256.347L74.7414 257.524C73.5843 259.528 72.8549 258.216 71.9584 259.769L72.3633 260.604C71.5012 261.599 71.9776 261.272 70.8014 261.773C70.6315 262.566 70.7566 262.349 70.8653 262.701C70.8205 263.277 70.9561 263.042 70.5704 263.71L69.7798 263.542L68.9473 266.023L68.4709 266.349L69.4609 267.21C68.8146 268.329 68.6255 267.618 68.6447 269.122L67.2271 271.577C67.2271 271.577 67.102 271.794 66.8414 272.245C66.8414 272.245 65.8542 273.457 65.4953 273.539C64.2742 274.615 64.508 274.75 63.8274 276.427L63.4865 276.519C63.4865 276.519 63.4865 276.519 63.3614 276.736C61.9693 277.112 64.088 275.976 63.0205 276.828C62.8238 278.207 62.0792 278.957 61.092 280.168C60.3654 280.928 59.3754 280.068 58.184 282.63L57.0496 282.601C56.7547 283.61 56.7547 283.61 56.0624 283.812C55.0113 284.096 55.7215 283.904 54.9205 283.755C47.9289 283.57 51.8649 275.756 52.8836 271.914C54.7633 265.585 57.6493 259.548 59.7628 253.354L62.2172 247.067C64.4826 240.07 66.8607 236.989 68.3738 232.831C68.3738 232.831 69.4058 231.044 69.656 230.611L71.9062 225.675C72.4169 224.79 72.1028 224.296 72.4885 223.628C73.616 220.138 75.2495 217.807 76.5124 214.083C77.4537 211.954 80.4141 206.827 81.3553 204.698C82.4217 202.352 84.1803 199.805 85.4624 197.584L86.4944 195.797C88.7178 191.447 94.6282 181.21 97.1134 177.902L102.147 170.722C105.187 165.953 109.172 161.128 112.338 156.143L115.738 151.293C117.28 148.621 119.909 145.107 121.712 141.984C124.276 137.542 126.806 133.659 129.74 129.117C130.602 128.123 131.147 126.68 131.794 125.561C132.656 124.566 133.041 123.898 133.677 122.796C134.323 121.677 135.534 120.619 135.821 119.581C136.082 119.129 136.779 116.884 137.814 117.168C137.814 117.168 137.814 117.168 137.939 116.952C137.75 116.241 137.784 115.683 138.646 114.688L139.759 113.26C141.471 109.795 147.034 103.233 149.609 98.7735C150.766 96.7694 152.237 95.2597 153.394 93.2556L157.701 86.8348C159.398 85.4316 162.008 80.4141 164.296 78.4855C165.023 77.7254 165.544 76.8226 166.289 76.0729C166.89 75.5295 167.51 74.9965 168.236 74.2364C168.963 73.4763 168.497 73.785 169.332 73.3766C171.344 72.4676 171.064 71.4154 172.592 70.8048C173.132 71.4057 173.321 72.1167 173.367 73.0339L173.45 75.4652C173.514 76.3928 173.926 75.1384 173.514 76.3928L172.171 79.7579C170.763 82.1953 161.873 96.0565 161.193 97.7338C161.068 97.9505 160.898 98.7431 160.637 99.1945C160.377 99.6459 160.421 99.0699 159.991 100.314C159.544 102.126 157.363 103.828 157.616 105.466C160.104 104.231 162.607 100.933 164.895 99.0049L167.319 96.8416C168.046 96.0815 168.801 95.3137 169.744 94.6782C170.47 93.9182 171.305 93.5097 172.032 92.7496C176.279 88.9664 173.764 90.7885 176.899 89.9266C177.754 91.0218 177.224 90.4029 178.68 90.9547C178.699 92.4583 177.648 92.7421 176.887 94.0601C176.501 94.7282 176.457 95.3041 176.305 96.1072C176.135 96.8998 176.135 96.8998 175.983 97.7028C175.722 98.1542 175.212 99.0389 174.951 99.4903C173.219 101.451 173.9 99.7741 171.721 103.548C170.314 105.985 169.623 107.68 167.864 110.228C166.582 112.449 164.995 115.697 163.587 118.134C165.179 118.451 164.423 117.726 165.754 118.494C166.124 119.888 165.012 121.316 164.815 122.695C164.43 123.363 164.619 124.074 164.108 124.959L161.347 130.779C160.916 132.023 159.94 133.217 159.293 134.336L158.477 136.248C157.445 138.035 156.083 139.897 155.392 141.592C154.809 143.639 154.62 142.928 153.849 144.264L151.751 148.397C151.625 148.614 151.024 149.157 150.719 150.185L148.54 153.958C147.813 154.718 148.064 154.285 147.643 155.511C149.08 154.559 153.944 148.171 156.402 145.45C161.329 139.989 158.44 143.954 161.916 141.507C163.137 140.431 162.365 141.767 165.75 138.978C170.121 134.979 169.842 133.926 171.929 135.42L171.653 137.933C172.613 137.308 174.217 133.492 175.234 133.766L171.899 139.543C171.468 140.787 170.677 140.62 171.282 142.148C172.182 144.161 171.777 143.325 173.297 144.805L174.368 146.024L173.056 146.76C172.58 147.086 171.577 150.359 171.066 151.244C170.681 151.912 170.465 151.787 170.17 152.797C169.399 154.133 168.688 154.325 168.178 155.209C167.406 156.545 167.084 158.141 166.529 159.602C165.372 161.606 165.478 159.885 165.202 162.398C163.549 163.226 164.106 163.258 163.92 164.619C163.875 165.195 163.625 165.628 163.364 166.08C162.934 167.324 163.383 167.583 162.622 168.901C161.529 171.833 162.097 171.848 162.521 174.187C161.3 175.263 161.919 174.73 161.579 176.316C161.535 176.892 161.454 176.532 161.069 177.2C160.683 177.868 160.774 178.21 160.513 178.661C160.252 179.112 159.911 179.204 159.526 179.872C159.14 180.541 159.636 181.717 159.25 182.385C159.08 183.178 157.938 183.121 156.406 185.775C157.54 187.922 156.671 188.888 155.109 190.057L153.116 192.47C151.709 194.907 151.124 194.882 152.269 197.011L151.622 198.131C151.111 199.016 150.31 198.866 150.31 198.866C150.401 199.207 150.185 199.083 150.185 199.083C149.323 200.078 151.07 201.663 148.903 201.303C147.576 204.1 146.695 203.591 146.635 206.229Z" fill="white"/>
</g>
<defs>
<filter id="filter0_d_1403_3718" x="21.4932" y="93.1018" width="258.673" height="363.695" filterUnits="userSpaceOnUse" color-interpolation-filters="sRGB">
<feFlood flood-opacity="0" result="BackgroundImageFix"/>
<feColorMatrix in="SourceAlpha" type="matrix" values="0 0 0 0 0 0 0 0 0 0 0 0 0 0 0 0 0 0 127 0" result="hardAlpha"/>
<feOffset dx="28"/>
<feGaussianBlur stdDeviation="2"/>
<feComposite in2="hardAlpha" operator="out"/>
<feColorMatrix type="matrix" values="0 0 0 0 0 0 0 0 0 0 0 0 0 0 0 0 0 0 0.15 0"/>
<feBlend mode="normal" in2="BackgroundImageFix" result="effect1_dropShadow_1403_3718"/>
<feBlend mode="normal" in="SourceGraphic" in2="effect1_dropShadow_1403_3718" result="shape"/>
</filter>
<filter id="filter1_d_1403_3718" x="50.8584" y="70.8047" width="142.822" height="233.154" filterUnits="userSpaceOnUse" color-interpolation-filters="sRGB">
<feFlood flood-opacity="0" result="BackgroundImageFix"/>
<feColorMatrix in="SourceAlpha" type="matrix" values="0 0 0 0 0 0 0 0 0 0 0 0 0 0 0 0 0 0 127 0" result="hardAlpha"/>
<feOffset dx="11" dy="16"/>
<feGaussianBlur stdDeviation="2"/>
<feComposite in2="hardAlpha" operator="out"/>
<feColorMatrix type="matrix" values="0 0 0 0 0 0 0 0 0 0 0 0 0 0 0 0 0 0 0.25 0"/>
<feBlend mode="normal" in2="BackgroundImageFix" result="effect1_dropShadow_1403_3718"/>
<feBlend mode="normal" in="SourceGraphic" in2="effect1_dropShadow_1403_3718" result="shape"/>
</filter>
</defs>
</svg>
