<svg width="240" height="633" viewBox="0 0 240 633" fill="none" xmlns="http://www.w3.org/2000/svg">
<g filter="url(#filter0_d_1169_3405)">
<path fill-rule="evenodd" clip-rule="evenodd" d="M176.262 348.959C176.168 348.733 176.342 348.495 176.577 348.562C176.909 348.657 176.781 348.632 177.008 347.254L177.426 345.216C177.463 344.724 177.977 344.261 178.228 343.4L178.83 341.468C179.41 340.037 179.539 339.352 180.235 337.72L181.003 335.981C181.026 335.93 181.044 335.876 181.054 335.821C181.146 335.344 181.108 335.054 180.934 334.634C180.862 334.46 181.01 334.271 181.194 334.31C181.317 334.336 181.439 334.257 181.458 334.132C181.614 333.128 181.067 334.076 181.584 333.18C182.192 332.128 182.428 331.719 182.669 330.603C182.71 330.41 182.682 330.207 182.708 330.012C182.711 329.992 182.715 329.972 182.719 329.955C182.739 329.86 182.777 329.769 182.797 329.675L182.809 329.619C182.872 329.324 182.63 328.886 182.38 328.717C181.934 328.416 181.435 328.642 181.166 329.108L180.297 330.612C180.21 330.764 180.104 330.906 179.982 331.032C179.68 331.342 180.06 330.91 179.345 331.374C178.631 331.722 178.831 331.837 178.195 332.476C177.828 332.86 177.494 333.175 177.191 333.525C176.757 334.027 176.302 334.552 176.117 335.188C175.931 335.825 175.472 336.344 175.076 336.876C174.2 338.056 173.186 338.792 172.153 339.851L169.173 343.697C167.181 345.832 165.352 348.575 163.929 351.039C162.691 353.61 160.476 356.131 158.947 358.78L143.387 382.675C142.622 384 141.413 386.094 140.57 387.127C138.869 389.185 139.69 388.652 138.527 390.24C136.697 392.983 135.052 395.832 133.3 398.866L130.89 403.04C130.655 403.447 130.244 403.901 129.936 404.403C129.584 404.977 130.273 405.435 130.773 404.985C131.922 403.882 133.132 401.788 133.896 400.463C134.777 398.938 141.026 391.169 142.978 388.251C144.334 386.319 145.993 384.307 147.37 382.357C147.428 382.275 147.495 381.985 147.515 381.887C147.606 381.426 147.695 381.541 148.093 381.291C148.319 381.149 148.477 380.893 148.783 380.364C148.829 380.285 148.883 380.21 148.943 380.142L156.843 371.201C157.198 370.881 157.062 371.003 157.114 370.957C157.275 370.811 157.448 370.679 157.63 370.56L158.074 370.272C158.142 370.228 158.339 370.16 158.416 370.131C158.88 369.958 158.914 370.657 158.625 371.059C158.379 371.404 158.166 371.707 157.896 372.384C157.856 372.484 157.81 372.583 157.754 372.675C157.266 373.482 157.073 373.432 156.559 374.323C156.007 375.278 156.192 375.385 155.465 376.218C154.934 376.685 154.575 377.315 154.239 377.958C153.608 379.164 152.508 380.024 151.828 381.203L150.131 385.029C149.329 386.845 148.157 388.448 146.986 390.051C146.657 390.621 146.406 391.482 146.183 391.867C145.807 392.519 145.457 393.125 145.081 393.777C144.858 394.162 143.746 394.773 142.537 396.868C142.208 397.438 141.957 398.299 141.628 398.869L139.385 401.866C138.213 403.469 137.489 405.576 136.424 406.995C136.388 407.056 136.349 407.12 136.307 407.186C134.819 409.522 133.292 411.85 131.786 414.174C130.943 415.208 130.77 416.36 129.927 417.394C129.393 418.009 126.719 422.314 125.167 424.845C124.429 426.048 124.022 427.424 123.05 428.448C122.3 429.238 121.864 430.304 121.342 431.261C120.949 431.982 120.475 432.698 120.048 433.191C119.312 434.039 118.663 435.164 118.005 436.303C117.785 436.685 117.693 436.952 117.614 437.196C117.451 437.703 117.161 438.174 116.724 438.48C116.64 438.539 116.585 438.576 116.534 438.658C116.351 438.956 116.345 439.308 116.346 439.658C116.349 440.471 116.148 441.283 115.762 441.998L112.701 447.657C112.149 448.612 111.463 450.228 110.949 450.692C110.873 450.765 110.804 450.831 110.741 450.892C110.107 451.506 110.226 452.441 109.861 453.246C109.723 453.552 109.687 453.932 109.685 454.268L109.683 454.602C109.68 455.215 109.788 455.826 109.762 456.438C109.7 457.904 108.449 458.403 106.174 461.591C105.002 463.195 104.645 464.241 104.2 465.011C103.871 465.581 103.686 465.474 103.251 466.229C103.048 466.579 103.076 467.267 102.684 467.73C102.605 467.823 102.521 467.912 102.454 468.014L101.021 470.209C100.876 470.431 100.925 470.761 101.145 470.612C101.183 470.586 101.333 470.474 101.356 470.435L101.382 470.389C101.481 470.218 101.668 470.116 101.864 470.137C102.092 470.161 102.318 470.206 102.538 470.327C102.832 470.489 103.183 470.587 103.484 470.44L103.586 470.391C103.652 470.359 103.739 470.258 103.81 470.239C103.943 470.203 104.053 470.217 104.162 470.133C104.801 469.639 104.96 469.048 105.411 468.632C105.441 468.604 105.467 468.573 105.487 468.537C105.714 468.122 105.575 468.086 105.467 467.931C105.434 467.885 105.409 467.786 105.437 467.737C105.455 467.706 105.533 467.629 105.564 467.646L105.821 467.795C105.868 467.822 105.921 467.837 105.974 467.845C106.248 467.882 105.969 467.964 106.055 467.861C106.125 467.777 106.222 467.718 106.296 467.638C106.928 466.949 107.92 465.663 108.505 465.052C109.241 464.204 109.876 463.565 110.604 462.732C111.224 462.084 112.104 460.559 112.633 460.105C112.863 459.925 113.077 459.798 113.282 459.693C114.586 459.027 115.094 457.569 116.182 456.588C117.063 455.742 117.462 455.21 117.897 454.494C118.182 454.026 118.54 453.708 118.959 453.356C119.252 453.109 119.537 452.748 119.736 452.421C119.84 452.249 119.899 452.099 120.204 451.825C120.624 451.34 121.202 450.873 121.521 450.408C121.882 449.882 121.967 449.399 122.377 448.911C122.396 448.889 122.415 448.866 122.435 448.842C122.442 448.833 122.457 448.81 122.463 448.8C122.583 448.593 122.992 448.93 122.882 449.142L119.161 456.296C117.883 458.083 117.043 460.391 115.736 462.655C115.078 463.795 113.048 466.815 111.934 469.042C111.389 470.131 111.9 471.372 112.693 472.296C113.174 473.038 113.678 473.789 113.197 474.53C113.145 474.61 113.094 474.692 113.044 474.779C112.609 475.533 112.571 476.025 112.135 476.78C110.193 479.778 110.13 480.149 109.29 482.245C109.039 482.873 109.411 483.582 110.074 483.717L110.711 483.847C110.783 483.862 110.847 483.843 110.811 483.907C110.782 483.956 110.69 484.059 110.633 484.062L110.454 484.074C110.421 484.076 110.388 484.082 110.356 484.09C110.102 484.159 109.961 484.199 109.854 484.275C109.578 484.47 109.63 484.922 109.96 484.847C110.52 484.697 111.001 484.291 111.475 483.865C111.555 483.794 111.628 483.716 111.696 483.634C112.153 483.088 112.451 482.835 112.803 482.569C113.245 482.235 113.679 482.35 113.876 482.868C113.915 482.971 114.025 483.141 114.109 483.214L114.147 483.247C114.546 483.593 115.153 483.634 115.508 483.244C115.937 482.773 115.756 482.666 116.571 482.565L117.598 482.298C117.865 482.229 118.037 481.969 117.997 481.696C117.938 481.288 118.366 480.951 118.649 481.251C118.772 481.38 118.743 481.382 119.108 481.137C119.185 481.085 119.273 481.049 119.355 481.006C119.839 480.75 120.438 479.82 120.757 479.29C120.87 479.101 121.027 478.944 121.219 478.837L121.625 478.61C121.873 478.472 122.005 478.178 121.902 477.913C121.851 477.783 121.803 477.694 121.752 477.614C121.57 477.33 121.749 477.022 122.082 477.08C122.312 477.121 122.529 476.942 122.505 476.71C122.498 476.65 122.493 476.592 122.494 476.531C122.498 476.19 122.921 476.1 123.207 476.286C123.289 476.34 123.356 476.377 123.426 476.394C123.746 476.472 123.685 475.995 123.748 475.672C123.789 475.466 123.942 475.281 124.147 475.24C124.328 475.203 124.437 475.211 124.593 475.279C124.818 475.377 125.083 475.318 125.206 475.106C126.047 474.027 127.189 473.122 127.566 472.118C127.644 471.91 127.854 471.762 128.072 471.809C128.236 471.844 128.402 471.767 128.5 471.631C128.798 471.215 129.145 470.981 129.497 470.765C129.876 470.505 129.902 470.488 130.152 470.43C130.191 470.422 130.281 470.367 130.309 470.34C130.482 470.179 130.474 470.387 130.356 470.592C130.16 470.931 130.004 471.201 129.853 471.463L127.521 475.929C126.074 478.075 123.348 481.474 122.954 484.403C122.845 485.213 123.814 486.002 124.502 485.563C125.075 485.284 125.4 484.861 125.732 484.315C125.873 484.083 125.997 484.073 125.731 484.02C125.522 483.979 125.842 483.437 126.054 483.413C126.741 483.337 126.266 483.874 127.008 482.964C128.158 481.862 128.722 480.421 129.881 479.304L132.583 476.451C132.951 476.062 133.236 475.714 133.608 475.328C133.854 475.073 134.092 474.694 134.314 474.419L135.788 472.59C136.737 471.372 136.168 471.043 137.502 470.047L137.901 469.774C137.906 469.771 137.92 469.75 137.923 469.745C137.946 469.704 138.143 469.491 138.18 469.464L139.757 468.31C140.164 468.031 140.377 467.661 140.599 467.276C140.822 466.891 140.599 467.276 140.637 466.785C140.675 466.293 140.346 466.863 140.744 466.6C141.151 466.321 141.642 466.359 142.078 465.604C142.533 464.816 143.215 464.381 143.451 463.502C143.485 463.373 143.528 463.195 143.616 462.939C143.703 462.688 143.796 462.498 143.892 462.346C144.356 461.612 145.196 461.055 145.631 460.303C145.96 459.733 146.289 459.164 146.618 458.594C146.724 458.409 146.947 458.024 147.053 457.839C147.489 457.084 147.053 457.839 147.567 457.376C148.61 456.458 150.217 454.1 150.875 452.961C151.426 452.006 150.875 452.961 151.126 452.099C151.929 450.283 153.118 449.964 154.068 448.746C155.953 446.795 157.098 443.923 158.178 442.514C158.427 442.181 158.66 441.849 158.886 441.512C160.353 439.326 161.593 436.99 162.909 434.711L166.442 428.166C166.993 427.211 167.458 425.98 168.009 425.025L171.128 418.735C171.601 417.488 172.259 416.348 172.802 415.409C173.238 414.654 172.946 414.732 173.075 414.047C173.151 413.51 173.757 411.968 174.428 410.348C175.683 407.317 177.106 404.347 178.669 401.462L180.075 398.867C181.276 396.787 183.745 391.621 185.168 389.157C186.184 386.971 188.269 381.583 189.1 379.29C189.648 377.732 190.589 375.586 191.513 373.521C193.228 369.686 194.907 365.824 196.741 362.046C197.78 359.906 198.688 357.66 199.675 355.496L207.691 337.923C208.211 337.023 207.308 336.791 206.842 337.721C206.471 338.462 206.153 339.272 205.912 339.689C205.476 340.444 205.305 339.852 204.847 341.107L201.857 346.713C199.923 350.869 197.531 354.356 195.362 358.302C195.252 358.502 194.934 358.389 194.979 358.164C195.028 357.519 195.151 356.879 195.388 356.277L206.375 328.333C206.556 327.713 206.563 327.376 206.646 326.915C206.703 326.603 206.118 326.139 206.017 326.439C205.931 326.698 205.774 326.207 205.849 325.944C206.518 323.603 206.962 322.004 207.233 320.737C207.322 320.479 207.381 320.323 207.415 320.23C207.522 319.937 207.052 319.792 207.093 319.483C207.108 319.368 207.215 319.465 207.232 319.199C207.241 319.047 207.313 318.737 207.396 318.609C207.776 318.023 206.779 318.436 206.51 319.08C206.285 319.617 206.093 320.172 205.907 320.735C205.858 320.882 205.824 321.034 205.8 321.187C205.65 322.163 205.515 322.397 204.902 323.458L203.006 327.168C202.512 328.025 201.865 328.865 201.305 329.746C200.445 331.1 199.928 332.643 199.252 334.098C199.029 334.483 199.001 334.959 198.556 335.73C197.86 337.361 196.582 339.149 195.779 340.965C195.306 342.211 194.579 343.044 194.134 343.814C193.69 344.584 193.451 345.467 193.042 346.256L191.542 349.157C189.499 352.269 188.637 355.077 186.645 357.213C185.943 358.021 185.253 359.973 183.968 360.765C183.849 360.838 183.705 360.876 183.668 360.742C183.647 360.67 183.693 360.543 183.695 360.468C183.727 359.265 184.487 357.512 184.857 356.452C184.906 356.313 184.951 356.208 185.019 356.078C185.229 355.677 185.268 355.154 185.442 354.736C186.581 351.994 188.155 348.784 188.675 346.269C188.871 344.616 188.815 343.824 189.289 342.578C190.142 339.785 190.522 338.238 190.715 335.31C190.904 333.713 189.28 333.741 188.426 335.103L186.955 337.452C186.74 337.825 186.564 338.087 186.413 338.274C185.83 338.994 185.069 339.396 184.74 340.262C184.661 340.468 184.544 340.754 184.508 340.971C184.487 341.095 184.481 341.227 184.474 341.359C184.45 341.811 184.285 342.245 184.074 342.646C183.891 342.993 183.646 343.365 183.381 343.728C182.767 344.568 182.155 345.409 181.707 346.347C181.396 346.997 181.064 347.69 180.835 348.088C180.616 348.467 180.453 348.878 180.23 349.255C179.913 349.787 179.677 349.666 179.334 350.261C179.084 350.695 178.994 351.364 178.686 351.941C178.597 352.106 178.405 352.015 178.442 351.832C178.48 351.638 178.235 351.522 178.11 351.675L177.959 351.861C177.854 351.989 177.662 351.967 177.522 351.878C177.439 351.825 177.352 351.805 177.233 351.766C176.98 351.682 176.689 351.755 176.551 351.983C176.511 352.049 176.471 352.114 176.431 352.176C176.19 352.551 175.813 352.367 175.894 351.929C175.949 351.634 176.025 351.397 176.041 351.132C176.023 349.877 176.514 349.406 176.29 349.014C176.28 348.996 176.27 348.978 176.262 348.959Z" fill="white"/>
</g>
<path fill-rule="evenodd" clip-rule="evenodd" d="M140.064 128.788C138.753 126.766 137.942 128.171 141.493 125.26L145.33 121.856C146.333 121.17 146.689 119.502 148.218 117.905L151.6 114.238C153.94 111.235 155.244 110.115 157.869 106.619L160.757 102.668C162.024 101.526 162.78 101.355 164.731 101.216L163.591 99.9501C166.161 97.688 164.539 100.498 165.898 98.1436C167.52 95.3341 168.068 94.3849 170.616 92.1608C171.335 91.968 171.62 91.4744 171.62 91.4744L172.886 90.3324C175.5 91.2345 174.289 91.1426 176.411 91.76L172.64 98.2903C172.022 100.413 172.64 98.2903 172.515 100.698C172.652 102.65 172.159 102.366 171.578 104.511C170.959 106.634 170.641 108.323 169.567 110.184C168.663 112.8 168.037 111.781 167.134 114.398C164.7 118.612 164.482 122.232 163.282 126.5L158.745 137.599C156.641 144.484 153.041 151.771 149.534 157.846C145.571 163.657 142.919 171.491 139.149 178.022L107.317 240.69C105.432 243.955 102.451 249.118 101.284 252.191C98.9878 258.357 99.1137 255.949 97.1576 260.388C93.5576 267.675 89.5023 274.699 85.1841 282.178L79.2438 292.467C78.1697 294.328 77.4958 297.685 75.0184 298.735C75.1112 297.523 74.8812 296.782 75.2371 295.115C76.174 291.302 79.1551 286.139 81.0403 282.874C83.2104 279.115 92.0922 256.198 95.9174 248.434C98.4215 243.046 100.717 236.879 103.243 231.453C105.551 229.647 102.788 231.19 105.195 231.314C104.147 228.836 104.147 228.836 105.769 226.027L115.226 197.823C115.582 196.155 115.226 197.823 115.582 196.155L115.708 193.747C115.115 191.532 116.426 193.555 114.397 191.725C113.038 194.079 113.23 194.798 111.153 197.344C109.794 199.698 110.249 199.961 108.912 202.277C107.553 204.631 107.098 204.368 106.216 206.947C105.542 210.304 102.709 213.022 101.542 216.094C99.9196 218.903 100.868 219.451 100.057 220.856L93.9793 229.192C91.091 233.144 89.113 237.621 87.135 242.098C86.324 243.503 84.7948 245.1 84.2467 246.05C83.1727 247.91 83.6987 246.999 83.3428 248.666C82.2688 250.527 82.0767 249.808 81.5287 250.757C80.9807 251.707 81.0469 254.833 78.0658 259.996C77.2547 261.401 75.7255 262.999 74.9145 264.403L71.2814 272.886C69.3034 277.363 65.6969 281.507 63.982 285.529C62.623 287.883 61.1599 292.607 59.0448 295.131L54.3706 304.278C53.2037 307.351 50.9563 309.141 49.7893 312.213C48.8854 314.83 38.0458 334.744 37.2348 336.148C34.1165 339.36 35.2568 340.625 33.1086 344.346C31.2945 346.437 29.1463 350.158 28.2424 352.775C27.3385 355.391 25.7383 358.163 24.1162 360.972C23.0422 362.833 22.3021 363.064 21.491 364.468C20.5871 367.085 21.6282 366.421 20.061 367.996C19.0579 368.683 17.2986 369.54 16.3174 370.188L6.41473 386.289C5.05568 388.643 2.45238 392.101 2.09648 393.769C1.15956 397.581 1.47753 395.892 0.211352 397.034C-1.28486 397.436 -1.60283 399.125 -2.90695 400.245L-6.65057 402.437C-12.0825 404.313 -10.558 407.015 -15.2871 417.396C-17.2651 421.873 -19.0573 423.926 -20.1533 425.825C-20.9644 427.23 -20.5092 427.492 -21.5833 429.353C-22.1313 430.302 -23.8906 431.159 -24.2085 432.849L-28.1753 440.683C-28.5755 439.186 -28.4384 441.138 -28.3125 438.731L-27.7645 437.781C-28.4497 436.778 -29.075 435.759 -30.7633 435.443L-30.9005 433.49C-30.6374 433.035 -31.0926 432.772 -31.0926 432.772C-30.9667 430.364 -29.6626 429.244 -29.3446 427.555C-28.5336 426.15 -28.3415 426.868 -27.5854 426.697C-27.5854 426.697 -27.5854 426.697 -27.3223 426.242L-28.2705 425.694C-28.9557 424.691 -28.5336 426.15 -28.4626 424.976C-27.8437 422.853 -26.1667 418.809 -25.5477 416.686C-24.6438 414.07 -24.0628 411.924 -23.1808 409.346C-22.5619 407.223 -20.3918 403.464 -20.0738 401.774C-19.663 398.873 -20.8033 397.607 -19.6364 394.535C-18.5623 392.675 -17.2961 391.533 -16.9402 389.865C-16.0033 386.052 -15.1922 384.648 -13.5702 381.838C-13.4773 380.626 -13.7073 379.886 -12.8963 378.481C-12.5404 376.814 -12.0852 377.076 -11.7293 375.409C-10.8254 372.792 -10.6286 369.21 -8.22213 369.334C-7.81129 366.433 -9.22527 370.021 -8.09625 366.926C-6.47417 364.117 -8.00339 365.714 -6.61134 362.165L-19.9882 383.144C-22.2292 388.077 -26.1207 392.715 -29.3429 398.296C-31.513 402.055 -37.8422 415.207 -41.4157 418.156C-41.8708 417.893 -44.4854 416.991 -46.1737 416.674C-48.5802 416.55 -48.2953 416.057 -49.6656 414.051C-50.4767 415.455 -50.8326 417.123 -51.9066 418.983C-52.9807 420.844 -53.9839 421.53 -55.0579 423.39C-59.7321 432.537 -59.9242 431.819 -65.1907 438.751L-68.5897 434.915C-68.5897 434.915 -68.5897 434.915 -68.8527 435.371L-68.503 436.079C-68.1028 437.576 -68.1028 437.576 -68.9138 438.981C-70.5093 437.452 -69.369 438.718 -69.599 437.978C-69.9992 436.481 -69.6433 434.813 -69.2874 433.146C-68.1205 430.074 -68.3505 429.333 -67.9017 426.454C-69.8531 426.593 -68.9049 427.14 -70.8343 427.241L-73.4489 426.339C-72.9671 422.264 -71.8268 423.53 -72.8743 421.052L-73.8887 417.378L-70.6712 416.097C-73.2148 414.021 -73.0777 415.973 -72.9299 413.528C-73.3301 412.031 -71.1819 408.31 -70.6339 407.361L-70.6782 404.197C-68.4638 403.602 -68.7269 404.058 -66.7974 403.957C-67.4826 402.954 -67.9377 402.691 -68.601 401.65C-67.5978 400.964 -67.1048 401.248 -66.2937 399.844C-68.1522 398.771 -68.4153 399.226 -68.5524 397.274C-66.886 397.629 -67.3412 397.366 -66.338 396.679C-66.7383 395.183 -66.7383 395.183 -68.1416 394.373L-67.5936 393.423C-66.1636 389.896 -65.6818 385.82 -63.4125 383.992L-64.5528 382.726C-63.7418 381.321 -63.6489 380.109 -63.6159 378.913C-63.5231 377.701 -63.5231 377.701 -63.7531 376.961C-63.6602 375.749 -63.0349 376.768 -63.6602 375.749C-64.4713 377.154 -65.0193 378.103 -65.5453 379.014L-72.2039 389.496C-75.519 396.289 -80.3739 409.078 -88.0582 411.526C-88.3875 408.855 -89.1056 409.048 -89.0507 407.814C-89.1879 405.862 -88.3768 404.457 -87.3027 402.597C-86.8476 402.86 -88.1138 404.002 -86.0915 402.689C-86.8759 399.756 -87.7579 402.334 -86.5909 399.262C-85.654 395.449 -83.2758 392.469 -82.317 388.618L-78.9913 377.427C-78.4433 376.478 -78.6354 375.76 -77.8243 374.355L-75.2653 367.733C-73.8353 364.205 -72.432 365.015 -71.9502 360.94L-71.8574 359.728C-71.5943 359.272 -71.5943 359.272 -71.5943 359.272L-71.0197 353.985C-70.9268 352.773 -70.4007 351.862 -69.8527 350.913C-69.3047 349.964 -69.8527 350.913 -68.8496 350.226C-67.8465 349.54 -68.6575 350.945 -68.5866 349.771C-68.4937 348.559 -69.1789 347.556 -68.1048 345.695C-67.0307 343.835 -67.1016 345.009 -65.0793 343.696C-66.0719 339.984 -66.1268 341.218 -64.3126 339.127C-62.4984 337.036 -63.1457 336.055 -62.3346 334.65C-62.5267 333.932 -61.7157 332.527 -61.1677 331.578C-60.3566 330.173 -59.5456 328.768 -58.7346 327.363C-58.4715 326.908 -57.9235 325.959 -57.6605 325.503C-56.5864 323.643 -57.6605 325.503 -57.3046 323.836C-56.6307 320.479 -53.5786 314.141 -51.9565 311.332C-50.5975 308.978 -51.9565 311.332 -50.4273 309.734C-47.539 305.782 -48.3235 302.849 -46.8935 299.321C-45.0527 292.892 -40.3342 286.909 -38.6572 282.866C-37.0139 279.056 -35.1288 275.791 -32.6957 271.577C-30.6184 269.03 -29.4515 265.957 -27.8294 263.148L-18.2117 247.541C-16.8526 245.187 -14.7973 242.678 -13.4383 240.324L-3.85357 225.913C-1.77634 223.366 -0.154253 220.556 1.18287 218.24C2.25695 216.38 2.44906 217.098 3.75317 215.978C6.06042 214.172 15.5523 200.972 17.3665 198.881L27.5322 182.325C30.4914 177.199 38.4759 165.559 41.9832 159.485C45.3975 154.622 54.3303 143.529 58.1998 138.93C63.9214 132.26 73.243 118.305 76.8495 114.16C77.8526 113.474 87.7932 97.3948 90.8517 94.1996L123.596 48.2578C124.408 46.853 125.219 45.4483 126.885 45.8029C126.759 48.2107 123.115 52.3332 122.019 54.2315C120.945 56.0919 122.419 55.7281 120.304 58.253L112.023 71.5443C104.872 81.7414 100.142 92.1222 93.484 102.604L96.0542 100.342C97.0574 99.6556 97.0574 99.6555 98.0766 99.029L145.69 39.246C147.219 37.6485 147.997 37.4396 149.527 35.842C151.067 38.6044 149.434 37.0539 150.574 38.3197C155.222 33.5109 158.318 30.3376 160.85 28.0536C162.665 25.9625 161.398 27.1045 162.61 27.1963C164.824 26.6018 162.873 26.7407 164.632 25.8834C166.446 23.7922 164.04 23.6684 167.109 24.8332C165.75 27.1872 163.958 29.2404 162.106 31.3096C159.799 33.1161 159.536 33.5717 157.914 36.3813L152.329 45.0027C150.159 48.7614 148.696 53.4852 145.578 56.6964L142.163 61.5592C141.615 62.5083 140.634 63.1567 139.538 65.0551C136.913 68.551 134.672 73.4837 131.784 77.4352C129.706 79.982 128.824 82.5607 127.728 84.459C127.18 85.4082 126.654 86.3194 125.651 87.0058L119.519 96.5764C115.393 104.774 110.46 110.077 108.356 116.962C107.452 119.578 103.846 123.723 104.082 127.605C104.082 127.605 104.537 127.868 104.801 127.412C107.563 125.869 110.714 121.461 112.544 119.43C112.807 118.975 113.355 118.025 114.074 117.833C118.792 111.85 124.114 103.684 129.216 99.1378C132.505 96.6829 134.264 95.8256 136.341 93.2789C141.252 88.0144 144.085 85.2967 150.098 81.2762C153.386 78.8213 153.216 78.065 157.004 79.037L150.16 91.9427C147.727 96.1569 149.223 95.7552 149.322 97.6856C147.3 98.9985 147.793 99.2831 146.204 100.897C145.656 101.846 144.182 102.21 143.634 103.159C142.104 104.756 140.674 108.284 139.771 110.901C138.96 112.306 136.071 116.257 134.997 118.118C134.734 118.573 134.186 119.523 134.186 119.523C132.109 122.069 133.282 122.139 132.208 124C131.397 125.404 129.375 126.717 128.794 128.862L131.364 126.6L130.197 129.673C131.408 129.764 131.145 130.22 132.549 131.03C131.738 132.435 130.927 133.84 131.119 134.558C132.878 133.701 133.426 132.752 134.407 132.103C137.17 130.56 137.526 128.892 138.699 128.962L140.064 128.788Z" fill="#086DE4"/>
<g filter="url(#filter1_d_1169_3405)">
<path fill-rule="evenodd" clip-rule="evenodd" d="M79.115 495.488C75.2105 497.962 76.3848 498.482 73.4106 504.17C71.9924 506.344 70.3439 507.924 69.1687 511.607C67.9632 514.33 67.0637 515.332 65.8885 519.015C65.7507 520.355 63.8451 520.458 62.3335 524.9C61.4644 526.863 61.8148 526.072 60.3346 527.272C58.672 528.883 59.8159 528.443 58.5659 530.237C55.4992 533.991 52.5241 543.882 50.6934 545.873C48.6944 548.245 47.6267 549.627 46.0263 552.213C44.9889 554.556 44.745 557.25 43.5394 559.972C42.3339 562.695 41.1283 565.418 39.9087 568.172L30.3428 591.919C29.1372 594.642 26.6504 602.401 24.9878 604.012C21.8768 606.838 24.1939 611.12 18.4596 611.383L18.247 610.835C17.2863 606.661 20.9665 587.805 22.0796 583.148C22.8422 579.283 27.9102 557.293 27.3925 554.262C26.2486 554.702 24.8749 557.804 23.9754 558.807L21.4577 562.35C20.7708 563.901 20.0699 565.484 18.391 566.104L14.7926 566.858C13.7249 568.241 13.0684 570.752 12.1689 571.755C10.7507 573.929 7.9583 575.949 6.75274 578.671C5.88362 580.634 4.75377 581.043 3.64165 581.497C2.77252 583.46 0.0562936 586.422 -2.09359 585.962C-2.64264 586.174 -3.43605 585.822 -3.43605 585.822C-5.15934 585.514 -3.9851 586.034 -5.78454 584.783C-5.89106 582.88 -5.47848 583.063 -5.02193 580.917C-4.50326 579.746 -4.42754 577.432 -4.09111 576.672C-3.43461 574.16 -1.49776 570.815 -2.19773 568.195C0.182069 565.993 1.98202 559.784 1.6325 556.373L3.11279 555.173C2.62544 553.102 2.97589 552.311 4.39406 550.137C3.90671 548.065 5.90568 545.694 6.53044 543.169L8.2556 535.072C6.53137 538.966 4.56373 538.095 2.65726 542.4C1.4073 544.194 1.17697 543.6 0.139624 545.943L-1.55422 550.797C-3.87232 550.717 -5.15267 551.551 -7.63899 551.851C-9.36228 551.543 -12.6864 550.563 -14.7905 550.086C-16.7895 552.457 -19.1385 558.876 -20.5884 561.037C-21.4879 562.039 -22.2509 562.648 -22.7696 563.819C-23.6387 565.782 -23.5943 566.711 -25.2873 567.362C-26.9802 568.013 -27.3306 568.805 -29.6347 568.693C-31.9075 565.339 -31.1585 564.762 -29.8468 560.686C-29.0221 557.794 -28.5655 555.649 -27.3904 551.966C-27.9394 552.177 -27.3904 551.966 -27.9394 552.177L-30.7762 553.269C-32.3331 560.986 -33.5681 558.546 -35.7493 561.329C-37.0614 562.149 -37.6862 564.674 -38.2049 565.845C-39.2726 567.228 -39.3487 566.285 -40.4164 567.668C-41.4842 569.051 -41.4842 569.051 -42.9785 570.282C-43.878 571.285 -44.4588 571.482 -44.9774 572.654C-46.7461 575.619 -50.6062 579.022 -53.549 581.467C-55.0293 582.667 -54.2359 583.019 -54.7546 584.19L-58.8586 590.287C-59.2395 590.118 -60.5515 590.938 -60.7197 591.318C-61.4059 593.21 -61.1629 594.719 -61.8941 595.342C-63.6482 590.817 -60.611 581.9 -59.2676 577.837C-61.5848 573.555 -63.1712 576.109 -60.9587 570.083C-59.9213 567.741 -61.0652 568.181 -60.1961 566.218C-57.2219 560.53 -57.2209 556.327 -56.228 553.056L-55.0528 549.373C-54.3659 547.822 -53.116 546.028 -52.9781 544.688L-49.9726 535.757C-47.2111 529.52 -47.8363 528.789 -46.0046 522.595C-45.6985 520.875 -44.5864 520.421 -43.7313 518.49C-42.3435 515.356 -42.144 511.733 -40.5576 509.179C-39.8707 507.628 -36.6218 503.462 -36.1335 501.331C-35.8895 498.637 -35.6452 499.199 -34.7901 497.268C-34.2714 496.097 -33.7831 493.965 -33.2785 492.826L-29.8604 484.078C-28.4726 480.943 -27.4797 477.672 -26.2741 474.95C-25.7858 472.818 -25.0685 472.227 -24.3817 470.676L-16.096 447.763C-15.0891 444.46 -13.1662 441.146 -12.1593 437.844C-10.9537 435.121 -9.77854 431.438 -8.39074 428.304C-3.86054 419.102 -0.655087 409.805 4.25595 400.771C8.43569 392.361 13.5163 382.001 18.4133 372.999L22.7422 365.109C25.8846 359.041 29.3017 354.495 32.6581 348.03L48.1266 323.64C49.5144 320.506 51.6816 317.755 53.268 315.201C55.8917 310.304 58.4094 306.761 61.1092 302.807C62.177 301.424 63.4891 300.604 64.1759 299.053C65.3806 300.533 65.1376 299.024 65.2123 300.913L65.3189 302.815C68.0491 299.821 68.0804 296.579 71.0233 294.133C71.6485 294.864 72.3658 294.273 71.3284 296.616C69.742 299.17 65.8062 304.887 64.325 310.289C63.9745 311.081 63.8367 312.421 63.5003 313.181C63.012 315.312 62.9512 313.392 63.2563 315.875C61.776 317.075 61.9443 316.695 61.0751 318.657C63.4236 319.697 63.9423 318.526 64.217 320.049C60.6186 320.803 61.0003 316.769 55.7964 331.693C55.3081 333.825 53.5231 335.799 52.8222 337.382C52.1353 338.933 51.0979 341.276 50.2288 343.238C48.6728 346.753 43.6379 357.095 43.0118 360.566C46.9467 359.052 52.4082 348.861 53.6894 343.824C54.0399 343.033 56.4197 340.83 57.6556 339.068C59.6546 336.696 63.0096 331.177 64.81 328.225C65.4969 326.674 65.8473 325.882 66.1978 325.091C66.7164 323.92 67.8603 323.479 68.379 322.308C69.5845 319.585 70.1476 319.342 72.1466 316.971L81.406 302.403C81.9246 301.232 82.6559 300.609 83.5872 299.621C85.8604 295.515 97.3618 280.085 99.9239 277.471C101.755 275.479 102.486 274.856 104.072 272.302C104.621 272.091 105.216 271.862 106.146 271.82C105.428 276.613 98.8543 287.259 96.4432 292.704C98.6548 290.881 105.52 278.548 108.22 274.594C110.401 271.811 112.537 269.045 114.337 266.094L126.663 247.772C128.432 244.807 130.431 242.435 132.811 240.233C132.811 240.233 132.811 240.233 133.192 240.401C133.36 240.021 133.36 240.021 133.36 240.021L135.053 239.37C136.914 238.339 139.095 235.556 140.163 234.173C142.725 231.559 144.892 228.808 146.28 225.674L148.766 225.373C151.145 227.373 150.108 229.716 148.703 231.859C146.354 235.021 148.49 235.513 146.217 239.618L137.338 254.354C136.819 255.526 135.752 256.908 135.569 257.32C134.883 258.871 135.081 259.451 134.226 261.382C131.771 265.899 130.427 269.962 128.154 274.067C126.736 276.241 124.386 279.404 123.73 281.915C123.562 282.295 123.379 282.707 123.592 283.255C123.973 283.424 124.217 283.987 124.217 283.987C125.498 286.409 123.835 288.021 122.98 289.952C124.505 289.68 124.124 289.512 125.36 287.749L131.339 280.589C133.689 277.427 136.587 274.053 138.905 270.876L150.238 255.825C151.656 253.651 152.968 252.831 154.204 251.069C157.103 247.695 160.001 244.321 162.182 241.538C167.018 234.818 173.652 229.35 178.305 223.042C180.823 219.499 181.204 219.668 184.559 217.405C185.108 217.194 186.222 215.793 186.771 215.582C188.907 216.074 188.951 217.002 188.25 218.585C184.726 228.687 187.762 220.716 184.101 227.956C180.652 235.744 180.378 234.221 175.711 240.561C171.987 246.826 167.076 255.86 163.659 260.405C162.76 261.408 162.622 262.748 161.722 263.75C161.036 265.302 160.655 265.133 160.136 266.304C158.031 270.03 155.682 273.193 153.164 276.735C151.165 279.107 151.47 281.589 149.853 283.183C148.603 284.977 149.472 283.015 148.954 284.186C148.786 284.566 148.816 285.526 148.648 285.906C147.991 288.417 148.267 285.737 147.442 288.628C146.786 291.14 146.192 290.423 145.674 291.594C144.804 293.557 146.497 292.905 144.468 294.317C144.498 295.277 144.681 294.865 144.574 296.219C142.882 296.871 142.15 297.494 141.051 298.862C139.464 301.416 139.983 300.245 139.158 303.136C137.297 304.167 135.909 307.302 134.78 307.71C133.91 309.673 133.055 311.604 132.369 313.155C131.301 314.538 130.095 317.26 129.394 318.843L146.356 297.425C147.744 294.291 147.606 295.631 149.224 293.091C153.16 287.374 152.154 286.474 158.514 279.483C160.726 277.66 160.557 278.04 162.556 275.669C163.806 273.875 164.936 273.466 166.004 272.083C169.696 269.061 174.225 264.061 176.911 260.139C179.809 256.764 181.364 257.453 182.845 256.253C183.576 255.63 183.195 255.462 184.325 255.053C184.4 260.198 181.732 260.91 179.839 265.184C179.152 266.735 179.764 267.498 178.496 269.246C176.04 273.763 174.347 278.617 170.929 283.163C167.512 287.708 160.983 299.282 158.359 304.179C157.154 306.901 156.329 309.792 154.348 312.209C152.761 314.763 152.105 317.275 150.519 319.829L146.445 326.886C144.889 330.4 141.99 333.774 140.983 337.076C140.739 339.771 138.71 341.182 138.252 344.273C137.84 347.347 135.322 350.89 134.315 354.193C133.491 357.084 133.584 354.816 131.005 360.641C129.799 363.363 128.487 364.183 127.344 367.88C128.168 369.192 127.999 369.571 127.481 370.743L125.575 370.846C124.37 373.568 123.194 377.251 122.157 379.594L119.883 387.902C118.646 393.867 118.814 393.487 116.389 398.964L114.496 407.44C114.663 411.263 102.441 447.352 101.31 451.963C101.172 453.303 98.5791 459.16 98.2426 459.92C96.8549 463.054 96.6249 465.716 94.612 468.119C93.362 469.914 92.5373 472.805 90.7065 474.796C89.4566 476.59 89.3631 478.859 87.5945 481.824C85.8259 484.79 86.4193 485.507 83.4905 487.921L81.3093 490.704C79.7094 492.002 79.8159 493.905 79.115 495.488Z" fill="#E40808"/>
</g>
<g filter="url(#filter2_d_1169_3405)">
<path fill-rule="evenodd" clip-rule="evenodd" d="M83.0948 100.463C83.0301 100.309 83.1494 100.145 83.3102 100.191C83.5382 100.256 83.4504 100.239 83.6056 99.2954L83.8918 97.899C83.9176 97.5622 84.2695 97.2448 84.4415 96.6548L84.8541 95.3315C85.2515 94.351 85.3399 93.8815 85.8165 92.7639L86.3428 91.5727C86.3584 91.5374 86.3705 91.5006 86.3778 91.4627C86.4407 91.1362 86.4147 90.9375 86.2956 90.6496C86.2463 90.5306 86.3474 90.4007 86.4735 90.4275C86.5577 90.4455 86.6411 90.3911 86.6544 90.3059C86.7613 89.6183 86.3864 90.2675 86.7408 89.6538C87.1569 88.933 87.3187 88.6528 87.4836 87.8883C87.5121 87.7563 87.493 87.6172 87.5109 87.4834C87.5128 87.4693 87.5151 87.4562 87.5178 87.4442C87.532 87.3794 87.5579 87.317 87.5717 87.2522L87.5798 87.2144C87.623 87.0122 87.4572 86.712 87.2858 86.5963C86.9804 86.3901 86.6385 86.5446 86.4543 86.8638L85.8591 87.8947C85.799 87.9988 85.7268 88.0959 85.643 88.1822C85.4365 88.3947 85.6964 88.0983 85.2066 88.4163C84.7176 88.6546 84.8547 88.7337 84.4191 89.1716C84.1678 89.4342 83.9384 89.6503 83.7311 89.8901C83.434 90.2337 83.1223 90.5934 82.9951 91.0295C82.868 91.4656 82.5532 91.8211 82.2823 92.1857C81.6818 92.9938 80.9873 93.4984 80.2796 94.2238L78.2387 96.858C76.874 98.321 75.6205 100.2 74.6458 101.888C73.7976 103.649 72.2806 105.376 71.2328 107.191L60.5734 123.56C60.0495 124.468 59.221 125.903 58.6437 126.61C57.4786 128.02 58.0407 127.655 57.2441 128.743C55.9906 130.622 54.8636 132.574 53.6635 134.652L52.0127 137.512C51.8517 137.79 51.5699 138.102 51.3587 138.446C51.1176 138.838 51.59 139.152 51.9322 138.844C52.7196 138.089 53.548 136.654 54.0719 135.746C54.675 134.702 58.9564 129.38 60.2935 127.38C61.2226 126.057 62.3589 124.678 63.3023 123.343C63.342 123.287 63.388 123.088 63.4014 123.021C63.4637 122.705 63.5248 122.783 63.7973 122.612C63.9524 122.515 64.0604 122.34 64.2702 121.977C64.3015 121.923 64.3383 121.872 64.3797 121.825L69.7914 115.7C70.0345 115.481 69.9418 115.565 69.9772 115.533C70.0877 115.433 70.2061 115.342 70.3309 115.261L70.6347 115.064C70.6815 115.034 70.8168 114.987 70.8691 114.967C71.1868 114.849 71.2101 115.327 71.0127 115.603C70.8438 115.839 70.6976 116.047 70.5128 116.511C70.4856 116.579 70.4542 116.647 70.416 116.71C70.0812 117.263 69.9492 117.228 69.5968 117.839C69.2191 118.493 69.3456 118.566 68.8475 119.137C68.4837 119.457 68.2377 119.889 68.0075 120.329C67.5756 121.155 66.8221 121.744 66.3558 122.552L65.1938 125.173C64.6441 126.417 63.8415 127.515 63.0388 128.613C62.8134 129.004 62.6414 129.594 62.4891 129.858C62.2311 130.304 61.9916 130.719 61.7337 131.166C61.5814 131.43 60.8198 131.848 59.9913 133.283C59.7659 133.674 59.5939 134.264 59.3685 134.654L57.8318 136.707C57.0291 137.805 56.5328 139.249 55.8033 140.221C55.7788 140.263 55.7521 140.307 55.7233 140.352C54.7038 141.952 53.6576 143.547 52.6262 145.139C52.0489 145.847 51.9303 146.637 51.353 147.344C50.987 147.766 49.1547 150.715 48.0917 152.449C47.5864 153.273 47.3075 154.216 46.6419 154.917C46.1277 155.459 45.829 156.189 45.4715 156.844C45.202 157.339 44.8778 157.829 44.5849 158.166C44.0807 158.748 43.636 159.518 43.1853 160.299C43.0345 160.56 42.9719 160.743 42.9179 160.91C42.8057 161.258 42.6072 161.58 42.308 161.79C42.2502 161.83 42.2125 161.856 42.1781 161.912C42.0526 162.116 42.0481 162.357 42.049 162.597C42.051 163.153 41.9136 163.71 41.6486 164.2L39.5518 168.077C39.1741 168.731 38.7036 169.838 38.3517 170.156C38.2994 170.206 38.2521 170.251 38.2095 170.292C37.7747 170.714 37.8562 171.354 37.6067 171.905C37.5118 172.115 37.4875 172.375 37.4861 172.605L37.4847 172.834C37.4821 173.254 37.5566 173.673 37.5388 174.092C37.4964 175.096 36.6392 175.438 35.0807 177.622C34.278 178.721 34.0329 179.437 33.7283 179.965C33.5029 180.355 33.3764 180.282 33.0779 180.799C32.9393 181.039 32.9584 181.51 32.6899 181.828C32.636 181.891 32.5782 181.952 32.5325 182.022L31.5508 183.526C31.4513 183.678 31.4846 183.904 31.6353 183.802C31.6613 183.784 31.7641 183.708 31.7797 183.681L31.798 183.649C31.8654 183.532 31.9939 183.462 32.1279 183.476C32.2843 183.493 32.4389 183.524 32.59 183.607C32.7911 183.718 33.0317 183.785 33.238 183.684L33.3074 183.65C33.3526 183.628 33.4123 183.56 33.4609 183.546C33.5525 183.522 33.6276 183.532 33.7026 183.474C34.1398 183.135 34.2489 182.731 34.5578 182.445C34.5782 182.426 34.5964 182.405 34.6098 182.381C34.7656 182.096 34.6704 182.071 34.596 181.966C34.5737 181.934 34.5562 181.866 34.5756 181.832C34.5879 181.811 34.6414 181.758 34.6627 181.77L34.8387 181.872C34.8709 181.891 34.9071 181.901 34.9439 181.906C35.131 181.932 34.9403 181.988 34.999 181.918C35.0472 181.86 35.1136 181.82 35.1643 181.764C35.5971 181.292 36.277 180.412 36.6773 179.993C37.1815 179.412 37.617 178.974 38.1151 178.404C38.5401 177.96 39.1432 176.915 39.5056 176.604C39.663 176.481 39.8096 176.394 39.9498 176.322C40.8434 175.865 41.1914 174.867 41.9365 174.195C42.5404 173.615 42.8138 173.251 43.1117 172.76C43.3064 172.439 43.5521 172.222 43.8391 171.98C44.0398 171.811 44.2351 171.565 44.3711 171.34C44.4426 171.222 44.4832 171.12 44.6917 170.932C44.9797 170.6 45.3756 170.28 45.5942 169.961C45.8416 169.601 45.8996 169.27 46.1808 168.935C46.1933 168.921 46.2065 168.905 46.2203 168.888C46.2254 168.882 46.2357 168.866 46.2396 168.859C46.3218 168.718 46.6018 168.949 46.5263 169.094L43.9775 173.994C43.1018 175.219 42.5263 176.8 41.6308 178.351C41.1801 179.132 39.7895 181.201 39.0266 182.726C38.6534 183.472 39.0031 184.323 39.5463 184.956C39.8757 185.464 40.2216 185.978 39.8917 186.486C39.8563 186.541 39.8214 186.597 39.7872 186.656C39.4887 187.173 39.4629 187.51 39.1644 188.027C37.8339 190.081 37.7907 190.335 37.2153 191.771C37.0431 192.201 37.2984 192.687 37.7522 192.78L38.1886 192.869C38.2377 192.879 38.2821 192.866 38.257 192.909C38.2376 192.943 38.1744 193.014 38.1356 193.016L38.0129 193.024C37.9902 193.026 37.9675 193.029 37.9455 193.035C37.7714 193.082 37.6752 193.11 37.6015 193.162C37.4123 193.295 37.4483 193.605 37.6741 193.554C38.0579 193.451 38.3872 193.173 38.7123 192.881C38.7666 192.832 38.8169 192.779 38.8637 192.723C39.1766 192.349 39.3805 192.175 39.6219 191.993C39.9246 191.764 40.2222 191.843 40.3566 192.198C40.3835 192.269 40.4592 192.385 40.5165 192.435L40.5427 192.457C40.8156 192.694 41.2315 192.722 41.4748 192.455C41.7687 192.133 41.6446 192.06 42.2029 191.99L42.9065 191.808C43.0895 191.76 43.2074 191.582 43.1801 191.395C43.1393 191.116 43.4327 190.885 43.627 191.09C43.711 191.179 43.691 191.18 43.941 191.012C43.9938 190.976 44.0539 190.952 44.1102 190.922C44.4418 190.747 44.8526 190.11 45.0705 189.747C45.1478 189.618 45.256 189.51 45.3873 189.437L45.6653 189.281C45.8353 189.186 45.9256 188.985 45.855 188.804C45.8202 188.714 45.7875 188.653 45.7526 188.599C45.6279 188.404 45.7505 188.193 45.9783 188.233C46.1359 188.261 46.2847 188.139 46.2681 187.98C46.2637 187.938 46.2601 187.898 46.2607 187.857C46.2636 187.623 46.5529 187.561 46.7489 187.689C46.8055 187.726 46.8515 187.752 46.8995 187.763C47.1183 187.817 47.0764 187.489 47.1199 187.268C47.1476 187.127 47.2523 187.001 47.3932 186.972C47.5174 186.947 47.5918 186.952 47.6985 186.999C47.8525 187.067 48.0345 187.026 48.1186 186.88C48.6945 186.141 49.4771 185.522 49.7353 184.834C49.7889 184.691 49.9329 184.59 50.082 184.622C50.1945 184.646 50.308 184.593 50.3751 184.5C50.5795 184.215 50.8172 184.055 51.0581 183.907C51.318 183.729 51.3356 183.717 51.5072 183.678C51.5334 183.671 51.5949 183.634 51.6147 183.616C51.7332 183.505 51.7274 183.648 51.6465 183.788C51.5126 184.02 51.4057 184.205 51.3019 184.385L49.7044 187.444C48.7131 188.915 46.846 191.243 46.576 193.25C46.5015 193.804 47.1649 194.345 47.6366 194.044C48.0291 193.853 48.2518 193.564 48.4788 193.189C48.5754 193.03 48.6607 193.023 48.478 192.987C48.3348 192.959 48.5542 192.588 48.6993 192.572C49.1701 192.519 48.845 192.887 49.3532 192.264C50.1406 191.509 50.5274 190.522 51.3209 189.756L53.1719 187.802C53.4246 187.535 53.6198 187.297 53.8747 187.033C54.0427 186.858 54.2059 186.598 54.3579 186.41L55.3677 185.157C56.0181 184.322 55.6281 184.097 56.542 183.415L56.8153 183.228C56.8189 183.226 56.8282 183.212 56.8304 183.208C56.8463 183.18 56.9808 183.034 57.0065 183.015L58.0866 182.225C58.3653 182.034 58.5116 181.781 58.6638 181.517C58.8161 181.253 58.6638 181.517 58.6897 181.18C58.7155 180.843 58.4901 181.234 58.7628 181.054C59.0415 180.863 59.3782 180.888 59.6767 180.371C59.9884 179.831 60.4554 179.534 60.6172 178.932C60.6409 178.843 60.6701 178.721 60.7305 178.546C60.79 178.374 60.8538 178.243 60.9194 178.139C61.2371 177.636 61.813 177.255 62.1105 176.74C62.3359 176.35 62.5613 175.959 62.7867 175.569C62.8598 175.442 63.0121 175.178 63.0852 175.052C63.3837 174.535 63.0852 175.052 63.4371 174.734C64.1514 174.106 65.2525 172.491 65.7033 171.71C66.081 171.056 65.7033 171.71 65.8753 171.12C66.425 169.876 67.24 169.657 67.8904 168.822C69.182 167.486 69.9663 165.519 70.7064 164.553C70.8765 164.325 71.0366 164.097 71.1914 163.867C72.1965 162.37 73.0457 160.769 73.9474 159.208L76.3673 154.724C76.745 154.07 77.0632 153.227 77.4409 152.572L79.5776 148.263C79.9019 147.409 80.3527 146.629 80.7243 145.985C81.0228 145.468 80.8232 145.521 80.9115 145.052C80.9395 144.854 81.0725 144.457 81.2609 143.959C82.4229 140.891 83.9202 137.95 85.4831 135.066L85.7069 134.653C86.5293 133.228 88.2213 129.689 89.196 128.001C89.8919 126.503 91.3203 122.812 91.8897 121.242C92.265 120.174 92.9093 118.704 93.5422 117.289C94.7173 114.663 95.8672 112.017 97.1242 109.428C97.8359 107.963 98.4575 106.424 99.1337 104.941L104.625 92.9029C104.981 92.286 104.363 92.1275 104.043 92.7644C103.789 93.2719 103.571 93.8273 103.407 94.1127C103.108 94.6298 102.991 94.2244 102.677 95.0843L100.629 98.9241C99.3036 101.772 97.6649 104.16 96.1792 106.863C96.1037 107.001 95.8859 106.923 95.9168 106.769C95.9507 106.327 96.0348 105.889 96.197 105.476L103.724 86.3333C103.848 85.9086 103.853 85.6776 103.91 85.3615C103.948 85.148 103.547 84.8302 103.479 85.036C103.42 85.2132 103.312 84.8765 103.363 84.6969C103.822 83.0932 104.126 81.9975 104.311 81.1293C104.372 80.9525 104.413 80.846 104.436 80.7822C104.51 80.5817 104.187 80.4821 104.216 80.2704C104.226 80.1914 104.299 80.2578 104.311 80.076C104.317 79.9717 104.366 79.7593 104.423 79.6716C104.683 79.2704 104 79.5531 103.816 79.9943C103.662 80.3622 103.531 80.7424 103.403 81.1281C103.37 81.2288 103.346 81.3328 103.33 81.4376C103.227 82.1065 103.135 82.2665 102.715 82.9933L101.416 85.5353C101.077 86.1221 100.634 86.6975 100.251 87.3012C99.6614 88.229 99.307 89.2859 98.8438 90.2826C98.6915 90.5464 98.6718 90.8726 98.3672 91.4002C97.8906 92.5178 97.0148 93.7426 96.4651 94.9868C96.1408 95.8406 95.6428 96.4112 95.3382 96.9388C95.0339 97.4658 94.8698 98.0712 94.5902 98.6117L93.5626 100.598C92.1629 102.731 91.5721 104.655 90.2074 106.118C89.727 106.671 89.2538 108.008 88.3735 108.551C88.292 108.601 88.1939 108.627 88.168 108.535C88.1541 108.486 88.1854 108.398 88.1868 108.347C88.2086 107.523 88.7292 106.322 88.9828 105.596C89.016 105.501 89.0472 105.429 89.094 105.34C89.2378 105.065 89.2645 104.707 89.3835 104.421C90.1638 102.542 91.2419 100.343 91.5986 98.6204C91.7325 97.4878 91.6944 96.9453 92.0187 96.0915C92.6034 94.1781 92.8637 93.1186 92.9958 91.1127C93.1252 90.0186 92.0125 90.0376 91.4277 90.9713L90.4201 92.5799C90.2726 92.8354 90.152 93.0154 90.0486 93.1431C89.6491 93.6367 89.1282 93.9119 88.9024 94.5054C88.8488 94.6464 88.7684 94.842 88.7435 94.9908C88.7293 95.076 88.7251 95.1665 88.7203 95.2567C88.7041 95.566 88.5906 95.8639 88.4463 96.138C88.3209 96.3761 88.1534 96.6306 87.9713 96.8799C87.5509 97.455 87.1317 98.0311 86.8246 98.6739C86.6119 99.1191 86.3847 99.5938 86.2273 99.8664C86.0773 100.126 85.9661 100.408 85.8128 100.666C85.5961 101.031 85.4345 100.947 85.1992 101.355C85.0277 101.652 84.9664 102.111 84.755 102.506C84.6945 102.619 84.5627 102.557 84.5879 102.431C84.6145 102.299 84.4461 102.219 84.3608 102.324L84.2571 102.451C84.1853 102.539 84.0541 102.524 83.9581 102.463C83.9008 102.427 83.8414 102.413 83.7597 102.386C83.5868 102.329 83.3873 102.379 83.293 102.534C83.2654 102.58 83.2379 102.624 83.2105 102.667C83.0451 102.923 82.7871 102.798 82.8428 102.498C82.8802 102.296 82.9323 102.133 82.9433 101.952C82.9312 101.092 83.2674 100.769 83.1142 100.501C83.1072 100.488 83.1002 100.476 83.0948 100.463Z" fill="white"/>
</g>
<defs>
<filter id="filter0_d_1169_3405" x="100.938" y="314.328" width="138.909" height="175.361" filterUnits="userSpaceOnUse" color-interpolation-filters="sRGB">
<feFlood flood-opacity="0" result="BackgroundImageFix"/>
<feColorMatrix in="SourceAlpha" type="matrix" values="0 0 0 0 0 0 0 0 0 0 0 0 0 0 0 0 0 0 127 0" result="hardAlpha"/>
<feOffset dx="28"/>
<feGaussianBlur stdDeviation="2"/>
<feComposite in2="hardAlpha" operator="out"/>
<feColorMatrix type="matrix" values="0 0 0 0 0 0 0 0 0 0 0 0 0 0 0 0 0 0 0.15 0"/>
<feBlend mode="normal" in2="BackgroundImageFix" result="effect1_dropShadow_1169_3405"/>
<feBlend mode="normal" in="SourceGraphic" in2="effect1_dropShadow_1169_3405" result="shape"/>
</filter>
<filter id="filter1_d_1169_3405" x="-62.4255" y="211.582" width="283.08" height="403.801" filterUnits="userSpaceOnUse" color-interpolation-filters="sRGB">
<feFlood flood-opacity="0" result="BackgroundImageFix"/>
<feColorMatrix in="SourceAlpha" type="matrix" values="0 0 0 0 0 0 0 0 0 0 0 0 0 0 0 0 0 0 127 0" result="hardAlpha"/>
<feOffset dx="28"/>
<feGaussianBlur stdDeviation="2"/>
<feComposite in2="hardAlpha" operator="out"/>
<feColorMatrix type="matrix" values="0 0 0 0 0 0 0 0 0 0 0 0 0 0 0 0 0 0 0.15 0"/>
<feBlend mode="normal" in2="BackgroundImageFix" result="effect1_dropShadow_1169_3405"/>
<feBlend mode="normal" in="SourceGraphic" in2="effect1_dropShadow_1169_3405" result="shape"/>
</filter>
<filter id="filter2_d_1169_3405" x="31.4941" y="75.4789" width="105.238" height="122.652" filterUnits="userSpaceOnUse" color-interpolation-filters="sRGB">
<feFlood flood-opacity="0" result="BackgroundImageFix"/>
<feColorMatrix in="SourceAlpha" type="matrix" values="0 0 0 0 0 0 0 0 0 0 0 0 0 0 0 0 0 0 127 0" result="hardAlpha"/>
<feOffset dx="28"/>
<feGaussianBlur stdDeviation="2"/>
<feComposite in2="hardAlpha" operator="out"/>
<feColorMatrix type="matrix" values="0 0 0 0 0 0 0 0 0 0 0 0 0 0 0 0 0 0 0.15 0"/>
<feBlend mode="normal" in2="BackgroundImageFix" result="effect1_dropShadow_1169_3405"/>
<feBlend mode="normal" in="SourceGraphic" in2="effect1_dropShadow_1169_3405" result="shape"/>
</filter>
</defs>
</svg>
