<svg width="239" height="509" viewBox="0 0 239 509" fill="none" xmlns="http://www.w3.org/2000/svg">
    <path fill-rule="evenodd" clip-rule="evenodd" d="M27.826 64.653c-.006-.304-.187-.672-.488-.63a.997.997 0 0 0-.723.522c-1.115 2.053-5.06 9.6-7.118 13.739-.578 1.162-.463 1.196.524.353.081-.069.152-.125.23-.198.944-.881.02.71 1.321-1.808.386-.668 1.005-1.189 1.274-1.912.152-.409.303-.82.481-1.127.49-.85.597-1.603 1.087-2.452l1.476-2.556c.49-.85.936-1.895 1.283-2.497.472-.816.667-.772.653-1.434zM7.47 72.717a.49.49 0 0 0-.013-.511.504.504 0 0 1 .002-.546c.327-.512.517-.904.704-1.211.535-.885 1.494-1.578 2.032-2.46.123-.204.261-.555.42-1.264.553-1.602-1.037-1.996-1.757-.462a8.11 8.11 0 0 0-.192.442c-.183.46-.345.934-.58 1.372l-1.328 2.477c-.242.45-.199.953-.173 1.464.067 1.044-.033 1.45.07 1.756.073.214.415.097.36-.123a.258.258 0 0 1 .037-.21l.418-.724zm16.155-46.312c.487-.397.742-1.06 1.115-1.566.194-.261.384-.484.595-1.003.843-1.46-.104-.39 1.283-2.496.683-.91 1.005-2.013 1.44-3.064.28-.483.33-.297.683-.909l2.574-4.185c.1-.174.21-.498.315-.761.078-.194.159-.353.224-.551.52-1.572 1.713-.453 1.235 1.131-.503 1.663-1.227 3.286-1.732 4.89-.326 1.044-2.255 5.658-2.834 7.377-.09.265.032.341.147.086a.344.344 0 0 1 .108-.129c.25-.18.544-.442.67-.66.21-.364-.247-.142.16-.551.61-.78.316.024 1.301-1.684l2.617-4.805c.233-.612.574-1.253.831-1.965.152-.42.527-.7.805-1.05.406-.51 1.277-1.145 1.089-.52-.06.194-.175.464-.23.835a1.223 1.223 0 0 1-.033.158c-.054.19-.117.422-.193.673-.174.581.015.724.418.27.039-.043.075-.092.109-.14.11-.16.275-.317.438-.473.336-.322.635-.686.914-1.058.563-.75.981-1.617 1.48-2.245.683-.909 1.438-1.92 2.12-2.83 1.564-2.461 3.217-1.176 3.513-.066.059.22-.031.433-.098.652-.046.151-.024.325-.039.483l-.136 1.447c-.474 3.621-4.035 10.632-4.538 12.618-.34 1.3-1.195 2.892-1.657 4.212-.134.384.12.809.482.624 1.04-.365 2.816-.782 4.153-.61.273.035.296.26.021.236a.375.375 0 0 0-.118.01l-1.099.295c-.257.069-.5.188-.758.258a2.413 2.413 0 0 0-.184.056c-.193.068-.383.153-.584.194-.205.042-.413.074-.619.104-1.247.185-.99.631.27.687.25.01.513.066.795.196.267.123.335.455.515.687.143.183.411.22.71.238.353.021.438.39.153.599a.427.427 0 0 0-.026.674c.506.421.471.374.474 1.045.001.262.146.5.373.632l.118.068.118.068c-.292.77-1.384.32-.403 1.477.077.09.15.184.208.286.271.484.445 1.111.483 1.563a.708.708 0 0 1-.017.186c-.093.417.377.398.59.028l.685-1.186.633-1.096.216-.375a.303.303 0 0 0 .03-.23c-.04-.151.045-.306.178-.39.795-.506.894-1.807 1.821-2.894 1.369-1.802 1.402-2.427 2.449-3.126.133-.09.248-.146.365-.203.242-.118.465-.324.62-.544.543-.774 1.174-1.547 1.557-2.41.266-.603.583-1.25.853-1.667.11-.17.22-.338.384-.456.321-.229.636-.503.797-.863l.029-.067c.122-.287.305-.541.517-.77l.121-.132c.292-.317.552-.663.745-1.048.186-.37.275-.55.793-1.058.44-.396.769-.854 1.208-1.25.472-.544.315.024 1.276-1.368 1.123-1.945.93-.767 1.63-1.981l.35-.74c.23-.487.996-.757.923-.224-.052.387.256.758.625.888.88.31.613.849.174 2.088-.093.433-.235.68-.318 1.12a1.268 1.268 0 0 1-.008.034c-.198.803-.641 1.528-.959 2.292-.334.803-.72 1.58-1.011 2.399-.12.338-.242.678-.381 1.045l-1.949 4.217c-.07.122-.115.217-.145.3-.192.523-.337 1.052-.567 1.56-.157.348-.265.719-.39 1.081-.174.506-.23.777-.606 1.43l-.353.611-10.392 20.253c-.28.484-.514 1.164-.651 1.401l-1.191 2.063-3.332 6.34c-.446 1.046-2.016 3.218-2.195 4.076-.176.872-5.284 9.424-5.495 9.79-.75 1.027-3.611 6.823-4.597 8.53-1.03 1.512-1.686 2.922-2.506 4.068-.843 1.46-2.015 3.218-2.785 4.55-.21.366-.371.918-.65 1.401l-.702 1.214c-1.075 1.864-2.339 3.621-3.547 5.402l-3.638 5.359c-1.966 3.405-4.064 4.786-5.606 8.594-.303.799-1.122 1.945-1.357 2.625-.876 2.086-2.067 4.149-3.196 6.103-.98 1.698-2.12 2.83-3.292 4.587-1.296 2.246-3.305 4.391-4.977 6.438-.094.116-.177.24-.26.365-.118.179-.241.332-.357.477-.235.295-.553.567-.741.893l-.28.484s-.096.154-.154.224c-1.14 1.395-2.495 2.667-3.625 4.068l-8.83 9.969c-.472.544-2.239 2.761-2.696 2.984-.416.203-1.474.84-1.968 1.262-.09.076-.172.199-.242.293-.372.499-.775-.531-.52-1.098.48-1.066 1.223-2.353 1.69-3.163l1.31-1.994c.278-.484.42-.731.632-1.096l1.072-2.131c.422-.73 1.03-1.511 1.402-2.428.714-1.79 1.548-2.452 2.496-4.051a1.3 1.3 0 0 0 .123-.283c.088-.292.196-.634.255-.97.07-.394-.388-.648-.788-.675a.527.527 0 0 0-.197.02l-.072.026c-.488.184-.618-.47-.413-.949l.585-1.366c.317-1.119 2.678-3.796 2.809-4.865.09-.421-.527-.42-.818-.103-1.203 1.309-3.365 4.145-4.388 5.203-1.104 1.093-1.821 2.573-2.952 3.513-.06.049-.08.09-.147.129-.058.033-.154-.031-.195-.082-.483-.595-.026-.653-.15-1.509-.157-1.156.526-1.828 1.102-2.561.423-.538.45-1.266.792-1.858l.29-.503c.169-.291.538-.262.33-.527l-.092-.117a.154.154 0 0 0-.038-.031c-.084-.049-.08-.223.016-.232a.772.772 0 0 1 .113-.002.15.15 0 0 1 .07.02l.015.008c.11.063.25.024.31-.086l2.649-4.851c.3-.52.768-1.116 1.194-1.727 1.054-1.508-.098-2.284-1.467-1.056-.247.222-.567.329-.804.562a4.463 4.463 0 0 0-.188.201c-.33.297-.33.297-.609.78-.12.209-.254.409-.399.595-.443.569-1.107.329-.746-.295l2.48-4.569c.353-.612.21-.365.303-.799.034-.138.077-.274.125-.408.58-1.604 1.741-2.958 2.133-4.618.189-.768.695-1.06.86-1.717.109-.435.206-.86.486-1.21.07-.087.13-.18.2-.267l1.053-1.307c.682-.908 1.004-2.012 1.475-2.556l1.099-1.629c.54-.662.961-1.393 1.333-2.31.35-1.045-.27-1.615-1.027-.813-1.334 1.411-2.78 3.471-3.134 4.083-.701 1.214-.826 2.273-1.898 3.286-.668.588-.49.849-1.098 1.63-.398.415-.879.953-1.276 1.368-.718.955-1.735 1.754-2.43 2.726l-3.033 4.249c-.08.113-.23.239-.33.335-.442.424-.75.044-.519-.523.314-.772.777-1.685 1.002-2.075l2.177-3.77c.21-.365.879-.954 1.511-2.049.328-.568.695-1.112 1.084-1.64.057-.076.11-.154.157-.236l6.492-10.675c.279-.484.608-.78.961-1.392l4.68-6.694c.279-.483.51-1.006.892-1.413l.074-.08c.091-.098.172-.205.239-.321l.6-1.04 3.385-5.02c.403-.494.981-.975 1.385-1.65.283-.474.248-1.04.326-1.586.045-.759.428-1.006.476-1.64.022-.29-.284-.475-.506-.288a1.287 1.287 0 0 1-.108.084c-.224.151-.552-.065-.38-.273.119-.145.193-.403.023-.48-.367-.168-.986-.256-1.234-.033-.557.49-1.341 1.976-1.58 2.933-.08.324-.12.67-.081 1.001.049.416.051.843-.054 1.248-.01.037-.02.075-.032.113a7.637 7.637 0 0 0-.237 1.16c-.115.839-.373 1.785-.806 2.317-.301.347-.428.725-.678 1.007-.314.353-.846.377-1.243.635l-.022.015a.897.897 0 0 0-.38.896c.1.594-.313.737-.776.354a2.483 2.483 0 0 0-.31-.215c-.272-.162-.616-.157-.854.052-.713.626-1.285 1.811-1.64 2.427-.844 1.461-2.89 4.162-3.733 5.623-.143.247-.175.872-.318 1.119-.068.119-.187.05-.187.05a.138.138 0 0 0-.186.05c-1.72 2.738-3.526 5.177-5.273 7.843-.452.69-.911 1.315-1.433 1.955-.558.682-1.08 1.458-1.544 2.208-.28.452-.57.885-.776 1.101-.253.264-.37.283-.542.401-.293.201-.471.524-.659.825-.148.237-.294.44-.475.618a.655.655 0 0 0-.11.131c-.34.544-.66.341-.29-.183.853-1.209 1.736-2.339 1.91-3.19.124-.422 1.785-3.189 2.889-5.292.129-.246-.133-.4-.297-.177-.135.182-.344.096-.265-.116.328-.883 1.099-2.055 1.424-2.619l.146-.308c.375-.791.847-1.512 1.125-2.341.08-.24.216-.525.319-.756C-14.36 98.03-7.047 86.935-4.16 81.5c.843-1.586 1.909-3.376 2.807-4.931l.897-1.555c.476-.824.661-1.814 1.298-2.52.682-.91.235-.681.582-1.283.34-.588.762-1.085 1.067-1.691l.614-1.22c.354-.613.107-.755.794-1.648l3.138-5.163c.068-.118.446-1.045.583-1.282.142-.247.819-1.146.961-1.392.28-.484.514-1.164.794-1.648l2.087-4.137c.074-.146-.034-.41-.115-.269-.082.141-.323.055-.236-.082.29-.46.877-1.105 1.403-1.792.436-.755.57-1.638 1.028-2.38.303-.488.6-1.056 1.474-3.637l3.273-8.35c.098-.25.144-.494.273-.728.19-.345.348-.736.476-1.108.056-.162.115-.326.216-.5.49-.85.26-.18.7-1.215.783-2.47.652-1.4 1.216-2.378.463-.803.832-1.747 1.244-2.625a4.307 4.307 0 0 1 1.209-1.561zM121.834 341.001c.01.486.3 1.075.782 1.009.493-.068.919-.399 1.157-.836 1.785-3.286 8.098-15.364 11.393-21.989.925-1.86.741-1.914-.84-.566-.13.111-.243.2-.368.317-1.51 1.411-.03-1.137-2.114 2.894-.617 1.069-1.609 1.903-2.039 3.06-.244.655-.485 1.311-.77 1.805-.784 1.358-.955 2.565-1.74 3.924l-2.362 4.091c-.784 1.359-1.497 3.032-2.054 3.995-.754 1.307-1.066 1.237-1.045 2.296zm32.582-12.907a.786.786 0 0 0 .021.819.809.809 0 0 1-.003.874c-.523.818-.829 1.446-1.126 1.938-.857 1.415-2.392 2.526-3.253 3.938-.198.325-.418.886-.671 2.022-.886 2.564 1.658 3.195 2.81.739.114-.243.217-.48.307-.707.294-.738.553-1.496.929-2.196l2.126-3.965c.386-.721.318-1.525.276-2.343-.107-1.671.053-2.32-.112-2.81-.116-.343-.663-.155-.577.197a.412.412 0 0 1-.058.335l-.669 1.159zm-25.855 74.122c-.78.636-1.188 1.697-1.786 2.506-.309.419-.615.775-.951 1.606-1.35 2.338.166.623-2.055 3.995-1.092 1.455-1.607 3.221-2.305 4.904-.447.774-.526.475-1.092 1.454l-4.12 6.699c-.16.278-.335.797-.504 1.218-.124.31-.254.564-.358.882-.832 2.515-2.743.725-1.976-1.811.804-2.662 1.962-5.259 2.772-7.825.521-1.671 3.607-9.056 4.535-11.808.144-.424-.051-.546-.235-.137a.553.553 0 0 1-.173.205c-.399.288-.872.709-1.072 1.056-.338.585.394.228-.258.883-.973 1.25-.504-.038-2.081 2.695l-4.189 7.692c-.372.978-.919 2.004-1.33 3.143-.242.674-.843 1.122-1.289 1.682-.649.816-2.043 1.831-1.741.833.094-.313.279-.744.367-1.339a1.82 1.82 0 0 1 .053-.252c.086-.304.188-.676.309-1.078.279-.929-.025-1.158-.668-.432a2.513 2.513 0 0 0-.175.225c-.178.257-.441.507-.702.757-.537.515-1.015 1.098-1.462 1.693-.901 1.2-1.571 2.589-2.37 3.594-1.092 1.454-2.3 3.073-3.393 4.528-2.502 3.94-5.148 1.883-5.621.107-.095-.354.05-.693.156-1.044.074-.242.04-.521.063-.773l.217-2.316c.759-5.796 6.459-17.017 7.264-20.196.545-2.08 1.912-4.627 2.651-6.741.215-.614-.191-1.294-.771-.998-1.663.584-4.507 1.251-6.647.977-.437-.056-.473-.418-.034-.379.057.005.134 0 .19-.015l1.758-.472c.412-.111.802-.302 1.214-.413.087-.024.182-.05.293-.09.311-.109.613-.244.936-.31.328-.068.661-.119.99-.168 1.997-.295 1.585-1.009-.431-1.098a3.356 3.356 0 0 1-1.273-.315c-.427-.196-.536-.728-.825-1.099-.228-.293-.658-.352-1.135-.381-.565-.034-.702-.624-.245-.958a.684.684 0 0 0 .04-1.079c-.81-.674-.753-.599-.758-1.673a1.179 1.179 0 0 0-.596-1.011l-.19-.109-.189-.109c.468-1.233 2.216-.513.645-2.364a2.927 2.927 0 0 1-.333-.458 6.784 6.784 0 0 1-.773-2.501 1.134 1.134 0 0 1 .028-.297c.15-.668-.603-.638-.946-.045l-1.095 1.898-1.013 1.754-.346.6a.485.485 0 0 0-.049.368c.065.242-.07.489-.283.624-1.273.809-1.431 2.893-2.915 4.631-2.19 2.884-2.243 3.886-3.92 5.004a4.204 4.204 0 0 1-.583.325 2.75 2.75 0 0 0-.993.871c-.87 1.238-1.88 2.475-2.491 3.858-.427.964-.934 1.999-1.367 2.667-.175.271-.351.541-.614.729-.514.367-1.018.806-1.275 1.383l-.046.106c-.196.46-.49.866-.828 1.234l-.194.21c-.467.507-.883 1.061-1.193 1.677-.297.592-.439.88-1.268 1.693-.703.635-1.23 1.367-1.934 2.001-.754.87-.504-.038-2.043 2.19-1.796 3.112-1.486 1.227-2.608 3.17l-.56 1.185c-.37.778-1.594 1.211-1.478.358.085-.62-.408-1.214-.999-1.421-1.41-.496-.982-1.359-.278-3.342.148-.694.376-1.089.508-1.791l.013-.056c.316-1.285 1.026-2.446 1.534-3.668.535-1.285 1.154-2.528 1.62-3.839.191-.542.386-1.087.608-1.673l3.12-6.75c.112-.194.184-.347.233-.48.307-.837.538-1.684.906-2.496.252-.558.425-1.151.624-1.731.279-.81.367-1.243.97-2.287l.566-.979 16.632-32.416c.447-.774.823-1.862 1.042-2.241l1.906-3.302 5.333-10.148c.713-1.673 3.226-5.15 3.513-6.522.281-1.397 8.457-15.084 8.794-15.669 1.202-1.644 5.78-10.921 7.358-13.654 1.648-2.418 2.699-4.676 4.01-6.51 1.35-2.337 3.226-5.15 4.458-7.283.337-.584.595-1.468 1.042-2.242l1.121-1.943c1.722-2.982 3.744-5.795 5.678-8.644l5.823-8.579c3.146-5.449 6.505-7.659 8.972-13.754.485-1.278 1.796-3.112 2.172-4.201 1.402-3.339 3.309-6.641 5.114-9.768 1.569-2.717 3.393-4.529 5.269-7.342 2.076-3.594 5.291-7.027 7.966-10.303.151-.185.284-.385.416-.584.19-.286.387-.531.572-.764.376-.472.884-.907 1.186-1.429l.447-.774s.155-.247.247-.359c1.826-2.233 3.994-4.268 5.802-6.511l14.134-15.955c.754-.87 3.582-4.419 4.313-4.776.666-.324 2.359-1.344 3.151-2.019.143-.122.275-.32.387-.47.594-.798 1.24.85.832 1.757-.767 1.707-1.957 3.767-2.705 5.063l-2.095 3.192-1.013 1.753-1.716 3.411c-.675 1.169-1.649 2.418-2.244 3.886-1.143 2.866-2.478 3.925-3.994 6.484a2.072 2.072 0 0 0-.197.453c-.142.466-.315 1.014-.409 1.552-.111.631.622 1.037 1.261 1.081a.861.861 0 0 0 .316-.033 2.52 2.52 0 0 0 .116-.041c.78-.295.989.753.66 1.519l-.936 2.185c-.508 1.792-4.286 6.077-4.496 7.788-.144.674.843.672 1.309.165 1.925-2.096 5.385-6.634 7.023-8.329 1.768-1.749 2.915-4.117 4.725-5.621.095-.079.128-.145.235-.207.092-.052.246.049.313.132.772.951.041 1.045.24 2.413.251 1.852-.842 2.927-1.765 4.101-.677.861-.72 2.025-1.268 2.973l-.464.804c-.269.467-.86.42-.528.845l.148.187a.239.239 0 0 0 .06.049c.135.078.13.356-.026.371a1.368 1.368 0 0 1-.179.004.238.238 0 0 1-.114-.032l-.024-.014a.358.358 0 0 0-.494.139l-4.24 7.764c-.48.831-1.229 1.785-1.912 2.763-1.686 2.413.157 3.656 2.348 1.69.395-.355.908-.526 1.287-.899a7.27 7.27 0 0 0 .302-.321c.526-.475.526-.475.973-1.249.193-.335.407-.654.639-.952.709-.911 1.772-.527 1.195.473l-3.97 7.312c-.565.979-.337.584-.485 1.278-.055.22-.123.438-.2.653-.928 2.568-2.787 4.734-3.414 7.391-.302 1.23-1.112 1.698-1.376 2.748-.174.696-.329 1.377-.778 1.937-.111.139-.207.289-.319.427l-1.686 2.092c-1.092 1.454-1.607 3.221-2.362 4.091l-1.758 2.607c-.864 1.06-1.539 2.229-2.134 3.697-.561 1.674.432 2.585 1.645 1.302 2.134-2.258 4.45-5.555 5.015-6.535 1.122-1.943 1.323-3.638 3.037-5.26 1.069-.941.784-1.358 1.758-2.607.636-.665 1.407-1.526 2.043-2.191 1.148-1.528 2.777-2.807 3.888-4.363l4.854-6.8c.129-.18.369-.383.53-.537.707-.678 1.198-.069.829.838a32.222 32.222 0 0 1-1.603 3.321l-3.484 6.034c-.337.585-1.407 1.526-2.419 3.279-.525.91-1.112 1.78-1.735 2.625a3.93 3.93 0 0 0-.251.378l-10.39 17.085c-.447.774-.973 1.249-1.539 2.228l-7.49 10.714c-.446.773-.817 1.609-1.427 2.261l-.119.127a2.829 2.829 0 0 0-.382.515l-.96 1.663-5.418 8.035c-.645.791-1.571 1.561-2.217 2.642-.453.758-.397 1.664-.521 2.538-.073 1.214-.686 1.61-.762 2.626-.035.463.453.759.809.46.055-.046.11-.092.174-.135.358-.242.882.104.607.438-.19.231-.308.643-.036.768.587.269 1.578.409 1.974.052.892-.785 2.147-3.163 2.528-4.694.13-.519.194-1.071.131-1.603-.078-.665-.082-1.348.086-1.996l.051-.182c.182-.606.295-1.228.38-1.855.183-1.344.597-2.859 1.29-3.709.482-.556.684-1.161 1.085-1.612.502-.565 1.355-.604 1.989-1.016l.035-.024c.471-.322.704-.873.609-1.435-.159-.949.501-1.18 1.242-.566a4 4 0 0 0 .497.344c.434.26.985.251 1.365-.083 1.142-1.002 2.057-2.899 2.627-3.885 1.35-2.338 4.624-6.661 5.973-8.999.228-.395.281-1.396.509-1.791.109-.19.299-.081.299-.081a.217.217 0 0 0 .298-.08c2.753-4.381 5.644-8.286 8.439-12.551a36.396 36.396 0 0 1 2.295-3.129c.892-1.093 1.727-2.334 2.47-3.534.448-.723.911-1.417 1.243-1.763.404-.423.59-.452.866-.641.469-.322.755-.839 1.055-1.322.236-.379.47-.703.761-.989.075-.073.12-.12.176-.209.545-.871 1.055-.545.463.294-1.365 1.934-2.778 3.742-3.057 5.105-.197.676-2.856 5.103-4.622 8.47-.207.393.211.64.475.283.215-.292.55-.154.424.186-.526 1.413-1.759 3.288-2.28 4.191l-.234.494c-.6 1.264-1.355 2.419-1.8 3.747-.128.383-.345.839-.51 1.208-2.074 4.657-13.777 22.415-18.4 31.115-1.349 2.538-3.054 5.403-4.491 7.892l-1.437 2.489c-.761 1.318-1.058 2.903-2.077 4.034-1.092 1.454-.376 1.088-.932 2.052-.543.941-1.219 1.736-1.707 2.707l-.984 1.953c-.565.979-.171 1.207-1.269 2.637l-5.023 8.262c-.11.19-.714 1.673-.933 2.053-.228.394-1.311 1.833-1.539 2.228-.447.774-.823 1.863-1.27 2.637l-3.341 6.622c-.118.233.055.655.185.429.13-.225.517-.087.378.132-.466.737-1.404 1.769-2.247 2.868-.698 1.209-.91 2.622-1.645 3.809-.484.782-.959 1.69-2.358 5.822l-5.24 13.364c-.156.398-.23.79-.436 1.165a11.71 11.71 0 0 0-.762 1.772c-.09.261-.183.523-.345.803-.784 1.358-.417.285-1.122 1.942-1.251 3.954-1.042 2.242-1.944 3.806-.743 1.286-1.332 2.796-1.992 4.201-.47.999-1.079 1.802-1.934 2.499z" fill="#E40808"/>
    <g filter="url(#v3ps9xdjpa)">
        <path fill-rule="evenodd" clip-rule="evenodd" d="M119.897 359.83c.503.291.417.749.32 1.202l-.832-.315-.369.639-.369.639c-.44.763-.406.11-.466 1.092-.492.568-.892.667-1.261 1.307-.344.31-.732 1.268-.953 1.65l-.757 1.597c-.713.949-.696 1.798-1.49 2.865l.123.071-.22.382c-.369.639-.768 1.921-1.393 2.412-.769.739-.221.382-.59 1.021l-3.041 5.861-.708-.244-.881 1.526-.575-.167c-.332 1.169-.149.258.283.672-.44.763-.635.816-.952 1.65l-.469-.944c.195-.053.072-.124.072-.124l-.601.162-.272.187c-.052-.195.026-.329-.159-.601l-.795.214-.072.124.185.272c-.071.124-.025.329-.025.329.052.195.036.53.088.725-.328-.025-.328-.025-.477.233-.071.124-.168.576-.184.911l-1.016-.587-.256 1.035.873-.349c-.035.654-.22.382.211.796l-.415.434-.071.124-.857.014-.123-.071c-.108-.406-.232-.478-.089-.725-.149.258-.149.258-.168.576.052.195.123.072-.026.329l.257.149c.406-.11.195-.053.652.032l-.589 1.021c-.724.091-.328-.024-.672.286.169-.576.406-.11-.354-.548-.026.329.036.529-.493.568.108.406-.025.329-.44.763-.185-.272-.309-.343-.355-.549l-.123-.071-.185-.272c-.406.11-.272.187-.857.014.108.406.036.53-.255 1.035l-.38-.219s.123.071.051.195l.232.477c-.637-.368-1.089-.464-1.536-.543.246-.71.404-1.293.244-1.894l.549-.357c-.212-.796-.052-.195.112-.787-.451-.096-.786-.11-1.032-.252-.529.038-.052-.195-.549.357.469.944.16.6-.423 1.611-.83 1.721-.547 1.54-1.845 2.317-1.164.854-.168.576-1.687.882-1.272.448-1.358 1.759-1.736 2.723l-.477.233c-.37.64-.169.577-.466 1.092-.318.834-1.041.925-1.922 2.451l-1.198 2.36c-.724.091-.549.357-1.016.597l-1.64 1.087c-.31-.343-.869-.845-.064-1.054-.503-.29-.488-.625-.39-1.078.095-1.636 1.74-7.972 2.19-9.06.66-1.144.756-2.78 1.293-3.996.072-.124 2.052-5.593 1.892-6.194-.548.357-.697.615-1.004 1.455-.44.763-.549.357-1.04.925l-.565.692c-.671.286-.328-.025-1.077.395-.343.31-.343.31-.944.472-.291.506-.537 1.216-1.332 1.431-.406.109-.329-.025-.857.014-1.13.2-.698.614-.636.815-.025.329-.097.453-.035.654-.097.452-.168.576-.512.886-.708-.244-.794.215-1.349.582l.283.672c-.66 1.145-1.077.396-1.59 1.282l.232.478c-.492.568-.22.381-.892.667-.097.453-.026.329.037.53-.026.329.051.195-.169.576l-.451-.096-.476 1.417-.272.187.566.491c-.37.639-.478.233-.467 1.092l-.81 1.402s-.07.124-.22.382c0 0-.563.691-.768.738-.698.615-.564.692-.953 1.65l-.194.052-.072.124c-.795.215.415-.434-.194.053-.113.787-.538 1.215-1.102 1.907-.415.434-.98-.057-1.66 1.406l-.648-.017c-.169.577-.169.577-.564.692-.6.162-.195.053-.652-.032-3.993-.106-1.745-4.569-1.163-6.762 1.073-3.615 2.721-7.063 3.928-10.6l1.402-3.59c1.293-3.996 2.652-5.756 3.516-8.13l.732-1.268 1.285-2.819c.292-.505.112-.787.332-1.169.644-1.993 1.577-3.324 2.299-5.451.537-1.215 2.228-4.144 2.765-5.359.61-1.34 1.614-2.795 2.346-4.063l.589-1.021c1.27-2.484 4.645-8.33 6.064-10.219l2.875-4.101c1.736-2.723 4.012-5.478 5.82-8.325l1.941-2.77c.881-1.526 2.382-3.532 3.412-5.316 1.465-2.537 2.909-4.754 4.585-7.348.492-.568.803-1.392 1.172-2.031.493-.568.713-.95 1.076-1.579.369-.639 1.061-1.243 1.225-1.836.149-.258.547-1.54 1.138-1.378l.071-.124c-.108-.406-.088-.724.404-1.292l.635-.816c.978-1.979 4.155-5.726 5.626-8.273.66-1.144 1.501-2.006 2.161-3.151l2.46-3.667c.969-.801 2.459-3.666 3.766-4.768.415-.434.713-.949 1.138-1.378.343-.31.697-.614 1.112-1.048.415-.434.149-.258.626-.491 1.149-.519.989-1.12 1.861-1.469.309.343.417.749.443 1.273l.048 1.388c.036.53.272-.186.036.53l-.767 1.922c-.804 1.392-5.881 9.308-6.269 10.266-.072.123-.169.576-.318.834-.148.257-.123-.071-.369.639-.255 1.035-1.501 2.007-1.356 2.942 1.421-.705 2.85-2.588 4.157-3.69l1.385-1.235c.415-.434.846-.873 1.384-1.235.415-.434.892-.668 1.307-1.102 2.425-2.16.989-1.12 2.779-1.612.488.625.186.272 1.017.587.011.859-.589 1.021-1.024 1.774-.22.381-.245.71-.332 1.169-.097.452-.097.452-.184.911l-.589 1.021c-.989 1.12-.601.162-1.845 2.317-.803 1.392-1.198 2.36-2.202 3.815-.732 1.268-1.639 3.123-2.443 4.515.909.181.477-.233 1.237.205.212.796-.423 1.612-.536 2.399-.22.382-.112.788-.404 1.293l-1.576 3.324c-.246.711-.804 1.392-1.173 2.031l-.466 1.092c-.589 1.021-1.368 2.084-1.762 3.052-.333 1.169-.441.763-.881 1.526l-1.199 2.36c-.071.124-.414.435-.589 1.021l-1.244 2.155c-.415.434-.272.187-.512.887.821-.544 3.598-4.192 5.002-5.746 2.814-3.118 1.164-.854 3.149-2.251.697-.615.256.148 2.189-1.444 2.497-2.285 2.337-2.886 3.529-2.033l-.158 1.436c.549-.357 1.465-2.537 2.046-2.38l-1.905 3.299c-.246.711-.698.615-.353 1.488.515 1.149.283.672 1.151 1.517l.612.696-.749.42c-.272.187-.845 2.056-1.137 2.561-.22.382-.343.31-.512.887-.44.763-.846.872-1.137 1.378-.441.763-.625 1.674-.942 2.508-.661 1.145-.6.162-.758 1.597-.943.473-.626.491-.732 1.268-.025.329-.168.577-.317.835-.246.71.011.858-.424 1.611-.624 1.674-.3 1.683-.058 3.018-.697.615-.343.311-.537 1.216-.026.329-.072.124-.292.505-.22.382-.169.577-.317.834-.149.258-.344.311-.564.692-.22.382.063 1.054-.158 1.435-.097.453-.749.42-1.624 1.936.648 1.226.151 1.778-.741 2.445l-1.138 1.378c-.803 1.392-1.137 1.378-.484 2.594l-.369.639c-.291.506-.749.42-.749.42.052.195-.071.124-.071.124-.493.568.505 1.474-.733 1.268-.757 1.597-1.261 1.307-1.295 2.813z" fill="#fff"/>
    </g>
    <g filter="url(#cwtm2fh83b)">
        <path fill-rule="evenodd" clip-rule="evenodd" d="M134.386 175.803c-1.291-1.991-2.089-.607 1.408-3.473l3.777-3.352c.988-.676 1.338-2.318 2.844-3.89l3.329-3.611c2.304-2.956 3.588-4.059 6.173-7.501l2.844-3.891c1.247-1.124 1.991-1.292 3.912-1.429l-1.122-1.246c2.53-2.228.933.539 2.271-1.779 1.597-2.766 2.137-3.701 4.646-5.891.707-.19.988-.676.988-.676l1.247-1.124c2.574.888 1.381.798 3.47 1.406l-3.712 6.429c-.609 2.091 0 0-.124 2.371.135 1.922-.35 1.642-.922 3.754-.61 2.09-.923 3.754-1.98 5.586-.89 2.576-1.506 1.573-2.396 4.149-2.396 4.149-2.611 7.713-3.793 11.916l-4.467 10.928c-2.071 6.779-5.616 13.953-9.069 19.934-3.901 5.723-6.512 13.436-10.225 19.866l-31.342 61.703c-1.856 3.215-4.79 8.299-5.94 11.324-2.26 6.071-2.136 3.7-4.063 8.071-3.544 7.175-7.537 14.09-11.789 21.454l-5.849 10.131c-1.057 1.832-1.72 5.137-4.16 6.171.092-1.193-.135-1.922.216-3.564.922-3.754 3.857-8.838 5.713-12.053 2.137-3.701 10.882-26.264 14.648-33.909 2.466-5.305 4.727-11.377 7.214-16.719 2.271-1.779-.448-.259 1.921-.137-1.031-2.44-1.031-2.44.566-5.206l9.311-27.77.35-1.642.124-2.37c-.583-2.181.707-.19-1.29-1.992-1.338 2.318-1.149 3.025-3.195 5.533-1.338 2.318-.89 2.576-2.206 4.857-1.338 2.317-1.786 2.059-2.655 4.598-.663 3.305-3.453 5.981-4.602 9.006-1.597 2.766-.663 3.305-1.462 4.688l-5.984 8.209c-2.844 3.89-4.791 8.298-6.739 12.707-.798 1.383-2.304 2.956-2.844 3.89-1.057 1.832-.54.935-.89 2.577-1.057 1.831-1.246 1.124-1.786 2.059-.54.934-.474 4.012-3.41 9.096-.798 1.383-2.303 2.956-3.102 4.339l-3.577 8.352c-1.948 4.408-5.499 8.489-7.187 12.448-1.338 2.318-2.779 6.969-4.861 9.455l-4.602 9.006c-1.15 3.025-3.362 4.788-4.511 7.813-.89 2.577-11.563 22.183-12.361 23.566-3.07 3.162-1.948 4.409-4.063 8.072-1.786 2.059-3.901 5.722-4.791 8.299-.89 2.576-2.466 5.305-4.063 8.071-1.058 1.832-1.786 2.059-2.585 3.443-.89 2.576.135 1.922-1.408 3.473-.988.676-2.72 1.52-3.686 2.158l-9.75 15.853c-1.338 2.318-3.901 5.723-4.252 7.365-.922 3.753-.61 2.09-1.856 3.214-1.473.396-1.786 2.059-3.07 3.162l-3.686 2.159c-5.348 1.846-3.847 4.507-8.504 14.728-1.947 4.408-3.712 6.43-4.79 8.299-.8 1.383-.351 1.642-1.409 3.474-.54.934-2.272 1.778-2.585 3.442l-3.905 7.713c-.394-1.473-.26.449-.135-1.922l.54-.934c-.675-.988-1.291-1.992-2.953-2.303l-.136-1.922c.26-.449-.189-.708-.189-.708.124-2.371 1.408-3.473 1.721-5.137.799-1.383.988-.676 1.733-.844l.259-.448-.934-.539c-.675-.988-.26.448-.19-.708.61-2.09 2.261-6.071 2.87-8.162.89-2.576 1.463-4.688 2.331-7.227.61-2.091 2.746-5.792 3.06-7.455.404-2.857-.719-4.103.43-7.128 1.058-1.832 2.304-2.956 2.655-4.598.922-3.754 1.72-5.137 3.318-7.903.091-1.194-.135-1.922.663-3.306.35-1.641.799-1.383 1.15-3.025.89-2.576 1.083-6.103 3.453-5.981.404-2.856-.988.676.123-2.37 1.598-2.767.092-1.194 1.463-4.689l-13.171 20.657c-2.207 4.856-6.038 9.423-9.211 14.918-2.137 3.701-8.368 16.651-11.887 19.554-.448-.259-3.022-1.147-4.685-1.459-2.369-.122-2.088-.608-3.438-2.583-.798 1.383-1.149 3.025-2.206 4.857-1.058 1.831-2.045 2.507-3.103 4.339-4.602 9.006-4.791 8.299-9.977 15.124l-3.346-3.776-.26.448.345.698c.394 1.473.394 1.473-.405 2.856-1.57-1.505-.448-.259-.674-.987-.394-1.474-.044-3.116.307-4.758 1.149-3.025.922-3.754 1.364-6.589-1.921.137-.988.676-2.887.776l-2.575-.889c.475-4.012 1.597-2.766.566-5.206l-.999-3.617 3.168-1.261c-2.504-2.044-2.37-.122-2.224-2.53-.394-1.473 1.721-5.137 2.26-6.071l-.043-3.116c2.18-.585 1.922-.137 3.821-.236-.674-.988-1.122-1.246-1.775-2.271.987-.676 1.473-.396 2.271-1.779-1.83-1.057-2.089-.608-2.224-2.53 1.641.349 1.193.09 2.18-.585-.393-1.474-.393-1.474-1.775-2.272l.54-.934c1.407-3.474 1.882-7.487 4.116-9.287l-1.123-1.246c.799-1.383.89-2.576.923-3.754.091-1.193.091-1.193-.135-1.922.091-1.193.707-.19.091-1.193l-1.856 3.214-6.556 10.321c-3.264 6.688-8.044 19.28-15.61 21.69-.324-2.629-1.031-2.439-.977-3.654-.135-1.922.663-3.305 1.72-5.137.449.259-.798 1.383 1.193.09-.772-2.888-1.64-.349-.491-3.374.922-3.754 3.264-6.688 4.208-10.479l3.274-11.019c.54-.935.35-1.642 1.15-3.025l2.519-6.52c1.408-3.474 2.79-2.676 3.264-6.689l.091-1.193.26-.449.565-5.205c.091-1.194.61-2.091 1.149-3.025.54-.935 0 0 .988-.676.987-.676.189.707.259-.449.091-1.193-.584-2.181.474-4.012 1.058-1.832.988-.676 2.979-1.969-.977-3.654-1.031-2.44.755-4.499 1.786-2.059 1.149-3.025 1.947-4.408-.189-.707.61-2.09 1.15-3.025l2.395-4.149 1.057-1.832c1.058-1.832 0 0 .351-1.642.663-3.305 3.668-9.545 5.266-12.311 1.338-2.318 0 0 1.505-1.573 2.844-3.891 2.072-6.779 3.48-10.253 1.812-6.33 6.458-12.22 8.11-16.202 1.617-3.751 3.473-6.966 5.869-11.115 2.045-2.507 3.194-5.532 4.791-8.299l9.47-15.367c1.338-2.317 3.362-4.788 4.7-7.105l9.437-14.19c2.045-2.507 3.642-5.274 4.959-7.554 1.057-1.832 1.246-1.124 2.53-2.227 2.272-1.779 11.618-14.775 13.404-16.834l10.01-16.301c2.913-5.047 10.774-16.508 14.228-22.489 3.361-4.788 12.157-15.709 15.967-20.238 5.633-6.567 14.811-20.308 18.362-24.388.988-.676 10.775-16.507 13.787-19.653l32.24-45.235c.799-1.383 1.597-2.766 3.238-2.417-.124 2.371-3.712 6.43-4.791 8.299-1.058 1.832.394 1.474-1.689 3.96l-8.153 13.086c-7.041 10.04-11.698 20.261-18.254 30.582l2.531-2.228c.988-.675.988-.675 1.991-1.292l46.881-58.863c1.505-1.573 2.271-1.778 3.777-3.351 1.517 2.72-.091 1.193 1.031 2.44 4.576-4.736 7.625-7.86 10.118-10.109 1.787-2.059.54-.934 1.733-.844 2.18-.585.259-.448 1.991-1.292 1.786-2.06-.583-2.181 2.439-1.034-1.338 2.317-3.103 4.339-4.926 6.376-2.272 1.779-2.531 2.227-4.128 4.994l-5.499 8.488c-2.136 3.701-3.577 8.352-6.647 11.514l-3.362 4.788c-.539.934-1.505 1.573-2.585 3.442-2.584 3.442-4.791 8.299-7.635 12.189-2.045 2.508-2.913 5.047-3.992 6.916-.54.935-1.058 1.832-2.046 2.508l-6.038 9.423c-4.062 8.071-8.919 13.292-10.99 20.071-.89 2.576-4.441 6.657-4.208 10.48 0 0 .448.258.707-.19 2.72-1.52 5.822-5.859 7.624-7.859.259-.449.799-1.383 1.506-1.573 4.646-5.891 9.885-13.931 14.909-18.407 3.238-2.417 4.97-3.261 7.016-5.769 4.835-5.183 7.624-7.859 13.545-11.818 3.237-2.417 3.07-3.162 6.799-2.204l-6.738 12.706c-2.396 4.15-.923 3.754-.825 5.655-1.991 1.293-1.506 1.573-3.07 3.162-.54.934-1.992 1.292-2.531 2.227-1.506 1.573-2.914 5.047-3.804 7.623-.798 1.383-3.642 5.274-4.7 7.105l-.798 1.384c-2.045 2.507-.89 2.576-1.948 4.408-.798 1.383-2.789 2.676-3.361 4.788l2.53-2.228-1.149 3.025c1.193.091.934.539 2.316 1.337-.799 1.383-1.597 2.766-1.408 3.474 1.732-.844 2.271-1.779 3.237-2.417 2.72-1.52 3.071-3.162 4.226-3.093l1.344-.172z" fill="#086DE4"/>
    </g>
    <defs>
        <filter id="v3ps9xdjpa" x="65.201" y="282.492" width="87.996" height="141.728" filterUnits="userSpaceOnUse" color-interpolation-filters="sRGB">
            <feFlood flood-opacity="0" result="BackgroundImageFix"/>
            <feColorMatrix in="SourceAlpha" values="0 0 0 0 0 0 0 0 0 0 0 0 0 0 0 0 0 0 127 0" result="hardAlpha"/>
            <feOffset dx="11" dy="16"/>
            <feGaussianBlur stdDeviation="2"/>
            <feComposite in2="hardAlpha" operator="out"/>
            <feColorMatrix values="0 0 0 0 0 0 0 0 0 0 0 0 0 0 0 0 0 0 0.25 0"/>
            <feBlend in2="BackgroundImageFix" result="effect1_dropShadow_255_3244"/>
            <feBlend in="SourceGraphic" in2="effect1_dropShadow_255_3244" result="shape"/>
        </filter>
        <filter id="cwtm2fh83b" x="-91.215" y="68.725" width="293.389" height="418.171" filterUnits="userSpaceOnUse" color-interpolation-filters="sRGB">
            <feFlood flood-opacity="0" result="BackgroundImageFix"/>
            <feColorMatrix in="SourceAlpha" values="0 0 0 0 0 0 0 0 0 0 0 0 0 0 0 0 0 0 127 0" result="hardAlpha"/>
            <feOffset dx="28"/>
            <feGaussianBlur stdDeviation="2"/>
            <feComposite in2="hardAlpha" operator="out"/>
            <feColorMatrix values="0 0 0 0 0 0 0 0 0 0 0 0 0 0 0 0 0 0 0.15 0"/>
            <feBlend in2="BackgroundImageFix" result="effect1_dropShadow_255_3244"/>
            <feBlend in="SourceGraphic" in2="effect1_dropShadow_255_3244" result="shape"/>
        </filter>
    </defs>
</svg>
