<svg width="253" height="487" viewBox="0 0 253 487" fill="none" xmlns="http://www.w3.org/2000/svg">
    <path fill-rule="evenodd" clip-rule="evenodd" d="M190.634 264.801c.017.829.512 1.834 1.333 1.721.841-.115 1.568-.68 1.973-1.426 3.045-5.604 13.813-26.206 19.433-37.505 1.578-3.172 1.264-3.266-1.432-.967-.222.19-.415.342-.629.541-2.575 2.407-.05-1.939-3.605 4.936-1.053 1.824-2.744 3.246-3.478 5.22-.415 1.117-.827 2.237-1.313 3.079-1.338 2.317-1.629 4.376-2.967 6.693a49494.42 49494.42 0 0 0-4.029 6.978c-1.338 2.317-2.555 5.171-3.504 6.815-1.287 2.229-1.819 2.109-1.782 3.915zm55.574-22.015a1.34 1.34 0 0 0 .036 1.397 1.379 1.379 0 0 1-.006 1.49c-.892 1.396-1.413 2.467-1.921 3.307-1.46 2.413-4.079 4.308-5.548 6.716-.338.554-.713 1.512-1.145 3.449-1.511 4.373 2.829 5.45 4.794 1.261.195-.414.37-.819.524-1.206.501-1.259.943-2.552 1.583-3.746l3.626-6.762c.66-1.231.543-2.602.471-3.997-.182-2.851.091-3.957-.19-4.793-.198-.586-1.132-.265-.985.335.053.218.015.378-.097.572l-1.142 1.977zm-44.101 126.429c-1.33 1.084-2.026 2.895-3.045 4.274-.528.715-1.049 1.322-1.624 2.739-2.302 3.988.284 1.062-3.504 6.815-1.862 2.481-2.741 5.494-3.931 8.364-.763 1.32-.899.81-1.863 2.481l-7.028 11.426c-.273.473-.571 1.358-.86 2.076-.212.529-.432.964-.611 1.505-1.418 4.291-4.677 1.237-3.37-3.089 1.371-4.539 3.347-8.97 4.728-13.347.889-2.85 6.154-15.447 7.737-20.139.244-.725-.088-.932-.402-.235a.945.945 0 0 1-.295.351c-.681.49-1.487 1.208-1.829 1.8-.576.997.673.389-.439 1.507-1.661 2.131-.86-.065-3.551 4.596l-7.144 13.119c-.634 1.67-1.567 3.42-2.268 5.363-.414 1.149-1.438 1.913-2.199 2.868-1.107 1.392-3.485 3.123-2.971 1.421.161-.534.477-1.269.627-2.284.021-.145.049-.289.09-.43.148-.518.321-1.152.527-1.838.476-1.585-.042-1.976-1.139-.737a3.93 3.93 0 0 0-.298.383c-.304.438-.753.865-1.198 1.292-.916.879-1.731 1.873-2.493 2.888-1.537 2.046-2.68 4.415-4.043 6.129-1.863 2.481-3.924 5.243-5.787 7.724-4.269 6.719-8.782 3.212-9.589.183-.16-.605.085-1.183.268-1.782.126-.413.066-.888.106-1.317l.371-3.951c1.294-9.886 11.017-29.025 12.389-34.448.93-3.548 3.262-7.892 4.523-11.498.366-1.048-.327-2.207-1.315-1.702-2.838.995-7.687 2.134-11.338 1.665-.746-.095-.807-.712-.059-.646.098.009.229.001.324-.025l2.999-.805c.703-.189 1.368-.515 2.071-.705.148-.04.311-.085.5-.152.53-.188 1.046-.418 1.596-.531a31.655 31.655 0 0 1 1.689-.285c3.406-.503 2.703-1.722-.736-1.874a5.7 5.7 0 0 1-2.17-.536c-.728-.335-.914-1.242-1.407-1.874-.39-.5-1.123-.601-1.937-.651-.964-.058-1.197-1.064-.417-1.635.614-.45.655-1.352.069-1.839-1.382-1.15-1.286-1.023-1.294-2.854a2.008 2.008 0 0 0-1.017-1.724l-.323-.187-.323-.186c.799-2.103 3.779-.874 1.1-4.032a4.992 4.992 0 0 1-.568-.781c-.739-1.321-1.213-3.033-1.319-4.266a1.919 1.919 0 0 1 .048-.506c.255-1.139-1.029-1.088-1.612-.077l-1.87 3.238-1.726 2.99-.591 1.024a.824.824 0 0 0-.083.627c.111.414-.121.836-.483 1.065-2.172 1.381-2.441 4.934-4.972 7.9-3.737 4.919-3.827 6.628-6.685 8.534-.363.248-.679.401-.997.556-.66.322-1.271.885-1.693 1.486-1.483 2.11-3.205 4.221-4.249 6.58-.727 1.643-1.593 3.409-2.331 4.549-.299.462-.6.923-1.048 1.243-.876.626-1.736 1.375-2.175 2.358l-.079.182c-.334.784-.834 1.477-1.411 2.104l-.331.358c-.797.865-1.506 1.811-2.035 2.862-.507 1.008-.749 1.501-2.163 2.887-1.2 1.082-2.098 2.331-3.298 3.413-1.287 1.484-.859-.065-3.484 3.736-3.065 5.308-2.536 2.092-4.45 5.406l-.956 2.022c-.629 1.327-2.718 2.066-2.52.611.145-1.058-.696-2.071-1.703-2.425-2.405-.845-1.675-2.317-.476-5.7.253-1.183.642-1.857.868-3.056.006-.032.014-.063.021-.095.54-2.192 1.75-4.171 2.618-6.256.911-2.192 1.968-4.311 2.761-6.549.328-.923.66-1.853 1.039-2.853l5.32-11.513c.191-.331.314-.591.398-.819.524-1.427.918-2.872 1.545-4.256.432-.952.726-1.965 1.066-2.953.475-1.383.626-2.121 1.654-3.902l.965-1.67 28.369-55.29c.762-1.32 1.404-3.177 1.777-3.824l3.251-5.631 9.097-17.309c1.217-2.854 5.503-8.785 5.992-11.125.479-2.382 14.424-25.729 15-26.726 2.049-2.804 9.858-18.629 12.549-23.29 2.812-4.124 4.605-7.975 6.841-11.103 2.302-3.987 5.503-8.785 7.603-12.423.576-.997 1.015-2.503 1.777-3.823l1.914-3.314c.559-.969 1.153-1.794 1.749-2.604 2.244-3.05 4.046-6.412 6.172-9.545l11.694-17.229c5.367-9.295 11.096-13.065 15.304-23.46.828-2.181 3.064-5.308 3.706-7.165 2.391-5.696 5.643-11.327 8.723-16.662 2.675-4.634 5.786-7.724 8.987-12.522 3.54-6.13 9.024-11.987 13.586-17.574.259-.316.485-.657.711-.997.323-.488.659-.906.975-1.303.642-.805 1.508-1.546 2.023-2.437l.762-1.32s.264-.42.422-.613c3.114-3.808 6.812-7.28 9.895-11.105l24.108-27.215c1.288-1.484 6.11-7.537 7.358-8.146 1.135-.553 4.023-2.292 5.374-3.444.243-.208.469-.545.661-.802 1.013-1.36 2.114 1.45 1.418 2.998-1.308 2.911-3.337 6.425-4.613 8.636l-3.574 5.444-1.727 2.991-2.928 5.818c-1.152 1.993-2.812 4.124-3.827 6.628-1.949 4.887-4.226 6.694-6.813 11.059a3.563 3.563 0 0 0-.336.773c-.241.795-.537 1.73-.698 2.647-.189 1.076 1.062 1.769 2.152 1.844.178.012.369-.002.539-.057.072-.023.137-.046.197-.069 1.33-.504 1.687 1.283 1.127 2.591l-1.597 3.727c-.867 3.056-7.311 10.364-7.669 13.283-.245 1.15 1.438 1.147 2.233.281 3.283-3.574 9.185-11.316 11.978-14.206 3.016-2.983 4.972-7.022 8.059-9.588.162-.135.22-.247.402-.352.157-.09.419.084.533.224 1.318 1.623.07 1.782.41 4.117.429 3.158-1.436 4.992-3.011 6.994-1.154 1.468-1.228 3.455-2.161 5.072l-.792 1.371c-.459.796-1.467.716-.902 1.44l.252.32c.024.029.071.066.104.084.23.133.221.608-.044.633a2.61 2.61 0 0 1-.306.007.41.41 0 0 1-.195-.056l-.04-.023a.612.612 0 0 0-.843.237l-7.233 13.242c-.818 1.418-2.096 3.046-3.261 4.714-2.875 4.116.268 6.235 4.005 2.882.675-.605 1.55-.897 2.196-1.533.129-.128.296-.304.514-.548.899-.81.899-.81 1.661-2.13.329-.571.694-1.117 1.09-1.625 1.208-1.554 3.021-.898 2.037.807l-6.771 12.473c-.964 1.67-.575.997-.828 2.18-.305 1.243-.869 2.435-1.436 3.592-1.255 2.561-2.141 5.267-3.767 7.61-.327.47-.635 1.14-.961 2.519-.515 2.096-1.896 2.895-2.346 4.686-.298 1.188-.562 2.349-1.327 3.304-.19.237-.354.492-.545.729l-2.875 3.567c-1.863 2.481-2.742 5.494-4.029 6.978l-2.998 4.448c-1.474 1.808-2.626 3.801-3.64 6.305-.957 2.855.737 4.41 2.805 2.221 3.64-3.852 7.59-9.476 8.554-11.146 1.914-3.314 2.256-6.206 5.18-8.972 1.824-1.605 1.338-2.317 2.999-4.448 1.085-1.134 2.399-2.602 3.485-3.736 1.957-2.607 4.736-4.789 6.63-7.442l8.281-11.598c.22-.308.63-.655.903-.917 1.206-1.156 2.044-.118 1.415 1.43-.857 2.107-2.12 4.598-2.735 5.664l-5.942 10.293c-.576.996-2.4 2.602-4.126 5.593a48.038 48.038 0 0 1-2.96 4.476 6.863 6.863 0 0 0-.428.645l-17.721 29.141c-.763 1.321-1.661 2.131-2.626 3.802l-12.775 18.274c-.761 1.318-1.394 2.744-2.434 3.856l-.203.217a4.9 4.9 0 0 0-.652.878l-1.638 2.838-9.24 13.705c-1.101 1.349-2.68 2.662-3.782 4.505-.773 1.294-.677 2.838-.889 4.33-.125 2.07-1.17 2.746-1.3 4.478-.059.791.774 1.295 1.38.785.094-.079.188-.156.297-.229.611-.414 1.504.176 1.036.746-.324.394-.526 1.097-.062 1.31 1.002.459 2.691.698 3.367.088 1.521-1.339 3.662-5.394 4.313-8.005.22-.886.33-1.828.223-2.734-.133-1.135-.14-2.3.147-3.406.026-.102.055-.205.087-.31.309-1.034.502-2.095.648-3.164.312-2.292 1.017-4.876 2.2-6.327.822-.947 1.167-1.98 1.85-2.749.857-.963 2.311-1.03 3.392-1.732l.061-.042a2.449 2.449 0 0 0 1.039-2.448c-.272-1.619.853-2.011 2.118-.965.224.185.5.38.847.587.74.443 1.681.427 2.329-.141 1.948-1.71 3.509-4.945 4.48-6.628 2.303-3.987 7.887-11.361 10.189-15.348.389-.674.479-2.383.868-3.056.186-.323.509-.137.509-.137a.373.373 0 0 0 .51-.137c4.695-7.472 9.626-14.133 14.394-21.409a62.253 62.253 0 0 1 3.913-5.336c1.523-1.864 2.947-3.982 4.214-6.028.763-1.234 1.554-2.417 2.119-3.007.691-.722 1.008-.771 1.479-1.094.799-.549 1.286-1.431 1.799-2.254.403-.646.802-1.2 1.297-1.687.128-.126.206-.205.301-.357.929-1.485 1.8-.93.789.501-2.327 3.299-4.737 6.384-5.213 8.708-.337 1.153-4.872 8.705-7.885 14.447-.352.671.361 1.093.811.483.367-.498.939-.262.723.318-.896 2.41-3 5.608-3.889 7.148l-.399.842c-1.023 2.157-2.312 4.127-3.07 6.391-.218.653-.589 1.432-.869 2.062-3.538 7.943-23.5 38.233-31.386 53.071-2.3 4.33-5.209 9.216-7.66 13.462l-2.451 4.244c-1.298 2.249-1.804 4.952-3.542 6.881-1.863 2.481-.642 1.857-1.591 3.501-.926 1.604-2.079 2.961-2.912 4.616l-1.677 3.332c-.964 1.67-.291 2.059-2.166 4.497l-8.567 14.094c-.187.323-1.217 2.854-1.59 3.5-.389.674-2.237 3.128-2.626 3.801-.762 1.321-1.403 3.178-2.166 4.498l-5.699 11.295c-.2.398.093 1.118.316.732.222-.384.881-.149.644.226-.795 1.256-2.394 3.017-3.832 4.892-1.19 2.061-1.553 4.471-2.805 6.496-.826 1.334-1.637 2.882-4.023 9.93l-8.937 22.795c-.266.68-.393 1.348-.744 1.987-.518.941-.949 2.009-1.3 3.023-.154.445-.313.891-.588 1.369-1.338 2.317-.712.487-1.914 3.314-2.134 6.742-1.777 3.823-3.317 6.491-1.266 2.193-2.271 4.769-3.398 7.166-.801 1.704-1.84 3.072-3.298 4.262z" fill="#E40808"/>
    <g filter="url(#ibdrlilt5a)">
        <path fill-rule="evenodd" clip-rule="evenodd" d="M217.131 186.49c-1.119-1.726-1.811-.527 1.221-3.012l3.276-2.906c.857-.586 1.16-2.01 2.466-3.374l2.887-3.131c1.998-2.564 3.112-3.52 5.353-6.505l2.467-3.374c1.081-.975 1.726-1.121 3.392-1.24l-.973-1.08c2.194-1.932.809.467 1.97-1.543 1.385-2.399 1.853-3.209 4.029-5.108.613-.165.856-.586.856-.586l1.081-.975c2.233.77 1.198.691 3.01 1.219l-3.219 5.575c-.529 1.813 0 0-.108 2.056.117 1.667-.304 1.424-.8 3.256-.528 1.812-.8 3.255-1.717 4.843-.772 2.235-1.306 1.364-2.077 3.599-2.078 3.598-2.265 6.689-3.289 10.333l-3.874 9.477c-1.796 5.878-4.87 12.1-7.865 17.287-3.383 4.962-5.647 11.651-8.866 17.227l-27.18 53.508c-1.609 2.788-4.155 7.196-5.151 9.82-1.96 5.265-1.853 3.209-3.523 6.999-3.074 6.222-6.536 12.219-10.223 18.605l-5.073 8.785c-.917 1.589-1.492 4.455-3.607 5.351.079-1.034-.117-1.666.186-3.09.8-3.255 3.346-7.664 4.955-10.452 1.853-3.209 9.437-22.777 12.703-29.406 2.138-4.6 4.098-9.866 6.255-14.499 1.97-1.542-.388-.224 1.666-.118-.894-2.116-.894-2.116.491-4.515l8.074-24.081.304-1.424.108-2.056c-.506-1.891.613-.165-1.119-1.727-1.161 2.01-.997 2.624-2.77 4.798-1.161 2.01-.772 2.234-1.914 4.212-1.16 2.01-1.549 1.785-2.302 3.987-.575 2.866-2.994 5.187-3.991 7.81-1.385 2.399-.575 2.866-1.268 4.066l-5.189 7.118c-2.466 3.374-4.155 7.197-5.844 11.019-.692 1.2-1.998 2.564-2.466 3.374-.917 1.589-.468.811-.772 2.234-.917 1.589-1.081.976-1.549 1.786-.468.81-.411 3.48-2.956 7.888-.693 1.2-1.999 2.564-2.691 3.763l-3.102 7.243c-1.689 3.823-4.768 7.361-6.233 10.795-1.16 2.01-2.409 6.043-4.215 8.199l-3.991 7.81c-.996 2.623-2.915 4.152-3.912 6.775-.771 2.234-10.027 19.237-10.719 20.437-2.663 2.741-1.689 3.822-3.523 6.999-1.549 1.786-3.383 4.962-4.155 7.197-.772 2.234-2.138 4.6-3.523 6.999-.917 1.589-1.549 1.786-2.242 2.985-.772 2.234.117 1.667-1.221 3.012-.856.587-2.358 1.319-3.196 1.872l-8.455 13.748c-1.161 2.009-3.384 4.962-3.688 6.386-.8 3.255-.528 1.813-1.61 2.788-1.277.343-1.548 1.785-2.662 2.742l-3.196 1.871c-4.638 1.602-3.336 3.909-7.374 12.773-1.689 3.822-3.22 5.575-4.155 7.196-.693 1.2-.304 1.424-1.221 3.013-.468.81-1.97 1.542-2.242 2.984l-3.387 6.69c-.341-1.278-.224.389-.117-1.667l.468-.811c-.585-.856-1.119-1.726-2.56-1.997l-.117-1.667c.224-.389-.164-.613-.164-.613.107-2.056 1.22-3.012 1.492-4.455.693-1.199.857-.586 1.502-.732l.225-.389-.81-.467c-.585-.857-.224.389-.164-.613.529-1.813 1.96-5.266 2.489-7.078.772-2.235 1.268-4.066 2.02-6.268.53-1.813 2.382-5.022 2.654-6.465.35-2.477-.623-3.558.373-6.181.917-1.588 1.998-2.564 2.302-3.987.8-3.256 1.493-4.455 2.878-6.854.08-1.035-.117-1.667.575-2.866.304-1.424.693-1.2.997-2.623.771-2.235.94-5.293 2.994-5.187.35-2.478-.856.586.108-2.056 1.385-2.399.079-1.035 1.267-4.066l-11.421 17.913c-1.914 4.212-5.236 8.172-7.987 12.937-1.853 3.21-7.257 14.44-10.309 16.957-.388-.224-2.62-.995-4.062-1.265-2.055-.106-1.812-.527-2.982-2.24-.692 1.2-.996 2.623-1.913 4.212-.917 1.588-1.774 2.174-2.69 3.763-3.992 7.81-4.156 7.196-8.652 13.115l-2.903-3.275-.224.389.298.605c.342 1.278.342 1.278-.35 2.477-1.363-1.305-.39-.224-.586-.856-.341-1.278-.037-2.702.267-4.126.996-2.623.8-3.255 1.183-5.714-1.666.119-.857.586-2.504.673l-2.233-.771c.412-3.479 1.385-2.398.491-4.514l-.866-3.137 2.747-1.093c-2.172-1.773-2.055-.106-1.928-2.194-.342-1.278 1.492-4.455 1.96-5.266l-.038-2.701c1.89-.508 1.666-.119 3.314-.205-.585-.857-.974-1.081-1.54-1.97.856-.586 1.277-.343 1.97-1.542-1.587-.916-1.812-.527-1.929-2.194 1.423.303 1.034.078 1.89-.508-.34-1.278-.34-1.278-1.54-1.97l.469-.81c1.22-3.012 1.632-6.492 3.57-8.053l-.974-1.081c.693-1.199.772-2.234.8-3.255.08-1.035.08-1.035-.117-1.667.08-1.035.613-.165.08-1.035l-1.61 2.788-5.686 8.95c-2.83 5.8-6.976 16.719-13.537 18.81-.28-2.281-.894-2.116-.847-3.17-.117-1.666.575-2.866 1.492-4.454.39.224-.692 1.199 1.035.078-.67-2.504-1.423-.303-.427-2.926.8-3.255 2.83-5.8 3.65-9.088l2.84-9.555c.467-.81.303-1.424.995-2.623l2.185-5.654c1.221-3.013 2.42-2.321 2.831-5.801l.08-1.034.224-.389.49-4.515c.08-1.035.529-1.813.997-2.623.468-.811 0 0 .856-.586.857-.586.164.613.225-.389.08-1.035-.506-1.891.411-3.48.917-1.588.857-.586 2.584-1.707-.848-3.169-.895-2.116.654-3.901 1.55-1.786.997-2.623 1.69-3.823-.165-.613.528-1.813.995-2.623l2.078-3.598.917-1.589c.917-1.588 0 0 .304-1.424.575-2.866 3.181-8.277 4.566-10.676 1.16-2.01 0 0 1.306-1.364 2.466-3.374 1.796-5.878 3.017-8.891 1.572-5.489 5.6-10.598 7.033-14.05 1.403-3.253 3.012-6.041 5.09-9.639 1.773-2.175 2.77-4.798 4.155-7.197l8.212-13.326c1.16-2.01 2.915-4.152 4.075-6.162l8.184-12.304c1.774-2.175 3.159-4.574 4.3-6.551.918-1.589 1.082-.975 2.195-1.932 1.97-1.542 10.075-12.812 11.624-14.598l8.679-14.136c2.527-4.377 9.345-14.315 12.339-19.502 2.915-4.152 10.542-13.623 13.846-17.55 4.886-5.695 12.845-17.611 15.924-21.149.857-.586 9.344-14.315 11.956-17.043l27.958-39.227c.693-1.199 1.385-2.399 2.808-2.096-.107 2.056-3.219 5.576-4.155 7.197-.917 1.588.342 1.277-1.464 3.433l-7.07 11.349c-6.107 8.706-10.145 17.57-15.83 26.52l2.195-1.932c.856-.586.856-.586 1.727-1.121l40.654-51.045c1.305-1.364 1.97-1.542 3.275-2.906 1.316 2.359-.079 1.035.895 2.116 3.968-4.106 6.612-6.816 8.774-8.766 1.549-1.785.468-.81 1.502-.732 1.891-.508.225-.389 1.727-1.121 1.549-1.785-.506-1.891 2.115-.897-1.16 2.01-2.691 3.763-4.272 5.53-1.97 1.543-2.195 1.932-3.58 4.33l-4.768 7.362c-1.853 3.209-3.102 7.242-5.764 9.984l-2.916 4.152c-.468.811-1.305 1.364-2.241 2.985-2.242 2.985-4.155 7.197-6.621 10.571-1.774 2.174-2.527 4.376-3.463 5.997-.468.81-.917 1.588-1.773 2.174l-5.236 8.172c-3.523 7-7.735 11.527-9.531 17.405-.772 2.235-3.851 5.773-3.65 9.088 0 0 .389.225.614-.164 2.358-1.318 5.049-5.081 6.612-6.816.224-.389.692-1.199 1.305-1.364 4.029-5.108 8.573-12.08 12.93-15.962 2.807-2.096 4.31-2.828 6.083-5.003 4.193-4.495 6.612-6.815 11.746-10.248 2.808-2.096 2.663-2.742 5.897-1.912l-5.844 11.02c-2.077 3.598-.8 3.255-.715 4.903-1.727 1.121-1.306 1.364-2.663 2.742-.468.81-1.726 1.121-2.194 1.931-1.306 1.364-2.527 4.377-3.299 6.611-.692 1.199-3.158 4.573-4.075 6.162l-.693 1.199c-1.774 2.175-.772 2.234-1.689 3.823-.692 1.199-2.419 2.32-2.915 4.152l2.195-1.932-.997 2.624c1.034.078.81.467 2.008 1.159-.692 1.199-1.385 2.399-1.221 3.012 1.502-.732 1.97-1.542 2.808-2.096 2.358-1.318 2.662-2.742 3.664-2.682l1.165-.149z" fill="#086DE4"/>
    </g>
    <g filter="url(#jz4trg79pb)">
        <path fill-rule="evenodd" clip-rule="evenodd" d="M146.635 206.229c.881.509.729 1.312.56 2.104l-1.456-.551-.647 1.119-.646 1.12c-.771 1.336-.71.191-.816 1.912-.862.994-1.562 1.168-2.208 2.287-.602.544-1.283 2.221-1.668 2.889l-1.327 2.797c-1.248 1.663-1.218 3.148-2.609 5.018l.216.124-.386.668c-.646 1.12-1.343 3.365-2.439 4.225-1.346 1.293-.386.668-1.032 1.788l-5.326 10.262-1.24-.428-1.543 2.673-1.006-.293c-.582 2.047-.261.452.496 1.177-.772 1.336-1.113 1.428-1.668 2.889l-.82-1.653c.341-.092.125-.217.125-.217l-1.051.284-.477.327c-.091-.341.045-.576-.28-1.052l-1.392.375-.125.217.325.476c-.125.217-.045.576-.045.576.091.342.064.928.155 1.269-.575-.043-.575-.043-.836.409-.125.216-.295 1.009-.321 1.595l-1.781-1.028-.447 1.813 1.528-.611c-.061 1.144-.386.668.37 1.394l-.726.76-.125.216-1.501.025-.216-.125c-.189-.711-.405-.836-.155-1.269-.26.451-.26.451-.295 1.009.091.342.216.125-.044.576l.449.26c.71-.192.341-.092 1.142.057l-1.032 1.788c-1.267.159-.575-.043-1.176.5.295-1.009.71-.191-.621-.96-.045.576.064.928-.862.995.189.711-.045.576-.771 1.336-.325-.476-.541-.601-.621-.96l-.216-.125-.324-.476c-.711.192-.477.327-1.501.024.189.711.064.928-.447 1.813l-.666-.385s.216.125.091.342l.405.835c-1.115-.644-1.906-.811-2.689-.95.431-1.244.708-2.264.428-3.316l.96-.625c-.37-1.394-.09-.342.197-1.379-.79-.168-1.376-.193-1.807-.442-.926.067-.091-.341-.961.625.82 1.653.28 1.052-.741 2.822-1.452 3.013-.958 2.697-3.23 4.057-2.039 1.495-.295 1.009-2.954 1.544-2.228.785-2.378 3.081-3.041 4.769l-.835.408c-.647 1.12-.295 1.009-.817 1.912-.555 1.461-1.822 1.62-3.365 4.292l-2.098 4.133c-1.267.159-.96.625-1.778 1.044l-2.874 1.904c-.54-.601-1.52-1.48-.11-1.845-.88-.509-.854-1.095-.684-1.888.167-2.865 3.048-13.96 3.835-15.865 1.157-2.004 1.325-4.868 2.266-6.997.125-.217 3.592-9.794 3.312-10.846-.96.625-1.22 1.076-1.758 2.547-.772 1.336-.96.625-1.823 1.62l-.987 1.211c-1.176.501-.575-.042-1.887.693-.601.543-.601.543-1.652.827-.511.885-.942 2.129-2.334 2.505-.71.191-.574-.043-1.5.024-1.978.351-1.221 1.076-1.113 1.428-.044.576-.17.793-.06 1.144-.17.793-.296 1.009-.897 1.553-1.24-.427-1.392.376-2.363 1.019l.495 1.177c-1.157 2.004-1.886.692-2.783 2.245l.405.835c-.862.995-.385.668-1.562 1.169-.17.793-.044.576.064.928-.044.576.091.341-.295 1.009l-.79-.168-.833 2.481-.476.326.99.861c-.646 1.119-.835.408-.816 1.912l-1.418 2.455-.386.668s-.987 1.212-1.346 1.294c-1.22 1.076-.987 1.211-1.668 2.888l-.34.092-.126.217c-1.392.376.727-.76-.34.092-.197 1.379-.942 2.129-1.929 3.34-.727.76-1.717-.1-2.908 2.462l-1.134-.029c-.295 1.009-.295 1.009-.988 1.211-1.05.284-.34.092-1.142-.057-6.991-.185-3.055-7.999-2.036-11.841 1.88-6.329 4.765-12.366 6.879-18.56l2.454-6.287c2.266-6.997 4.644-10.078 6.157-14.236l1.282-2.22 2.25-4.936c.51-.885.197-1.379.582-2.047 1.128-3.49 2.761-5.821 4.024-9.545.942-2.129 3.902-7.256 4.843-9.385 1.067-2.346 2.825-4.893 4.107-7.114l1.032-1.787c2.224-4.35 8.134-14.587 10.62-17.895l5.033-7.18c3.04-4.769 7.025-9.594 10.191-14.579l3.4-4.85c1.542-2.672 4.171-6.186 5.974-9.309 2.564-4.442 5.094-8.325 8.028-12.867.862-.994 1.407-2.437 2.054-3.556.862-.995 1.247-1.663 1.883-2.765.646-1.119 1.857-2.177 2.144-3.215.261-.452.958-2.697 1.993-2.413l.125-.216c-.189-.711-.155-1.269.707-2.264l1.113-1.428c1.712-3.465 7.275-10.027 9.85-14.487 1.157-2.004 2.628-3.513 3.785-5.517l4.307-6.421c1.697-1.403 4.307-6.42 6.595-8.35.727-.76 1.248-1.662 1.993-2.412.601-.543 1.221-1.076 1.947-1.837.727-.76.261-.451 1.096-.86 2.012-.908 1.732-1.96 3.26-2.571.54.6.729 1.312.775 2.229l.083 2.431c.064.928.476-.327.064.928l-1.343 3.365c-1.408 2.437-10.298 16.299-10.978 17.976-.125.217-.295 1.01-.556 1.46-.26.452-.216-.124-.646 1.12-.447 1.812-2.628 3.514-2.375 5.152 2.488-1.235 4.991-4.533 7.279-6.461l2.424-2.163c.727-.76 1.482-1.528 2.425-2.164.726-.76 1.561-1.168 2.288-1.928 4.247-3.784 1.732-1.962 4.867-2.823.855 1.095.325.476 1.781 1.028.019 1.503-1.032 1.787-1.793 3.105-.386.668-.43 1.244-.582 2.047-.17.793-.17.793-.322 1.596l-1.032 1.787c-1.732 1.961-1.051.284-3.23 4.058-1.407 2.437-2.098 4.132-3.857 6.68-1.282 2.221-2.869 5.469-4.277 7.906 1.592.317.836-.408 2.167.36.37 1.394-.742 2.822-.939 4.201-.385.668-.196 1.379-.707 2.264l-2.761 5.82c-.431 1.244-1.407 2.438-2.054 3.557l-.816 1.912c-1.032 1.787-2.394 3.649-3.085 5.344-.583 2.047-.772 1.336-1.543 2.672l-2.098 4.133c-.126.217-.727.76-1.032 1.788l-2.179 3.773c-.727.76-.476.327-.897 1.553 1.437-.952 6.301-7.34 8.759-10.061 4.927-5.461 2.038-1.496 5.514-3.943 1.221-1.076.449.26 3.834-2.529 4.371-3.999 4.092-5.052 6.179-3.558l-.276 2.513c.96-.625 2.564-4.441 3.581-4.167l-3.335 5.777c-.431 1.244-1.222 1.077-.617 2.605.9 2.013.495 1.177 2.015 2.657l1.071 1.219-1.312.736c-.476.326-1.479 3.599-1.99 4.484-.385.668-.601.543-.896 1.553-.771 1.336-1.482 1.528-1.992 2.412-.772 1.336-1.094 2.932-1.649 4.393-1.157 2.004-1.051.283-1.327 2.796-1.653.828-1.096.86-1.282 2.221-.045.576-.295 1.009-.556 1.461-.43 1.244.019 1.503-.742 2.821-1.093 2.932-.525 2.947-.101 5.286-1.221 1.076-.602.543-.942 2.129-.044.576-.125.216-.51.884-.386.668-.295 1.01-.556 1.461-.261.451-.602.543-.987 1.211-.386.669.11 1.845-.276 2.513-.17.793-1.312.736-2.844 3.39 1.134 2.147.265 3.113-1.297 4.282l-1.993 2.413c-1.407 2.437-1.992 2.412-.847 4.541l-.647 1.12c-.511.885-1.312.735-1.312.735.091.341-.125.217-.125.217-.862.995.885 2.58-1.282 2.22-1.327 2.797-2.208 2.288-2.268 4.926z" fill="#fff"/>
    </g>
    <defs>
        <filter id="ibdrlilt5a" x="21.492" y="93.102" width="258.674" height="363.695" filterUnits="userSpaceOnUse" color-interpolation-filters="sRGB">
            <feFlood flood-opacity="0" result="BackgroundImageFix"/>
            <feColorMatrix in="SourceAlpha" values="0 0 0 0 0 0 0 0 0 0 0 0 0 0 0 0 0 0 127 0" result="hardAlpha"/>
            <feOffset dx="28"/>
            <feGaussianBlur stdDeviation="2"/>
            <feComposite in2="hardAlpha" operator="out"/>
            <feColorMatrix values="0 0 0 0 0 0 0 0 0 0 0 0 0 0 0 0 0 0 0.15 0"/>
            <feBlend in2="BackgroundImageFix" result="effect1_dropShadow_770_7918"/>
            <feBlend in="SourceGraphic" in2="effect1_dropShadow_770_7918" result="shape"/>
        </filter>
        <filter id="jz4trg79pb" x="50.859" y="70.805" width="142.82" height="233.154" filterUnits="userSpaceOnUse" color-interpolation-filters="sRGB">
            <feFlood flood-opacity="0" result="BackgroundImageFix"/>
            <feColorMatrix in="SourceAlpha" values="0 0 0 0 0 0 0 0 0 0 0 0 0 0 0 0 0 0 127 0" result="hardAlpha"/>
            <feOffset dx="11" dy="16"/>
            <feGaussianBlur stdDeviation="2"/>
            <feComposite in2="hardAlpha" operator="out"/>
            <feColorMatrix values="0 0 0 0 0 0 0 0 0 0 0 0 0 0 0 0 0 0 0.25 0"/>
            <feBlend in2="BackgroundImageFix" result="effect1_dropShadow_770_7918"/>
            <feBlend in="SourceGraphic" in2="effect1_dropShadow_770_7918" result="shape"/>
        </filter>
    </defs>
</svg>
