<svg width="264" height="835" viewBox="0 0 264 835" fill="none" xmlns="http://www.w3.org/2000/svg">
    <g filter="url(#ja4xkq0b1a)">
        <path fill-rule="evenodd" clip-rule="evenodd" d="M61.289 551.73c-.015-.727-.449-1.608-1.169-1.509-.737.101-1.374.596-1.73 1.25-2.669 4.913-12.108 22.973-17.035 32.879-1.384 2.781-1.108 2.863 1.255.847.194-.165.364-.299.55-.474 2.258-2.11.046 1.7 3.162-4.327.922-1.598 2.405-2.845 3.049-4.575.364-.98.725-1.962 1.15-2.7 1.173-2.031 1.43-3.836 2.602-5.867l3.532-6.118c1.173-2.031 2.24-4.533 3.072-5.974 1.128-1.954 1.594-1.849 1.562-3.432zm-48.72 19.3c.22-.382.208-.856-.031-1.226a1.207 1.207 0 0 1 .005-1.306c.783-1.224 1.239-2.162 1.684-2.898 1.28-2.116 3.576-3.777 4.864-5.889.296-.485.625-1.325 1.003-3.023 1.325-3.834-2.48-4.778-4.202-1.106-.17.363-.325.719-.46 1.058-.439 1.103-.826 2.237-1.387 3.284l-3.18 5.928c-.578 1.079-.475 2.281-.412 3.504.16 2.499-.08 3.469.167 4.202.173.513.992.232.863-.294-.046-.191-.013-.332.086-.502l1-1.732zm38.662-110.836c1.166-.95 1.776-2.537 2.67-3.747.463-.626.92-1.159 1.423-2.401 2.018-3.496-.249-.931 3.072-5.974 1.633-2.175 2.403-4.817 3.446-7.332.669-1.157.788-.711 1.633-2.175l6.161-10.017c.24-.415.501-1.191.754-1.82.186-.464.379-.845.536-1.319 1.243-3.762 4.1-1.085 2.955 2.707-1.203 3.98-2.935 7.864-4.146 11.701-.78 2.499-5.394 13.542-6.782 17.656-.214.635.077.816.352.205a.824.824 0 0 1 .26-.307c.596-.43 1.302-1.059 1.602-1.579.505-.874-.59-.34.385-1.32 1.456-1.868.754.057 3.113-4.03l6.263-11.501c.556-1.463 1.374-2.997 1.988-4.701.364-1.007 1.26-1.677 1.928-2.515.97-1.219 3.055-2.737 2.604-1.245-.14.468-.417 1.112-.549 2.002a2.953 2.953 0 0 1-.079.377c-.13.455-.281 1.011-.462 1.612-.418 1.389.036 1.732.999.646.093-.105.18-.221.261-.336.266-.384.66-.758 1.05-1.132.803-.771 1.517-1.642 2.186-2.533 1.347-1.793 2.35-3.87 3.544-5.372 1.633-2.175 3.44-4.596 5.073-6.771 3.742-5.891 7.699-2.817 8.406-.161.141.53-.074 1.037-.235 1.562-.11.362-.057.778-.093 1.155l-.325 3.463c-1.134 8.667-9.657 25.445-10.86 30.199-.816 3.11-2.86 6.919-3.966 10.08-.321.919.287 1.935 1.153 1.492 2.488-.872 6.74-1.871 9.94-1.46.653.084.707.625.051.567a.874.874 0 0 0-.284.022l-2.629.706c-.616.165-1.2.451-1.815.617-.13.035-.273.075-.44.134-.463.164-.915.366-1.398.465-.49.1-.99.177-1.481.25-2.986.441-2.37 1.51.645 1.643a4.994 4.994 0 0 1 1.903.47c.638.294.801 1.089 1.233 1.643.342.438.984.527 1.698.57.845.052 1.05.933.367 1.434a1.021 1.021 0 0 0-.062 1.612c1.212 1.008 1.128.897 1.135 2.502a1.76 1.76 0 0 0 .892 1.511l.283.164.283.163c-.7 1.844-3.313.767-.965 3.535.183.215.36.438.498.685.648 1.158 1.064 2.658 1.156 3.739.011.129-.013.318-.041.444-.224.999.901.954 1.413.067l1.639-2.838 1.514-2.622.518-.897a.724.724 0 0 0 .072-.55c-.097-.363.106-.732.423-.934 1.905-1.21 2.141-4.325 4.359-6.925 3.277-4.313 3.355-5.81 5.861-7.481.318-.218.595-.352.874-.488.578-.282 1.114-.775 1.484-1.302 1.3-1.85 2.81-3.701 3.725-5.768.638-1.441 1.396-2.989 2.043-3.988.263-.406.526-.81.919-1.091.768-.548 1.522-1.204 1.907-2.067l.069-.159c.293-.687.731-1.295 1.238-1.844l.289-.315c.699-.758 1.321-1.587 1.784-2.508.445-.884.657-1.316 1.897-2.531 1.051-.949 1.839-2.044 2.891-2.992 1.128-1.301.753.057 3.054-3.275 2.687-4.654 2.223-1.835 3.901-4.74l.839-1.772c.55-1.164 2.382-1.811 2.208-.536-.126.927.611 1.815 1.494 2.126 2.107.741 1.468 2.031.416 4.997-.221 1.037-.562 1.628-.76 2.679l-.019.083c-.473 1.922-1.535 3.657-2.294 5.484-.8 1.922-1.726 3.78-2.422 5.742-.287.809-.577 1.624-.91 2.501l-4.664 10.093c-.168.29-.276.518-.349.718-.459 1.251-.805 2.517-1.355 3.731-.378.835-.636 1.722-.934 2.589-.416 1.212-.549 1.859-1.45 3.42l-.845 1.464-24.871 48.471c-.668 1.157-1.23 2.785-1.558 3.352l-2.85 4.937-7.974 15.173c-1.067 2.502-4.824 7.702-5.254 9.754-.42 2.088-12.644 22.555-13.15 23.429-1.796 2.458-8.642 16.331-11 20.417-2.466 3.616-4.037 6.992-5.998 9.734-2.018 3.495-4.824 7.702-6.665 10.89-.505.874-.89 2.195-1.558 3.353l-1.677 2.905c-.361.625-.738 1.181-1.121 1.715-2.206 3.077-4.092 6.383-6.218 9.515l-9.858 14.523c-4.705 8.149-9.727 11.454-13.415 20.567-.726 1.912-2.687 4.654-3.25 6.281-2.096 4.994-4.946 9.931-7.646 14.607-2.346 4.063-5.073 6.771-7.88 10.978-3.102 5.374-7.91 10.508-11.91 15.406-.226.277-.425.576-.623.874-.283.428-.577.795-.855 1.143-.562.705-1.322 1.355-1.773 2.136a4161.8 4161.8 0 0 0-.668 1.157s-.232.369-.37.538c-2.73 3.338-5.971 6.381-8.675 9.735l-21.134 23.858c-1.129 1.301-5.356 6.607-6.45 7.141-.996.485-3.527 2.01-4.711 3.019-.214.182-.412.478-.58.703-.888 1.193-1.853-1.271-1.243-2.627 1.147-2.553 2.925-5.633 4.044-7.571l3.134-4.773 1.513-2.622 2.567-5.1c1.01-1.748 2.465-3.616 3.355-5.811 1.709-4.285 3.705-5.868 5.972-9.695.126-.212.223-.441.295-.678.211-.697.47-1.516.612-2.32.166-.943-.93-1.551-1.886-1.616a1.278 1.278 0 0 0-.473.049c-.063.02-.12.04-.173.06-1.166.443-1.478-1.124-.987-2.271l1.4-3.267c.76-2.679 6.409-9.086 6.722-11.645.215-1.007-1.26-1.005-1.957-.246-2.878 3.133-8.052 9.92-10.5 12.453-2.645 2.616-4.36 6.157-7.066 8.407-.142.117-.192.216-.352.308-.138.079-.367-.074-.468-.197-1.155-1.422-.06-1.562-.359-3.609-.376-2.769 1.26-4.376 2.64-6.131 1.011-1.287 1.076-3.029 1.895-4.447l.693-1.201c.403-.698 1.286-.628.79-1.263l-.22-.28a.38.38 0 0 0-.09-.074c-.202-.117-.194-.533.038-.555.068-.006.154-.008.268-.006.06.002.12.019.171.049l.035.02a.537.537 0 0 0 .74-.207l6.34-11.609c.717-1.244 1.837-2.671 2.859-4.133 2.52-3.608-.235-5.466-3.512-2.527-.591.531-1.358.787-1.924 1.345-.114.112-.26.266-.451.48-.788.711-.788.711-1.456 1.868-.289.5-.609.978-.955 1.424-1.06 1.362-2.65.787-1.786-.708l5.935-10.934c.846-1.464.505-.874.726-1.911.226-.92.614-1.809 1.029-2.674 1.232-2.571 2.538-5.043 3.799-7.601.191-.389.38-.925.575-1.754.452-1.838 1.663-2.537 2.057-4.108.261-1.041.493-2.059 1.164-2.896.166-.208.31-.432.478-.639l2.52-3.127c1.633-2.175 2.403-4.817 3.532-6.118l2.629-3.899c1.292-1.585 2.301-3.333 3.19-5.527.84-2.503-.645-3.867-2.458-1.948-3.192 3.377-6.655 8.307-7.5 9.772-1.677 2.905-1.977 5.44-4.541 7.865-1.599 1.407-1.173 2.031-2.629 3.899-.951.994-2.103 2.282-3.054 3.276-1.717 2.285-4.153 4.198-5.814 6.524l-7.259 10.167c-.193.271-.552.574-.792.804-1.057 1.013-1.792.103-1.24-1.254.751-1.847 1.858-4.031 2.398-4.965l5.209-9.023c.505-.874 2.104-2.281 3.617-4.903a41.92 41.92 0 0 1 2.595-3.924c.135-.183.262-.37.375-.566l15.536-25.547c.668-1.157 1.456-1.868 2.301-3.332l11.2-16.02c.667-1.156 1.222-2.407 2.134-3.381l.178-.191a4.24 4.24 0 0 0 .571-.769l1.436-2.488 8.1-12.014c.965-1.183 2.35-2.334 3.316-3.95.677-1.134.594-2.488.779-3.796.11-1.815 1.026-2.407 1.14-3.926.052-.693-.678-1.135-1.21-.688a3.305 3.305 0 0 1-.26.202c-.536.362-1.32-.155-.908-.655.284-.345.46-.962.054-1.148-.879-.402-2.36-.612-2.952-.078-1.333 1.174-3.21 4.729-3.78 7.019-.194.776-.29 1.602-.197 2.396.118.995.123 2.017-.128 2.986-.023.09-.049.18-.076.272-.271.906-.44 1.836-.569 2.774-.273 2.009-.89 4.274-1.928 5.546-.72.83-1.023 1.736-1.622 2.41-.751.844-2.026.903-2.974 1.518l-.053.037a2.145 2.145 0 0 0-.91 2.146c.238 1.419-.749 1.763-1.858.846a6.003 6.003 0 0 0-.742-.515c-.65-.387-1.474-.374-2.042.124-1.708 1.499-3.076 4.335-3.928 5.81-2.018 3.496-6.914 9.96-8.932 13.456-.341.59-.42 2.088-.76 2.679-.164.283-.447.12-.447.12a.326.326 0 0 0-.447.12c-4.116 6.551-8.439 12.389-12.619 18.768a54.322 54.322 0 0 1-3.43 4.678c-1.335 1.634-2.583 3.49-3.694 5.284-.67 1.082-1.362 2.119-1.858 2.637-.605.632-.883.676-1.296.959-.701.481-1.128 1.254-1.578 1.975-.353.567-.703 1.052-1.136 1.479-.113.111-.18.18-.264.314-.815 1.302-1.578.815-.692-.44 2.04-2.892 4.153-5.596 4.57-7.633.295-1.011 4.27-7.631 6.912-12.666.309-.588-.316-.957-.71-.423-.323.437-.823.23-.634-.278.785-2.114 2.63-4.917 3.409-6.267l.35-.738c.897-1.891 2.026-3.618 2.69-5.603.193-.573.517-1.256.763-1.807 3.102-6.964 20.6-33.518 27.514-46.526 2.017-3.796 4.567-8.079 6.716-11.801l2.149-3.721c1.138-1.971 1.581-4.341 3.105-6.032 1.633-2.175.562-1.628 1.394-3.069.812-1.407 1.823-2.597 2.553-4.047l1.47-2.921c.845-1.464.256-1.805 1.899-3.943l7.51-12.355c.164-.283 1.067-2.502 1.395-3.069.34-.59 1.96-2.741 2.301-3.332.668-1.157 1.23-2.785 1.899-3.942l4.996-9.902c.176-.349-.081-.981-.277-.642-.194.336-.772.13-.564-.198.697-1.101 2.099-2.645 3.359-4.289 1.043-1.807 1.362-3.92 2.46-5.694.724-1.17 1.435-2.528 3.527-8.706l7.834-19.983c.233-.596.344-1.182.652-1.742.454-.825.832-1.761 1.14-2.65.135-.39.274-.781.515-1.2 1.173-2.031.624-.427 1.678-2.905 1.871-5.911 1.558-3.353 2.908-5.691 1.11-1.923 1.99-4.181 2.979-6.282.702-1.494 1.612-2.693 2.891-3.737z" fill="#086DE4"/>
    </g>
    <path fill-rule="evenodd" clip-rule="evenodd" d="M1.641 151.299c.01.474.293 1.049.762.984.48-.066.896-.389 1.127-.815 1.74-3.202 7.893-14.973 11.104-21.429.902-1.813.722-1.866-.818-.552-.127.108-.238.195-.36.309-1.47 1.375-.028-1.108-2.06 2.82-.601 1.042-1.567 1.854-1.987 2.982-.237.638-.472 1.278-.75 1.759-.764 1.324-.931 2.501-1.695 3.825l-2.302 3.987c-.765 1.324-1.46 2.954-2.002 3.893-.736 1.274-1.04 1.205-1.019 2.237zm31.754-12.578a.764.764 0 0 0 .02.798.786.786 0 0 1-.003.851c-.51.798-.807 1.41-1.098 1.89-.834 1.379-2.33 2.461-3.17 3.837-.193.317-.407.864-.654 1.971-.863 2.499 1.617 3.114 2.74.72.11-.236.21-.468.299-.689.286-.719.538-1.458.904-2.14l2.072-3.864c.377-.703.31-1.487.27-2.284-.105-1.628.051-2.26-.11-2.738-.112-.335-.646-.152-.562.191a.402.402 0 0 1-.056.327l-.652 1.13zM8.197 210.958c-.76.62-1.158 1.654-1.74 2.442-.302.409-.6.756-.928 1.566-1.315 2.278.162.606-2.002 3.893-1.064 1.418-1.566 3.139-2.246 4.779-.436.754-.514.463-1.065 1.417l-4.015 6.529c-.156.271-.327.776-.491 1.187-.122.302-.247.55-.35.859-.81 2.452-2.672.707-1.925-1.765.783-2.593 1.912-5.125 2.701-7.626.508-1.628 3.516-8.825 4.42-11.507.14-.414-.05-.532-.229-.134a.524.524 0 0 1-.168.2c-.39.281-.85.691-1.045 1.029-.33.57.384.222-.251.861-.95 1.218-.491-.037-2.029 2.626l-4.082 7.496c-.362.954-.895 1.954-1.296 3.064-.237.657-.821 1.093-1.256 1.639-.633.795-1.991 1.785-1.698.812.092-.305.273-.725.358-1.305a1.92 1.92 0 0 1 .052-.246c.084-.296.183-.658.3-1.05.273-.906-.023-1.129-.65-.421-.06.068-.118.144-.17.219-.174.25-.43.494-.684.738-.524.502-.99 1.07-1.425 1.65-.878 1.169-1.531 2.523-2.31 3.502-1.064 1.417-2.242 2.995-3.306 4.413-2.44 3.84-5.018 1.836-5.48.105-.091-.346.05-.676.154-1.018.072-.236.037-.507.06-.753l.212-2.257c.74-5.649 6.295-16.584 7.08-19.683.53-2.027 1.863-4.509 2.583-6.57.21-.598-.186-1.26-.751-.972-1.621.569-4.392 1.219-6.478.952-.426-.055-.462-.407-.034-.37.056.005.13.001.185-.014l1.714-.46c.401-.108.781-.294 1.183-.402a3.56 3.56 0 0 0 .286-.088c.302-.107.597-.238.911-.303a18.9 18.9 0 0 1 .966-.163c1.946-.287 1.544-.984-.42-1.07a3.252 3.252 0 0 1-1.24-.307c-.417-.191-.523-.709-.805-1.071-.222-.285-.641-.343-1.106-.371-.551-.034-.684-.609-.239-.935a.666.666 0 0 0 .04-1.051c-.79-.657-.735-.584-.74-1.63a1.147 1.147 0 0 0-.58-.985l-.185-.107-.185-.106c.457-1.202 2.16-.5.629-2.304a2.868 2.868 0 0 1-.325-.446 6.612 6.612 0 0 1-.753-2.438 1.094 1.094 0 0 1 .027-.289c.146-.651-.588-.621-.921-.044l-1.068 1.85-.987 1.709-.337.585a.47.47 0 0 0-.048.358c.063.237-.069.477-.276.609-1.24.789-1.395 2.819-2.84 4.513-2.136 2.811-2.187 3.787-3.82 4.876-.207.142-.388.23-.57.318a2.67 2.67 0 0 0-.967.849c-.847 1.206-1.832 2.412-2.428 3.759-.416.94-.91 1.948-1.332 2.6-.17.264-.342.527-.599.71-.5.358-.992.785-1.242 1.347l-.045.104c-.191.448-.477.844-.807 1.202l-.189.205a7.222 7.222 0 0 0-1.162 1.635c-.29.576-.428.858-1.236 1.65-.686.618-1.2 1.332-1.885 1.95-.735.848-.49-.037-1.99 2.135-1.752 3.032-1.45 1.195-2.543 3.089l-.546 1.155c-.36.758-1.553 1.18-1.44.349.083-.605-.398-1.183-.973-1.386-1.374-.483-.957-1.324-.272-3.257.144-.676.367-1.061.495-1.746l.013-.054c.309-1.252 1-2.383 1.495-3.574.521-1.253 1.125-2.464 1.578-3.742.188-.528.377-1.059.594-1.63l3.04-6.579c.109-.189.18-.337.227-.468.3-.815.525-1.64.883-2.431.246-.544.415-1.123.609-1.688.271-.79.358-1.211.945-2.229l.551-.954 16.21-31.591c.435-.755.802-1.816 1.015-2.185l1.857-3.217 5.198-9.89c.695-1.631 3.144-5.02 3.424-6.357.273-1.361 8.241-14.7 8.57-15.27 1.171-1.602 5.633-10.644 7.17-13.307 1.607-2.357 2.631-4.557 3.91-6.344 1.315-2.279 3.143-5.02 4.343-7.098.329-.57.58-1.431 1.016-2.185l1.093-1.894c1.678-2.906 3.648-5.648 5.533-8.424l5.675-8.36c3.066-5.312 6.34-7.466 8.744-13.405.473-1.246 1.75-3.033 2.117-4.094 1.367-3.255 3.224-6.472 4.984-9.52 1.529-2.648 3.306-4.413 5.135-7.155 2.023-3.503 5.156-6.849 7.763-10.041.148-.18.277-.375.406-.57.185-.278.377-.518.557-.744.367-.46.862-.884 1.156-1.393l.435-.754s.151-.24.241-.35c1.78-2.176 3.892-4.16 5.654-6.345l13.775-15.55c.736-.848 3.49-4.306 4.204-4.654.649-.316 2.299-1.31 3.07-1.968.14-.119.269-.312.378-.458.579-.778 1.208.829.81 1.712-.747 1.664-1.907 3.672-2.636 4.935l-2.042 3.11-.986 1.71-1.674 3.323c-.657 1.14-1.606 2.357-2.186 3.787-1.114 2.793-2.415 3.825-3.892 6.32a2.013 2.013 0 0 0-.193.441c-.137.454-.306.988-.398 1.512-.109.615.606 1.011 1.23 1.054a.837.837 0 0 0 .307-.032l.113-.04c.76-.288.963.733.643 1.48l-.912 2.13c-.495 1.746-4.177 5.922-4.382 7.59-.14.656.822.655 1.276.16 1.876-2.042 5.248-6.465 6.844-8.117 1.723-1.704 2.84-4.012 4.605-5.478.092-.077.125-.141.23-.201.09-.052.239.048.304.128.753.927.04 1.018.234 2.352.245 1.805-.82 2.852-1.72 3.996-.66.84-.702 1.974-1.235 2.898l-.452.784c-.263.454-.839.409-.516.822l.144.183c.014.017.04.038.06.048.13.076.126.347-.026.362-.044.004-.1.005-.175.003a.235.235 0 0 1-.111-.031l-.023-.013a.35.35 0 0 0-.482.135L69.543 52c-.468.81-1.198 1.74-1.863 2.694-1.643 2.351.153 3.562 2.288 1.646.386-.345.886-.513 1.255-.876.074-.073.169-.173.294-.313.513-.463.513-.463.949-1.217.188-.326.396-.638.622-.928.69-.888 1.726-.513 1.164.46l-3.868 7.127c-.551.955-.33.57-.474 1.246-.052.215-.119.427-.194.636-.904 2.503-2.716 4.614-3.327 7.204-.295 1.198-1.084 1.654-1.34 2.677-.171.679-.322 1.342-.76 1.888-.108.136-.202.281-.31.417l-1.643 2.038c-1.065 1.417-1.567 3.139-2.302 3.987l-1.714 2.541c-.842 1.033-1.5 2.172-2.08 3.602-.546 1.632.422 2.52 1.603 1.27 2.08-2.201 4.337-5.415 4.888-6.369 1.093-1.893 1.289-3.546 2.96-5.126 1.042-.917.764-1.324 1.713-2.541.62-.648 1.371-1.487 1.991-2.135 1.119-1.49 2.706-2.736 3.789-4.252l4.731-6.627c.126-.176.36-.374.516-.524.69-.66 1.168-.067.809.817a31.52 31.52 0 0 1-1.563 3.236l-3.395 5.881c-.33.57-1.371 1.487-2.358 3.196a27.394 27.394 0 0 1-1.691 2.557c-.088.12-.17.242-.244.369l-10.126 16.65c-.435.755-.949 1.218-1.5 2.172l-7.3 10.442c-.434.753-.796 1.568-1.39 2.203l-.116.124a2.771 2.771 0 0 0-.372.502l-.937 1.621-5.28 7.831c-.628.77-1.53 1.521-2.16 2.574-.441.739-.387 1.621-.508 2.474-.071 1.183-.668 1.569-.742 2.559-.034.451.442.74.788.448.054-.045.107-.089.17-.131.349-.236.86.101.591.426-.185.225-.3.627-.035.749.573.262 1.538.399 1.924.05.87-.765 2.092-3.082 2.464-4.574.126-.506.189-1.044.128-1.562-.077-.648-.08-1.314.084-1.946a11.917 11.917 0 0 0 .42-1.985c.178-1.309.58-2.786 1.257-3.615.47-.541.666-1.131 1.057-1.57.49-.551 1.32-.589 1.938-.99l.035-.024a1.4 1.4 0 0 0 .593-1.399c-.155-.925.488-1.149 1.21-.551.129.105.286.217.484.335.423.253.96.244 1.331-.081 1.113-.977 2.005-2.825 2.56-3.786 1.316-2.279 4.506-6.492 5.822-8.77.222-.385.273-1.361.495-1.746.107-.185.291-.078.291-.078a.213.213 0 0 0 .292-.078c2.682-4.27 5.5-8.075 8.224-12.233a35.415 35.415 0 0 1 2.236-3.049c.87-1.065 1.683-2.275 2.407-3.444.437-.705.888-1.38 1.211-1.718.395-.412.576-.44.845-.625.457-.314.735-.818 1.028-1.288.23-.37.458-.685.741-.964a.995.995 0 0 0 .172-.204c.531-.849 1.028-.531.451.287-1.33 1.884-2.707 3.647-2.979 4.975-.192.659-2.783 4.973-4.505 8.255-.2.383.207.624.464.275.21-.284.536-.15.413.182-.513 1.377-1.714 3.204-2.222 4.084l-.228.481c-.585 1.233-1.321 2.358-1.754 3.652-.125.373-.337.818-.497 1.178-2.022 4.538-13.427 21.845-17.933 30.323-1.314 2.474-2.976 5.266-4.377 7.692l-1.4 2.425c-.742 1.285-1.031 2.829-2.024 3.932-1.064 1.417-.366 1.061-.909 2-.529.916-1.188 1.692-1.663 2.637l-.959 1.904c-.55.955-.166 1.176-1.237 2.57l-4.895 8.052c-.107.185-.696 1.631-.91 2-.221.385-1.277 1.787-1.499 2.172-.436.755-.802 1.816-1.238 2.57l-3.256 6.454c-.115.227.053.638.18.418.127-.219.504-.085.368.129-.454.718-1.368 1.724-2.189 2.795-.68 1.178-.887 2.555-1.603 3.711-.472.763-.935 1.648-2.299 5.675l-5.106 13.024c-.152.388-.224.77-.425 1.135a11.394 11.394 0 0 0-.742 1.727 4.29 4.29 0 0 1-.337.782c-.764 1.324-.406.279-1.093 1.894-1.22 3.852-1.015 2.185-1.895 3.709-.724 1.253-1.298 2.724-1.942 4.094a6.712 6.712 0 0 1-1.884 2.435z" fill="#086DE4"/>
    <path fill-rule="evenodd" clip-rule="evenodd" d="M92.043 253.891c-1.42-.819-1.175-2.113-.901-3.389l2.345.888 1.04-1.803 1.042-1.803c1.242-2.151 1.144-.308 1.314-3.079 1.389-1.602 2.516-1.882 3.557-3.685.969-.875 2.065-3.577 2.686-4.653l2.137-4.505c2.01-2.678 1.962-5.07 4.203-8.081l-.348-.201.621-1.076c1.041-1.802 2.164-5.419 3.929-6.804 2.168-2.083.621-1.076 1.662-2.879l8.577-16.529 1.998.688 2.484-4.303 1.621.47c.938-3.297.42-.727-.798-1.895 1.243-2.152 1.792-2.301 2.686-4.653l1.321 2.662c-.549.149-.201.349-.201.349l1.693-.457.767-.526c.146.55-.072.928.451 1.695l2.242-.606.202-.349-.523-.767c.201-.349.072-.927.072-.927-.146-.55-.103-1.495-.249-2.044.925.069.925.069 1.345-.658.202-.349.475-1.626.518-2.57l2.868 1.656.72-2.919-2.46.983c.098-1.843.621-1.076-.597-2.244l1.17-1.225.202-.348 2.417-.04.347.201c.305 1.145.653 1.346.25 2.044.419-.727.419-.727.475-1.626-.147-.549-.348-.2.072-.927l-.724-.419c-1.144.309-.55.149-1.84-.092l1.662-2.879c2.041-.256.926.069 1.895-.806-.475 1.626-1.144.309 1 1.546.072-.927-.103-1.494 1.388-1.602-.304-1.145.072-.927 1.243-2.152.522.767.87.968.999 1.547l.348.201.523.767c1.144-.309.767-.527 2.417-.039-.304-1.146-.103-1.494.72-2.919l1.072.618s-.348-.2-.147-.549l-.652-1.346c1.796 1.037 3.07 1.307 4.331 1.531-.694 2.003-1.14 3.646-.689 5.341l-1.547 1.006c.597 2.245.146.55-.317 2.221 1.274.27 2.216.31 2.911.712 1.492-.108.147.549 1.547-1.007-1.321-2.663-.45-1.695 1.195-4.545 2.339-4.853 1.542-4.344 5.202-6.534 3.283-2.409.475-1.626 4.758-2.488 3.587-1.263 3.83-4.962 4.897-7.68l1.346-.658c1.041-1.803.475-1.625 1.314-3.079.895-2.353 2.936-2.609 5.421-6.913l3.379-6.657c2.041-.256 1.547-1.006 2.864-1.681l4.628-3.066c.87.968 2.448 2.383.177 2.971 1.42.82 1.376 1.764 1.103 3.041-.269 4.614-4.909 22.485-6.178 25.552-1.864 3.228-2.133 7.842-3.649 11.27-.201.349-5.785 15.775-5.335 17.47 1.547-1.007 1.967-1.734 2.833-4.103 1.242-2.152 1.547-1.007 2.935-2.61l1.59-1.951c1.895-.806.926.069 3.039-1.115.968-.875.968-.875 2.661-1.332.823-1.425 1.516-3.429 3.759-4.034 1.144-.309.925.069 2.417-.039 3.184-.565 1.966-1.734 1.791-2.3.072-.928.274-1.277.099-1.843.273-1.277.475-1.626 1.444-2.501 1.997.688 2.242-.606 3.806-1.641l-.799-1.896c1.864-3.228 3.039-1.115 4.483-3.616l-.652-1.346c1.388-1.602.621-1.076 2.515-1.882.274-1.276.072-.927-.103-1.494.072-.927-.146-.549.475-1.625l1.274.269 1.34-3.994.768-.527-1.595-1.386c1.041-1.803 1.346-.658 1.315-3.079l2.283-3.955.621-1.076s1.59-1.951 2.168-2.083c1.967-1.734 1.59-1.951 2.687-4.653l.549-.148.201-.349c2.242-.605-1.17 1.224.549-.148.317-2.221 1.516-3.429 3.106-5.38 1.171-1.224 2.765.162 4.684-3.965l1.827.047c.475-1.626.475-1.626 1.59-1.951 1.693-.457.549-.149 1.839.092 11.261.298 4.922 12.884 3.281 19.071-3.027 10.194-7.676 19.918-11.08 29.895l-3.953 10.125c-3.649 11.27-7.479 16.232-9.916 22.928l-2.065 3.577-3.624 7.95c-.823 1.425-.317 2.221-.938 3.297-1.816 5.621-4.447 9.375-6.481 15.373-1.516 3.429-6.284 11.688-7.8 15.116-1.718 3.778-4.55 7.881-6.615 11.458l-1.663 2.879c-3.581 7.005-13.1 23.494-17.103 28.821l-8.107 11.566c-4.897 7.68-11.315 15.451-16.414 23.48l-5.476 7.812c-2.485 4.303-6.718 9.963-9.622 14.994-4.13 7.153-8.205 13.409-12.93 20.723-1.389 1.602-2.267 3.926-3.308 5.729-1.388 1.602-2.01 2.678-3.034 4.452-1.041 1.803-2.991 3.507-3.453 5.179-.42.727-1.543 4.344-3.209 3.885l-.202.349c.305 1.146.249 2.044-1.139 3.646l-1.792 2.301c-2.758 5.58-11.718 16.149-15.865 23.332-1.864 3.228-4.234 5.659-6.097 8.887l-6.936 10.342c-2.734 2.26-6.937 10.341-10.623 13.447-1.17 1.225-2.01 2.679-3.209 3.886-.969.875-1.966 1.734-3.137 2.958-1.17 1.224-.42.727-1.765 1.385-3.24 1.464-2.79 3.159-5.25 4.142-.87-.968-1.174-2.113-1.248-3.59l-.134-3.916c-.103-1.494-.768.526-.103-1.494l2.163-5.42c2.267-3.926 16.585-26.251 17.682-28.953.201-.349.475-1.625.894-2.352.42-.727.348.2 1.041-1.803.72-2.919 4.234-5.66 3.826-8.299-4.007 1.99-8.039 7.301-11.725 10.407l-3.904 3.484c-1.17 1.225-2.387 2.461-3.904 3.485-1.17 1.224-2.516 1.882-3.686 3.106-6.84 6.093-2.79 3.159-7.84 4.547-1.376-1.764-.523-.767-2.868-1.656-.03-2.422 1.662-2.879 2.888-5.002.621-1.076.693-2.003.938-3.297.273-1.276.273-1.276.518-2.57l1.662-2.879c2.79-3.158 1.693-.457 5.202-6.535 2.267-3.925 3.38-6.656 6.212-10.759 2.065-3.577 4.622-8.809 6.889-12.734-2.564-.511-1.346.658-3.49-.58-.596-2.245 1.195-4.545 1.512-6.766.621-1.076.317-2.221 1.14-3.646l4.446-9.375c.694-2.003 2.267-3.925 3.308-5.728l1.314-3.08c1.663-2.879 3.857-5.877 4.97-8.608.938-3.297 1.243-2.152 2.485-4.303l3.38-6.657c.201-.349 1.17-1.224 1.662-2.879l3.509-6.078c1.17-1.224.767-.526 1.444-2.5-2.315 1.533-10.148 11.822-14.107 16.205-7.936 8.795-3.283 2.408-8.88 6.349-1.967 1.734-.725-.418-6.176 4.073-7.041 6.443-6.59 8.137-9.952 5.731l.444-4.047c-1.547 1.007-4.13 7.154-5.768 6.712l5.373-9.305c.693-2.004 1.966-1.734.993-4.196-1.45-3.241-.798-1.896-3.246-4.278l-1.724-1.965 2.112-1.184c.768-.526 2.382-5.798 3.205-7.223.621-1.076.969-.875 1.444-2.501 1.242-2.152 2.386-2.461 3.209-3.886 1.242-2.152 1.76-4.722 2.655-7.074 1.864-3.228 1.693-.457 2.137-4.505 2.662-1.332 1.766-1.385 2.065-3.577.072-.927.475-1.625.895-2.352.694-2.004-.03-2.422 1.195-4.545 1.76-4.722.847-4.745.164-8.513 1.967-1.734.969-.875 1.516-3.428.072-.928.201-.349.823-1.425.62-1.076.475-1.626.894-2.353.42-.727.97-.875 1.59-1.951.622-1.076-.177-2.972.445-4.047.273-1.277 2.113-1.185 4.58-5.459-1.827-3.459-.426-5.016 2.09-6.898l3.209-3.885c2.267-3.926 3.21-3.886 1.365-7.316l1.041-1.803c.823-1.425 2.113-1.184 2.113-1.184-.146-.549.201-.349.201-.349 1.39-1.602-1.424-4.156 2.066-3.577 2.137-4.504 3.556-3.685 3.653-7.933z" fill="#E40808"/>
    <g filter="url(#n4ukpasgtb)">
        <path fill-rule="evenodd" clip-rule="evenodd" d="M40.357 418.771c-.121.986.571 1.846 1.013 2.736.203.407.272.852.266 1.317-.014.951-1.063 1.482-1.952 1.145a1.553 1.553 0 0 0-1.896.676l-.638 1.105-1.298 2.249c-1.419 2.457-2.8 4.741-4.798 6.755-.952.96-1.802 2.154-2.481 3.322-.832 1.43-1.626 3.26-2.149 4.166l-2.264 4.772c-.267.563-.6 1.094-.94 1.616-1.936 2.975-2.119 5.731-4.546 9.097a.24.24 0 0 0 .071.348.236.236 0 0 1 .087.322l-.657 1.138c-1.299 2.249-2.7 6.761-4.901 8.488-2.705 2.598-.775 1.343-2.074 3.592L1.122 491.037a1.562 1.562 0 0 1-1.895.757 1.562 1.562 0 0 0-1.862.696l-1.994 3.455c-.271.469-.827.693-1.348.541a1.19 1.19 0 0 0-1.467.811c-.266.903-.327 1.087-.22 1.055.965-.287 1.202.789.642 1.626-.558.832-.996 1.388-1.435 2.152-.46.799-1.676.855-2.086.028l-.333-.67c-.124-.251.279-.69.07-.876-.088-.078-.122-.026-.236.005l-1.814.489a.759.759 0 0 0-.223.103c-.417.286-.899.059-.969-.442a2.186 2.186 0 0 0-.104-.43c-.148-.419-.632-.578-1.06-.462l-1.98.534c-.065.018-.193.187-.226.245-.093.16-.005.395.099.548l.242.356c.113.165.114.381.075.578a2.34 2.34 0 0 0 .029.885c.033.132.058.281.078.441.126 1.013-.944 2.009-1.454 2.894-.099.171-.211.519-.315.95-.242 1.012-1.408 1.635-2.31 1.114l-.281-.162a1.144 1.144 0 0 0-1.683.717l-.095.384a.941.941 0 0 0 1.263 1.099c.639-.255 1.314.239 1.161.909-.05.225-.062.325.049.472.417.554.514 1.278.035 1.779l-.532.556a.777.777 0 0 0-.104.14.731.731 0 0 1-.622.366l-2.401.039a.73.73 0 0 1-.716-.537c-.355-1.178-.695-1.452-.229-2.26-.494.856-.522.904-.581 1.849a.832.832 0 0 0 .043.35c.077.199.15.253.166.327.083.398-.024.824.328 1.028.17.098.373.123.562.073l.222-.058c.865-.216 1.308 1.062.863 1.834l-.991 1.717a.682.682 0 0 1-.51.335l-.108.012c-.652.075-.94-.088-1.575-.256-.463-.122-1.577-.162-1.668.308-.049.256-.147.466-.362.625-.564.417-.92 1.09-1.362 1.635-.06.074-.135.149-.225.231-.647.596-1.828.554-2.277-.204a1.854 1.854 0 0 1-.212-.517c-.007-.029-.093-.093-.118-.107-.096-.056-.52-.473-.582-.565l-.305-.447a.223.223 0 0 0-.248-.089c-.309.09-.518.171-.69.234-.917.338-1.87 1.051-2.27 1.944-.175.392-.439.848-.796 1.468l-.648-.374-.507.287.114.235c.212.437-.283.907-.724.705a13.539 13.539 0 0 0-2.485-.865c-.777-.191-1.25-.989-1.018-1.755.44-1.453.699-2.772.583-4.08-.061-.684.19-1.386.765-1.761.576-.374.833-1.074.676-1.742a5.446 5.446 0 0 1-.021-.095c-.213-.969-.119-1.715-1.096-1.89a9.771 9.771 0 0 1-1.078-.243c-.51-.155-1.16-.202-1.671-.356-1.046-.314-.597 1.907-.293 2.956.393 1.359-.617 1.254-2.208 4.009-2.917 6.055-1.924 5.419-6.49 8.152-4.095 3.004-.592 2.028-5.935 3.103-4.054 1.428-4.684 5.349-5.756 8.595a2.496 2.496 0 0 1-1.293 1.445c-.481.236-.89.605-1.131 1.083-.611 1.21-.451 1.462-.844 2.344-.237.531-.488 1.06-.77 1.568-1.252 2.253-3.598 2.987-6.395 7.831l-2.286 4.504c-1.207 2.376-3.13 4.682-5.502 5.897l-4.66 3.088c-.64.424-1.552.295-2.043-.294-.886-1.063-1.002-4.455-.79-5.822.027-.167.059-.338.095-.514.019-.088.03-.169.036-.259.41-5.947 6.127-27.949 7.699-31.748 2.325-4.027 2.66-9.782 4.551-14.059.174-.301 3.541-9.548 5.43-15.952.837-2.835-1.083-3.994-2.121-1.226a5.703 5.703 0 0 1-.381.83c-1.39 2.241-1.81 1.016-3.468 2.928l-.216.266c-1.16 1.424-2.767 2.193-4.432 2.969-.12.055-.255.123-.412.204-.478.247-.942.61-1.355.953-1.464 1.216-3.078 2.102-4.139 3.682-.72 1.071-1.677 2.027-3.228 2.445-1.427.386-1.155-.086-3.015.049-2.657.472-2.857 1.28-2.634 1.975.199.616.38 1.228.275 1.867l-.032.205c-.114.735-.013 1.515-.252 2.218a4.244 4.244 0 0 1-.089.238c-.538 1.318-2.407 1.125-3.666 1.79-.442.234-.818.611-1.266 1.031-.679.636-.981 1.633-.62 2.49.235.558.206 1.207-.146 1.699-1.841 2.576-3.144 1.156-4.609 3.006-.323.408-.328.972-.101 1.44a1.618 1.618 0 0 1-.215 1.724c-.566.696-.596.779-1.158 1.015-.821.345-1.83 1.149-1.408 1.932l.036.062c.152.256.169.562.165.86-.006.451.041.481-.21.943a.987.987 0 0 1-1.074.483 1.003 1.003 0 0 0-1.16.663l-1.312 3.909a.722.722 0 0 1-.273.361.713.713 0 0 0-.065 1.126l.519.451c.45.391.576 1.061.202 1.526-.688.855-.986.625-1.054 1.893-.039.716-.203 1.424-.561 2.045l-2.301 3.985-.322.557a9.13 9.13 0 0 1-1.039 1.474c-.115.13-.241.272-.373.416-1.027 1.12-2.459 1.924-3.357 3.149-.717.98-.806 1.826-1.693 4.034a.245.245 0 0 1-.163.146l-.154.041c-.152.041-.492.246-.571.383-.023.041-.124.172-.17.184-1.294.34-.958-.02-.527-.277.829-.494-.118.988-.424 1.904-.641 1.917-1.928 3.279-3.533 5.249-1.363 1.426-3.187.014-5.371 4.008-.305.559-.884.928-1.521.911-.725-.018-1.348.462-1.593 1.145-.316.877-.576.953-1.621 1.258-1.557.42-3.12-.056-4.703-.364-10.661-2.077-3.601-16.311-1.683-23.541 3.776-12.717 9.575-24.847 13.821-37.293l4.932-12.63c3.656-11.294 7.458-17.509 10.389-23.848 1.438-3.112 2.842-6.247 4.556-9.216l4.522-9.917c1.434-2.485 1.568-5.51 2.669-8.159 2.075-4.994 4.566-9.176 6.585-15.132 1.891-4.277 7.84-14.579 9.73-18.856 2.143-4.712 5.676-9.831 8.253-14.293l2.073-3.591c4.467-8.739 16.343-29.307 21.336-35.953l10.112-14.428c6.11-9.58 14.116-19.275 20.477-29.29l6.83-9.745c3.1-5.369 8.38-12.429 12.004-18.704 5.152-8.924 10.235-16.727 16.13-25.851.538-.621 1.014-1.329 1.454-2.077 1.934-3.285 4.034-6.462 5.954-9.755l.502-.869c1.115-1.931 3.067-3.773 3.962-5.575.28-.567.494-1.169.745-1.749.645-1.489 1.767-4.077 3.28-4.033.193.006.298.096.394-.071.056-.097.165-.376.139-.485-.329-1.349-.199-2.459 1.464-4.378 1.486-1.908 2.75-3.974 4.031-6.025 4.571-7.31 13.525-18.207 17.995-25.95 2.325-4.027 5.281-7.06 7.606-11.087l3.786-5.644c3.227-4.812 6.975-9.329 10.259-14.103 2.534-3.683 5.296-7.769 7.858-9.929 1.46-1.527 2.508-3.341 4.004-4.847 1.208-1.092 2.453-2.163 3.913-3.69 1.46-1.527.523-.907 2.202-1.727 1.449-.655 2.306-1.347 2.951-2.022 2.011-2.103 5.01-1.573 5.155 1.333l.167 4.885c.129 1.864.958-.657.129 1.864l-1.097 2.748c-1.067 2.672-2.328 5.255-3.842 7.702-5.666 9.156-18.659 29.573-19.817 32.428-.251.435-.592 2.028-1.116 2.935-.524.907-.434-.251-1.298 2.249-1.373 5.567.076 7.065 4.09 2.969 1.971-2.012 3.903-4.031 5.764-5.599l4.87-4.347.36-.376c2.777-2.882 6.343-4.952 9.108-7.845 7.304-6.506 4.654-4.761 7.69-5.21 1.279-.189 2.191.561 3.416.977 1.246.423 2.393 1.561 1.811 2.742-.694 1.409-2.075 2.242-3.162 4.124-.775 1.342-.865 2.499-1.17 4.113l-.139.647c-.36 1.689-.979 3.375-1.842 4.87-.511.886-1.066 1.684-1.792 2.405-2.183 2.169-1.579.346-5.436 7.027-2.828 4.897-4.216 8.304-7.75 13.422-2.067 3.581-4.53 8.492-6.883 12.823-.822 1.513-.265 2.557 1.357 3.135.63.225 1.413 1.014 1.434 1.682.049 1.575-.65 3.165-1.254 4.741-.657 1.718-1.12 3.542-1.503 5.341a6.189 6.189 0 0 1-.698 1.875l-5.547 11.694c-.865 2.5-2.828 4.897-4.126 7.147l-1.64 3.841c-2.074 3.592-4.81 7.332-6.2 10.738-1.17 4.113-1.55 2.684-3.1 5.369l-4.215 8.303-4.162 7.21-2.216 3.838a2.019 2.019 0 0 1-.236.295c-.802.824.147 1.372.929.528 4.15-4.478 11.111-13.455 15.03-17.793 9.9-10.971 4.096-3.004 11.079-7.921 2.453-2.163.903.522 7.703-5.081 8.085-7.397 8.252-9.777 11.498-7.767.579.358.871 1.037.797 1.713-.174 1.58 1.148 2.178 2.004.839.538-.84 1.094-1.735 1.645-2.545 1.226-1.802 2.043-.862.954 1.025l-4.086 7.076c-.305.528-.536 1.096-.822 1.635-.865 1.628-1.932 1.719-.875 4.393 1.81 4.043.996 2.364 4.05 5.337l.158.18a2.447 2.447 0 0 1-.643 3.748c-.957.656-2.971 7.232-3.998 9.01-1.208 2.093-2.323 4.275-4.066 5.948-.652.626-1.242 1.16-1.738 2.019-1.413 2.448-2.075 5.329-3.028 8.044-.183.522-.735 1.549-1.062 1.996-2.074 2.844-4.005 5.295-4.454 8.785a7.482 7.482 0 0 1-.01.081c-.163 2.093-1.37 3.954-1.65 6.035a5.5 5.5 0 0 1-.337 1.306c-.34.873-.796 1.705-1.093 2.593-.706 2.108-.873 3.328-.77 4.448.278 3.063-.209 6.112-.853 9.119-.09 1.157-.251.435-1.026 1.777-.775 1.342-.593 2.028-1.117 2.935-.523.907-1.208 1.092-1.983 2.434-.469.812-.29 1.999-.246 3.106.051 1.32.108 1.881-.81 2.829-3.028 3.123-2.56 9.12-5.406 12.409-.29.335-.623.66-.993.985-.908.795-1.808 1.604-2.577 2.535l-2.004 2.427c-.56.678-1.06 1.407-1.52 2.157-1.742 2.836-2.632 3.707-2.08 5.617.447 1.551.563 3.221-.244 4.62-.676 1.171-1.606 1.44-2.16 1.487-.22.019-.399.506-.616.466-.142-.027-.181.037-.262.156-.676.994-.241 2.224-.146 3.125.197 1.862-2.787 2.34-3.82 3.901-1.528 2.31-2.575 2.817-2.909 5.525z" fill="#fff"/>
    </g>
    <defs>
        <filter id="ja4xkq0b1a" x="-61.777" y="415.6" width="224.107" height="419.279" filterUnits="userSpaceOnUse" color-interpolation-filters="sRGB">
            <feFlood flood-opacity="0" result="BackgroundImageFix"/>
            <feColorMatrix in="SourceAlpha" values="0 0 0 0 0 0 0 0 0 0 0 0 0 0 0 0 0 0 127 0" result="hardAlpha"/>
            <feOffset dx="12" dy="58"/>
            <feGaussianBlur stdDeviation="2"/>
            <feComposite in2="hardAlpha" operator="out"/>
            <feColorMatrix values="0 0 0 0 0 0 0 0 0 0 0 0 0 0 0 0 0 0 0.15 0"/>
            <feBlend in2="BackgroundImageFix" result="effect1_dropShadow_770_7924"/>
            <feBlend in="SourceGraphic" in2="effect1_dropShadow_770_7924" result="shape"/>
        </filter>
        <filter id="n4ukpasgtb" x="-152.184" y="150.156" width="282.533" height="445.27" filterUnits="userSpaceOnUse" color-interpolation-filters="sRGB">
            <feFlood flood-opacity="0" result="BackgroundImageFix"/>
            <feColorMatrix in="SourceAlpha" values="0 0 0 0 0 0 0 0 0 0 0 0 0 0 0 0 0 0 127 0" result="hardAlpha"/>
            <feOffset dx="22" dy="15"/>
            <feGaussianBlur stdDeviation="2"/>
            <feComposite in2="hardAlpha" operator="out"/>
            <feColorMatrix values="0 0 0 0 0 0 0 0 0 0 0 0 0 0 0 0 0 0 0.25 0"/>
            <feBlend in2="BackgroundImageFix" result="effect1_dropShadow_770_7924"/>
            <feBlend in="SourceGraphic" in2="effect1_dropShadow_770_7924" result="shape"/>
        </filter>
    </defs>
</svg>
