<svg width="131" height="4" viewBox="0 0 131 4" fill="none" xmlns="http://www.w3.org/2000/svg">
    <path d="M1.93 3.86a1.931 1.931 0 1 1 .002-3.862A1.931 1.931 0 0 1 1.93 3.86zM20.07 3.86a1.931 1.931 0 1 1 .003-3.862 1.931 1.931 0 0 1-.002 3.862zM38.2 3.86a1.931 1.931 0 0 1 0-3.86 1.931 1.931 0 0 1 0 3.86zM56.34 3.86a1.931 1.931 0 0 1 0-3.86 1.931 1.931 0 0 1 0 3.86zM74.48 3.86a1.931 1.931 0 0 1 0-3.86c1.06 0 1.93.86 1.93 1.93a1.938 1.938 0 0 1-1.93 1.93zM92.61 3.86a1.931 1.931 0 0 1 0-3.86 1.931 1.931 0 0 1 0 3.86zM110.75 3.86a1.931 1.931 0 0 1 0-3.86c1.06 0 1.93.86 1.93 1.93a1.938 1.938 0 0 1-1.93 1.93zM128.879 3.86a1.931 1.931 0 0 1 0-3.86 1.931 1.931 0 0 1 0 3.86z" fill="#fff"/>
</svg>
