<svg width="242" height="637" viewBox="0 0 242 637" fill="none" xmlns="http://www.w3.org/2000/svg">
    <g filter="url(#0prqc95yma)">
        <path fill-rule="evenodd" clip-rule="evenodd" d="M87.96 558.734c1.764 1.018 6.01 2.891 5.539-.366-.182-.683-2.014-.585-3.185-.635-2.035-.549-.613-.932-2.353 1.001zm181.398-143.213c.251-.434.683-.184.683-.184 1.853-.134 2.014.585 1.71 2.191-1.15-.086-1.332-.769-2.914-1.104-2.747 3.76-5.062 7.77-8.959 11.444-2.443 2.154-4.448 8.702-6.855 10.876-2.964 3.057-2.315 4.01-4.29 6.434-1.543 2.673-3.247 4.627-4.29 6.433l-2.065 3.576c-.771 1.336-1.203 1.087-2.693 2.587-.772 1.336-.59 2.019-2.065 3.576-3.518 5.097-7.627 12.213-11.342 16.57-1.725 1.99-.089 1.152-4.487 5.693-2.225 2.858-5.53 7.5-6.423 11.126-.59 2.019.128 1.856-.644 3.193-.122 2.289-1.915 5.396-3.587 6.213-4.296 2.287-3.927 7.799-5.774 12.078l-2.103.568c-.122 2.289.378 1.423-1.362 3.356-2.693 2.587-3.086 5.346-4.698 9.135-1.415 4.529-4.699 9.136-6.045 12.549-.59 2.019-1.362 3.355-2.437 6.299-3.209 7.635-3.987 4.826-6.605 10.442-1.293 2.24-1.204 1.088-2.694 2.587l-2.315 4.01c-2.746 3.76-3.587 6.213-5.002 10.742l-7.013 13.145c-2.905 6.029-2.187 5.866-6.513 12.278-1.975 2.424-4.138 11.241-6.045 12.548-.65-.953-1.582-.335-.742-2.788 4.153-15.422 7.398-23.037 12.18-37.47.772-1.337 2.065-3.577 1.665-4.963-1.421.384-2.192 1.72-3.646 3.241-2.535.318.128 1.856-3.435-.201-.772 1.336-2.443 2.153-4.025 1.818-.432-.25-1.15-.086-1.15-.086-1.853.134-1.204 1.087-3.686.232-3.435-.201-14.3-2.91-14.952-6.851-2.497 3.327-9.572-4.948-11.336-5.967-2.193 1.721-3.056 1.222-4.978 2.472-.953.654-.772 1.337-2.443 2.154l-13.213 2.438c-3.465 3.923-5.259 7.03-9.337 10.021l-2.845-2.221c-.182-.682-.432-.249.09-1.152 0 0 .25-.433.089-1.152.86-2.489.3-4.595 1.355-7.502-3.783-5.748-7.051-1.085-11.556-9.658-2.285-.115-2.285-.115-4.388.453.393-2.759 1.665-4.963 1.823-7.232.123-2.289-.22-3.691-.098-5.98-.128-1.856.301-4.595.152-6.415.546-9.173 3.781-23.921 6.43-33.662 2.095-7.701 8.89-21.549 12.317-28.481 4.448-8.702 9.54-20.597 13.431-28.416l-1.514-1.452c1.454-1.521.954-.654 2.625-1.471.212-3.442 2.655-5.595 5.312-8.203l-.378-1.423c.25-.433.25-.433.089-1.152l2.193-1.72c.089-1.153.089-1.153 1.022-1.77l-.688-3.962 3.646-3.24-.649-.953c5.1-4.762 1.293-2.24 4.29-6.434l.25-.433c1.022-1.77 1.204-1.087 2.497-3.327-1.853.134-.432-.249-1.672.817l-.56-2.105 2.104-.568c1.293-2.239 1.111-2.922 1.233-5.212 1.019-4.757 2.44-5.141 4.544-5.709 1.361-3.355.083-5.297 3.208-7.635-.81-1.672-.649-.953.394-2.759 1.453-1.521 1.453-1.521 2.496-3.327 2.193-1.72 2.315-4.01 3.155-6.462 1.362-3.356 2.226-2.858 3.087-5.346.59-2.02 2.315-4.01 3.087-5.347 1.203-1.087 1.021-1.77 1.111-2.922 1.543-2.673 2.225-2.857 3.986-4.827 2.193-1.72.772-1.336 1.794-3.106.861-2.489 2.625-1.471 4.019-5.964.34-1.586 1.293-2.239 2.225-2.857 2.193-1.72 3.647-3.241 4.29-6.433.394-2.759 5.742-10.942 7.574-11.04l2.285.115 2.747-3.76c-1.243-1.921-.432-.249-.992-2.355 3.524-.951 4.206-1.135 5.318-4.057 2.103-.568 2.353-1.001 3.557-2.089l-.471-3.257 1.853-.135c2.536-.318 2.694-2.587 3.987-4.826 3.769-5.53 4.457-1.569 5.911-3.09 2.192-1.72 15.623-30.136 19.481-36.819 1.022-1.77 2.065-3.576 2.655-5.595 10.1-18.491 19.86-35.396 32.588-52.371 1.975-2.423 4.019-5.963 6.03-8.366 5.258-7.03 11.953-18.626 17.825-24.723 1.975-2.424 4.147-4.108 6.393-7.001l1.15.086c-.378-1.423-.431-.25-.128-1.856 1.922-1.251.522-.903 2.226-2.857 1.454-1.521.953-.654 2.625-1.471-4.449 8.702-7.407 15.904-11.116 24.406 1.802 4.027-.34 1.586-1.755 6.115-.09 1.153-.644 3.193-.894 3.626-.34 1.586-1.725 1.991-2.497 3.327l-2.314 4.01c-4.359 7.549-3.209 7.635-5.092 11.894l-2.565 4.443c2.353-1.001 9.48-12.347 10.752-14.55l30.061-44.919c1.022-1.77 1.922-1.251 5.44-6.347 1.794-3.107 2.997-4.194 4.541-6.867 3.247-4.627 7.165-8.338 10.448-12.944 1.975-2.424 3.518-5.097 5.53-7.5 3.518-5.096 7.633-8.067 10.88-12.694 2.315-4.01.432.249 4.54-6.867 2.104-.568 6.65-3.289 5.017.537-1.883 4.259-1.453 1.52-2.958 7.202-.59 2.019-3.247 4.627-4.359 7.549-3.73 8.539-14.262 26.781-20.042 34.714-3.247 4.627-6.423 11.126-9.67 15.753-.772 1.336-3.519 5.096-3.588 6.213-.589 2.019.9.519-1.361 3.356-3.769 5.53-8.095 11.942-11.432 17.722-2.133 4.692-1.883 4.259-4.54 6.867-.522.903-1.112 2.922-1.633 3.825-.521.903-.772 1.337-1.975 2.424-2.065 3.576-3.215 3.49-4.109 7.116-1.111 2.922-3.518 5.097-4.54 6.867-3.087 5.346-4.97 9.605-8.467 14.665-6.552 9.27-10.872 19.828-17.045 30.52-2.815 4.877-6.546 13.415-7.567 15.185l-4.63 8.019c-3.549 9.222-17.078 31.657-17.108 35.782 2.014.585 3.307-1.655 5.569-4.491l12.242-16.05c1.454-1.521.089-1.153 1.454-1.521 2.997-4.194 5.779-7.933 9.208-11.878l13.285-17.856c1.725-1.99 3.215-3.49 4.669-5.011 2.193-1.72 3.465-3.923 4.758-6.163 3.247-4.627 14.095-16.184 18.978-21.649l6.894-7.868c5.78-7.933 12.301-13.078 16.252-17.926l-.123 2.29-17.545 31.387c2.014.584 2.535-.319 4.117.017-1.051 5.894-10.35 18.924-14.729 26.51-1.112 2.922-1.165 4.096-3.427 6.932l-11.554 20.012c.522-.903 3.215-3.49 4.419-4.578l16.541-15.35c2.443-2.154 4.668-5.011 6.861-6.731.953-.653 1.671-.817 2.875-1.904.953-.654 1.203-1.087 2.443-2.153 1.204-1.088 1.671-.818 2.193-1.721.953-.653 1.725-1.99 2.693-2.587 1.764 1.019.379 1.423 2.535-.318-.59 2.019-.643 3.193-1.415 4.529-.953.654-1.421.384-1.543 2.673-.551 5.028-.894 3.626-4.359 7.55-2.225 2.857-3.337 5.779-5.401 9.355-2.134 4.693-5.652 9.79-7.067 14.319-.09 1.152-1.112 2.922-1.633 3.825-1.293 2.24-.953.654-2.225 2.857-1.022 1.77-2.816 4.877-2.437 6.299 3.306-1.654 8.997-8.435 12.644-11.676 2.192-1.72 4.147-4.108 6.59-6.261 5.35-5.195 14.065-12.06 18.733-17.071 1.725-1.99 4.419-4.577 6.34-5.827 1.204-1.088 2.193-1.72 3.397-2.808 1.203-1.087 1.725-1.99 3.307-1.654l-2.226 2.857c1.46 2.625 2.664 1.537 1.499 5.633-1.293 2.24-1.633 3.826-3.769 5.53-3.215 3.49-4.63 8.019-8.095 11.943-3.465 3.923-1.671.817-2.815 4.876-1.165 4.096-1.794 3.107-3.519 5.097-3.715 4.357-3.426 6.932-5.741 10.942l1.71 2.191c-1.454 1.521-1.203 1.087-2.443 2.154-1.454 1.52-6.605 10.443-8.616 12.845-1.293 2.24-1.633 3.826-2.655 5.596-1.111 2.922-5.19 5.914-7.073 10.173-1.543 2.673-1.915 5.396-4.359 7.549-2.997 4.194-5.902 10.223-8.648 13.983-3.215 3.49-2.134 4.692-4.109 7.116-1.293 2.24-1.165 4.096-1.484 5.645l-1.293 2.24c-1.793 3.107-.393 2.759-1.915 5.396-.59 2.019-2.497 3.327-3.337 5.78-.522.903.432.249-.861 2.489-.666.82-1.405 1.019-2.427 2.789z" fill="#E40808"/>
    </g>
    <path fill-rule="evenodd" clip-rule="evenodd" d="M153.634 264.801c.017.829.512 1.834 1.333 1.721.841-.115 1.568-.68 1.973-1.426 3.045-5.604 13.813-26.206 19.433-37.505 1.578-3.172 1.264-3.266-1.432-.967-.222.19-.415.342-.629.541-2.575 2.407-.05-1.939-3.605 4.936-1.053 1.824-2.744 3.246-3.478 5.22-.415 1.117-.827 2.237-1.313 3.079-1.338 2.317-1.629 4.376-2.967 6.693a49494.42 49494.42 0 0 0-4.029 6.978c-1.338 2.317-2.555 5.171-3.504 6.815-1.287 2.229-1.819 2.109-1.782 3.915zm55.574-22.015a1.34 1.34 0 0 0 .036 1.397 1.379 1.379 0 0 1-.006 1.49c-.892 1.396-1.413 2.467-1.921 3.307-1.46 2.413-4.079 4.308-5.548 6.716-.338.554-.713 1.512-1.145 3.449-1.511 4.373 2.829 5.45 4.794 1.261.195-.414.37-.819.524-1.206.501-1.259.943-2.552 1.583-3.746l3.626-6.762c.66-1.231.543-2.602.471-3.997-.182-2.851.091-3.957-.19-4.793-.198-.586-1.132-.265-.985.335.053.218.015.378-.097.572l-1.142 1.977zm-44.101 126.429c-1.33 1.084-2.026 2.895-3.045 4.274-.528.715-1.049 1.322-1.624 2.739-2.302 3.988.284 1.062-3.504 6.815-1.862 2.481-2.741 5.494-3.931 8.364-.763 1.32-.899.81-1.863 2.481l-7.028 11.426c-.273.473-.571 1.358-.86 2.076-.212.529-.432.964-.611 1.505-1.418 4.291-4.677 1.237-3.37-3.089 1.371-4.539 3.347-8.97 4.728-13.347.889-2.85 6.154-15.447 7.737-20.139.244-.725-.088-.932-.402-.235a.945.945 0 0 1-.295.351c-.681.49-1.487 1.208-1.829 1.8-.576.997.673.389-.439 1.507-1.661 2.131-.86-.065-3.551 4.596l-7.144 13.119c-.634 1.67-1.567 3.42-2.268 5.363-.414 1.149-1.438 1.913-2.199 2.868-1.107 1.392-3.485 3.123-2.971 1.421.161-.534.477-1.269.627-2.284.021-.145.049-.289.09-.43.148-.518.321-1.152.527-1.838.476-1.585-.042-1.976-1.139-.737a3.93 3.93 0 0 0-.298.383c-.304.438-.753.865-1.198 1.292-.916.879-1.731 1.873-2.493 2.888-1.537 2.046-2.68 4.415-4.043 6.129-1.863 2.481-3.924 5.243-5.787 7.724-4.269 6.719-8.782 3.212-9.589.183-.16-.605.085-1.183.268-1.782.126-.413.066-.888.106-1.317l.371-3.951c1.294-9.886 11.017-29.025 12.389-34.448.93-3.548 3.262-7.892 4.523-11.498.366-1.048-.327-2.207-1.315-1.702-2.838.995-7.687 2.134-11.338 1.665-.746-.095-.807-.712-.059-.646.098.009.229.001.324-.025l2.999-.805c.703-.189 1.368-.515 2.071-.705.148-.04.311-.085.5-.152.53-.188 1.046-.418 1.596-.531a31.655 31.655 0 0 1 1.689-.285c3.406-.503 2.703-1.722-.736-1.874a5.7 5.7 0 0 1-2.17-.536c-.728-.335-.914-1.242-1.407-1.874-.39-.5-1.123-.601-1.937-.651-.964-.058-1.197-1.064-.417-1.635.614-.45.655-1.352.069-1.839-1.382-1.15-1.286-1.023-1.294-2.854a2.008 2.008 0 0 0-1.017-1.724l-.323-.187-.323-.186c.799-2.103 3.779-.874 1.1-4.032a4.992 4.992 0 0 1-.568-.781c-.739-1.321-1.213-3.033-1.319-4.266a1.919 1.919 0 0 1 .048-.506c.255-1.139-1.029-1.088-1.612-.077l-1.87 3.238-1.726 2.99-.591 1.024a.824.824 0 0 0-.083.627c.111.414-.121.836-.483 1.065-2.172 1.381-2.441 4.934-4.972 7.9-3.737 4.919-3.827 6.628-6.686 8.534-.361.248-.678.401-.996.556-.66.322-1.271.885-1.693 1.486-1.483 2.11-3.205 4.221-4.25 6.58-.727 1.643-1.592 3.409-2.33 4.549-.3.462-.6.923-1.048 1.243-.876.626-1.736 1.375-2.175 2.358l-.079.182c-.334.784-.834 1.477-1.412 2.104l-.33.358c-.797.865-1.506 1.811-2.035 2.862-.507 1.008-.749 1.501-2.163 2.887-1.2 1.082-2.098 2.331-3.298 3.413-1.287 1.484-.86-.065-3.484 3.736-3.065 5.308-2.536 2.092-4.45 5.406l-.956 2.022c-.629 1.327-2.718 2.066-2.52.611.145-1.058-.696-2.071-1.703-2.425-2.405-.845-1.675-2.317-.476-5.7.253-1.183.642-1.857.867-3.056l.022-.095c.54-2.192 1.75-4.171 2.618-6.256.911-2.192 1.968-4.311 2.761-6.549.328-.923.66-1.853 1.04-2.853l5.32-11.513a5.28 5.28 0 0 0 .397-.819c.524-1.427.918-2.872 1.545-4.256.432-.952.726-1.965 1.066-2.953.475-1.383.626-2.121 1.654-3.902L76 350.9l28.369-55.29c.762-1.32 1.404-3.177 1.777-3.824l3.251-5.631 9.097-17.309c1.217-2.854 5.503-8.785 5.992-11.125.479-2.382 14.424-25.729 15-26.726 2.049-2.804 9.858-18.629 12.549-23.29 2.812-4.124 4.605-7.975 6.841-11.103 2.302-3.987 5.503-8.785 7.603-12.423.576-.997 1.015-2.503 1.777-3.823l1.914-3.314c.559-.969 1.153-1.794 1.749-2.604 2.244-3.05 4.046-6.412 6.172-9.545l11.694-17.229c5.367-9.295 11.096-13.065 15.304-23.46.828-2.181 3.064-5.308 3.706-7.165 2.391-5.696 5.643-11.327 8.723-16.662 2.675-4.634 5.786-7.724 8.987-12.522 3.54-6.13 9.024-11.987 13.586-17.574.259-.316.485-.657.711-.997.323-.488.659-.906.975-1.303.642-.805 1.508-1.546 2.023-2.437l.762-1.32s.264-.42.422-.613c3.114-3.808 6.812-7.28 9.895-11.105l24.108-27.215c1.288-1.484 6.11-7.537 7.358-8.146 1.135-.553 4.023-2.292 5.374-3.444.243-.208.469-.545.661-.802 1.013-1.36 2.114 1.45 1.418 2.998-1.308 2.911-3.337 6.425-4.613 8.636l-3.574 5.444-1.727 2.991-2.928 5.818c-1.152 1.993-2.812 4.124-3.827 6.628-1.949 4.887-4.226 6.694-6.813 11.059a3.563 3.563 0 0 0-.336.773c-.241.795-.537 1.73-.698 2.647-.189 1.076 1.062 1.769 2.152 1.844.178.012.369-.002.539-.057.072-.023.137-.046.197-.069 1.33-.504 1.687 1.283 1.127 2.591l-1.597 3.727c-.867 3.056-7.311 10.364-7.669 13.283-.245 1.15 1.438 1.147 2.233.281 3.283-3.574 9.185-11.316 11.978-14.206 3.016-2.983 4.972-7.022 8.059-9.588.162-.135.22-.247.402-.352.157-.09.419.084.533.224 1.318 1.623.07 1.782.41 4.117.429 3.158-1.436 4.992-3.011 6.994-1.154 1.468-1.228 3.455-2.161 5.072l-.792 1.371c-.459.796-1.467.716-.902 1.44l.252.32c.024.029.071.066.104.084.23.133.221.608-.044.633a2.61 2.61 0 0 1-.306.007.41.41 0 0 1-.195-.056l-.04-.023a.612.612 0 0 0-.843.237l-7.233 13.242c-.818 1.418-2.096 3.046-3.261 4.714-2.875 4.116.268 6.235 4.005 2.882.675-.605 1.55-.897 2.196-1.533.129-.128.296-.304.514-.548.899-.81.899-.81 1.661-2.13.329-.571.694-1.117 1.09-1.625 1.208-1.554 3.021-.898 2.037.807l-6.771 12.473c-.964 1.67-.575.997-.828 2.18-.305 1.243-.869 2.435-1.436 3.592-1.255 2.561-2.141 5.267-3.767 7.61-.327.47-.635 1.14-.961 2.519-.515 2.096-1.896 2.895-2.346 4.686-.298 1.188-.562 2.349-1.327 3.304-.19.237-.354.492-.545.729l-2.875 3.567c-1.863 2.481-2.742 5.494-4.029 6.978l-2.998 4.448c-1.474 1.808-2.626 3.801-3.64 6.305-.957 2.855.737 4.41 2.805 2.221 3.64-3.852 7.59-9.476 8.554-11.146 1.914-3.314 2.256-6.206 5.18-8.972 1.824-1.605 1.338-2.317 2.999-4.448 1.085-1.134 2.399-2.602 3.485-3.736 1.957-2.607 4.736-4.789 6.63-7.442l8.281-11.598c.22-.308.63-.655.903-.917 1.206-1.156 2.044-.118 1.415 1.43-.857 2.107-2.12 4.598-2.735 5.664l-5.942 10.293c-.576.996-2.4 2.602-4.126 5.593a48.038 48.038 0 0 1-2.96 4.476 6.863 6.863 0 0 0-.428.645l-17.721 29.141c-.763 1.321-1.661 2.131-2.626 3.802l-12.775 18.274c-.761 1.318-1.394 2.744-2.434 3.856l-.203.217a4.9 4.9 0 0 0-.652.878l-1.638 2.838-9.24 13.705c-1.101 1.349-2.68 2.662-3.782 4.505-.773 1.294-.677 2.838-.889 4.33-.125 2.07-1.17 2.746-1.3 4.478-.059.791.774 1.295 1.38.785.094-.079.188-.156.297-.229.611-.414 1.504.176 1.036.746-.324.394-.526 1.097-.062 1.31 1.002.459 2.691.698 3.367.088 1.521-1.339 3.662-5.394 4.313-8.005.22-.886.33-1.828.223-2.734-.133-1.135-.14-2.3.147-3.406.026-.102.055-.205.087-.31.309-1.034.502-2.095.648-3.164.312-2.292 1.017-4.876 2.2-6.327.822-.947 1.167-1.98 1.85-2.749.857-.963 2.311-1.03 3.392-1.732l.061-.042a2.449 2.449 0 0 0 1.039-2.448c-.272-1.619.853-2.011 2.118-.965.224.185.5.38.847.587.74.443 1.681.427 2.329-.141 1.948-1.71 3.509-4.945 4.48-6.628 2.303-3.987 7.887-11.361 10.189-15.348.389-.674.479-2.383.868-3.056.186-.323.509-.137.509-.137a.373.373 0 0 0 .51-.137c4.695-7.472 9.626-14.133 14.394-21.409a62.253 62.253 0 0 1 3.913-5.336c1.523-1.864 2.947-3.982 4.214-6.028.763-1.234 1.554-2.417 2.119-3.007.691-.722 1.008-.771 1.479-1.094.799-.549 1.286-1.431 1.799-2.254.403-.646.802-1.2 1.297-1.687.128-.126.206-.205.301-.357.929-1.485 1.8-.93.789.501-2.327 3.299-4.737 6.384-5.213 8.708-.337 1.153-4.872 8.705-7.885 14.447-.352.671.361 1.093.811.483.367-.498.939-.262.723.318-.896 2.41-3 5.608-3.889 7.148l-.399.842c-1.023 2.157-2.312 4.127-3.07 6.391-.218.653-.589 1.432-.869 2.062-3.538 7.943-23.5 38.233-31.386 53.071-2.3 4.33-5.209 9.216-7.66 13.462l-2.451 4.244c-1.298 2.249-1.804 4.952-3.542 6.881-1.863 2.481-.642 1.857-1.591 3.501-.926 1.604-2.079 2.961-2.912 4.616l-1.677 3.332c-.964 1.67-.291 2.059-2.166 4.497l-8.567 14.094c-.187.323-1.217 2.854-1.59 3.5-.389.674-2.237 3.128-2.626 3.801-.762 1.321-1.403 3.178-2.166 4.498l-5.699 11.295c-.2.398.093 1.118.316.732.222-.384.881-.149.644.226-.795 1.256-2.394 3.017-3.832 4.892-1.19 2.061-1.553 4.471-2.805 6.496-.826 1.334-1.637 2.882-4.023 9.93l-8.937 22.795c-.266.68-.393 1.348-.744 1.987-.518.941-.949 2.009-1.3 3.023-.154.445-.313.891-.588 1.369-1.338 2.317-.712.487-1.914 3.314-2.134 6.742-1.777 3.823-3.317 6.491-1.266 2.193-2.271 4.769-3.398 7.166-.801 1.704-1.84 3.072-3.298 4.262z" fill="#086DE4"/>
    <g filter="url(#vi88r1radb)">
        <path fill-rule="evenodd" clip-rule="evenodd" d="M82.564 489.368c.007.305.189.675.491.633a1 1 0 0 0 .726-.525c1.12-2.062 5.084-9.645 7.153-13.804.58-1.168.465-1.202-.527-.356-.082.07-.153.126-.231.199-.948.886-.02-.714-1.327 1.817-.388.671-1.01 1.194-1.28 1.921-.154.411-.305.823-.484 1.133-.492.853-.6 1.611-1.092 2.464l-1.483 2.568c-.493.853-.94 1.904-1.29 2.509-.473.82-.67.776-.656 1.441zm20.456-8.104a.492.492 0 0 0 .013.515.506.506 0 0 1-.002.548c-.329.514-.52.908-.707 1.217-.538.889-1.502 1.586-2.042 2.472-.125.204-.263.557-.422 1.27-.556 1.61 1.042 2.006 1.765.464.071-.152.136-.302.193-.444.184-.463.347-.939.582-1.379l1.335-2.489c.243-.453.2-.958.173-1.471-.067-1.049.034-1.456-.07-1.764-.072-.216-.416-.098-.362.123a.264.264 0 0 1-.036.211l-.42.727zM86.787 527.8c-.49.399-.745 1.065-1.12 1.573-.195.263-.387.487-.598 1.008-.848 1.468.104.391-1.29 2.508-.685.914-1.009 2.023-1.447 3.079-.28.486-.33.298-.686.913l-2.586 4.206c-.1.174-.21.5-.317.764-.078.195-.159.355-.225.554-.522 1.579-1.721.455-1.24-1.137.504-1.671 1.232-3.302 1.74-4.913.327-1.049 2.265-5.685 2.848-7.412.09-.267-.032-.343-.148-.087a.344.344 0 0 1-.109.129c-.25.181-.547.445-.673.663-.212.367.248.143-.162.555-.611.784-.316-.024-1.307 1.691l-2.629 4.829c-.233.615-.577 1.259-.835 1.974-.153.423-.53.704-.81 1.056-.407.512-1.282 1.149-1.093.523.06-.197.176-.467.23-.841a1.25 1.25 0 0 1 .034-.158c.054-.191.118-.425.194-.677.175-.583-.015-.727-.42-.271-.039.044-.075.092-.11.141-.11.161-.276.318-.44.475-.337.324-.637.69-.918 1.063-.565.753-.986 1.625-1.488 2.256-.685.913-1.444 1.93-2.13 2.843-1.57 2.474-3.232 1.183-3.529.068-.06-.223.031-.436.099-.656.046-.152.024-.327.039-.485l.136-1.454c.477-3.639 4.055-10.684 4.56-12.679.343-1.306 1.201-2.906 1.665-4.233.135-.385-.12-.812-.484-.626-1.044.366-2.83.785-4.173.613-.275-.035-.297-.262-.022-.238.036.003.084 0 .12-.009l1.103-.297c.259-.069.504-.189.762-.259.055-.015.115-.032.185-.056.194-.069.384-.154.587-.195.206-.043.415-.075.622-.105 1.253-.186.995-.634-.271-.69a2.109 2.109 0 0 1-.8-.197c-.267-.124-.335-.458-.517-.69-.143-.184-.413-.222-.713-.24-.355-.021-.44-.392-.154-.602a.429.429 0 0 0 .026-.677c-.509-.423-.473-.376-.476-1.05a.74.74 0 0 0-.375-.635l-.119-.068-.118-.069c.294-.774 1.39-.322.405-1.484a1.838 1.838 0 0 1-.21-.287 4.265 4.265 0 0 1-.485-1.571.703.703 0 0 1 .017-.186c.094-.419-.378-.4-.593-.028l-.688 1.191-.635 1.101-.218.377a.305.305 0 0 0-.03.231c.04.152-.045.307-.178.392-.8.508-.899 1.816-1.83 2.908-1.376 1.81-1.409 2.439-2.461 3.141-.133.091-.25.147-.367.204a1.73 1.73 0 0 0-.623.547c-.546.777-1.18 1.554-1.564 2.422-.268.605-.586 1.255-.858 1.674-.11.171-.22.34-.386.458-.322.231-.639.506-.8.868l-.03.067a2.717 2.717 0 0 1-.519.774l-.121.132a4.664 4.664 0 0 0-.75 1.054c-.186.371-.275.552-.796 1.062-.441.399-.772.858-1.213 1.256-.474.547-.317-.023-1.283 1.376-1.128 1.953-.933.77-1.638 1.99l-.352.744c-.231.488-1 .76-.927.224.053-.389-.257-.762-.627-.892-.885-.311-.617-.853-.175-2.098.093-.435.236-.683.319-1.125l.008-.035c.199-.807.644-1.535.963-2.302.336-.807.725-1.587 1.017-2.411.12-.34.243-.682.382-1.05l1.958-4.238c.07-.122.116-.217.147-.301.193-.525.338-1.057.569-1.567.158-.35.267-.723.392-1.087.175-.509.23-.78.609-1.436l.355-.615 10.442-20.35c.28-.486.517-1.17.654-1.408l1.197-2.072 3.348-6.371c.448-1.051 2.025-3.234 2.206-4.095.176-.877 5.308-9.47 5.52-9.837.755-1.032 3.629-6.857 4.62-8.573 1.034-1.518 1.694-2.935 2.517-4.086.848-1.468 2.026-3.234 2.799-4.573.212-.367.373-.922.654-1.408l.704-1.219c1.081-1.873 2.35-3.639 3.565-5.428l3.655-5.385c1.976-3.422 4.084-4.809 5.633-8.636.305-.802 1.128-1.953 1.364-2.637.881-2.096 2.077-4.169 3.211-6.133.985-1.705 2.13-2.842 3.308-4.609 1.303-2.256 3.321-4.412 5.001-6.468.095-.116.178-.242.261-.367.119-.18.243-.334.359-.48.236-.296.555-.569.745-.897l.28-.486s.098-.154.155-.225c1.147-1.402 2.508-2.68 3.643-4.088l8.873-10.017c.474-.546 2.249-2.774 2.709-2.998.417-.204 1.48-.844 1.977-1.268.09-.076.173-.2.244-.295.373-.501.778.534.522 1.104-.482 1.071-1.229 2.365-1.698 3.178l-1.316 2.004-.635 1.101-1.078 2.141c-.424.734-1.035 1.518-1.409 2.44-.717 1.799-1.555 2.464-2.507 4.07a1.31 1.31 0 0 0-.124.285c-.089.293-.198.637-.257.974-.07.396.391.652.792.679a.556.556 0 0 0 .199-.021l.072-.025c.49-.186.621.472.415.953l-.588 1.372c-.319 1.125-2.691 3.815-2.823 4.889-.09.423.53.422.822.104 1.208-1.316 3.381-4.165 4.409-5.229 1.11-1.098 1.83-2.585 2.966-3.529.06-.05.081-.091.148-.13.058-.033.154.031.196.083.486.597.026.656.151 1.515.158 1.163-.528 1.838-1.108 2.574-.425.541-.452 1.272-.796 1.867l-.291.505c-.169.293-.54.263-.332.53l.093.117a.166.166 0 0 0 .038.032c.085.049.081.223-.016.233a1.257 1.257 0 0 1-.113.002.165.165 0 0 1-.086-.029.226.226 0 0 0-.311.087l-2.662 4.874c-.301.522-.771 1.122-1.2 1.735-1.058 1.515.099 2.295 1.474 1.061.249-.222.571-.33.808-.564.048-.047.109-.112.19-.202.33-.298.33-.298.611-.784.121-.21.256-.411.401-.598.445-.572 1.112-.33.75.297l-2.492 4.591c-.355.615-.212.367-.305.803a4.385 4.385 0 0 1-.125.41c-.583 1.612-1.75 2.972-2.144 4.64-.189.772-.698 1.065-.863 1.725-.11.437-.207.864-.489 1.216-.07.087-.13.181-.2.268l-1.059 1.313c-.685.913-1.009 2.022-1.483 2.569l-1.103 1.637c-.543.665-.966 1.399-1.34 2.32-.352 1.051.271 1.624 1.032.818 1.34-1.418 2.794-3.488 3.149-4.103.704-1.219.83-2.284 1.907-3.302.671-.591.492-.853 1.104-1.637.399-.417.883-.958 1.282-1.375.721-.96 1.743-1.763 2.441-2.74l3.048-4.268c.081-.114.231-.241.332-.338.444-.425.753-.043.521.526-.315.776-.78 1.693-1.007 2.085l-2.187 3.789c-.212.367-.883.957-1.519 2.058a17.642 17.642 0 0 1-1.089 1.648 2.43 2.43 0 0 0-.157.237l-6.523 10.726c-.281.486-.612.785-.967 1.4l-4.702 6.726c-.28.485-.513 1.01-.896 1.419l-.075.08a1.893 1.893 0 0 0-.24.323l-.603 1.045-3.401 5.044c-.405.497-.986.98-1.391 1.659-.285.476-.25 1.044-.328 1.593-.046.762-.43 1.011-.478 1.649-.022.29.285.476.508.289.034-.03.069-.058.109-.085.225-.152.554.065.381.275-.119.145-.193.404-.022.482.368.169.99.257 1.239.032.56-.492 1.348-1.985 1.587-2.946.081-.326.122-.673.083-1.007-.05-.417-.052-.846.053-1.253l.032-.114c.114-.381.185-.771.239-1.165.115-.843.374-1.794.81-2.329.302-.348.429-.728.681-1.011.315-.355.85-.38 1.248-.638l.023-.015a.902.902 0 0 0 .382-.901c-.1-.596.314-.741.78-.356.082.068.184.14.312.217.272.162.618.157.857-.053.717-.629 1.291-1.82 1.649-2.439.847-1.468 2.903-4.182 3.75-5.649.143-.248.176-.877.319-1.125.069-.119.188-.051.188-.051.066.038.15.016.187-.05 1.729-2.75 3.544-5.202 5.299-7.88.454-.694.915-1.321 1.44-1.964a21.188 21.188 0 0 0 1.551-2.219c.281-.454.572-.889.78-1.107.254-.265.371-.284.544-.402.294-.202.474-.527.662-.83.149-.238.296-.441.478-.621a.664.664 0 0 0 .111-.131c.342-.547.662-.343.29.184-.857 1.214-1.744 2.35-1.919 3.205-.124.425-1.793 3.204-2.902 5.318-.13.247.133.402.299.178.135-.184.345-.097.266.117-.33.887-1.105 2.064-1.432 2.631l-.147.31c-.376.794-.851 1.518-1.13 2.352-.08.24-.216.527-.32.759-1.302 2.924-8.649 14.072-11.552 19.534-.847 1.594-1.917 3.392-2.82 4.955l-.902 1.562c-.477.828-.664 1.823-1.303 2.533-.686.913-.236.683-.586 1.288-.341.591-.765 1.09-1.072 1.7l-.617 1.226c-.355.615-.107.758-.797 1.655l-3.153 5.188c-.069.119-.448 1.05-.586 1.288-.143.248-.823 1.151-.966 1.399-.281.486-.517 1.17-.797 1.656l-2.098 4.157c-.074.146.034.412.116.27.082-.142.324-.055.237.083-.292.462-.881 1.11-1.41 1.8-.438.759-.572 1.646-1.033 2.391-.304.491-.602 1.061-1.48 3.655l-3.29 8.39c-.098.251-.144.496-.274.732-.19.346-.35.739-.478 1.113a2.778 2.778 0 0 1-.217.503c-.492.853-.262.18-.704 1.22-.786 2.482-.654 1.407-1.221 2.389-.466.808-.836 1.756-1.25 2.638a4.328 4.328 0 0 1-1.215 1.569z" fill="#fff"/>
    </g>
    <g filter="url(#gbspba2cmc)">
        <path fill-rule="evenodd" clip-rule="evenodd" d="M70.34 270.894c.01.532.328 1.177.855 1.105.54-.075 1.006-.437 1.266-.916 1.953-3.595 8.862-16.813 12.468-24.062 1.012-2.036.81-2.096-.919-.62-.142.121-.267.219-.403.347-1.653 1.544-.033-1.244-2.314 3.166-.675 1.17-1.76 2.083-2.231 3.349-.267.717-.53 1.436-.842 1.976-.859 1.486-1.046 2.807-1.904 4.294l-2.585 4.477c-.858 1.487-1.64 3.318-2.248 4.372-.826 1.43-1.167 1.353-1.143 2.512zm35.655-14.124a.86.86 0 0 0 .023.896.885.885 0 0 1-.004.956c-.572.896-.906 1.583-1.232 2.121-.937 1.549-2.617 2.764-3.56 4.31-.216.355-.457.97-.734 2.213-.97 2.805 1.815 3.496 3.076.809.124-.266.237-.526.336-.774.321-.808.604-1.638 1.015-2.404l2.327-4.338c.423-.79.348-1.67.302-2.565-.117-1.829.059-2.538-.122-3.075-.127-.376-.726-.17-.632.215a.455.455 0 0 1-.062.367l-.733 1.269zM77.7 337.885c-.853.695-1.3 1.857-1.953 2.742-.34.458-.673.848-1.042 1.757-1.477 2.559.182.682-2.248 4.372-1.195 1.592-1.759 3.526-2.522 5.366-.49.847-.577.52-1.196 1.592l-4.508 7.331c-.176.304-.367.872-.552 1.332-.136.34-.278.619-.392.966-.91 2.753-3.001.794-2.163-1.982.88-2.913 2.148-5.755 3.034-8.563.57-1.829 3.948-9.911 4.964-12.921.156-.465-.056-.598-.258-.151a.603.603 0 0 1-.19.225c-.436.315-.953.775-1.173 1.155-.37.64.432.249-.282.967-1.065 1.367-.551-.042-2.278 2.949l-4.583 8.417c-.407 1.071-1.006 2.194-1.455 3.44-.266.737-.923 1.228-1.41 1.841-.712.893-2.237 2.003-1.907.911.103-.342.306-.814.402-1.465.014-.093.032-.185.057-.276.096-.333.206-.739.339-1.179.305-1.017-.027-1.268-.731-.473a2.56 2.56 0 0 0-.191.246c-.195.281-.483.554-.769.828-.587.564-1.11 1.202-1.6 1.853-.985 1.313-1.719 2.833-2.593 3.933-1.195 1.591-2.518 3.363-3.713 4.955-2.739 4.311-5.634 2.061-6.152.117-.103-.387.055-.759.172-1.142.08-.265.042-.57.068-.846l.238-2.535c.83-6.342 7.068-18.622 7.948-22.101.597-2.276 2.093-5.063 2.902-7.377.235-.672-.21-1.416-.843-1.092-1.821.639-4.932 1.369-7.275 1.069-.478-.062-.518-.457-.037-.415a.66.66 0 0 0 .207-.016l1.925-.517c.45-.121.877-.33 1.328-.452.095-.025.2-.055.321-.098.34-.12.67-.267 1.024-.34.359-.073.724-.13 1.084-.183 2.185-.322 1.734-1.105-.472-1.202a3.648 3.648 0 0 1-1.393-.344c-.467-.215-.586-.797-.903-1.203-.25-.32-.72-.385-1.242-.417-.619-.037-.768-.683-.268-1.049a.748.748 0 0 0 .045-1.18c-.887-.738-.825-.656-.83-1.831a1.288 1.288 0 0 0-.654-1.106l-.207-.12-.207-.119c.513-1.35 2.425-.561.706-2.587a3.25 3.25 0 0 1-.364-.501 7.425 7.425 0 0 1-.846-2.737c-.009-.095.01-.233.03-.325.164-.731-.66-.698-1.034-.049l-1.2 2.077-1.107 1.919-.38.656a.532.532 0 0 0-.053.403c.071.265-.077.536-.31.683-1.393.886-1.566 3.166-3.19 5.068-2.397 3.157-2.455 4.253-4.289 5.476-.232.159-.435.257-.639.356a3.006 3.006 0 0 0-1.087.954c-.95 1.354-2.056 2.708-2.726 4.221-.466 1.055-1.021 2.187-1.495 2.919-.192.296-.385.592-.672.798-.563.401-1.114.881-1.396 1.512l-.05.117c-.215.503-.535.948-.906 1.35l-.212.23c-.512.555-.967 1.162-1.306 1.836-.325.647-.48.963-1.388 1.852-.77.695-1.346 1.496-2.116 2.19-.826.952-.55-.042-2.235 2.397-1.966 3.405-1.627 1.342-2.855 3.469l-.614 1.296c-.403.852-1.743 1.326-1.616.392.093-.678-.447-1.328-1.093-1.555-1.543-.542-1.074-1.487-.305-3.657.162-.759.412-1.192.556-1.961l.015-.061c.346-1.406 1.123-2.676 1.679-4.013.585-1.407 1.262-2.767 1.772-4.202.21-.593.423-1.189.666-1.831l3.413-7.387c.123-.212.202-.379.256-.525.336-.915.589-1.842.991-2.731.277-.61.466-1.26.684-1.894.305-.887.401-1.361 1.061-2.503l.619-1.072 18.201-35.473c.49-.847.9-2.039 1.14-2.454l2.086-3.612 5.836-11.105c.781-1.831 3.531-5.637 3.845-7.138.307-1.529 9.254-16.507 9.624-17.147 1.315-1.799 6.325-11.952 8.051-14.943 1.804-2.646 2.954-5.117 4.39-7.123 1.476-2.559 3.53-5.637 4.877-7.971.37-.639.651-1.606 1.14-2.453l1.228-2.126c1.884-3.264 4.097-6.342 6.213-9.46l6.372-9.388c3.443-5.964 7.119-8.382 9.818-15.052.532-1.399 1.967-3.405 2.378-4.597 1.535-3.654 3.621-7.267 5.597-10.69 1.716-2.973 3.712-4.955 5.766-8.034 2.271-3.933 5.79-7.69 8.717-11.275.165-.203.311-.421.455-.64.208-.313.423-.581.626-.836.412-.516.968-.992 1.298-1.563l.489-.847s.17-.27.271-.394c1.997-2.443 4.37-4.67 6.348-7.124l15.468-17.461c.826-.952 3.92-4.836 4.721-5.226.728-.355 2.581-1.471 3.447-2.21.156-.133.301-.35.424-.514.65-.873 1.357.93.91 1.923-.839 1.868-2.141 4.122-2.96 5.54l-2.293 3.494-1.108 1.918-1.878 3.733c-.739 1.279-1.804 2.646-2.456 4.252-1.25 3.136-2.711 4.296-4.37 7.096a2.187 2.187 0 0 0-.216.496c-.155.51-.344 1.11-.448 1.698-.121.691.681 1.135 1.381 1.183a.942.942 0 0 0 .346-.036l.126-.044c.853-.324 1.082.823.723 1.662l-1.025 2.391c-.556 1.961-4.69 6.65-4.92 8.522-.157.738.923.736 1.433.181 2.106-2.294 5.893-7.26 7.685-9.115 1.934-1.914 3.19-4.505 5.17-6.152.104-.086.141-.158.258-.225.101-.058.269.053.342.144.846 1.041.045 1.143.263 2.641.275 2.026-.921 3.203-1.931 4.487-.741.942-.788 2.217-1.387 3.254l-.508.88c-.295.51-.941.459-.579.924l.162.205a.289.289 0 0 0 .066.054c.148.085.142.39-.028.406-.05.005-.113.006-.196.004a.273.273 0 0 1-.151-.05.393.393 0 0 0-.541.152l-4.64 8.496c-.525.91-1.345 1.954-2.093 3.024-1.844 2.641.172 4.001 2.57 1.849.433-.388.994-.575 1.409-.984a7.19 7.19 0 0 0 .33-.351c.576-.52.576-.52 1.065-1.367.212-.366.446-.716.699-1.042.776-.997 1.939-.576 1.307.518l-4.343 8.002c-.619 1.072-.37.64-.532 1.399a7.38 7.38 0 0 1-.29.905c-1.029 2.66-2.913 4.935-3.616 7.699l-.048.199c-.331 1.345-1.217 1.857-1.506 3.007-.191.761-.36 1.506-.851 2.119-.122.153-.227.316-.35.468l-1.844 2.289c-1.196 1.591-1.759 3.525-2.585 4.477l-1.924 2.853c-.946 1.16-1.684 2.439-2.335 4.045-.614 1.832.472 2.83 1.799 1.426 2.336-2.472 4.87-6.08 5.489-7.152 1.227-2.126 1.447-3.981 3.323-5.756 1.17-1.03.859-1.487 1.924-2.854.696-.727 1.54-1.669 2.236-2.397 1.256-1.672 3.038-3.072 4.254-4.774l5.313-7.442c.141-.197.404-.419.579-.588.774-.741 1.312-.075.908.918-.55 1.352-1.36 2.95-1.755 3.634l-3.812 6.603c-.369.64-1.54 1.67-2.647 3.589a30.738 30.738 0 0 1-1.9 2.872c-.098.133-.191.27-.274.413l-11.37 18.697c-.489.847-1.065 1.367-1.684 2.439l-8.196 11.724c-.489.846-.895 1.761-1.562 2.474a52.17 52.17 0 0 1-.131.14c-.16.171-.3.36-.418.563l-1.051 1.821-5.928 8.793c-.706.865-1.719 1.707-2.426 2.89-.496.83-.435 1.821-.571 2.778-.08 1.328-.75 1.762-.834 2.873-.038.507.497.831.886.504.06-.051.12-.1.19-.147.392-.266.965.113.665.478-.208.253-.337.704-.04.841.643.294 1.726.448 2.16.057.976-.859 2.35-3.461 2.767-5.137.142-.568.212-1.172.144-1.754-.086-.728-.09-1.475.094-2.185.017-.065.035-.132.055-.199.199-.663.323-1.344.416-2.03.201-1.47.653-3.128 1.412-4.059.527-.608.748-1.27 1.187-1.763.55-.619 1.483-.662 2.176-1.112a1.57 1.57 0 0 0 .706-1.597c-.175-1.039.547-1.291 1.359-.62.144.119.321.244.543.377.475.284 1.079.274 1.494-.091 1.25-1.097 2.252-3.172 2.875-4.252 1.477-2.558 5.06-7.289 6.537-9.847.249-.432.307-1.529.556-1.961.12-.207.327-.088.327-.087a.24.24 0 0 0 .327-.088c3.013-4.795 6.176-9.068 9.235-13.736a39.824 39.824 0 0 1 2.511-3.424c.977-1.196 1.891-2.554 2.703-3.867.49-.792.997-1.551 1.36-1.93.443-.462.647-.494.949-.701.513-.352.825-.918 1.154-1.446.259-.415.515-.77.832-1.082.082-.081.132-.132.193-.23.597-.953 1.155-.596.507.322-1.494 2.116-3.039 4.095-3.345 5.586-.216.74-3.125 5.585-5.059 9.27-.226.43.232.701.521.309.235-.319.602-.168.463.204-.575 1.547-1.924 3.598-2.495 4.587l-.256.54c-.656 1.384-1.483 2.647-1.969 4.1-.141.419-.378.919-.558 1.323-2.27 5.096-15.077 24.53-20.136 34.05-1.477 2.778-3.343 5.912-4.916 8.637l-1.572 2.723c-.833 1.442-1.158 3.177-2.272 4.414-1.196 1.592-.412 1.192-1.021 2.246-.594 1.03-1.334 1.901-1.868 2.962l-1.076 2.138c-.619 1.072-.187 1.321-1.39 2.885l-5.496 9.042c-.12.208-.781 1.831-1.021 2.246-.249.432-1.435 2.007-1.684 2.439-.489.847-.901 2.038-1.39 2.885l-3.656 7.247c-.13.256.06.718.202.47.143-.246.566-.096.414.145-.51.806-1.537 1.935-2.459 3.138-.764 1.323-.996 2.869-1.8 4.168-.53.856-1.05 1.85-2.581 6.371l-5.734 14.625c-.17.436-.251.865-.477 1.275a12.78 12.78 0 0 0-.834 1.94c-.099.285-.2.571-.378.878-.858 1.486-.456.312-1.227 2.126-1.37 4.326-1.14 2.453-2.128 4.164-.813 1.407-1.457 3.06-2.18 4.598-.514 1.093-1.18 1.971-2.117 2.735z" fill="#fff"/>
    </g>
    <defs>
        <filter id="0prqc95yma" x="76.178" y="109.41" width="296.189" height="527.473" filterUnits="userSpaceOnUse" color-interpolation-filters="sRGB">
            <feFlood flood-opacity="0" result="BackgroundImageFix"/>
            <feColorMatrix in="SourceAlpha" values="0 0 0 0 0 0 0 0 0 0 0 0 0 0 0 0 0 0 127 0" result="hardAlpha"/>
            <feOffset dx="17" dy="19"/>
            <feGaussianBlur stdDeviation="2"/>
            <feComposite in2="hardAlpha" operator="out"/>
            <feColorMatrix values="0 0 0 0 0 0 0 0 0 0 0 0 0 0 0 0 0 0 0.25 0"/>
            <feBlend in2="BackgroundImageFix" result="effect1_dropShadow_771_7601"/>
            <feBlend in="SourceGraphic" in2="effect1_dropShadow_771_7601" result="shape"/>
        </filter>
        <filter id="vi88r1radb" x="46.859" y="396.516" width="113.375" height="158.008" filterUnits="userSpaceOnUse" color-interpolation-filters="sRGB">
            <feFlood flood-opacity="0" result="BackgroundImageFix"/>
            <feColorMatrix in="SourceAlpha" values="0 0 0 0 0 0 0 0 0 0 0 0 0 0 0 0 0 0 127 0" result="hardAlpha"/>
            <feOffset dx="22" dy="4"/>
            <feGaussianBlur stdDeviation="2"/>
            <feComposite in2="hardAlpha" operator="out"/>
            <feColorMatrix values="0 0 0 0 0 0 0 0 0 0 0 0 0 0 0 0 0 0 0.25 0"/>
            <feBlend in2="BackgroundImageFix" result="effect1_dropShadow_771_7601"/>
            <feBlend in="SourceGraphic" in2="effect1_dropShadow_771_7601" result="shape"/>
        </filter>
        <filter id="gbspba2cmc" x="8.102" y="109.047" width="165.305" height="291.475" filterUnits="userSpaceOnUse" color-interpolation-filters="sRGB">
            <feFlood flood-opacity="0" result="BackgroundImageFix"/>
            <feColorMatrix in="SourceAlpha" values="0 0 0 0 0 0 0 0 0 0 0 0 0 0 0 0 0 0 127 0" result="hardAlpha"/>
            <feOffset dx="9" dy="26"/>
            <feGaussianBlur stdDeviation="2"/>
            <feComposite in2="hardAlpha" operator="out"/>
            <feColorMatrix values="0 0 0 0 0 0 0 0 0 0 0 0 0 0 0 0 0 0 0.25 0"/>
            <feBlend in2="BackgroundImageFix" result="effect1_dropShadow_771_7601"/>
            <feBlend in="SourceGraphic" in2="effect1_dropShadow_771_7601" result="shape"/>
        </filter>
    </defs>
</svg>
