<svg width="502" height="480" viewBox="0 0 502 480" fill="none" xmlns="http://www.w3.org/2000/svg">
<path fill-rule="evenodd" clip-rule="evenodd" d="M302.12 245.546C300.642 247.208 307.721 273.402 307.721 278.665C307.721 279.835 308.029 288.576 308.46 288.73C309.537 289.161 318.279 289.007 318.74 287.93C320.156 284.421 317.632 255.919 317.632 255.919C321.233 252.01 333.299 252.41 333.514 253.149C335.73 260.228 337.546 277.28 337.331 284.975C337.208 289.038 341.024 286.76 346.995 286.237C352.289 285.775 351.027 286.422 349.581 277.434C348.38 269.955 347.334 246.962 346.349 240.098C345.98 237.544 318.002 243.361 315.231 243.853C297.133 247.116 302.643 244.9 302.12 245.546ZM371.926 238.621C358.507 238.036 353.49 252.564 355.213 265.276C356.044 271.524 358.414 275.649 361.4 279.065C372.572 291.962 391.871 273.679 388.793 256.842C386.854 246.285 382.791 241.299 371.926 238.621ZM369.341 248.994C372.142 246.377 387.869 253.149 378.544 269.678C369.525 285.621 355.459 255.396 369.341 248.994ZM410.338 237.974C415.786 236.189 420.711 237.174 421.295 238.405C423.481 242.961 428.467 282.051 428.59 282.02C433.484 280.666 435.7 279.435 436.254 280.82C436.869 282.266 437.608 287.961 438.131 291.1C439.055 296.764 385.777 292.701 382.76 291.531C380.667 290.731 380.175 282.297 382.76 282.451C393.964 283.036 388.116 282.79 392.763 274.664C400.027 262.106 399.966 251.179 410.338 237.974ZM412.923 252.164C411.692 252.626 399.011 282.082 400.273 282.451C400.797 282.605 417.725 282.944 419.11 282.913C419.325 274.91 412.985 252.133 412.923 252.164ZM251.612 327.913C242.686 337.793 244.563 348.443 249.673 355.276C256.013 363.771 261.43 364.171 268.048 361.924C270.017 361.247 269.433 368.573 269.802 370.389C270.171 372.389 269.279 376.791 271.464 377.283C272.572 377.53 281.652 377.099 281.836 376.175C282.421 373.282 280.636 362.355 282.267 361.955C289.008 360.355 297.01 355.091 298.611 345.026C299.842 337.27 295.102 328.436 287.438 324.835C279.343 321.018 264.169 319.787 251.612 327.913ZM278.205 334.192C278.235 334.1 290.424 330.283 288.946 343.333C288.269 349.212 284.483 349.951 279.313 348.874C278.697 348.72 277.958 335.361 278.205 334.192ZM269.525 334.777C269.556 334.9 271.556 347.242 270.602 349.459C270.325 350.105 262.23 352.106 259.953 347.027C255.151 336.377 260.691 334.469 269.525 334.777ZM311.938 338.563C312.123 337.362 314.031 324.742 315.57 324.25C316.924 323.819 323.265 321.695 323.757 322.803C328.005 332.222 335.699 345.611 340.285 354.753C341.67 357.554 347.642 329.913 353.643 315.939C354.197 314.647 358.876 314.216 362.323 313.446C366.509 316.001 380.359 354.845 385.838 372.728C385.992 373.19 376.574 375.129 376.081 374.575C374.973 373.344 369.433 360.447 368.11 360.447C366.263 360.447 351.52 359.462 350.843 362.171C349.334 368.265 347.395 371.312 346.841 376.699C346.811 376.976 338.531 376.299 335.607 377.961C333.945 378.915 334.561 376.514 333.514 372.636C331.544 365.372 326.466 352.783 322.249 346.381C320.618 343.918 320.864 341.979 319.51 347.119C317.355 355.214 315.385 363.525 312.677 371.743C310.799 377.376 312.123 374.206 301.596 376.206C299.473 376.668 311.046 344.072 311.938 338.563ZM358.476 334.253C357.799 334.9 352.228 348.535 354.505 348.535C355.182 348.535 367.279 348.412 366.878 347.827C366.294 346.935 358.414 334.284 358.476 334.253ZM382.791 320.987C382.914 321.295 384.361 347.212 385.376 352.352C385.992 355.522 387.316 366.664 387.069 369.927C387.531 369.927 397.257 369.312 397.319 369.312C397.319 360.201 395.195 355.83 395.01 347.304C394.949 343.918 394.056 340.255 394.056 335.454C394.056 328.036 392.302 327.451 401.535 326.959C406.091 326.712 410.153 326.866 415.047 326.497C417.602 326.312 417.479 326.251 416.679 321.972C415.478 315.57 415.201 317.725 406.891 318.125C404.706 318.217 382.545 320.31 382.791 320.987ZM404.367 350.69C402.089 315.324 458.199 323.85 440.624 358.939C430.868 378.361 405.721 372.02 404.367 350.69ZM425.512 336.562C434.992 336.562 435.023 355.522 428.651 358.231C422.588 360.816 420.033 358.6 417.171 355.645C412.462 350.751 416.001 334.992 425.512 336.562ZM447.242 376.114C447.303 377.253 458.876 378.392 458.907 377.899C459.43 370.173 462.139 348.197 462.662 349.736C463.247 351.49 467.125 362.294 468.818 362.294C468.818 362.294 475.62 364.141 476.389 363.74C476.389 363.74 481.714 358.723 485.438 352.075C485.438 352.075 484.7 356.107 484.977 360.232C485.069 361.647 484.946 379.777 485.869 380.331C485.869 380.331 496.58 383.501 496.95 382.147C498.273 377.16 502.89 327.728 501.843 327.728C497.411 327.697 493.318 328.067 493.318 328.067C489.07 333.976 473.65 345.98 473.896 345.642C473.896 345.642 465.371 324.989 462.754 324.989C462.385 324.989 452.166 323.357 452.043 324.312C451.674 327.113 447.18 375.344 447.242 376.114ZM273.649 446.661C278.605 437.92 283.129 421.298 288.054 409.448C288.423 408.586 296.272 408.094 297.441 409.695C300.304 413.696 310.461 447.831 313.6 447.492C319.079 446.907 322.618 446.599 323.634 448.631C324.681 450.724 323.326 461.158 323.326 461.158C320.587 462.82 282.298 460.512 277.435 460.266C275.773 460.173 268.755 461.004 263.708 461.404C255.828 462.02 258.137 461.651 259.429 453.309C259.953 449.862 259.737 448.785 264.139 448.262C268.386 447.831 272.695 448.169 273.649 446.661ZM293.255 426.223C293.317 426.593 286.853 446.292 286.299 447.215C287.069 446.599 294.056 446.907 295.318 447.123C304.09 448.754 301.381 448.846 299.596 443.398C298.734 440.751 293.194 426.223 293.255 426.223ZM340.008 402.369C315.016 403.262 309.63 454.91 347.795 454.941C361.184 454.941 369.772 434.411 365.924 422.376C361 406.986 354.382 401.876 340.008 402.369ZM335.115 437.027C342.717 445.307 358.137 445.276 354.875 426.777C350.289 400.922 318.925 419.421 335.115 437.027ZM375.835 401.815C374.019 405.632 372.419 456.941 376.451 458.388C390.978 463.621 409.907 459.865 412.739 451.617C422.126 424.5 390.64 430.009 387.469 427.208C388.516 417.451 386.854 411.295 388.208 409.51C390.024 407.109 397.78 407.632 408.122 407.848C412.924 407.94 410.584 400.43 408.861 398.152C406.398 398.429 378.02 397.29 375.835 401.815ZM388.239 439.028C388.824 434.811 410.615 442.321 398.796 448.262C385.161 455.125 387.192 445.922 388.239 439.028ZM425.112 403.385C427.113 400.892 441.856 402.615 450.689 408.309C463.339 416.466 451.951 441.275 432.468 436.811C427.451 435.673 430.129 458.942 429.082 459.034C416.001 459.896 420.28 459.681 419.818 447.985C419.602 441.829 423.758 405.078 425.112 403.385ZM432.376 413.819C431.852 418.959 430.129 426.223 431.668 426.777C433.484 427.393 436.592 428.039 443.148 425.731C447.95 424.038 446.288 412.372 435.238 412.711C435.238 412.711 432.407 413.45 432.376 413.819ZM450.104 457.403C450.843 458.85 455.891 458.542 458.722 459.281C459.584 459.496 463.77 445.738 465.648 444.506C467.063 443.583 470.88 443.706 473.004 444.014C479.991 445.03 483.715 445.584 485.469 447.307C486.393 448.2 488.024 452.848 490.732 460.573C490.794 460.727 498.796 462.359 499.166 461.374C499.504 460.481 482.022 404.924 479.529 404.831C478.175 404.77 473.342 402.861 471.803 404.77C468.356 409.017 450.043 457.28 450.104 457.403ZM469.68 432.902C474.45 422.407 474.727 422.13 475.805 422.376C477.436 422.745 479.067 429.147 480.914 433.641C481.56 435.211 469.31 433.703 469.68 432.902Z" fill="white"/>
<rect x="141" y="346" width="6" height="39" fill="white"/>
<path fill-rule="evenodd" clip-rule="evenodd" d="M104.38 363.055C105.238 359.847 122.286 344.477 126.203 340.597C128.591 338.284 133.44 331.345 136.35 328.995C137.32 328.212 141.125 323.623 141.163 323.66C142.319 324.145 145.49 325.861 145.676 325.899C145.9 326.981 146.161 336.382 146.161 339.142C146.161 347.051 143.587 349.737 143.737 357.683C143.998 372.494 141.946 383.835 141.946 383.835C129.486 379.619 124.525 378.873 114.34 370.629C112.624 369.211 104.193 365.928 104.193 363.839C104.193 363.54 104.343 363.279 104.38 363.055Z" fill="#F3A9BE"/>
<rect x="94" y="274" width="5" height="14" fill="white"/>
<path fill-rule="evenodd" clip-rule="evenodd" d="M111.283 369.284C108.485 370.105 89.7956 380.774 87.7065 382.863C84.6475 385.922 84.9459 381.931 82.8196 377.454C81.2154 374.096 80.5813 369.694 78.0445 365.703C73.4187 358.353 69.539 346.565 65.249 338.469C63.8687 335.858 64.3536 335.746 67.1888 333.694C72.7845 329.665 74.426 330.598 79.7233 323.845C80.5813 322.726 85.9159 315.75 86.5874 316.459C89.3479 319.443 113.111 357.309 108.112 360.256C106.06 361.487 109.605 360.629 104.941 362.643C100.166 364.733 107.254 366.449 110.164 368.799C110.201 368.874 111.209 369.321 111.283 369.284Z" fill="#00B7E0"/>
<path fill-rule="evenodd" clip-rule="evenodd" d="M94.2309 302.097C93.2237 306.201 91.6569 310.267 89.4933 314.11C86.6954 319.109 82.8903 323.772 78.078 327.801C73.3776 331.756 67.7072 335.151 61.7384 337.538C55.0608 340.187 48.0103 341.567 41.5192 340.97C34.8417 340.336 28.7609 337.687 24.2097 332.278C22.3818 330.077 20.815 327.466 19.5466 324.295C18.5021 321.72 17.9052 319.146 17.644 316.572C16.786 307.768 20.2927 299.374 26.2242 292.323C32.0438 285.422 40.2135 279.788 48.7563 276.394C53.2702 274.603 57.9333 273.409 62.4099 272.962L63.0815 272.887C69.7217 272.327 77.108 272.85 83.1514 276.207C88.7844 279.304 93.3357 284.75 94.6787 293.927C94.9398 295.42 94.977 299.15 94.2309 302.097Z" fill="white"/>
<path fill-rule="evenodd" clip-rule="evenodd" d="M118.406 285.681C120.122 277.287 124.375 272.176 129.709 269.192C135.753 265.834 143.139 265.312 149.78 265.871C149.929 265.871 149.854 265.871 150.414 265.946C154.89 266.394 159.553 267.587 164.105 269.378C172.647 272.773 180.817 278.406 186.637 285.308C192.568 292.321 196.075 300.715 195.217 309.519C194.956 312.056 194.359 314.63 193.314 317.242C192.083 320.375 190.479 323.024 188.651 325.188C184.1 330.597 178.019 333.283 171.342 333.88C164.813 334.477 157.763 333.097 151.085 330.448C145.116 328.06 139.446 324.665 134.746 320.748C129.933 316.719 126.128 312.056 123.33 307.057C120.122 301.312 116.914 293.067 118.406 285.681Z" fill="white"/>
<path fill-rule="evenodd" clip-rule="evenodd" d="M180.144 281.472C153.956 262.259 138.885 265.953 131.424 271.474C120.83 279.345 119.45 279.308 120.419 292.999C121.576 309.675 130.828 313.816 141.198 323.292C144.481 326.276 162.723 331.872 166.901 332.283C176.899 333.252 184.621 326.314 187.456 316.502C191.485 302.512 189.545 290.425 180.144 281.472Z" fill="#E9BCA6"/>
<path fill-rule="evenodd" clip-rule="evenodd" d="M20.8915 322.843C22.0107 322.358 19.6604 321.537 18.6159 321.089C8.91661 317.209 4.14162 336.72 23.4282 337.28C28.0913 337.429 24.3236 332.468 33.4633 337.28C48.5344 345.226 65.247 333.885 76.3639 325.23C85.6528 318.03 91.3977 294.192 90.092 288.073C90.5397 287.85 98.8213 290.424 96.6949 279.195C96.21 276.546 94.6059 267.704 90.2039 270.913C85.6527 274.196 87.1077 278.001 86.5108 279.754C84.5709 280.165 80.6166 274.681 71.1039 274.681C64.2771 274.681 55.958 274.643 49.84 278.038C45.2515 280.575 40.3273 280.276 35.3657 286.171C29.5835 293.11 23.6147 295.311 21.2645 306.279C20.9287 308.144 21.0408 322.805 20.8915 322.843Z" fill="#E9BCA6"/>
<path fill-rule="evenodd" clip-rule="evenodd" d="M20.8915 322.843C22.0107 322.358 19.6604 321.537 18.6159 321.089C8.91661 317.209 4.14162 336.72 23.4282 337.28C28.0913 337.429 24.3236 332.468 33.4633 337.28C48.5344 345.226 65.247 333.885 76.3639 325.23C85.6528 318.03 91.3977 294.192 90.092 288.073C90.5397 287.85 98.8213 290.424 96.6949 279.195C96.21 276.546 94.6059 267.704 90.2039 270.913C85.6527 274.196 87.1077 278.001 86.5108 279.754C84.5709 280.165 80.6166 274.681 71.1039 274.681C64.2771 274.681 55.958 274.643 49.84 278.038C45.2515 280.575 40.3273 280.276 35.3657 286.171C29.5835 293.11 23.6147 295.311 21.2645 306.279C20.9287 308.144 21.0408 322.805 20.8915 322.843Z" fill="#E9BCA6"/>
<path d="M241.921 55.5936L241.921 55.5922C242.485 53.2791 242.778 50.6622 242.821 49.4285V49.4283V49.428V49.4277V49.4274V49.4271V49.4268V49.4265V49.4262V49.4259V49.4256V49.4253V49.425V49.4248V49.4245V49.4242V49.4239V49.4236V49.4234V49.4231V49.4228V49.4226V49.4223V49.422V49.4218V49.4215V49.4213V49.421V49.4208V49.4205V49.4203V49.42V49.4198V49.4195V49.4193V49.419V49.4188V49.4186V49.4183V49.4181V49.4179V49.4177V49.4174V49.4172V49.417V49.4168V49.4166V49.4163V49.4161V49.4159V49.4157V49.4155V49.4153V49.4151V49.4149V49.4147V49.4145V49.4143V49.4141V49.4139V49.4137V49.4135V49.4133V49.4131V49.4129V49.4127V49.4126V49.4124V49.4122V49.412V49.4118V49.4116V49.4115V49.4113V49.4111V49.4109V49.4108V49.4106V49.4104V49.4103V49.4101V49.4099V49.4098V49.4096V49.4094V49.4093V49.4091V49.409V49.4088V49.4086V49.4085V49.4083V49.4082V49.408V49.4079V49.4077V49.4076V49.4074V49.4073V49.4071V49.407V49.4068V49.4067V49.4065V49.4064V49.4063V49.4061V49.406V49.4058V49.4057V49.4056V49.4054V49.4053V49.4051V49.405V49.4049V49.4047V49.4046V49.4045V49.4043V49.4042V49.4041V49.4039V49.4038V49.4037V49.4035V49.4034V49.4033V49.4031V49.403V49.4029V49.4027V49.4026V49.4025V49.4024V49.4022V49.4021V49.402V49.4018V49.4017V49.4016V49.4015V49.4013V49.4012V49.4011V49.4009V49.4008V49.4007V49.4006V49.4004V49.4003V49.4002V49.4V49.3999V49.3998V49.3997V49.3995V49.3994V49.3993V49.3991V49.399V49.3989V49.3988V49.3986V49.3985V49.3984V49.3982V49.3981V49.398V49.3978V49.3977V49.3976V49.3974V49.3973V49.3972V49.397V49.3969V49.3968V49.3966V49.3965V49.3964V49.3962V49.3961V49.396V49.3958V49.3957V49.3955V49.3954V49.3952V49.3951V49.395V49.3948V49.3947V49.3945V49.3944V49.3942V49.3941V49.3939V49.3938V49.3936V49.3935V49.3933V49.3932V49.393V49.3929V49.3927V49.3925V49.3924V49.3922V49.3921V49.3919V49.3917V49.3916V49.3914V49.3912V49.3911V49.3909V49.3907V49.3906V49.3904V49.3902V49.39V49.3899V49.3897V49.3895V49.3893V49.3891V49.389V49.3888V49.3886V49.3884V49.3882V49.388V49.3878V49.3876V49.3874V49.3872V49.387V49.3868V49.3866V49.3864V49.3862V49.386V49.3858V49.3856V49.3854V49.3852V49.385V49.3848V49.3845V49.3843V49.3841V49.3839V49.3836V49.3834V49.3832V49.383V49.3827V49.3825V49.3823V49.382V49.3818V49.3815V49.3813V49.381V49.3808V49.3805V49.3803V49.38V49.3798V49.3795V49.3792V49.379V49.3787V49.3784V49.3782V49.3779V49.3776V49.3773V49.3771V49.3768V49.3765V49.3762V49.3759V49.3756V49.3753V49.375V49.3747V49.3744V49.3741V49.3738V49.3735V49.3732V49.3729V49.3726V49.3723V49.3719V49.3716V49.3713V49.371V49.3706V49.3703V49.37V49.3696V49.3693V49.3689V49.3686V49.3682V49.3679V49.3675V49.3672V49.3668V49.3664V49.3661V49.3657V49.3653V49.3649V49.3646V49.3642V49.3638V49.3634V49.363V49.3626V49.3622V49.3618V49.3614V49.361V49.3606V49.3602V49.3597V49.3593V49.3589V49.3585V49.358V49.3576V49.3572V49.3567V49.3563V49.3558V49.3554V49.3549V49.3545V49.354V49.3536V49.3531V49.3526V49.3521V49.3517V49.3512V49.3507V49.3502V49.3497V49.3492V49.3487V49.3482V49.3477V49.3472V49.3467V49.3462V49.3457V49.3451V49.3446V49.3441V49.3435V49.343V49.3425V49.3419V49.3414V49.3408V49.3402V49.3397V49.3391V49.3385V49.338V49.3374V49.3368V49.3362V49.3356V49.335V49.3344V49.3338V49.3332V49.3326V49.332V49.3314V49.3308V49.3301V49.3295V49.3289V49.3282V49.3276V49.3269V49.3263V49.3256V49.325V49.3243V49.3236V49.3229V49.3223V49.3216V49.3209V49.3202V49.3195V49.3188V49.3181V49.3174V49.3167V49.316V49.3152V49.3145V49.3138V49.313V49.3123V49.3115V49.3108V49.31V49.3093V49.3085V49.3077V49.307V49.3062V49.3054V49.3046V49.3038V49.303V49.3022V49.3014V49.3006V49.2998V49.2989V49.2981V49.2973V49.2964V49.2956V49.2948V49.2939V49.293V49.2922V49.2913V49.2904V49.2896V49.2887V49.2878V49.2869V49.286V49.2851V49.2842V49.2833V49.2823V49.2814V49.2805V49.2795V49.2786V49.2777V49.2767V49.2757V49.2748V49.2738V49.2728V49.2719V49.2709V49.2699V49.2689V49.2679V49.2669V49.2659V49.2648V49.2638V49.2628V49.2618V49.2607V49.2597V49.2586V49.2576V49.2565V49.2554V49.2543V49.2533V49.2522V49.2511V49.25V49.2489V49.2478V49.2467V49.2455V49.2444V49.2433V49.2421V49.241C242.821 46.6038 242.468 44.8612 242.117 43.1285C242.107 43.0789 242.097 43.0294 242.087 42.9798L241.921 55.5936ZM241.921 55.5936C241.708 56.4737 241.503 57.2904 241.34 57.885C241.273 58.1299 241.214 58.3324 241.166 58.4844C239.338 58.3691 238.424 57.7975 237.942 57.0986C237.406 56.3226 237.305 55.2622 237.336 54.0528C237.344 53.9047 237.355 53.7283 237.367 53.5382C237.386 53.2355 237.408 52.8978 237.421 52.5831C237.485 51.8183 237.528 51.0821 237.506 50.2969C237.466 48.0366 238.056 46.1269 238.653 44.2281L241.921 55.5936ZM242.072 42.9075L242.087 42.9794L239.643 38.1532L240.137 38.2316C240.137 38.2313 240.137 38.2309 240.137 38.2306C240.299 37.2091 240.146 36.2245 239.547 35.5246C238.938 34.8123 237.967 34.509 236.748 34.649C236.011 34.7003 235.078 34.9855 234.041 35.3794C232.988 35.7797 231.775 36.3134 230.471 36.889C230.371 36.9321 230.271 36.9754 230.171 37.019C228.33 37.8156 226.294 38.697 224.324 39.4005C222.237 40.1459 220.276 40.6719 218.735 40.7029C217.544 40.7239 216.75 40.5527 216.22 40.2631L216.22 40.2629L216.209 40.2568C215.879 40.0879 215.689 39.8667 215.59 39.6342C215.492 39.404 215.466 39.0818 215.552 38.7292L215.553 38.7253C215.678 38.1958 215.988 37.6377 216.478 37.0957C219.171 34.1658 222.297 32.1202 225.64 31.3427L225.643 31.3419C228.445 30.6713 231.436 30.8982 234.507 32.2492C235.091 32.5118 235.67 32.478 236.158 32.2303C236.632 31.9893 236.99 31.5629 237.201 31.0813C237.623 30.1209 237.517 28.7975 236.421 27.9559C236.062 27.6723 235.624 27.1597 235.102 26.4783C234.817 26.1049 234.526 25.708 234.22 25.2903C233.962 24.9392 233.694 24.5734 233.409 24.1944L233.408 24.1932C232.351 22.7949 231.299 21.3215 230.465 20.0753C229.618 18.8087 229.031 17.828 228.864 17.3896C227.875 14.7937 227.381 12.6856 227.253 11.0295C227.124 9.36882 227.367 8.2041 227.806 7.45315C228.18 6.82865 228.759 6.51871 229.471 6.50056C230.426 6.48217 231.636 6.91957 232.923 7.88232C236.406 10.4914 239.629 15.8137 239.419 24.7446L239.419 24.7567L239.419 24.7688C239.445 25.7828 239.911 26.4958 240.526 26.9189C241.118 27.3269 241.841 27.461 242.408 27.3618L242.408 27.3618L242.413 27.3608C242.847 27.2799 243.147 27.1315 243.424 26.8658C243.588 26.7098 243.755 26.497 243.941 26.2608C244.014 26.1675 244.091 26.0706 244.171 25.9721C244.308 25.8155 244.457 25.6355 244.62 25.4401C244.687 25.3586 244.757 25.2743 244.829 25.1881C247.522 22.039 253.98 15.4704 262.341 14.5138L262.342 14.5137C266.076 14.0814 268.763 14.378 270.331 15.1614L270.331 15.1614L270.338 15.1648C270.968 15.4675 271.288 15.7883 271.411 16.0833L271.411 16.0834L271.415 16.0915C271.534 16.3627 271.55 16.7615 271.32 17.3692L271.32 17.3692L271.317 17.3762C270.794 18.8258 269.234 20.6914 266.383 22.855L266.383 22.8554C262.757 25.6149 259.45 26.3805 256.324 26.8319L256.322 26.8322C255.497 26.9545 253.31 27.3768 251.222 27.8178C250.175 28.0388 249.147 28.2659 248.321 28.4641C247.586 28.6402 246.963 28.8041 246.644 28.9274C245.366 29.0727 244.78 30.2297 244.75 31.2688C244.72 32.3331 245.248 33.5732 246.485 33.9679L246.485 33.968L246.497 33.9713C247.191 34.1745 248.132 34.5909 249.199 35.1907L249.199 35.1912C251.5 36.4788 254.798 38.3289 257.458 40.2012C258.789 41.1388 259.938 42.0662 260.717 42.9164C261.106 43.3415 261.388 43.731 261.557 44.0775C261.726 44.4241 261.767 44.6939 261.729 44.9025C261.547 45.8782 261.251 46.5515 260.919 46.9651C260.496 47.4809 259.842 47.7144 259.004 47.6956C257.917 47.655 256.612 47.232 255.266 46.5319L255.264 46.5312C252.584 45.1472 249.991 42.8882 248.704 41.0668L248.703 41.0659C248.047 40.1419 247.407 38.9809 246.853 37.9774L246.842 37.9575C246.842 37.9571 246.842 37.9567 246.842 37.9564C246.392 37.1318 245.957 36.3391 245.464 35.7677C244.956 35.1805 244.325 34.7565 243.486 34.8002L243.485 34.8003C242.753 34.8404 242.098 35.1774 241.682 35.7235C241.271 36.2627 241.116 36.9772 241.315 37.7345C241.445 39.8263 241.76 41.3748 242.072 42.9075Z" fill="white" stroke="white"/>
<path fill-rule="evenodd" clip-rule="evenodd" d="M232.151 29.9905C228.197 28.461 219.244 27.603 215.402 30.8113C212.119 33.6092 206.971 42.2642 212.828 42.2642C218.722 42.2642 223.161 41.3688 228.458 38.4963C228.906 38.2351 233.196 36.4071 233.159 37.3025C232.972 43.0849 232.599 43.7937 231.592 48.942C230.771 53.1948 230.958 60.3203 236.777 60.3203C241.329 60.3203 241.179 58.9399 242.373 54.799C243.194 51.9637 241.59 38.8693 241.627 38.9066C244.164 41.2196 247.074 46.7782 252.184 48.0839C258.116 49.6135 261.995 52.9337 258.34 43.458C255.803 36.8921 245.917 31.5201 246.253 30.7367C251.401 29.3563 253.229 27.603 259.533 22.604C262.779 20.0672 270.874 17.3811 269.829 12.2702C268.598 6.26394 256.81 12.3075 253.527 14.1355C251.848 15.0681 246.999 15.292 244.462 18.9107C244.126 19.3956 239.874 24.4693 239.874 23.3874C239.874 18.6868 233.942 14.1728 231.704 10.0692C230.062 7.12198 221.967 -2.01797 221.967 11.4495C221.93 20.291 227.488 24.0962 232.151 29.9905Z" fill="#FDE88E"/>
<path fill-rule="evenodd" clip-rule="evenodd" d="M179.549 77.8522C186.003 81.6201 202.865 94.1176 211.072 87.9248C218.645 82.217 217.898 73.3009 217.451 63.9744C217.339 61.6241 215.809 51.4396 214.355 61.2884C214.093 63.1537 213.273 61.4749 209.766 60.2065C206.073 58.8635 203.163 57.7443 199.358 56.4386C197.605 55.8417 189.51 51.1412 188.39 53.7526C186.488 58.3785 178.542 74.3082 178.542 77.33C178.542 77.7776 178.355 77.1434 179.549 77.8522Z" fill="#FF1C1C"/>
<path fill-rule="evenodd" clip-rule="evenodd" d="M73.602 12.7541C86.5841 13.3137 100.685 21.9687 105.199 24.9531C110.012 18.2008 131.537 -8.6222 163.581 2.79342C172.758 6.07634 179.063 10.7396 183.241 17.0816C187.382 23.349 189.359 31.2205 189.956 40.9201C192.194 76.7338 159.888 98.4085 131.275 117.621C126.015 121.165 120.867 124.597 116.13 128.029C121.352 131.089 124.859 135.341 126.5 138.251C127.023 139.147 127.358 139.967 127.545 140.602C127.881 141.758 127.731 142.728 127.097 143.362C126.538 143.922 125.792 144.108 124.934 143.847L124.822 143.81L124.71 143.735C124.71 143.735 118.331 140.788 115.98 140.676C113.481 140.527 110.273 141.236 107.736 141.758C105.46 142.243 103.67 142.616 102.625 142.243C101.357 141.758 100.909 140.863 101.432 139.52C101.73 138.699 103.67 135.416 106.207 132.282C107.176 131.089 108.221 129.895 109.303 128.85C106.02 127.694 102.29 126.537 98.2606 125.343C74.1244 117.994 39.5054 107.474 27.456 70.3545C26.113 66.1762 25.5535 61.6995 25.74 57.1109C26.113 48.3813 29.2093 39.3905 34.6186 31.8174C40.0278 24.207 47.7499 18.0142 57.3745 14.9178C62.2988 13.2764 67.7452 12.493 73.602 12.7541Z" fill="white"/>
<path fill-rule="evenodd" clip-rule="evenodd" d="M105.275 27.1148C105.238 25.7718 88.6747 14.7292 70.7684 14.3188C59.3531 14.0577 46.4456 20.6982 39.9919 28.5697C29.5838 41.291 24.5476 57.1834 30.4791 72.8892C35.2541 85.4986 50.7729 104.599 63.5685 109.374C73.8273 113.217 85.8395 122.096 98.1501 123.103C99.3066 123.215 112.251 127.617 112.251 127.729C112.214 128.848 98.8963 139.182 105.052 139.182C117.661 139.182 111.916 137.578 119.563 137.876C124.375 138.063 112.55 129.109 113.669 127.58C115.049 125.677 138.178 110.867 144.483 106.129C153.399 99.451 158.435 89.8634 166.12 81.1711C183.504 61.5482 191.561 22.9365 169.365 7.67838C155.264 -2.02117 132.06 -1.46157 117.698 14.58C115.646 16.9303 105.275 27.264 105.275 27.1148Z" fill="#FF1C1C"/>
<path fill-rule="evenodd" clip-rule="evenodd" d="M153.252 452.482C155.043 453.004 162.989 454.198 172.65 457.704C184.737 462.107 198.391 470.09 193.205 471.209C190.93 471.694 163.735 460.876 173.508 465.949C180.522 469.605 183.543 475.313 182.126 474.604C168.995 467.889 153.364 462.666 138.964 458.973C98.7495 448.714 60.4374 459.271 30.0712 471.321C23.9532 473.746 29.3625 465.651 42.0834 460.689C50.8128 457.294 59.542 455.13 65.8093 453.377C83.9394 448.229 131.279 446.252 153.252 452.482Z" fill="#88D640"/>
<path fill-rule="evenodd" clip-rule="evenodd" d="M91.1347 293.965C89.6798 286.429 86.0985 281.878 81.4727 279.341C76.1754 276.394 69.4979 275.946 63.4172 276.468L62.8203 276.506C58.6795 276.916 54.3521 278.035 50.1367 279.714C42.1161 282.922 34.4313 288.182 29.0221 294.636C23.6875 300.978 20.4792 308.477 21.2626 316.236C21.4864 318.475 22.0087 320.713 22.904 322.952C23.9859 325.712 25.3661 328.025 26.9703 329.928C30.85 334.554 36.11 336.829 41.855 337.389C47.7864 337.948 54.2775 336.68 60.4701 334.218C66.0658 331.98 71.4004 328.771 75.8397 325.078C80.3162 321.347 83.8229 317.02 86.4342 312.394C88.486 308.738 89.9409 304.895 90.8735 301.016C91.2466 299.411 91.4331 295.644 91.1347 293.965ZM94.2309 302.097C93.2237 306.201 91.6569 310.267 89.4933 314.11C86.6954 319.109 82.8903 323.772 78.078 327.801C73.3776 331.756 67.7072 335.151 61.7384 337.538C55.0608 340.187 48.0103 341.567 41.5192 340.97C34.8417 340.336 28.7609 337.687 24.2097 332.278C22.3818 330.077 20.815 327.466 19.5466 324.295C18.5021 321.72 17.9052 319.146 17.644 316.572C16.786 307.768 20.2927 299.374 26.2242 292.323C32.0438 285.422 40.2135 279.788 48.7563 276.394C53.2702 274.603 57.9333 273.409 62.4099 272.962L63.0815 272.887C69.7217 272.327 77.108 272.85 83.1514 276.207C88.7844 279.304 93.3357 284.75 94.6787 293.927C94.9398 295.42 94.977 299.15 94.2309 302.097Z" fill="black"/>
<path fill-rule="evenodd" clip-rule="evenodd" d="M118.406 285.681C120.122 277.287 124.375 272.176 129.709 269.192C135.753 265.834 143.139 265.312 149.78 265.871C149.929 265.871 149.854 265.871 150.414 265.946C154.89 266.394 159.553 267.587 164.105 269.378C172.647 272.773 180.817 278.406 186.637 285.308C192.568 292.321 196.075 300.715 195.217 309.519C194.956 312.056 194.359 314.63 193.314 317.242C192.083 320.375 190.479 323.024 188.651 325.188C184.1 330.597 178.019 333.283 171.342 333.88C164.813 334.477 157.763 333.097 151.085 330.448C145.116 328.06 139.446 324.665 134.746 320.748C129.933 316.719 126.128 312.056 123.33 307.057C120.122 301.312 116.914 293.067 118.406 285.681ZM122.211 294.485C122.995 298.253 124.599 301.872 126.538 305.341C129.15 309.967 132.656 314.294 137.133 318.025C141.572 321.718 146.907 324.927 152.503 327.165C158.695 329.627 165.186 330.896 171.118 330.336C176.9 329.814 182.123 327.538 186.003 322.875C187.607 320.972 188.987 318.659 190.069 315.899C190.964 313.623 191.524 311.385 191.71 309.146C192.456 301.349 189.285 293.888 183.951 287.546C178.504 281.092 170.857 275.832 162.836 272.624C158.621 270.945 154.293 269.826 150.115 269.415C149.966 269.415 150.041 269.415 149.481 269.378C143.4 268.856 136.723 269.303 131.425 272.251C126.874 274.787 123.48 279.264 121.801 286.576C121.241 289.299 121.577 291.575 122.211 294.485Z" fill="black"/>
<path fill-rule="evenodd" clip-rule="evenodd" d="M84.8693 281.433C84.5708 280.463 84.3842 278.859 84.5708 277.217C84.72 275.837 85.1304 274.382 85.9138 273.151C86.7718 271.808 88.0028 270.689 89.8308 270.129C90.9126 269.793 92.2184 269.681 93.7106 269.83C94.7178 269.942 95.6877 270.315 96.583 270.912C98.1871 272.032 99.5301 273.86 100.425 276.061C101.246 278.187 101.657 280.649 101.395 283.037C101.172 284.902 100.575 286.767 99.4556 288.409C96.9188 292.139 94.2328 290.796 91.5468 289.453C91.1737 289.267 90.8008 289.08 90.465 288.931L91.8826 285.686C92.3303 285.872 92.7406 286.096 93.1137 286.282C94.4193 286.954 95.725 287.588 96.5084 286.432C97.2918 285.312 97.7021 284.007 97.8514 282.664C98.0379 280.836 97.7395 278.97 97.1053 277.366C96.5085 275.837 95.6131 274.568 94.6058 273.86C94.1955 273.598 93.7852 273.412 93.3748 273.375C92.3676 273.263 91.5842 273.337 90.95 273.524C90.0547 273.785 89.4577 274.344 89.0101 275.016C88.5251 275.762 88.3013 276.695 88.1894 277.59C88.0774 278.747 88.1521 279.791 88.3386 280.388L84.8693 281.433Z" fill="black"/>
<path fill-rule="evenodd" clip-rule="evenodd" d="M19.5858 323.549C18.6159 322.84 17.7578 322.355 17.0118 322.131C16.1164 321.833 15.3703 321.87 14.7734 322.094C14.1392 322.355 13.617 322.803 13.1693 323.399C12.6471 324.108 12.274 324.892 12.0129 325.675C11.0057 328.809 12.8708 331.569 15.5568 333.36C16.7506 334.181 18.1309 334.815 19.5485 335.225C20.9287 335.636 22.2717 335.822 23.4654 335.748C25.1815 335.636 26.4872 335.002 26.7856 333.621L30.2923 334.33C29.6581 337.576 27.0095 339.105 23.6894 339.292C22.0853 339.404 20.2946 339.143 18.5413 338.62C16.8252 338.098 15.1091 337.315 13.5796 336.27C9.69994 333.621 7.08856 329.48 8.65537 324.556C9.02842 323.399 9.58804 322.206 10.3341 321.198C11.1548 320.117 12.1621 319.221 13.5051 318.699C14.8108 318.177 16.3775 318.102 18.1309 318.662C19.25 319.035 20.4811 319.632 21.7494 320.601L19.5858 323.549Z" fill="black"/>
<path fill-rule="evenodd" clip-rule="evenodd" d="M48.8334 320.009C54.0187 321.016 60.3979 319.449 65.8444 316.316C71.2536 313.182 75.7301 308.519 77.1104 303.259C77.5207 301.766 81.0648 302.177 80.5425 304.154C78.8638 310.384 73.753 315.831 67.5977 319.375C61.4424 322.919 54.168 324.635 48.1619 323.478C46.1101 323.105 47.2293 319.71 48.8334 320.009Z" fill="black"/>
<path fill-rule="evenodd" clip-rule="evenodd" d="M165.484 314.335C160.336 314.671 154.367 312.433 149.443 308.74C144.556 305.084 140.788 300.01 140.042 294.75C139.818 293.258 136.311 293.22 136.61 295.235C137.468 301.465 141.795 307.359 147.354 311.538C152.912 315.678 159.739 318.215 165.708 317.805C167.759 317.656 167.051 314.224 165.484 314.335Z" fill="black"/>
<path fill-rule="evenodd" clip-rule="evenodd" d="M43.9458 305.455C44.58 306.239 45.6245 307.582 46.296 308.328C47.4898 309.671 44.6173 311.872 43.3862 310.38C42.752 309.596 41.7821 308.403 41.1479 307.656C40.2899 306.575 43.0878 304.374 43.9458 305.455Z" fill="black"/>
<path fill-rule="evenodd" clip-rule="evenodd" d="M169.625 297.697C168.991 298.48 167.909 299.786 167.237 300.532C166.043 301.838 168.841 304.114 170.11 302.621C170.781 301.838 171.751 300.681 172.385 299.935C173.243 298.891 170.52 296.652 169.625 297.697Z" fill="black"/>
<path fill-rule="evenodd" clip-rule="evenodd" d="M68.979 289.6C69.6132 290.383 70.6577 291.726 71.3292 292.473C72.523 293.816 69.6505 296.017 68.4194 294.524C67.7852 293.741 66.8153 292.547 66.1811 291.801C65.3231 290.719 68.121 288.518 68.979 289.6Z" fill="black"/>
<path fill-rule="evenodd" clip-rule="evenodd" d="M146.011 280.054C145.377 280.838 144.295 282.143 143.624 282.89C142.43 284.195 145.228 286.471 146.496 284.979C147.168 284.195 148.138 283.039 148.772 282.293C149.667 281.248 146.907 279.01 146.011 280.054Z" fill="black"/>
<path fill-rule="evenodd" clip-rule="evenodd" d="M39.9938 291.804C41.3368 289.155 42.4558 285.425 42.9408 281.396C43.3885 277.367 43.1274 273.151 42.344 269.607C42.0456 268.264 45.3657 267.07 45.8134 268.674C46.8579 272.666 47.0071 277.367 46.4848 281.806C45.9626 286.395 44.6942 290.722 42.9782 293.781C41.9709 295.535 38.9492 293.818 39.9938 291.804Z" fill="black"/>
<path fill-rule="evenodd" clip-rule="evenodd" d="M47.6026 285.31C49.3186 282.847 50.9601 279.341 51.9673 275.424C53.0118 271.506 53.3103 267.291 53.0491 263.672C52.9372 262.292 56.4065 261.62 56.593 263.224C57.078 267.328 56.5558 271.991 55.3994 276.319C54.2056 280.758 52.3777 284.899 50.2513 287.697C49.0575 289.339 46.3342 287.175 47.6026 285.31Z" fill="black"/>
<path fill-rule="evenodd" clip-rule="evenodd" d="M69.387 346.01C49.6527 353.21 33.2012 350.263 20.4429 348.024C14.7726 347.017 9.84835 346.159 5.89404 346.42C3.43192 346.569 2.83509 343.1 5.48374 342.876C9.92302 342.54 15.071 343.473 21.0398 344.517C33.3877 346.719 49.3169 349.554 68.1559 342.689L69.387 346.01Z" fill="black"/>
<path fill-rule="evenodd" clip-rule="evenodd" d="M12.7959 338.659C15.0342 340.375 19.3989 343.695 19.8092 345.337L20.0704 346.27L19.4362 346.978C18.4289 348.06 16.0041 349.441 12.9824 350.858C9.81151 352.313 5.89453 353.88 2.27596 355.186C0.186897 355.932 -1.00685 352.612 1.11952 351.828C4.62617 350.56 8.43125 349.03 11.4902 347.65C13.2063 346.866 14.6611 346.12 15.6684 345.486C14.4746 344.442 12.0871 342.614 10.6695 341.532C8.91621 340.151 11.1918 337.428 12.7959 338.659Z" fill="black"/>
<path fill-rule="evenodd" clip-rule="evenodd" d="M203.757 325.601C202.265 327.989 199.355 332.652 199.542 334.294L199.654 335.264L200.512 335.711C201.817 336.383 204.578 336.793 207.935 337.054C211.405 337.316 210.472 337.353 214.314 337.315C216.553 337.278 216.478 333.734 214.24 333.771C210.472 333.809 211.554 333.771 208.197 333.51C206.294 333.361 204.653 333.175 203.533 332.951C204.28 331.533 205.884 328.996 206.816 327.504C207.935 325.602 204.839 323.848 203.757 325.601Z" fill="black"/>
<path fill-rule="evenodd" clip-rule="evenodd" d="M91.6602 322.617C93.3389 319.632 96.286 316.014 99.4196 312.171C104.754 305.643 110.611 298.443 110.76 293.779L114.304 293.891C114.118 299.786 107.851 307.471 102.18 314.447C99.1585 318.14 96.286 321.647 94.7565 324.407L91.6602 322.617Z" fill="black"/>
<path fill-rule="evenodd" clip-rule="evenodd" d="M97.9596 377.421C97.6239 382.196 97.512 386.449 97.4001 390.553C97.1016 402.267 96.8032 412.489 92.1774 425.919C92.1028 426.143 91.9162 426.553 91.655 427.187L91.4686 427.635C91.5432 428.903 91.9163 430.843 92.3266 433.007C93.7069 440.095 95.4975 449.31 89.4914 450.839C85.5744 451.809 83.5972 450.317 82.8511 447.407C81.4335 441.811 86.6936 429.724 88.3723 425.807C88.6334 425.247 88.7826 424.874 88.8199 424.762C93.2965 411.854 93.5577 401.894 93.8561 390.478C93.9681 386.263 94.0799 381.898 94.4157 377.197L97.9596 377.421ZM88.8572 433.977C87.1784 438.491 85.6117 443.788 86.2832 446.549C86.4697 447.37 87.1785 447.743 88.5961 447.407C91.3194 446.698 89.9763 439.61 88.8572 433.977Z" fill="black"/>
<path d="M217.5 75L219.5 67L218 62.5L216.5 58.5L217.5 75Z" fill="white"/>
<path fill-rule="evenodd" clip-rule="evenodd" d="M107.215 369.885C108.185 371.265 108.931 375.331 109.453 380.032C110.274 387.045 110.722 395.775 110.722 398.61C110.722 399.991 110.796 401.744 110.871 403.87C111.319 416.928 112.214 443.004 103.298 445.093C102.216 445.355 101.284 445.28 100.463 444.982C99.6422 444.683 99.008 444.161 98.5231 443.527C98.1127 442.93 97.8142 442.258 97.665 441.512C97.18 439.423 97.5904 436.7 98.2619 434.797C100.426 428.754 101.88 427.037 103.932 424.613C104.939 423.419 106.133 422.038 107.625 419.8C107.7 414.055 107.514 408.273 107.364 404.02C107.29 401.669 107.215 399.729 107.215 398.648C107.215 395.85 106.767 387.344 105.984 380.48C105.499 376.264 104.939 372.795 104.343 371.974L107.215 369.885ZM102.515 441.624C105.648 440.915 106.954 434.088 107.402 425.993C107.14 426.291 106.879 426.59 106.656 426.888C104.828 429.015 103.559 430.544 101.619 435.954C101.134 437.334 100.836 439.274 101.172 440.654C101.246 440.953 101.358 441.214 101.47 441.4C101.545 441.512 101.619 441.587 101.694 441.587C101.843 441.699 102.104 441.699 102.515 441.624Z" fill="black"/>
<path fill-rule="evenodd" clip-rule="evenodd" d="M135.231 331.086C135.12 331.086 135.045 331.086 134.933 331.086C132.172 330.825 125.532 321.573 119.675 311.351C113.968 301.353 108.745 290.236 108.596 285.834C108.596 285.61 108.596 285.349 108.633 285.125L112.177 285.423C112.177 285.498 112.177 285.61 112.177 285.722C112.289 289.49 117.288 299.973 122.809 309.56C128.181 318.961 133.777 327.393 135.306 327.505L135.231 328.474V331.086ZM135.269 327.542L135.194 328.512V328.549L135.269 327.542ZM135.269 327.542H135.157L135.194 328.512L135.269 327.542Z" fill="black"/>
<path fill-rule="evenodd" clip-rule="evenodd" d="M145.75 335.118C162.798 337.096 174.587 337.17 184.435 335.902C193.65 334.708 201.185 332.283 209.728 329.038C212.302 328.068 213.459 331.425 211.146 332.283C202.304 335.641 194.508 338.177 184.883 339.409C174.773 340.714 162.687 340.64 145.34 338.625L145.75 335.118Z" fill="black"/>
<path fill-rule="evenodd" clip-rule="evenodd" d="M120.756 373.577C120.345 381.076 121.203 389.731 122.584 398.237C124.001 406.78 125.904 415.173 127.583 422.075C128.105 424.164 128.515 425.134 128.739 425.768C129 426.403 129.149 426.776 129.187 427.41C129.187 427.559 129.187 427.746 129.187 427.895C129.299 428.156 129.448 428.492 129.634 428.865C130.791 431.364 132.843 435.804 132.843 440.467C132.843 442.034 132.358 444.869 131.238 446.958C130.791 447.779 130.231 448.525 129.56 449.047C128.776 449.681 127.844 450.055 126.762 450.055C125.978 450.055 125.12 449.831 124.225 449.346C119.077 446.548 122.285 437.52 123.964 432.707C124.188 432.073 124.374 431.476 124.486 431.178C124.673 430.618 124.897 429.909 125.12 429.312C125.493 428.156 125.643 427.671 125.643 427.559L125.456 427.111C125.158 426.403 124.673 425.246 124.113 422.896C122.435 415.92 120.457 407.451 119.04 398.796C117.622 390.067 116.727 381.15 117.175 373.354L120.756 373.577ZM127.62 433.118L127.359 433.901C126.016 437.706 123.479 444.869 125.941 446.212C126.277 446.399 126.575 446.473 126.799 446.473C126.986 446.473 127.172 446.399 127.359 446.249C127.657 446.025 127.918 445.652 128.142 445.242C128.963 443.713 129.299 441.586 129.299 440.43C129.261 437.855 128.441 435.244 127.62 433.118Z" fill="black"/>
<path fill-rule="evenodd" clip-rule="evenodd" d="M133.704 379.881C133.779 381.224 135.42 393.199 138.069 401.22C138.778 403.384 139.561 405.212 140.382 406.368C140.792 406.965 141.128 407.338 141.24 407.263C141.426 407.189 141.65 407.002 141.911 406.667C142.247 406.219 148.514 401.294 152.357 398.646C153.215 398.049 153.961 397.564 154.483 397.265C155.901 396.445 157.057 396.445 157.766 397.489C157.803 397.564 157.878 397.638 157.915 397.713C158.475 398.497 159.072 399.317 159.631 400.101C162.615 404.167 165.675 408.308 165.675 414.277C165.675 416.665 165.19 418.231 164.443 419.127C163.66 420.097 162.653 420.432 161.571 420.321C160.75 420.209 159.892 419.836 159.072 419.201C157.169 417.746 155.192 414.837 154.297 412.076C153.289 409.017 153.7 404.913 154.11 401.705C150.454 404.242 144.933 408.495 144.672 408.83C143.963 409.726 143.217 410.285 142.471 410.584C140.494 411.33 138.852 410.397 137.435 408.383C136.39 406.928 135.458 404.764 134.637 402.302C131.876 393.982 130.16 381.41 130.123 379.993L133.704 379.881ZM157.579 403.309C157.281 405.958 157.094 408.98 157.766 411.031C158.437 413.12 159.93 415.359 161.31 416.403C161.534 416.553 161.72 416.702 161.869 416.776C162.056 416.366 162.168 415.583 162.168 414.314C162.131 409.987 159.93 406.592 157.579 403.309Z" fill="black"/>
<path fill-rule="evenodd" clip-rule="evenodd" d="M191.673 299.824C190.927 299.414 190.368 298.705 190.032 297.66C189.286 295.124 189.584 293.034 190.517 291.505C191.114 290.498 191.972 289.752 192.979 289.267C194.583 288.483 196.113 288.371 198.127 288.968C198.164 285.984 196.187 282.477 193.24 281.88C193.016 283.074 192.681 284.23 192.233 285.238C191.487 286.954 190.853 288.222 189.659 288.931C187.719 290.087 185.294 289.938 183.653 287.252C182.832 285.872 182.72 284.491 183.131 283.223C183.504 282.066 184.324 281.022 185.406 280.201C186.376 279.455 187.607 278.895 188.95 278.522C189.286 278.448 189.584 278.373 189.92 278.299C189.696 275.687 188.353 273.374 185.108 273.15C185.108 273.635 185.07 274.158 185.033 274.717C184.921 276.135 184.399 277.366 183.616 278.373C182.907 279.269 182.049 279.94 181.116 280.388C180.146 280.873 179.139 281.059 178.206 280.985C177.46 280.91 176.751 280.686 176.155 280.238C175.371 279.642 174.849 278.709 174.662 277.627C174.476 276.62 174.625 275.426 175.11 274.27C175.595 273.188 176.416 272.143 177.647 271.285C178.579 270.651 179.773 270.129 181.265 269.83C180.93 268.338 180.258 267.256 179.363 266.547C178.02 265.465 176.005 264.98 173.506 264.794C173.543 264.906 173.581 265.018 173.581 265.13C174.177 267.368 174.065 269.867 173.469 271.733C173.17 272.703 172.722 273.561 172.163 274.158C171.417 274.978 170.522 275.463 169.477 275.426C168.768 275.426 168.059 275.202 167.388 274.68C166.008 273.673 165 271.957 164.553 270.129C164.254 268.823 164.18 267.405 164.478 266.137C164.814 264.756 165.523 263.488 166.716 262.555C167.015 262.332 167.351 262.108 167.686 261.921C167.574 261.809 167.425 261.697 167.313 261.623C165.97 260.616 164.292 260.205 162.501 260.354C162.165 260.392 161.829 260.429 161.494 260.466C161.867 262.07 161.867 264.01 161.382 266.361C160.673 269.718 158.733 270.725 156.681 270.315C155.525 270.091 154.443 269.308 153.622 268.263C152.839 267.256 152.317 265.988 152.205 264.607C152.018 262.444 152.876 260.168 155.6 258.601C154.891 258.377 154.07 258.303 153.175 258.34C151.571 258.452 149.892 258.974 148.288 259.795C145.117 261.474 142.58 264.346 143.065 267.405L139.559 267.965C138.812 263.227 142.282 258.974 146.609 256.661C148.624 255.579 150.862 254.908 152.914 254.759C155.152 254.609 157.278 255.094 158.92 256.363C159.218 256.587 159.517 256.848 159.778 257.146C160.524 256.997 161.345 256.885 162.24 256.848C164.851 256.624 167.351 257.295 169.44 258.825C170.298 259.459 171.081 260.28 171.753 261.212C175.781 261.25 179.139 261.884 181.564 263.824C183.205 265.167 184.324 267.032 184.809 269.644H184.996C190.965 269.905 193.24 273.971 193.464 278.373C194.658 278.597 195.852 278.895 196.896 279.604C199.918 281.619 202.529 286.916 201.373 291.281C201.373 291.281 202.566 292.736 203.238 295.124C204.432 299.563 204.245 306.912 194.77 312.471L195.18 307.882C199.358 305.122 201.298 299.638 199.47 295.161C199.507 295.049 195.068 301.839 191.673 299.824ZM196.933 292.363C196.598 292.251 196.262 292.176 195.926 292.139C195.404 292.102 194.919 292.214 194.508 292.4C194.135 292.587 193.8 292.885 193.539 293.296C193.128 294.004 193.091 294.937 193.464 296.28C194.695 295.87 196.001 294.116 196.933 292.363ZM189.584 281.992C188.801 282.216 188.129 282.551 187.57 282.999C187.048 283.372 186.712 283.82 186.563 284.268C186.451 284.603 186.637 285.163 186.861 285.573C188.204 286.916 189.398 282.738 189.584 281.992ZM181.526 273.374C180.78 273.561 180.146 273.859 179.661 274.195C179.027 274.643 178.617 275.165 178.393 275.687C178.169 276.172 178.132 276.62 178.206 276.993C178.244 277.217 178.281 277.329 178.356 277.403C178.356 277.403 178.43 277.403 178.505 277.441C178.803 277.478 179.176 277.366 179.587 277.179C180.034 276.956 180.482 276.62 180.818 276.172C181.191 275.687 181.452 275.128 181.489 274.419C181.489 274.046 181.489 273.71 181.526 273.374ZM169.775 264.906C169.44 265.018 169.141 265.167 168.917 265.353C168.432 265.726 168.097 266.286 167.947 266.92C167.761 267.666 167.798 268.487 167.985 269.271C168.246 270.352 168.768 271.285 169.477 271.807V271.77C169.701 271.509 169.887 271.099 170.074 270.614C171.081 268.748 171.081 266.249 169.775 264.906ZM169.514 271.845C169.514 271.882 169.477 271.882 169.514 271.845C169.514 271.882 169.514 271.882 169.514 271.845ZM158.062 261.287C156.271 262.071 155.674 263.227 155.749 264.272C155.786 264.906 156.085 265.54 156.42 265.988C156.756 266.398 157.092 266.696 157.39 266.734C158.36 266.361 158.882 262.257 158.062 261.287Z" fill="black"/>
<path fill-rule="evenodd" clip-rule="evenodd" d="M193.276 317.47C191.336 320.865 188.575 331.908 186.412 343.547C184.509 353.694 183.017 364.215 182.868 370.557C182.793 374.399 179.212 374.362 179.174 370.631C179.137 364.14 180.89 353.247 182.905 342.913C185.181 330.938 188.053 319.447 190.179 315.717L193.276 317.47Z" fill="black"/>
<path fill-rule="evenodd" clip-rule="evenodd" d="M166.979 354.959C167.613 351.825 168.285 348.393 168.247 346.08C168.247 345.371 168.359 344.774 168.583 344.252C169.105 343.133 170.038 342.536 171.381 342.461C172.276 342.424 173.321 342.648 174.515 343.133C176.902 344.102 180.148 346.192 184.027 349.325C189.362 346.602 195.368 344.401 199.583 343.618C201.076 343.356 202.381 343.244 203.389 343.319C204.881 343.468 205.963 344.028 206.522 345.035C206.671 345.296 206.783 345.595 206.821 345.893C206.895 346.341 206.746 349.698 206.522 353.653C206.186 359.323 205.739 366.337 205.664 367.381L205.552 368.389L204.62 368.799C203.874 369.135 200.367 366.859 195.89 363.352C192.421 360.629 187.944 357.048 183.58 353.504C176.268 357.57 171.269 362.42 169.74 363.912C169.18 364.434 168.882 364.733 168.322 364.845L167.427 364.994L166.792 364.397C165.338 363.054 166.121 359.249 166.979 354.959Z" fill="white"/>
<path fill-rule="evenodd" clip-rule="evenodd" d="M170.034 346.047C170.146 351.531 166.639 361.827 168.057 363.133C168.206 363.096 170.258 357.574 176.04 353.545C176.898 352.949 179.509 350.859 181.076 350.561C182.494 350.337 182.904 351.867 182.904 351.867C192.119 346.793 203.497 342.018 204.093 345.226C204.243 345.935 200.4 362.835 200.251 364.476C200.064 364.588 192.79 358.694 183.464 351.083C175.331 344.48 169.959 342.279 170.034 346.047Z" fill="#00B7E0"/>
<path fill-rule="evenodd" clip-rule="evenodd" d="M171.791 346.005C171.829 348.728 171.12 352.347 170.448 355.667C170.187 356.898 169.963 358.092 169.777 359.1C172.164 356.973 175.895 353.951 180.633 351.153C177.574 348.803 175.037 347.162 173.172 346.415C172.612 346.192 172.127 346.042 171.791 346.005ZM166.979 354.959C167.613 351.825 168.285 348.393 168.247 346.08C168.247 345.371 168.359 344.774 168.583 344.252C169.105 343.133 170.038 342.536 171.381 342.461C172.276 342.424 173.321 342.648 174.515 343.133C176.902 344.102 180.148 346.192 184.027 349.325C189.362 346.602 195.368 344.401 199.583 343.618C201.076 343.356 202.381 343.244 203.389 343.319C204.881 343.468 205.963 344.028 206.522 345.035C206.671 345.296 206.783 345.595 206.821 345.893C206.895 346.341 206.746 349.698 206.522 353.653C206.186 359.323 205.739 366.337 205.664 367.381L205.552 368.389L204.62 368.799C203.874 369.135 200.367 366.859 195.89 363.352C192.421 360.629 187.944 357.048 183.58 353.504C176.268 357.57 171.269 362.42 169.74 363.912C169.18 364.434 168.882 364.733 168.322 364.845L167.427 364.994L166.792 364.397C165.338 363.054 166.121 359.249 166.979 354.959ZM200.218 347.087C196.674 347.759 191.712 349.512 187.049 351.75C190.854 354.847 194.846 357.98 198.091 360.554C200.33 362.308 201.523 363.987 202.269 364.882C202.456 362.159 202.754 357.495 202.978 353.466C203.165 350.221 203.314 347.497 203.314 346.751C203.277 346.789 203.202 346.863 203.053 346.863C202.381 346.751 201.374 346.863 200.218 347.087Z" fill="black"/>
<path fill-rule="evenodd" clip-rule="evenodd" d="M118.368 140.679C118.294 141.872 118.592 143.551 118.965 145.566C120.196 152.617 122.061 163.212 112.959 175.299C110.236 178.917 112.25 183.245 114.936 188.953C120.047 199.883 127.247 215.253 112.138 241.144C111.28 242.599 110.907 253.641 110.982 264.609C111.056 274.831 111.579 284.754 112.511 286.433C115.459 291.581 115.123 312.92 114.936 324.56C114.899 325.865 114.899 327.059 114.899 328.178C114.862 330.939 111.28 330.491 111.355 328.253C111.392 327.246 111.392 325.94 111.43 324.485C111.616 313.181 111.952 292.477 109.452 288.186C108.184 285.985 107.512 275.353 107.438 264.646C107.326 253.193 107.885 241.367 109.042 239.39C123.218 215.104 116.466 200.741 111.691 190.519C108.52 183.73 106.095 178.544 110.086 173.209C118.256 162.353 116.578 152.691 115.421 146.237C115.011 143.999 114.712 142.096 114.787 140.492L118.368 140.679Z" fill="black"/>
<path fill-rule="evenodd" clip-rule="evenodd" d="M188.429 40.5814C188.429 40.5814 184.81 25.8829 185.556 25.9948C188.727 26.5917 198.538 28.6435 198.613 28.7181C199.583 30.77 188.392 40.1337 188.429 40.5814Z" fill="black"/>
<path fill-rule="evenodd" clip-rule="evenodd" d="M241.099 31.7793C240.614 30.9213 239.756 29.4291 239.271 28.5337C238.45 26.9296 235.354 28.7948 236.287 30.5109C236.772 31.4063 237.518 32.7493 238.003 33.57C238.711 34.7265 241.77 32.9358 241.099 31.7793Z" fill="black"/>
<path fill-rule="evenodd" clip-rule="evenodd" d="M189.248 50.1367C190.367 51.5543 193.351 53.0466 196.821 54.4269C203.088 56.8891 210.624 58.7544 212.228 59.0155C212.414 59.0528 212.601 59.0902 212.75 59.1275C213.011 58.6798 213.347 58.1202 213.795 57.486C214.727 56.1057 216.667 56.1803 217.898 56.1803C217.935 56.1803 217.861 56.1803 218.234 56.1803H219.39L219.838 57.2622C220.435 58.6798 220.92 60.0974 221.256 61.515C222.972 68.4166 221.703 75.0571 219.055 80.3172C216.406 85.652 212.302 89.6437 208.46 91.3225C207.863 91.5836 207.266 91.7701 206.669 91.9193C203.125 92.8147 197.082 90.8002 191.262 87.9276C183.839 84.2343 176.564 78.9369 175.482 76.4747L178.765 75.0944C179.549 76.9224 186.04 81.3991 192.829 84.7566C197.977 87.3307 203.163 89.1214 205.811 88.4872C206.222 88.3753 206.632 88.2634 207.042 88.0768C210.176 86.7338 213.571 83.339 215.846 78.7877C218.159 74.1617 219.241 68.4166 217.786 62.4104C217.562 61.4404 217.227 60.4705 216.854 59.5005C216.779 59.4632 216.704 59.5005 216.667 59.5378C215.548 61.1793 215.324 61.7762 215.287 62C215.138 62.4477 215.063 62.6715 214.578 63.0073C213.198 63.9399 212.862 63.5295 212.153 62.6342C212.153 62.6342 212.153 62.6342 211.631 62.5596C209.915 62.2985 201.969 60.3212 195.478 57.7471C191.524 56.1803 187.98 54.315 186.413 52.3378L189.248 50.1367Z" fill="black"/>
<path fill-rule="evenodd" clip-rule="evenodd" d="M202.789 90.5739C202.752 90.4246 202.752 90.5365 202.789 90.5739V90.5739ZM202.752 90.6112C202.752 90.6485 202.752 90.6485 202.752 90.6112C202.043 89.0816 199.88 84.1946 199.395 80.1655C198.984 76.5842 199.842 73.637 203.535 73.2266C204.878 73.0774 205.998 73.7489 206.893 74.6816C206.445 71.6598 205.848 66.5489 207.49 65.2058C208.683 64.2359 210.064 64.4224 211.705 66.4742C212.004 66.8473 212.302 67.295 212.563 67.8173C212.526 67.5934 212.526 67.4069 212.526 67.1457C212.526 66.7354 212.489 66.1012 212.451 65.3178C212.339 63.2659 212.153 60.5426 212.526 59.498L215.883 60.6545C215.734 61.0276 215.883 63.3778 215.995 65.1312C216.033 66.0266 216.107 66.7727 216.107 67.1457C216.107 72.667 215.1 74.5323 213.496 74.5323C211.929 74.5323 211.034 72.7789 210.138 70.9136L209.84 70.3168C210.026 71.809 210.288 73.6743 210.474 74.8681C210.586 75.5396 210.623 76.0245 210.661 76.323C210.959 80.4266 210.288 81.9189 208.795 81.9935C207.452 82.1054 206.781 80.9862 205.96 79.5686C205.251 78.3748 204.244 76.6961 203.871 76.7334C202.864 76.8453 202.715 78.151 202.864 79.7552C203.237 83.2246 205.251 87.7386 205.886 89.1562C206.072 89.6039 206.184 89.8651 206.221 90.1262L202.715 90.5366L202.752 90.6112ZM208.646 78.2256C208.385 78.3748 208.199 78.4495 208.646 78.4121C208.945 78.4121 208.87 78.3748 208.646 78.2256ZM209.765 67.9665C209.914 67.8546 209.952 67.8173 209.765 67.9665V67.9665ZM213.421 70.3541C213.309 70.7271 213.197 70.951 213.57 70.951C213.832 70.951 213.682 70.8017 213.421 70.3541Z" fill="black"/>
<path fill-rule="evenodd" clip-rule="evenodd" d="M234.684 39.9118C231.177 42.3367 226.626 49.5741 223.492 54.5358C221.702 57.371 220.359 59.4974 219.501 60.0943L217.486 57.1472C217.71 56.9979 218.904 55.1326 220.471 52.6331C223.754 47.4103 228.566 39.8372 232.669 37.002L234.684 39.9118Z" fill="black"/>
<path fill-rule="evenodd" clip-rule="evenodd" d="M236.925 37.9725C236.552 40.2108 236.03 42.0015 235.396 44.016C234.761 45.9559 234.127 47.9705 234.164 50.358C234.164 51.1415 234.127 51.8876 234.09 52.6337C234.053 53.156 234.015 53.7156 234.015 54.1259C233.941 56.5881 234.388 59.0503 238.902 59.1996C239.014 59.1996 239.424 57.6327 239.835 55.842C240.432 53.4171 240.73 50.7311 240.767 49.4254C240.767 49.3508 240.767 49.4254 240.767 49.2389C240.767 46.4409 240.357 44.5756 239.984 42.7476C239.648 41.1435 239.313 39.5766 239.201 37.4129C238.828 36.1072 239.76 35.0999 240.991 35.0253C242.297 34.9507 243.043 36.2564 244.013 37.9725C244.573 38.9797 245.281 40.2108 245.99 41.1808C247.408 43.1207 250.168 45.471 253.041 46.8886C254.496 47.5974 255.913 48.0824 257.182 48.1197C258.152 48.157 259.01 47.8959 259.606 47.187C260.017 46.6648 260.353 45.9186 260.576 44.8368C261.099 42.0015 252.034 37.0025 247.221 34.3911C246.065 33.7569 245.058 33.3465 244.311 33.0854C242.297 32.4885 242.409 29.0937 244.423 28.9444C245.393 28.5341 252.817 27.0791 254.496 26.818C257.816 26.333 261.36 25.5496 265.24 22.677C268.261 20.4387 269.977 18.4615 270.574 16.8573C270.835 16.1858 270.873 15.6262 270.686 15.1786C270.499 14.7309 270.015 14.3205 269.306 13.9848C267.515 13.1267 264.568 12.8283 260.651 13.2759C251.698 14.2832 244.834 21.1102 242.036 24.3558C241.775 24.6542 241.551 24.9154 241.364 25.1392C240.693 25.96 240.581 26.2584 239.835 26.4076C238.939 26.5569 237.373 25.96 237.335 24.2439C237.559 14.992 234.165 9.39613 230.322 6.63549C228.905 5.62823 227.524 5.10595 226.368 5.10595C225.435 5.10595 224.689 5.51631 224.204 6.29974C223.122 8.09042 223.16 11.5226 225.286 16.8946C225.696 17.9019 227.897 21.1102 230.098 23.9827C231.367 25.6242 232.486 27.2657 233.344 27.8999C235.172 29.2802 233.754 32.2274 231.889 31.4066C228.569 29.989 225.323 29.7279 222.302 30.4367C218.683 31.2574 215.326 33.4212 212.453 36.4429C211.893 37.0398 211.52 37.674 211.371 38.3082C211.259 38.7559 211.259 39.2036 211.409 39.5393C211.558 39.8751 211.856 40.2108 212.304 40.4347C212.975 40.7704 213.908 40.9943 215.176 40.957C218.571 40.8823 223.645 38.7186 227.636 37.0025C230.359 35.8461 232.672 34.8388 234.015 34.7642C236.291 34.6522 237.223 36.1072 236.925 37.9725ZM232.038 42.9342C232.486 41.5165 232.933 40.1362 233.083 38.7186C232.075 39.0544 230.621 39.6885 229.016 40.36C224.764 42.188 219.354 44.501 215.251 44.5756C213.311 44.6129 211.819 44.2772 210.625 43.643C209.394 43.0088 208.573 42.0761 208.088 40.9943C207.641 39.9124 207.566 38.7186 207.865 37.5621C208.163 36.331 208.834 35.1372 209.804 34.0554C213.125 30.5113 217.116 28.0118 221.444 27.0045C223.458 26.5569 225.51 26.4076 227.636 26.6315L227.263 26.1465C224.876 23.0501 222.451 19.506 221.929 18.2003C219.392 11.6718 219.541 7.12047 221.145 4.50905C222.302 2.56914 224.167 1.59919 226.33 1.56188C228.233 1.52457 230.397 2.27069 232.411 3.76293C236.291 6.59818 239.984 12.2687 240.879 20.4014C244.573 16.5589 251.474 10.7391 260.315 9.73188C264.904 9.20959 268.522 9.65727 270.872 10.7765C272.365 11.4853 273.409 12.5298 273.969 13.7982C274.528 15.1039 274.528 16.5589 273.931 18.1257C273.111 20.3641 270.984 22.9009 267.366 25.5496C262.106 29.4294 257.629 30.0263 253.414 30.5859C251.884 30.7724 250.429 30.959 248.975 31.332C254.57 34.3911 265.09 40.1362 264.046 45.5083C263.747 47.187 263.15 48.4927 262.33 49.4627C260.987 51.1042 259.122 51.7384 257.07 51.7011C255.279 51.6637 253.339 51.0295 251.437 50.0969C248.564 48.642 245.729 46.4036 243.938 44.3145C244.162 45.6948 244.349 47.2617 244.349 49.2389C244.349 49.2762 244.349 49.2762 244.349 49.5373C244.311 50.9922 243.938 54.0513 243.304 56.6628C242.521 59.9084 241.14 62.7436 238.902 62.7436H238.865H238.828C231.143 62.5198 230.359 58.3042 230.471 54.014C230.471 53.3798 230.509 52.8949 230.546 52.4099C230.583 51.6638 230.62 50.9549 230.62 50.3954C230.583 47.4482 231.329 45.1352 232.038 42.9342Z" fill="black"/>
<path fill-rule="evenodd" clip-rule="evenodd" d="M205.402 88.5231C203.5 92.9252 202.231 96.9915 201.672 101.095C201.224 104.378 201.224 107.624 201.56 111.093C201.858 114.451 198.277 114.301 198.053 111.69C197.717 107.848 197.68 104.229 198.165 100.61C198.799 96.1708 200.105 91.7687 202.157 87.1055L205.402 88.5231Z" fill="black"/>
<path fill-rule="evenodd" clip-rule="evenodd" d="M23.3908 463.185C42.1552 456.246 56.6667 451.881 76.6248 448.897C115.198 443.115 159.889 447.181 196.373 461.283C200.141 462.738 198.313 465.535 195.963 464.864C192.046 463.707 187.196 461.618 182.981 460.313C137.32 446.099 84.1231 446.472 38.6858 461.469C36.6714 462.141 24.1742 466.878 23.3162 466.655C21.6002 466.244 21.451 464.118 23.3908 463.185Z" fill="black"/>
<path fill-rule="evenodd" clip-rule="evenodd" d="M72.5584 64.2735C67.0746 65.3554 61.5162 65.1688 57.45 65.0569C56.2189 65.0196 55.137 64.9823 54.3536 64.9823C55.1743 66.0269 56.2935 67.146 57.823 68.1906C60.1732 69.8321 63.4561 71.3243 68.0819 72.3316L67.3358 75.801C62.1877 74.6818 58.4945 72.9658 55.8085 71.1005C53.048 69.1606 51.332 67.0714 50.2501 65.1688C49.4294 63.7512 49.7651 62.7066 51.0335 61.9605C52.19 61.289 54.4656 61.3636 57.5992 61.4755C61.4416 61.5875 66.7389 61.7367 71.7751 60.7667C74.2745 60.319 75.0952 63.7512 72.5584 64.2735Z" fill="black"/>
<path fill-rule="evenodd" clip-rule="evenodd" d="M89.4556 50.2485C81.6962 54.3149 72.6312 54.1284 65.5806 54.0164C62.5962 53.9418 59.9849 53.9045 58.2689 54.2029C58.53 54.576 58.8658 55.0237 59.2389 55.5087C61.1787 57.747 64.6107 60.3584 68.3785 61.3657L67.4832 64.7978C62.9693 63.6041 58.903 60.4703 56.5901 57.8216C55.8067 56.9263 55.1726 56.0309 54.7996 55.2848C54.24 54.1283 54.128 53.0838 54.613 52.2257C54.8741 51.7408 55.2472 51.405 55.7694 51.2185C58.0077 50.3232 61.4772 50.3977 65.6553 50.4724C72.2582 50.5843 80.8383 50.7708 87.777 47.1521C90.7614 45.548 92.2162 48.8309 89.4556 50.2485Z" fill="black"/>
<path fill-rule="evenodd" clip-rule="evenodd" d="M152.988 25.9957C152.354 26.7791 151.272 28.0848 150.6 28.831C149.407 30.1367 152.204 32.4123 153.473 30.9201C154.144 30.1367 155.114 28.9802 155.749 28.2341C156.644 27.1895 153.883 24.9138 152.988 25.9957Z" fill="black"/>
<path fill-rule="evenodd" clip-rule="evenodd" d="M104.602 28.8703C104.565 28.833 88.0391 16.9324 73.4529 16.2982C68.0437 16.0743 63.0448 16.7831 58.4936 18.2754C49.6524 21.1479 42.5271 26.8557 37.5656 33.8693C32.5667 40.8828 29.6943 49.202 29.3586 57.2228C29.172 61.3638 29.6942 65.4301 30.9253 69.198C42.4152 104.564 75.9896 114.786 99.3797 121.874C103.894 123.254 107.997 124.485 111.541 125.791C111.877 125.903 112.25 126.052 112.586 126.201C117.808 122.359 123.479 118.554 129.335 114.637C157.128 95.9464 188.538 74.8685 186.412 41.1066C185.852 32.0413 184.024 24.7293 180.257 19.0215C176.526 13.351 170.819 9.13542 162.388 6.15094C129.671 -5.48851 108.594 26.2589 107.214 28.3107C106.468 29.3926 106.095 29.9522 104.602 28.8703ZM73.602 12.7541C86.5841 13.3137 100.685 21.9687 105.199 24.9531C110.012 18.2008 131.537 -8.6222 163.581 2.79342C172.758 6.07634 179.063 10.7396 183.241 17.0816C187.382 23.349 189.359 31.2205 189.956 40.9201C192.194 76.7338 159.888 98.4085 131.275 117.621C126.015 121.165 120.867 124.597 116.13 128.029C121.352 131.089 124.859 135.341 126.5 138.251C127.023 139.147 127.358 139.967 127.545 140.602C127.881 141.758 127.731 142.728 127.097 143.362C126.538 143.922 125.792 144.108 124.934 143.847L124.822 143.81L124.71 143.735C124.71 143.735 118.331 140.788 115.98 140.676C113.481 140.527 110.273 141.236 107.736 141.758C105.46 142.243 103.67 142.616 102.625 142.243C101.357 141.758 100.909 140.863 101.432 139.52C101.73 138.699 103.67 135.416 106.207 132.282C107.176 131.089 108.221 129.895 109.303 128.85C106.02 127.694 102.29 126.537 98.2606 125.343C74.1244 117.994 39.5054 107.474 27.456 70.3545C26.113 66.1762 25.5535 61.6995 25.74 57.1109C26.113 48.3813 29.2093 39.3905 34.6186 31.8174C40.0278 24.207 47.7499 18.0142 57.3745 14.9178C62.2988 13.2764 67.7452 12.493 73.602 12.7541ZM122.882 139.109C121.129 136.386 117.771 132.767 112.959 130.305C111.578 131.462 110.198 132.954 108.967 134.446C107.811 135.901 106.803 137.319 106.057 138.438L106.953 138.251C109.676 137.654 113.145 136.908 116.092 137.095C117.808 137.244 120.644 138.251 122.882 139.109Z" fill="black"/>
<path fill-rule="evenodd" clip-rule="evenodd" d="M87.8151 431.775C87.7405 432.522 80.6154 445.616 86.8452 448.488C91.1352 450.466 92.7392 443.191 91.6574 440.43C90.5756 437.67 91.1725 437.446 89.2327 434.126C88.9342 433.603 87.7778 432.148 87.8151 431.775Z" fill="black"/>
<path fill-rule="evenodd" clip-rule="evenodd" d="M126.725 430.73C126.651 431.477 119.525 444.571 125.755 447.444C130.045 449.421 131.65 442.146 130.568 439.385C129.486 436.625 130.083 436.401 128.143 433.081C127.845 432.558 126.725 431.066 126.725 430.73Z" fill="black"/>
<path fill-rule="evenodd" clip-rule="evenodd" d="M108.331 422.598C107.958 423.344 94.5656 436.215 100.087 441.885C103.892 445.802 108.63 438.64 108.63 435.208C108.63 431.775 109.338 431.813 108.63 427.448C108.518 426.702 108.518 422.225 108.331 422.598Z" fill="black"/>
<path fill-rule="evenodd" clip-rule="evenodd" d="M157.203 400.217C157.352 400.963 154.256 416.109 161.269 417.079C166.119 417.751 165.522 410.066 163.619 407.641C161.717 405.216 162.239 404.843 159.329 402.119C158.882 401.672 157.277 400.553 157.203 400.217Z" fill="black"/>
<path fill-rule="evenodd" clip-rule="evenodd" d="M66.998 342.687C67.8561 342.127 68.9753 341.419 70.3182 340.561C77.2196 336.196 90.3136 327.914 91.3955 323.139L94.8648 323.922C93.4472 330.152 79.5325 338.956 72.2207 343.582C70.8404 344.478 69.684 345.187 69.0125 345.634L66.998 342.687Z" fill="white"/>
<path fill-rule="evenodd" clip-rule="evenodd" d="M70.8418 349.587C71.7744 348.99 72.8936 348.356 74.2366 347.572C81.2872 343.469 94.6424 335.634 95.9107 330.896L99.3428 331.792C97.7014 337.985 83.4882 346.267 76.0272 350.631C74.5723 351.489 73.3413 352.198 72.7444 352.571L70.8418 349.587Z" fill="white"/>
<path fill-rule="evenodd" clip-rule="evenodd" d="M82.8184 373.878C83.6391 373.43 84.8702 372.833 86.3624 372.087C90.839 369.886 97.703 366.454 102.777 362.984L104.754 365.932C99.4191 369.55 92.4431 373.02 87.8919 375.258C86.4743 375.967 85.2805 376.564 84.4598 376.974L82.8184 373.878Z" fill="white"/>
<path fill-rule="evenodd" clip-rule="evenodd" d="M74.8359 358.508C75.9551 357.799 77.0369 357.165 78.3798 356.382C85.6916 352.092 99.6063 343.996 100.875 339.146L105.165 340.266C103.412 346.869 88.4523 355.598 80.5809 360.224C78.9768 361.157 77.6338 361.94 77.1488 362.276L74.8359 358.508Z" fill="white"/>
<path fill-rule="evenodd" clip-rule="evenodd" d="M79.3125 366.713C80.4316 366.005 81.5135 365.37 82.8565 364.587C90.1683 360.297 104.083 352.201 105.389 347.352L109.679 348.471C107.925 355.074 92.9662 363.803 85.0948 368.429C83.4907 369.362 82.1477 370.145 81.6627 370.481L79.3125 366.713Z" fill="white"/>
<path fill-rule="evenodd" clip-rule="evenodd" d="M88.3391 314.598C88.8241 315.642 93.0022 321.574 97.9638 328.438C105.201 338.436 114.005 350.299 115.423 351.978L112.699 354.254C111.244 352.538 102.366 340.563 95.0913 330.527C90.0179 323.551 85.7277 317.396 85.1309 316.09L88.3391 314.598Z" fill="black"/>
<path fill-rule="evenodd" clip-rule="evenodd" d="M65.0974 334.441C71.0289 343.768 75.9905 355.183 80.5043 365.666C81.7727 368.614 83.0038 371.449 83.8245 373.277C84.3095 374.321 84.8317 376.112 85.3913 377.94C86.4358 381.932 86.3986 382.454 87.8908 381.372C93.4492 377.492 105.872 368.875 109.229 367.009L110.945 370.143C107.774 371.897 95.4636 380.44 89.9425 384.282C89.0472 384.916 86.697 386.782 85.5779 386.371C84.123 385.812 83.0411 382.268 81.9965 378.947C81.4743 377.194 80.9521 375.515 80.579 374.694C79.1987 371.598 78.2288 369.36 77.2588 367.084C72.7822 356.713 67.8953 345.372 62.1504 336.344L65.0974 334.441Z" fill="black"/>
<path fill-rule="evenodd" clip-rule="evenodd" d="M141.649 323.587C139.784 326.347 135.158 332.354 130.607 337.987C126.578 342.986 122.586 347.724 120.535 349.813C119.229 351.119 114.23 355.931 110.052 359.811C108.373 361.378 106.806 362.758 105.65 363.728C108.485 365.892 116.729 370.406 125.272 374.733C134.002 379.135 142.88 383.202 146.461 384.172C146.387 374.547 145.827 364.922 145.268 355.222C144.708 345.56 144.111 334.965 144.037 325.116L147.618 326.012C147.692 335.637 148.252 345.373 148.812 355.036C149.409 365.407 150.005 375.703 150.005 385.85C150.005 387.268 149.185 387.94 147.655 387.94C144.895 387.94 134.002 383.127 123.594 377.867C113.148 372.607 103.001 366.787 101.696 364.773C100.912 363.579 101.024 362.609 102.181 361.863C102.964 361.34 105.09 359.438 107.59 357.162C111.656 353.394 116.618 348.619 117.961 347.276C119.938 345.299 123.817 340.673 127.772 335.749C132.323 330.115 136.874 324.221 138.665 321.572L141.649 323.587Z" fill="black"/>
<path fill-rule="evenodd" clip-rule="evenodd" d="M77.1856 84.683C80.5804 84.4591 100.688 77.1845 102.665 75.3565C105.239 73.0062 123.444 57.3004 120.123 54.4279C117.064 51.7791 110.2 61.1056 102.889 68.0445C92.1821 78.2664 70.5454 85.168 77.1856 84.683Z" fill="white"/>
<path fill-rule="evenodd" clip-rule="evenodd" d="M77.67 74.4988C74.6483 74.9464 68.4931 75.7299 62.972 76.6252C60.1368 77.1102 57.4882 77.5952 55.6229 78.0429C51.6313 78.6024 60.1367 81.3631 60.659 81.5123C64.6133 82.7061 69.6123 83.303 74.6111 82.7807C84.6461 81.7361 94.4946 77.5952 102.552 71.7754C110.312 66.2169 116.393 59.1287 119.377 51.8167C120.384 49.3172 123.742 50.4737 122.697 53.0478C119.452 61.0313 112.923 68.679 104.604 74.648C96.0614 80.8035 85.6161 85.2056 74.9469 86.2875C69.463 86.8471 63.9419 86.2128 59.5773 84.8698C54.6157 83.3403 50.9971 80.8035 50.3256 77.9682C50.2883 77.8563 50.2883 77.7444 50.2883 77.6698C50.1763 76.2148 51.9298 75.2076 54.8022 74.5361C56.8167 74.0511 59.5399 73.5661 62.4124 73.0812C68.12 72.1485 74.6484 71.2158 77.7447 70.8801C80.1322 70.6936 80.8036 74.0511 77.67 74.4988Z" fill="black"/>
</svg>
