<svg width="218" height="125" viewBox="0 0 218 125" fill="none" xmlns="http://www.w3.org/2000/svg">
<path d="M158 78L156 75.5L155 77L154 82.5V89L156.5 88L158 83V78Z" fill="white"/>
<path d="M168.602 74.4083L168.602 74.4069C168.929 73.0971 169.099 71.6135 169.124 70.9188V70.9187V70.9185V70.9184V70.9183V70.9181V70.918V70.9178V70.9177V70.9176V70.9174V70.9173V70.9171V70.917V70.9169V70.9167V70.9166V70.9165V70.9164V70.9162V70.9161V70.916V70.9158V70.9157V70.9156V70.9155V70.9154V70.9152V70.9151V70.915V70.9149V70.9148V70.9147V70.9145V70.9144V70.9143V70.9142V70.9141V70.914V70.9139V70.9138V70.9137V70.9136V70.9134V70.9133V70.9132V70.9131V70.913V70.9129V70.9128V70.9127V70.9126V70.9125V70.9124V70.9123V70.9122V70.9121V70.912V70.912V70.9119V70.9118V70.9117V70.9116V70.9115V70.9114V70.9113V70.9112V70.9111V70.911V70.911V70.9109V70.9108V70.9107V70.9106V70.9105V70.9104V70.9104V70.9103V70.9102V70.9101V70.91V70.9099V70.9099V70.9098V70.9097V70.9096V70.9095V70.9095V70.9094V70.9093V70.9092V70.9091V70.9091V70.909V70.9089V70.9088V70.9087V70.9087V70.9086V70.9085V70.9084V70.9084V70.9083V70.9082V70.9081V70.9081V70.908V70.9079V70.9078V70.9078V70.9077V70.9076V70.9075V70.9075V70.9074V70.9073V70.9073V70.9072V70.9071V70.907V70.907V70.9069V70.9068V70.9067V70.9067V70.9066V70.9065V70.9064V70.9064V70.9063V70.9062V70.9062V70.9061V70.906V70.9059V70.9059V70.9058V70.9057V70.9056V70.9056V70.9055V70.9054V70.9053V70.9053V70.9052V70.9051V70.905V70.905V70.9049V70.9048V70.9047V70.9047V70.9046V70.9045V70.9044V70.9043V70.9043V70.9042V70.9041V70.904V70.9039V70.9039V70.9038V70.9037V70.9036V70.9035V70.9035V70.9034V70.9033V70.9032V70.9031V70.903V70.903V70.9029V70.9028V70.9027V70.9026V70.9025V70.9024V70.9023V70.9023V70.9022V70.9021V70.902V70.9019V70.9018V70.9017V70.9016V70.9015V70.9014V70.9013V70.9012V70.9011V70.901V70.9009V70.9008V70.9007V70.9006V70.9005V70.9004V70.9003V70.9002V70.9001V70.9V70.8999V70.8998V70.8997V70.8996V70.8995V70.8994V70.8993V70.8991V70.899V70.8989V70.8988V70.8987V70.8986V70.8984V70.8983V70.8982V70.8981V70.898V70.8978V70.8977V70.8976V70.8975V70.8973V70.8972V70.8971V70.897V70.8968V70.8967V70.8966V70.8964V70.8963V70.8962V70.896V70.8959V70.8957V70.8956V70.8955V70.8953V70.8952V70.895V70.8949V70.8947V70.8946V70.8944V70.8943V70.8941V70.894V70.8938V70.8937V70.8935V70.8933V70.8932V70.893V70.8929V70.8927V70.8925V70.8924V70.8922V70.892V70.8919V70.8917V70.8915V70.8913V70.8912V70.891V70.8908V70.8906V70.8904V70.8902V70.8901V70.8899V70.8897V70.8895V70.8893V70.8891V70.8889V70.8887V70.8885V70.8883V70.8881V70.8879V70.8877V70.8875V70.8873V70.8871V70.8869V70.8867V70.8864V70.8862V70.886V70.8858V70.8856V70.8853V70.8851V70.8849V70.8847V70.8844V70.8842V70.884V70.8837V70.8835V70.8832V70.883V70.8828V70.8825V70.8823V70.882V70.8818V70.8815V70.8813V70.881V70.8808V70.8805V70.8802V70.88V70.8797V70.8794V70.8792V70.8789V70.8786V70.8783V70.8781V70.8778V70.8775V70.8772V70.8769V70.8766V70.8763V70.8761V70.8758V70.8755V70.8752V70.8749V70.8746V70.8743V70.8739V70.8736V70.8733V70.873V70.8727V70.8724V70.8721V70.8717V70.8714V70.8711V70.8708V70.8704V70.8701V70.8697V70.8694V70.8691V70.8687V70.8684V70.868V70.8677V70.8673V70.867V70.8666V70.8663V70.8659V70.8655V70.8652V70.8648V70.8644V70.864V70.8637V70.8633V70.8629V70.8625V70.8621V70.8617V70.8613V70.861V70.8606V70.8602V70.8598V70.8593V70.8589V70.8585V70.8581V70.8577V70.8573V70.8569V70.8564V70.856V70.8556V70.8552V70.8547V70.8543V70.8538V70.8534V70.853V70.8525V70.8521V70.8516V70.8512V70.8507V70.8502V70.8498V70.8493V70.8488V70.8484V70.8479V70.8474V70.8469V70.8464V70.8459V70.8455V70.845V70.8445V70.844V70.8435V70.843V70.8425V70.8419V70.8414V70.8409V70.8404V70.8399V70.8393V70.8388V70.8383V70.8378V70.8372V70.8367V70.8361V70.8356V70.835V70.8345V70.8339V70.8334V70.8328V70.8322V70.8317V70.8311V70.8305V70.8299V70.8294V70.8288V70.8282V70.8276V70.827V70.8264V70.8258V70.8252V70.8246V70.824V70.8234V70.8228V70.8221V70.8215V70.8209V70.8203V70.8196V70.819V70.8183V70.8177V70.8171V70.8164V70.8158V70.8151C169.124 69.3242 168.92 68.3424 168.715 67.3499C168.709 67.322 168.703 67.2941 168.697 67.2661L168.688 67.2226C168.506 66.3482 168.32 65.4523 168.242 64.247C168.116 63.7554 168.221 63.283 168.501 62.9243C168.786 62.5586 169.227 62.341 169.709 62.3151L169.71 62.315C170.286 62.2857 170.711 62.5745 171.034 62.9395C171.342 63.2879 171.608 63.7649 171.869 64.2321C171.869 64.2326 171.869 64.2331 171.87 64.2336L171.872 64.2381C172.199 64.818 172.57 65.4756 172.948 65.9959L172.949 65.9968C173.682 67.0108 175.176 68.2868 176.725 69.0686L176.726 69.0693C177.501 69.4635 178.237 69.6931 178.835 69.7152C179.289 69.725 179.603 69.6008 179.796 69.3704C179.961 69.1702 180.123 68.8227 180.226 68.2849C180.237 68.2279 180.231 68.1228 180.144 67.9494C180.058 67.7759 179.907 67.5694 179.686 67.3336C179.244 66.8621 178.585 66.3398 177.807 65.8046C176.256 64.7371 174.329 63.6803 172.978 62.9405L172.977 62.94C172.358 62.5998 171.82 62.3684 171.433 62.2575L171.421 62.2543L171.422 62.2541C170.582 61.9923 170.236 61.1733 170.256 60.4948C170.276 59.8369 170.66 59.058 171.527 58.9486C171.739 58.8724 172.106 58.7791 172.513 58.6839C173 58.5696 173.606 58.4389 174.221 58.3119C175.446 58.0588 176.736 57.8153 177.226 57.7442L177.228 57.7439C179.047 57.4871 180.95 57.0548 183.039 55.5001L183.04 55.4997C184.706 54.2634 185.579 53.2235 185.864 52.4528L185.866 52.4457L185.866 52.4458C185.99 52.1268 185.964 51.9634 185.927 51.8808L185.923 51.8726L185.923 51.8726C185.881 51.7734 185.748 51.6183 185.397 51.4534L185.39 51.4502L185.39 51.4501C184.522 51.0263 182.992 50.8508 180.811 51.0976L180.81 51.0977C175.985 51.6375 172.239 55.3518 170.663 57.1534C170.622 57.201 170.582 57.248 170.543 57.294C170.448 57.406 170.359 57.5117 170.277 57.6032C170.237 57.6507 170.197 57.7001 170.158 57.7497C170.044 57.8903 169.931 58.0318 169.823 58.1323C169.627 58.3156 169.414 58.416 169.127 58.4684L169.121 58.4693L169.121 58.4693C168.738 58.5349 168.261 58.4467 167.87 58.1834C167.457 57.905 167.144 57.4334 167.127 56.7766L167.127 56.7642L167.127 56.7519C167.249 51.6868 165.381 48.7043 163.401 47.2539C162.668 46.7177 162 46.491 161.498 46.5003C161.142 46.5093 160.87 46.6565 160.692 46.9466C160.466 47.3251 160.324 47.9423 160.398 48.869C160.471 49.7916 160.754 50.9799 161.329 52.4571C161.417 52.6815 161.746 53.2231 162.246 53.9547C162.733 54.6661 163.348 55.5082 163.967 56.3078L163.968 56.3091C164.139 56.5323 164.297 56.7427 164.447 56.9434C164.625 57.1801 164.792 57.4034 164.96 57.6183C165.266 58.0093 165.509 58.2836 165.696 58.4287C166.431 58.981 166.501 59.8554 166.219 60.4832C166.078 60.7975 165.836 61.0822 165.509 61.245C165.169 61.4137 164.767 61.4346 164.37 61.2602C162.606 60.5017 160.894 60.3763 159.293 60.751L159.29 60.7517L159.29 60.7517C157.376 61.1869 155.575 62.3345 154.016 63.9928C153.747 64.2847 153.587 64.5732 153.525 64.8317L153.524 64.8356C153.483 65.0007 153.5 65.1348 153.535 65.2145C153.571 65.2972 153.644 65.3898 153.799 65.4676L153.811 65.4735L153.811 65.4737C154.079 65.6168 154.506 65.714 155.189 65.7023C156.06 65.6849 157.186 65.3924 158.407 64.966C159.557 64.5645 160.747 64.0611 161.828 63.6033C161.886 63.5786 161.944 63.5541 162.002 63.5297C162.766 63.2 163.483 62.8916 164.107 62.6598C164.715 62.4338 165.284 62.2611 165.748 62.2288C166.502 62.145 167.146 62.3256 167.562 62.8009C167.969 63.2668 168.06 63.9059 167.958 64.5312C167.753 65.8317 167.444 66.8731 167.08 68.0054M168.602 74.4083L166.604 67.8523M168.602 74.4083C168.477 74.9124 168.357 75.3786 168.262 75.7166C168.244 75.782 168.227 75.8415 168.211 75.8948L168.602 74.4083ZM167.08 68.0054L166.604 67.8523M167.08 68.0054C167.08 68.0054 167.08 68.0053 167.08 68.0053L166.604 67.8523M167.08 68.0054C166.729 69.0968 166.394 70.1603 166.417 71.4159M166.604 67.8523C166.254 68.9399 165.892 70.0775 165.917 71.4276M166.417 71.4159C166.417 71.4151 166.417 71.4142 166.417 71.4134L165.917 71.4276M166.417 71.4159C166.417 71.4168 166.417 71.4176 166.417 71.4184L165.917 71.4276M166.417 71.4159C166.43 71.8767 166.404 72.3069 166.367 72.747C166.359 72.9272 166.346 73.1271 166.335 73.3025C166.328 73.4091 166.321 73.5067 166.317 73.5851M165.917 71.4276L166.317 73.5851M166.317 73.5851C166.317 73.583 166.317 73.5808 166.317 73.5787L165.817 73.5653L166.317 73.5916C166.317 73.5894 166.317 73.5873 166.317 73.5851Z" fill="white" stroke="white"/>
<path fill-rule="evenodd" clip-rule="evenodd" d="M164.718 60.0931C162.497 59.243 157.455 58.743 155.309 60.5681C153.449 62.1308 150.567 67.0187 153.861 67.0187C157.181 67.0187 159.676 66.5186 162.646 64.906C162.896 64.7685 165.317 63.7309 165.292 64.2309C165.192 67.4812 164.967 67.8813 164.406 70.7815C163.944 73.1817 164.044 77.1821 167.313 77.1821C169.872 77.1821 169.784 76.407 170.446 74.0818C170.907 72.4817 170.009 65.106 170.034 65.131C171.469 66.4311 173.104 69.5564 175.961 70.294C179.293 71.1566 181.477 73.0192 179.418 67.6812C177.983 63.9934 172.442 60.9681 172.629 60.5306C175.525 59.7555 176.56 58.7555 180.092 55.9677C181.914 54.5301 186.456 53.0174 185.882 50.1547C185.196 46.7794 178.557 50.1797 176.723 51.2048C175.774 51.7298 173.066 51.8548 171.631 53.88C171.432 54.155 169.048 57.0178 169.048 56.3927C169.048 53.755 165.716 51.1923 164.456 48.9046C163.545 47.2419 158.977 42.0915 158.977 49.6921C158.977 54.6176 162.097 56.7678 164.718 60.0931Z" fill="#FDE88E"/>
<path fill-rule="evenodd" clip-rule="evenodd" d="M135.154 87.0203C138.786 89.1455 148.257 96.1836 152.875 92.6958C157.13 89.483 156.706 84.47 156.468 79.2196C156.406 77.8945 155.557 72.1564 154.721 77.7069C154.572 78.757 154.122 77.8194 152.138 77.0944C150.054 76.3318 148.432 75.7193 146.286 74.9817C145.3 74.6442 140.745 71.9939 140.133 73.4816C139.06 76.0818 134.593 85.0451 134.593 86.7577C134.593 86.9828 134.493 86.6202 135.154 87.0203Z" fill="#FF1C1C"/>
<path d="M100.788 120.68C99.3085 120.592 97.6401 120.895 96.252 121.184M100.788 120.68C100.789 120.68 100.79 120.68 100.79 120.68L96.252 121.184M100.788 120.68C101.329 120.709 102.015 120.882 102.696 121.096C102.843 121.143 102.992 121.191 103.14 121.242M100.788 120.68L103.14 121.242M96.252 121.184C96.524 120.806 96.8237 120.407 97.145 120.004C97.7454 119.261 98.3938 118.54 99.0563 117.954C100.796 118.891 102.166 120.11 103.14 121.242M96.252 121.184L103.14 121.242M93.8966 60.5774C93.9281 60.5997 93.9523 60.6171 93.9692 60.6292L93.9696 60.6296L94.0007 60.6524C94.4268 60.9647 94.8877 61.1973 95.3604 61.0206C95.5785 60.9391 95.736 60.7901 95.8514 60.6556C95.9622 60.5265 96.0672 60.3703 96.163 60.2277L96.1712 60.2155L96.1732 60.2125C96.5434 59.6532 99.6533 54.9587 104.932 51.2204C110.198 47.4905 117.588 44.7332 126.586 47.9439C131.24 49.6046 134.346 51.91 136.369 54.9855C138.411 58.0956 139.41 62.0974 139.732 67.1686C140.32 76.4927 136.296 84.0838 130.138 90.6794C123.97 97.2867 115.704 102.849 107.881 108.114C104.671 110.27 101.546 112.373 98.6651 114.476C98.5539 114.433 98.4416 114.391 98.3312 114.35L98.328 114.348L98.3248 114.347C96.4805 113.669 94.3356 113.013 92.0172 112.305C91.8367 112.249 91.6551 112.194 91.4725 112.138L91.4719 112.138C78.2948 108.126 59.7149 102.431 53.3416 82.8092L53.341 82.8074C52.6633 80.7464 52.3945 78.5197 52.4921 76.2343L52.4921 76.2337C52.6751 71.8099 54.2626 67.2273 57.017 63.3519C59.7702 59.4907 63.679 56.3373 68.5318 54.7616L68.533 54.7612C71.0319 53.9431 73.7796 53.5504 76.7671 53.673C80.7567 53.8434 85.0493 55.5659 88.3787 57.2778C90.0368 58.1304 91.4425 58.9732 92.4347 59.6041C92.9306 59.9195 93.3226 60.1815 93.5906 60.3649C93.7247 60.4566 93.8275 60.5285 93.8966 60.5774Z" fill="white" stroke="white"/>
<path fill-rule="evenodd" clip-rule="evenodd" d="M93.438 58.4806C93.4131 57.7305 84.1037 51.505 74.0457 51.28C67.6315 51.1299 60.3812 54.8803 56.7623 59.3057C50.9097 66.4688 48.0894 75.4071 51.4213 84.2454C54.1042 91.346 62.8146 102.097 70.0025 104.785C75.7553 106.935 82.5064 111.935 89.4323 112.51C90.0812 112.56 97.3564 115.048 97.3564 115.123C97.3439 115.761 89.844 121.561 93.3132 121.561C100.401 121.561 97.1692 120.649 101.474 120.824C104.182 120.936 97.5436 115.886 98.1675 115.023C98.9537 113.948 111.932 105.61 115.488 102.947C120.492 99.1967 123.325 93.7962 127.643 88.9083C137.401 77.8573 141.931 56.1429 129.465 47.5421C121.541 42.0791 108.513 42.4042 100.439 51.43C99.2657 52.7301 93.438 58.5556 93.438 58.4806Z" fill="#FF1C1C"/>
<path fill-rule="evenodd" clip-rule="evenodd" d="M140.144 66.0433C140.144 66.0433 138.11 57.7675 138.521 57.8425C140.293 58.1676 145.822 59.3302 145.847 59.3802C146.421 60.5303 140.131 65.7933 140.144 66.0433Z" fill="black"/>
<path fill-rule="evenodd" clip-rule="evenodd" d="M169.745 61.081C169.47 60.5934 168.984 59.7683 168.722 59.2558C168.272 58.3557 166.513 59.3933 167.05 60.3559C167.337 60.8684 167.748 61.6185 168.01 62.081C168.397 62.7561 170.132 61.756 169.745 61.081Z" fill="black"/>
<path fill-rule="evenodd" clip-rule="evenodd" d="M140.62 71.4302C141.244 72.2177 142.929 73.0678 144.875 73.8429C148.394 75.243 152.625 76.2806 153.523 76.4306C153.636 76.4431 153.735 76.4681 153.823 76.4931C153.972 76.2431 154.16 75.9306 154.409 75.568C154.933 74.8055 156.019 74.8305 156.718 74.843C156.743 74.843 156.693 74.843 156.905 74.843H157.566L157.828 75.4555C158.165 76.2556 158.44 77.0557 158.627 77.8433C159.588 81.7311 158.877 85.4564 157.392 88.4317C155.907 91.4319 153.598 93.6821 151.427 94.6197C151.09 94.7572 150.765 94.8698 150.428 94.9573C148.432 95.4448 145.038 94.3322 141.781 92.7071C137.613 90.6319 133.519 87.6566 132.92 86.2565L134.755 85.4689C135.192 86.5065 138.848 89.0192 142.666 90.9069C145.562 92.3445 148.469 93.3696 149.954 93.0071C150.179 92.9571 150.403 92.8696 150.641 92.7696C152.413 92.0195 154.309 90.1068 155.595 87.5316C156.88 84.9439 157.517 81.6936 156.68 78.3183C156.543 77.7807 156.381 77.2307 156.156 76.6806C156.106 76.6681 156.069 76.6681 156.044 76.7056C155.408 77.6307 155.295 77.9683 155.258 78.0808C155.183 78.3308 155.133 78.4558 154.846 78.6558C154.085 79.1809 153.885 78.9433 153.473 78.4433C153.473 78.4433 153.486 78.4558 153.186 78.4058C152.225 78.2558 147.758 77.1557 144.102 75.7056C141.868 74.818 139.896 73.7804 139.01 72.6678L140.62 71.4302Z" fill="black"/>
<path fill-rule="evenodd" clip-rule="evenodd" d="M148.208 94.1841C148.196 94.0966 148.196 94.1591 148.196 94.1966L148.221 94.1841H148.208ZM148.196 94.1966C148.196 94.2216 148.183 94.2341 148.171 94.2091C147.784 93.3341 146.574 90.5838 146.312 88.3211C146.087 86.3084 146.561 84.6458 148.645 84.4083C149.406 84.3208 150.018 84.6958 150.53 85.2333C150.292 83.5207 149.955 80.6579 150.879 79.9079C151.553 79.3703 152.339 79.4703 153.25 80.6079C153.412 80.8204 153.574 81.083 153.737 81.3705C153.724 81.258 153.724 81.133 153.724 80.9955C153.724 80.7579 153.699 80.3954 153.674 79.9704C153.612 78.8203 153.512 77.2951 153.724 76.6951L155.608 77.3451C155.534 77.5577 155.608 78.8703 155.671 79.8579C155.696 80.3579 155.721 80.7829 155.721 80.9955C155.721 84.1082 155.147 85.1458 154.261 85.1458C153.375 85.1458 152.888 84.1457 152.376 83.1081L152.214 82.7706C152.314 83.6082 152.464 84.6583 152.564 85.3458C152.614 85.7209 152.651 85.9959 152.663 86.1584C152.826 88.4586 152.451 89.2962 151.628 89.3587C150.879 89.4087 150.505 88.7961 150.03 87.9961C149.631 87.321 149.057 86.3834 148.857 86.4084C148.296 86.4709 148.196 87.2085 148.296 88.1086C148.52 90.0588 149.644 92.5965 149.993 93.4091C150.105 93.6466 150.168 93.7966 150.18 93.9591L148.208 94.1966H148.196ZM151.515 87.2335C151.378 87.3085 151.266 87.3585 151.503 87.346C151.678 87.346 151.64 87.3085 151.515 87.2335ZM152.152 81.458L152.139 81.4705C152.214 81.408 152.252 81.383 152.152 81.458ZM154.198 82.8081C154.136 83.0081 154.074 83.1456 154.273 83.1456C154.423 83.1456 154.336 83.0456 154.198 82.8081Z" fill="black"/>
<path fill-rule="evenodd" clip-rule="evenodd" d="M166.141 65.6812C164.17 67.0438 161.611 71.1066 159.852 73.8944C158.854 75.482 158.092 76.6946 157.618 77.0196L156.495 75.3695C156.62 75.282 157.294 74.2194 158.167 72.8318C160.014 69.9065 162.71 65.6186 165.006 64.031L166.141 65.6812Z" fill="black"/>
<path fill-rule="evenodd" clip-rule="evenodd" d="M167.399 64.5933C167.2 65.8559 166.9 66.8685 166.538 67.9936C166.189 69.0812 165.827 70.2188 165.852 71.5689C165.865 72.0065 165.84 72.419 165.802 72.8565C165.79 73.1566 165.765 73.4691 165.752 73.7066C165.715 75.1067 165.964 76.4819 168.485 76.5569C168.535 76.5569 168.772 75.6818 169.022 74.6692C169.359 73.3191 169.533 71.7939 169.558 71.0689C169.558 71.0314 169.558 71.0689 169.558 70.9564C169.558 69.3687 169.334 68.3311 169.122 67.306C168.934 66.406 168.747 65.5184 168.672 64.3058C168.46 63.5807 168.972 62.9932 169.671 62.9557C170.407 62.9182 170.831 63.6557 171.368 64.6183C171.692 65.1934 172.079 65.8809 172.478 66.431C173.265 67.5186 174.824 68.8437 176.434 69.6563C177.245 70.0688 178.057 70.3313 178.755 70.3563C179.304 70.3688 179.791 70.2188 180.115 69.8313C180.353 69.5437 180.54 69.1062 180.652 68.5187C180.952 66.9185 175.848 64.1183 173.152 62.6431C172.516 62.2931 171.942 62.0431 171.505 61.9181C170.382 61.568 170.432 59.6679 171.58 59.5804C172.129 59.3428 176.284 58.5178 177.233 58.3803C179.092 58.1177 181.089 57.6677 183.273 56.0425C184.957 54.7924 185.931 53.6798 186.268 52.7673C186.417 52.3797 186.43 52.0672 186.318 51.8172C186.205 51.5547 185.943 51.3296 185.544 51.1421C184.546 50.6546 182.898 50.4921 180.69 50.7421C175.661 51.3046 171.805 55.155 170.22 56.9676C170.07 57.1426 169.945 57.2927 169.833 57.4177C169.458 57.8677 169.384 58.0427 168.972 58.1177C168.46 58.2052 167.587 57.8802 167.562 56.9051C167.686 51.7047 165.765 48.5544 163.631 46.9917C162.845 46.4167 162.071 46.1292 161.422 46.1417C160.91 46.1542 160.474 46.3792 160.199 46.8292C159.6 47.8293 159.625 49.767 160.798 52.7798C161.023 53.3548 162.258 55.1425 163.506 56.7551C164.217 57.6802 164.841 58.5928 165.328 58.9678C166.364 59.7429 165.553 61.4055 164.504 60.943C162.645 60.1429 160.823 60.0054 159.113 60.4054C157.079 60.868 155.195 62.0806 153.585 63.7932C153.273 64.1308 153.061 64.4933 152.974 64.8558C152.911 65.1059 152.924 65.3559 153.011 65.5559C153.099 65.7559 153.261 65.9309 153.51 66.0559C153.885 66.256 154.409 66.356 155.133 66.3435C157.042 66.306 159.887 65.0809 162.133 64.1308C163.668 63.4682 164.954 62.9182 165.727 62.8682C167.038 62.7181 167.574 63.5182 167.399 64.5933ZM164.642 67.3685C164.891 66.5685 165.141 65.7934 165.216 64.9933C164.642 65.1934 163.843 65.5309 162.932 65.9309C160.536 66.956 157.504 68.2561 155.195 68.3061C154.122 68.3311 153.261 68.1311 152.599 67.7936C151.901 67.4311 151.439 66.906 151.177 66.2935C150.927 65.6934 150.89 65.0183 151.039 64.3558C151.202 63.6682 151.576 62.9807 152.138 62.3931C154.009 60.4054 156.243 58.9928 158.677 58.4303C159.8 58.1677 160.96 58.0927 162.146 58.2302L161.934 57.9552C160.586 56.2176 159.226 54.2049 158.939 53.4798C157.504 49.8045 157.603 47.2543 158.489 45.7666C159.151 44.679 160.187 44.129 161.397 44.1165C162.47 44.104 163.681 44.5165 164.816 45.3416C167 46.9292 169.084 50.1295 169.571 54.7174C171.655 52.5547 175.536 49.2794 180.49 48.7169C183.073 48.4294 185.107 48.6669 186.43 49.3044C187.266 49.7045 187.852 50.2795 188.164 50.9921C188.476 51.7172 188.489 52.5422 188.152 53.4298C187.678 54.6799 186.492 56.1051 184.471 57.6052C181.526 59.7929 178.992 60.1304 176.634 60.4304C175.773 60.5429 174.949 60.6555 174.151 60.8555C177.295 62.5806 183.198 65.8184 182.624 68.8437C182.449 69.7938 182.112 70.5313 181.663 71.0689C180.902 71.994 179.866 72.3565 178.705 72.319C177.695 72.2815 176.596 71.944 175.548 71.4064C173.926 70.5938 172.341 69.3312 171.33 68.1561C171.468 68.9312 171.567 69.8063 171.567 70.9314C171.567 70.9564 171.567 70.9564 171.567 71.1064C171.542 71.9315 171.343 73.6316 170.981 75.1317C170.532 76.9694 169.758 78.557 168.51 78.557H168.498H168.473C164.142 78.432 163.706 76.0568 163.781 73.6441C163.793 73.2941 163.805 73.0066 163.83 72.7315C163.855 72.319 163.88 71.919 163.88 71.5939C163.83 69.9063 164.242 68.6187 164.642 67.3685Z" fill="black"/>
<path fill-rule="evenodd" clip-rule="evenodd" d="M149.692 93.02C148.619 95.4953 147.92 97.7955 147.596 100.108C147.346 101.946 147.346 103.796 147.521 105.734C147.696 107.621 145.674 107.546 145.549 106.071C145.362 103.909 145.337 101.871 145.612 99.8332C145.961 97.3329 146.697 94.8702 147.858 92.22L149.692 93.02Z" fill="black"/>
<path fill-rule="evenodd" clip-rule="evenodd" d="M75.0561 79.3681C71.9863 79.9807 68.8416 79.8807 66.5579 79.8181C65.8716 79.7931 65.2602 79.7806 64.8109 79.7806C65.2726 80.3807 65.9091 80.9933 66.7576 81.5933C68.0804 82.5184 69.9273 83.356 72.5229 83.931L72.0986 85.8937C69.2159 85.2561 67.1319 84.3061 65.6095 83.2435C64.0496 82.1559 63.1012 80.9683 62.4898 79.9182C62.028 79.1181 62.2028 78.5305 62.9391 78.118C63.588 77.743 64.8608 77.7805 66.6204 77.843C68.7792 77.9055 71.7492 77.993 74.5944 77.4554C76.017 77.1429 76.4662 79.0931 75.0561 79.3681Z" fill="black"/>
<path fill-rule="evenodd" clip-rule="evenodd" d="M84.5388 71.4943C80.1836 73.782 75.0797 73.682 71.1364 73.607C69.4517 73.5695 68.0041 73.5445 67.0183 73.7195C67.1555 73.9321 67.3427 74.1821 67.5673 74.4446C68.6655 75.6947 70.5748 77.1823 72.6962 77.7449L72.1846 79.6826C69.6389 79.0075 67.3552 77.2448 66.0574 75.7572C65.6082 75.2447 65.2588 74.7446 65.0591 74.3196C64.7347 73.6695 64.6847 73.0695 64.9468 72.5944C65.0965 72.3319 65.3086 72.1319 65.6081 72.0194C66.8685 71.5193 68.8152 71.5568 71.1613 71.6068C74.88 71.6818 79.6844 71.7819 83.5904 69.7317C85.2875 68.8441 86.0862 70.6818 84.5388 71.4943Z" fill="black"/>
<path fill-rule="evenodd" clip-rule="evenodd" d="M120.242 57.8294C119.88 58.267 119.281 59.0045 118.894 59.4171C118.22 60.1546 119.805 61.4423 120.516 60.6047C120.891 60.1671 121.452 59.5046 121.789 59.092C122.288 58.5045 120.741 57.2419 120.242 57.8294Z" fill="black"/>
<path fill-rule="evenodd" clip-rule="evenodd" d="M93.0603 59.4552C93.0353 59.4302 83.751 52.7296 75.5523 52.3796C72.5075 52.2546 69.6997 52.6546 67.1415 53.4922C62.1749 55.1049 58.1816 58.3301 55.3739 62.268C52.5661 66.2183 50.9438 70.8938 50.7566 75.4192C50.6568 77.7569 50.9314 80.0446 51.6302 82.1698C58.0943 102.072 76.95 107.822 90.0904 111.822C92.6236 112.597 94.9447 113.298 96.9163 114.023C97.116 114.098 97.3157 114.173 97.5029 114.248C100.435 112.097 103.63 109.947 106.924 107.735C122.548 97.2211 140.193 85.3575 138.995 66.3434C138.671 61.2304 137.66 57.13 135.551 53.9173C133.455 50.7295 130.248 48.3668 125.518 46.6791C107.124 40.116 95.2816 57.9926 94.5204 59.1427C94.1086 59.7553 93.8964 60.0678 93.0603 59.4552ZM75.6272 50.3794C82.9149 50.692 90.8391 55.5549 93.3848 57.2425C96.0927 53.4547 108.172 38.3534 126.18 44.7789C131.346 46.6166 134.877 49.2418 137.223 52.8172C139.544 56.355 140.655 60.7679 141.005 66.2183C142.265 86.3701 124.12 98.5712 108.048 109.385C105.09 111.372 102.207 113.31 99.5369 115.248C102.469 116.973 104.454 119.361 105.377 120.998C105.664 121.511 105.864 121.961 105.964 122.323C106.151 122.973 106.063 123.523 105.702 123.873C105.377 124.198 104.978 124.299 104.491 124.148L104.429 124.136L104.354 124.098C104.341 124.098 100.772 122.448 99.4496 122.373C98.052 122.298 96.2425 122.686 94.8324 122.986C93.5595 123.261 92.5487 123.473 91.9622 123.248C91.2509 122.973 91.0013 122.486 91.3008 121.711C91.4755 121.261 92.5612 119.411 93.9838 117.623C94.5204 116.96 95.1069 116.285 95.7308 115.685C93.8839 115.035 91.7875 114.398 89.5288 113.698C75.9766 109.572 56.5219 103.647 49.7458 82.7573C48.9846 80.4071 48.6726 77.8819 48.7849 75.3066C48.9971 70.4062 50.7317 65.3433 53.7765 61.0804C56.8214 56.805 61.1641 53.3172 66.555 51.5545C69.3004 50.692 72.3452 50.2419 75.6272 50.3794ZM103.331 121.511C102.345 119.986 100.46 117.935 97.7524 116.56C96.9662 117.21 96.205 118.048 95.5187 118.898C94.8698 119.711 94.3082 120.511 93.884 121.148L94.3831 121.036C95.9056 120.711 97.8523 120.286 99.5245 120.386C100.473 120.436 102.07 121.011 103.331 121.511Z" fill="black"/>
<path fill-rule="evenodd" clip-rule="evenodd" d="M77.6616 90.8717C79.5709 90.7341 90.8643 86.6463 91.9749 85.6212C93.4225 84.2961 103.643 75.4578 101.783 73.8451C100.074 72.3575 96.2054 77.5955 92.1123 81.4958C86.0724 87.2588 73.9304 91.1342 77.6616 90.8717Z" fill="white"/>
<path fill-rule="evenodd" clip-rule="evenodd" d="M77.9127 85.1308C76.2031 85.3808 72.7464 85.8184 69.6641 86.3309C68.0668 86.5934 66.5943 86.8684 65.5336 87.1185C63.2998 87.4435 68.0668 88.9811 68.3663 89.0811C70.5751 89.7562 73.3954 90.0937 76.2031 89.8062C81.8311 89.2187 87.3717 86.8809 91.9016 83.6182C96.2568 80.4804 99.676 76.4925 101.348 72.3797C101.922 70.9795 103.807 71.6171 103.22 73.0672C101.398 77.5551 97.7293 81.868 93.0621 85.2308C88.2577 88.6936 82.3927 91.1688 76.4028 91.7939C73.3205 92.1189 70.2257 91.7439 67.7798 90.9938C64.9845 90.1312 62.9629 88.7061 62.576 87.106C62.5636 87.0435 62.5511 86.981 62.5511 86.931C62.4887 86.1184 63.4745 85.5558 65.0843 85.1683C66.2199 84.8933 67.7423 84.6182 69.3521 84.3432C72.5592 83.8057 76.228 83.2931 77.9626 83.1056C79.2979 82.9806 79.6847 84.8683 77.9127 85.1308Z" fill="black"/>
<path fill-rule="evenodd" clip-rule="evenodd" d="M0.593414 32.8779C0.343835 33.5905 5.90945 40.7786 6.5958 42.4038C6.74554 42.7663 7.96852 45.4415 8.11827 45.429C8.50512 45.4165 11.2005 44.2414 11.188 43.8539C11.1756 42.5913 6.72063 34.078 6.72063 34.078C7.3321 32.4029 11.1132 30.9652 11.2754 31.1653C12.8727 33.0779 15.6305 38.1159 16.554 40.5286C17.0407 41.8037 17.9267 40.6036 19.7112 39.6785C21.2836 38.8534 20.984 39.216 19.3743 36.6157C18.039 34.4531 14.7571 27.4649 13.5591 25.4773C13.1223 24.7397 5.21064 30.1527 4.42447 30.6652C-0.754306 34.003 0.668288 32.6029 0.593414 32.8779ZM22.519 22.0019C26.038 21.4644 27.8475 22.427 29.7069 25.3022C32.6769 29.8776 29.2451 37.6283 24.3783 35.2031C23.0805 34.5531 21.8825 33.6405 20.8717 31.9028C18.8127 28.3775 18.5007 23.4771 22.519 22.0019ZM23.0306 25.3773C23.5297 24.2647 28.9955 24.3272 28.2718 30.3402C27.5729 36.1407 19.7237 28.9651 23.0306 25.3773ZM33.0762 16.564C31.5787 21.9895 33.0013 25.3648 32.3898 30.1902C31.9905 33.303 33.8374 32.6279 30.2934 33.8905C29.4697 34.178 30.7052 36.7283 31.4664 36.7033C32.5521 36.6783 48.5251 29.8526 47.5143 28.2275C46.9528 27.3149 47.0027 26.8524 46.6284 26.4773C46.2665 26.1273 45.7548 26.7899 44.4071 27.84C44.3696 27.865 37.7932 16.4015 36.5203 15.2764C36.1709 14.9763 34.5238 15.3139 33.0762 16.564ZM35.7093 20.6143C35.7217 20.6018 40.626 26.8399 41.5744 29.3401C41.1501 29.5276 35.884 31.6153 35.6968 31.6278C35.26 31.6778 35.3848 20.9144 35.7093 20.6143ZM52.0442 9.37583C49.8853 13.2887 51.3205 16.6265 53.5168 18.4641C56.2372 20.7518 58.0341 20.4643 60.0183 19.2142C60.6048 18.8392 60.9791 21.2769 61.2412 21.8394C61.5157 22.4645 61.5657 23.9771 62.3144 23.9646C62.6888 23.9646 65.6213 23.127 65.6213 22.802C65.5964 21.8144 64.1737 18.3766 64.6729 18.1266C66.7444 17.089 68.9532 14.7513 68.7037 11.3385C68.504 8.71327 66.2827 6.18805 63.5124 5.6005C60.5673 4.98795 55.5133 5.75051 52.0442 9.37583ZM61.1913 9.37583C61.1913 9.35083 64.8726 7.16314 65.3967 11.5385C65.6338 13.5012 64.4483 14.0388 62.6888 14.0888C62.4767 14.0888 61.2038 9.77587 61.1913 9.37583ZM58.4085 10.2259C58.4335 10.2634 60.0308 14.1388 59.881 14.9388C59.8436 15.1764 57.3603 16.4515 56.2247 14.9638C53.8537 11.8636 55.5134 10.8135 58.4085 10.2259ZM70.9249 8.90079C70.9748 8.50076 71.499 4.25038 71.9981 4.06286C72.4474 3.90035 74.5438 3.13778 74.731 3.50031C76.241 6.62559 78.9489 11.0385 80.5712 14.0637C81.0579 14.9888 82.7924 5.66301 84.6767 0.912585C84.8514 0.475046 86.4113 0.287526 87.5594 0C88.982 0.812572 93.9861 13.7137 95.9952 19.6642C96.0451 19.8143 92.9129 20.5518 92.7382 20.3768C92.3513 19.9768 90.3797 15.7014 89.9304 15.7139C89.3065 15.7264 84.3648 15.5514 84.1651 16.4515C83.7159 18.5141 83.0919 19.5517 82.9671 21.3644C82.9546 21.4644 80.1843 21.3144 79.2234 21.9019C78.6744 22.2395 78.8616 21.4269 78.4747 20.1393C77.7509 17.7141 75.929 13.5387 74.4565 11.4385C73.8949 10.6259 73.9573 9.97589 73.5455 11.7135C72.9091 14.4513 72.3226 17.264 71.4989 20.0393C70.9249 21.9519 71.3492 20.8769 67.8301 21.6394C67.1063 21.8019 70.6753 10.7635 70.9249 8.90079ZM86.4737 7.01312C86.2491 7.23814 84.5145 11.8636 85.2757 11.8386C85.5003 11.8261 89.556 11.676 89.4062 11.476C89.2066 11.1885 86.4488 7.02562 86.4737 7.01312ZM94.8346 2.32521C94.8846 2.43772 95.6083 11.101 95.9952 12.8261C96.2323 13.8762 96.7813 17.6141 96.7314 18.7017C96.8811 18.7017 100.138 18.4016 100.151 18.3891C100.063 15.3389 99.3146 13.8887 99.1648 11.0385C99.1024 9.90088 98.778 8.67577 98.7406 7.07563C98.6657 4.58791 98.0792 4.41289 101.161 4.15037C102.684 4.02536 104.044 4.03786 105.679 3.86284C106.54 3.77534 106.49 3.76283 106.178 2.32521C105.716 0.187517 105.641 0.925082 102.859 1.1376C102.135 1.18761 94.7348 2.10019 94.8346 2.32521ZM102.335 12.0761C101.236 0.237525 120.105 2.56273 114.551 14.5013C111.469 21.1019 103.008 19.2267 102.335 12.0761ZM109.285 7.13814C112.467 7.05063 112.655 13.4137 110.546 14.3763C108.537 15.3014 107.663 14.5763 106.677 13.6137C105.055 12.0261 106.091 6.7006 109.285 7.13814ZM115.849 20.2268C115.874 20.6143 119.768 20.8769 119.78 20.7143C119.88 18.1141 120.579 10.7135 120.766 11.226C120.978 11.8011 122.376 15.4014 122.95 15.3889C122.95 15.3889 125.246 15.9389 125.508 15.8014C125.508 15.8014 127.243 14.0638 128.428 11.801C128.428 11.801 128.216 13.1637 128.353 14.5388C128.403 15.0138 128.528 21.0894 128.84 21.2769C128.84 21.2769 132.459 22.2395 132.571 21.7769C132.97 20.1018 134.044 3.46281 133.694 3.47531C132.209 3.50031 130.836 3.66283 130.836 3.66283C129.476 5.688 124.422 9.85088 124.497 9.75087C124.497 9.75087 121.44 2.91276 120.566 2.93776C120.441 2.93776 116.997 2.50022 116.972 2.81275C116.872 3.75033 115.824 19.9768 115.849 20.2268ZM146.685 16.964C149.156 14.6763 152.288 9.82588 155.071 6.53808C155.27 6.30056 157.841 6.93812 158.041 7.57567C158.54 9.13831 158.303 21.1019 159.338 21.3144C161.148 21.6894 162.308 21.952 162.421 22.702C162.546 23.4771 161.048 26.6774 161.048 26.6774C160.012 26.9274 148.02 22.277 146.485 21.7019C145.961 21.5019 143.64 21.0519 141.98 20.6643C139.409 20.0643 140.171 20.1768 141.444 17.6391C141.968 16.589 142.005 16.2139 143.465 16.514C144.888 16.789 146.223 17.339 146.685 16.964ZM155.033 12.4386C155.021 12.5636 150.94 18.2016 150.666 18.4391C150.978 18.3266 153.174 19.1267 153.548 19.3392C156.181 20.7643 155.308 20.5143 155.295 18.5892C155.283 17.6266 155.008 12.4136 155.033 12.4386ZM172.616 9.66336C164.555 7.40066 157.566 23.3521 169.733 27.2649C174.001 28.64 178.843 22.952 178.843 18.7142C178.843 13.2762 177.258 10.9635 172.616 9.66336ZM167.512 20.2268C164.155 12.9511 176.035 10.2384 174.862 18.9642C174.026 25.2147 169.097 23.6521 167.512 20.2268ZM186.78 12.6386C188.053 11.5385 196.601 15.7389 197.412 16.0014C197.636 16.939 197.337 19.5642 195.877 18.8767C192.732 17.4015 190.436 16.2014 189.55 16.689C188.889 17.0515 188.564 19.1642 186.929 22.027C187.528 23.3146 197.923 25.8898 191.372 32.9404C189.388 35.0906 183.073 33.6655 179.33 30.0902C178.281 29.0901 185.719 13.5637 186.78 12.6386ZM185.544 25.7398C184.296 27.715 182.425 30.2652 187.528 30.0152C191.958 29.7901 186.293 24.5272 185.544 25.7398ZM199.671 18.6767C199.059 19.0767 193.98 30.4027 193.443 32.3904C192.395 36.1782 191.01 35.8032 195.265 36.8658C195.602 36.9533 197.125 29.2276 198.61 30.1152C204.375 33.528 210.54 26.7649 207.333 22.877C205.099 20.1393 200.569 18.0891 199.671 18.6767ZM200.918 22.752C200.968 22.6395 201.942 22.6895 201.954 22.6895C205.511 23.7021 204.849 27.6025 203.152 27.6525C200.831 27.715 199.908 27.2024 199.383 26.8149C198.934 26.4899 200.232 24.3397 200.918 22.752ZM202.141 38.4909C202.129 38.4534 212.898 24.8897 214.433 23.8896C215.132 23.4396 216.467 24.5397 216.891 24.7022C217.69 24.9897 217.59 44.5289 217.391 44.779C217.178 45.054 214.783 43.7164 214.783 43.6539C214.708 40.9036 214.658 39.2535 214.458 38.866C214.071 38.1409 212.948 37.5783 210.814 36.5407C210.165 36.2282 208.955 35.7907 208.418 35.9407C207.694 36.1407 204.962 40.1161 204.699 39.9535C203.876 39.4535 202.229 39.0285 202.141 38.4909ZM210.877 32.6654C210.677 32.8779 214.433 34.6156 214.383 34.053C214.258 32.4404 214.383 30.2152 213.909 29.9402C213.585 29.7401 213.472 29.8026 210.877 32.6654Z" fill="white"/>
</svg>
