<svg width="50" height="40" viewBox="0 0 50 40" fill="none" xmlns="http://www.w3.org/2000/svg">
<g clip-path="url(#clip0_1440_10192)">
<path d="M1.02229 12.8472L1.0223 12.8471C1.39189 6.33146 7.0184 1 13.8717 1C17.4808 1 20.287 2.81824 22.2327 4.52873C23.1604 5.34435 23.9178 6.15841 24.4783 6.7608C24.5074 6.79216 24.5361 6.82295 24.5642 6.85313C24.7495 7.05218 24.9027 7.21534 25.0308 7.34584C25.1705 7.21337 25.3382 7.04448 25.5413 6.83627C25.61 6.76583 25.6818 6.69197 25.7564 6.61508C26.3214 6.03341 27.0544 5.2787 27.9207 4.52522C29.8729 2.82737 32.6509 1 36.1283 1C42.9819 1 48.6082 6.33148 48.9776 12.8472C49.1856 16.5169 47.9209 19.2924 46.214 21.7417L45.4056 21.1784L46.214 21.7418C45.334 23.0045 43.7777 24.639 41.9435 26.3514C40.0947 28.0775 37.9135 29.9284 35.7421 31.6295C33.5727 33.3291 31.3969 34.8916 29.5588 36.0347C28.6411 36.6054 27.7901 37.0826 27.0553 37.4205C26.3601 37.7402 25.6359 38 25.021 38C24.4111 38 23.6895 37.7371 23 37.4177C22.2688 37.079 21.4188 36.6007 20.5003 36.0288C18.6604 34.883 16.476 33.3172 14.2963 31.6155C12.1146 29.9122 9.9217 28.0602 8.06497 26.3362C6.22355 24.6264 4.66213 22.9963 3.78656 21.7425L1.02229 12.8472ZM1.02229 12.8472C0.814533 16.5165 2.08242 19.3025 3.78651 21.7424L1.02229 12.8472ZM24.7051 7.62324C24.698 7.62743 24.6995 7.62577 24.709 7.62087C24.7074 7.62191 24.7061 7.62269 24.7051 7.62324Z" stroke="white" stroke-width="2"/>
<g filter="url(#filter0_d_1440_10192)">
<circle cx="13" cy="13" r="9" fill="white"/>
</g>
</g>
<defs>
<filter id="filter0_d_1440_10192" x="-20" y="-16" width="66" height="66" filterUnits="userSpaceOnUse" color-interpolation-filters="sRGB">
<feFlood flood-opacity="0" result="BackgroundImageFix"/>
<feColorMatrix in="SourceAlpha" type="matrix" values="0 0 0 0 0 0 0 0 0 0 0 0 0 0 0 0 0 0 127 0" result="hardAlpha"/>
<feOffset dy="4"/>
<feGaussianBlur stdDeviation="12"/>
<feComposite in2="hardAlpha" operator="out"/>
<feColorMatrix type="matrix" values="0 0 0 0 0.270588 0 0 0 0 0.592157 0 0 0 0 0.964706 0 0 0 0.25 0"/>
<feBlend mode="normal" in2="BackgroundImageFix" result="effect1_dropShadow_1440_10192"/>
<feBlend mode="normal" in="SourceGraphic" in2="effect1_dropShadow_1440_10192" result="shape"/>
</filter>
<clipPath id="clip0_1440_10192">
<rect width="50" height="40" fill="white"/>
</clipPath>
</defs>
</svg>
