<svg width="54" height="54" viewBox="0 0 54 54" fill="none" xmlns="http://www.w3.org/2000/svg">
    <g clip-path="url(#wiiyfjlbta)">
        <path d="M54 27C54 12.088 41.912 0 27 0S0 12.088 0 27s12.088 27 27 27 27-12.088 27-27z" fill="url(#djbuwphfnb)"/>
        <path opacity=".1" d="M47.32 9.238c-3.936 7.226-9.502 14.68-16.459 21.635-6.956 6.956-14.41 12.513-21.624 16.45a25.803 25.803 0 0 1-1.318-1.23A27 27 0 1 1 46.092 7.909c.426.426.836.87 1.229 1.329z" fill="#fff"/>
        <path d="M44.488 16.156a14.925 14.925 0 0 1-4.132 1.133 7.141 7.141 0 0 0 3.155-3.965 14.325 14.325 0 0 1-4.547 1.738 7.168 7.168 0 0 0-12.406 4.902c-.005.55.05 1.098.167 1.635a20.297 20.297 0 0 1-14.783-7.5 7.176 7.176 0 0 0 2.207 9.592 7.03 7.03 0 0 1-3.24-.884v.078a7.204 7.204 0 0 0 5.744 7.041 7.127 7.127 0 0 1-1.88.234 6.346 6.346 0 0 1-1.356-.12 7.236 7.236 0 0 0 6.7 4.995 14.42 14.42 0 0 1-8.882 3.059c-.573.002-1.146-.03-1.715-.1a20.179 20.179 0 0 0 11.013 3.219c13.194 0 20.41-10.932 20.41-20.407 0-.316 0-.621-.029-.927a14.21 14.21 0 0 0 3.574-3.723z" fill="#fff"/>
    </g>
    <defs>
        <radialGradient id="djbuwphfnb" cx="0" cy="0" r="1" gradientUnits="userSpaceOnUse" gradientTransform="matrix(27 0 0 27 27 27)">
            <stop stop-color="#29B6F6"/>
            <stop offset="1" stop-color="#0277BD"/>
        </radialGradient>
        <clipPath id="wiiyfjlbta">
            <path fill="#fff" d="M0 0h54v54H0z"/>
        </clipPath>
    </defs>
</svg>
