<svg width="109" height="69" viewBox="0 0 109 69" fill="none" xmlns="http://www.w3.org/2000/svg">
<g clip-path="url(#clip0_1255_15323)">
<path fill-rule="evenodd" clip-rule="evenodd" d="M21.3437 0H48.5257C52.3185 0 54.689 3.14456 53.8001 6.99013L41.1375 62.09C40.2486 65.9356 36.436 69.0801 32.6432 69.0801H5.46119C1.66836 69.0801 -0.702166 65.9356 0.186779 62.09L12.8493 6.99013C13.7383 3.12453 17.5311 0 21.3239 0H21.3437Z" fill="#D10429"/>
<path fill-rule="evenodd" clip-rule="evenodd" d="M46.1487 0H77.4199C81.2127 0 79.4941 3.14456 78.6051 6.99013L65.9426 62.09C65.0536 65.9356 65.3302 69.0801 61.5374 69.0801H30.2662C26.4536 69.0801 24.1029 65.9356 25.0116 62.09L37.6741 6.99013C38.5631 3.12453 42.3559 0 46.1685 0H46.1487Z" fill="#022E64"/>
<path fill-rule="evenodd" clip-rule="evenodd" d="M76.3213 0H103.503C107.296 0 109.667 3.14456 108.778 6.99013L96.1151 62.09C95.2262 65.9356 91.4136 69.0801 87.6208 69.0801H60.4388C56.6262 69.0801 54.2754 65.9356 55.1644 62.09L67.8269 6.99013C68.7159 3.12453 72.5087 0 76.3015 0H76.3213Z" fill="#076F74"/>
<path fill-rule="evenodd" clip-rule="evenodd" d="M71.7586 51.9448H74.3266L75.0575 49.4412H72.5092L71.7586 51.9448ZM73.813 45.0549L72.9241 48.0191C72.9241 48.0191 73.892 47.5184 74.4254 47.3582C74.9588 47.238 75.7489 47.1379 75.7489 47.1379L76.3613 45.0749H73.7933L73.813 45.0549ZM75.097 40.8087L74.2476 43.6528C74.2476 43.6528 75.1958 43.2122 75.7292 43.072C76.2626 42.9318 77.0527 42.8917 77.0527 42.8917L77.6651 40.8287H75.1168L75.097 40.8087ZM80.7665 40.8087L77.4478 51.9248H78.3368L77.6454 54.2281H76.7564L76.5391 54.9292H73.3784L73.5957 54.2281H67.1953L67.8275 52.1051H68.4793L71.8376 40.8087L72.5092 38.5254H75.7292L75.3934 39.667C75.3934 39.667 76.2428 39.0461 77.0725 38.8258C77.8824 38.6055 82.5444 38.5254 82.5444 38.5254L81.853 40.7887H80.7468L80.7665 40.8087Z" fill="#FEFEFE"/>
<path fill-rule="evenodd" clip-rule="evenodd" d="M82.0835 38.5254H85.5208L85.5603 39.8273C85.5406 40.0476 85.7183 40.1477 86.1332 40.1477H86.8246L86.1924 42.2909H84.3355C82.7354 42.411 82.1231 41.71 82.1626 40.9289L82.1033 38.5454L82.0835 38.5254ZM82.5066 48.7221H79.2274L79.7805 46.8194H83.5338L84.0672 45.0768H80.3731L81.0053 42.9337H91.2775L90.6454 45.0768H87.1884L86.655 46.8194H90.112L89.5392 48.7221H85.8056L85.1339 49.5233H86.655L87.0304 51.9268C87.0699 52.1671 87.0699 52.3273 87.1489 52.4275C87.2279 52.5076 87.6822 52.5477 87.9391 52.5477H88.3934L87.6823 54.8911H86.5167C86.339 54.8911 86.0624 54.871 85.6871 54.871C85.3315 54.831 85.0944 54.6307 84.8574 54.5105C84.6401 54.4104 84.324 54.15 84.245 53.6893L83.8894 51.2858L82.1905 53.6493C81.6572 54.3903 80.9263 54.9712 79.6817 54.9712H77.3112L77.9434 52.8882H78.8521C79.1089 52.8882 79.3459 52.788 79.5237 52.6879C79.7015 52.6077 79.8595 52.5276 80.0176 52.2673L82.5066 48.7221ZM46.6373 43.5087H55.3094L54.6773 45.6118H51.2203L50.6869 47.3944H54.2427L53.5908 49.5575H50.0548L49.1856 52.4617C49.0868 52.7822 50.035 52.8222 50.3708 52.8222L52.1487 52.5819L51.4376 54.9854H47.4472C47.1311 54.9854 46.8941 54.9453 46.5385 54.8652C46.2027 54.7851 46.0446 54.6248 45.9064 54.4045C45.7681 54.1642 45.531 53.9839 45.6891 53.4632L46.8348 49.6176H44.8594L45.5113 47.4144H47.4867L48.0201 45.6318H46.0446L46.6768 43.5288L46.6373 43.5087ZM52.6289 39.7071H56.1847L55.5328 41.8903H50.6732L50.1398 42.3509C49.9028 42.5713 49.8435 42.4911 49.5472 42.6514C49.2707 42.7916 48.6978 43.072 47.9471 43.072H46.3865L47.0187 40.9689H47.4928C47.8879 40.9689 48.1644 40.9289 48.3027 40.8488C48.4607 40.7486 48.6385 40.5283 48.8163 40.1678L49.7053 38.5254H53.2413L52.6289 39.7271V39.7071ZM59.3307 43.3123C59.3307 43.3123 60.2987 42.411 61.9581 42.1306C62.3334 42.0505 64.7039 42.0906 64.7039 42.0906L65.0595 40.8888H60.0617L59.3307 43.3324V43.3123ZM64.0323 44.2337H59.0739L58.7776 45.2551H63.0841C63.5977 45.1951 63.6965 45.2752 63.736 45.2351L64.052 44.2337H64.0323ZM57.5924 38.5454H60.6148L60.1802 40.0877C60.1802 40.0877 61.1284 39.3065 61.8 39.0261C62.4717 38.7858 63.973 38.5454 63.973 38.5454L68.8721 38.5254L67.193 44.1736C66.9164 45.135 66.5806 45.7559 66.383 46.0563C66.2053 46.3367 65.988 46.5971 65.5534 46.8374C65.1385 47.0578 64.7632 47.198 64.4076 47.218C64.0915 47.238 63.5779 47.258 62.9063 47.258H58.185L56.8615 51.7245C56.7429 52.1652 56.6837 52.3855 56.7627 52.5057C56.8219 52.6058 56.9997 52.726 57.217 52.726L59.2912 52.5257L58.5801 54.9692H56.2491C55.4984 54.9692 54.965 54.9492 54.5897 54.9292C54.2341 54.8891 53.8588 54.9292 53.602 54.7289C53.3847 54.5286 53.0489 54.2682 53.0686 54.0078C53.0884 53.7675 53.1871 53.3669 53.3452 52.8061L57.5924 38.5454Z" fill="#FEFEFE"/>
<path fill-rule="evenodd" clip-rule="evenodd" d="M66.4019 47.5348L66.1253 48.8967C66.0068 49.3174 65.908 49.6378 65.592 49.9182C65.2562 50.1986 64.8808 50.4991 63.9721 50.4991L62.293 50.5792L62.2733 52.1014C62.2535 52.522 62.372 52.4819 62.4313 52.5621C62.5103 52.6422 62.5696 52.6622 62.6486 52.7023L63.1819 52.6622L64.7821 52.5821L64.1104 54.8253H62.2733C60.9892 54.8253 60.0213 54.7853 59.7249 54.5449C59.4089 54.3446 59.3694 54.1043 59.3694 53.6637L59.4879 47.695H62.4313L62.3918 48.9168H63.1029C63.34 48.9168 63.5178 48.8967 63.6165 48.8367C63.7153 48.7766 63.7746 48.6764 63.8141 48.5362L64.1104 47.5748H66.4217L66.4019 47.5348ZM24.5257 17.6348C24.4269 18.1155 22.5305 26.9483 22.5305 26.9483C22.1157 28.7308 21.8194 30.0127 20.8316 30.8339C20.2588 31.3146 19.5871 31.5349 18.8167 31.5349C17.5722 31.5349 16.861 30.914 16.7425 29.7323L16.7227 29.3317C16.7227 29.3317 17.0981 26.9483 17.0981 26.9282C17.0981 26.9282 19.0735 18.8766 19.4291 17.815C19.4488 17.7549 19.4488 17.7149 19.4488 17.6949C15.5967 17.7349 14.9053 17.6949 14.8658 17.6348C14.8461 17.7149 14.7473 18.2156 14.7473 18.2156L12.7324 27.2888L12.5546 28.0499L12.2188 30.5735C12.2188 31.3146 12.357 31.9355 12.6533 32.4362C13.5818 34.0786 16.2091 34.3189 17.6907 34.3189C19.6069 34.3189 21.4045 33.8983 22.6095 33.1573C24.7233 31.8954 25.2764 29.9126 25.7505 28.17L25.9875 27.2687C25.9875 27.2687 28.0222 18.9166 28.3778 17.8351C28.3976 17.775 28.3976 17.7349 28.4173 17.7149C25.6122 17.7349 24.8023 17.7149 24.5257 17.6548V17.6348ZM35.7939 34.2374C34.4308 34.2174 33.937 34.2174 32.3369 34.2975L32.2776 34.1774C32.4159 33.5565 32.5739 32.9556 32.6924 32.3347L32.89 31.4935C33.1863 30.1916 33.4629 28.6493 33.5024 28.1887C33.5419 27.9083 33.6209 27.2072 32.8307 27.2072C32.4949 27.2072 32.1591 27.3675 31.8035 27.5277C31.606 28.2287 31.2306 30.1916 31.0331 31.0729C30.638 32.9556 30.6182 33.1759 30.4404 34.0972L30.3219 34.2174C28.9194 34.1974 28.4255 34.1974 26.8056 34.2775L26.7266 34.1373C27.0032 33.0157 27.26 31.894 27.5168 30.7724C28.1885 27.748 28.3662 26.5864 28.544 25.0441L28.6823 24.964C30.2627 24.7437 30.638 24.6836 32.3566 24.3431L32.4949 24.5033L32.2381 25.4647C32.5344 25.2845 32.811 25.1042 33.1073 24.964C33.9172 24.5634 34.8062 24.4432 35.3 24.4432C36.0507 24.4432 36.8804 24.6636 37.2162 25.5448C37.5323 26.326 37.3347 27.2874 36.9001 29.1901L36.6828 30.1515C36.2482 32.2746 36.1692 32.6551 35.9322 34.0972L35.7741 34.2174L35.7939 34.2374ZM41.3411 34.2427C40.5114 34.2427 39.9781 34.2227 39.4644 34.2427C38.9508 34.2427 38.457 34.2828 37.6866 34.3028L37.647 34.2427L37.6075 34.1626C37.8248 33.3614 37.9236 33.081 38.0421 32.8006C38.1409 32.5202 38.2397 32.2398 38.4372 31.4186C38.6743 30.3571 38.8323 29.616 38.9311 28.9551C39.0496 28.3342 39.1089 27.7934 39.1879 27.1725L39.2471 27.1324L39.3064 27.0723C40.1361 26.9522 40.6497 26.872 41.1831 26.7919C41.7164 26.7118 42.2696 26.6117 43.119 26.4514L43.1585 26.5316L43.1783 26.6117C43.0202 27.2726 42.8622 27.9336 42.7042 28.5945C42.5461 29.2555 42.3881 29.9165 42.2498 30.5774C41.9535 31.9794 41.8152 32.5002 41.756 32.8808C41.6769 33.2413 41.6572 33.4215 41.5387 34.1426L41.4596 34.2027L41.3806 34.2628L41.3411 34.2427ZM50.1109 29.3217C50.0517 29.6822 49.7356 31.0242 49.3207 31.585C49.0244 32.0056 48.6886 32.266 48.2935 32.266C48.175 32.266 47.5033 32.266 47.4836 31.2445C47.4836 30.7438 47.5824 30.223 47.7009 29.6622C48.0565 28.0398 48.4911 26.6979 49.5775 26.6979C50.427 26.6979 50.4862 27.6994 50.1109 29.3217ZM53.6865 29.4819C54.1606 27.3589 53.7852 26.3574 53.3309 25.7565C52.6197 24.8352 51.3554 24.5348 50.0517 24.5348C49.2615 24.5348 47.4046 24.6149 45.9427 25.9769C44.8958 26.9583 44.4019 28.3002 44.1253 29.5821C43.829 30.884 43.4932 33.2274 45.6267 34.1086C46.2786 34.389 47.2268 34.4692 47.8392 34.4692C49.3998 34.4692 50.9999 34.0285 52.2049 32.7467C53.1333 31.7052 53.5482 30.1429 53.7062 29.4819H53.6865ZM86.9843 34.4806C85.325 34.4605 84.8509 34.4605 83.3298 34.5407L83.231 34.4205C83.6458 32.8382 84.0607 31.2359 84.436 29.6335C84.9101 27.5505 85.0286 26.6693 85.1867 25.4475L85.3052 25.3473C86.9448 25.107 87.3992 25.0469 89.1178 24.7264L89.1573 24.8666C88.8412 26.1886 88.5449 27.4904 88.2289 28.7923C87.5967 31.5363 87.3794 32.9383 87.1424 34.3804L86.9843 34.5006V34.4806Z" fill="#FEFEFE"/>
<path fill-rule="evenodd" clip-rule="evenodd" d="M84.5964 29.5897C84.5174 29.9302 84.2013 31.2922 83.7865 31.853C83.5099 32.2536 82.8383 32.514 82.4629 32.514C82.3444 32.514 81.6925 32.514 81.653 31.5125C81.653 31.0118 81.7518 30.491 81.8703 29.9302C82.2259 28.3479 82.6605 27.006 83.747 27.006C84.5964 27.006 84.9717 27.9874 84.5964 29.6098V29.5897ZM87.8559 29.75C88.33 27.6269 86.3941 29.5697 86.0977 28.8687C85.6236 27.7671 85.92 25.5639 84.0235 24.8228C83.2926 24.5224 81.574 24.9029 80.1122 26.2649C79.085 27.2263 78.5713 28.5683 78.2948 29.8501C77.9985 31.132 77.6626 33.4954 79.7764 34.3166C80.448 34.617 81.0604 34.6971 81.6728 34.6571C83.8062 34.5369 85.4261 31.2722 86.6311 29.9903C87.5596 28.9688 87.7176 30.3709 87.8559 29.75ZM63.0507 34.2374C61.6877 34.2174 61.2136 34.2174 59.6135 34.2975L59.5542 34.1774C59.6925 33.5565 59.8505 32.9556 59.9888 32.3347L60.1666 31.4935C60.4629 30.1916 60.7592 28.6493 60.779 28.1887C60.8185 27.9083 60.8975 27.2072 60.1271 27.2072C59.7913 27.2072 59.4357 27.3675 59.0999 27.5277C58.9221 28.2287 58.527 30.1916 58.3294 31.0729C57.9541 32.9556 57.9146 33.1759 57.7368 34.0972L57.6183 34.2174C56.2157 34.1974 55.7219 34.1974 54.102 34.2775L54.023 34.1373C54.2995 33.0157 54.5564 31.894 54.8132 30.7724C55.4848 27.748 55.6428 26.5864 55.8404 25.0441L55.9589 24.964C57.5393 24.7437 57.9343 24.6836 59.6332 24.3431L59.7715 24.5033L59.5344 25.4647C59.811 25.2845 60.1073 25.1042 60.3839 24.964C61.1938 24.5634 62.0828 24.4432 62.5766 24.4432C63.3273 24.4432 64.1372 24.6636 64.4928 25.5448C64.8089 26.326 64.5916 27.2874 64.157 29.1901L63.9397 30.1515C63.4853 32.2746 63.4261 32.6551 63.189 34.0972L63.031 34.2174L63.0507 34.2374ZM74.8863 17.6548L73.7405 17.6748C70.7774 17.7149 69.5921 17.6949 69.118 17.6348C69.0785 17.8551 68.9995 18.2356 68.9995 18.2356C68.9995 18.2356 67.9328 23.2028 67.9328 23.2229C67.9328 23.2229 65.4042 33.7982 65.2857 34.2989C67.8735 34.2589 68.9205 34.2589 69.3748 34.3189C69.4736 33.8182 70.0662 30.874 70.086 30.874C70.086 30.874 70.5996 28.7108 70.6194 28.6307C70.6194 28.6307 70.7774 28.4104 70.9354 28.3102H71.1725C73.4047 28.3102 75.9135 28.3102 77.889 26.8481C79.2322 25.8467 80.1409 24.3445 80.5558 22.5419C80.6546 22.1012 80.7336 21.5805 80.7336 21.0397C80.7336 20.3387 80.5953 19.6577 80.2002 19.1169C79.1927 17.6949 77.1976 17.6748 74.8863 17.6548ZM76.3679 22.8423C76.1308 23.9439 75.4197 24.8853 74.511 25.3259C73.7603 25.7065 72.8516 25.7465 71.9034 25.7465H71.291L71.3305 25.5062C71.3305 25.5062 72.4565 20.539 72.4565 20.559L72.496 20.2986L72.5158 20.0983L72.9701 20.1384C72.9701 20.1384 75.3011 20.3387 75.3406 20.3387C76.2493 20.6992 76.6444 21.6205 76.3679 22.8423ZM100.651 24.5033L100.513 24.3431C98.8334 24.6836 98.5173 24.7437 96.9765 24.964L96.858 25.0842C96.858 25.1042 96.8382 25.1242 96.8382 25.1643V25.1443C95.6925 27.8482 95.7122 27.2673 94.7838 29.3904C94.7838 29.2903 94.7838 29.2302 94.764 29.13L94.527 24.5234L94.3887 24.3631C92.6108 24.7036 92.5713 24.7637 90.9514 24.984L90.8329 25.1042C90.8131 25.1643 90.8131 25.2244 90.8131 25.2845L90.8329 25.3045C91.0304 26.366 90.9909 26.1257 91.1885 27.7881C91.2872 28.6093 91.4058 29.4305 91.5045 30.2316C91.6626 31.5936 91.7613 32.2546 91.9589 34.3176C90.8526 36.1602 90.5958 36.8612 89.5291 38.4836L89.5884 38.6438C91.1885 38.5837 91.544 38.5837 92.7293 38.5837L92.9861 38.2833C93.8751 36.3405 100.671 24.5234 100.671 24.5234L100.651 24.5033ZM42.8641 25.8301C43.7728 25.1892 43.8913 24.3079 43.1209 23.8472C42.3504 23.3866 40.9874 23.5268 40.0787 24.1677C39.17 24.7886 39.0712 25.6699 39.8417 26.1506C40.5923 26.5912 41.9554 26.4711 42.8641 25.8301Z" fill="#FEFEFE"/>
<path fill-rule="evenodd" clip-rule="evenodd" d="M92.7225 38.5454L91.399 40.8488C90.9841 41.6299 90.1939 42.2308 88.9692 42.2308L86.8555 42.1907L87.4679 40.1077H87.8827C88.1 40.1077 88.258 40.0876 88.3766 40.0276C88.4951 39.9875 88.5543 39.9074 88.6531 39.7872L89.4433 38.5254H92.7423L92.7225 38.5454Z" fill="#FEFEFE"/>
</g>
<defs>
<clipPath id="clip0_1255_15323">
<rect width="109" height="69" fill="white"/>
</clipPath>
</defs>
</svg>
