<svg width="54" height="54" viewBox="0 0 54 54" fill="none" xmlns="http://www.w3.org/2000/svg">
    <g clip-path="url(#pshnwn1vga)">
        <path d="M54 27C54 12.088 41.912 0 27 0S0 12.088 0 27s12.088 27 27 27 27-12.088 27-27z" fill="url(#m326x8u0ub)"/>
        <path opacity=".1" d="M47.32 9.238c-3.936 7.226-9.502 14.68-16.459 21.635-6.956 6.956-14.41 12.513-21.624 16.45a25.803 25.803 0 0 1-1.318-1.23A27 27 0 1 1 46.092 7.909c.426.426.836.87 1.229 1.329z" fill="#fff"/>
        <path d="M23.605 28.838h-3.532c-.557 0-.753-.202-.753-.76v-4.31c0-.553.21-.763.757-.763h3.528v-3.108a7.776 7.776 0 0 1 .97-4 5.865 5.865 0 0 1 3.172-2.637 7.783 7.783 0 0 1 2.718-.469h3.492c.501 0 .71.22.71.71v4.054c0 .508-.212.71-.71.71-.956 0-1.911 0-2.863.04-.952.039-1.471.472-1.471 1.467-.021 1.066 0 2.11 0 3.198h4.103c.583 0 .782.199.782.785v4.284c0 .58-.185.764-.771.764h-4.135v11.56c0 .618-.196.814-.803.814H24.35c-.537 0-.746-.21-.746-.746V28.839z" fill="#fff"/>
    </g>
    <defs>
        <radialGradient id="m326x8u0ub" cx="0" cy="0" r="1" gradientUnits="userSpaceOnUse" gradientTransform="matrix(27 0 0 27 27 27)">
            <stop stop-color="#42A5F5"/>
            <stop offset="1" stop-color="#1565C0"/>
        </radialGradient>
        <clipPath id="pshnwn1vga">
            <path fill="#fff" d="M0 0h54v54H0z"/>
        </clipPath>
    </defs>
</svg>
