<svg width="189" height="51" viewBox="0 0 189 51" fill="none" xmlns="http://www.w3.org/2000/svg">
<path fill-rule="evenodd" clip-rule="evenodd" d="M63.8477 41.9837H64.0505C64.5664 41.9837 65.1169 41.9148 65.1169 41.1705V33.6762C65.1169 32.9291 64.5664 32.863 64.0505 32.863H63.849V32.426C64.4119 32.426 65.2741 32.4853 65.9818 32.4853C66.702 32.4853 67.5656 32.426 68.2416 32.426V32.8616H68.0401C67.5228 32.8616 66.9737 32.9305 66.9737 33.6748V41.1691C66.9737 41.9162 67.5228 41.9837 68.0401 41.9837H68.2416V42.4151C67.5518 42.4151 66.6854 42.36 65.9653 42.36C65.2589 42.36 64.4119 42.4151 63.849 42.4151V41.9837H63.8477ZM78.1399 39.5964L78.1675 39.5688V34.2041C78.1675 33.0311 77.3467 32.8616 76.9121 32.8616H76.5976V32.4274C77.2736 32.4274 77.9385 32.4853 78.6145 32.4853C79.2036 32.4853 79.7968 32.4274 80.3845 32.4274V32.8616H80.172C79.565 32.8616 78.8863 32.9719 78.8863 34.6755V41.1856C78.8863 41.686 78.9028 42.1849 78.9746 42.6288H78.4269L71.0076 34.4192V40.3104C71.0076 41.5592 71.2504 41.9837 72.3596 41.9837H72.6051V42.4151C71.9871 42.4151 71.3663 42.36 70.7455 42.36C70.1012 42.36 69.4363 42.4151 68.7892 42.4151V41.9837H68.9907C69.9839 41.9837 70.2875 41.3152 70.2875 40.1684V34.1449C70.2875 33.344 69.6225 32.8616 68.9769 32.8616H68.7892V32.4274C69.3342 32.4274 69.897 32.4853 70.4433 32.4853C70.8779 32.4853 71.2973 32.4274 71.7263 32.4274L78.1399 39.5964ZM82.5421 33.1442C81.4605 33.1442 81.4219 33.4019 81.2039 34.4454H80.7721C80.8314 34.0456 80.9004 33.6459 80.9459 33.2282C81.0011 32.8285 81.0329 32.4274 81.0329 32.0153H81.3778C81.495 32.4439 81.8537 32.4274 82.2427 32.4274H89.6772C90.0635 32.4274 90.4263 32.4136 90.4553 31.9863L90.7974 32.0442C90.745 32.4274 90.687 32.8161 90.6415 33.2021C90.6125 33.588 90.6125 33.9739 90.6125 34.3599L90.1821 34.5212C90.1532 33.9891 90.0787 33.1428 89.1143 33.1428H86.7525V40.7556C86.7525 41.8597 87.2574 41.9837 87.9486 41.9837H88.2204V42.4151C87.6603 42.4151 86.6504 42.3586 85.8724 42.3586C85.0101 42.3586 83.9989 42.4151 83.4374 42.4151V41.9837H83.7106C84.5052 41.9837 84.9053 41.9148 84.9053 40.7859V33.1442H82.5421ZM91.2596 41.9837H91.461C91.9783 41.9837 92.526 41.9148 92.526 41.1705V33.6762C92.526 32.9291 91.9783 32.863 91.461 32.863H91.2596V32.426C92.1356 32.426 93.6393 32.4853 94.8464 32.4853C96.0577 32.4853 97.5545 32.426 98.5298 32.426C98.5064 33.0435 98.5216 33.9905 98.5643 34.619L98.1284 34.7334C98.0594 33.8044 97.887 33.0615 96.3736 33.0615H94.376V36.8051H96.0853C96.9516 36.8051 97.1392 36.3227 97.2234 35.5508H97.6538C97.6262 36.1077 97.6124 36.6645 97.6124 37.2228C97.6124 37.7672 97.6262 38.3103 97.6538 38.852L97.2234 38.9389C97.1392 38.0801 97.0951 37.5219 96.0991 37.5219H94.3746V40.8548C94.3746 41.7852 95.2079 41.7852 96.1267 41.7852C97.8594 41.7852 98.6209 41.6708 99.0527 40.0402L99.4555 40.1422C99.2679 40.9017 99.0968 41.6543 98.9658 42.4165C98.0456 42.4165 96.386 42.3586 95.0906 42.3586C93.7938 42.3586 92.0804 42.4151 91.2596 42.4151V41.9837ZM103.245 37.2641H103.949C105.39 37.2641 106.167 36.7224 106.167 35.0325C106.167 33.7631 105.346 32.9443 104.065 32.9443C103.629 32.9443 103.445 32.9898 103.245 33.0022V37.2641ZM101.402 33.945C101.402 32.9002 100.825 32.8602 100.378 32.8602H100.116V32.4274C100.577 32.4274 101.471 32.4853 102.351 32.4853C103.213 32.4853 103.906 32.4274 104.672 32.4274C106.483 32.4274 108.096 32.914 108.096 34.9485C108.096 36.2345 107.235 37.0202 106.095 37.4681L108.562 41.1264C108.963 41.7328 109.249 41.901 109.955 41.9837V42.4151C109.481 42.4151 109.02 42.3586 108.545 42.3586C108.096 42.3586 107.636 42.4151 107.191 42.4151C106.082 40.972 105.13 39.4241 104.194 37.7783H103.245V40.8397C103.245 41.9451 103.763 41.9837 104.423 41.9837H104.685V42.4151C103.862 42.4151 103.027 42.3586 102.206 42.3586C101.517 42.3586 100.838 42.4151 100.116 42.4151V41.9837H100.378C100.908 41.9837 101.402 41.7439 101.402 41.2118V33.945ZM119.736 39.5964L119.764 39.5688V34.2041C119.764 33.0311 118.943 32.8616 118.513 32.8616H118.196V32.4274C118.873 32.4274 119.532 32.4853 120.212 32.4853C120.806 32.4853 121.393 32.4274 121.985 32.4274V32.8616H121.771C121.164 32.8616 120.487 32.9719 120.487 34.6755V41.1856C120.487 41.686 120.499 42.1849 120.57 42.6288H120.026L112.607 34.4192V40.3104C112.607 41.5592 112.852 41.9837 113.962 41.9837H114.209V42.4151C113.588 42.4151 112.966 42.36 112.346 42.36C111.698 42.36 111.036 42.4151 110.389 42.4151V41.9837H110.587C111.585 41.9837 111.884 41.3152 111.884 40.1684V34.1449C111.884 33.344 111.222 32.8616 110.576 32.8616H110.389V32.4274C110.933 32.4274 111.5 32.4853 112.044 32.4853C112.474 32.4853 112.892 32.4274 113.326 32.4274L119.736 39.5964ZM126.407 34.0318H126.379L125.038 38.0801H127.73L126.407 34.0318ZM124.306 40.3696C124.159 40.8548 123.983 41.2311 123.983 41.4834C123.983 41.9148 124.593 41.9837 125.066 41.9837H125.226V42.4138C124.646 42.3862 124.057 42.3586 123.479 42.3586C122.961 42.3586 122.445 42.3862 121.927 42.4138V41.9837H122.01C122.573 41.9837 123.052 41.6543 123.261 41.0547L125.569 34.4922C125.756 33.9602 126.019 33.2475 126.103 32.7141C126.564 32.5584 127.141 32.273 127.414 32.1007C127.459 32.0856 127.483 32.0745 127.53 32.0745C127.571 32.0745 127.599 32.0745 127.63 32.1159C127.673 32.2303 127.716 32.3585 127.761 32.4743L130.41 39.9561C130.583 40.4565 130.756 40.9871 130.941 41.4172C131.116 41.8155 131.42 41.9837 131.895 41.9837H131.979V42.4138C131.333 42.3862 130.683 42.3586 129.994 42.3586C129.29 42.3586 128.567 42.3862 127.835 42.4138V41.9837H127.993C128.321 41.9837 128.884 41.9299 128.884 41.5716C128.884 41.3841 128.756 40.9982 128.593 40.5405L128.032 38.881H124.762L124.307 40.3696H124.306ZM132.616 33.1442C131.533 33.1442 131.492 33.4019 131.275 34.4454H130.841C130.9 34.0456 130.973 33.6459 131.016 33.2282C131.074 32.8285 131.103 32.4274 131.103 32.0153H131.448C131.562 32.4439 131.924 32.4274 132.311 32.4274H139.746C140.133 32.4274 140.491 32.4136 140.521 31.9863L140.867 32.0442C140.812 32.4274 140.757 32.8161 140.71 33.2021C140.674 33.588 140.674 33.9739 140.674 34.3599L140.246 34.5212C140.223 33.9891 140.147 33.1428 139.184 33.1428H136.82V40.7556C136.82 41.8597 137.325 41.9837 138.017 41.9837H138.289V42.4151C137.729 42.4151 136.72 42.3586 135.941 42.3586C135.079 42.3586 134.067 42.4151 133.503 42.4151V41.9837H133.779C134.575 41.9837 134.979 41.9148 134.979 40.7859V33.1442H132.616ZM141.398 41.9837H141.6C142.121 41.9837 142.666 41.9148 142.666 41.1705V33.6762C142.666 32.9291 142.121 32.863 141.6 32.863H141.398V32.426C141.96 32.426 142.823 32.4853 143.528 32.4853C144.25 32.4853 145.114 32.426 145.795 32.426V32.8616H145.594C145.071 32.8616 144.522 32.9305 144.522 33.6748V41.1691C144.522 41.9162 145.071 41.9837 145.594 41.9837H145.795V42.4151C145.101 42.4151 144.236 42.36 143.516 42.36C142.808 42.36 141.96 42.4151 141.398 42.4151V41.9837ZM151.755 42.0002C154.554 42.0002 155.037 39.5536 155.037 37.4681C155.037 35.3771 153.904 32.8451 151.511 32.8451C148.991 32.8451 148.241 35.0767 148.241 36.9912C148.241 39.5536 149.423 42.0002 151.755 42.0002ZM151.54 32.2151C154.609 32.2151 157.058 34.1035 157.058 37.1525C157.058 40.4427 154.682 42.6288 151.613 42.6288C148.554 42.6288 146.227 40.5722 146.227 37.4916C146.227 34.5212 148.544 32.2151 151.538 32.2151H151.54ZM166.767 39.5964L166.796 39.5688V34.2041C166.796 33.0311 165.974 32.8616 165.538 32.8616H165.228V32.4274C165.901 32.4274 166.566 32.4853 167.242 32.4853C167.836 32.4853 168.425 32.4274 169.014 32.4274V32.8616H168.799C168.191 32.8616 167.513 32.9719 167.513 34.6755V41.1856C167.513 41.686 167.53 42.1849 167.602 42.6288H167.053L159.635 34.4192V40.3104C159.635 41.5592 159.879 41.9837 160.99 41.9837H161.234V42.4151C160.614 42.4151 159.996 42.36 159.375 42.36C158.727 42.36 158.063 42.4151 157.414 42.4151V41.9837H157.618C158.615 41.9837 158.911 41.3152 158.911 40.1684V34.1449C158.911 33.344 158.252 32.8616 157.6 32.8616H157.414V32.4274C157.963 32.4274 158.523 32.4853 159.073 32.4853C159.504 32.4853 159.922 32.4274 160.354 32.4274L166.769 39.5964H166.767ZM173.433 34.0318H173.406L172.063 38.0801H174.763L173.433 34.0318ZM171.329 40.3696C171.189 40.8548 171.013 41.2311 171.013 41.4834C171.013 41.9148 171.623 41.9837 172.092 41.9837H172.254V42.4138C171.676 42.3862 171.087 42.3586 170.51 42.3586C169.986 42.3586 169.471 42.3862 168.956 42.4138V41.9837H169.035C169.601 41.9837 170.079 41.6543 170.292 41.0547L172.6 34.4922C172.788 33.9602 173.044 33.2475 173.131 32.7141C173.592 32.5584 174.167 32.273 174.442 32.1007C174.486 32.0856 174.515 32.0745 174.559 32.0745C174.6 32.0745 174.626 32.0745 174.658 32.1159C174.702 32.2303 174.744 32.3585 174.792 32.4743L177.441 39.9561C177.609 40.4565 177.786 40.9871 177.973 41.4172C178.143 41.8155 178.449 41.9837 178.924 41.9837H179.009V42.4138C178.362 42.3862 177.713 42.3586 177.023 42.3586C176.315 42.3586 175.594 42.3862 174.858 42.4138V41.9837H175.02C175.348 41.9837 175.914 41.9299 175.914 41.5716C175.914 41.3841 175.781 40.9982 175.623 40.5405L175.064 38.881H171.796L171.329 40.3696ZM182.642 41.0133C182.642 41.5854 183.042 41.7577 183.504 41.8155C184.093 41.8583 184.741 41.8583 185.408 41.788C186.009 41.7177 186.531 41.3717 186.787 41.0133C187.018 40.6963 187.145 40.2993 187.236 39.9823H187.654C187.492 40.7983 187.291 41.6019 187.116 42.4151C185.851 42.4151 184.581 42.3586 183.318 42.3586C182.049 42.3586 180.779 42.4151 179.513 42.4151V41.9837H179.71C180.234 41.9837 180.795 41.9148 180.795 41.0257V33.6748C180.795 32.9291 180.234 32.8616 179.71 32.8616H179.513V32.4274C180.276 32.4274 181.026 32.4853 181.786 32.4853C182.523 32.4853 183.243 32.4274 183.98 32.4274V32.8616H183.617C183.071 32.8616 182.642 32.8754 182.642 33.6335V41.0133Z" fill="#231F20"/>
<mask id="mask0_1255_15334" style="mask-type:alpha" maskUnits="userSpaceOnUse" x="185" y="32" width="4" height="4">
<path d="M185.957 32.0234H188.991V35.0338H185.957V32.0234Z" fill="white"/>
</mask>
<g mask="url(#mask0_1255_15334)">
<path fill-rule="evenodd" clip-rule="evenodd" d="M187.233 33.5328H187.412C187.607 33.5328 187.698 33.3867 187.698 33.1496C187.698 32.9084 187.553 32.8257 187.4 32.8257H187.235V33.5328H187.233ZM186.721 34.3281V34.2537C186.905 34.2275 186.942 34.2357 186.942 34.1172V33.0048C186.941 32.8463 186.923 32.7926 186.724 32.8008V32.7237H187.504C187.766 32.7237 188.014 32.8518 188.014 33.1234C188.014 33.3508 187.865 33.5121 187.655 33.5782L187.902 33.9256C188.021 34.0772 188.152 34.2288 188.239 34.2798V34.3281H187.946C187.804 34.3281 187.681 34.0304 187.401 33.6348H187.236V34.1337C187.236 34.2357 187.27 34.2275 187.454 34.2537V34.3281H186.723H186.721ZM187.475 34.7554C188.153 34.7554 188.675 34.182 188.675 33.5328C188.675 32.8849 188.164 32.3032 187.475 32.3032C186.79 32.3032 186.272 32.8835 186.272 33.5328C186.272 34.182 186.79 34.754 187.475 34.754V34.7554ZM187.475 32.0234C188.342 32.0234 188.992 32.6878 188.992 33.5328C188.992 34.3791 188.342 35.0352 187.475 35.0352C186.608 35.0352 185.957 34.3791 185.957 33.5328C185.957 32.6878 186.608 32.0234 187.475 32.0234Z" fill="#231F20"/>
</g>
<path fill-rule="evenodd" clip-rule="evenodd" d="M154.845 13.1043H154.183C153.682 10.0305 151.483 8.7941 148.521 8.7941C145.472 8.7941 141.049 10.8176 141.049 17.1236C141.049 22.4387 144.87 26.2513 148.943 26.2513C151.564 26.2513 153.736 24.4649 154.265 21.7026L154.872 21.8584L154.265 25.6985C153.153 26.385 150.158 27.0907 148.41 27.0907C142.216 27.0907 138.301 23.1223 138.301 17.2077C138.301 11.8183 143.143 7.95192 148.335 7.95192C150.48 7.95192 152.542 8.63559 154.581 9.34408L154.845 13.1043ZM155.798 26.0128H156.303C157.045 26.0128 157.576 26.0128 157.576 25.1417V10.5061C157.576 8.79411 157.179 8.74173 156.172 8.45227V8.03186C157.229 7.68865 158.342 7.21862 158.899 6.90159C159.189 6.74308 159.403 6.60938 159.48 6.60938C159.641 6.60938 159.692 6.76789 159.692 6.98154V25.1403C159.692 26.0114 160.276 26.0114 161.017 26.0114H161.467V26.6965C160.57 26.6965 159.641 26.6455 158.685 26.6455C157.735 26.6455 156.782 26.673 155.798 26.6965V26.0114V26.0128ZM172.8 25.2506C172.8 25.7261 173.089 25.7495 173.542 25.7495C173.856 25.7495 174.257 25.7261 174.601 25.7261V26.2802C173.459 26.3836 171.29 26.9349 170.784 27.0935L170.654 27.0135V24.8867C169.068 26.1741 167.846 27.0921 165.964 27.0921C164.536 27.0921 163.056 26.1741 163.056 23.9673V17.2353C163.056 16.5489 162.947 15.8914 161.469 15.7618V15.2628C162.424 15.2339 164.536 15.0795 164.882 15.0795C165.176 15.0795 165.176 15.2628 165.176 15.8404V22.622C165.176 23.4091 165.176 25.671 167.479 25.671C168.375 25.671 169.569 24.9859 170.679 24.0721V16.9941C170.679 16.4703 169.41 16.1836 168.458 15.9176V15.4448C170.841 15.2863 172.325 15.0795 172.589 15.0795C172.8 15.0795 172.8 15.2628 172.8 15.5523V25.2506ZM178.067 23.7261C178.067 24.7268 179.019 26.4084 180.796 26.4084C183.631 26.4084 184.821 23.6461 184.821 21.3056C184.821 18.4689 182.65 16.1023 180.586 16.1023C179.6 16.1023 178.783 16.7349 178.067 17.3414V23.7261ZM178.067 16.5737C179.126 15.6832 180.558 14.6853 182.012 14.6853C185.083 14.6853 186.937 17.3414 186.937 20.2043C186.937 23.6461 184.396 27.0921 180.607 27.0921C178.648 27.0921 177.619 26.4622 176.929 26.1741L176.135 26.7764L175.581 26.4883C175.814 24.9377 175.948 23.4104 175.948 21.8088V10.5061C175.948 8.79411 175.552 8.74035 174.546 8.45227V8.03048C175.608 7.69002 176.716 7.22 177.274 6.90021C177.563 6.74308 177.776 6.61075 177.857 6.61075C178.016 6.61075 178.067 6.76789 178.067 6.98154V16.5751V16.5737ZM68.9035 23.5951C68.9035 25.6213 70.3603 25.8557 71.6571 25.8557C77.3782 25.8557 79.253 21.5717 79.253 17.6529C79.253 12.739 76.0786 9.1897 70.9687 9.1897C69.883 9.1897 69.3822 9.26551 68.9035 9.29308V23.5965V23.5951ZM66.3099 11.2628C66.3099 8.89886 65.0642 9.05462 63.875 9.02705V8.34889C64.9055 8.39575 65.965 8.39575 66.9983 8.39575C68.1103 8.39575 69.6195 8.34889 71.5785 8.34889C78.4349 8.34889 82.168 12.8934 82.168 17.5496C82.168 20.1519 80.6339 26.6979 71.2612 26.6979C69.9147 26.6979 68.6662 26.6469 67.4232 26.6469C66.2313 26.6469 65.0642 26.6744 63.875 26.6979V26.0128C65.4601 25.8557 66.2313 25.8033 66.3099 24.0155V11.2628ZM85.9314 10.6342C85.2389 10.6342 84.6319 10.0029 84.6319 9.32065C84.6319 8.66178 85.2665 8.05529 85.9314 8.05529C86.6157 8.05529 87.2282 8.60802 87.2282 9.32065C87.2282 10.0291 86.6447 10.6342 85.9314 10.6342ZM83.0964 26.0128H83.5986C84.3394 26.0128 84.8678 26.0128 84.8678 25.1417V18.021C84.8678 16.8645 84.4746 16.706 83.491 16.1836V15.7618C84.7367 15.391 86.2198 14.8962 86.3274 14.8135C86.5122 14.7115 86.6695 14.6839 86.8033 14.6839C86.9344 14.6839 86.9868 14.8397 86.9868 15.0506V25.1417C86.9868 26.0128 87.5717 26.0128 88.3112 26.0128H88.7609V26.6979C87.8601 26.6979 86.9344 26.6469 85.9825 26.6469C85.0292 26.6469 84.0759 26.6744 83.0964 26.6979V26.0128ZM91.2772 18.1781C91.2772 17.2077 90.9862 16.9445 89.7432 16.4469V15.9438C90.8799 15.5757 91.9643 15.2325 93.2362 14.6839C93.3162 14.6839 93.3935 14.7349 93.3935 14.9431V16.6564C94.9041 15.5757 96.2037 14.6839 97.9778 14.6839C100.226 14.6839 101.022 16.3104 101.022 18.3642V25.1431C101.022 26.0142 101.606 26.0142 102.345 26.0142H102.821V26.6979C101.892 26.6979 100.966 26.6469 100.017 26.6469C99.0621 26.6469 98.1088 26.6744 97.1556 26.6979V26.0142H97.6329C98.3751 26.0142 98.9007 26.0142 98.9007 25.1431V18.338C98.9007 16.8369 97.9764 16.1036 96.4658 16.1036C95.6187 16.1036 94.2709 16.7846 93.3935 17.3649V25.1431C93.3935 26.0142 93.9812 26.0142 94.722 26.0142H95.198V26.6979C94.2709 26.6979 93.3411 26.6469 92.3864 26.6469C91.4373 26.6469 90.4826 26.6744 89.5307 26.6979V26.0142H90.0081C90.7489 26.0142 91.2772 26.0142 91.2772 25.1431V18.1781ZM109.522 18.5999C110.181 18.5999 110.259 18.258 110.259 17.9438C110.259 16.5999 109.439 15.5233 107.958 15.5233C106.343 15.5233 105.232 16.7046 104.913 18.5999H109.522ZM104.836 19.4435C104.78 19.6792 104.78 20.072 104.836 20.9666C104.99 23.4656 106.608 25.5152 108.725 25.5152C110.181 25.5152 111.324 24.7254 112.3 23.7536L112.671 24.1217C111.452 25.7247 109.945 27.0907 107.775 27.0907C103.562 27.0907 102.718 23.0424 102.718 21.3622C102.718 16.2084 106.211 14.6839 108.061 14.6839C110.208 14.6839 112.514 16.0223 112.539 18.808C112.539 18.9707 112.539 19.125 112.514 19.2849L112.273 19.4435H104.836ZM113.146 26.0128H113.863C114.604 26.0128 115.13 26.0128 115.13 25.1417V17.7577C115.13 16.9445 114.153 16.7859 113.756 16.5737V16.1836C115.687 15.3662 116.749 14.6839 116.988 14.6839C117.145 14.6839 117.224 14.7597 117.224 15.0258V17.3897H117.281C117.94 16.3669 119.052 14.6839 120.667 14.6839C121.33 14.6839 122.174 15.1278 122.174 16.0761C122.174 16.7859 121.676 17.42 120.932 17.42C120.109 17.42 120.109 16.7859 119.184 16.7859C118.735 16.7859 117.25 17.3897 117.25 18.9707V25.1417C117.25 26.0128 117.78 26.0128 118.521 26.0128H120.004V26.6979C118.547 26.6731 117.438 26.6469 116.3 26.6469C115.211 26.6469 114.101 26.6744 113.146 26.6979V26.0128ZM123.338 23.0438C123.686 24.7778 124.744 26.2526 126.677 26.2526C128.238 26.2526 128.818 25.3043 128.818 24.3849C128.818 21.2836 123.051 22.2788 123.051 18.0485C123.051 16.5737 124.243 14.6853 127.156 14.6853C128.001 14.6853 129.139 14.9196 130.171 15.4448L130.357 18.1271H129.75C129.486 16.4717 128.556 15.522 126.862 15.522C125.802 15.522 124.798 16.1285 124.798 17.2587C124.798 20.3366 130.938 19.3897 130.938 23.5166C130.938 25.2506 129.535 27.0921 126.387 27.0921C125.325 27.0921 124.08 26.7254 123.155 26.2003L122.864 23.1761L123.338 23.0438Z" fill="#231F20"/>
<mask id="mask1_1255_15334" style="mask-type:alpha" maskUnits="userSpaceOnUse" x="0" y="0" width="59" height="51">
<path d="M0 0.509766H58.2396V50.4994H0V0.509766Z" fill="white"/>
</mask>
<g mask="url(#mask1_1255_15334)">
<path fill-rule="evenodd" clip-rule="evenodd" d="M25.3895 50.4988C11.4628 50.5622 0 39.3602 0 25.7211C0 10.8153 11.4628 0.505056 25.3895 0.507813H31.9175C45.6787 0.505056 58.2396 10.8098 58.2396 25.7211C58.2396 39.3533 45.6787 50.4988 31.9175 50.4988H25.3895Z" fill="#004C97"/>
</g>
<mask id="mask2_1255_15334" style="mask-type:alpha" maskUnits="userSpaceOnUse" x="0" y="0" width="52" height="51">
<path d="M0 0.509766H51.5625V50.4994H0V0.509766Z" fill="white"/>
</mask>
<g mask="url(#mask2_1255_15334)">
<path fill-rule="evenodd" clip-rule="evenodd" d="M25.3895 50.4988C11.4628 50.5622 0 39.3602 0 25.7211C0 10.8153 11.4628 0.505056 25.3895 0.507813H25.755C39.5148 0.505056 51.5625 10.8098 51.5625 25.7211C51.5625 39.3533 39.5148 50.4988 25.755 50.4988H25.3895Z" fill="#004C97"/>
</g>
<path fill-rule="evenodd" clip-rule="evenodd" d="M25.4449 2.57617C12.7185 2.58031 2.40625 12.8217 2.40625 25.46C2.40625 38.0956 12.7185 48.3356 25.4449 48.337C38.1728 48.337 48.4864 38.0956 48.4905 25.46C48.4864 12.8203 38.1714 2.57893 25.4449 2.57617Z" fill="#FEFEFE"/>
<path fill-rule="evenodd" clip-rule="evenodd" d="M20.214 38.9905V11.9246C14.7371 14.0198 10.8536 19.2824 10.8398 25.4603C10.8536 31.6354 14.7385 36.9008 20.214 38.9905ZM40.0535 25.4603C40.0424 19.2797 36.1534 14.0101 30.671 11.9219V38.9974C36.1534 36.9064 40.0424 31.6423 40.0521 25.4603" fill="#004C97"/>
</svg>
