<svg width="54" height="54" viewBox="0 0 54 54" fill="none" xmlns="http://www.w3.org/2000/svg">
    <g clip-path="url(#2cat1nfvwa)">
        <path d="M54 27C54 12.088 41.912 0 27 0S0 12.088 0 27s12.088 27 27 27 27-12.088 27-27z" fill="url(#p8ambnsgpb)"/>
        <path opacity=".1" d="M47.32 9.238c-3.936 7.226-9.502 14.68-16.459 21.635-6.956 6.956-14.41 12.513-21.624 16.45a25.803 25.803 0 0 1-1.318-1.23A27 27 0 1 1 46.092 7.909c.426.426.836.87 1.229 1.329z" fill="#fff"/>
        <path d="M33.394 12.791h-12.79a7.816 7.816 0 0 0-7.815 7.816v12.79a7.816 7.816 0 0 0 7.816 7.815h12.79a7.816 7.816 0 0 0 7.815-7.816v-12.79a7.816 7.816 0 0 0-7.816-7.815zm5.33 19.483a6.452 6.452 0 0 1-6.452 6.451H21.728a6.452 6.452 0 0 1-6.452-6.451V21.729a6.452 6.452 0 0 1 6.451-6.451h10.545a6.452 6.452 0 0 1 6.451 6.451v10.545z" fill="#fff"/>
        <path d="m32.182 21.872-.068-.068-.057-.057a7.162 7.162 0 0 0-5.059-2.089 7.29 7.29 0 0 0-7.24 7.343 7.372 7.372 0 0 0 2.132 5.19 7.172 7.172 0 0 0 5.122 2.133 7.365 7.365 0 0 0 5.17-12.452zm-5.184 9.947a4.818 4.818 0 1 1 4.75-4.817 4.78 4.78 0 0 1-4.75 4.817zM36.387 19.32a1.734 1.734 0 0 1-1.723 1.749 1.71 1.71 0 0 1-1.215-.508 1.752 1.752 0 0 1 1.219-2.98c.401-.001.79.14 1.098.397l.035.035c.057.047.11.1.157.157l.039.042c.254.314.392.705.39 1.109z" fill="#fff"/>
    </g>
    <defs>
        <linearGradient id="p8ambnsgpb" x1="7.908" y1="7.908" x2="46.092" y2="46.092" gradientUnits="userSpaceOnUse">
            <stop stop-color="#FAE100"/>
            <stop offset=".15" stop-color="#FCB720"/>
            <stop offset=".3" stop-color="#FF7950"/>
            <stop offset=".5" stop-color="#FF1C74"/>
            <stop offset="1" stop-color="#6C1CD1"/>
        </linearGradient>
        <clipPath id="2cat1nfvwa">
            <path fill="#fff" d="M0 0h54v54H0z"/>
        </clipPath>
    </defs>
</svg>
