<svg width="90" height="34" viewBox="0 0 90 34" fill="none" xmlns="http://www.w3.org/2000/svg">
<path fill-rule="evenodd" clip-rule="evenodd" d="M78.0486 0.562579C81.4086 0.0675793 84.4846 0.870579 86.5566 2.81858C88.4716 4.58058 89.4446 7.08358 89.1936 9.74158C88.7536 14.6566 86.3366 18.6136 79.5556 25.1356L68.4736 25.5066C68.4736 25.5066 76.1656 18.5826 79.0846 15.2136C80.9686 13.0196 81.7846 10.6696 80.9996 9.09358C80.4976 8.10358 79.3996 7.60958 78.0496 7.67158V0.561579L78.0486 0.562579ZM55.3516 4.45658V10.8556L64.9576 9.83558V3.12758L55.3516 4.45758V4.45658ZM47.5036 33.4196V5.53958L54.0956 4.61058V33.4206H47.5036V33.4196ZM21.4156 9.15458V14.5646L28.6986 13.7606V8.16558L21.4156 9.15558V9.15458ZM15.4196 33.4196V9.98958L20.4736 9.27958V33.4196H15.4196ZM0.601562 12.0296V16.8206L13.6616 15.3996V10.2366L0.601562 12.0296ZM4.77656 17.0986V33.4196H9.54856V16.6046L4.77656 17.0986ZM21.4156 24.0546V18.5516L26.1866 18.1496V23.8066L21.4156 24.0546ZM21.4156 28.0106V33.4196H28.6986V27.7926L21.4156 28.0096V28.0106ZM55.3516 22.2306V15.7086L61.6616 15.1526V21.8906L55.3516 22.2306ZM55.3516 27.0226V33.4196H64.9576V26.7116L55.3516 27.0216V27.0226ZM30.6136 33.4196V7.88758L36.3586 7.08358V33.4196H30.6136ZM37.4256 27.5466V33.4196H45.7456V27.2996L37.4256 27.5466ZM67.0926 26.6506L67.1236 33.4206H89.6016V26.0006L67.0926 26.6506ZM67.4066 14.5016C67.0296 6.77458 70.2316 2.04558 76.7616 0.685579L76.7926 7.91858C75.4126 8.47458 74.0626 9.52658 74.3756 13.8836L67.4056 14.5016H67.4066Z" fill="black"/>
</svg>
