<svg width="190" height="34" viewBox="0 0 190 34" fill="none" xmlns="http://www.w3.org/2000/svg">
<path d="M18.9375 0.433594V17.619C18.9375 18.4227 18.3125 18.979 17.5625 18.979H15.5C15.375 18.979 15.3125 19.1027 15.3125 19.1645V33.5681C15.8125 33.5681 16.3125 33.6918 16.875 33.6918C26.1875 33.6918 33.75 26.2118 33.75 17.0009C33.75 8.53177 27.3125 1.42268 18.9375 0.433594ZM18.5625 26.15C17.375 26.15 16.5 25.1609 16.5 24.11C16.5 22.9354 17.5 22.07 18.5625 22.07C19.75 22.07 20.625 23.059 20.625 24.11C20.75 25.2227 19.75 26.15 18.5625 26.15ZM23.5 26.15C22.3125 26.15 21.4375 25.1609 21.4375 24.11C21.4375 22.9354 22.4375 22.07 23.5 22.07C24.6875 22.07 25.5625 23.059 25.5625 24.11C25.5625 25.1609 24.75 26.15 23.5 26.15ZM28.5 26.15C27.3125 26.15 26.4375 25.1609 26.4375 24.11C26.4375 22.9354 27.4375 22.07 28.5 22.07C29.6875 22.07 30.5625 23.059 30.5625 24.11C30.5625 25.1609 29.6875 26.15 28.5 26.15Z" fill="#00B956"/>
<path d="M16.875 0.371094C7.5625 0.371094 0 7.85109 0 17.062C0 25.1602 5.6875 31.7747 13.3125 33.3202V18.2984C13.3125 17.6184 13.9375 17.062 14.5625 16.9384H16.625C16.75 16.9384 16.8125 16.8147 16.8125 16.7529L16.875 0.371094ZM13.625 14.0947C12.4375 14.0947 11.5625 13.1056 11.5625 12.0547C11.5625 10.8802 12.5625 10.0147 13.625 10.0147C14.8125 10.0147 15.6875 11.0038 15.6875 12.0547C15.6875 13.1056 14.75 14.0947 13.625 14.0947Z" fill="#00B956"/>
<path d="M185.812 9.45878V15.7642H177.312V9.45878H173V26.1497H177.312V19.4115H185.812V26.1497H190V9.45878H185.812ZM115.562 11.3751C114.875 9.89151 113.5 9.08787 112.125 9.08787C110.75 9.08787 109.312 9.89151 108.687 11.3751L101.875 26.2115H106.375L107.875 22.6879H116.625L118.125 26.2115H122.625L115.562 11.3751ZM109.062 19.3497L111.625 13.2297C111.75 13.0442 111.812 13.0442 111.938 13.0442C112.062 13.0442 112.25 13.0442 112.25 13.2297L114.812 19.3497H109.062ZM65.3125 6.49151C63.3125 6.49151 62.0625 7.54242 61.125 9.64423L55.6875 22.1933L50.1875 9.58242C49.3125 7.54242 48 6.42969 46 6.42969C44.125 6.42969 42.25 7.66605 42.25 10.5715V26.0879H46.4375V11.1279L52 23.5533C52.6875 25.3461 54 26.397 55.6875 26.397C57.5 26.397 58.6875 25.3461 59.375 23.5533L64.9375 11.1279V26.2733H69.125V10.757C69.0625 7.85151 67.1875 6.49151 65.3125 6.49151ZM76.5 22.6261C76.3125 22.6261 76.0625 22.4406 76.0625 22.1933V19.2261H86.5625V15.8261H76.0625V13.2915C76.0625 13.1061 76.25 12.8588 76.5 12.8588H86.9375V9.33514H74.4375C72.9375 9.33514 71.9375 10.5097 71.9375 11.8079V23.4915C71.9375 24.7279 73 25.9642 74.4375 25.9642H86.9375V22.4406H76.5V22.6261ZM94 26.1497V13.4151C94 13.2297 94.1875 12.9824 94.4375 12.9824H104.875V9.45878H92.375C90.875 9.45878 89.875 10.6333 89.875 11.9315V26.0879L94 26.1497ZM170.25 17.8661C170.25 12.0551 167.687 9.33514 161.312 9.33514H159.812C153.437 9.33514 150.875 12.117 150.875 17.8661C150.875 23.5533 153.437 26.397 159.812 26.397H161.187C167.687 26.2733 170.25 23.5533 170.25 17.8661ZM161.187 22.8733H159.812C156.375 22.8733 154.937 21.3279 154.937 17.8661C154.937 14.5279 156.125 12.8588 159.812 12.8588H161.187C164.75 12.8588 166.062 14.5279 166.062 17.8661C166.062 21.2661 164.75 22.8733 161.187 22.8733ZM139.187 6.86242H130.812C124.562 6.86242 122.062 10.0151 122.062 15.3933C122.062 16.2588 122.187 17.0624 122.25 17.7424C122.937 21.5751 125.25 23.9242 131.062 23.9242H132.937V26.0879H137.125V23.9242H138.938C144.812 23.9242 147.125 21.5751 147.75 17.7424C147.875 17.0624 147.937 16.2588 147.937 15.3933C147.875 10.0151 145.312 6.86242 139.187 6.86242ZM132.812 20.4624H130.937C128.062 20.4624 127.062 19.4115 126.438 17.6806C126.25 17.0624 126.25 16.197 126.25 15.3315C126.25 11.8079 127.937 10.3242 130.312 10.3242H132.875V20.4624H132.812ZM143.562 17.8661C142.937 19.5351 141.875 20.6479 139.062 20.6479H137.187V10.4479H139.75C142.125 10.4479 143.812 11.9315 143.812 15.4551C143.75 16.3824 143.75 17.1242 143.562 17.8661Z" fill="#00B956"/>
</svg>
