<svg width="82" height="82" viewBox="0 0 82 82" fill="none" xmlns="http://www.w3.org/2000/svg">
<path d="M12.1719 12.3008C6.02187 12.3008 1.28125 16.2727 1.28125 23.1914V42.9227C1.79375 45.357 4.35625 47.1508 7.175 47.1508C10.3781 47.1508 12.6844 44.8445 12.6844 42.0258V32.032H21.3969V41.8977C21.3969 47.407 14.35 50.2258 9.225 50.2258C6.27812 50.2258 3.45938 49.3289 1.40938 47.7914V69.5727H15.2469C20.1156 69.5727 25.7531 64.9602 25.7531 59.0664V12.3008H12.1719Z" fill="#1174CE"/>
<path d="M1.28125 23.1914V42.9227C1.79375 45.357 4.35625 47.1508 7.175 47.1508C10.3781 47.1508 12.6844 44.8445 12.6844 42.0258V32.032H21.3969V41.8977C21.3969 47.407 14.35 50.2258 9.225 50.2258C6.27812 50.2258 3.45938 49.3289 1.40938 47.7914V69.5727H15.2469C20.1156 69.5727 25.7531 64.9602 25.7531 59.0664V12.3008" fill="#0F549D"/>
<path d="M21.2688 32.0312V41.8969C21.2688 47.4063 14.2219 50.225 9.09687 50.225C6.15 50.225 3.33125 49.3281 1.28125 47.7906V69.5719H15.1188C19.9875 69.5719 25.625 64.9594 25.625 59.0656" fill="#02375E"/>
<path d="M60.6016 46.8937H66.6234C68.1609 46.8937 69.5703 45.4844 69.5703 43.9469C69.5703 42.4094 68.1609 41 66.6234 41H60.6016V46.8937Z" fill="#146643"/>
<path d="M67.3937 12.3008C61.1156 12.3008 56.5031 16.2727 56.5031 23.0633V32.032H72.6469C74.9531 32.032 76.875 33.9539 76.875 36.2602C76.875 38.5664 74.9531 40.4883 72.6469 40.4883C75.2094 40.4883 77.2594 42.282 77.2594 44.5883C77.2594 46.8945 75.3375 48.6883 72.6469 48.6883H56.375V69.5727H70.2125C75.0812 69.5727 80.7188 64.9602 80.7188 59.0664V12.3008H67.3937Z" fill="#1BCC38"/>
<path d="M56.375 23.1914V32.032H72.5187C74.825 32.032 76.7469 33.9539 76.7469 36.2602C76.7469 38.5664 74.825 40.4883 72.5187 40.4883C75.0812 40.4883 77.1313 42.282 77.1313 44.5883C77.1313 46.8945 75.2094 48.6883 72.5187 48.6883H56.375V69.5727H70.2125C75.0812 69.5727 80.7188 64.9602 80.7188 59.0664V12.3008" fill="#329947"/>
<path d="M76.7469 36.2598C76.7469 38.566 74.825 40.4879 72.5187 40.4879C75.0812 40.4879 77.1313 42.2816 77.1313 44.5879C77.1313 46.8941 75.2094 48.6879 72.5187 48.6879H56.375V69.5723H70.2125C75.0812 69.5723 80.7188 64.9598 80.7188 59.066" fill="#146643"/>
<path d="M69.4422 36.773C69.4422 35.2355 68.0328 33.8262 66.4953 33.8262H60.6016V39.5918H66.6234C68.1609 39.5918 69.4422 38.3105 69.4422 36.773Z" fill="#146643"/>
<path d="M39.5898 12.3008C33.3117 12.3008 28.6992 16.2727 28.6992 23.0633V34.082C30.2367 32.8008 32.1586 31.9039 34.2086 31.9039H48.8148V34.9789C45.3555 34.2102 42.0242 33.8258 40.3586 33.8258C36.7711 33.8258 33.8242 36.7727 33.8242 40.3602C33.8242 43.9477 36.7711 46.8945 40.3586 46.8945C42.0242 46.8945 45.3555 46.6383 48.8148 45.8695V48.6883H34.2086C32.1586 48.6883 30.1086 47.9195 28.6992 46.5102V69.5727H42.5367C47.4055 69.5727 53.043 64.9602 53.043 59.0664V12.3008H39.5898Z" fill="#E20E37"/>
<path d="M28.6992 23.1914V34.2102C30.2367 32.9289 32.1586 32.032 34.2086 32.032H48.8148V35.107C45.3555 34.3383 42.0242 33.9539 40.3586 33.9539C36.7711 33.9539 33.8242 36.9008 33.8242 40.4883C33.8242 44.0758 36.7711 47.0227 40.3586 47.0227C42.0242 47.0227 45.3555 46.7664 48.8148 45.9977V48.6883H34.2086C32.1586 48.6883 30.1086 47.9195 28.6992 46.5102V69.5727H42.5367C47.4055 69.5727 53.043 64.9602 53.043 59.0664V12.3008" fill="#B41F36"/>
<path d="M48.8148 32.0312V35.1062C45.3555 34.3375 42.0242 33.9531 40.3586 33.9531C36.7711 33.9531 33.8242 36.9 33.8242 40.4875C33.8242 44.075 36.7711 47.0219 40.3586 47.0219C42.0242 47.0219 45.3555 46.7656 48.8148 45.9969V48.6875H34.2086C32.1586 48.6875 30.1086 47.9188 28.6992 46.5094V69.5719H42.5367C47.4055 69.5719 53.043 64.9594 53.043 59.0656" fill="#720A1E"/>
</svg>
