<svg width="121" height="121" viewBox="0 0 121 121" fill="none" xmlns="http://www.w3.org/2000/svg">
<g clip-path="url(#clip0_1255_15319)">
<path d="M-0.0742188 0.0761719H121.001V65.3141L115.008 74.6604L121.001 82.9787V120.925H-0.0742188V59.4259L3.67136 55.1265L-0.0742188 51.0141V0.0761719Z" fill="#016FD0"/>
<path d="M23.4292 84.2858V65.3126H43.556L45.7154 68.1224L47.9463 65.3126H121.001V82.9775C121.001 82.9775 119.091 84.2669 116.881 84.2859H76.4291L73.9945 81.295V84.2859H66.0164V79.1804C66.0164 79.1804 64.9266 79.893 62.5705 79.893H59.855V84.2859H47.7755L45.6191 81.4159L43.4297 84.2859L23.4292 84.2858ZM-0.0742188 51.0126L4.46443 40.4512H12.3136L14.8893 46.3673V40.4512H24.6465L26.1799 44.7271L27.6664 40.4512H71.4663V42.6009C71.4663 42.6009 73.7688 40.4512 77.5528 40.4512L91.7643 40.5008L94.2955 46.3394V40.4512H102.461L104.708 43.805V40.4512H112.948V59.4244H104.708L102.554 56.0596V59.4243H90.5578L89.3513 56.4335H86.1263L84.9394 59.4243H76.8037C73.5476 59.4243 71.4663 57.3186 71.4663 57.3186V59.4243H59.1994L56.7648 56.4336V59.4244H11.1509L9.94521 56.4336H6.73018L5.5334 59.4243H-0.0742188V51.0126Z" fill="white"/>
<path d="M6.07087 42.7915L-0.0507812 56.998H3.93476L5.06429 54.1532H11.6308L12.7544 56.998H16.8278L10.7117 42.7915H6.07087ZM8.33577 46.0977L10.3373 51.0689H6.32843L8.33577 46.0977ZM17.2491 56.9956V42.7891L22.9127 42.81L26.2068 51.9696L29.4221 42.7891H35.0405V56.9956H31.4822V46.5276L27.7103 56.9956H24.5897L20.8074 46.5276V56.9956H17.2491ZM37.4751 56.9956V42.7891H49.0864V45.9668H41.0709V48.3968H48.8991V51.3878H41.0709V53.9113H49.0864V56.9956H37.4751ZM51.1465 42.7915V56.998H54.7048V51.9509H56.203L60.4694 56.998H64.8178L60.1358 51.764C62.0574 51.6021 64.0395 49.956 64.0395 47.4004C64.0395 44.4109 61.6886 42.7915 59.0649 42.7915H51.1465ZM54.7048 45.9692H58.7722C59.748 45.9692 60.4577 46.731 60.4577 47.4646C60.4577 48.4084 59.5381 48.9601 58.825 48.9601H54.7048V45.9692ZM69.1253 56.9956H65.4921V42.7891H69.1253V56.9956ZM77.74 56.9956H76.9559C73.1614 56.9956 70.8576 54.0117 70.8576 49.9507C70.8576 45.7893 73.1356 42.7891 77.9273 42.7891H81.8602V46.1538H77.7836C75.8384 46.1538 74.4627 47.669 74.4627 49.9857C74.4627 52.737 76.0358 53.8926 78.3019 53.8926H79.2383L77.74 56.9956ZM85.4829 42.7915L79.3612 56.998H83.3468L84.4762 54.1532H91.0427L92.1664 56.998H96.2397L90.1239 42.7915H85.4829ZM87.7478 46.0977L89.7493 51.0689H85.7403L87.7478 46.0977ZM96.6552 56.9956V42.7891H101.179L106.955 51.7149V42.7891H110.514V56.9956H106.136L100.213 47.8362V56.9956H96.6552ZM25.8639 81.8569V67.6504H37.4751V70.8282H29.4596V73.2583H37.2878V76.2492H29.4596V78.7727H37.4751V81.8569H25.8639ZM82.7592 81.8569V67.6504H94.3704V70.8282H86.3549V73.2583H94.1457V76.2492H86.3547V78.7727H94.3702V81.8569H82.7592ZM37.9258 81.8569L43.5793 74.8414L37.7912 67.6504H42.2742L45.7214 72.0958L49.1802 67.6504H53.4877L47.7757 74.7537L53.4395 81.8569H48.9573L45.6102 77.4818L42.3445 81.8569H37.9258ZM53.8621 67.6529V81.8594H57.514V77.3732H61.2596C64.4288 77.3732 66.8311 75.6949 66.8311 72.4313C66.8311 69.7276 64.947 67.6529 61.7219 67.6529H53.8621ZM57.514 70.8658H61.4585C62.4824 70.8658 63.2142 71.4921 63.2142 72.5013C63.2142 73.4494 62.4861 74.1369 61.4468 74.1369H57.514V70.8658ZM68.3761 67.6504V81.8569H71.9344V76.8099H73.4327L77.6991 81.8569H82.0474L77.3656 76.623C79.287 76.4612 81.269 74.815 81.269 72.2593C81.269 69.2698 78.9182 67.6504 76.2945 67.6504H68.3761ZM71.9344 70.8282H76.0019C76.9776 70.8282 77.6875 71.59 77.6875 72.3237C77.6875 73.2674 76.7678 73.819 76.0546 73.819H71.9344V70.8282ZM96.0184 81.8569V78.7727H103.14C104.193 78.7727 104.65 78.2043 104.65 77.581C104.65 76.9837 104.195 76.38 103.14 76.38H99.9217C97.1245 76.38 95.5667 74.6791 95.5667 72.1251C95.5667 69.8471 96.9932 67.6504 101.15 67.6504H108.079L106.581 70.847H100.588C99.4425 70.847 99.0899 71.4469 99.0899 72.02C99.0899 72.6087 99.5256 73.2583 100.401 73.2583H103.772C106.89 73.2583 108.243 75.0237 108.243 77.3356C108.243 79.8213 106.735 81.8569 103.602 81.8569H96.0184ZM109.078 81.8569V78.7727H116.199C117.253 78.7727 117.709 78.2043 117.709 77.581C117.709 76.9837 117.255 76.38 116.199 76.38H112.981C110.184 76.38 108.626 74.6791 108.626 72.1251C108.626 69.8471 110.053 67.6504 114.21 67.6504H121.139L119.641 70.847H113.648C112.502 70.847 112.15 71.4469 112.15 72.02C112.15 72.6087 112.585 73.2583 113.461 73.2583H116.832C119.95 73.2583 121.303 75.0237 121.303 77.3356C121.303 79.8213 119.795 81.8569 116.662 81.8569H109.078Z" fill="#016FD0"/>
</g>
<defs>
<clipPath id="clip0_1255_15319">
<rect width="121" height="121" fill="white"/>
</clipPath>
</defs>
</svg>
