<svg width="136" height="34" viewBox="0 0 136 34" fill="none" xmlns="http://www.w3.org/2000/svg">
<path fill-rule="evenodd" clip-rule="evenodd" d="M0 20.589C0 27.2663 3.73188 34 12.0888 34C20.4381 34 24.1774 27.2663 24.1774 20.589C24.1774 16.028 22.644 10.7757 20.0845 6.53341C17.5954 2.43672 14.6048 0 12.0888 0C9.56552 0 6.57355 2.43672 4.10611 6.53341C1.53455 10.7757 0 16.028 0 20.589Z" fill="#E30611"/>
<path fill-rule="evenodd" clip-rule="evenodd" d="M85.8292 10.0185H77.3672V1.82227H103.358V10.0185H94.8959V32.1793H85.8292V10.0185Z" fill="#E30611"/>
<path fill-rule="evenodd" clip-rule="evenodd" d="M122.698 10.0188H135.996V1.82227H122.699C110.48 1.82227 103.957 7.92409 103.957 17.001C103.957 26.0778 110.48 32.1795 122.699 32.1795H135.996V23.983H122.698C117.044 23.983 113.326 21.9529 113.326 17.001C113.326 12.049 117.044 10.0188 122.698 10.0188Z" fill="#E30611"/>
<path fill-rule="evenodd" clip-rule="evenodd" d="M54.0931 19.9421L58.9266 1.82227H74.9483V32.1795H65.8813V7.47145L59.2907 32.1795H48.8952L42.3089 7.48716L42.3084 32.1795H33.2422V1.82227H49.2593L54.0931 19.9421Z" fill="#E30611"/>
</svg>
