<svg width="82" height="51" viewBox="0 0 82 51" fill="none" xmlns="http://www.w3.org/2000/svg">
<path fill-rule="evenodd" clip-rule="evenodd" d="M29.6055 45.4815H51.5522V5.44336H29.6055V45.4815Z" fill="#FF5F00"/>
<path fill-rule="evenodd" clip-rule="evenodd" d="M31.0006 25.4633C31.0006 17.3405 34.7468 10.1061 40.5805 5.44419C36.3138 2.03423 30.9309 0 25.0799 0C11.2283 0 0 11.4005 0 25.4633C0 39.5261 11.2283 50.9265 25.0799 50.9265C30.9309 50.9265 36.3138 48.8923 40.5805 45.4823C34.7468 40.8197 31.0006 33.586 31.0006 25.4633Z" fill="#EB001B"/>
<path fill-rule="evenodd" clip-rule="evenodd" d="M80.3794 41.242V40.2539H80.1251L79.8332 40.9336L79.5406 40.2539H79.2863V41.242H79.4653V40.4965L79.7398 41.1394H79.9258L80.2004 40.4951V41.242H80.3794ZM78.7693 41.242V40.4222H79.0954V40.2553H78.2663V40.4222H78.5916V41.242H78.7693ZM81.1625 25.4633C81.1625 39.5261 69.9335 50.9265 56.0827 50.9265C50.2316 50.9265 44.8481 48.8923 40.582 45.4823C46.4157 40.8204 50.1619 33.586 50.1619 25.4633C50.1619 17.3412 46.4157 10.1068 40.582 5.44419C44.8481 2.03423 50.2316 0 56.0827 0C69.9335 0 81.1625 11.4005 81.1625 25.4633Z" fill="#F79E1B"/>
</svg>
