<svg width="54" height="54" viewBox="0 0 54 54" fill="none" xmlns="http://www.w3.org/2000/svg">
    <g clip-path="url(#u2btbp4b8a)">
        <path d="M54 27C54 12.088 41.912 0 27 0S0 12.088 0 27s12.088 27 27 27 27-12.088 27-27z" fill="url(#8bf087afkb)"/>
        <path opacity=".1" d="M47.32 9.238c-3.936 7.226-9.502 14.68-16.459 21.635-6.956 6.956-14.41 12.513-21.624 16.45a25.803 25.803 0 0 1-1.318-1.23A27 27 0 1 1 46.092 7.909c.426.426.836.87 1.229 1.329z" fill="#fff"/>
        <path fill-rule="evenodd" clip-rule="evenodd" d="M26.694 35.041h1.698c.288-.036.559-.16.774-.355.157-.217.239-.478.235-.746 0 0-.032-2.277 1.026-2.615 1.06-.337 2.38 2.203 3.802 3.198 1.066.735 1.886.575 1.886.575l3.798-.053s1.986-.124 1.045-1.684c-.079-.128-.551-1.155-2.843-3.265-2.38-2.21-2.06-1.85.807-5.684 1.748-2.327 2.444-3.748 2.227-4.356-.216-.607-1.492-.426-1.492-.426l-4.263.025a.973.973 0 0 0-.554.1 1.222 1.222 0 0 0-.38.465 24.602 24.602 0 0 1-1.578 3.332c-1.904 3.23-2.664 3.4-2.973 3.198-.71-.47-.544-1.88-.544-2.882 0-3.13.473-4.437-.927-4.774a7.16 7.16 0 0 0-1.993-.2c-1.524 0-2.814 0-3.553.356-.486.238-.863.77-.632.8.486.044.936.272 1.261.635.437.594.423 1.933.423 1.933s.252 3.687-.59 4.146c-.575.312-1.364-.33-3.062-3.262a27.347 27.347 0 0 1-1.524-3.161 1.3 1.3 0 0 0-.355-.477 1.243 1.243 0 0 0-.22-.124 1.66 1.66 0 0 0-.711-.138l-3.802.024s-.61 0-.834.285c-.224.284 0 .71 0 .71s3.2 7.447 6.8 11.209c3.3 3.435 7.048 3.197 7.048 3.197v.014z" fill="#fff"/>
    </g>
    <defs>
        <radialGradient id="8bf087afkb" cx="0" cy="0" r="1" gradientUnits="userSpaceOnUse" gradientTransform="matrix(27 0 0 27 27 27)">
            <stop stop-color="#5F92CC"/>
            <stop offset="1" stop-color="#4C75A3"/>
        </radialGradient>
        <clipPath id="u2btbp4b8a">
            <path fill="#fff" d="M0 0h54v54H0z"/>
        </clipPath>
    </defs>
</svg>
