<svg width="140" height="41" viewBox="0 0 140 41" fill="none" xmlns="http://www.w3.org/2000/svg">
<g clip-path="url(#clip0_1255_15302)">
<path d="M49.4688 41.4123L56.5451 -0.0546875H67.8635L60.782 41.4123H49.4688Z" fill="#0E4595"/>
<path d="M101.674 0.839262C99.4315 -0.000826478 95.9178 -0.902344 91.5296 -0.902344C80.3455 -0.902344 72.4678 4.72176 72.4005 12.7822C72.3375 18.7406 78.0247 22.0645 82.318 24.048C86.7238 26.0809 88.2048 27.377 88.1836 29.1917C88.1554 31.9715 84.6654 33.2409 81.4118 33.2409C76.882 33.2409 74.4753 32.6124 70.7581 31.0647L69.2993 30.4055L67.7109 39.6882C70.3546 40.846 75.2429 41.8486 80.319 41.9007C92.2169 41.9007 99.9406 36.3407 100.028 27.7331C100.071 23.0158 97.0554 19.4263 90.5252 16.4667C86.5692 14.5484 84.1463 13.2684 84.172 11.326C84.172 9.60237 86.2228 7.7593 90.6542 7.7593C94.3551 7.70189 97.0365 8.50788 99.1255 9.34797L100.14 9.82648L101.674 0.839262Z" fill="#0E4595"/>
<path d="M130.798 -0.0546875H122.053C119.343 -0.0546875 117.316 0.683725 116.126 3.38404L99.3164 41.3854H111.202C111.202 41.3854 113.145 36.2761 113.584 35.154C114.883 35.154 126.429 35.1718 128.08 35.1718C128.418 36.6237 129.457 41.3854 129.457 41.3854H139.959L130.798 -0.0546875ZM116.922 26.7214C117.858 24.3322 121.432 15.1296 121.432 15.1296C121.365 15.24 122.361 12.7288 122.932 11.1719L123.697 14.7471C123.697 14.7471 125.865 24.6453 126.318 26.7208H116.922V26.7214Z" fill="#0E4595"/>
<path d="M0.187559 -0.0546875L0.0429688 0.807911C4.51723 1.88948 8.51339 3.45489 12.0121 5.40223L22.0551 41.3459L34.0304 41.3326L51.8494 -0.0546875H39.8592L28.7783 28.2228L27.598 22.4759C27.5427 22.2983 27.4826 22.1205 27.4211 21.9422L23.5689 3.44618C22.884 0.820425 20.897 0.0368199 18.4387 -0.0546875H0.187559Z" fill="#0E4595"/>
</g>
<defs>
<clipPath id="clip0_1255_15302">
<rect width="140" height="41" fill="white"/>
</clipPath>
</defs>
</svg>
