<svg width="1933" height="120" viewBox="0 0 1933 120" fill="none" xmlns="http://www.w3.org/2000/svg">
<g clip-path="url(#clip0_1371_27345)">
<path fill-rule="evenodd" clip-rule="evenodd" d="M1932 -597H0V-0.142395V120H1932V19.8528C1932 19.8528 1740.19 168.317 1572.48 70.8403C1467.69 9.93542 1409.84 39.3854 1355.81 66.8865C1323.37 83.4 1292.31 99.2109 1253.3 94.3347C1221.54 90.3651 1191.13 78.0487 1159.46 65.2186C1087.42 36.041 1008.83 4.2066 892.857 61.8425C795.199 110.375 722.392 75.4887 651.136 41.3448C600.561 17.1105 550.766 -6.74951 493.421 -0.142395C430.297 7.13055 383.8 22.996 342.66 37.0332C293.77 53.7149 252.448 67.8146 199.781 61.8425C197.42 61.5748 195.098 61.3121 192.813 61.0536C101.263 50.6962 70.0533 47.1653 0 -0.142395L0.000488202 -527.515C19.8211 -512.18 92.0082 -533.332 169.576 -556.062C236.131 -575.564 306.648 -596.228 351.444 -595.998C432.294 -595.584 483.919 -572.952 528.921 -553.224C573.434 -533.71 611.467 -517.037 664.894 -527.515C731.033 -540.485 775.703 -553.594 811.649 -564.143C867.955 -580.667 902.858 -590.91 965.345 -584.501C1005.03 -580.431 1046.95 -562.225 1089.43 -543.78C1144.18 -520.006 1199.85 -495.835 1252.8 -501.021C1295.2 -505.174 1328.34 -517.216 1361.91 -529.415C1411.69 -547.507 1462.43 -565.945 1545.75 -559.507C1595.46 -555.666 1637.34 -543.644 1678.29 -531.886C1752.27 -510.649 1823.24 -490.272 1932 -520.516V-597Z" fill="white"/>
<path fill-rule="evenodd" clip-rule="evenodd" d="M1679.86 -554.061C1640.59 -572.719 1601.29 -591.388 1548.5 -595.467C1466.36 -601.813 1415.54 -580.524 1366.14 -559.832C1331.63 -545.375 1297.81 -531.209 1254.5 -526.967C1200.39 -521.667 1144.12 -542.052 1088.78 -562.098C1047.92 -576.896 1007.58 -591.509 969 -595.467C910.55 -601.462 875.417 -589.142 824.45 -571.27C798.543 -562.185 768.545 -551.666 729.314 -541.388C762.928 -549.552 789.584 -557.375 812.649 -564.143C868.955 -580.667 903.858 -590.91 966.345 -584.501C1006.03 -580.431 1047.95 -562.225 1090.43 -543.78C1145.18 -520.006 1200.85 -495.835 1253.8 -501.021C1296.2 -505.174 1329.34 -517.216 1362.91 -529.415C1412.69 -547.507 1463.43 -565.945 1546.75 -559.507C1596.46 -555.666 1638.34 -543.644 1679.29 -531.886C1753.27 -510.649 1824.24 -490.272 1933 -520.516V8.05023C1933.01 8.03906 1933.02 8.03345 1933.02 8.03345V-526.967C1808.87 -492.775 1744.4 -523.402 1679.86 -554.061ZM1852.44 66.947C1781.07 99.908 1673.03 128.699 1573.48 70.8403C1468.69 9.93542 1410.84 39.3854 1356.81 66.8865C1324.37 83.4 1293.31 99.2109 1254.3 94.3347C1222.54 90.3651 1192.13 78.0487 1160.46 65.2186C1088.42 36.041 1009.83 4.2066 893.857 61.8425C796.199 110.375 723.392 75.4887 652.136 41.3448C601.561 17.1105 551.766 -6.74951 494.421 -0.142395C431.297 7.13055 384.8 22.996 343.66 37.0332C294.77 53.7149 253.448 67.8146 200.781 61.8425C198.42 61.5748 196.098 61.3121 193.813 61.0536C102.263 50.6962 71.0533 47.1653 1 -0.142395L1.00025 30.311C1.00025 30.311 136 104.033 233 115.033C285.633 121.002 324.186 107.786 370.515 91.904C409.567 78.5165 454.145 63.2349 517.338 55.9533C573.317 49.5031 618.353 66.2686 663.231 82.9756C729.117 107.503 794.663 131.904 894 82.5334C1009.99 24.8835 1088.6 56.7258 1160.64 85.9104C1192.32 98.7436 1222.74 111.063 1254.5 115.033C1293.52 119.911 1324.58 104.096 1357.03 87.5787C1411.07 60.0709 1468.93 30.6138 1573.74 91.5334C1673.25 149.376 1781.14 109.2 1852.44 66.947ZM3.11776 -526.122C5.09567 -525.016 7.44282 -524.167 10.1302 -523.552C7.7926 -524.352 5.45507 -525.208 3.11776 -526.122Z" fill="url(#paint0_linear_1371_27345)"/>
</g>
<defs>
<linearGradient id="paint0_linear_1371_27345" x1="225.287" y1="-233.247" x2="1921.99" y2="-463.474" gradientUnits="userSpaceOnUse">
<stop stop-color="#19ACFF"/>
<stop offset="1" stop-color="#0D75EF"/>
</linearGradient>
<clipPath id="clip0_1371_27345">
<rect width="1933" height="120" fill="white"/>
</clipPath>
</defs>
</svg>
