<svg width="1933" height="95" viewBox="0 0 1933 95" fill="none" xmlns="http://www.w3.org/2000/svg">
<g clip-path="url(#clip0_1371_27344)">
<path fill-rule="evenodd" clip-rule="evenodd" d="M1932 0H0V69.4854C19.8213 84.8203 92.0088 63.6675 169.576 40.938C236.131 21.4355 306.647 0.772461 351.443 1.00195C432.294 1.4165 483.92 24.0479 528.922 43.7759C573.435 63.2896 611.468 79.9629 664.894 69.4854C731.032 56.5151 775.702 43.4062 811.648 32.8569C867.955 16.333 902.858 6.08984 965.346 12.499C1005.03 16.5693 1046.95 34.7749 1089.43 53.2197C1144.18 76.9937 1199.84 101.165 1252.8 95.979C1295.2 91.8262 1328.34 79.7842 1361.91 67.585C1411.69 49.4932 1462.43 31.0552 1545.75 37.4932C1595.46 41.3345 1637.34 53.356 1678.29 65.1138C1752.27 86.3511 1823.24 106.728 1932 76.4839V0ZM1932 616.853C1932 616.853 1740.19 765.317 1572.48 667.84C1467.69 606.936 1409.84 636.385 1355.81 663.887C1323.37 680.4 1292.31 696.211 1253.3 691.335C1221.54 687.365 1191.13 675.049 1159.46 662.219C1087.42 633.041 1008.83 601.207 892.857 658.843C795.198 707.375 722.393 672.489 651.136 638.344C600.561 614.11 550.766 590.25 493.421 596.857C430.297 604.13 383.799 619.996 342.66 634.033C293.771 650.715 252.448 664.814 199.781 658.843L192.813 658.053C101.263 647.696 70.0537 644.165 0 596.857V717H1932V616.853Z" fill="white"/>
<path fill-rule="evenodd" clip-rule="evenodd" d="M1679.86 42.9391C1640.59 24.2815 1601.29 5.6123 1548.5 1.53343C1466.36 -4.81334 1415.54 16.4763 1366.14 37.1679C1331.63 51.6254 1297.81 65.7911 1254.5 70.0335C1200.39 75.3329 1144.12 54.9477 1088.78 34.9023C1047.92 20.1041 1007.58 5.49102 969 1.53343C910.55 -4.46233 875.417 7.85788 824.45 25.7301C798.543 34.815 768.545 45.3344 729.313 55.6119C762.928 47.4482 789.584 39.6254 812.649 32.8567C868.955 16.3327 903.858 6.08978 966.345 12.4992C1006.03 16.5694 1047.95 34.7751 1090.43 53.2201C1145.18 76.9937 1200.85 101.165 1253.8 95.9789C1296.2 91.8261 1329.34 79.784 1362.91 67.5848C1412.69 49.4929 1463.43 31.0553 1546.75 37.4931C1596.46 41.3341 1638.34 53.356 1679.29 65.114C1753.27 86.3512 1824.24 106.728 1933 76.4837V605.05C1933.01 605.039 1933.02 605.033 1933.02 605.033V70.0335C1808.87 104.225 1744.4 73.5978 1679.86 42.9391ZM1852.44 663.947C1781.07 696.908 1673.03 725.699 1573.48 667.84C1468.69 606.935 1410.84 636.385 1356.81 663.886C1324.37 680.4 1293.31 696.211 1254.3 691.335C1222.54 687.365 1192.13 675.049 1160.46 662.219C1088.42 633.041 1009.83 601.207 893.857 658.843C796.199 707.375 723.392 672.489 652.136 638.345C601.561 614.111 551.766 590.25 494.421 596.858C431.297 604.131 384.8 619.996 343.66 634.033C294.77 650.715 253.448 664.815 200.781 658.843C198.42 658.575 196.098 658.312 193.813 658.054C102.263 647.696 71.0533 644.165 1 596.858L1.00025 627.311C1.00025 627.311 136 701.033 233 712.033C285.633 718.002 324.186 704.786 370.515 688.904C409.567 675.516 454.145 660.235 517.338 652.953C573.317 646.503 618.353 663.269 663.231 679.976C729.117 704.503 794.663 728.904 894 679.533C1009.99 621.884 1088.6 653.726 1160.64 682.91C1192.32 695.744 1222.74 708.063 1254.5 712.033C1293.52 716.911 1324.58 701.096 1357.03 684.579C1411.07 657.071 1468.93 627.614 1573.74 688.533C1673.25 746.376 1781.14 706.2 1852.44 663.947ZM3.11776 70.8775C5.09567 71.9839 7.44283 72.8334 10.1302 73.4478C7.79261 72.6477 5.45507 71.7915 3.11776 70.8775Z" fill="url(#paint0_linear_1371_27344)"/>
</g>
<defs>
<linearGradient id="paint0_linear_1371_27344" x1="225.287" y1="363.753" x2="1921.99" y2="133.526" gradientUnits="userSpaceOnUse">
<stop stop-color="#19ACFF"/>
<stop offset="1" stop-color="#0D75EF"/>
</linearGradient>
<clipPath id="clip0_1371_27344">
<rect width="1933" height="95" fill="white"/>
</clipPath>
</defs>
</svg>
