<svg width="600" height="38" viewBox="0 0 600 38" fill="none" xmlns="http://www.w3.org/2000/svg">
<g clip-path="url(#clip0_1371_28653)">
<path fill-rule="evenodd" clip-rule="evenodd" d="M599.121 -185.132H-0.000976562V-0.0440826V37.2126H599.121V6.15651C599.121 6.15651 539.641 52.1958 487.633 21.968C455.138 3.0811 437.196 12.2137 420.442 20.7419C410.382 25.8628 400.75 30.7658 388.652 29.2537C378.803 28.0227 369.374 24.2033 359.552 20.2247C337.214 11.1766 312.843 1.30457 276.878 19.1777C246.594 34.228 224.016 23.4094 201.919 12.8212C186.236 5.30611 170.794 -2.09299 153.011 -0.0440826C133.436 2.21129 119.017 7.13124 106.259 11.4842C91.0985 16.6573 78.2841 21.0297 61.952 19.1777C61.2197 19.0947 60.4996 19.0132 59.7912 18.9331C31.4012 15.7212 21.7229 14.6263 -0.000976562 -0.0440826L-0.000825169 -163.585C6.14564 -158.829 28.5312 -165.389 52.5852 -172.437C73.2243 -178.485 95.0918 -184.893 108.983 -184.822C134.055 -184.693 150.064 -177.675 164.02 -171.557C177.823 -165.506 189.618 -160.336 206.186 -163.585C226.696 -167.607 240.548 -171.672 251.695 -174.943C269.156 -180.067 279.979 -183.244 299.357 -181.256C311.662 -179.994 324.664 -174.348 337.837 -168.629C354.815 -161.256 372.076 -153.761 388.497 -155.369C401.647 -156.657 411.922 -160.391 422.332 -164.174C437.771 -169.784 453.504 -175.502 479.343 -173.506C494.76 -172.314 507.745 -168.586 520.445 -164.94C543.385 -158.354 565.394 -152.036 599.121 -161.414V-185.132Z" fill="white"/>
<path fill-rule="evenodd" clip-rule="evenodd" d="M520.932 -171.817C508.753 -177.603 496.566 -183.392 480.196 -184.657C454.725 -186.625 438.964 -180.023 423.647 -173.606C412.944 -169.123 402.458 -164.73 389.025 -163.415C372.247 -161.771 354.795 -168.093 337.634 -174.309C324.965 -178.898 312.455 -183.43 300.491 -184.657C282.365 -186.516 271.47 -182.696 255.665 -177.153C247.631 -174.336 238.329 -171.074 226.163 -167.887C236.587 -170.419 244.853 -172.844 252.006 -174.943C269.466 -180.067 280.29 -183.244 299.668 -181.256C311.973 -179.994 324.975 -174.348 338.147 -168.629C355.125 -161.256 372.387 -153.761 388.808 -155.369C401.957 -156.657 412.233 -160.391 422.643 -164.174C438.081 -169.784 453.814 -175.502 479.654 -173.506C495.07 -172.314 508.056 -168.586 520.756 -164.94C543.695 -158.354 565.705 -152.036 599.432 -161.414V2.49654C599.435 2.49306 599.437 2.4913 599.437 2.4913V-163.415C560.937 -152.812 540.944 -162.309 520.932 -171.817ZM574.45 20.7605C552.316 30.9819 518.814 39.9103 487.944 21.968C455.448 3.0811 437.507 12.2137 420.753 20.7419C410.693 25.8628 401.061 30.7658 388.963 29.2537C379.114 28.0227 369.685 24.2033 359.862 20.2247C337.525 11.1766 313.153 1.30457 277.189 19.1777C246.904 34.228 224.327 23.4094 202.23 12.8212C186.546 5.30611 171.105 -2.09299 153.322 -0.0440826C133.747 2.21129 119.328 7.13124 106.57 11.4842C91.409 16.6573 78.5947 21.0297 62.2625 19.1777C61.5303 19.0947 60.8102 19.0132 60.1017 18.9331C31.7117 15.7212 22.0334 14.6263 0.30957 -0.0440826L0.309647 9.39966C0.309647 9.39966 42.1738 32.2613 72.2539 35.6725C88.5757 37.5234 100.531 33.425 114.898 28.4999C127.008 24.3484 140.832 19.6095 160.428 17.3515C177.788 15.3512 191.754 20.5503 205.67 25.7312C226.102 33.3373 246.428 40.9042 277.233 25.5941C313.203 7.71658 337.579 17.591 359.921 26.6413C369.745 30.6209 379.175 34.4412 389.025 35.6725C401.125 37.185 410.759 32.2808 420.821 27.1586C437.578 18.6284 455.522 9.49356 488.022 28.385C518.881 46.3223 552.339 33.8633 574.45 20.7605ZM0.9663 -163.153C1.57965 -162.81 2.30752 -162.546 3.14087 -162.356C2.41598 -162.604 1.69111 -162.869 0.9663 -163.153Z" fill="url(#paint0_linear_1371_28653)"/>
</g>
<defs>
<linearGradient id="paint0_linear_1371_28653" x1="69.862" y1="-72.3308" x2="596.019" y2="-143.725" gradientUnits="userSpaceOnUse">
<stop stop-color="#19ACFF"/>
<stop offset="1" stop-color="#0D75EF"/>
</linearGradient>
<clipPath id="clip0_1371_28653">
<rect width="599.432" height="37.2125" fill="white"/>
</clipPath>
</defs>
</svg>
