<svg width="600" height="30" viewBox="0 0 600 30" fill="none" xmlns="http://www.w3.org/2000/svg">
<g clip-path="url(#clip0_1371_28645)">
<path fill-rule="evenodd" clip-rule="evenodd" d="M599.121 0H-0.000976562V185.088V222.345H599.121V191.289C599.121 191.289 539.641 237.328 487.633 207.1C455.138 188.213 437.196 197.346 420.442 205.874C410.382 210.995 400.75 215.898 388.652 214.386C378.803 213.155 369.374 209.336 359.552 205.357C337.214 196.309 312.843 186.437 276.878 204.31C246.594 219.36 224.016 208.542 201.919 197.954C186.236 190.438 170.794 183.039 153.011 185.088C133.436 187.344 119.017 192.264 106.259 196.617C91.0985 201.79 78.2841 206.162 61.952 204.31C61.2197 204.227 60.4996 204.146 59.7912 204.065C31.4012 200.854 21.7229 199.759 -0.000976562 185.088L-0.000825169 21.5477C6.14564 26.3032 28.5312 19.7436 52.5852 12.6951C73.2243 6.64728 95.0918 0.239492 108.983 0.310693C134.055 0.439198 150.064 7.45732 164.02 13.5751C177.823 19.6264 189.618 24.7968 206.186 21.5477C226.696 17.5255 240.548 13.4603 251.695 10.189C269.156 5.06485 279.979 1.88847 299.357 3.87605C311.662 5.13823 324.664 10.7839 337.837 16.5038C354.815 23.8761 372.076 31.3716 388.497 29.7635C401.647 28.4757 411.922 24.7414 422.332 20.9584C437.771 15.348 453.504 9.63038 479.343 11.6268C494.76 12.8179 507.745 16.5459 520.445 20.1921C543.385 26.7779 565.394 33.0967 599.121 23.7179V0Z" fill="white"/>
<path fill-rule="evenodd" clip-rule="evenodd" d="M520.932 13.3156C508.753 7.5298 496.566 1.7404 480.196 0.475523C454.725 -1.49264 438.964 5.10936 423.647 11.5259C412.944 16.0093 402.458 20.4021 389.025 21.7177C372.247 23.3611 354.795 17.0395 337.634 10.8234C324.965 6.23437 312.455 1.70279 300.491 0.475523C282.365 -1.38379 271.47 2.43676 255.665 7.97903C247.631 10.7962 238.329 14.0583 226.163 17.2454C236.587 14.7138 244.853 12.288 252.006 10.189C269.466 5.06485 280.29 1.88847 299.668 3.87605C311.973 5.13823 324.975 10.7839 338.147 16.5038C355.125 23.8761 372.387 31.3716 388.808 29.7635C401.957 28.4757 412.233 24.7414 422.643 20.9584C438.081 15.348 453.814 9.63038 479.654 11.6268C495.07 12.8179 508.056 16.5459 520.756 20.1921C543.695 26.7779 565.705 33.0967 599.432 23.7179V187.629C599.435 187.625 599.437 187.624 599.437 187.624V21.7177C560.937 32.3208 540.944 22.823 520.932 13.3156ZM574.45 205.893C552.316 216.114 518.814 225.043 487.944 207.1C455.448 188.213 437.507 197.346 420.753 205.874C410.693 210.995 401.061 215.898 388.963 214.386C379.114 213.155 369.685 209.336 359.862 205.357C337.525 196.309 313.153 186.437 277.189 204.31C246.904 219.36 224.327 208.542 202.23 197.954C186.546 190.438 171.105 183.039 153.322 185.088C133.747 187.344 119.328 192.264 106.57 196.617C91.409 201.79 78.5947 206.162 62.2625 204.31C61.5303 204.227 60.8102 204.146 60.1017 204.065C31.7117 200.854 22.0334 199.759 0.30957 185.088L0.309647 194.532C0.309647 194.532 42.1738 217.394 72.2539 220.805C88.5757 222.656 100.531 218.557 114.898 213.632C127.008 209.481 140.832 204.742 160.428 202.484C177.788 200.484 191.754 205.683 205.67 210.864C226.102 218.47 246.428 226.037 277.233 210.726C313.203 192.849 337.579 202.723 359.921 211.774C369.745 215.753 379.175 219.574 389.025 220.805C401.125 222.317 410.759 217.413 420.821 212.291C437.578 203.761 455.522 194.626 488.022 213.517C518.881 231.455 552.339 218.996 574.45 205.893ZM0.9663 21.9794C1.57965 22.3225 2.30752 22.586 3.14087 22.7765C2.41598 22.5284 1.69111 22.2629 0.9663 21.9794Z" fill="url(#paint0_linear_1371_28645)"/>
</g>
<defs>
<linearGradient id="paint0_linear_1371_28645" x1="69.862" y1="112.802" x2="596.019" y2="41.4071" gradientUnits="userSpaceOnUse">
<stop stop-color="#19ACFF"/>
<stop offset="1" stop-color="#0D75EF"/>
</linearGradient>
<clipPath id="clip0_1371_28645">
<rect width="599.432" height="29.4599" fill="white"/>
</clipPath>
</defs>
</svg>
