<svg width="158" height="40" viewBox="0 0 158 40" fill="none" xmlns="http://www.w3.org/2000/svg">
    <path d="m144.653 24-13.446 13.094L117.754 24l-13.446 13.094L90.863 24 79.004 35.55 67.137 24 53.692 37.094 40.238 24 26.793 37.094 13.347 24 0 36.998l1.488 1.457 11.86-11.55L26.792 40l13.445-13.095L53.692 40l13.445-13.095 11.867 11.558 11.859-11.558L104.308 40l13.446-13.095L131.207 40l13.446-13.095 11.867 11.55L158 37 144.653 24z" fill="#0B315E"/>
    <path d="m144.62 0-13.478 13.095L117.655 0l-13.478 13.095L90.699 0l-10.69 10.39L80 13.302 90.699 2.905 104.177 16l13.478-13.095L131.142 16 144.62 2.905l11.896 11.55L158 12.991 144.62 0z" fill="#FF9D00"/>
</svg>
