<svg width="1920" height="626" viewBox="0 0 1920 626" fill="none" xmlns="http://www.w3.org/2000/svg">
    <path d="M378.518 624C238.987 613.219 193.706 500.5-6 555.5V113.336s191.543-181 359.281-83.5c167.737 97.5 215.237-36.5 319.237-23.5 104 13 193.499 115.5 360.502 32.5 167-83 238.5 42.5 376.66 26.58 138.16-15.92 187.34-70.08 284.34-59.08 97 11 232 84.722 232 84.722V555.5c-126.81-51.5-254.48 68.997-351.5 68.5-160.85-.825-206.05-89.575-313.5-68.5-169.77 33.295-200.61 79.004-303.002 68.5-90.842-9.319-191.45-77.712-285.5-68.5-105.307 10.314-154.469 79.281-294 68.5z" fill="url(#v3i1uwzpsa)"/>
    <defs>
        <linearGradient id="v3i1uwzpsa" x1="1102.97" y1="672.553" x2="1102.97" y2="1.277" gradientUnits="userSpaceOnUse">
            <stop stop-color="#D5EAFF"/>
            <stop offset="1" stop-color="#fff"/>
        </linearGradient>
    </defs>
</svg>
