<svg width="665" height="667" viewBox="0 0 665 667" fill="none" xmlns="http://www.w3.org/2000/svg">
<g clip-path="url(#clip0_1255_15418)">
<path fill-rule="evenodd" clip-rule="evenodd" d="M328.282 34.3496C433.432 19.499 556.978 14.9095 624.583 96.7565C692.842 179.395 658.103 298.251 632.139 402.22C607.103 502.474 580.541 618.801 484.598 657.307C392.07 694.443 302.429 616.115 214.023 570.029C131.34 526.926 25.1078 497.66 4.14467 406.846C-16.8444 315.919 59.9145 238.265 121.186 167.852C177.901 102.676 242.706 46.4357 328.282 34.3496Z" fill="url(#paint0_linear_1255_15418)"/>
<mask id="mask0_1255_15418" style="mask-type:alpha" maskUnits="userSpaceOnUse" x="0" y="25" width="665" height="642">
<path fill-rule="evenodd" clip-rule="evenodd" d="M328.282 34.3496C433.432 19.499 556.978 14.9095 624.583 96.7565C692.842 179.395 658.103 298.251 632.139 402.22C607.103 502.474 580.541 618.801 484.598 657.307C392.07 694.443 302.429 616.115 214.023 570.029C131.34 526.926 25.1078 497.66 4.14467 406.846C-16.8444 315.919 59.9145 238.265 121.186 167.852C177.901 102.676 242.706 46.4357 328.282 34.3496Z" fill="url(#paint1_linear_1255_15418)"/>
</mask>
<g mask="url(#mask0_1255_15418)">
<path d="M428.426 433.099L427.303 433.976L426.55 434.562L370.72 478.227L369.629 479.088L342.775 561.407L312.422 654.521H115.789C133.313 614.931 232.827 390.157 233.519 388.496C233.546 388.447 233.567 388.396 233.581 388.342C255.823 326.941 321.614 333.032 321.614 333.032L351.311 360.856L351.543 361.087L376.752 384.697L404.283 410.491C404.805 410.983 405.343 411.475 405.866 411.952L422.514 427.548L423.052 428.056L428.426 433.099Z" fill="#FFB69E"/>
<path d="M426.555 434.563L370.725 478.228L369.634 479.089L342.78 561.408C341.227 555.917 341.058 550.041 340.674 544.289C339.049 521.051 333.215 498.301 323.457 477.151C313.99 456.664 299.003 439.745 302.123 415.521C302.369 413.629 321.72 379.407 321.72 379.407L351.541 361.088L376.751 384.698L404.282 410.491C404.804 410.984 405.342 411.476 405.865 411.953C411.276 416.875 417.993 421.858 422.512 427.549C424.203 429.685 425.571 431.916 426.463 434.284L426.555 434.563Z" fill="#F68A73"/>
<path d="M519.628 156.614C499.096 143.019 386.64 244.456 347.693 280.671C319.237 304.819 304.668 252.804 277.644 269.127C253.428 289.33 290.403 322.927 295.322 347.845C292.802 358.835 343.255 360.695 350.555 367.699C417.943 390.886 428.028 412.059 435.92 405.319C447.67 394.022 454.881 371.646 448.011 362.377C439.498 349.005 441.793 359.69 437.174 342.228C430.915 320.172 418.412 280.841 420.341 284.258C503.065 202.568 547.343 175.139 519.628 156.614Z" fill="#FFB69E"/>
<path d="M496.242 419.063V102.878C496.242 89.2938 485.236 78.2812 471.66 78.2812L326.705 78.2813C313.129 78.2813 302.123 89.2938 302.123 102.878V419.063C302.123 432.647 313.129 443.66 326.705 443.66H471.66C485.236 443.66 496.242 432.647 496.242 419.063Z" fill="#2B478B"/>
<path d="M484.378 102.871V419.06C484.382 421.189 483.847 423.284 482.824 425.15C481.455 427.65 479.295 429.625 476.683 430.765C476.298 430.93 475.901 431.085 475.492 431.217C474.249 431.613 472.953 431.814 471.649 431.813H326.694C326.551 431.813 326.408 431.813 326.265 431.802C325.673 431.79 325.083 431.727 324.501 431.614C324.185 431.565 323.872 431.499 323.563 431.416C323.222 431.327 322.881 431.228 322.538 431.108C320.028 430.248 317.849 428.624 316.305 426.465C314.762 424.305 313.932 421.717 313.93 419.062V102.871C313.933 99.4905 315.277 96.249 317.667 93.8583C320.056 91.4675 323.295 90.1228 326.674 90.1191H471.629C475.009 90.1216 478.25 91.4658 480.64 93.8566C483.03 96.2475 484.375 99.4897 484.378 102.871Z" fill="#DFEBFD"/>
<path d="M335.289 113.681L333.176 115.2L331.039 113.699C331.278 113.36 331.595 113.083 331.962 112.892C332.33 112.7 332.738 112.599 333.152 112.598C333.567 112.596 333.975 112.693 334.344 112.882C334.714 113.07 335.032 113.344 335.274 113.681H335.289Z" fill="white"/>
<path d="M333.183 108.9C332.176 108.9 331.183 109.143 330.288 109.609C329.394 110.074 328.625 110.749 328.047 111.575L329.386 112.516C329.811 111.907 330.377 111.409 331.034 111.064C331.692 110.719 332.423 110.537 333.165 110.535C333.908 110.532 334.64 110.708 335.3 111.048C335.961 111.387 336.529 111.881 336.959 112.487L338.295 111.528C337.713 110.715 336.946 110.052 336.057 109.595C335.168 109.138 334.183 108.9 333.183 108.9Z" fill="white"/>
<path d="M333.184 101.873C331.051 101.873 328.95 102.386 327.058 103.371C325.165 104.355 323.538 105.781 322.312 107.528L323.655 108.469C324.726 106.945 326.147 105.7 327.797 104.838C329.448 103.976 331.281 103.523 333.142 103.516C335.004 103.509 336.84 103.948 338.497 104.798C340.154 105.647 341.584 106.882 342.666 108.398L343.995 107.439C342.766 105.716 341.144 104.312 339.263 103.344C337.383 102.376 335.299 101.872 333.184 101.873Z" fill="white"/>
<path d="M333.181 105.717C331.663 105.716 330.167 106.08 328.818 106.777C327.47 107.475 326.308 108.485 325.43 109.724L326.769 110.666C327.495 109.648 328.452 108.817 329.562 108.242C330.672 107.667 331.902 107.365 333.152 107.36C334.401 107.355 335.634 107.648 336.749 108.214C337.863 108.78 338.827 109.603 339.56 110.616L340.889 109.664C340.009 108.441 338.851 107.446 337.511 106.759C336.17 106.073 334.686 105.716 333.181 105.717Z" fill="white"/>
<path d="M314.805 123.32H484.236V154.418H314.805V123.32Z" fill="white"/>
<path d="M485.57 102.878V102.878V419.062C485.57 419.062 485.57 419.062 485.57 419.063C485.569 422.753 484.102 426.292 481.494 428.901C478.886 431.51 475.349 432.975 471.662 432.976H326.707C324.881 432.976 323.072 432.616 321.385 431.916C319.697 431.217 318.164 430.192 316.872 428.899C315.581 427.607 314.556 426.072 313.857 424.384C313.158 422.695 312.798 420.885 312.798 419.056V102.878C312.798 101.05 313.158 99.2401 313.857 97.5513C314.556 95.8624 315.581 94.328 316.872 93.0355C318.164 91.7431 319.697 90.7179 321.385 90.0185C323.072 89.3191 324.881 88.9591 326.707 88.9591L471.662 88.9591C473.489 88.9591 475.297 89.3191 476.984 90.0185C478.672 90.7179 480.205 91.7431 481.497 93.0355C482.788 94.328 483.813 95.8624 484.512 97.5512C485.211 99.24 485.57 101.05 485.57 102.878Z" stroke="#C1C7D0" stroke-width="4.28939"/>
<path d="M430.132 78.2812H368.909C363.903 78.2812 359.844 82.2865 359.844 87.2271V88.6376C359.844 93.5783 363.903 97.5835 368.909 97.5835H430.132C435.139 97.5835 439.197 93.5783 439.197 88.6376V87.2271C439.197 82.2865 435.139 78.2812 430.132 78.2812Z" fill="#2B478B"/>
<path d="M297.156 403.427C287.334 444.112 244.518 467.591 228.62 421.965C208.654 367.413 238.493 278.582 282.791 223.149C283.122 222.688 283.452 222.211 283.772 221.765C284.213 221.136 284.644 220.507 285.062 219.901C290.685 211.681 294.732 204.687 298.469 200.628C298.971 200.075 299.505 199.552 300.068 199.061C303.485 196.105 306.803 195.906 311.037 199.867C331.378 218.709 298.447 266.906 298.667 290.679C297.215 329.368 307.203 361.794 297.156 403.427Z" fill="#FFB69E"/>
<path d="M462.092 270.58C466.147 240.613 537.154 222.374 519.229 267.001C519.356 267.011 536.587 283.506 519.78 307.014C567.201 361.195 439.989 384.842 481.966 330.224C481.966 330.224 446.19 318.879 480.04 288.062C480.033 288.062 460.08 288.94 462.092 270.58Z" fill="#FFB69E"/>
<path d="M482.81 287.842C482.566 287.842 482.328 287.761 482.134 287.611C481.94 287.461 481.802 287.25 481.742 287.013C481.681 286.776 481.701 286.525 481.798 286.3C481.896 286.075 482.065 285.889 482.28 285.772L516.251 267.182C516.379 267.11 516.519 267.064 516.664 267.047C516.809 267.03 516.956 267.041 517.096 267.081C517.237 267.121 517.368 267.189 517.482 267.28C517.596 267.371 517.691 267.484 517.761 267.613C517.832 267.741 517.876 267.882 517.891 268.027C517.906 268.173 517.892 268.32 517.85 268.46C517.808 268.6 517.738 268.73 517.645 268.843C517.553 268.956 517.438 269.049 517.309 269.117L483.338 287.707C483.176 287.796 482.995 287.842 482.81 287.842Z" fill="#F68A73"/>
<path d="M484.448 329.383C484.206 329.383 483.971 329.304 483.778 329.157C483.586 329.011 483.447 328.804 483.383 328.571C483.319 328.337 483.334 328.089 483.425 327.865C483.516 327.64 483.678 327.452 483.887 327.329L517.244 307.613C517.368 307.539 517.506 307.49 517.65 307.47C517.793 307.45 517.939 307.458 518.079 307.494C518.219 307.53 518.351 307.593 518.467 307.68C518.583 307.767 518.68 307.876 518.754 308.001C518.828 308.126 518.876 308.264 518.896 308.407C518.917 308.551 518.909 308.697 518.873 308.837C518.837 308.977 518.773 309.109 518.686 309.225C518.599 309.341 518.49 309.438 518.366 309.512L485.009 329.229C484.839 329.329 484.646 329.383 484.448 329.383Z" fill="#F68A73"/>
<path d="M616.508 602.646L598.234 536.651C581.03 474.653 551.361 410.423 530.071 414.145C520.793 415.746 519.107 421.648 519.383 426.423C519.452 427.868 517.669 428.569 516.784 427.442C510.229 419.15 497.001 404.866 485.812 407.746C476.951 410.037 475.073 417.395 475.127 423.321C475.15 424.752 473.301 425.333 472.489 424.141C465.655 414.2 453.058 406.014 442.158 411.698C434.982 415.431 433.857 423.293 434.455 430.393C434.596 432.034 432.346 432.605 431.673 431.096C423.266 412.145 408.801 372.495 401.712 357.575C387.857 328.401 383.209 320.486 368.151 325.034C343.402 332.511 407.882 477.476 411.419 484.773C387.727 459.977 361.709 452.886 348.95 455.338C335.423 457.931 328.44 475.421 342.714 485.835C356.988 496.25 393.612 532.121 407.121 552.319C413.022 561.136 442.428 600.031 475.11 623.587L491.519 654.521L644.633 654.513L616.508 602.646Z" fill="#FFB69E"/>
<path d="M381.553 146.925C380.644 146.925 379.833 146.768 379.122 146.455C378.416 146.139 377.857 145.704 377.447 145.151C377.041 144.595 376.831 143.953 376.819 143.226H379.476C379.492 143.531 379.592 143.799 379.774 144.03C379.961 144.258 380.209 144.435 380.518 144.56C380.826 144.686 381.174 144.749 381.56 144.749C381.962 144.749 382.317 144.678 382.626 144.536C382.934 144.394 383.176 144.197 383.351 143.945C383.525 143.693 383.613 143.403 383.613 143.074C383.613 142.741 383.519 142.446 383.333 142.19C383.15 141.93 382.886 141.727 382.54 141.581C382.199 141.435 381.793 141.362 381.322 141.362H380.158V139.424H381.322C381.72 139.424 382.071 139.355 382.376 139.217C382.685 139.079 382.924 138.888 383.095 138.644C383.266 138.397 383.351 138.108 383.351 137.779C383.351 137.466 383.276 137.192 383.125 136.957C382.979 136.717 382.772 136.53 382.504 136.396C382.24 136.262 381.931 136.195 381.578 136.195C381.22 136.195 380.893 136.26 380.597 136.39C380.3 136.516 380.063 136.697 379.884 136.932C379.705 137.168 379.61 137.444 379.598 137.761H377.069C377.081 137.042 377.286 136.408 377.684 135.86C378.083 135.311 378.619 134.883 379.293 134.574C379.971 134.261 380.737 134.105 381.59 134.105C382.451 134.105 383.205 134.261 383.85 134.574C384.496 134.887 384.998 135.309 385.355 135.842C385.717 136.37 385.896 136.963 385.892 137.621C385.896 138.319 385.678 138.902 385.24 139.369C384.805 139.836 384.238 140.133 383.54 140.259V140.356C384.458 140.474 385.156 140.793 385.636 141.313C386.119 141.829 386.359 142.475 386.355 143.25C386.359 143.961 386.154 144.593 385.739 145.145C385.329 145.698 384.762 146.132 384.039 146.449C383.316 146.766 382.488 146.925 381.553 146.925ZM388.062 144.56V142.483L393.272 134.276H395.063V137.152H394.003L390.719 142.349V142.446H398.121V144.56H388.062ZM394.051 146.754V143.927L394.1 143.007V134.276H396.574V146.754H394.051ZM404.492 146.925C403.582 146.925 402.771 146.768 402.061 146.455C401.354 146.139 400.795 145.704 400.385 145.151C399.979 144.595 399.77 143.953 399.757 143.226H402.414C402.43 143.531 402.53 143.799 402.712 144.03C402.899 144.258 403.147 144.435 403.456 144.56C403.765 144.686 404.112 144.749 404.498 144.749C404.9 144.749 405.255 144.678 405.564 144.536C405.873 144.394 406.114 144.197 406.289 143.945C406.464 143.693 406.551 143.403 406.551 143.074C406.551 142.741 406.458 142.446 406.271 142.19C406.088 141.93 405.824 141.727 405.479 141.581C405.137 141.435 404.731 141.362 404.26 141.362H403.096V139.424H404.26C404.658 139.424 405.009 139.355 405.314 139.217C405.623 139.079 405.862 138.888 406.033 138.644C406.204 138.397 406.289 138.108 406.289 137.779C406.289 137.466 406.214 137.192 406.064 136.957C405.917 136.717 405.71 136.53 405.442 136.396C405.178 136.262 404.869 136.195 404.516 136.195C404.159 136.195 403.832 136.26 403.535 136.39C403.238 136.516 403.001 136.697 402.822 136.932C402.643 137.168 402.548 137.444 402.536 137.761H400.007C400.019 137.042 400.225 136.408 400.623 135.86C401.021 135.311 401.557 134.883 402.231 134.574C402.909 134.261 403.675 134.105 404.528 134.105C405.389 134.105 406.143 134.261 406.789 134.574C407.434 134.887 407.936 135.309 408.294 135.842C408.655 136.37 408.834 136.963 408.83 137.621C408.834 138.319 408.616 138.902 408.178 139.369C407.743 139.836 407.177 140.133 406.478 140.259V140.356C407.396 140.474 408.095 140.793 408.574 141.313C409.057 141.829 409.297 142.475 409.293 143.25C409.297 143.961 409.092 144.593 408.677 145.145C408.267 145.698 407.701 146.132 406.977 146.449C406.254 146.766 405.426 146.925 404.492 146.925ZM411 144.56V142.483L416.21 134.276H418.001V137.152H416.941L413.657 142.349V142.446H421.06V144.56H411ZM416.99 146.754V143.927L417.038 143.007V134.276H419.512V146.754H416.99Z" fill="#114A82"/>
<path d="M367.592 168.359H460.103C463.656 168.368 467.06 169.616 469.573 171.831C472.086 174.045 473.502 177.046 473.513 180.178V215.969C473.504 218.846 472.203 221.602 469.896 223.637C467.588 225.671 464.461 226.817 461.198 226.826H458.819L463.276 243.424L435.293 226.826H366.808C363.259 226.814 359.86 225.566 357.35 223.354C354.841 221.142 353.424 218.146 353.41 215.018V180.873C353.421 177.559 354.918 174.383 357.575 172.039C360.232 169.695 363.833 168.372 367.592 168.359Z" fill="url(#paint2_linear_1255_15418)"/>
<path d="M379.982 190.885H382.189C383.042 190.885 383.799 191.068 384.46 191.434C385.121 191.8 385.64 192.316 386.017 192.98C386.393 193.641 386.582 194.416 386.582 195.305C386.582 196.172 386.393 196.931 386.017 197.581C385.64 198.231 385.121 198.738 384.46 199.1C383.799 199.459 383.042 199.639 382.189 199.639H379.982C379.125 199.639 378.365 199.461 377.7 199.106C377.039 198.747 376.52 198.242 376.143 197.592C375.766 196.941 375.578 196.181 375.578 195.31C375.578 194.421 375.768 193.647 376.149 192.985C376.529 192.321 377.05 191.806 377.711 191.439C378.375 191.07 379.132 190.885 379.982 190.885ZM379.982 192.559C379.463 192.559 379.013 192.666 378.633 192.879C378.256 193.089 377.965 193.398 377.759 193.807C377.552 194.215 377.449 194.716 377.449 195.31C377.449 195.879 377.552 196.36 377.759 196.755C377.968 197.149 378.263 197.45 378.644 197.656C379.024 197.862 379.47 197.965 379.982 197.965H382.194C382.71 197.965 383.154 197.862 383.527 197.656C383.904 197.446 384.193 197.144 384.396 196.749C384.602 196.351 384.705 195.87 384.705 195.305C384.705 194.718 384.602 194.221 384.396 193.812C384.193 193.403 383.904 193.092 383.527 192.879C383.154 192.666 382.71 192.559 382.194 192.559H379.982ZM382.04 189.478V201.036H380.136V189.478H382.04ZM387.755 200.588V198.946L388.064 198.93C388.483 198.905 388.816 198.754 389.061 198.477C389.31 198.199 389.493 197.753 389.61 197.139C389.731 196.524 389.811 195.699 389.85 194.665L390.031 189.669H397.186V200.588H395.25V191.295H391.876L391.705 195.278C391.655 196.472 391.524 197.462 391.311 198.247C391.101 199.033 390.756 199.619 390.276 200.007C389.8 200.394 389.137 200.588 388.288 200.588H387.755ZM400.744 200.588H398.633L402.477 189.669H404.919L408.768 200.588H406.657L403.741 191.909H403.655L400.744 200.588ZM400.814 196.307H406.571V197.896H400.814V196.307ZM417.227 189.669V191.327H412.184V200.588H410.206V189.669H417.227ZM426.313 200.737C425.602 200.737 424.966 200.604 424.405 200.337C423.843 200.067 423.397 199.698 423.066 199.228C422.739 198.759 422.565 198.223 422.544 197.618H424.463C424.499 198.066 424.692 198.432 425.044 198.717C425.396 198.997 425.819 199.138 426.313 199.138C426.701 199.138 427.045 199.049 427.347 198.871C427.65 198.694 427.888 198.446 428.062 198.13C428.236 197.814 428.321 197.453 428.318 197.048C428.321 196.636 428.234 196.27 428.056 195.95C427.879 195.63 427.635 195.379 427.326 195.198C427.017 195.013 426.661 194.921 426.26 194.921C425.933 194.917 425.611 194.978 425.295 195.102C424.979 195.226 424.728 195.39 424.543 195.592L422.757 195.299L423.328 189.669H429.661V191.322H424.964L424.65 194.217H424.714C424.916 193.979 425.202 193.782 425.572 193.625C425.942 193.465 426.347 193.385 426.788 193.385C427.449 193.385 428.039 193.542 428.558 193.854C429.077 194.164 429.485 194.59 429.784 195.134C430.082 195.678 430.232 196.3 430.232 197C430.232 197.721 430.065 198.365 429.73 198.93C429.4 199.491 428.94 199.934 428.35 200.257C427.763 200.577 427.084 200.737 426.313 200.737ZM436.053 200.796C435.175 200.796 434.422 200.574 433.793 200.129C433.167 199.682 432.686 199.036 432.348 198.194C432.014 197.348 431.847 196.33 431.847 195.139C431.851 193.949 432.019 192.936 432.353 192.101C432.691 191.262 433.173 190.622 433.798 190.181C434.427 189.741 435.179 189.52 436.053 189.52C436.928 189.52 437.679 189.741 438.309 190.181C438.938 190.622 439.419 191.262 439.753 192.101C440.091 192.939 440.26 193.952 440.26 195.139C440.26 196.334 440.091 197.354 439.753 198.199C439.419 199.042 438.938 199.685 438.309 200.129C437.683 200.574 436.931 200.796 436.053 200.796ZM436.053 199.127C436.736 199.127 437.274 198.791 437.669 198.12C438.067 197.444 438.266 196.451 438.266 195.139C438.266 194.272 438.175 193.544 437.994 192.954C437.813 192.364 437.557 191.919 437.226 191.621C436.896 191.319 436.505 191.168 436.053 191.168C435.375 191.168 434.838 191.505 434.443 192.18C434.049 192.852 433.85 193.838 433.846 195.139C433.843 196.01 433.93 196.742 434.107 197.336C434.289 197.929 434.545 198.377 434.875 198.679C435.206 198.978 435.598 199.127 436.053 199.127ZM446.067 200.796C445.189 200.796 444.435 200.574 443.806 200.129C443.181 199.682 442.699 199.036 442.362 198.194C442.028 197.348 441.86 196.33 441.86 195.139C441.864 193.949 442.033 192.936 442.367 192.101C442.705 191.262 443.186 190.622 443.812 190.181C444.441 189.741 445.193 189.52 446.067 189.52C446.941 189.52 447.693 189.741 448.322 190.181C448.951 190.622 449.433 191.262 449.767 192.101C450.104 192.939 450.273 193.952 450.273 195.139C450.273 196.334 450.104 197.354 449.767 198.199C449.433 199.042 448.951 199.685 448.322 200.129C447.696 200.574 446.945 200.796 446.067 200.796ZM446.067 199.127C446.749 199.127 447.288 198.791 447.682 198.12C448.08 197.444 448.279 196.451 448.279 195.139C448.279 194.272 448.189 193.544 448.007 192.954C447.826 192.364 447.57 191.919 447.24 191.621C446.909 191.319 446.518 191.168 446.067 191.168C445.388 191.168 444.851 191.505 444.457 192.18C444.062 192.852 443.863 193.838 443.86 195.139C443.856 196.01 443.943 196.742 444.121 197.336C444.302 197.929 444.558 198.377 444.889 198.679C445.219 198.978 445.612 199.127 446.067 199.127Z" fill="white"/>
</g>
<path d="M56.6602 297.494L166.791 333.499L100.823 269.203L94.1261 284.912L65.7752 285.051L56.6602 297.494Z" fill="#9EC3F6"/>
<path d="M166.791 333.498L81.3195 268.481L-10 247.621L166.791 333.498Z" fill="white"/>
<path d="M100.824 269.203L166.793 333.499L122.824 243.422L100.824 269.203Z" fill="white"/>
</g>
<defs>
<linearGradient id="paint0_linear_1255_15418" x1="32.1391" y1="25.7361" x2="628.069" y2="85.4418" gradientUnits="userSpaceOnUse">
<stop stop-color="#308AF4"/>
<stop offset="1" stop-color="#2898FF"/>
</linearGradient>
<linearGradient id="paint1_linear_1255_15418" x1="32.1391" y1="25.7361" x2="628.069" y2="85.4418" gradientUnits="userSpaceOnUse">
<stop stop-color="#308AF4"/>
<stop offset="1" stop-color="#2898FF"/>
</linearGradient>
<linearGradient id="paint2_linear_1255_15418" x1="359.115" y1="168.359" x2="465.472" y2="184.83" gradientUnits="userSpaceOnUse">
<stop stop-color="#FFE456"/>
<stop offset="1" stop-color="#FF881A"/>
</linearGradient>
<clipPath id="clip0_1255_15418">
<rect width="663.783" height="667" fill="white" transform="translate(0.609375)"/>
</clipPath>
</defs>
</svg>
