<svg width="1920" height="948" viewBox="0 0 1920 948" fill="none" xmlns="http://www.w3.org/2000/svg">
    <path d="M1541.31 1.533c139.53 10.782 184.81 123.5 384.52 68.5v765s-191.54 180.997-359.28 83.5c-167.74-97.5-215.24 36.501-319.24 23.5-104-13-193.5-115.5-360.497-32.5-167 83-238.5-42.5-376.662-26.58-138.162 15.92-187.338 70.08-284.338 59.08-97-11-232-84.722-232-84.722V70.033c126.812 51.5 254.48-68.997 351.5-68.5 160.846.825 206.042 89.576 313.5 68.5 169.765-33.295 200.604-79.003 303-68.5 90.837 9.319 191.447 77.712 285.497 68.5 105.31-10.314 154.47-79.28 294-68.5z" fill="url(#fu2ngio20a)" fill-opacity=".25"/>
    <path d="M1538 37.498c139.53 10.781 217.31 86 386.31 39v780.5s-191.84 148.502-359.57 51c-167.74-97.5-215.24 36.5-319.24 23.5s-193.5-115.5-360.499-32.5c-167 83-261.338-77.92-399.5-62-138.162 15.92-196.688 73-293.688 62s-128-13.5-199.813-62v-767.5C28.834 97.998 246.481.501 343.501.998c160.846.824 206.043 89.575 313.5 68.5 169.766-33.295 198.104-67.504 300.5-57 90.839 9.319 193.449 92.712 287.499 83.5 105.31-10.314 153.47-69.281 293-58.5z" fill="url(#qdrf3rxglb)"/>
    <defs>
        <linearGradient id="fu2ngio20a" x1="218.099" y1="363.753" x2="1914.81" y2="133.527" gradientUnits="userSpaceOnUse">
            <stop stop-color="#19ACFF"/>
            <stop offset="1" stop-color="#0D75EF"/>
        </linearGradient>
        <linearGradient id="qdrf3rxglb" x1="216.321" y1="366.372" x2="1913.55" y2="137.062" gradientUnits="userSpaceOnUse">
            <stop stop-color="#19ACFF"/>
            <stop offset=".368" stop-color="#0073CE"/>
        </linearGradient>
    </defs>
</svg>
