<svg width="122" height="126" viewBox="0 0 122 126" fill="none" xmlns="http://www.w3.org/2000/svg">
    <path d="M11.275 4.653a2.302 2.302 0 0 1-2.3-2.301C8.975 1.088 10 .05 11.275.05c1.276 0 2.301 1.025 2.301 2.3a2.31 2.31 0 0 1-2.3 2.302zM32.9 4.653a2.302 2.302 0 0 1-2.3-2.301C30.6 1.088 31.625.05 32.9.05c1.264 0 2.301 1.025 2.301 2.3-.012 1.264-1.037 2.302-2.3 2.302zM54.516 4.653a2.302 2.302 0 0 1-2.301-2.301c0-1.264 1.025-2.301 2.3-2.301 1.264 0 2.302 1.025 2.302 2.3 0 1.264-1.026 2.302-2.301 2.302zM76.14 4.653a2.302 2.302 0 0 1-2.3-2.301c0-1.264 1.025-2.301 2.3-2.301 1.264 0 2.302 1.025 2.302 2.3a2.31 2.31 0 0 1-2.301 2.302zM97.754 4.653a2.302 2.302 0 0 1-2.3-2.301c0-1.264 1.024-2.301 2.3-2.301 1.264 0 2.301 1.025 2.301 2.3 0 1.264-1.025 2.302-2.3 2.302zM119.381 4.653a2.302 2.302 0 1 1 2.301-2.3 2.31 2.31 0 0 1-2.301 2.3zM11.275 24.371a2.302 2.302 0 0 1-2.3-2.3c0-1.264 1.025-2.302 2.3-2.302 1.276 0 2.301 1.026 2.301 2.301a2.31 2.31 0 0 1-2.3 2.301zM32.9 24.371a2.302 2.302 0 0 1-2.3-2.3c0-1.264 1.025-2.302 2.3-2.302 1.264 0 2.301 1.026 2.301 2.301-.012 1.264-1.037 2.301-2.3 2.301zM54.516 24.371a2.302 2.302 0 0 1-2.301-2.3c0-1.264 1.025-2.302 2.3-2.302 1.264 0 2.302 1.026 2.302 2.301 0 1.264-1.026 2.301-2.301 2.301zM76.14 24.371a2.302 2.302 0 0 1-2.3-2.3c0-1.264 1.025-2.302 2.3-2.302 1.264 0 2.302 1.026 2.302 2.301a2.31 2.31 0 0 1-2.301 2.301zM97.754 24.371a2.302 2.302 0 0 1-2.3-2.3c0-1.264 1.024-2.302 2.3-2.302 1.264 0 2.301 1.026 2.301 2.301 0 1.264-1.025 2.301-2.3 2.301zM119.381 24.371a2.302 2.302 0 1 1 2.301-2.3 2.31 2.31 0 0 1-2.301 2.3zM11.275 44.078a2.302 2.302 0 0 1-2.3-2.3c0-1.264 1.025-2.301 2.3-2.301 1.276 0 2.301 1.025 2.301 2.3 0 1.276-1.037 2.301-2.3 2.301zM32.9 44.078a2.302 2.302 0 0 1-2.3-2.3c0-1.264 1.025-2.301 2.3-2.301 1.264 0 2.301 1.025 2.301 2.3a2.31 2.31 0 0 1-2.3 2.301zM54.516 44.078a2.302 2.302 0 0 1-2.301-2.3c0-1.264 1.025-2.301 2.3-2.301 1.264 0 2.302 1.025 2.302 2.3 0 1.276-1.026 2.301-2.301 2.301zM76.14 44.078a2.302 2.302 0 0 1-2.3-2.3c0-1.264 1.025-2.301 2.3-2.301 1.264 0 2.302 1.025 2.302 2.3 0 1.276-1.037 2.301-2.301 2.301zM97.754 44.078a2.302 2.302 0 0 1-2.3-2.3c0-1.264 1.024-2.301 2.3-2.301 1.264 0 2.301 1.025 2.301 2.3 0 1.276-1.025 2.301-2.3 2.301zM119.381 44.078a2.302 2.302 0 1 1 2.301-2.3c0 1.275-1.037 2.3-2.301 2.3zM11.275 63.797a2.302 2.302 0 0 1-2.3-2.3c0-1.264 1.025-2.302 2.3-2.302 1.276 0 2.301 1.026 2.301 2.301a2.31 2.31 0 0 1-2.3 2.301zM32.9 63.797a2.302 2.302 0 0 1-2.3-2.3c0-1.264 1.025-2.302 2.3-2.302 1.264 0 2.301 1.026 2.301 2.301-.012 1.264-1.037 2.301-2.3 2.301zM54.516 63.797a2.302 2.302 0 0 1-2.301-2.3c0-1.264 1.025-2.302 2.3-2.302 1.264 0 2.302 1.026 2.302 2.301 0 1.264-1.026 2.301-2.301 2.301zM76.14 63.797a2.302 2.302 0 0 1-2.3-2.3c0-1.264 1.025-2.302 2.3-2.302 1.264 0 2.302 1.026 2.302 2.301a2.31 2.31 0 0 1-2.301 2.301zM97.754 63.797a2.302 2.302 0 0 1-2.3-2.3c0-1.264 1.024-2.302 2.3-2.302 1.264 0 2.301 1.026 2.301 2.301 0 1.264-1.025 2.301-2.3 2.301zM119.381 63.797a2.302 2.302 0 1 1 2.301-2.3 2.31 2.31 0 0 1-2.301 2.3zM11.275 83.514a2.302 2.302 0 0 1-2.3-2.301c0-1.264 1.025-2.3 2.3-2.3 1.276 0 2.301 1.024 2.301 2.3a2.31 2.31 0 0 1-2.3 2.3zM32.9 83.514a2.302 2.302 0 0 1-2.3-2.301c0-1.264 1.025-2.3 2.3-2.3 1.264 0 2.301 1.024 2.301 2.3-.012 1.264-1.037 2.3-2.3 2.3zM54.516 83.514a2.302 2.302 0 0 1-2.301-2.301c0-1.264 1.025-2.3 2.3-2.3 1.264 0 2.302 1.024 2.302 2.3 0 1.264-1.026 2.3-2.301 2.3zM76.14 83.514a2.302 2.302 0 0 1-2.3-2.301c0-1.264 1.025-2.3 2.3-2.3 1.264 0 2.302 1.024 2.302 2.3a2.31 2.31 0 0 1-2.301 2.3zM97.754 83.514a2.302 2.302 0 0 1-2.3-2.301c0-1.264 1.024-2.3 2.3-2.3 1.264 0 2.301 1.024 2.301 2.3 0 1.264-1.025 2.3-2.3 2.3zM119.381 83.514a2.302 2.302 0 0 1-2.301-2.301 2.302 2.302 0 0 1 4.602 0 2.31 2.31 0 0 1-2.301 2.3zM11.275 103.219a2.302 2.302 0 0 1 0-4.602 2.302 2.302 0 0 1 0 4.602zM32.9 103.219a2.302 2.302 0 0 1 0-4.602c1.264 0 2.301 1.025 2.301 2.301a2.31 2.31 0 0 1-2.3 2.301zM54.516 103.219a2.302 2.302 0 0 1 0-4.602c1.263 0 2.3 1.025 2.3 2.301a2.295 2.295 0 0 1-2.3 2.301zM76.14 103.219a2.302 2.302 0 0 1-2.3-2.301c0-1.264 1.025-2.3 2.3-2.3a2.302 2.302 0 0 1 0 4.601zM97.754 103.219a2.302 2.302 0 0 1-2.3-2.301c0-1.264 1.024-2.3 2.3-2.3 1.264 0 2.301 1.024 2.301 2.3a2.295 2.295 0 0 1-2.3 2.301zM119.381 103.219a2.302 2.302 0 1 1 .002-4.604 2.302 2.302 0 0 1-.002 4.604z" fill="#0B315E"/>
    <path d="M102.344 118.682.951 17.289h101.393v101.393z" fill="#83AFF7"/>
</svg>
