<svg width="122" height="125" viewBox="0 0 122 125" fill="none" xmlns="http://www.w3.org/2000/svg">
    <path d="M111.355 114.08a2.302 2.302 0 0 1 0 4.602 2.295 2.295 0 0 1-2.3-2.301 2.31 2.31 0 0 1 2.3-2.301zM89.73 114.08a2.302 2.302 0 0 1 0 4.602 2.303 2.303 0 0 1-2.3-2.301c.011-1.264 1.037-2.301 2.3-2.301zM68.115 114.08a2.302 2.302 0 0 1 0 4.602 2.302 2.302 0 0 1 0-4.602zM46.49 114.08a2.302 2.302 0 0 1 0 4.602 2.303 2.303 0 0 1-2.3-2.301 2.31 2.31 0 0 1 2.3-2.301zM24.877 114.08a2.302 2.302 0 0 1 0 4.602 2.302 2.302 0 0 1 0-4.602zM3.25 114.08a2.302 2.302 0 1 1-2.3 2.301 2.31 2.31 0 0 1 2.3-2.301zM111.355 94.361a2.302 2.302 0 0 1 2.301 2.301c0 1.264-1.025 2.3-2.301 2.3a2.294 2.294 0 0 1-2.3-2.3 2.31 2.31 0 0 1 2.3-2.3zM89.73 94.361c1.264 0 2.301 1.025 2.301 2.301 0 1.264-1.025 2.3-2.3 2.3a2.302 2.302 0 0 1-2.301-2.3c.011-1.264 1.037-2.3 2.3-2.3zM68.115 94.361c1.264 0 2.301 1.025 2.301 2.301 0 1.264-1.025 2.3-2.3 2.3a2.302 2.302 0 0 1 0-4.602zM46.49 94.361c1.264 0 2.301 1.025 2.301 2.301 0 1.264-1.025 2.3-2.3 2.3a2.302 2.302 0 0 1-2.302-2.3 2.31 2.31 0 0 1 2.301-2.3zM24.877 94.361c1.264 0 2.3 1.025 2.3 2.301 0 1.264-1.025 2.3-2.3 2.3a2.302 2.302 0 0 1-2.301-2.3c0-1.264 1.025-2.3 2.3-2.3zM3.25 94.361c1.264 0 2.3 1.025 2.3 2.301 0 1.264-1.024 2.3-2.3 2.3a2.295 2.295 0 0 1-2.3-2.3 2.31 2.31 0 0 1 2.3-2.3zM111.355 74.654a2.302 2.302 0 0 1 0 4.602 2.302 2.302 0 0 1 0-4.602zM89.73 74.654c1.264 0 2.301 1.025 2.301 2.301 0 1.264-1.025 2.3-2.3 2.3a2.302 2.302 0 0 1-2.301-2.3 2.31 2.31 0 0 1 2.3-2.3zM68.115 74.654c1.264 0 2.301 1.025 2.301 2.301 0 1.264-1.025 2.3-2.3 2.3a2.302 2.302 0 0 1-2.302-2.3c0-1.276 1.026-2.3 2.301-2.3zM46.49 74.654c1.264 0 2.301 1.025 2.301 2.301 0 1.264-1.025 2.3-2.3 2.3a2.302 2.302 0 0 1-2.302-2.3c0-1.276 1.037-2.3 2.301-2.3zM24.877 74.654c1.264 0 2.3 1.025 2.3 2.301 0 1.264-1.025 2.3-2.3 2.3a2.302 2.302 0 0 1-2.301-2.3c0-1.276 1.025-2.3 2.3-2.3zM3.25 74.654c1.264 0 2.3 1.025 2.3 2.301 0 1.264-1.024 2.3-2.3 2.3a2.295 2.295 0 0 1-2.3-2.3c0-1.276 1.036-2.3 2.3-2.3zM111.355 54.935a2.302 2.302 0 0 1 2.301 2.301c0 1.264-1.025 2.301-2.301 2.301a2.294 2.294 0 0 1-2.3-2.3 2.31 2.31 0 0 1 2.3-2.302zM89.73 54.935c1.264 0 2.301 1.026 2.301 2.301 0 1.264-1.025 2.301-2.3 2.301a2.302 2.302 0 0 1-2.301-2.3c.011-1.265 1.037-2.302 2.3-2.302zM68.115 54.935c1.264 0 2.301 1.026 2.301 2.301 0 1.264-1.025 2.301-2.3 2.301a2.302 2.302 0 0 1-2.302-2.3c0-1.265 1.026-2.302 2.301-2.302zM46.49 54.935c1.264 0 2.301 1.026 2.301 2.301 0 1.264-1.025 2.301-2.3 2.301a2.302 2.302 0 0 1-2.302-2.3 2.31 2.31 0 0 1 2.301-2.302zM24.877 54.935c1.264 0 2.3 1.026 2.3 2.301 0 1.264-1.025 2.301-2.3 2.301a2.302 2.302 0 0 1-2.301-2.3c0-1.265 1.025-2.302 2.3-2.302zM3.25 54.935c1.264 0 2.3 1.026 2.3 2.301 0 1.264-1.024 2.301-2.3 2.301a2.295 2.295 0 0 1-2.3-2.3 2.31 2.31 0 0 1 2.3-2.302zM111.355 35.219a2.302 2.302 0 0 1 2.301 2.3c0 1.264-1.025 2.301-2.301 2.301a2.294 2.294 0 0 1-2.3-2.3 2.31 2.31 0 0 1 2.3-2.301zM89.73 35.219c1.264 0 2.301 1.025 2.301 2.3 0 1.264-1.025 2.301-2.3 2.301a2.302 2.302 0 0 1-2.301-2.3c.011-1.264 1.037-2.301 2.3-2.301zM68.115 35.219c1.264 0 2.301 1.025 2.301 2.3 0 1.264-1.025 2.301-2.3 2.301a2.302 2.302 0 0 1-2.302-2.3c0-1.264 1.026-2.301 2.301-2.301zM46.49 35.219c1.264 0 2.301 1.025 2.301 2.3 0 1.264-1.025 2.301-2.3 2.301a2.302 2.302 0 0 1-2.302-2.3 2.31 2.31 0 0 1 2.301-2.301zM24.877 35.219c1.264 0 2.3 1.025 2.3 2.3 0 1.264-1.025 2.301-2.3 2.301a2.302 2.302 0 0 1-2.301-2.3c0-1.264 1.025-2.301 2.3-2.301zM3.25 35.219c1.264 0 2.3 1.025 2.3 2.3 0 1.264-1.024 2.301-2.3 2.301a2.295 2.295 0 0 1-2.3-2.3 2.31 2.31 0 0 1 2.3-2.301zM111.355 15.514a2.302 2.302 0 0 1 0 4.602 2.302 2.302 0 0 1 0-4.602zM89.73 15.514c1.264 0 2.301 1.025 2.301 2.3 0 1.264-1.025 2.301-2.3 2.301a2.302 2.302 0 0 1-2.301-2.3 2.31 2.31 0 0 1 2.3-2.302zM68.115 15.514c1.264 0 2.301 1.025 2.301 2.3 0 1.264-1.025 2.301-2.3 2.301a2.302 2.302 0 0 1-2.302-2.3c0-1.276 1.026-2.302 2.301-2.302zM46.49 15.514c1.264 0 2.301 1.025 2.301 2.3 0 1.264-1.025 2.301-2.3 2.301a2.302 2.302 0 0 1-2.302-2.3c0-1.276 1.037-2.302 2.301-2.302zM24.877 15.514c1.264 0 2.3 1.025 2.3 2.3 0 1.264-1.025 2.301-2.3 2.301a2.302 2.302 0 0 1-2.301-2.3c0-1.276 1.025-2.302 2.3-2.302zM3.25 15.514c1.264 0 2.3 1.025 2.3 2.3 0 1.264-1.024 2.301-2.3 2.301a2.295 2.295 0 0 1-2.3-2.3c0-1.276 1.036-2.302 2.3-2.302z" fill="#0B315E"/>
    <path d="M20.287.05 121.68 101.443H20.286V.05z" fill="#83AFF7"/>
</svg>
