<svg width="26" height="26" viewBox="0 0 26 26" fill="none" xmlns="http://www.w3.org/2000/svg">
    <path d="M26 4.333H0v17.333h26V4.334z" fill="#F0F0F0"/>
    <path d="M14.625 4.333h-3.25v7.042H0v3.25h11.375v7.041h3.25v-7.041H26v-3.25H14.625V4.333z" fill="#D80027"/>
    <path d="M19.996 16.015 26 19.35v-3.335h-6.003zM15.826 16.015 26 21.667v-1.599l-7.297-4.053h-2.877zM23.29 21.666l-7.464-4.146v4.146h7.464z" fill="#0052B4"/>
    <path d="M15.826 16.015 26 21.667v-1.599l-7.297-4.053h-2.877z" fill="#F0F0F0"/>
    <path d="M15.826 16.015 26 21.667v-1.599l-7.297-4.053h-2.877z" fill="#D80027"/>
    <path d="M4.588 16.015 0 18.563v-2.548h4.588zM10.174 16.733v4.934h-8.88l8.88-4.934z" fill="#0052B4"/>
    <path d="M7.297 16.015 0 20.068v1.599l10.174-5.652H7.297z" fill="#D80027"/>
    <path d="M6.003 9.986 0 6.65v3.335h6.003zM10.174 9.985 0 4.333v1.598l7.297 4.054h2.877zM2.71 4.333l7.465 4.147V4.333H2.71z" fill="#0052B4"/>
    <path d="M10.174 9.985 0 4.333v1.598l7.297 4.054h2.877z" fill="#F0F0F0"/>
    <path d="M10.174 9.985 0 4.333v1.598l7.297 4.054h2.877z" fill="#D80027"/>
    <path d="M21.412 9.985 26 7.437v2.548h-4.588zM15.826 9.266V4.333h8.88l-8.88 4.933z" fill="#0052B4"/>
    <path d="M18.703 9.985 26 5.931V4.333L15.826 9.985h2.877z" fill="#D80027"/>
</svg>
