<svg width="1920" height="809" viewBox="0 0 1920 809" fill="none" xmlns="http://www.w3.org/2000/svg">
    <path d="M1783.36 219.462c172.04 30.372 182.61-38.841 215.11-50.5l-14.52 325.023c-7.49 47.227 0 254.046-200.59 213.477-200.58-40.569-216.69-11.73-338.67 17.086-121.97 28.817-231.55-149.793-479.337 0-247.783 149.793-353.887-59.294-512.418-38.697-158.531 20.597-221.569 122.955-380.1 122.955-158.531 0-160.404-134.029-145.425-206.589L-12 49C30.291 88.888 166.444-10.628 286.914 1.795 486.638 22.391 452.935 123.962 698 85.962c213.402-33.09 284.888 30.139 402 83 117.11 52.86 216.84-4.72 319.5-17.5 131.07-16.317 191.83 37.628 363.86 68z" fill="url(#1zums93qwa)"/>
    <defs>
        <linearGradient id="1zums93qwa" x1="191.654" y1="314.436" x2="1987.13" y2="200.812" gradientUnits="userSpaceOnUse">
            <stop stop-color="#19ACFF"/>
            <stop offset=".595" stop-color="#0073CE"/>
        </linearGradient>
    </defs>
</svg>
