<svg xmlns="http://www.w3.org/2000/svg" width="41" height="41" viewBox="0 0 41 41" fill="none"><path d="M40.9997 15.0519C40.9994 15.0245 40.997 14.9976 40.9933 14.9711C40.9926 14.967 40.9926 14.963 40.992 14.9589C40.9915 14.9555 40.9905 14.9523 40.9899 14.949C40.9847 14.9192 40.978 14.89 40.9688 14.8617L40.9684 14.86C40.968 14.8585 40.9672 14.8573 40.9667 14.8557C40.9575 14.8279 40.9461 14.801 40.9334 14.775C40.9319 14.772 40.9309 14.7688 40.9293 14.7659C40.9283 14.7641 40.9272 14.7623 40.9263 14.7604C40.9129 14.7349 40.8977 14.7104 40.8812 14.687C40.8794 14.6846 40.878 14.682 40.8763 14.6795C40.8737 14.676 40.8707 14.6728 40.8681 14.6694C40.8513 14.6473 40.8336 14.626 40.8141 14.6062C40.813 14.6051 40.8121 14.6039 40.811 14.6029C40.8107 14.6025 40.8102 14.6021 40.8099 14.6017C40.8091 14.6009 40.8082 14.6002 40.8075 14.5994C40.7868 14.579 40.7643 14.5603 40.7409 14.5427C40.7382 14.5406 40.7358 14.5381 40.7331 14.5361L40.733 14.536L35.9624 11.0724C35.673 10.8623 35.2683 10.9264 35.0581 11.216C34.848 11.5053 34.9125 11.9101 35.2017 12.1201L38.3591 14.4125H26.3942L11.1353 9.50108C11.0929 9.48746 11.05 9.47842 11.0071 9.47369C10.708 9.44086 10.4166 9.62119 10.3206 9.91901L8.87426 14.4126H2.64098L20.5001 1.44674L33.5816 10.944C33.8708 11.1538 34.2755 11.0899 34.4858 10.8004C34.6959 10.5111 34.6316 10.1063 34.3422 9.89618L20.8804 0.122808C20.6536 -0.0419126 20.3464 -0.0419126 20.1196 0.122808L0.267061 14.5361L0.26698 14.5362C0.264258 14.5382 0.261855 14.5408 0.259133 14.5429C0.23583 14.5604 0.213408 14.5791 0.192588 14.5996C0.191787 14.6004 0.190986 14.601 0.190186 14.6018C0.189785 14.6022 0.189385 14.6026 0.188984 14.603C0.187943 14.6041 0.187062 14.6052 0.186102 14.6062C0.166562 14.6261 0.148785 14.6474 0.131969 14.6696C0.129406 14.673 0.126363 14.6761 0.123881 14.6796C0.122119 14.682 0.120678 14.6846 0.118996 14.6871C0.10242 14.7105 0.0872852 14.735 0.0739121 14.7605C0.0729512 14.7624 0.0718301 14.7641 0.0708691 14.766C0.0693477 14.769 0.0683066 14.7721 0.0667852 14.7751C0.0540527 14.801 0.0426816 14.828 0.0334727 14.8557C0.0329922 14.8572 0.0321914 14.8585 0.0316309 14.86C0.0314707 14.8605 0.0314707 14.8611 0.0312305 14.8617C0.0221816 14.8899 0.015375 14.9191 0.01025 14.9489C0.00960938 14.9522 0.00856836 14.9555 0.00808789 14.9589C0.00744727 14.963 0.00736719 14.967 0.00688672 14.9711C0.0032832 14.9976 0.000880859 15.0245 0.000480469 15.0519C0.000480469 15.0543 0.000160156 15.0565 0.000160156 15.0588L0 15.0599V15.0619C0 15.0623 0 15.0627 0 15.0631V40.352C0 40.3555 0.000400391 40.3589 0.000480469 40.3625C0.000640625 40.3743 0.00144141 40.3859 0.00232227 40.3977C0.00304297 40.4076 0.00360352 40.4174 0.00472461 40.4272C0.00600586 40.4381 0.00792773 40.4489 0.00976953 40.4597C0.0115313 40.4699 0.0130527 40.4803 0.0152148 40.4903C0.017457 40.5004 0.0203398 40.5104 0.0229824 40.5205C0.0257051 40.5308 0.0284277 40.5413 0.0317109 40.5515C0.034834 40.5611 0.0385977 40.5705 0.0421211 40.58C0.0460449 40.5903 0.0497285 40.6006 0.0540527 40.6106C0.0580566 40.6197 0.0626211 40.6285 0.0670254 40.6375C0.0720703 40.6475 0.076875 40.6576 0.0823203 40.6675C0.0869648 40.6758 0.0921699 40.6838 0.0971348 40.6919C0.103381 40.702 0.109547 40.712 0.116273 40.7217C0.121479 40.7291 0.127164 40.7363 0.132689 40.7436C0.140217 40.7536 0.147824 40.7633 0.155912 40.7728C0.158074 40.7753 0.159916 40.7781 0.161998 40.7805C0.165602 40.7846 0.169686 40.788 0.173289 40.7919C0.182818 40.8021 0.192428 40.812 0.202518 40.8216C0.209324 40.8281 0.216131 40.8343 0.223178 40.8405C0.232787 40.8488 0.242717 40.8568 0.252727 40.8646C0.260414 40.8705 0.268102 40.8765 0.276029 40.882C0.286199 40.8891 0.29677 40.8958 0.30742 40.9024C0.315428 40.9074 0.323355 40.9124 0.331603 40.917C0.343455 40.9237 0.355627 40.9295 0.367879 40.9354C0.375246 40.9389 0.382373 40.9429 0.3899 40.9461C0.404635 40.9525 0.41993 40.958 0.435225 40.9634C0.44051 40.9652 0.445555 40.9675 0.45084 40.9691C0.470459 40.9753 0.490398 40.9805 0.510658 40.9849C0.511859 40.9852 0.513061 40.9856 0.514342 40.9859C0.557344 40.9945 0.601787 40.9993 0.647352 40.9993H40.3526C40.3983 40.9993 40.4427 40.9945 40.4857 40.9856C40.4869 40.9853 40.4881 40.9848 40.4893 40.9846C40.5096 40.9802 40.5296 40.975 40.5492 40.9687C40.5544 40.9671 40.5595 40.9648 40.5648 40.9631C40.5802 40.9577 40.5954 40.9522 40.6102 40.9458C40.6176 40.9426 40.6248 40.9387 40.6321 40.9352C40.6444 40.9293 40.6566 40.9234 40.6684 40.9168C40.6766 40.9122 40.6846 40.907 40.6926 40.9021C40.7032 40.8955 40.7137 40.8889 40.724 40.8818C40.7319 40.8763 40.7396 40.8703 40.7473 40.8643C40.7574 40.8565 40.7672 40.8486 40.7768 40.8402C40.7838 40.834 40.7908 40.8279 40.7975 40.8214C40.8076 40.8118 40.8173 40.8019 40.8267 40.7917C40.8304 40.7877 40.8345 40.7842 40.838 40.7802C40.8402 40.7778 40.842 40.775 40.8442 40.7725C40.8523 40.763 40.8599 40.7533 40.8674 40.7434C40.8729 40.736 40.8786 40.7289 40.8838 40.7215C40.8905 40.7118 40.8968 40.7018 40.9029 40.6917C40.908 40.6836 40.9132 40.6754 40.9178 40.6672C40.9233 40.6574 40.9281 40.6472 40.9331 40.6371C40.9375 40.6282 40.942 40.6194 40.946 40.6105C40.9504 40.6004 40.9541 40.59 40.958 40.5797C40.9616 40.5704 40.9653 40.5609 40.9684 40.5514C40.9717 40.5412 40.9743 40.5307 40.9771 40.5203C40.9797 40.5103 40.9826 40.5003 40.9849 40.4901C40.987 40.4801 40.9885 40.4699 40.9903 40.4595C40.9922 40.4486 40.994 40.4378 40.9954 40.427C40.9965 40.4172 40.9971 40.4074 40.9978 40.3975C40.9986 40.3858 40.9993 40.3742 40.9995 40.3624C40.9996 40.3589 41 40.3554 41 40.3518V15.0631C41.0001 15.0627 41.0001 15.0623 41.0001 15.0619V15.0599V15.0588C41 15.0565 40.9997 15.0543 40.9997 15.0519ZM38.3591 15.7073L35.9194 17.4785L30.4166 15.7073H38.3591ZM9.9622 15.2583L11.3548 10.932L26.094 15.6762L34.6213 18.421L31.653 20.576L19.1403 16.5483C18.8 16.4392 18.4353 16.6258 18.3256 16.9662C18.2161 17.3065 18.4032 17.6712 18.7436 17.7808L30.3551 21.5183L28.7686 22.67L13.7998 17.8519C13.4596 17.7427 13.0948 17.9295 12.9851 18.2699C12.8756 18.6101 13.0627 18.9749 13.4031 19.0845L27.4705 23.6124L25.8841 24.764L23.9374 24.1374C23.5973 24.028 23.2324 24.2149 23.1228 24.5553C23.0133 24.8955 23.2003 25.2603 23.5407 25.3699L24.5861 25.7064L20.5001 28.6728L8.45825 19.9307L9.9622 15.2583ZM8.45745 15.7073L7.35574 19.1302L2.64098 15.7073H8.45745ZM1.2947 16.3299L15.34 26.5268L1.2947 38.9176V16.3299ZM2.35982 39.7046L16.4138 27.3063L20.1199 29.9969C20.1226 29.9989 20.1256 30.0002 20.1284 30.0022C20.1536 30.0198 20.1794 30.0362 20.2064 30.0498C20.2072 30.0501 20.2078 30.0506 20.2085 30.051C20.2088 30.0512 20.2092 30.0514 20.2095 30.0515C20.2367 30.0651 20.2649 30.0763 20.2936 30.086C20.3028 30.0891 20.3121 30.0916 20.3215 30.0943C20.3417 30.1001 20.3621 30.1049 20.3827 30.1087C20.3925 30.1105 20.4022 30.1125 20.4121 30.1138C20.4401 30.1178 20.4683 30.1202 20.4966 30.1203C20.4976 30.1203 20.4986 30.1206 20.4996 30.1206C20.4998 30.1206 20.4999 30.1205 20.5001 30.1205C20.5002 30.1205 20.5004 30.1206 20.5006 30.1206C20.5016 30.1206 20.5026 30.1203 20.5036 30.1203C20.532 30.1202 20.5601 30.1178 20.5881 30.1138C20.598 30.1125 20.6078 30.1105 20.6176 30.1086C20.6382 30.1049 20.6585 30.1001 20.6786 30.0943C20.6879 30.0916 20.6975 30.0891 20.7068 30.0859C20.7353 30.0763 20.7635 30.0651 20.7907 30.0515C20.791 30.0514 20.7914 30.0512 20.7917 30.051C20.7926 30.0506 20.7933 30.05 20.7942 30.0496C20.821 30.0359 20.8467 30.0197 20.8718 30.0022C20.8745 30.0002 20.8776 29.9989 20.8805 29.9969L24.5864 27.3064L38.6403 39.7046H2.35982ZM39.7053 38.9175L25.6601 26.527L32.1446 21.8193C32.145 21.819 32.1454 21.8186 32.1458 21.8184L39.7053 16.33V38.9175Z" fill="#002866"></path><path d="M14.4805 16.4042L16.8392 17.1634C16.9051 17.1845 16.9719 17.1946 17.0377 17.1946C17.3112 17.1946 17.5654 17.0198 17.6538 16.7454C17.7633 16.4051 17.5763 16.0404 17.2359 15.9308L14.8772 15.1717C14.5371 15.0622 14.1722 15.2493 14.0625 15.5896C13.9531 15.93 14.1401 16.2946 14.4805 16.4042Z" fill="#002866"></path><path d="M21.8662 24.7985C22.1398 24.7985 22.394 24.6237 22.4824 24.3494C22.5919 24.0091 22.4048 23.6444 22.0644 23.5347L12.7228 20.528C12.3827 20.4189 12.0178 20.6055 11.9082 20.9459C11.7988 21.2862 11.9859 21.6509 12.3262 21.7605L21.6677 24.7673C21.7336 24.7884 21.8004 24.7985 21.8662 24.7985Z" fill="#002866"></path></svg>