<svg width="41" height="41" viewBox="0 0 41 41" fill="none" xmlns="http://www.w3.org/2000/svg">
<path d="M38.8038 28.9653C38.759 28.8693 38.7172 28.7896 38.6784 28.7257C38.0365 27.5756 36.8097 26.1639 34.9989 24.4902L34.9607 24.4519L34.9415 24.4331L34.9221 24.4138H34.9027C34.0809 23.6345 33.5604 23.1105 33.3425 22.8422C32.9437 22.3311 32.8544 21.8138 33.0723 21.2896C33.2263 20.8936 33.8047 20.0573 34.8061 18.7795C35.3329 18.1023 35.7501 17.5595 36.0582 17.1506C38.2802 14.212 39.2435 12.3342 38.948 11.5165L38.8332 11.3254C38.7561 11.2103 38.557 11.1051 38.2363 11.0091C37.9149 10.9133 37.504 10.8975 37.003 10.9613L31.455 10.9994C31.3652 10.9677 31.2368 10.9707 31.0696 11.0091C30.9026 11.0475 30.8191 11.0667 30.8191 11.0667L30.7225 11.1147L30.6459 11.1724C30.5817 11.2105 30.511 11.2776 30.4339 11.3734C30.3572 11.4689 30.293 11.581 30.2417 11.7088C29.6377 13.2547 28.9509 14.6919 28.1802 16.0206C27.705 16.8128 27.2685 17.4994 26.87 18.0807C26.472 18.6619 26.138 19.09 25.8685 19.3645C25.5986 19.6392 25.3551 19.8593 25.1363 20.0256C24.9179 20.1919 24.7512 20.2622 24.6357 20.2365C24.52 20.2108 24.411 20.1853 24.3079 20.1598C24.1282 20.0447 23.9836 19.8883 23.8747 19.6902C23.7652 19.4922 23.6915 19.243 23.653 18.9428C23.6147 18.6423 23.592 18.3839 23.5855 18.1666C23.5795 17.9496 23.5823 17.6427 23.5953 17.2467C23.6087 16.8504 23.6147 16.5824 23.6147 16.4418C23.6147 15.9563 23.6242 15.4293 23.6433 14.8608C23.6627 14.2922 23.6785 13.8418 23.6916 13.5099C23.7047 13.1777 23.7108 12.8263 23.7108 12.4558C23.7108 12.0853 23.6881 11.7947 23.6433 11.5838C23.599 11.3732 23.5311 11.1687 23.4416 10.9705C23.3515 10.7725 23.2196 10.6193 23.0466 10.5106C22.8733 10.402 22.6578 10.3158 22.4013 10.2517C21.7206 10.0985 20.8537 10.0156 19.8004 10.0027C17.4117 9.97722 15.8769 10.1307 15.1962 10.4628C14.9265 10.6032 14.6825 10.795 14.4643 11.0375C14.233 11.3187 14.2008 11.4722 14.3677 11.4974C15.1384 11.6122 15.684 11.887 16.0051 12.3213L16.1208 12.5515C16.2108 12.7175 16.3007 13.0115 16.3907 13.4331C16.4805 13.8546 16.5384 14.3209 16.5639 14.8317C16.628 15.7645 16.628 16.563 16.5639 17.2272C16.4996 17.8917 16.4389 18.409 16.3809 18.7795C16.323 19.1501 16.2363 19.4503 16.1208 19.6802C16.0051 19.9101 15.9281 20.0507 15.8895 20.1017C15.851 20.1527 15.8189 20.1849 15.7934 20.1975C15.6264 20.2611 15.4528 20.2935 15.2732 20.2935C15.0932 20.2935 14.875 20.204 14.6182 20.0251C14.3614 19.8461 14.095 19.6003 13.8188 19.2872C13.5426 18.9741 13.2312 18.5366 12.8843 17.9745C12.5377 17.4124 12.1781 16.7481 11.8056 15.9816L11.4974 15.4256C11.3048 15.068 11.0417 14.5473 10.7077 13.8639C10.3736 13.1803 10.0783 12.519 9.82152 11.8802C9.71889 11.6119 9.56472 11.4077 9.35926 11.2671L9.26284 11.2094C9.19874 11.1584 9.09584 11.1043 8.95468 11.0465C8.81332 10.9889 8.66583 10.9475 8.51158 10.9221L3.23316 10.9602C2.69377 10.9602 2.32779 11.0818 2.13508 11.3246L2.05796 11.4394C2.01943 11.5034 2 11.6055 2 11.7462C2 11.8867 2.03853 12.0592 2.11565 12.2635C2.8862 14.065 3.72416 15.8025 4.62953 17.4761C5.5349 19.1497 6.32164 20.4979 6.9893 21.5193C7.65709 22.5415 8.33777 23.5063 9.03133 24.4131C9.7249 25.3202 10.184 25.9016 10.4086 26.157C10.6335 26.4129 10.8102 26.6042 10.9386 26.7319L11.4203 27.1917C11.7285 27.4984 12.1811 27.8657 12.7783 28.2936C13.3756 28.7218 14.037 29.1433 14.7626 29.5589C15.4883 29.9737 16.3326 30.3123 17.296 30.5742C18.2591 30.8363 19.1966 30.9414 20.1085 30.8907H22.324C22.7733 30.8521 23.1137 30.7116 23.3451 30.469L23.4217 30.3729C23.4733 30.2967 23.5215 30.1782 23.566 30.0188C23.6111 29.8591 23.6335 29.6832 23.6335 29.4918C23.6204 28.9426 23.6624 28.4475 23.7585 28.0068C23.8545 27.5662 23.9639 27.234 24.0863 27.0103C24.2087 26.7868 24.3467 26.5982 24.5004 26.4453C24.6543 26.292 24.764 26.1992 24.8284 26.1673C24.8924 26.1351 24.9435 26.1133 24.982 26.1002C25.2902 25.998 25.653 26.097 26.0708 26.3975C26.4882 26.6977 26.8798 27.0684 27.246 27.509C27.6121 27.95 28.0519 28.4448 28.5655 28.994C29.0794 29.5435 29.5288 29.9519 29.9139 30.2206L30.2991 30.4506C30.5563 30.604 30.8902 30.7446 31.3013 30.8723C31.7116 31 32.0711 31.0319 32.3798 30.9681L37.3112 30.8916C37.799 30.8916 38.1786 30.8112 38.4478 30.6518C38.7175 30.4921 38.8778 30.3162 38.9295 30.1248C38.981 29.9333 38.9838 29.7159 38.9393 29.4729C38.8936 29.2306 38.8486 29.0611 38.8038 28.9653Z" fill="#002866"/>
</svg>
