<svg width="50" height="50" viewBox="0 0 50 50" fill="none" xmlns="http://www.w3.org/2000/svg">
<path d="M43.75 25.0001C43.7501 25.2717 43.6793 25.5386 43.5448 25.7745C43.4103 26.0104 43.2166 26.2072 42.9828 26.3454L8.60781 46.6579C8.37051 46.7983 8.1003 46.8733 7.82462 46.8754C7.54894 46.8776 7.27761 46.8067 7.03815 46.6701C6.7987 46.5335 6.59966 46.3359 6.46124 46.0975C6.32281 45.8591 6.24994 45.5883 6.25 45.3126V4.68762C6.24994 4.41193 6.32281 4.14114 6.46124 3.90272C6.59966 3.6643 6.7987 3.46675 7.03815 3.33013C7.27761 3.1935 7.54894 3.12266 7.82462 3.1248C8.1003 3.12694 8.37051 3.20198 8.60781 3.34231L42.9828 23.6548C43.2166 23.793 43.4103 23.9898 43.5448 24.2257C43.6793 24.4616 43.7501 24.7285 43.75 25.0001Z" fill="#002866"/>
</svg>
