<svg width="41" height="41" viewBox="0 0 41 41" fill="none" xmlns="http://www.w3.org/2000/svg">
<path d="M36.8167 11.89C36.49 10.0866 34.9332 8.77336 33.1267 8.36336C30.4232 7.79 25.42 7.38 20.0067 7.38C14.5966 7.38 9.51324 7.79 6.8066 8.36336C5.00324 8.77336 3.44332 10.0034 3.1166 11.89C2.78668 13.94 2.45996 16.81 2.45996 20.5C2.45996 24.19 2.78668 27.06 3.19668 29.11C3.5266 30.9134 5.08332 32.2266 6.88668 32.6366C9.75668 33.21 14.6767 33.62 20.09 33.62C25.5032 33.62 30.4232 33.21 33.2932 32.6366C35.0966 32.2266 36.6533 30.9966 36.9832 29.11C37.31 27.06 37.72 24.1067 37.8032 20.5C37.6367 16.81 37.2267 13.94 36.8167 11.89ZM15.58 26.24V14.76L25.5833 20.5L15.58 26.24Z" fill="#002866"/>
</svg>
