<svg width="42" height="47" viewBox="0 0 42 47" fill="none" xmlns="http://www.w3.org/2000/svg">
<path d="M2.93747 0H27.8959L41.1249 13.1777V44.0625C41.1249 45.6854 39.809 47 38.1874 47H2.93747C1.31593 47 0 45.6854 0 44.0625V2.93747C0 1.31456 1.31608 0 2.93747 0Z" fill="white"/>
<path d="M41.0824 13.2187H30.8437C29.2222 13.2187 27.9062 11.9028 27.9062 10.2813V0.0293579L41.0824 13.2187Z" fill="#5060D6"/>
<path d="M30.1064 22.2706C30.5985 22.2706 30.8393 21.8417 30.8393 21.426C30.8393 20.9957 30.5881 20.58 30.1064 20.58H27.304C26.7562 20.58 26.4507 21.0338 26.4507 21.5347V28.4216C26.4507 29.0356 26.8002 29.3763 27.2732 29.3763C27.7432 29.3763 28.0943 29.0356 28.0943 28.4216V26.5314H29.7892C30.315 26.5314 30.578 26.101 30.578 25.6737C30.578 25.2551 30.315 24.8393 29.7892 24.8393H28.0943V22.2706C28.0943 22.2706 30.1064 22.2706 30.1064 22.2706ZM20.6344 20.58H18.584C18.0273 20.58 17.6322 20.9619 17.6322 21.5288V28.4276C17.6322 29.131 18.2006 29.3514 18.6074 29.3514H20.7592C23.3059 29.3514 24.9877 27.6756 24.9877 25.089C24.9863 22.3543 23.403 20.58 20.6344 20.58ZM20.7329 27.6507H19.4829V22.2809H20.6095C22.3148 22.2809 23.0564 23.4251 23.0564 25.0039C23.0564 26.4816 22.3278 27.6507 20.7329 27.6507ZM13.2217 20.58H11.1904C10.6161 20.58 10.2959 20.9589 10.2959 21.5347V28.4216C10.2959 29.0356 10.6631 29.3763 11.1565 29.3763C11.65 29.3763 12.0171 29.0356 12.0171 28.4216V26.4109H13.2905C14.8621 26.4109 16.159 25.2975 16.159 23.5072C16.1591 21.7551 14.9078 20.58 13.2217 20.58ZM13.1879 24.7954H12.0173V22.1972H13.1879C13.9106 22.1972 14.3703 22.7611 14.3703 23.497C14.3688 24.2315 13.9106 24.7954 13.1879 24.7954Z" fill="#9B66D3"/>
</svg>
