<svg width="36" height="36" viewBox="0 0 36 36" fill="none" xmlns="http://www.w3.org/2000/svg">
<circle cx="18" cy="18" r="18" fill="#48626F"/>
<path d="M17.9995 7C13.5338 7 9.90039 10.6335 9.90039 15.0995C9.90039 16.2644 10.1388 17.3767 10.6087 18.4056C12.6337 22.8368 16.5162 27.5151 17.6581 28.8433C17.7437 28.9426 17.8684 28.9998 17.9997 28.9998C18.1309 28.9998 18.2557 28.9426 18.3412 28.8433C19.4827 27.5154 23.3652 22.8372 25.3909 18.4056C25.861 17.3767 26.0992 16.2644 26.0992 15.0995C26.0987 10.6335 22.4653 7 17.9995 7ZM17.9995 19.3064C15.6797 19.3064 13.7923 17.419 13.7923 15.0993C13.7923 12.7794 15.6797 10.8919 17.9995 10.8919C20.3192 10.8919 22.2066 12.7794 22.2066 15.0993C22.2068 17.419 20.3194 19.3064 17.9995 19.3064Z" fill="white"/>
</svg>
