<svg width="70" height="70" viewBox="0 0 70 70" fill="none" xmlns="http://www.w3.org/2000/svg">
<g clip-path="url(#clip0)">
<path d="M48.2336 0.469934C47.9495 0.172822 47.5571 0.00355114 47.1464 0H20.4797C17.1381 0 14.3463 2.73911 14.3463 6.08073V10.6061H6.84337C3.50175 10.6061 0.709961 13.386 0.709961 16.727V63.9193C0.709961 67.2609 3.50175 70 6.84337 70H42.1523C45.4939 70 48.2857 67.2609 48.2857 63.9193V59.3939H55.7887C59.1303 59.3939 61.9221 56.614 61.9221 53.273V15.1213C61.9085 14.7212 61.7422 14.3419 61.4575 14.0607L48.2336 0.469934ZM48.5887 5.27166L56.7516 13.6364H49.6162C49.0693 13.6269 48.6213 13.1978 48.5887 12.6515V5.27166ZM45.2554 63.9193C45.2554 65.5901 43.8231 66.9697 42.1523 66.9697H6.84337C5.17256 66.9697 3.74026 65.5901 3.74026 63.9193V16.727C3.77163 15.0284 5.14474 13.6612 6.84337 13.6364H14.3463V53.273C14.3463 56.6146 17.1381 59.3939 20.4797 59.3939H45.2554V63.9193ZM55.7887 56.3636H20.4797C18.7811 56.3388 17.408 54.9716 17.3766 53.273V6.08073C17.3766 4.40992 18.8089 3.0303 20.4797 3.0303H45.5584V12.6515C45.5584 14.8485 47.4192 16.6667 49.6162 16.6667H58.8918V53.273C58.8604 54.9716 57.4873 56.3388 55.7887 56.3636Z" fill="#48626F"/>
<path d="M51.9675 47.1213H23.5401C22.7032 47.1213 22.0249 47.7996 22.0249 48.6365C22.0249 49.4734 22.7032 50.1516 23.5401 50.1516H51.9675C52.8044 50.1516 53.4826 49.4734 53.4826 48.6365C53.4826 47.7996 52.8044 47.1213 51.9675 47.1213Z" fill="#48626F"/>
<path d="M23.5401 43.4849H40.5583C41.3952 43.4849 42.0734 42.8066 42.0734 41.9697C42.0734 41.1329 41.3952 40.4546 40.5583 40.4546H23.5401C22.7032 40.4546 22.0249 41.1329 22.0249 41.9697C22.0249 42.8066 22.7032 43.4849 23.5401 43.4849Z" fill="#48626F"/>
<path d="M37.0327 26.2003V28.3024H41.6332C41.7841 28.3024 41.9047 28.4002 41.9952 28.5957C42.0958 28.7913 42.1461 29.1444 42.1461 29.6549C42.1461 30.1547 42.1008 30.5132 42.0103 30.7305C41.9198 30.9369 41.7941 31.0401 41.6332 31.0401H37.0327V34.3155C37.0327 34.4241 37.0075 34.5219 36.9572 34.6088C36.907 34.6957 36.8114 34.7663 36.6707 34.8206C36.5399 34.875 36.3489 34.9184 36.0975 34.951C35.8561 34.9836 35.5444 34.9999 35.1623 34.9999C34.7802 34.9999 34.4634 34.9836 34.212 34.951C33.9606 34.9184 33.7595 34.875 33.6087 34.8206C33.4679 34.7663 33.3673 34.6957 33.307 34.6088C33.2466 34.5219 33.2165 34.4241 33.2165 34.3155V31.0401H31.8137C31.6628 31.0401 31.5422 30.9369 31.4517 30.7305C31.3612 30.5132 31.3159 30.1547 31.3159 29.6549C31.3159 29.1444 31.3561 28.7913 31.4366 28.5957C31.517 28.4002 31.6327 28.3024 31.7835 28.3024H33.2165V26.2003H31.7835C31.6327 26.2003 31.517 26.0971 31.4366 25.8907C31.3561 25.6734 31.3159 25.3149 31.3159 24.8152C31.3159 24.3154 31.3612 23.9678 31.4517 23.7723C31.5522 23.5658 31.6729 23.4626 31.8137 23.4626H33.2165V15.3475C33.2165 14.826 33.3371 14.4403 33.5785 14.1905C33.8299 13.9406 34.1567 13.8157 34.5589 13.8157H39.5215C40.3963 13.8157 41.226 13.9406 42.0103 14.1905C42.8047 14.4295 43.4986 14.8043 44.0919 15.3149C44.6952 15.8146 45.1729 16.4447 45.5248 17.2051C45.8768 17.9656 46.0528 18.8564 46.0528 19.8776C46.0528 20.9097 45.8868 21.8222 45.555 22.6153C45.2332 23.3975 44.7606 24.0547 44.1371 24.587C43.5237 25.1194 42.7695 25.5213 41.8746 25.7929C40.9796 26.0645 39.969 26.2003 38.8427 26.2003H37.0327ZM37.0327 16.5533V23.4626H38.8126C39.436 23.4626 39.9589 23.3866 40.3813 23.2345C40.8036 23.0715 41.1455 22.838 41.407 22.5338C41.6684 22.2296 41.8544 21.8602 41.9651 21.4257C42.0757 20.9911 42.131 20.5023 42.131 19.9591C42.131 19.2204 42.0304 18.6283 41.8293 18.1829C41.6282 17.7266 41.3617 17.379 41.0299 17.14C40.7081 16.901 40.341 16.7434 39.9288 16.6674C39.5265 16.5913 39.1243 16.5533 38.722 16.5533H37.0327Z" fill="#48626F"/>
</g>
<defs>
<clipPath id="clip0">
<rect width="70" height="70" fill="white"/>
</clipPath>
</defs>
</svg>
