<svg width="36" height="36" viewBox="0 0 36 36" fill="none" xmlns="http://www.w3.org/2000/svg">
<path d="M30.726 5.27015C23.6955 -1.75821 12.2985 -1.75652 5.27016 5.27402C-1.75821 12.3046 -1.75652 23.7015 5.27402 30.7299C12.3046 37.7582 23.7015 37.7565 30.7299 30.726C34.1053 27.3495 36.0011 22.7704 36 17.9961C35.999 13.2226 34.1019 8.64501 30.726 5.27015ZM27.2604 25.0738C27.2596 25.0746 27.2588 25.0754 27.258 25.0762V25.0702L26.346 25.9762C25.1665 27.1706 23.4487 27.662 21.8159 27.2722C20.171 26.8319 18.6072 26.131 17.184 25.1962C15.8617 24.3511 14.6363 23.3632 13.53 22.2502C12.5121 21.2397 11.5976 20.1302 10.7999 18.9382C9.92751 17.6555 9.23697 16.2583 8.74795 14.7862C8.18735 13.0568 8.6519 11.1591 9.94797 9.88419L11.0159 8.81622C11.3129 8.51795 11.7954 8.5169 12.0936 8.81383C12.0943 8.8146 12.0952 8.81537 12.0959 8.81622L15.4679 12.1882C15.7662 12.4851 15.7672 12.9676 15.4703 13.2658C15.4695 13.2666 15.4688 13.2673 15.4679 13.2682L13.4879 15.2482C12.9198 15.8101 12.8484 16.7031 13.3199 17.3482C14.0361 18.331 14.8286 19.2558 15.69 20.1142C16.6504 21.0788 17.6944 21.9562 18.8099 22.7362C19.4545 23.1858 20.3283 23.11 20.8859 22.5562L22.7999 20.6122C23.0968 20.314 23.5793 20.3129 23.8775 20.6099C23.8783 20.6106 23.879 20.6114 23.8799 20.6122L27.2579 23.9962C27.5562 24.2931 27.5573 24.7755 27.2604 25.0738Z" fill="#48626F"/>
</svg>
