<svg width="70" height="70" viewBox="0 0 70 70" fill="none" xmlns="http://www.w3.org/2000/svg">
<path d="M68.6225 28.5705L62.4214 27.9731C61.7438 25.3618 60.6916 22.8617 59.2977 20.5517L63.2423 15.7886C63.7405 15.187 63.7018 14.3055 63.1526 13.7497L56.3083 6.81687C55.7537 6.25573 54.8627 6.21055 54.2546 6.71403L49.4819 10.667C47.1714 9.27839 44.676 8.22388 42.07 7.53553L41.4726 1.35468C41.3953 0.578354 40.7373 -0.0101296 39.9574 -0.000618765H30.1303C29.3505 -0.0101296 28.693 0.578354 28.6157 1.35468L28.0183 7.54504C25.4064 8.22091 22.9069 9.27126 20.5969 10.6634L15.8338 6.71641C15.2292 6.21531 14.3423 6.25632 13.7872 6.81152L6.85434 13.7425C6.29915 14.2977 6.25754 15.184 6.75864 15.7886L10.711 20.5618C9.323 22.8718 8.26849 25.3672 7.58014 27.9731L1.37729 28.5711C0.596805 28.646 0.00118885 29.3017 0 30.0857V39.9134C0.000594427 40.6974 0.596805 41.3531 1.37729 41.428L7.57836 42.0254C8.256 44.6373 9.30814 47.1369 10.7021 49.4468L6.75805 54.21C6.25694 54.8145 6.29855 55.7014 6.85375 56.2566L13.786 63.1882C14.3412 63.744 15.2274 63.7856 15.8326 63.2845L20.6058 59.3322C22.9164 60.7201 25.4118 61.7741 28.0177 62.463L28.6151 68.6439C28.6924 69.4202 29.3505 70.0087 30.1303 69.9992H39.958C40.7379 70.0087 41.3953 69.4202 41.4726 68.6439L41.8322 64.9233C44.8733 67.7552 48.875 69.3292 53.0301 69.3275C62.1058 69.3275 69.4892 61.9631 69.4892 52.9076C69.491 48.7787 67.93 44.802 65.1189 41.7775L68.6284 41.4274C69.4065 41.3501 69.9998 40.6951 69.9998 39.9134V30.0857C69.9992 29.3011 69.403 28.646 68.6225 28.5705ZM36.6964 50.8865C36.1471 50.9436 35.5955 50.9733 35.0439 50.9745C26.2214 50.9745 19.0692 43.8224 19.0692 34.9999C19.0692 26.1774 26.2208 19.0252 35.0433 19.0252C43.8658 19.0252 51.0179 26.1768 51.0185 34.9993C51.0173 35.5408 50.9888 36.0817 50.9335 36.6209C43.4937 37.5797 37.6403 43.4443 36.6964 50.8865ZM53.0301 66.2887C45.6324 66.2887 39.6144 60.2874 39.6144 52.91C39.6144 45.5331 45.6324 39.5312 53.0301 39.5312C60.4271 39.5312 66.4451 45.5331 66.4451 52.91C66.4451 60.2874 60.4271 66.2887 53.0301 66.2887ZM66.9563 38.5361L61.8472 39.0479C59.4903 37.5494 56.7898 36.6785 54.002 36.5174C54.0418 36.0128 54.0626 35.5057 54.0626 34.9993C54.0626 24.4957 45.548 15.9812 35.0445 15.9812C24.5415 15.9812 16.0264 24.4951 16.0264 34.9987C16.0258 45.5022 24.5403 54.0168 35.0439 54.0174C35.5646 54.0174 36.0853 53.996 36.6054 53.9526C36.7766 56.6751 37.632 59.3108 39.0925 61.6148L38.576 66.9557H31.5124L30.9429 61.0691C30.8787 60.4122 30.3955 59.8731 29.7499 59.7376C26.7427 59.0706 23.8805 57.8651 21.3031 56.1787C20.7449 55.8191 20.0179 55.8637 19.5073 56.2875L14.9588 60.0562L9.98579 55.0838L13.7527 50.5352C14.1819 50.0181 14.2205 49.2804 13.8478 48.721C12.1513 46.1567 10.9464 43.2987 10.2961 40.2932C10.1552 39.6459 9.61249 39.1638 8.95327 39.1002L3.04347 38.5308V31.4678L8.95208 30.8983C9.6113 30.8347 10.154 30.3526 10.2943 29.7053C10.9636 26.6975 12.1709 23.8359 13.8591 21.2579C14.2193 20.7003 14.1759 19.9739 13.7527 19.4627L9.98579 14.9142L14.9588 9.94118L19.5079 13.7087C20.0257 14.1372 20.7634 14.1753 21.3221 13.8026C23.8865 12.1055 26.7445 10.9012 29.7499 10.2509C30.3943 10.1201 30.8781 9.58393 30.9429 8.93006L31.5124 3.04285H38.576L39.1454 8.93006C39.2096 9.58631 39.6929 10.1255 40.3384 10.261C43.3456 10.9279 46.2072 12.134 48.7853 13.8204C49.3434 14.1794 50.0698 14.1355 50.581 13.711L55.1224 9.94831L60.0199 14.9082L56.2477 19.4633C55.8191 19.9811 55.7805 20.7187 56.1532 21.2775C57.8503 23.8419 59.0546 26.6999 59.7055 29.7053C59.8458 30.3526 60.3885 30.8347 61.0483 30.8983L66.9563 31.4678V38.5361Z" fill="#48626F"/>
</svg>
