<svg width="70" height="70" viewBox="0 0 70 70" fill="none" xmlns="http://www.w3.org/2000/svg">
<path d="M68.7277 57.439C68.2634 56.7195 67.7095 56.0832 67.081 55.5478L60.6928 49.9761C60.643 49.9012 60.5853 49.8301 60.5193 49.7641C60.4083 49.6532 60.2825 49.5666 60.1488 49.5018L56.2855 46.1324L38.404 30.534C39.136 29.7688 39.5391 28.7681 39.5391 27.704C39.5391 26.6078 39.1124 25.5776 38.3368 24.8022C37.9985 24.4643 37.6141 24.1987 37.2032 24.0041L38.8575 22.3498C39.3199 22.4727 39.795 22.5356 40.2705 22.5356C41.6706 22.5355 43.0709 22.0026 44.1368 20.9367C45.1701 19.9035 45.7391 18.5302 45.7391 17.0696C45.7391 15.609 45.1701 14.2357 44.1369 13.2025L32.5366 1.60245C31.5034 0.569269 30.1299 0.000244141 28.6689 0.000244141C27.2086 0.000244141 25.8356 0.569269 24.8025 1.60245C23.3746 3.03035 22.9046 5.05775 23.3894 6.88186L6.884 23.3871C6.4279 23.2659 5.95335 23.2019 5.46855 23.2019C4.00729 23.2019 2.6345 23.7705 1.60213 24.8027C-0.530138 26.935 -0.530138 30.4045 1.60213 32.5369L13.2023 44.1372C14.2686 45.2034 15.669 45.7364 17.0694 45.7364C18.47 45.7364 19.8704 45.2034 20.9367 44.1372C22.3646 42.7092 22.8346 40.6819 22.3498 38.8578L24.0007 37.2068C24.199 37.6211 24.4682 38.0033 24.8027 38.3376C25.5773 39.1123 26.6072 39.539 27.7032 39.539C28.7661 39.539 29.7664 39.1366 30.5327 38.4054L49.5785 60.2879C49.631 60.3699 49.6922 60.448 49.7639 60.5196C49.7883 60.5441 49.8143 60.5664 49.8402 60.5885L55.5155 67.1092C55.6566 67.2757 55.8074 67.4395 55.9639 67.596C57.5227 69.1542 59.5815 69.9998 61.743 69.9998C62.1241 69.9998 62.5087 69.9736 62.8938 69.9203C65.4681 69.564 67.6929 68.024 68.9975 65.6945C70.4266 63.1416 70.3202 59.9004 68.7277 57.439ZM26.7361 3.53593C27.2528 3.01927 27.9394 2.73462 28.6691 2.73462C29.3997 2.73462 30.0867 3.01927 30.6032 3.53593L42.2036 15.1361C42.7202 15.6528 43.0047 16.3395 43.0047 17.0697C43.0047 17.8 42.7202 18.4867 42.2034 19.0034C41.1377 20.0694 39.4033 20.0694 38.3376 19.0034L26.7368 7.40262C26.7366 7.40235 26.7364 7.40221 26.7361 7.40194C25.6701 6.33608 25.6701 4.6018 26.7361 3.53593ZM19.0032 42.2038C17.937 43.2699 16.2019 43.27 15.1358 42.2038L3.53561 30.6036C2.46934 29.5373 2.46934 27.8026 3.53561 26.7362C4.05132 26.2204 4.73792 25.9363 5.46855 25.9363C6.19904 25.9363 6.88523 26.2202 7.40079 26.7356L19.003 38.3379C20.0692 39.4036 20.0692 41.138 19.0032 42.2038ZM24.7593 32.5815L20.9365 36.4044L9.33509 24.803L24.8025 9.33528L36.4038 20.9367L32.574 24.7666C32.5616 24.7784 32.5494 24.7899 32.5363 24.8029L24.8065 32.5328C24.7905 32.5485 24.775 32.5649 24.7593 32.5815ZM29.641 35.4336C29.6383 35.4363 29.6357 35.4389 29.6329 35.4416L28.6702 36.4044C28.4119 36.6625 28.0686 36.8047 27.703 36.8047C27.3376 36.8047 26.9941 36.6625 26.736 36.4043C26.4775 36.1459 26.3351 35.8022 26.3351 35.4364C26.3351 35.0785 26.4717 34.7418 26.7196 34.4878L34.4854 26.722C35.0176 26.2044 35.8781 26.2108 36.4041 26.7362C36.6625 26.9946 36.8048 27.3383 36.8048 27.704C36.8048 28.0695 36.6629 28.4122 36.404 28.6705L35.4468 29.6277C35.4402 29.6341 35.4337 29.6407 35.4272 29.6472L29.641 35.4336ZM32.4722 36.4692L36.4679 32.4735L53.3858 47.2302L47.2124 53.4038L32.4722 36.4692ZM49.0118 55.4712L55.4511 49.0318L57.5165 50.8333L50.8111 57.5389L49.0118 55.4712ZM66.6119 64.3588C65.7295 65.9342 64.2378 66.974 62.5191 67.2119C60.8043 67.4492 59.1195 66.8844 57.897 65.6624C57.7919 65.5574 57.6912 65.4479 57.5975 65.3369C57.5931 65.3317 57.5887 65.3265 57.5842 65.3214L52.6104 59.6063L59.5818 52.6347L65.2898 57.6136C65.294 57.6175 65.2984 57.6212 65.3029 57.625C65.7302 57.9882 66.1093 58.4245 66.431 58.923C67.4649 60.5206 67.5373 62.7053 66.6119 64.3588Z" fill="#48626F"/>
</svg>
