<svg width="36" height="36" viewBox="0 0 36 36" fill="none" xmlns="http://www.w3.org/2000/svg">
<path d="M18 0C8.05887 0 0 8.05887 0 18C0 27.9411 8.05887 36 18 36C27.9411 36 36 27.9411 36 18C36 8.05887 27.9411 0 18 0ZM16.875 10.125C16.875 9.50365 17.3787 9 18 9C18.6214 9 19.125 9.50365 19.125 10.125V16.3125C19.125 16.9339 18.6214 17.4375 18 17.4375C17.3787 17.4375 16.875 16.9339 16.875 16.3125V10.125ZM12.1421 16.0795C12.5814 15.6401 13.2937 15.6401 13.733 16.0795L18 20.3465L22.2671 16.0796C22.7064 15.6402 23.4187 15.6402 23.858 16.0796C24.2974 16.5189 24.2974 17.2312 23.858 17.6705L18.7955 22.733C18.3562 23.1723 17.6439 23.1724 17.2046 22.733L12.1421 17.6705C11.7027 17.2311 11.7027 16.5189 12.1421 16.0795ZM24.75 27H11.25C10.6287 27 10.125 26.4964 10.125 25.875C10.125 25.2536 10.6287 24.75 11.25 24.75H24.75C25.3714 24.75 25.875 25.2536 25.875 25.875C25.875 26.4964 25.3714 27 24.75 27Z" fill="url(#paint0_linear)"/>
<defs>
<linearGradient id="paint0_linear" x1="36" y1="36" x2="-1.29195" y2="34.0136" gradientUnits="userSpaceOnUse">
<stop stop-color="#95A9B4"/>
<stop offset="1" stop-color="#48626F"/>
</linearGradient>
</defs>
</svg>
