<svg width="70" height="60" viewBox="0 0 70 60" fill="none" xmlns="http://www.w3.org/2000/svg">
<path d="M68.9606 36.1416L60.976 19.0394L64.4227 20.0281C65.1797 20.2453 65.9695 19.8081 66.1862 19.0506C66.4034 18.2936 65.9662 17.5043 65.2092 17.2871L41.2437 10.4098C41.2487 10.3073 41.2515 10.2048 41.2515 10.1018C41.252 7.25607 39.331 4.76906 36.5771 4.0522C33.8233 3.33478 30.9331 4.56854 29.5456 7.05277L5.57781 0.17603C4.82084 -0.0412005 4.03102 0.396602 3.81379 1.15357C3.59711 1.91053 4.03436 2.6998 4.79132 2.91703L9.52138 4.27444L0.955257 22.6221C0.383774 22.822 0.000557751 23.3612 7.50192e-07 23.9672C-0.00167026 28.5965 2.78835 32.7695 7.06667 34.5369C11.345 36.3048 16.2672 35.3178 19.5335 32.0376C21.7097 29.916 22.939 27.0068 22.9445 23.9672C22.9445 23.3289 22.5196 22.7686 21.9052 22.5953L13.944 5.54385L28.7568 9.79377C28.7518 9.89626 28.749 9.99874 28.749 10.1023C28.7535 13.0038 30.7504 15.522 33.5743 16.187V44.432H29.6386C26.4938 44.432 23.8781 46.9558 23.8781 50.1012V50.9289C21.2318 51.4859 19.3318 53.813 19.3151 56.5178V58.5141C19.3391 59.319 19.9924 59.9629 20.7979 59.9746H49.2027C50.0081 59.9629 50.6615 59.319 50.6854 58.5141V56.5178C50.6687 53.813 48.7688 51.4859 46.1225 50.9289V50.1012C46.1225 46.9558 43.5062 44.432 40.362 44.432H36.4262V16.187C38.1351 15.7832 39.5961 14.6815 40.455 13.1503L56.5946 17.7817L48.0107 36.1683C47.4387 36.3683 47.0554 36.9075 47.0549 37.5129C47.0538 42.1422 49.8438 46.3152 54.1221 48.0826C58.4004 49.8505 63.3221 48.8641 66.5884 45.5839C68.7646 43.4617 69.9944 40.5525 70 37.5129C69.9994 36.8746 69.575 36.3148 68.9606 36.1416ZM11.4363 6.845L18.7325 22.4728H4.14075L11.4363 6.845ZM11.4363 32.4827C7.23656 32.5072 3.64446 29.4704 2.97049 25.3246H19.9674C19.2416 29.4671 15.6423 32.4877 11.4363 32.4827ZM47.8336 56.5178V57.1227H22.167V56.5178C22.167 54.9454 23.5038 53.7005 25.0756 53.7005H44.9249C46.4968 53.7005 47.8336 54.9454 47.8336 56.5178ZM43.2706 50.1012V50.8487H26.7299V50.1012C26.7299 48.5287 28.0667 47.2838 29.6386 47.2838H40.362C41.9338 47.2838 43.2706 48.5287 43.2706 50.1012ZM35.0003 13.5012C33.5504 13.5023 32.2593 12.5843 31.7841 11.2147C31.309 9.84501 31.7541 8.32496 32.8926 7.42763C34.0316 6.5303 35.6141 6.45343 36.8345 7.23658C38.0549 8.01916 38.6447 9.48909 38.3044 10.8983C38.2682 10.9885 38.2415 11.0816 38.2242 11.1768C37.7602 12.5637 36.4624 13.4995 35.0003 13.5012ZM65.7879 36.0191H51.1962L58.4918 20.3913L65.7879 36.0191ZM58.4918 46.0289C54.292 46.0534 50.6999 43.0167 50.0259 38.8709H67.0228C66.297 43.0133 62.6977 46.0339 58.4918 46.0289Z" fill="#48626F"/>
</svg>
