<svg width="36" height="36" viewBox="0 0 36 36" fill="none" xmlns="http://www.w3.org/2000/svg">
<circle cx="18" cy="18" r="18" fill="white"/>
<path d="M17.9996 7C13.534 7 9.90057 10.6335 9.90057 15.0995C9.90057 16.2644 10.139 17.3767 10.6089 18.4056C12.6339 22.8368 16.5164 27.5151 17.6583 28.8433C17.7439 28.9426 17.8686 28.9998 17.9999 28.9998C18.1311 28.9998 18.2559 28.9426 18.3414 28.8433C19.4829 27.5154 23.3654 22.8372 25.3911 18.4056C25.8612 17.3767 26.0994 16.2644 26.0994 15.0995C26.0989 10.6335 22.4655 7 17.9996 7ZM17.9996 19.3064C15.6799 19.3064 13.7925 17.419 13.7925 15.0993C13.7925 12.7794 15.6799 10.8919 17.9996 10.8919C20.3194 10.8919 22.2068 12.7794 22.2068 15.0993C22.207 17.419 20.3196 19.3064 17.9996 19.3064Z" fill="#97AAB6"/>
</svg>
