<svg width="30" height="48" viewBox="0 0 30 48" fill="none" xmlns="http://www.w3.org/2000/svg">
<path d="M28.2517 19.5131C27.8625 19.5131 27.5472 19.8286 27.5472 20.2176V34.0438C27.5472 40.9624 21.9185 46.5911 15 46.5911C8.08138 46.5911 2.4527 40.9624 2.4527 34.0438V20.1214C2.4527 19.7324 2.13737 19.4169 1.7482 19.4169C1.35913 19.4169 1.0437 19.7324 1.0437 20.1214V34.0438C1.0437 41.7393 7.30446 48.0001 15 48.0001C22.6955 48.0001 28.9562 41.7393 28.9562 34.0438V20.2176C28.9562 19.8286 28.6409 19.5131 28.2517 19.5131Z" fill="white"/>
<path d="M15 0C7.30446 0 1.0437 6.26076 1.0437 13.9563V20.3034C1.0437 20.6925 1.35913 21.0079 1.7482 21.0079C2.13737 21.0079 2.4527 20.6925 2.4527 20.3034V13.9563C2.4527 7.2743 7.70321 1.7961 14.2951 1.4292V6.47408C13.0933 6.78716 12.2036 7.88158 12.2036 9.18002V13.2446C12.2036 14.5431 13.0933 15.6375 14.2951 15.9506V20.9375C14.2951 21.3266 14.6104 21.642 14.9996 21.642C15.3888 21.642 15.7041 21.3266 15.7041 20.9375V15.9506C16.9059 15.6375 17.7956 14.5431 17.7956 13.2446V9.18002C17.7956 7.88158 16.9059 6.78716 15.7041 6.47408V1.4291C22.2963 1.79563 27.5472 7.27393 27.5472 13.9562V27.3995C27.5472 27.7885 27.8625 28.104 28.2517 28.104C28.6409 28.104 28.9562 27.7885 28.9562 27.3995V13.9563C28.9562 6.26076 22.6955 0 15 0ZM16.3866 9.18002V13.2446C16.3866 14.0094 15.7644 14.6316 14.9996 14.6316C14.2348 14.6316 13.6126 14.0094 13.6126 13.2446V9.18002C13.6126 8.41522 14.2348 7.793 14.9996 7.793C15.7644 7.793 16.3866 8.41522 16.3866 9.18002Z" fill="white"/>
<path d="M28.2517 19.5131C27.8625 19.5131 27.5472 19.8286 27.5472 20.2176V34.0438C27.5472 40.9624 21.9185 46.5911 15 46.5911C8.08138 46.5911 2.4527 40.9624 2.4527 34.0438V20.1214C2.4527 19.7324 2.13737 19.4169 1.7482 19.4169C1.35913 19.4169 1.0437 19.7324 1.0437 20.1214V34.0438C1.0437 41.7393 7.30446 48.0001 15 48.0001C22.6955 48.0001 28.9562 41.7393 28.9562 34.0438V20.2176C28.9562 19.8286 28.6409 19.5131 28.2517 19.5131Z" stroke="white" stroke-width="0.5"/>
<path d="M15 0C7.30446 0 1.0437 6.26076 1.0437 13.9563V20.3034C1.0437 20.6925 1.35913 21.0079 1.7482 21.0079C2.13737 21.0079 2.4527 20.6925 2.4527 20.3034V13.9563C2.4527 7.2743 7.70321 1.7961 14.2951 1.4292V6.47408C13.0933 6.78716 12.2036 7.88158 12.2036 9.18002V13.2446C12.2036 14.5431 13.0933 15.6375 14.2951 15.9506V20.9375C14.2951 21.3266 14.6104 21.642 14.9996 21.642C15.3888 21.642 15.7041 21.3266 15.7041 20.9375V15.9506C16.9059 15.6375 17.7956 14.5431 17.7956 13.2446V9.18002C17.7956 7.88158 16.9059 6.78716 15.7041 6.47408V1.4291C22.2963 1.79563 27.5472 7.27393 27.5472 13.9562V27.3995C27.5472 27.7885 27.8625 28.104 28.2517 28.104C28.6409 28.104 28.9562 27.7885 28.9562 27.3995V13.9563C28.9562 6.26076 22.6955 0 15 0ZM16.3866 9.18002V13.2446C16.3866 14.0094 15.7644 14.6316 14.9996 14.6316C14.2348 14.6316 13.6126 14.0094 13.6126 13.2446V9.18002C13.6126 8.41522 14.2348 7.793 14.9996 7.793C15.7644 7.793 16.3866 8.41522 16.3866 9.18002Z" stroke="white" stroke-width="0.5"/>
</svg>
