<svg width="37" height="36" viewBox="0 0 37 36" fill="none" xmlns="http://www.w3.org/2000/svg">
<path d="M31.7244 5.27015C24.6939 -1.75821 13.2969 -1.75652 6.26851 5.27402C-0.759855 12.3046 -0.758167 23.7015 6.27237 30.7299C13.3029 37.7582 24.6999 37.7565 31.7282 30.726C35.1036 27.3495 36.9994 22.7704 36.9984 17.9961C36.9974 13.2226 35.1003 8.64501 31.7244 5.27015ZM28.2587 25.0738C28.258 25.0746 28.2572 25.0754 28.2563 25.0762V25.0702L27.3443 25.9762C26.1648 27.1706 24.447 27.662 22.8143 27.2722C21.1693 26.8319 19.6056 26.131 18.1823 25.1962C16.86 24.3511 15.6346 23.3632 14.5283 22.2502C13.5104 21.2397 12.5959 20.1302 11.7983 18.9382C10.9259 17.6555 10.2353 16.2583 9.7463 14.7862C9.1857 13.0568 9.65026 11.1591 10.9463 9.88419L12.0143 8.81622C12.3112 8.51795 12.7937 8.5169 13.0919 8.81383C13.0927 8.8146 13.0935 8.81537 13.0943 8.81622L16.4663 12.1882C16.7645 12.4851 16.7656 12.9676 16.4687 13.2658C16.4679 13.2666 16.4671 13.2673 16.4663 13.2682L14.4863 15.2482C13.9182 15.8101 13.8467 16.7031 14.3183 17.3482C15.0344 18.331 15.8269 19.2558 16.6883 20.1142C17.6487 21.0788 18.6928 21.9562 19.8083 22.7362C20.4528 23.1858 21.3267 23.11 21.8843 22.5562L23.7982 20.6122C24.0952 20.314 24.5777 20.3129 24.8759 20.6099C24.8766 20.6106 24.8774 20.6114 24.8782 20.6122L28.2563 23.9962C28.5546 24.2931 28.5557 24.7755 28.2587 25.0738Z" fill="white"/>
</svg>
