<svg width="191" height="65" viewBox="0 0 191 65" fill="none" xmlns="http://www.w3.org/2000/svg">
<g clip-path="url(#clip0)">
<path d="M32.4373 64.9888C26.0218 64.9888 19.7504 63.085 14.4161 59.5182C9.08181 55.9513 4.92423 50.8816 2.46913 44.9502C0.014024 39.0188 -0.628343 32.492 0.623258 26.1952C1.87486 19.8984 4.96422 14.1144 9.50066 9.57471C14.0371 5.03498 19.8169 1.94339 26.1091 0.690879C32.4013 -0.561629 38.9234 0.0812033 44.8506 2.53809C50.7777 4.99497 55.8437 9.15556 59.408 14.4937C62.9722 19.8319 64.8747 26.1078 64.8747 32.528C64.8569 41.1317 61.4337 49.3779 55.3544 55.4617C49.2751 61.5454 41.0348 64.9711 32.4373 64.9888Z" fill="#48626F"/>
<path opacity="0.5" d="M32.4373 65.0001C29.8789 64.9987 27.3295 64.6943 24.8425 64.0934L32.4373 33.0094L40.021 64.0934C37.5379 64.695 34.9922 64.9994 32.4373 65.0001ZM15.514 60.2205C11.1421 57.5261 7.46397 53.8415 4.77611 49.4637L32.0906 32.8863L15.514 60.2205ZM32.8512 32.8751L60.1768 49.4637C57.4881 53.8446 53.8056 57.5299 49.4278 60.2205L32.8512 32.8751ZM33.0078 32.4945L64.047 24.8942C65.2398 29.8907 65.2398 35.0982 64.047 40.0948L33.0078 32.4945ZM0.905997 40.0948C0.301328 37.5954 -0.00282916 35.0326 -1.11147e-05 32.4609C0.00229129 29.9013 0.30259 27.3507 0.894812 24.8606L31.934 32.4609L0.905997 40.0948ZM4.77611 15.4693C7.46732 11.0971 11.1449 7.41686 15.514 4.7237L32.0906 32.1139L4.77611 15.4693ZM49.4278 4.7237C53.8025 7.41351 57.4844 11.0943 60.1768 15.4693L32.8512 32.1139L49.4278 4.7237ZM24.8761 0.89556C29.869 -0.298194 35.0728 -0.298194 40.0657 0.89556L32.4373 31.9572L24.8761 0.89556Z" fill="url(#paint0_radial)"/>
<path d="M38.4438 42.0985H34.8198L36.6318 39.177L34.3948 35.4944C35.1457 35.0113 35.6823 34.2579 35.8936 33.39L63.4094 40.106C64.6322 35.1282 64.6322 29.928 63.4094 24.9502L35.8936 31.6662C35.7608 31.103 35.492 30.5809 35.1106 30.1458C34.7292 29.7107 34.247 29.376 33.7063 29.1708C33.1655 28.9657 32.5827 28.8965 32.009 28.9693C31.4352 29.042 30.8881 29.2546 30.4156 29.5883C29.9431 29.9219 29.5596 30.3665 29.2988 30.8831C29.038 31.3996 28.9078 31.9723 28.9196 32.5509C28.9315 33.1295 29.0851 33.6964 29.3669 34.2017C29.6486 34.7071 30.05 35.1356 30.5358 35.4496L28.2988 39.1322L30.1108 42.1097H26.498L24.6076 45.255H29.3614L24.8873 63.4778C27.367 64.077 29.9087 64.3813 32.4597 64.3845C35.011 64.387 37.5534 64.0826 40.0322 63.4778L35.558 45.255H40.323" fill="white"/>
<path d="M71.8207 22.9241H74.7848C75.475 22.9093 76.1583 23.063 76.7758 23.3718C77.3338 23.6527 77.7996 24.0877 78.1181 24.6255C78.4264 25.1901 78.5881 25.8233 78.5881 26.4668C78.5881 27.1103 78.4264 27.7434 78.1181 28.3081C77.7915 28.8364 77.3275 29.2659 76.7758 29.5506C76.1556 29.8506 75.4736 30.0001 74.7848 29.9871H71.8207V22.9241ZM74.7289 29.1028C75.2484 29.1148 75.763 28.9995 76.2277 28.767C76.6469 28.5626 76.997 28.2396 77.2344 27.838C77.4733 27.4152 77.5931 26.9355 77.5812 26.45C77.5945 25.9679 77.4745 25.4914 77.2344 25.0732C76.9976 24.6683 76.6477 24.3415 76.2277 24.133C75.762 23.9043 75.2475 23.7929 74.7289 23.8083H72.8274V29.1028H74.7289Z" fill="white"/>
<path d="M80.2992 22.9241H81.3059V29.9759H80.2992V22.9241Z" fill="white"/>
<path d="M84.1245 29.808C83.7093 29.6803 83.3274 29.4624 83.006 29.17L83.3751 28.3865C83.68 28.65 84.0334 28.8515 84.4154 28.9797C84.8285 29.1263 85.2634 29.202 85.7017 29.2036C86.1582 29.2351 86.6138 29.1299 87.0103 28.9014C87.1455 28.8207 87.257 28.7058 87.3336 28.5682C87.4101 28.4306 87.4491 28.2753 87.4466 28.1178C87.4505 28.0081 87.4317 27.8987 87.3912 27.7966C87.3508 27.6945 87.2897 27.6019 87.2117 27.5246C87.0434 27.3706 86.8455 27.2525 86.63 27.1776C86.3952 27.0992 86.0708 27.0097 85.6457 26.9089C85.2102 26.8063 84.7807 26.6792 84.3594 26.5284C84.0376 26.3984 83.7504 26.1953 83.5205 25.9351C83.2707 25.6177 83.1471 25.219 83.1738 24.8158C83.1692 24.4535 83.2745 24.0983 83.4758 23.7972C83.6978 23.4734 84.0085 23.2208 84.3706 23.0696C84.8462 22.8771 85.3566 22.7856 85.8694 22.801C86.2853 22.8003 86.6993 22.8568 87.0998 22.9689C87.4715 23.0575 87.824 23.213 88.1401 23.4278L87.8045 24.2337C87.516 24.0427 87.1988 23.8991 86.8649 23.8084C86.542 23.7115 86.2066 23.6625 85.8694 23.6629C85.4238 23.634 84.9797 23.7392 84.5943 23.9651C84.4604 24.0525 84.3504 24.172 84.2742 24.3128C84.198 24.4535 84.1581 24.611 84.1581 24.771C84.1549 24.8817 84.1752 24.9918 84.2176 25.094C84.26 25.1963 84.3236 25.2884 84.4042 25.3643C84.5745 25.5347 84.7809 25.6648 85.0082 25.7448C85.2431 25.8232 85.5674 25.9127 85.9701 26.0023C86.4043 26.1105 86.8303 26.2489 87.2452 26.4164C87.5657 26.5377 87.8504 26.7379 88.0729 26.9985C88.3175 27.2926 88.4414 27.6687 88.4197 28.0507C88.4216 28.4126 88.3165 28.7669 88.1177 29.0693C87.8897 29.3964 87.5708 29.6494 87.2005 29.7968C86.7212 29.9902 86.207 30.0817 85.6905 30.0655C85.1578 30.0683 84.6284 29.9813 84.1245 29.808Z" fill="white"/>
<path d="M91.5963 23.8084H89.1803V22.9241H95.0078V23.8084H92.5918V29.9759H91.5963V23.8084Z" fill="white"/>
<path d="M100.981 29.976L99.4596 27.8157H99.0234H97.312V29.9536H96.3053V22.9018H99.0569C99.8283 22.8609 100.589 23.0949 101.204 23.5622C101.463 23.7832 101.668 24.0604 101.804 24.3727C101.94 24.685 102.003 25.0242 101.987 25.3644C102.001 25.8578 101.861 26.3431 101.585 26.7523C101.307 27.1403 100.916 27.4334 100.466 27.5918L102.133 29.9536L100.981 29.976ZM100.444 26.562C100.613 26.4185 100.747 26.2377 100.834 26.0337C100.921 25.8297 100.96 25.6083 100.947 25.3867C100.961 25.1651 100.922 24.9434 100.835 24.7393C100.748 24.5352 100.614 24.3544 100.444 24.2114C100.02 23.9127 99.5065 23.7702 98.9898 23.8085H97.312V26.9762H98.9898C99.5078 27.0112 100.022 26.8648 100.444 26.562Z" fill="white"/>
<path d="M108.855 29.1028V29.9759H103.732V22.9241H108.71V23.8084H104.739V25.9687H108.274V26.8641H104.739V29.1028H108.855Z" fill="white"/>
<path d="M111.227 29.808C110.811 29.6803 110.429 29.4624 110.108 29.17L110.477 28.3865C110.779 28.6476 111.129 28.849 111.506 28.9797C111.923 29.1263 112.362 29.202 112.804 29.2036C113.26 29.2351 113.716 29.1299 114.112 28.9014C114.247 28.8207 114.359 28.7058 114.436 28.5682C114.512 28.4306 114.551 28.2753 114.549 28.1178C114.552 28.0081 114.534 27.8987 114.493 27.7966C114.453 27.6945 114.392 27.6019 114.314 27.5246C114.143 27.3682 113.941 27.2499 113.721 27.1776C113.497 27.0992 113.162 27.0097 112.748 26.9089C112.312 26.8063 111.883 26.6792 111.461 26.5284C111.14 26.3984 110.852 26.1953 110.622 25.9351C110.373 25.6177 110.249 25.219 110.276 24.8158C110.271 24.4535 110.376 24.0983 110.578 23.7972C110.8 23.4734 111.11 23.2208 111.473 23.0696C111.948 22.8771 112.459 22.7856 112.971 22.801C113.387 22.8003 113.801 22.8568 114.202 22.9689C114.567 23.0852 114.908 23.2673 115.208 23.5062L114.873 24.3121C114.584 24.1211 114.267 23.9775 113.933 23.8867C113.61 23.7899 113.275 23.7409 112.938 23.7412C112.492 23.7123 112.048 23.8176 111.663 24.0434C111.529 24.1309 111.419 24.2504 111.343 24.3911C111.266 24.5318 111.227 24.6893 111.227 24.8494C111.223 24.96 111.244 25.0701 111.286 25.1724C111.328 25.2746 111.392 25.3667 111.473 25.4426C111.645 25.605 111.851 25.7273 112.077 25.8008C112.311 25.8792 112.636 25.9687 113.039 26.0582C113.476 26.1587 113.906 26.2896 114.325 26.45C114.645 26.5712 114.93 26.7714 115.153 27.0321C115.397 27.3262 115.521 27.7022 115.499 28.0842C115.504 28.445 115.403 28.7993 115.208 29.1028C114.98 29.43 114.662 29.683 114.291 29.8304C113.812 30.0229 113.298 30.1143 112.781 30.0991C112.25 30.0898 111.725 29.9915 111.227 29.808Z" fill="white"/>
<path d="M117.669 29.808C117.254 29.6803 116.872 29.4624 116.551 29.17L116.92 28.3865C117.225 28.65 117.578 28.8515 117.96 28.9797C118.373 29.1263 118.808 29.202 119.246 29.2036C119.703 29.2351 120.158 29.1299 120.555 28.9014C120.69 28.8207 120.802 28.7058 120.878 28.5682C120.955 28.4306 120.994 28.2753 120.991 28.1178C120.995 28.0081 120.976 27.8987 120.936 27.7966C120.895 27.6945 120.834 27.6019 120.756 27.5246C120.588 27.3706 120.39 27.2525 120.175 27.1776C119.94 27.0992 119.615 27.0097 119.19 26.9089C118.755 26.8063 118.325 26.6792 117.904 26.5284C117.582 26.3984 117.295 26.1953 117.065 25.9351C116.815 25.6177 116.692 25.219 116.718 24.8158C116.714 24.4535 116.819 24.0983 117.02 23.7972C117.245 23.476 117.555 23.224 117.915 23.0696C118.391 22.8771 118.901 22.7856 119.414 22.801C119.83 22.8003 120.244 22.8568 120.644 22.9689C121.016 23.0575 121.369 23.213 121.685 23.4278L121.349 24.2337C121.061 24.0427 120.743 23.8991 120.41 23.8084C120.087 23.7115 119.751 23.6625 119.414 23.6629C118.968 23.634 118.524 23.7392 118.139 23.9651C118.005 24.0525 117.895 24.172 117.819 24.3128C117.743 24.4535 117.703 24.611 117.703 24.771C117.7 24.8817 117.72 24.9918 117.762 25.094C117.805 25.1963 117.868 25.2884 117.949 25.3643C118.122 25.5361 118.333 25.6663 118.564 25.7448C118.799 25.8232 119.123 25.9127 119.526 26.0023C119.963 26.1027 120.393 26.2336 120.812 26.394C121.133 26.5153 121.417 26.7155 121.64 26.9761C121.884 27.2702 122.008 27.6463 121.987 28.0283C121.989 28.3902 121.884 28.7446 121.685 29.0469C121.457 29.374 121.138 29.627 120.768 29.7744C120.288 29.9679 119.774 30.0593 119.258 30.0431C118.719 30.0556 118.181 29.9761 117.669 29.808Z" fill="white"/>
<path d="M128.687 29.1028V29.9759H123.564V22.9241H128.541V23.8084H124.571V25.9687H128.105V26.8641H124.571V29.1028H128.687Z" fill="white"/>
<path d="M130.309 22.9242H133.284C133.97 22.9104 134.65 23.064 135.264 23.3719C135.824 23.6438 136.291 24.0763 136.606 24.6144C136.921 25.1767 137.087 25.8108 137.087 26.4557C137.087 27.1006 136.921 27.7347 136.606 28.297C136.285 28.8302 135.82 29.2611 135.264 29.5395C134.647 29.8386 133.969 29.9881 133.284 29.976H130.309V22.9242ZM133.217 29.1029C133.74 29.1136 134.258 28.9985 134.727 28.7671C135.143 28.5626 135.489 28.2393 135.722 27.8381C135.964 27.4162 136.088 26.9366 136.08 26.4501C136.09 25.967 135.966 25.4906 135.722 25.0733C135.49 24.6692 135.143 24.3423 134.727 24.1331C134.257 23.9056 133.739 23.7943 133.217 23.8085H131.315V29.1029H133.217Z" fill="white"/>
<path d="M146.024 28.2185H142.277L141.505 29.9759H140.465L143.664 22.9241H144.659L147.858 29.9759H146.796L146.024 28.2185ZM145.677 27.4126L144.156 23.9539L142.635 27.4126H145.677Z" fill="white"/>
<path d="M149.793 29.808C149.378 29.6803 148.996 29.4624 148.675 29.17L149.044 28.3865C149.346 28.6476 149.696 28.849 150.073 28.9797C150.49 29.1255 150.929 29.2011 151.371 29.2036C151.827 29.2351 152.283 29.1299 152.679 28.9014C152.814 28.8207 152.926 28.7058 153.002 28.5682C153.079 28.4306 153.118 28.2753 153.115 28.1178C153.119 28.0081 153.101 27.8987 153.06 27.7966C153.02 27.6945 152.959 27.6019 152.881 27.5246C152.71 27.3682 152.508 27.2499 152.288 27.1776C152.064 27.0955 151.74 27.006 151.315 26.9089C150.879 26.8063 150.45 26.6792 150.028 26.5284C149.706 26.3984 149.419 26.1953 149.189 25.9351C148.94 25.6177 148.816 25.219 148.843 24.8158C148.838 24.4535 148.943 24.0983 149.145 23.7972C149.367 23.4734 149.677 23.2208 150.039 23.0696C150.515 22.8771 151.025 22.7856 151.538 22.801C151.954 22.8003 152.368 22.8568 152.769 22.9689C153.14 23.0575 153.493 23.213 153.809 23.4278L153.473 24.2337C153.185 24.0427 152.868 23.8991 152.534 23.8084C152.211 23.7115 151.875 23.6625 151.538 23.6629C151.093 23.634 150.649 23.7392 150.263 23.9651C150.129 24.0525 150.019 24.172 149.943 24.3128C149.867 24.4535 149.827 24.611 149.827 24.771C149.824 24.8817 149.844 24.9918 149.886 25.094C149.929 25.1963 149.992 25.2884 150.073 25.3643C150.246 25.5266 150.452 25.6489 150.677 25.7224C150.912 25.8008 151.236 25.8903 151.639 25.9799C152.076 26.0803 152.506 26.2112 152.925 26.3717C153.246 26.4929 153.53 26.6931 153.753 26.9537C153.998 27.2479 154.121 27.6239 154.1 28.0059C154.102 28.3678 153.997 28.7222 153.798 29.0245C153.57 29.3516 153.251 29.6046 152.881 29.7521C152.401 29.9455 151.887 30.037 151.371 30.0207C150.837 30.0392 150.303 29.9673 149.793 29.808Z" fill="white"/>
<path d="M156.236 29.8082C155.821 29.6805 155.439 29.4626 155.118 29.1702L155.487 28.3867C155.792 28.6502 156.145 28.8517 156.527 28.9799C156.94 29.1265 157.375 29.2022 157.813 29.2038C158.27 29.2353 158.725 29.1301 159.122 28.9016C159.257 28.8209 159.369 28.7059 159.445 28.5684C159.522 28.4308 159.561 28.2755 159.558 28.118C159.562 28.0083 159.543 27.8989 159.503 27.7968C159.462 27.6947 159.401 27.602 159.323 27.5248C159.155 27.3707 158.957 27.2527 158.742 27.1778C158.507 27.0994 158.182 27.0099 157.757 26.9091C157.322 26.8065 156.892 26.6794 156.471 26.5286C156.149 26.3986 155.862 26.1955 155.632 25.9353C155.382 25.6179 155.259 25.2191 155.285 24.816C155.281 24.4537 155.386 24.0985 155.587 23.7974C155.812 23.4762 156.122 23.2242 156.482 23.0698C156.961 22.8764 157.476 22.7849 157.992 22.8012C158.404 22.8007 158.815 22.8572 159.211 22.9691C159.583 23.0577 159.936 23.2132 160.252 23.428L159.916 24.2339C159.628 24.0429 159.31 23.8993 158.977 23.8086C158.657 23.7126 158.326 23.6636 157.992 23.663C157.543 23.6319 157.094 23.7372 156.706 23.9653C156.573 24.0533 156.465 24.1732 156.391 24.314C156.316 24.4548 156.279 24.612 156.281 24.7712C156.275 24.8811 156.294 24.9909 156.334 25.0932C156.375 25.1955 156.437 25.288 156.516 25.3644C156.69 25.5246 156.896 25.6466 157.12 25.7226C157.439 25.8256 157.764 25.9115 158.093 25.9801C158.526 26.0819 158.952 26.2128 159.368 26.3718C159.688 26.4931 159.973 26.6933 160.196 26.9539C160.44 27.248 160.564 27.6241 160.542 28.0061C160.544 28.368 160.439 28.7224 160.24 29.0247C160.012 29.3518 159.694 29.6048 159.323 29.7522C158.844 29.9457 158.33 30.0371 157.813 30.0209C157.279 30.0394 156.746 29.9675 156.236 29.8082Z" fill="white"/>
<path d="M167.254 29.1028V29.9759H162.187V22.9241H167.164V23.8084H163.193V25.9687H166.661V26.8641H163.126V29.1028H167.254Z" fill="white"/>
<path d="M170.62 23.8084H168.204V22.9241H174.032V23.8084H171.616V29.9759H170.62V23.8084Z" fill="white"/>
<path d="M175.922 29.808C175.508 29.678 175.127 29.4604 174.804 29.17L175.184 28.3865C175.486 28.6476 175.836 28.849 176.213 28.9797C176.63 29.1263 177.069 29.202 177.511 29.2036C177.967 29.2351 178.423 29.1299 178.819 28.9014C178.951 28.8177 179.059 28.7018 179.133 28.5647C179.208 28.4276 179.246 28.2738 179.244 28.1178C179.248 28.0081 179.229 27.8987 179.189 27.7966C179.149 27.6945 179.087 27.6019 179.009 27.5246C178.843 27.3681 178.644 27.2497 178.428 27.1776C178.193 27.0992 177.868 27.0097 177.443 26.9089C177.012 26.8049 176.586 26.6779 176.168 26.5284C175.844 26.4022 175.556 26.1985 175.329 25.9351C175.074 25.6209 174.949 25.2197 174.983 24.8158C174.979 24.4553 175.08 24.1015 175.273 23.7972C175.503 23.476 175.816 23.2242 176.179 23.0696C176.655 22.8771 177.166 22.7856 177.678 22.801C178.094 22.801 178.508 22.8575 178.909 22.9689C179.278 23.0554 179.627 23.2111 179.938 23.4278L179.613 24.2337C179.32 24.0445 178.999 23.9011 178.663 23.8084C178.344 23.7112 178.012 23.6621 177.678 23.6629C177.229 23.6317 176.781 23.737 176.392 23.9651C176.261 24.0545 176.154 24.1747 176.079 24.3152C176.005 24.4557 175.967 24.6122 175.967 24.771C175.962 24.882 175.981 24.9927 176.023 25.0953C176.066 25.1979 176.131 25.2898 176.213 25.3643C176.358 25.5236 176.533 25.6529 176.728 25.7448C177.047 25.8478 177.372 25.9337 177.701 26.0023C178.134 26.1041 178.56 26.235 178.976 26.394C179.3 26.5149 179.588 26.715 179.815 26.9761C180.054 27.2729 180.178 27.647 180.161 28.0283C180.163 28.3902 180.058 28.7446 179.859 29.0469C179.629 29.3714 179.311 29.6237 178.942 29.7745C178.462 29.9657 177.949 30.0571 177.432 30.0431C176.92 30.0458 176.41 29.9664 175.922 29.808Z" fill="white"/>
<path d="M78.353 42.0649V36.9384L75.8027 41.2254H75.3441L72.7827 36.9384V42.0426H71.8207V34.9907H72.7044L75.6349 39.9494L78.5431 34.9907H79.3596V42.0426L78.353 42.0649Z" fill="white"/>
<path d="M85.9142 40.2964H82.1671L81.3953 42.0538H80.3551L83.5429 35.002H84.5384L87.7486 42.0538H86.6301L85.9142 40.2964ZM85.5563 39.4905L84.0351 36.0429L82.5251 39.5017L85.5563 39.4905Z" fill="white"/>
<path d="M94.8401 35.0129V42.0648H94.0124L89.7843 36.8039V42.0648H88.7776V35.0129H89.6054L93.8334 40.2962V35.0353L94.8401 35.0129Z" fill="white"/>
<path d="M101.439 40.2964H97.6923L96.9205 42.0538H95.8803L99.0681 35.002H100.064L103.274 42.0538H102.155L101.439 40.2964ZM101.081 39.4905L99.5491 36.0429L98.0279 39.5017L101.081 39.4905Z" fill="white"/>
<path d="M108.922 38.5053H109.895V41.2477C109.534 41.5449 109.121 41.7726 108.676 41.9193C108.207 42.0725 107.716 42.1481 107.222 42.1432C106.552 42.156 105.89 41.9981 105.298 41.6842C104.741 41.3819 104.277 40.9329 103.956 40.3858C103.641 39.8214 103.475 39.1856 103.475 38.5389C103.475 37.8922 103.641 37.2564 103.956 36.692C104.278 36.1419 104.747 35.6923 105.31 35.3935C105.907 35.0833 106.572 34.9256 107.245 34.9346C107.769 34.926 108.29 35.0211 108.777 35.2145C109.206 35.3946 109.589 35.6702 109.895 36.0204L109.269 36.6472C109.01 36.3855 108.702 36.1776 108.362 36.0354C108.022 35.8933 107.658 35.8197 107.289 35.8189C106.787 35.8088 106.29 35.9283 105.846 36.1659C105.427 36.3902 105.078 36.7275 104.84 37.1397C104.605 37.5645 104.481 38.0421 104.481 38.5277C104.481 39.0133 104.605 39.4909 104.84 39.9157C105.078 40.3279 105.427 40.6652 105.846 40.8895C106.286 41.1272 106.779 41.2467 107.278 41.2365C107.858 41.2509 108.43 41.0952 108.922 40.7888V38.5053Z" fill="white"/>
<path d="M116.83 41.1917V42.0648H111.719V35.0129H116.685V35.8972H112.725V38.0575H116.26V38.9194H112.725V41.1581L116.83 41.1917Z" fill="white"/>
<path d="M124.794 42.0649V36.9384L122.244 41.2254H121.785L119.224 36.9384V42.0426H118.251V34.9907H119.079L122.02 39.9494L124.917 34.9907H125.745V42.0426L124.794 42.0649Z" fill="white"/>
<path d="M132.87 41.1917V42.0648H127.758V35.0129H132.725V35.8972H128.765V38.0575H132.3V38.9194H128.765V41.1581L132.87 41.1917Z" fill="white"/>
<path d="M140.353 35.0129V42.0648H139.536L135.342 36.8039V42.0648H134.335V35.0129H135.152L139.38 40.2738V35.0129H140.353Z" fill="white"/>
<path d="M143.843 35.8972H141.427V35.0129H147.254V35.8972H144.838V42.0648H143.843V35.8972Z" fill="white"/>
<path d="M152.198 41.6844C151.644 41.3813 151.184 40.9323 150.867 40.386C150.552 39.8216 150.386 39.1857 150.386 38.539C150.386 37.8924 150.552 37.2565 150.867 36.6921C151.184 36.1489 151.645 35.7035 152.198 35.4049C152.785 35.0872 153.444 34.9253 154.111 34.9348C154.628 34.9249 155.142 35.0201 155.621 35.2146C156.071 35.3912 156.473 35.6711 156.795 36.0317L156.135 36.6697C155.884 36.3969 155.578 36.1809 155.236 36.0362C154.895 35.8914 154.526 35.8212 154.156 35.8302C153.659 35.8254 153.17 35.9488 152.735 36.1884C152.324 36.4154 151.98 36.7476 151.74 37.1511C151.505 37.5755 151.385 38.054 151.393 38.539C151.384 39.0242 151.504 39.503 151.74 39.927C151.977 40.3363 152.321 40.673 152.735 40.9008C153.171 41.1371 153.66 41.2566 154.156 41.2478C154.526 41.2548 154.894 41.1836 155.235 41.039C155.576 40.8943 155.883 40.6795 156.135 40.4083L156.795 41.0352C156.474 41.3989 156.071 41.6826 155.621 41.8635C155.07 42.0751 154.48 42.1685 153.891 42.1376C153.301 42.1068 152.724 41.9524 152.198 41.6844Z" fill="white"/>
<path d="M163.216 41.1917V42.0648H158.093V35.0129H163.07V35.8972H159.1V38.0575H162.634V38.9194H159.1V41.1581L163.216 41.1917Z" fill="white"/>
<path d="M170.699 35.0129V42.0648H169.871L165.643 36.8039V42.0648H164.636V35.0129H165.464L169.692 40.2738V35.0129H170.699Z" fill="white"/>
<path d="M174.177 35.8972H171.761V35.0129H177.589V35.8972H175.173V42.0648H174.177V35.8972Z" fill="white"/>
<path d="M183.763 41.1917V42.0648H178.651V35.0129H183.629V35.8972H179.658V38.0575H183.193V38.9194H179.658V41.1581L183.763 41.1917Z" fill="white"/>
<path d="M189.904 42.0648L188.383 39.9045H187.946H186.201V42.0424H185.195V34.9906H187.913C188.684 34.9477 189.446 35.1819 190.06 35.651C190.321 35.8709 190.529 36.1476 190.666 36.46C190.804 36.7723 190.868 37.112 190.855 37.4531C190.878 37.9455 190.738 38.4319 190.457 38.8366C190.176 39.2414 189.769 39.542 189.3 39.6918L190.966 42.0536L189.904 42.0648ZM189.378 38.7068C189.547 38.5633 189.681 38.3824 189.768 38.1785C189.855 37.9745 189.894 37.753 189.881 37.5315C189.886 37.3191 189.844 37.1084 189.757 36.9147C189.67 36.721 189.54 36.5492 189.378 36.4122C188.949 36.1159 188.433 35.9738 187.913 36.0092H186.201V39.065H187.913C188.435 39.1026 188.953 38.9561 189.378 38.6508V38.7068Z" fill="white"/>
</g>
<defs>
<radialGradient id="paint0_radial" cx="0" cy="0" r="1" gradientUnits="userSpaceOnUse" gradientTransform="translate(32.4709 32.4945) scale(32.4709 32.4944)">
<stop stop-color="white"/>
<stop offset="0.4" stop-color="#FDFDFE"/>
<stop offset="0.54" stop-color="#F6F8F8"/>
<stop offset="0.64" stop-color="#EBEDEF"/>
<stop offset="0.73" stop-color="#DADFE2"/>
<stop offset="0.8" stop-color="#C4CCD0"/>
<stop offset="0.86" stop-color="#A8B5BB"/>
<stop offset="0.92" stop-color="#8899A1"/>
<stop offset="0.97" stop-color="#647A85"/>
<stop offset="1" stop-color="#48626F"/>
</radialGradient>
<clipPath id="clip0">
<rect width="191" height="65" fill="white"/>
</clipPath>
</defs>
</svg>
