<svg width="36" height="36" viewBox="0 0 36 36" fill="none" xmlns="http://www.w3.org/2000/svg">
<path d="M24.0611 12.9306H27.0593C27.7163 12.9306 28.2533 12.3936 28.2533 11.7366V8.87795C28.2533 8.22056 27.7163 7.68359 27.0593 7.68359H24.0611C23.4037 7.68359 22.8667 8.22056 22.8667 8.87795V11.7366C22.8663 12.3932 23.4037 12.9306 24.0611 12.9306Z" fill="#FFB433"/>
<path d="M18.0253 23.1048C20.9674 23.1048 23.3525 20.7936 23.3525 17.9425C23.3525 15.0915 20.9674 12.7803 18.0253 12.7803C15.0831 12.7803 12.698 15.0915 12.698 17.9425C12.698 20.7936 15.0831 23.1048 18.0253 23.1048Z" fill="#FFB433"/>
<path d="M18 0C8.05884 0 0 8.05884 0 18C0 27.9412 8.05884 36 18 36C27.9412 36 36 27.9412 36 18C36 8.05884 27.9412 0 18 0ZM27.859 31.2642H8.14134C6.26787 31.2642 4.73616 29.8776 4.73616 27.8598V8.14097C4.73616 6.12239 6.26787 4.73616 8.14134 4.73616H27.859C29.7321 4.73616 31.2642 6.12239 31.2642 8.14097V27.8598C31.2642 29.8776 29.7318 31.2642 27.859 31.2642Z" fill="#FFB433"/>
<path d="M26.271 18.2304C26.271 22.6428 22.5793 26.2192 18.0254 26.2192C13.4716 26.2192 9.77988 22.6428 9.77988 18.2304C9.77988 17.4396 9.8992 16.6758 10.1202 15.9543H7.68359V27.1602C7.68359 27.7406 8.15795 28.2146 8.738 28.2146H27.2109C27.7913 28.2146 28.266 27.7406 28.266 27.1602V15.9543H25.9307C26.1513 16.6758 26.271 17.4396 26.271 18.2304Z" fill="#FFB433"/>
</svg>
