<svg width="36" height="36" viewBox="0 0 36 36" fill="none" xmlns="http://www.w3.org/2000/svg">
<path d="M14.72 21.945C17.421 20.5444 20.0984 19.1567 22.8005 17.7553C20.0903 16.3411 17.4136 14.9453 14.72 13.5396C14.72 16.351 14.72 19.1338 14.72 21.945Z" fill="#FFB433"/>
<path d="M18 0C8.05921 0 0 8.05884 0 18C0 27.9412 8.05921 36 18 36C27.9408 36 36 27.9412 36 18C36 8.05884 27.9408 0 18 0ZM30.2643 24.0082C29.9527 25.3598 28.8471 26.3568 27.5165 26.5052C24.3651 26.8577 21.1757 26.8595 17.9993 26.8577C14.8228 26.8595 11.6327 26.8577 8.48053 26.5052C7.14991 26.3568 6.04505 25.3598 5.73422 24.0082C5.29117 22.0828 5.29117 19.9817 5.29117 18C5.29117 16.0182 5.29633 13.9164 5.73938 11.9918C6.05021 10.6402 7.15507 9.64284 8.48569 9.49406C11.6379 9.14197 14.8279 9.14013 18.0044 9.14197C21.1802 9.14013 24.3702 9.14197 27.5213 9.49406C28.8527 9.64284 29.9583 10.6398 30.2691 11.9918C30.7121 13.9168 30.7085 16.0182 30.7085 18C30.7085 19.9817 30.7074 22.0832 30.2643 24.0082Z" fill="#FFB433"/>
</svg>
