<svg width="170" height="30" viewBox="0 0 170 30" fill="none" xmlns="http://www.w3.org/2000/svg">
<path d="M11.2503 6.70141C10.1312 7.35156 7.19284 8.38035 5.91155 9.00085C4.11725 9.78453 1.50312 11.4584 1.92285 15.9822C2.25864 19.6012 5.37398 22.2782 8.35876 23.6773C9.99105 24.4425 13.0691 25.3096 21.0785 25.8835C22.6638 23.4688 26.4021 16.4104 26.8136 12.3704C27.14 9.1663 25.4148 3.87252 19.7729 3.0831C13.5715 2.2154 12.7892 5.80732 11.2503 6.70141Z" fill="#7B61FF"/>
<path fill-rule="evenodd" clip-rule="evenodd" d="M12.9058 3.12552C14.4111 1.95906 16.551 1.21948 19.9664 1.69737C23.2477 2.15649 25.4396 3.95377 26.7301 6.10025C27.9919 8.1992 28.3969 10.6297 28.2051 12.5121C27.974 14.7813 26.8465 17.7379 25.6567 20.3216C24.4494 22.943 23.0858 25.3745 22.2476 26.6512L21.797 27.3376L20.9781 27.2789C12.9365 26.7027 9.6417 25.824 7.76452 24.944C4.61554 23.468 0.934027 20.4732 0.529315 16.1113C0.290755 13.5402 0.912434 11.632 1.97415 10.2403C2.99952 8.89617 4.33748 8.16374 5.32631 7.72945C5.91578 7.44606 6.79705 7.09343 7.64953 6.75233C7.80782 6.68899 7.96512 6.62605 8.11937 6.56403C9.18832 6.1342 10.0943 5.75453 10.547 5.49153C10.685 5.41138 10.8616 5.23094 11.2986 4.72365L11.3194 4.6994C11.6982 4.25957 12.2115 3.66354 12.9058 3.12552Z" fill="#FF7A5F"/>
<path d="M8.87172 9.31296C9.24482 8.79062 9.02718 8.03821 8.87172 7.72729L7.8457 8.42685V10.1058C8.03225 10.0592 8.49862 9.83529 8.87172 9.31296Z" fill="white"/>
<path d="M5.79354 9.12646C4.22342 9.73275 0.849891 11.9713 2.0624 16.7749C2.83935 19.853 5.0472 21.5786 7.79892 23.584" stroke="white" stroke-width="1.03349" stroke-linecap="round"/>
<path d="M19.2716 6.23486C19.8312 6.71678 20.5401 8.26824 18.8985 10.6188C16.8465 13.5569 14.6079 16.495 17.4994 18.5471C20.3909 20.5991 25.2878 15.5623 24.2618 10.6188" stroke="white" stroke-width="1.03349" stroke-linecap="round"/>
<path d="M12.4273 14.2136C9.5241 13.8367 7.47208 11.0384 7.71798 8.36263C8.37076 7.71252 10.7487 7.06244 11.8678 6.41229C13.4067 5.51821 13.6396 2.24759 19.841 3.11529C25.4829 3.9047 27.2081 9.19849 26.8817 12.4026C26.4702 16.4426 22.7319 23.501 21.1466 25.9157C20.2607 25.637 18.3956 24.8476 16.9501 24.0582C15.5047 23.2688 14.3857 22.6651 14.8519 20.7148C15.3182 18.7644 14.9918 16.7212 13.5464 15.421C13.4997 16.0092 13.0055 17.2599 12.1476 17.1856C11.0751 17.0927 10.3636 17.4744 9.8162 17.8821C9.55508 17.9564 8.84002 17.9131 8.49809 17.8821C7.59985 17.8008 7.44754 19.5724 7.85786 20.204C8.37076 20.9934 9.86282 21.4578 9.34992 23.1295C8.93961 24.4668 8.80594 24.5226 8.7904 24.3833" stroke="white" stroke-width="1.03349" stroke-linecap="round"/>
<circle cx="10.9698" cy="19.1065" r="0.559645" fill="white"/>
<path d="M14.5142 6.28141C14.7007 6.06377 15.2044 5.70311 15.7267 6.00159C16.2491 6.30007 16.1931 6.87215 16.0998 7.12088" stroke="white" stroke-width="1.03349" stroke-linecap="round"/>
<path d="M33.4723 21.9899V8.16791C33.4723 7.87926 33.5722 7.63131 33.7721 7.42407C33.9719 7.21684 34.2161 7.11322 34.5048 7.11322H42.9756C47.446 7.11322 49.6812 9.17819 49.6812 13.3081C49.6886 17.4307 47.4534 19.4919 42.9756 19.4919H37.6577V21.9899C37.6577 22.2785 37.5541 22.5265 37.3469 22.7337C37.1471 22.9335 36.9028 23.0334 36.6142 23.0334H34.527C34.2383 23.0334 33.9904 22.9335 33.7832 22.7337C33.5759 22.5265 33.4723 22.2785 33.4723 21.9899ZM37.6577 16.3501H41.71C42.9534 16.3501 43.8971 16.1428 44.541 15.7283C45.1849 15.3065 45.5068 14.4997 45.5068 13.3081C45.5068 12.1091 45.1849 11.3024 44.541 10.8879C43.8971 10.466 42.9534 10.2551 41.71 10.2551H37.6577V16.3501ZM52.5233 21.6346C51.3835 20.554 50.8136 18.9997 50.8136 16.9718C50.8136 14.9364 51.3872 13.3747 52.5344 12.2867C53.6816 11.1913 55.2692 10.6436 57.2971 10.6436C59.3399 10.6436 60.9312 11.1765 62.071 12.2423C63.2108 13.3007 63.7807 14.8217 63.7807 16.8052V17.4381C63.7807 17.6379 63.7141 17.8044 63.5809 17.9376C63.455 18.0635 63.2922 18.1264 63.0924 18.1264H54.7326C54.8066 19.0367 55.0656 19.6992 55.5097 20.1136C55.9612 20.5281 56.6495 20.7353 57.5747 20.7353C58.6183 20.7353 59.3436 20.4874 59.7507 19.9915C60.0689 19.5992 60.4945 19.3994 61.0274 19.392H62.6816C62.8814 19.392 63.0443 19.4586 63.1701 19.5918C63.3033 19.7177 63.3699 19.8805 63.3699 20.0803C63.3699 22.2045 61.3457 23.2629 57.2971 23.2555C55.2544 23.2555 53.6631 22.7152 52.5233 21.6346ZM54.7104 15.7839H59.8728C59.7988 14.0371 58.9402 13.1638 57.2971 13.1638C55.6614 13.1638 54.7992 14.0371 54.7104 15.7839ZM65.8235 18.2596V7.80154C65.8235 7.60171 65.8864 7.43888 66.0122 7.31305C66.1454 7.17983 66.3082 7.11322 66.5007 7.11322H68.9875C69.1873 7.11322 69.3502 7.17983 69.476 7.31305C69.6018 7.43888 69.6647 7.60171 69.6647 7.80154V11.5096H72.7622C72.962 11.5096 73.1248 11.5725 73.2507 11.6983C73.3765 11.8242 73.4394 11.987 73.4394 12.1868V13.508C73.4394 13.7078 73.3728 13.8706 73.2396 13.9964C73.1137 14.1223 72.9546 14.1852 72.7622 14.1852H69.6647V18.2596C69.6647 19.0145 69.8424 19.5992 70.1976 20.0137C70.5529 20.4208 71.0266 20.6243 71.6187 20.6243C71.8185 20.6243 72.085 20.6021 72.418 20.5577C72.7511 20.5133 72.9916 20.4911 73.1397 20.4911H73.5504C73.7503 20.4911 73.9131 20.554 74.0389 20.6798C74.1721 20.8057 74.2387 20.9685 74.2387 21.1683V22.3562C74.2387 22.5265 74.1721 22.6745 74.0389 22.8003C73.9131 22.9261 73.7503 23.0038 73.5504 23.0334C72.7955 23.1815 71.8111 23.2555 70.5973 23.2555C67.4147 23.2629 65.8235 21.5976 65.8235 18.2596ZM75.3711 14.2296C75.3711 11.8316 77.2992 10.6362 81.1553 10.6436C85.2112 10.6436 87.2392 11.7057 87.2392 13.8299C87.2392 14.0297 87.1762 14.1926 87.0504 14.3184C86.9246 14.4442 86.7618 14.5071 86.5619 14.5071H84.9077C84.3748 14.5071 83.9493 14.311 83.631 13.9187C83.2239 13.4154 82.4875 13.1638 81.4217 13.1638C79.9489 13.1638 79.2161 13.5191 79.2235 14.2296C79.2235 14.5626 79.5085 14.8402 80.0784 15.0622C80.6557 15.2843 81.3551 15.4804 82.1767 15.6506C83.0056 15.8135 83.8308 16.0244 84.6524 16.2834C85.4739 16.5425 86.1697 16.957 86.7396 17.5269C87.3169 18.0894 87.6055 18.8036 87.6055 19.6695C87.6055 22.0676 85.5665 23.2629 81.4883 23.2555C77.425 23.2555 75.3933 22.1971 75.3933 20.0803C75.3933 19.8805 75.4563 19.7177 75.5821 19.5918C75.7153 19.4586 75.8818 19.392 76.0817 19.392H77.7359C78.2688 19.392 78.6943 19.5918 79.0126 19.9915C79.4197 20.4948 80.1561 20.7427 81.2219 20.7353C82.9168 20.7353 83.7642 20.3801 83.7642 19.6695C83.7642 19.3365 83.4756 19.0589 82.8983 18.8369C82.3284 18.6149 81.629 18.4187 80.8 18.2485C79.9711 18.0709 79.1458 17.8562 78.3243 17.6046C77.5101 17.3455 76.8144 16.9311 76.2371 16.3612C75.6598 15.7913 75.3711 15.0807 75.3711 14.2296ZM89.8703 21.9677V8.1457C89.8703 7.85705 89.9739 7.61281 90.1812 7.41297C90.3884 7.21314 90.6364 7.11322 90.925 7.11322H103.726C104.014 7.11322 104.258 7.21684 104.458 7.42407C104.666 7.63131 104.769 7.87926 104.769 8.16791V9.21149C104.769 9.50014 104.666 9.74809 104.458 9.95532C104.258 10.1552 104.014 10.2551 103.726 10.2551H94.0558V13.4858H102.382C102.671 13.4858 102.915 13.5894 103.115 13.7966C103.322 13.9964 103.426 14.2407 103.426 14.5293V15.5729C103.426 15.8616 103.322 16.1095 103.115 16.3168C102.915 16.5166 102.671 16.6165 102.382 16.6165H94.0558V19.8916H103.703C103.992 19.8916 104.233 19.9915 104.425 20.1913C104.625 20.3912 104.725 20.6354 104.725 20.9241V21.9899C104.725 22.2785 104.621 22.5265 104.414 22.7337C104.207 22.9335 103.959 23.0334 103.67 23.0334H90.925C90.6364 23.0334 90.3884 22.9335 90.1812 22.7337C89.9739 22.5265 89.8703 22.2711 89.8703 21.9677ZM105.602 22.6893C105.58 22.6227 105.569 22.5598 105.569 22.5006C105.569 22.3451 105.628 22.1971 105.746 22.0565L109.61 16.9385L106.001 11.8427C105.898 11.6946 105.839 11.5503 105.824 11.4097C105.816 11.2617 105.857 11.1358 105.946 11.0322C106.042 10.9212 106.172 10.8657 106.335 10.8657H108.744C109.454 10.8657 110.032 11.1913 110.476 11.8427L112.319 14.6404L114.161 11.8427C114.598 11.1913 115.175 10.8657 115.893 10.8657H118.302C118.473 10.8657 118.602 10.9212 118.691 11.0322C118.78 11.1358 118.821 11.2617 118.813 11.4097C118.806 11.5503 118.747 11.6946 118.636 11.8427L115.027 16.9385L118.891 22.0565C119.009 22.1971 119.069 22.3451 119.069 22.5006C119.069 22.5672 119.057 22.6301 119.035 22.6893C118.969 22.9187 118.806 23.0334 118.547 23.0334H116.182C115.501 23.0334 114.924 22.7078 114.45 22.0565L112.319 19.17L110.176 22.0565C109.71 22.7078 109.136 23.0334 108.455 23.0334H106.09C105.831 23.0334 105.668 22.9187 105.602 22.6893ZM120.778 26.0976V11.554C120.778 11.3542 120.841 11.1913 120.967 11.0655C121.1 10.9323 121.263 10.8657 121.455 10.8657H123.598C123.798 10.8657 123.961 10.9323 124.087 11.0655C124.212 11.1913 124.275 11.3542 124.275 11.554V11.8871C125.445 11.0507 126.74 10.6362 128.161 10.6436C129.826 10.6436 131.177 11.1913 132.213 12.2867C133.257 13.3747 133.779 14.9253 133.779 16.9385C133.779 18.9812 133.242 20.5466 132.169 21.6346C131.096 22.7152 129.649 23.2555 127.828 23.2555C126.888 23.2555 125.819 23.0668 124.619 22.6893V26.0976C124.619 26.2974 124.553 26.4603 124.42 26.5861C124.294 26.7193 124.135 26.7859 123.942 26.7859H121.455C121.256 26.7859 121.093 26.7193 120.967 26.5861C120.841 26.4603 120.778 26.2974 120.778 26.0976ZM124.619 20.1247C125.574 20.4282 126.377 20.5799 127.029 20.5799C128.043 20.5799 128.761 20.2913 129.182 19.714C129.612 19.1367 129.826 18.2115 129.826 16.9385C129.826 15.6802 129.623 14.7662 129.216 14.1963C128.816 13.619 128.165 13.3303 127.262 13.3303C126.566 13.3303 125.685 13.6634 124.619 14.3295V20.1247ZM136.854 21.6346C135.714 20.554 135.144 18.9997 135.144 16.9718C135.144 14.9364 135.718 13.3747 136.865 12.2867C138.012 11.1913 139.6 10.6436 141.628 10.6436C143.67 10.6436 145.262 11.1765 146.402 12.2423C147.541 13.3007 148.111 14.8217 148.111 16.8052V17.4381C148.111 17.6379 148.045 17.8044 147.911 17.9376C147.786 18.0635 147.623 18.1264 147.423 18.1264H139.063C139.137 19.0367 139.396 19.6992 139.84 20.1136C140.292 20.5281 140.98 20.7353 141.905 20.7353C142.949 20.7353 143.674 20.4874 144.081 19.9915C144.4 19.5992 144.825 19.3994 145.358 19.392H147.012C147.212 19.392 147.375 19.4586 147.501 19.5918C147.634 19.7177 147.7 19.8805 147.7 20.0803C147.7 22.2045 145.676 23.2629 141.628 23.2555C139.585 23.2555 137.994 22.7152 136.854 21.6346ZM139.041 15.7839H144.203C144.129 14.0371 143.271 13.1638 141.628 13.1638C139.992 13.1638 139.13 14.0371 139.041 15.7839ZM150.154 22.3562V11.554C150.154 11.3542 150.217 11.1913 150.343 11.0655C150.476 10.9323 150.639 10.8657 150.831 10.8657H153.318C153.518 10.8657 153.681 10.9323 153.807 11.0655C153.932 11.1913 153.995 11.3542 153.995 11.554V12.2534C154.75 11.7057 155.476 11.3024 156.171 11.0433C156.874 10.7769 157.792 10.6436 158.925 10.6436C159.124 10.6436 159.287 10.7103 159.413 10.8435C159.546 10.9693 159.613 11.1284 159.613 11.3209V13.0084C159.613 13.2082 159.546 13.371 159.413 13.4969C159.287 13.6227 159.124 13.6856 158.925 13.6856H158.569C158.399 13.6856 158.122 13.6745 157.737 13.6523C157.352 13.6301 157.059 13.619 156.86 13.619C155.86 13.619 154.906 14.1667 153.995 15.2621V22.3562C153.995 22.5561 153.929 22.7189 153.795 22.8447C153.67 22.9705 153.511 23.0334 153.318 23.0334H150.831C150.631 23.0334 150.469 22.9705 150.343 22.8447C150.217 22.7189 150.154 22.5561 150.154 22.3562ZM161.212 18.2596V7.80154C161.212 7.60171 161.275 7.43888 161.4 7.31305C161.534 7.17983 161.696 7.11322 161.889 7.11322H164.376C164.575 7.11322 164.738 7.17983 164.864 7.31305C164.99 7.43888 165.053 7.60171 165.053 7.80154V11.5096H168.15C168.35 11.5096 168.513 11.5725 168.639 11.6983C168.765 11.8242 168.828 11.987 168.828 12.1868V13.508C168.828 13.7078 168.761 13.8706 168.628 13.9964C168.502 14.1223 168.343 14.1852 168.15 14.1852H165.053V18.2596C165.053 19.0145 165.231 19.5992 165.586 20.0137C165.941 20.4208 166.415 20.6243 167.007 20.6243C167.207 20.6243 167.473 20.6021 167.806 20.5577C168.139 20.5133 168.38 20.4911 168.528 20.4911H168.939C169.138 20.4911 169.301 20.554 169.427 20.6798C169.56 20.8057 169.627 20.9685 169.627 21.1683V22.3562C169.627 22.5265 169.56 22.6745 169.427 22.8003C169.301 22.9261 169.138 23.0038 168.939 23.0334C168.184 23.1815 167.199 23.2555 165.985 23.2555C162.803 23.2629 161.212 21.5976 161.212 18.2596Z" fill="#919191"/>
</svg>
