<svg width="358" height="57" viewBox="0 0 358 57" fill="none" xmlns="http://www.w3.org/2000/svg">
<path d="M66.8535 43.9805V17.2324C66.8535 16.6738 67.0469 16.194 67.4336 15.793C67.8203 15.3919 68.293 15.1914 68.8516 15.1914H85.2441C93.8952 15.1914 98.2207 19.1875 98.2207 27.1797C98.235 35.1576 93.9095 39.1465 85.2441 39.1465H74.9531V43.9805C74.9531 44.5391 74.7526 45.0189 74.3516 45.4199C73.9648 45.8066 73.4922 46 72.9336 46H68.8945C68.3359 46 67.8561 45.8066 67.4551 45.4199C67.054 45.0189 66.8535 44.5391 66.8535 43.9805ZM74.9531 33.0664H82.7949C85.2012 33.0664 87.0273 32.6654 88.2734 31.8633C89.5195 31.0469 90.1426 29.4857 90.1426 27.1797C90.1426 24.8594 89.5195 23.2982 88.2734 22.4961C87.0273 21.6797 85.2012 21.2715 82.7949 21.2715H74.9531V33.0664ZM103.721 43.293C101.515 41.2018 100.412 38.194 100.412 34.2695C100.412 30.3307 101.522 27.3086 103.742 25.2031C105.962 23.0833 109.035 22.0234 112.959 22.0234C116.912 22.0234 119.992 23.0547 122.197 25.1172C124.403 27.1654 125.506 30.1087 125.506 33.9473V35.1719C125.506 35.5586 125.377 35.8809 125.119 36.1387C124.876 36.3822 124.561 36.5039 124.174 36.5039H107.996C108.139 38.2656 108.641 39.5475 109.5 40.3496C110.374 41.1517 111.706 41.5527 113.496 41.5527C115.516 41.5527 116.919 41.0729 117.707 40.1133C118.323 39.3542 119.146 38.9674 120.178 38.9531H123.379C123.766 38.9531 124.081 39.082 124.324 39.3398C124.582 39.5833 124.711 39.8984 124.711 40.2852C124.711 44.3958 120.794 46.444 112.959 46.4297C109.006 46.4297 105.926 45.3841 103.721 43.293ZM107.953 31.9707H117.943C117.8 28.5905 116.139 26.9004 112.959 26.9004C109.794 26.9004 108.125 28.5905 107.953 31.9707ZM129.459 36.7617V16.5234C129.459 16.1367 129.581 15.8216 129.824 15.5781C130.082 15.3203 130.397 15.1914 130.77 15.1914H135.582C135.969 15.1914 136.284 15.3203 136.527 15.5781C136.771 15.8216 136.893 16.1367 136.893 16.5234V23.6992H142.887C143.273 23.6992 143.589 23.821 143.832 24.0645C144.076 24.3079 144.197 24.623 144.197 25.0098V27.5664C144.197 27.9531 144.068 28.2682 143.811 28.5117C143.567 28.7552 143.259 28.877 142.887 28.877H136.893V36.7617C136.893 38.2227 137.236 39.3542 137.924 40.1562C138.611 40.944 139.528 41.3379 140.674 41.3379C141.061 41.3379 141.576 41.2949 142.221 41.209C142.865 41.123 143.331 41.0801 143.617 41.0801H144.412C144.799 41.0801 145.114 41.2018 145.357 41.4453C145.615 41.6888 145.744 42.0039 145.744 42.3906V44.6895C145.744 45.0189 145.615 45.3053 145.357 45.5488C145.114 45.7923 144.799 45.9427 144.412 46C142.951 46.2865 141.046 46.4297 138.697 46.4297C132.538 46.444 129.459 43.2214 129.459 36.7617ZM147.936 28.9629C147.936 24.3223 151.667 22.0091 159.129 22.0234C166.978 22.0234 170.902 24.0788 170.902 28.1895C170.902 28.5762 170.781 28.8913 170.537 29.1348C170.294 29.3783 169.979 29.5 169.592 29.5H166.391C165.359 29.5 164.536 29.1204 163.92 28.3613C163.132 27.3874 161.707 26.9004 159.645 26.9004C156.794 26.9004 155.376 27.5879 155.391 28.9629C155.391 29.6074 155.942 30.1445 157.045 30.5742C158.162 31.0039 159.516 31.3835 161.105 31.7129C162.71 32.028 164.307 32.4362 165.896 32.9375C167.486 33.4388 168.833 34.2409 169.936 35.3438C171.053 36.4323 171.611 37.8145 171.611 39.4902C171.611 44.1309 167.665 46.444 159.773 46.4297C151.91 46.4297 147.979 44.3815 147.979 40.2852C147.979 39.8984 148.1 39.5833 148.344 39.3398C148.602 39.082 148.924 38.9531 149.311 38.9531H152.512C153.543 38.9531 154.367 39.3398 154.982 40.1133C155.77 41.0872 157.195 41.5671 159.258 41.5527C162.538 41.5527 164.178 40.8652 164.178 39.4902C164.178 38.8457 163.619 38.3086 162.502 37.8789C161.399 37.4492 160.046 37.0697 158.441 36.7402C156.837 36.3965 155.24 35.9811 153.65 35.4941C152.075 34.9928 150.729 34.1908 149.611 33.0879C148.494 31.985 147.936 30.61 147.936 28.9629ZM175.994 43.9375V17.1895C175.994 16.6309 176.195 16.1582 176.596 15.7715C176.997 15.3848 177.477 15.1914 178.035 15.1914H202.807C203.365 15.1914 203.838 15.3919 204.225 15.793C204.626 16.194 204.826 16.6738 204.826 17.2324V19.252C204.826 19.8105 204.626 20.2904 204.225 20.6914C203.838 21.0781 203.365 21.2715 202.807 21.2715H184.094V27.5234H200.207C200.766 27.5234 201.238 27.724 201.625 28.125C202.026 28.5117 202.227 28.9844 202.227 29.543V31.5625C202.227 32.1211 202.026 32.6009 201.625 33.002C201.238 33.3887 200.766 33.582 200.207 33.582H184.094V39.9199H202.764C203.322 39.9199 203.788 40.1133 204.16 40.5C204.547 40.8867 204.74 41.3594 204.74 41.918V43.9805C204.74 44.5391 204.54 45.0189 204.139 45.4199C203.738 45.8066 203.258 46 202.699 46H178.035C177.477 46 176.997 45.8066 176.596 45.4199C176.195 45.0189 175.994 44.5247 175.994 43.9375ZM206.438 45.334C206.395 45.2051 206.373 45.0833 206.373 44.9688C206.373 44.668 206.488 44.3815 206.717 44.1094L214.193 34.2051L207.211 24.3438C207.01 24.0573 206.896 23.778 206.867 23.5059C206.853 23.2194 206.932 22.9759 207.104 22.7754C207.29 22.5605 207.54 22.4531 207.855 22.4531H212.518C213.893 22.4531 215.01 23.0833 215.869 24.3438L219.436 29.7578L223.002 24.3438C223.847 23.0833 224.964 22.4531 226.354 22.4531H231.016C231.345 22.4531 231.596 22.5605 231.768 22.7754C231.939 22.9759 232.018 23.2194 232.004 23.5059C231.99 23.778 231.875 24.0573 231.66 24.3438L224.678 34.2051L232.154 44.1094C232.383 44.3815 232.498 44.668 232.498 44.9688C232.498 45.0977 232.477 45.2194 232.434 45.334C232.305 45.778 231.99 46 231.488 46H226.912C225.594 46 224.477 45.3698 223.561 44.1094L219.436 38.5234L215.289 44.1094C214.387 45.3698 213.277 46 211.959 46H207.383C206.882 46 206.566 45.778 206.438 45.334ZM235.807 51.9297V23.7852C235.807 23.3984 235.928 23.0833 236.172 22.8398C236.43 22.582 236.745 22.4531 237.117 22.4531H241.264C241.65 22.4531 241.965 22.582 242.209 22.8398C242.452 23.0833 242.574 23.3984 242.574 23.7852V24.4297C244.837 22.8112 247.344 22.0091 250.094 22.0234C253.316 22.0234 255.93 23.0833 257.936 25.2031C259.955 27.3086 260.965 30.3092 260.965 34.2051C260.965 38.1582 259.926 41.1875 257.85 43.293C255.773 45.3841 252.973 46.4297 249.449 46.4297C247.63 46.4297 245.561 46.0645 243.24 45.334V51.9297C243.24 52.3164 243.111 52.6315 242.854 52.875C242.61 53.1328 242.302 53.2617 241.93 53.2617H237.117C236.73 53.2617 236.415 53.1328 236.172 52.875C235.928 52.6315 235.807 52.3164 235.807 51.9297ZM243.24 40.3711C245.088 40.9583 246.642 41.252 247.902 41.252C249.865 41.252 251.254 40.6934 252.07 39.5762C252.901 38.459 253.316 36.6686 253.316 34.2051C253.316 31.7702 252.923 30.0013 252.135 28.8984C251.361 27.7812 250.101 27.2227 248.354 27.2227C247.007 27.2227 245.303 27.8672 243.24 29.1562V40.3711ZM266.916 43.293C264.71 41.2018 263.607 38.194 263.607 34.2695C263.607 30.3307 264.717 27.3086 266.938 25.2031C269.158 23.0833 272.23 22.0234 276.154 22.0234C280.107 22.0234 283.187 23.0547 285.393 25.1172C287.598 27.1654 288.701 30.1087 288.701 33.9473V35.1719C288.701 35.5586 288.572 35.8809 288.314 36.1387C288.071 36.3822 287.756 36.5039 287.369 36.5039H271.191C271.335 38.2656 271.836 39.5475 272.695 40.3496C273.569 41.1517 274.901 41.5527 276.691 41.5527C278.711 41.5527 280.115 41.0729 280.902 40.1133C281.518 39.3542 282.342 38.9674 283.373 38.9531H286.574C286.961 38.9531 287.276 39.082 287.52 39.3398C287.777 39.5833 287.906 39.8984 287.906 40.2852C287.906 44.3958 283.989 46.444 276.154 46.4297C272.201 46.4297 269.122 45.3841 266.916 43.293ZM271.148 31.9707H281.139C280.995 28.5905 279.334 26.9004 276.154 26.9004C272.989 26.9004 271.32 28.5905 271.148 31.9707ZM292.654 44.6895V23.7852C292.654 23.3984 292.776 23.0833 293.02 22.8398C293.277 22.582 293.592 22.4531 293.965 22.4531H298.777C299.164 22.4531 299.479 22.582 299.723 22.8398C299.966 23.0833 300.088 23.3984 300.088 23.7852V25.1387C301.549 24.0788 302.952 23.2982 304.299 22.7969C305.66 22.2812 307.436 22.0234 309.627 22.0234C310.014 22.0234 310.329 22.1523 310.572 22.4102C310.83 22.6536 310.959 22.9616 310.959 23.334V26.5996C310.959 26.9863 310.83 27.3014 310.572 27.5449C310.329 27.7884 310.014 27.9102 309.627 27.9102H308.939C308.61 27.9102 308.073 27.8887 307.328 27.8457C306.583 27.8027 306.018 27.7812 305.631 27.7812C303.697 27.7812 301.85 28.8411 300.088 30.9609V44.6895C300.088 45.0762 299.959 45.3913 299.701 45.6348C299.458 45.8783 299.15 46 298.777 46H293.965C293.578 46 293.263 45.8783 293.02 45.6348C292.776 45.3913 292.654 45.0762 292.654 44.6895ZM314.053 36.7617V16.5234C314.053 16.1367 314.174 15.8216 314.418 15.5781C314.676 15.3203 314.991 15.1914 315.363 15.1914H320.176C320.562 15.1914 320.878 15.3203 321.121 15.5781C321.365 15.8216 321.486 16.1367 321.486 16.5234V23.6992H327.48C327.867 23.6992 328.182 23.821 328.426 24.0645C328.669 24.3079 328.791 24.623 328.791 25.0098V27.5664C328.791 27.9531 328.662 28.2682 328.404 28.5117C328.161 28.7552 327.853 28.877 327.48 28.877H321.486V36.7617C321.486 38.2227 321.83 39.3542 322.518 40.1562C323.205 40.944 324.122 41.3379 325.268 41.3379C325.654 41.3379 326.17 41.2949 326.814 41.209C327.459 41.123 327.924 41.0801 328.211 41.0801H329.006C329.393 41.0801 329.708 41.2018 329.951 41.4453C330.209 41.6888 330.338 42.0039 330.338 42.3906V44.6895C330.338 45.0189 330.209 45.3053 329.951 45.5488C329.708 45.7923 329.393 45.9427 329.006 46C327.545 46.2865 325.64 46.4297 323.291 46.4297C317.132 46.444 314.053 43.2214 314.053 36.7617Z" fill="#535353"/>
<path d="M8.11621 15.4303C1.07286 19.3151 -1.49424 29.4552 2.15095 37.3209C9.45053 53.0729 30.4476 56.0509 43.2053 55.9993C44.0697 55.9959 45.0714 55.9785 45.8532 55.9503C52.8462 45.7417 65.6692 25.3498 54.064 8.64487C49.464 2.02365 39.4422 -1.20945 32.3988 2.67581C27.399 5.43363 24.4224 10.6553 24.9141 15.5922C20.9711 12.7639 13.7948 12.2983 8.11621 15.4303Z" fill="#FF7A5F"/>
<path d="M51.7774 17.4026C51.9995 16.9554 52.1386 16.5417 52.2323 16.2642C52.2736 16.1425 52.2819 16.0119 52.2573 15.8864C51.9253 14.225 49.4353 11.6899 46.2896 11.4976C46.1547 11.489 46.0234 11.4878 45.895 11.4873C44.7944 10.7489 42.9788 10.3057 41.0055 10.2924C41.0685 9.88207 41.0686 9.49445 41.0686 9.08628C41.0686 8.78733 40.8803 8.50937 40.589 8.37873C38.3115 7.35467 34.6069 8.59331 33.5755 9.88506C32.6684 11.0209 32.3317 12.5941 32.5459 14.6932L32.5232 14.7253C32.4972 14.7608 32.4717 14.7968 32.4485 14.8324C31.7232 15.9635 31.6921 17.1268 31.6643 18.1534C31.643 18.9565 31.6249 19.6507 31.2915 20.1951C29.4067 21.7511 26.849 24.5291 26.741 24.6469C26.5652 24.8383 26.4984 25.0983 26.5629 25.3433C27.0545 27.2081 28.0961 31.115 32.2366 30.996C35.0971 30.9077 36.9545 29.6503 37.6571 29.0772C39.1444 29.2472 43.8855 29.5068 46.1765 26.2842C47.1527 24.9111 47.7352 22.9397 47.7783 20.8671C49.0263 20.3193 50.0517 19.6156 50.7816 18.8361C52.6733 21.0894 53.7386 26.48 53.5128 30.4846C53.4121 32.2689 53.184 33.9345 52.8426 35.4233C52.4331 37.2102 51.8919 38.5516 51.2347 39.9466L51.5019 40.0292C52.7285 37.8085 54.1166 33.6112 54.367 30.9878C54.8702 25.7133 53.9315 20.193 51.7774 17.4026ZM43.4198 17.0175C43.6666 17.4775 43.9671 17.7581 44.3121 17.8502C44.7532 17.9692 45.1432 17.7512 45.3306 17.6454C45.3524 17.6334 45.3709 17.6223 45.3857 17.6146C45.4094 17.6304 45.4539 17.6698 45.5105 17.7534C46.2739 18.8789 46.4821 22.9829 44.7508 25.4182C42.7339 28.2557 37.7369 27.4989 37.5254 27.4651C37.236 27.4162 36.9322 27.5096 36.7333 27.7131C36.7175 27.7293 35.1212 29.329 32.1796 29.4198C30.8884 29.4601 29.9233 28.8875 29.2268 27.6869C29.3793 27.5614 29.5421 27.4531 29.7133 27.3391C29.9164 27.2042 30.1265 27.0638 30.3398 26.8826C30.8537 26.4444 31.3262 25.7279 31.2228 25.1154C31.1611 24.7496 30.9107 24.47 30.478 24.2837C30.1993 24.1637 29.9099 24.0806 29.5982 24.0331C30.4497 23.1667 31.5994 22.0394 32.5163 21.2937C32.577 21.2444 32.629 21.1888 32.6707 21.1284C32.8015 20.9408 32.9114 20.7386 33.0065 20.512C33.5022 20.2988 33.8194 19.8413 33.8194 19.3334C33.8194 18.9736 33.6539 18.6301 33.3631 18.3825L33.3687 18.1898C33.3928 17.275 33.416 16.4106 33.915 15.6329C33.9678 15.5506 34.0286 15.4671 34.0958 15.3772C35.2757 13.8083 38.0304 12.1319 39.7649 11.9276C40.9554 11.7876 42.3026 11.8758 43.4217 12.1632C42.6857 12.6116 42.1816 13.1928 41.7911 13.6434C41.6701 13.7822 41.4442 14.0417 41.3746 14.082C40.9767 14.312 40.8515 14.7972 41.0945 15.1639C41.3417 15.5352 41.85 15.6526 42.2539 15.4307C42.5837 15.2478 42.8392 14.9531 43.1351 14.6118C43.7691 13.8811 44.5607 12.9705 46.1755 13.0665C48.4753 13.2074 50.1927 15.0067 50.5331 16.0012C50.1903 16.9897 49.6477 18.1208 47.6832 19.1415C47.5511 18.2035 47.2941 17.4176 46.9547 16.9165C46.521 16.2774 45.9706 16.089 45.5847 16.044C44.9085 15.9656 44.166 16.2582 43.443 16.8912L43.3809 16.9456L43.4198 17.0175ZM38.561 9.55742C38.836 9.55742 39.1045 9.58226 39.3573 9.63751C39.348 9.90262 39.3211 10.1455 39.2422 10.417C37.7081 10.6886 35.7696 11.6647 34.2155 12.9423C34.2911 12.0463 34.5369 11.3327 34.9473 10.8192C35.374 10.2851 37.0667 9.55742 38.561 9.55742Z" fill="white"/>
<path d="M35.8062 37.636C36.4458 37.636 36.9642 37.1572 36.9642 36.5665C36.9642 35.9759 36.4458 35.4971 35.8062 35.4971C35.1667 35.4971 34.6482 35.9759 34.6482 36.5665C34.6482 37.1572 35.1667 37.636 35.8062 37.636Z" fill="white"/>
<path d="M20.427 29.8507C21.2093 29.8507 21.8456 29.2631 21.8456 28.5406C21.8456 27.8176 21.2093 27.23 20.427 27.23C19.6446 27.23 19.0083 27.8176 19.0083 28.5406C19.0083 29.2631 19.6446 29.8507 20.427 29.8507Z" fill="white"/>
<path d="M13.1132 30.521C13.8956 30.521 14.5319 29.9333 14.5319 29.2108C14.5319 28.4883 13.8956 27.9006 13.1132 27.9006C12.3309 27.9006 11.6946 28.4883 11.6946 29.2108C11.6946 29.9333 12.3309 30.521 13.1132 30.521Z" fill="white"/>
<path d="M37.4425 21.3438C38.2196 21.3438 38.8495 20.762 38.8495 20.0443C38.8495 19.3267 38.2196 18.7449 37.4425 18.7449C36.6654 18.7449 36.0354 19.3267 36.0354 20.0443C36.0354 20.762 36.6654 21.3438 37.4425 21.3438Z" fill="white"/>
<path d="M17.3887 33.4934L17.4156 33.4964L17.4411 33.4879C18.1215 33.2647 18.678 32.8035 18.9678 32.2235C19.1728 31.8128 19.2108 31.3866 19.0731 31.0534C18.8486 30.5103 17.9174 30.4444 17.1749 30.4829C16.3406 30.5275 15.4618 30.6435 15.2693 31.1682C15.1353 31.534 15.2192 31.9648 15.5054 32.3824C15.9149 32.9791 16.6541 33.4155 17.3887 33.4934Z" fill="white"/>
<path d="M46.3593 34.5375C46.8838 34.161 47.239 33.5554 47.2863 32.9567C47.3304 32.4029 47.1208 31.8855 46.6793 31.4606C46.1028 30.9051 45.1321 30.7008 44.3173 30.9612C43.6977 31.1599 43.2887 31.5844 43.1727 32.139C40.6415 30.8636 37.1595 31.0165 35.1102 31.8251C33.557 31.8743 32.1444 32.2277 31.1311 32.8213C30.9479 32.9288 30.7716 33.0496 30.5922 33.1897C28.3791 33.1297 26.4637 32.4354 25.7435 31.9335C25.9541 31.2148 26.0821 30.4575 26.1243 29.6806C26.3515 25.5209 25.0896 20.3921 20.8591 18.4686L20.4737 18.3234L20.08 18.4883C19.0709 18.9992 18.2189 20.4961 17.5469 22.9383C16.9306 22.919 16.3059 22.9623 15.69 23.0544C15.2879 23.1152 14.89 23.1978 14.5056 23.3015C13.425 21.0675 12.3843 19.7483 11.4034 19.3783L11.0083 19.2609L10.6313 19.4464C6.81169 21.6889 5.30445 27.1429 5.5201 31.2606C5.7019 34.7298 7.518 41.395 17.6355 47.0614C19.012 47.8324 21.4184 48.871 23.9153 49.7713C24.4487 49.964 26.9966 50.72 28.1147 50.9954L28.2015 51.0172L28.2455 50.9448C29.4369 48.9905 30.7995 48.0268 31.983 47.2769C33.6229 46.2378 34.6603 45.2887 35.0935 43.531C35.4357 43.3708 35.7117 43.1888 35.9347 42.9746C36.1504 42.769 36.2274 42.4705 36.136 42.1968C36.117 42.1394 35.6602 40.7903 34.5611 39.6022C34.1887 38.3233 33.0446 36.6833 30.9354 35.8597C30.9191 35.1667 31.292 34.5919 32.0447 34.1508C33.9809 33.0171 38.0732 33.0749 40.8711 34.9851L40.9184 35.0198C41.7684 35.6096 42.4687 36.273 43.061 37.0508C47.5567 42.4791 45.8245 50.406 44.2811 53.3703L44.5487 53.3622C47.3744 48.9691 47.8939 43.2449 45.7443 38.3344C45.0705 36.7968 44.1123 35.5128 42.8319 34.4364C44.5079 35.1461 45.7253 34.9919 46.3593 34.5375ZM33.6261 41.0562C33.9331 41.4648 34.197 41.9283 34.3375 42.2208C33.8608 42.4332 33.0436 42.4418 32.2432 42.2345C32.4639 41.9814 32.7394 41.715 32.9606 41.5244C33.1549 41.3569 33.3813 41.1967 33.6261 41.0562ZM31.9232 40.314C31.8003 40.4181 31.6839 40.5252 31.5703 40.6318L31.5434 40.6571C31.4186 40.7753 31.2999 40.8952 31.1863 41.0156C31.1362 41.0674 31.0879 41.1179 31.0388 41.171L30.9516 41.2691C30.5764 41.6854 30.1196 42.4174 29.9364 42.8769C29.7129 42.5347 29.4726 41.9582 29.3507 41.4349C29.09 40.3179 29.1897 38.8805 30.4206 37.3545C31.4905 37.8144 32.367 38.6612 32.7904 39.6433C32.5131 39.8287 32.2209 40.0545 31.9232 40.314ZM7.22398 31.1831C7.00322 27.0256 8.59255 22.8865 11.0973 21.0696C11.7072 21.6303 12.5039 22.9297 13.246 24.5808L13.5646 25.2897L14.34 25.0134C14.8562 24.8297 15.4029 24.6935 15.9646 24.6087C16.6848 24.5003 17.4096 24.4802 18.1201 24.5491L18.8724 24.6215L19.0402 23.941C19.6487 21.4722 20.2938 20.4841 20.5971 20.1308C23.7002 21.8997 24.6091 26.1707 24.4222 29.6001C24.2186 33.325 21.7834 35.9856 18.0668 36.5433C16.323 36.8062 13.6954 36.9613 11.0204 35.2922L10.6229 35.0442L10.8539 35.4322C12.2132 37.7168 15.6497 38.5019 18.3409 38.0976C21.4453 37.6316 23.8555 35.983 25.1425 33.4496C26.2138 34.0493 27.7994 34.5058 29.4416 34.6861C29.263 35.1491 29.2023 35.6515 29.2612 36.1813C26.1257 39.8052 27.8699 43.3665 29.3998 44.9032L30.3482 45.7367L30.8264 44.6441C30.9595 44.3122 31.1218 43.9747 31.3092 43.6406C31.9914 43.8102 32.6188 43.9006 33.1763 43.9109C32.7612 44.7649 32.0414 45.3427 30.9822 46.1933C29.8302 47.1175 28.3392 49.074 27.8754 50.6806C27.6547 50.6026 27.4029 50.5144 27.1348 50.421C26.0779 50.0518 24.7622 49.5918 24.1004 49.3139C9.40785 43.1391 7.40345 34.5774 7.22398 31.1831Z" fill="white"/>
</svg>
