<svg width="1278" height="769" fill="none" xmlns="http://www.w3.org/2000/svg"><path d="M869.695 17.863L165.857 119.904a139.998 139.998 0 00-92.242 54.993l-24.038 32.314a140 140 0 00-20.975 126.337l73.606 229.366a140.002 140.002 0 0070.573 82.381l184.207 92.325a139.997 139.997 0 0085.177 13.029l638.015-103.636c55.69-9.045 100.5-50.627 113.68-105.479l56.23-233.98c14.94-62.199-14.17-126.618-70.73-156.499L955.177 32.626a140 140 0 00-85.482-14.763z" fill="url(#paint0_linear)"/><mask id="a" maskUnits="userSpaceOnUse" x="15" y="5" width="1242" height="758"><path d="M869.195 17.857L165.357 119.898a140 140 0 00-92.242 54.992l-24.038 32.315a140 140 0 00-20.975 126.337l73.606 229.365a139.997 139.997 0 0070.573 82.381l184.207 92.326a139.997 139.997 0 0085.177 13.029l638.015-103.636c55.69-9.045 100.5-50.627 113.68-105.479l56.23-233.98c14.94-62.199-14.17-126.618-70.73-156.499L954.677 32.62a139.999 139.999 0 00-85.482-14.763z" fill="url(#paint1_linear)"/></mask><g mask="url(#a)"><path d="M789.261-144.783L135.816 135.948a139.998 139.998 0 00-74.867 76.992l-14.855 37.435a140 140 0 0012.439 127.461l130.461 202.5a140.003 140.003 0 0089.491 61.308l201.825 41.503a140.007 140.007 0 0085.648-9.46l589.452-265.236c51.45-23.149 83.97-74.913 82.51-131.307l-6.25-240.56c-1.66-63.948-46.46-118.636-108.83-132.86l-247.189-56.371a139.994 139.994 0 00-86.39 7.864z" fill="url(#paint2_linear)" fill-opacity=".5"/><path d="M345.098 632.136l703.842-102.041a140.02 140.02 0 0092.24-54.992l24.04-32.315a140 140 0 0020.97-126.337l-73.6-229.366a140.016 140.016 0 00-70.58-82.38L857.805-87.621a139.994 139.994 0 00-85.177-13.029L134.61 2.986C78.927 12.031 34.113 53.613 20.932 108.465l-56.225 233.98c-14.946 62.199 14.168 126.618 70.73 156.499l224.179 118.429a139.998 139.998 0 0085.482 14.763z" fill="url(#paint3_linear)" fill-opacity=".25"/></g><defs><linearGradient id="paint0_linear" x1="457.682" y1="221.267" x2="40.562" y2="813.966" gradientUnits="userSpaceOnUse"><stop stop-color="#32266C"/><stop offset="1" stop-color="#D241A2"/></linearGradient><linearGradient id="paint1_linear" x1="457.182" y1="221.261" x2="40.062" y2="813.959" gradientUnits="userSpaceOnUse"><stop stop-color="#32266C"/><stop offset="1" stop-color="#D241A2"/></linearGradient><linearGradient id="paint2_linear" x1="443.932" y1="158.327" x2="194.426" y2="838.788" gradientUnits="userSpaceOnUse"><stop stop-color="#32266C"/><stop offset="1" stop-color="#D241A2"/></linearGradient><linearGradient id="paint3_linear" x1="855.921" y1="44.584" x2="655.876" y2="574.407" gradientUnits="userSpaceOnUse"><stop stop-color="#32266C"/><stop offset="1" stop-color="#D241A2"/></linearGradient></defs></svg>