<svg width="868" height="1569" fill="none" xmlns="http://www.w3.org/2000/svg"><circle cx="473.934" cy="1045.93" r="25.934" fill="url(#paint0_linear)"/><path d="M525.902 505.823l-149.76 183.526c-29.365 35.986-30.087 87.454-1.743 124.249l217.82 282.762c25.041 32.51 67.399 46.42 106.836 35.09l407.605-117.12c54.65-15.707 85.23-73.765 67.26-127.716l-120.85-362.797c-14.05-42.189-54.275-70.03-98.71-68.323L599.542 469.12a99.998 99.998 0 00-73.64 36.703z" fill="url(#paint1_linear)"/><mask id="a" maskUnits="userSpaceOnUse" x="274" y="275" width="1009" height="1010"><path d="M525.904 505.823l-149.76 183.526c-29.365 35.986-30.087 87.454-1.743 124.249l217.82 282.762c25.041 32.51 67.399 46.42 106.836 35.08l407.603-117.11c54.66-15.707 85.23-73.765 67.26-127.717l-120.85-362.796c-14.05-42.189-54.273-70.03-98.708-68.324L599.544 469.12a99.998 99.998 0 00-73.64 36.703z" fill="url(#paint2_linear)"/></mask><g mask="url(#a)"><path d="M895.859 422.314l-233.818-37.933c-45.847-7.438-90.781 17.671-108.474 60.616L417.598 775.015c-15.631 37.939-6.499 81.577 23.033 110.066L745.86 1179.52c40.928 39.48 106.496 36.93 144.233-5.61l253.767-286.055c29.51-33.265 33.51-82.021 9.81-119.65L964.465 467.737a100.001 100.001 0 00-68.606-45.423z" fill="url(#paint3_linear)"/></g><circle cx="337.5" cy="972.5" r="51.5" fill="url(#paint4_linear)"/><defs><linearGradient id="paint0_linear" x1="473.934" y1="1020" x2="473.934" y2="1071.87" gradientUnits="userSpaceOnUse"><stop stop-color="#F2D433"/><stop offset="1" stop-color="#F28F33"/></linearGradient><linearGradient id="paint1_linear" x1="130.864" y1="1146.98" x2="1145.16" y2="1409.01" gradientUnits="userSpaceOnUse"><stop stop-color="#6EF88D"/><stop offset="1" stop-color="#1770E2"/></linearGradient><linearGradient id="paint2_linear" x1="130.866" y1="1146.98" x2="1145.16" y2="1409.01" gradientUnits="userSpaceOnUse"><stop stop-color="#6EF88D"/><stop offset="1" stop-color="#1770E2"/></linearGradient><linearGradient id="paint3_linear" x1="143.086" y1="400.778" x2="423.301" y2="1410.2" gradientUnits="userSpaceOnUse"><stop stop-color="#6EF88D"/><stop offset="1" stop-color="#1770E2"/></linearGradient><linearGradient id="paint4_linear" x1="288.051" y1="924.777" x2="398.9" y2="972.436" gradientUnits="userSpaceOnUse"><stop stop-color="#5660BF"/><stop offset="1" stop-color="#55C2D8"/></linearGradient></defs></svg>