<svg width="1170" height="1347" fill="none" xmlns="http://www.w3.org/2000/svg"><path d="M765.474 938.687l131.38-61.163c42.107-19.603 65.174-65.618 55.686-111.085l-46.699-223.783c-8.382-40.168-40.452-71.139-80.887-78.116L556.6 418.236c-56.038-9.669-108.849 29.275-116.171 85.667l-30.83 237.44c-5.726 44.098 18.355 86.68 59.098 104.498l214.502 93.81a100 100 0 0082.275-.964z" fill="url(#paint0_linear)"/><mask id="a" maskUnits="userSpaceOnUse" x="384" y="388" width="582" height="583"><path d="M765.474 938.687l131.38-61.164c42.107-19.603 65.174-65.617 55.686-111.085l-46.699-223.783c-8.382-40.168-40.452-71.139-80.887-78.116L556.6 418.236c-56.038-9.669-108.849 29.275-116.171 85.667l-30.83 237.44c-5.726 44.098 18.355 86.679 59.098 104.498l214.502 93.81a100.007 100.007 0 0082.275-.964z" fill="url(#paint1_linear)"/></mask><g mask="url(#a)"><path d="M489.088 886.043l118.659 83.197c38.03 26.665 89.414 23.634 124.046-7.316L902.245 809.59c30.596-27.343 41.382-70.602 27.207-109.109l-94.077-255.553c-19.645-53.365-79.777-79.628-132.276-57.773l-221.044 92.02c-41.053 17.09-65.888 59.236-60.948 103.429l26.009 232.67a99.998 99.998 0 0041.972 70.769z" fill="url(#paint2_linear)"/></g><defs><linearGradient id="paint0_linear" x1="1228.34" y1="641.555" x2="632.772" y2="136.366" gradientUnits="userSpaceOnUse"><stop stop-color="#6EF88D"/><stop offset="1" stop-color="#1770E2"/></linearGradient><linearGradient id="paint1_linear" x1="1228.34" y1="641.554" x2="632.772" y2="136.365" gradientUnits="userSpaceOnUse"><stop stop-color="#6EF88D"/><stop offset="1" stop-color="#1770E2"/></linearGradient><linearGradient id="paint2_linear" x1="977.845" y1="1138.33" x2="1117.57" y2="369.96" gradientUnits="userSpaceOnUse"><stop stop-color="#6EF88D"/><stop offset="1" stop-color="#1770E2"/></linearGradient></defs></svg>