<svg xmlns="http://www.w3.org/2000/svg" viewBox="0 0 600 600" enable-background="new 0 0 600 600"><linearGradient id="a" gradientUnits="userSpaceOnUse" x1="-23.355" y1="514.343" x2="630.732" y2="87.626" gradientTransform="matrix(1 0 0 -1 0 602)"><stop offset="0" stop-color="#6ef88d"/><stop offset="1" stop-color="#1770e2"/></linearGradient><path d="M190.1 54.7L67.4 131.8C28.1 156.5 11 205.1 26.1 249l74.3 216.2c13.3 38.8 49 65.5 90 67.4l272 12.4c56.8 2.6 104.3-42.7 104.5-99.5l.9-239.4c.2-44.5-29.1-83.7-71.7-96.3L271.6 43.4c-27.5-8.1-57.2-4-81.5 11.3z" fill="url(#a)"/><defs><filter id="c" filterUnits="userSpaceOnUse" x="46" y="-7" width="533.1" height="614.3"><feColorMatrix values="1 0 0 0 0 0 1 0 0 0 0 0 1 0 0 0 0 0 1 0"/></filter></defs><mask maskUnits="userSpaceOnUse" x="46" y="-7" width="533.1" height="614.3" id="d"><linearGradient id="b" gradientUnits="userSpaceOnUse" x1="-23.355" y1="514.342" x2="630.732" y2="87.625" gradientTransform="matrix(1 0 0 -1 0 602)"><stop offset="0" stop-color="#6ef88d"/><stop offset="1" stop-color="#1770e2"/></linearGradient><path d="M190.1 54.7L67.4 131.8C28.1 156.5 11 205.1 26.1 249l74.3 216.2c13.3 38.8 49 65.5 90 67.4l272 12.4c56.8 2.6 104.3-42.7 104.5-99.5l.9-239.4c.2-44.5-29.1-83.7-71.7-96.3L271.6 43.4c-27.5-8.1-57.2-4-81.5 11.3z" fill="url(#b)" filter="url(#c)"/></mask><g mask="url(#d)"><linearGradient id="e" gradientUnits="userSpaceOnUse" x1="335.621" y1="698.052" x2="293.119" y2="-81.765" gradientTransform="matrix(1 0 0 -1 0 602)"><stop offset="0" stop-color="#6ef88d"/><stop offset="1" stop-color="#1770e2"/></linearGradient><path d="M470.9 72.3L342.8 4.6c-41.1-21.7-91.7-12.3-122.2 22.8l-150 172.5c-26.9 31-32.2 75.2-13.3 111.7l125.3 241.8c26.2 50.5 89.1 69 138.5 40.8l207.8-119c38.6-22.1 58-67 47.5-110.2l-54.9-227.6c-6.8-28-25.2-51.7-50.6-65.1z" fill="url(#e)"/></g></svg>