<svg width="20" height="20" fill="none" xmlns="http://www.w3.org/2000/svg"><path d="M19.219 2.35H15.37v-.788a.781.781 0 10-1.562 0v.788H6.191v-.788a.781.781 0 10-1.563 0v.788H.781A.781.781 0 000 3.131v15.306c0 .432.35.782.781.782H19.22c.431 0 .781-.35.781-.782V3.132a.781.781 0 00-.781-.78zm-.782 15.306H1.563V3.913h3.066V4.7a.781.781 0 101.563 0v-.787h7.618V4.7a.781.781 0 101.563 0v-.787h3.066v13.743z" fill="#000"/><path d="M10 10.232a1.055 1.055 0 100-2.109 1.055 1.055 0 000 2.11zm0 4.591a1.055 1.055 0 100-2.11 1.055 1.055 0 000 2.11zm-4.59-4.591a1.055 1.055 0 100-2.109 1.055 1.055 0 000 2.11zm9.18 0a1.055 1.055 0 100-2.109 1.055 1.055 0 000 2.11zm-9.18 4.591a1.055 1.055 0 100-2.11 1.055 1.055 0 000 2.11zm9.18 0a1.055 1.055 0 100-2.11 1.055 1.055 0 000 2.11z" fill="#000"/></svg>