<svg width="36" height="36" fill="none" xmlns="http://www.w3.org/2000/svg"><path d="M36 18c0 4.799-1.869 9.31-5.262 12.703a17.847 17.847 0 01-12.703 5.262A17.86 17.86 0 017.78 32.752a17.973 17.973 0 01-4.973-5.212v3.793H0v-8.42h8.421v2.806h-3.44c2.694 4.586 7.59 7.439 13.054 7.439 8.358 0 15.158-6.8 15.158-15.158H36zM17.895 2.842c5.463 0 10.36 2.853 13.054 7.439h-3.37v2.807h8.35V4.667h-2.806V8.46a17.972 17.972 0 00-4.973-5.212A17.859 17.859 0 0017.895.035c-4.796 0-9.296 1.87-12.671 5.265C1.855 8.688 0 13.199 0 18h2.807c0-8.358 6.768-15.158 15.088-15.158zM12.586 9.93l-1.814 1.8c-.811.81-.897 1.936-.527 3.078.641 1.977 1.315 3.529 4.401 6.614 3.087 3.086 4.722 3.586 6.643 4.378.442.182.86.27 1.252.27.696 0 1.308-.278 1.828-.797l1.806-1.814-4.642-4.648-2.393 2.34c-.635-.464-1.354-1.086-2.245-1.977-.902-.902-1.589-1.668-2.108-2.35l2.324-2.343-4.525-4.551z" fill="#D13274"/></svg>