<svg width="44" height="44" fill="none" xmlns="http://www.w3.org/2000/svg"><path d="M8.8 12.586C.733 13.771.733 15.541.733 16.133V39.6C.733 43.95 21.132 44 22 44c.868 0 21.267-.05 21.267-4.4V16.133c0-.591-.004-2.362-8.067-3.547v-2.32a2.2 2.2 0 10-4.4 0v1.823a98.756 98.756 0 00-6.6-.326V11a2.2 2.2 0 00-4.4 0v.763a98.22 98.22 0 00-6.6.326v-1.822a2.2 2.2 0 10-4.4 0v2.32zm33 18.936c-.279 1.029-7.322 2.945-19.8 2.945-12.463 0-19.507-1.912-19.8-2.941v-1.855c6.29 3.435 33.311 3.436 39.6 0v1.851zm0-3.666C41.52 28.884 34.477 30.8 22 30.8c-12.463 0-19.507-1.912-19.8-2.94v-5.083c1.935.526 2.673-.424 3.601-.706.8-.241 1.05.085 1.532.755.372.663.99 1.151 1.722 1.36a2.521 2.521 0 002.32-.96c.82-.793 1.13-1.03 2.457.448.096.107.19.211.279.305a2.748 2.748 0 003.842.502c.825-.611 1.354-1.292 2.023-1.066a2.177 2.177 0 011.182 1.958c.066 1.132 0 2.702.93 3.525.332.292.763.45 1.206.44 2.609 0 1.98-3.813 2.493-4.693a1.1 1.1 0 01.716-.564c.715-.138 1.096.58 1.889 1.06a2.117 2.117 0 002.324-.032c.821-.52 1.331-1.49 1.962-1.563 1.027-.114 2.132 1.922 4.123 1.64 2.216-.32 2.952-2.812 4.693-2.35.104.028.203.073.305.11l.001 4.91zm0-9.918v3.475c-1.646-.4-2.685.53-3.52 1.282-1.572 1.418-2.067 1.308-3.422.279-3.617-2.738-4.289 1.767-5.71.917-.273-.164-.587-.48-.906-.722a2.44 2.44 0 00-3.72.738c-.647 1.096-.332 3.886-1.163 3.96a.343.343 0 01-.298-.074c-.433-.384-.405-1.924-.44-2.51a3.574 3.574 0 00-2.178-3.265c-2.62-.875-3.35 3.014-5.258.953-.945-1.005-1.788-2.102-3.267-1.8-1.307.276-1.86 1.711-2.572 1.569-.67-.136-1-1.561-2.216-2.053a2.665 2.665 0 00-1.76-.026c-1.205.367-1.658 1.22-3.174.559v-3.282c6.295 3.435 33.314 3.435 39.604 0zM22 42.533c-12.48 0-19.524-1.917-19.8-2.933v-6.262c6.29 3.435 33.312 3.435 39.6 0v6.251c-.276 1.027-7.32 2.944-19.8 2.944zm10.267-32.266a.733.733 0 011.466 0v4.4a.733.733 0 11-1.466 0v-4.4zm-11 .733a.733.733 0 011.466 0v4.4a.733.733 0 11-1.466 0V11zM19.8 13.23v2.17a2.2 2.2 0 104.4 0v-2.17c2.266.038 4.479.146 6.6.33v1.107a2.2 2.2 0 104.4 0v-.597c5.11.775 6.52 1.77 6.6 2.053-.402 1.485-11.2 3.373-24.22 2.86-9.675-.38-15.092-1.95-15.376-2.85.11-.315 1.54-1.297 6.596-2.063v.597a2.2 2.2 0 004.4 0V13.56a97.467 97.467 0 016.6-.33zm-9.533-2.963a.733.733 0 011.466 0v4.4a.733.733 0 11-1.466 0v-4.4zm1.513-2.934a2.947 2.947 0 002.306-1.104c.891-1.1 1.247-4.718 1.311-5.432a.733.733 0 00-.932-.769c-.674.193-4.084 1.213-4.98 2.318a3.098 3.098 0 00.383 4.276c.531.459 1.21.711 1.912.711zM10.625 3.27c.321-.398 1.747-1.017 3.191-1.503-.204 1.56-.543 3.136-.87 3.538a1.494 1.494 0 01-1.026.556c-.4.037-.797-.09-1.1-.354a1.62 1.62 0 01-.195-2.237zM33.78 7.333a2.947 2.947 0 002.306-1.104c.891-1.1 1.247-4.718 1.311-5.432a.733.733 0 00-.932-.769c-.674.193-4.084 1.213-4.98 2.318a3.098 3.098 0 00.383 4.276c.531.459 1.21.711 1.912.711zM32.625 3.27c.321-.398 1.747-1.017 3.191-1.503-.204 1.56-.543 3.136-.87 3.538a1.494 1.494 0 01-1.026.556 1.467 1.467 0 01-1.096-.354 1.62 1.62 0 01-.2-2.237z" fill="#D13274"/><path d="M22.78 8.066a2.947 2.947 0 002.306-1.104c.891-1.1 1.247-4.717 1.311-5.432a.733.733 0 00-.932-.768c-.674.193-4.084 1.212-4.98 2.317a3.098 3.098 0 00.383 4.276c.531.459 1.21.711 1.912.711zm-1.155-4.063c.321-.397 1.747-1.017 3.191-1.503-.204 1.561-.543 3.136-.87 3.538a1.494 1.494 0 01-1.026.556c-.4.038-.797-.09-1.1-.354a1.62 1.62 0 01-.195-2.237z" fill="#D13274"/></svg>