<svg width="40" height="40" fill="none" xmlns="http://www.w3.org/2000/svg"><path d="M28.558 13.525a3.402 3.402 0 00-.821-1.262 3.4 3.4 0 00-1.262-.821c-.387-.15-.968-.33-2.039-.378C23.28 11.011 22.931 11 20 11s-3.279.011-4.436.064c-1.07.049-1.652.228-2.038.378a3.397 3.397 0 00-1.263.821 3.405 3.405 0 00-.821 1.262c-.15.387-.33.969-.378 2.039C11.011 16.721 11 17.069 11 20s.011 3.279.064 4.436c.049 1.07.228 1.652.378 2.039.176.476.457.908.821 1.262a3.4 3.4 0 001.262.821c.387.15.969.33 2.039.378C16.721 28.99 17.068 29 20 29s3.279-.011 4.436-.064c1.07-.049 1.652-.227 2.039-.378a3.635 3.635 0 002.083-2.083c.15-.387.33-.968.378-2.039C28.99 23.28 29 22.931 29 20s-.011-3.279-.064-4.436c-.049-1.07-.227-1.652-.378-2.039zM20 25.637a5.637 5.637 0 110-11.274 5.637 5.637 0 010 11.274zm5.86-10.18a1.318 1.318 0 110-2.635 1.318 1.318 0 010 2.635z" fill="#fff"/><path d="M20 0C8.956 0 0 8.956 0 20s8.956 20 20 20 20-8.956 20-20S31.044 0 20 0zm11.415 24.735c-.055 1.222-.25 2.057-.534 2.788a5.872 5.872 0 01-3.358 3.358c-.73.284-1.566.478-2.788.534-1.225.056-1.616.07-4.735.07s-3.51-.014-4.735-.07c-1.222-.056-2.057-.25-2.787-.534a5.626 5.626 0 01-2.035-1.324 5.628 5.628 0 01-1.324-2.034c-.284-.73-.478-1.566-.534-2.788-.056-1.225-.07-1.616-.07-4.735s.014-3.51.07-4.735c.055-1.222.25-2.057.533-2.788a5.647 5.647 0 011.325-2.034 5.625 5.625 0 012.034-1.324c.731-.284 1.566-.478 2.788-.534 1.225-.056 1.616-.07 4.735-.07s3.51.014 4.735.07c1.222.056 2.057.25 2.788.533a5.63 5.63 0 012.034 1.325 5.626 5.626 0 011.324 2.034c.285.731.479 1.566.534 2.788.056 1.225.07 1.616.07 4.735s-.014 3.51-.07 4.735z" fill="#fff"/></svg>