<svg width="83" height="81" fill="none" xmlns="http://www.w3.org/2000/svg"><g clip-path="url(#clip0)" fill="#fff"><path d="M41.266 11.79a29.477 29.477 0 100 58.954 29.477 29.477 0 000-58.953zm0 55.032a25.527 25.527 0 1125.615-25.556 25.526 25.526 0 01-25.615 25.468v.088zm-28.975 1.474l3.45-3.449-.59-.59.56-.53.56.59.206-.207a2.624 2.624 0 011.857-.884c.53.047 1.023.289 1.385.678.215.22.386.481.502.766l-.649.442a1.8 1.8 0 00-.383-.589c-.649-.648-1.356-.265-1.945.324l-.236.207 1.002 1.002-.56.56-.973-1.002-3.449 3.448-.737-.766z"/><path d="M13.028 69.21l-.913-.914 3.448-3.449-.59-.59.738-.707.56.59a2.505 2.505 0 011.945-.914 2.034 2.034 0 011.444.678c.3.255.532.578.678.943l-.854.59v-.148a1.384 1.384 0 00-.384-.442c-.5-.5-1.06-.383-1.798.325l1.003 1.031-.737.678-.973-1.002-3.567 3.33zm-.59-.914l.59.59 3.45-3.36.972 1.001.383-.383-.973-1.002.295-.295c.825-.796 1.533-.913 2.122-.324.138.153.256.32.354.501l.442-.177a2.506 2.506 0 00-.442-.648 2.152 2.152 0 00-1.297-.62 2.387 2.387 0 00-1.768.856l-.295.265-.56-.59-.383.384.56.59-3.45 3.212zm5.867.413c.412-.53.736-.973 1.031-1.415l.737.59-.648.884a1.71 1.71 0 012.034 0l.206.206-.59.766a1.118 1.118 0 00-.265-.265 1.444 1.444 0 00-1.916.177 1.68 1.68 0 00-.324.324l-1.857 2.358-.825-.648 2.417-2.977z"/><path d="M16.801 72.54l-1.002-.766 2.417-3.124c.442-.59.767-1.003 1.032-1.415l.943.707-.501.678a1.768 1.768 0 011.827.207l.236.235-.737.944-.235-.236a1.445 1.445 0 00-1.798.147 1.857 1.857 0 00-.295.354L16.8 72.54zm-.678-.825l.649.501 1.739-2.24c.103-.132.221-.25.354-.354a1.592 1.592 0 012.092-.176l.177.176.442-.59h-.147a1.65 1.65 0 00-1.886 0l-.207-.147.649-.884-.56-.442c-.296.453-.62.887-.973 1.297l-2.329 2.86zm6.102 1.297a1.828 1.828 0 00.855 2.653 4.42 4.42 0 001.562.53l-.177.708a4.835 4.835 0 01-1.886-.619 2.655 2.655 0 01-1.209-3.832 2.77 2.77 0 013.861-1.356 2.445 2.445 0 01.885 3.478l-.266.384-3.625-1.946zm2.947.855a1.443 1.443 0 00-.5-2.152 1.74 1.74 0 00-2.24.649l2.74 1.503z"/><path d="M24.553 77.05a5.1 5.1 0 01-1.915-.619 3.212 3.212 0 01-1.563-1.768 2.945 2.945 0 01.325-2.24 2.946 2.946 0 014.008-1.386 2.329 2.329 0 011.327 1.828 3.213 3.213 0 01-.413 1.798l-.236.353-3.507-1.915a1.738 1.738 0 00.854 2.417c.467.256.976.426 1.504.5h.147l-.53 1.032zm-.619-6.307a2.948 2.948 0 00-2.446 1.62 2.683 2.683 0 00-.295 2.094 2.948 2.948 0 001.445 1.62c.541.295 1.13.494 1.739.59v-.5a5.04 5.04 0 01-1.474-.502 1.945 1.945 0 01-.884-2.948l3.625 1.975c.072-.09.131-.189.177-.294.38-.431.626-.964.707-1.533a2.092 2.092 0 00-1.208-1.65 2.476 2.476 0 00-1.386-.472zm1.445 3.153l-2.948-1.591a1.857 1.857 0 012.388-.708 1.445 1.445 0 01.766.914c.108.481.034.985-.206 1.415v-.03zm-2.623-1.68l2.534 1.356c.167-.348.218-.74.148-1.12a1.24 1.24 0 00-.678-.766 1.562 1.562 0 00-2.005.648v-.118zm5.01 5.188c.328.372.743.656 1.209.825.737.236 1.208 0 1.356-.442.147-.442 0-.796-.737-1.297-.737-.5-1.18-1.356-.973-2.004a1.768 1.768 0 012.417-.914c.481.144.917.407 1.268.766l-.472.62a2.476 2.476 0 00-1.032-.678c-.619-.207-1.06 0-1.179.412-.117.413 0 .767.767 1.268.766.5 1.208 1.267.943 2.063-.265.796-1.267 1.356-2.594.914a3.272 3.272 0 01-1.444-.885l.471-.648z"/><path d="M29.712 79.231a3.27 3.27 0 01-1.002-.177 3.624 3.624 0 01-1.504-.914l.62-.854c.319.353.725.617 1.178.766.59.206 1.032 0 1.18-.354.147-.353 0-.707-.678-1.179-1.15-.855-1.18-1.621-1.032-2.122a1.74 1.74 0 01.825-.943 2.417 2.417 0 011.769 0c.488.161.931.434 1.297.796l-.62.795a2.242 2.242 0 00-1.002-.648 1.061 1.061 0 00-.736 0 .649.649 0 00-.266.354c0 .324 0 .59.708 1.09.707.501 1.267 1.415 1.002 2.21a1.709 1.709 0 01-1.002 1.062 2.74 2.74 0 01-.737.118zm-2.27-1.18c.379.353.832.615 1.327.767.523.19 1.097.19 1.62 0a1.237 1.237 0 00.826-.884c.236-.707 0-1.297-.884-1.945-.884-.649-1.002-.826-.825-1.386a.914.914 0 01.412-.471c.296-.106.619-.106.914 0 .369.144.708.353 1.002.619l.324-.443a2.939 2.939 0 00-1.15-.648 2.093 2.093 0 00-1.532.03 1.355 1.355 0 00-.678.825c-.265.737.383 1.415.943 1.857.56.442.944.855.767 1.415-.177.56-.62.795-1.504.53a2.947 2.947 0 01-1.15-.766l-.412.5zm7.575-5.924l1.062.148-.443 3.448c.227-.276.521-.49.855-.618.356-.142.74-.193 1.12-.148a2.063 2.063 0 011.74 2.624l-.413 3.271h-1.061l.442-3.301c0-.884-.148-1.68-1.12-1.798a1.532 1.532 0 00-1.563.825 1.56 1.56 0 000 .472l-.412 3.33h-1.061l.855-8.253z"/><path d="M39.085 81l-1.297-.177.53-3.272c0-.707 0-1.562-1.06-1.68a1.385 1.385 0 00-1.415.766.619.619 0 000 .413l-.442 3.478-1.268-.177 1.002-8.224 1.297.148-.383 3.242c.2-.16.418-.3.649-.412a2.33 2.33 0 011.179-.148 2.21 2.21 0 011.857 2.741L39.085 81zm-1.032-.354h.826l.383-3.183c.265-2.152-1.326-2.447-1.65-2.476a1.916 1.916 0 00-1.062.147 1.945 1.945 0 00-.796.56h-.176l.412-3.33h-.825l-.943 7.87h.825l.383-3.243c.013-.176.063-.347.148-.501a1.592 1.592 0 011.65-.884c.943 0 1.386.825 1.238 1.945l-.413 3.095zm8.549-.118l-.737-4.775h-.796v-.737h.796v-.265a2.416 2.416 0 01.383-2.004 1.916 1.916 0 011.326-.737 2.24 2.24 0 01.914 0v.796a1.356 1.356 0 00-.707 0c-.885 0-1.003.914-.885 1.768v.295l1.386-.206v.766l-1.386.206.708 4.746-1.002.147z"/><path d="M46.484 80.646l-.708-4.627h-.825l-.148-1.003h.826v-.147a2.564 2.564 0 01.413-2.122c.356-.427.862-.7 1.414-.767.313-.05.631-.05.944 0v1.032a1.592 1.592 0 00-.649 0 .854.854 0 00-.737.53 2.15 2.15 0 000 1.091v.207l1.386-.236.176 1.002-1.414.206.707 4.775-1.385.06zm-.53-5.01l.706 4.627h.796l-.707-4.746 1.415-.235v-.53l-1.415.205v-.383a2.595 2.595 0 010-1.208 1.09 1.09 0 01.943-.708h.59v-.56a2.15 2.15 0 00-.767 0 1.916 1.916 0 00-1.267.678 2.387 2.387 0 00-.354 1.946v.383h-.825v.53h.884zm9.756-.384a2.947 2.947 0 01-1.857 3.744 2.713 2.713 0 01-3.567-1.857 2.772 2.772 0 011.828-3.714 2.712 2.712 0 013.596 1.827zm-4.422 1.533a1.944 1.944 0 002.358 1.474 1.946 1.946 0 001.032-2.624 1.83 1.83 0 00-3.087-1.086 1.827 1.827 0 00-.303 2.236z"/><path d="M52.88 79.26a2.564 2.564 0 01-1.238-.294 2.947 2.947 0 01-1.474-1.798 2.949 2.949 0 011.916-3.861 2.947 2.947 0 012.27 0 2.946 2.946 0 011.444 1.798 2.949 2.949 0 01-1.916 3.89c-.32.133-.658.222-1.002.266zm.236-5.894a3.69 3.69 0 00-.944.147 2.682 2.682 0 00-1.768 3.596 2.622 2.622 0 001.326 1.65 2.683 2.683 0 002.093 0 2.655 2.655 0 001.769-3.566 2.947 2.947 0 00-1.356-1.503 2.417 2.417 0 00-1.18-.324h.06zm0 5.1a1.857 1.857 0 01-.944-.296 2.388 2.388 0 01-1.002-1.356 2.034 2.034 0 011.09-2.77 1.68 1.68 0 011.622.265c.414.338.72.788.884 1.297a2.064 2.064 0 01-1.09 2.77l-.56.09zm-1.71-1.828c.14.512.465.954.914 1.238a1.445 1.445 0 001.297.176 1.827 1.827 0 00.943-2.476 2.535 2.535 0 00-.796-1.179 1.533 1.533 0 00-1.385-.235 1.797 1.797 0 00-.973 2.476zm11.319-5.248a2.947 2.947 0 01-1.002 4.039 2.71 2.71 0 01-3.891-1.032 2.947 2.947 0 011.12-4.038 2.712 2.712 0 013.773 1.032zm-3.98 2.3a1.916 1.916 0 002.624.943 2.181 2.181 0 00-2.181-3.714 1.915 1.915 0 00-.442 2.77z"/><path d="M60.22 75.99a3.095 3.095 0 01-1.445-5.719 2.949 2.949 0 014.038 1.061 2.948 2.948 0 01.354 2.506 2.948 2.948 0 01-1.385 1.71c-.47.29-1.01.443-1.563.442zm0-5.896a2.74 2.74 0 00-1.445.443 2.8 2.8 0 002.77 4.863 2.948 2.948 0 001.298-1.562 2.947 2.947 0 00-.354-2.329 2.623 2.623 0 00-2.152-1.474l-.118.06zm.206 5.07a2.27 2.27 0 01-1.887-1.238 2.594 2.594 0 01-.412-1.562 1.68 1.68 0 01.884-1.356 1.65 1.65 0 011.65 0 2.948 2.948 0 011.504 2.741 1.826 1.826 0 01-.855 1.268 1.884 1.884 0 01-.766.088l-.118.06zm-1.474-1.474a1.8 1.8 0 002.476.914 1.503 1.503 0 00.737-1.09 2.445 2.445 0 00-.354-1.533 2.505 2.505 0 00-1.032-.973 1.415 1.415 0 00-1.414 0 1.503 1.503 0 00-.767 1.209c-.035.515.089 1.03.354 1.473zm5.895-11.349l4.628 4.923c.324.354.737.766 1.002 1.002l-.678.678-.707-.678a2.153 2.153 0 01-.708 2.181 2.565 2.565 0 01-3.537-.353 2.712 2.712 0 01-.147-3.98 1.945 1.945 0 011.857-.59l-2.27-2.416.56-.767zm2.565 4.304a1.032 1.032 0 00-.325-.295 1.563 1.563 0 00-1.945.206 1.888 1.888 0 00.206 2.771 1.826 1.826 0 002.683.324 1.592 1.592 0 00.294-1.974 2.183 2.183 0 00-.265-.354l-.648-.678z"/><path d="M66.822 71.214a3.095 3.095 0 01-2.21-1.032 3.211 3.211 0 01-.973-2.299 2.654 2.654 0 01.825-1.857 2.33 2.33 0 011.68-.678l-2.152-2.27.944-.884 4.716 4.982c.236.265.678.737 1.002 1.031l-.855.826-.56-.53a2.329 2.329 0 01-.796 1.974 2.564 2.564 0 01-1.621.737zm-.796-5.63a1.946 1.946 0 00-1.385.62 2.21 2.21 0 00-.767 1.68 2.948 2.948 0 00.885 2.121 2.506 2.506 0 003.625.354 2.123 2.123 0 00.678-2.063l.62.59.53-.472-.944-.944-4.42-4.951-.62.56 2.3 2.446h-.148l-.354.06zM67 70.212a2.358 2.358 0 01-1.65-.796 2.654 2.654 0 01-.738-1.533 1.65 1.65 0 01.56-1.415 1.621 1.621 0 012.064-.206c.128.085.247.183.353.295l.649.707c.13.1.233.232.295.383a1.71 1.71 0 01-.325 2.064 1.65 1.65 0 01-1.208.5zm-.678-3.98a1.474 1.474 0 00-1.002.413 1.415 1.415 0 00-.472 1.15c.06.517.3.998.678 1.356a1.71 1.71 0 002.506.324 1.533 1.533 0 00.294-1.828 1.738 1.738 0 00-.236-.324l-.677-.707-.295-.266a1.77 1.77 0 00-.796-.117zm-8.814-18.333l3.301-.884 1.415-2.418-2.447-1.385-7.133 1.887-7.251-4.127 7.133-4.068 7.104 1.887 2.446-1.386-1.414-2.387-3.302-.884 3.891-2.211.708-2.682-2.712-.708-3.862 2.21.885-3.271-1.415-2.388-2.417 1.386-1.916 7.045-7.192 4.126v-7.663l5.217-5.159v-2.77h-2.8l-2.417 2.387V19.16l-1.975-1.946-2.005 1.946v5.276l-2.387-2.388h-2.83v2.771l5.217 5.159v7.545l-6.573-3.773-1.916-7.044-2.446-1.386L27 27.708l.884 3.272-4.598-2.624-2.712.708.737 2.682 4.598 2.623-3.3.885-1.386 2.387 2.417 1.386 7.133-1.887 6.691 3.832-6.838 3.89-7.134-1.886-2.417 1.386 1.415 2.417 3.302.855-4.628 2.652-.708 2.683 2.712.707 4.598-2.623-.884 3.272 1.415 2.387 2.417-1.385 1.916-7.045 6.72-3.861v8.282l-5.217 5.159v2.77h2.83l2.387-2.387v4.421l2.005 1.975 1.975-1.975v-4.421l2.417 2.388h2.8v-2.771l-5.217-5.159v-8.4l7.34 4.215 1.915 7.045 2.417 1.385 1.415-2.417-.884-3.242 3.861 2.21 2.712-.737-.737-2.652-3.861-2.211zm-48.665 3.36l-4.628 1.356.236.795-.766.207-.207-.796h-.265a2.595 2.595 0 01-2.063 0 1.917 1.917 0 01-.885-1.209 2.27 2.27 0 010-.913h.796a1.93 1.93 0 000 .678c.265.884 1.061.884 1.887.648h.294L2.83 50.67l.737-.206.412 1.356 4.628-1.356.236.796z"/><path d="M3.596 53.764l-.236-.707a2.77 2.77 0 01-2.151 0A2.151 2.151 0 010 51.613a2.948 2.948 0 010-.973h1.032v.147a1.68 1.68 0 000 .649c.206.678.737.855 1.739.56h.177l-.413-1.356 1.032-.53.383 1.355 4.628-1.356.353 1.238-4.598 1.356.236.796-.973.265zm0-1.06l.236.766.53-.148-.235-.796L8.754 51.2l-.235-.796L3.89 51.76l-.383-1.385-.56.176.383 1.356h-.383c-1.091.325-1.769 0-2.005-.736a2.21 2.21 0 010-.59h-.56a2.947 2.947 0 000 .796c.136.474.44.883.855 1.15a2.476 2.476 0 001.975 0l.383.176zm.384-4.864c-.65 0-1.21.176-1.71.294l-.148-.973h1.09a1.769 1.769 0 01-1.473-1.415v-.294h.943a1.562 1.562 0 000 .353 1.444 1.444 0 001.504 1.238h.471l2.948-.471.147 1.06-3.773.207z"/><path d="M2.181 48.282l-.177-1.12.944-.178a1.916 1.916 0 01-1.18-1.414v-.413l1.18-.206v.147a1.562 1.562 0 000 .354 1.326 1.326 0 001.385 1.12h.442l2.948-.472.206 1.268-3.802.56-1.71.324-.236.03zm0-.973v.678l1.621-.266 3.862-.56-.148-.796-2.947.443c-.156.03-.316.03-.472 0a1.563 1.563 0 01-1.621-1.297.737.737 0 010-.236h-.707v.206a1.71 1.71 0 001.355 1.327v.353l-.943.148zm2.417-5.189a1.828 1.828 0 001.946-1.974 4.569 4.569 0 00-.266-1.65l.737-.178a5.17 5.17 0 01.325 1.946 2.682 2.682 0 01-2.948 2.947 2.77 2.77 0 01-2.948-2.77 2.417 2.417 0 012.653-2.417h.472l.03 4.097zm-.707-3.124a1.445 1.445 0 00-1.65 1.474 1.71 1.71 0 001.62 1.65l.03-3.124z"/><path d="M4.54 43.27a3.39 3.39 0 01-2.182-.795 2.623 2.623 0 01-.914-2.093 2.505 2.505 0 012.742-2.535h.619v4.097a1.712 1.712 0 001.71-1.857 3.448 3.448 0 00-.266-1.591l.825-.177c.26.635.38 1.318.354 2.004a2.948 2.948 0 01-2.889 2.948zm-.413-5.187a2.268 2.268 0 00-2.506 2.299 2.417 2.417 0 00.826 1.916 2.95 2.95 0 002.033.737 2.565 2.565 0 002.683-2.741 5.07 5.07 0 00-.295-1.828h-.501c.181.5.261 1.031.236 1.562a1.916 1.916 0 01-2.064 2.093v-4.127h-.412v.089zm0 4.156a1.827 1.827 0 01-1.74-1.768 1.444 1.444 0 01.443-1.12c.366-.32.84-.49 1.326-.472l-.03 3.36zm-.207-3.124a1.621 1.621 0 00-1.06.383 1.327 1.327 0 00-.355.973 1.562 1.562 0 001.386 1.503l.03-2.86zm2.565-3.095a3.1 3.1 0 00.648-1.327c.148-.766 0-1.179-.59-1.267-.589-.089-.795.147-1.237.884-.442.737-1.18 1.356-1.828 1.238A1.797 1.797 0 012.24 33.25c.125-.502.367-.967.708-1.356l.59.53a2.624 2.624 0 00-.56 1.12.885.885 0 00.589 1.12c.442 0 .707-.235 1.12-.913.412-.678 1.12-1.356 1.945-1.209.825.148 1.503 1.091 1.238 2.477a3.508 3.508 0 01-.678 1.532l-.707-.53z"/><path d="M7.222 36.55l-.914-.53c.306-.367.518-.801.619-1.268.11-.274.11-.58 0-.855a.56.56 0 00-.413-.265c-.412 0-.678 0-1.09.826-.708 1.238-1.445 1.385-1.975 1.267a1.885 1.885 0 01-1.327-2.417 3.49 3.49 0 01.649-1.415l.884.53c-.26.306-.442.67-.53 1.062a.988.988 0 000 .678.56.56 0 00.383.295c.353 0 .59 0 1.031-.855.442-.855 1.238-1.415 2.064-1.268a1.71 1.71 0 011.15.855c.233.549.294 1.155.176 1.74a3.714 3.714 0 01-.707 1.62zm-.56-.59l.5.295c.306-.418.508-.903.59-1.414a2.534 2.534 0 000-1.592 1.356 1.356 0 00-1.15-.825c-.707 0-1.267.206-1.797 1.15-.531.942-.708 1.06-1.268.972a.884.884 0 01-.59-.324 1.12 1.12 0 010-.826c.059-.352.2-.686.413-.972l-.412-.384c-.264.37-.445.792-.53 1.238a1.68 1.68 0 001.149 2.152c.619 0 1.208-.295 1.71-1.179.5-.884.736-1.061 1.326-.943.224.044.424.17.56.354a1.386 1.386 0 010 1.06 2.713 2.713 0 01-.501 1.239zm-5.601-8.224l.383-.972 3.243 1.267a1.798 1.798 0 01-.384-.973 2.947 2.947 0 010-1.12 2.092 2.092 0 012.948-1.031l3.095 1.238-.383.973-2.948-1.18c-.855-.324-1.68-.265-2.063.678a1.533 1.533 0 00.442 1.68c.145.12.317.2.501.236L9.02 29.77l-.384.973-7.575-3.006z"/><path d="M8.843 30.89l-7.811-2.947.353-1.415 2.948 1.18a1.975 1.975 0 01-.236-.737 2.27 2.27 0 01.148-1.18 2.181 2.181 0 013.124-1.09l3.183 1.238-.471 1.208-3.007-1.12a1.946 1.946 0 00-1.179-.147 1.06 1.06 0 00-.707.648 1.444 1.444 0 00.383 1.563c.082.13.193.241.324.324l3.243 1.267-.295 1.209zm-7.634-3.212l7.398 2.947.295-.766-3.007-1.238a1.032 1.032 0 01-.471-.265 1.592 1.592 0 01-.443-1.828 1.268 1.268 0 01.914-.854c.411-.14.857-.14 1.268 0l2.947 1.12.295-.767-2.948-1.179a1.975 1.975 0 00-2.947.973c-.09.348-.09.713 0 1.061.042.329.163.643.354.914v.147l-3.36-1.032-.295.767zm12.35-6.573l-3.861-2.948-.501.678-.59-.472.472-.678h-.236a2.536 2.536 0 01-1.15-1.71c-.04-.52.118-1.035.442-1.444a2.3 2.3 0 01.708-.737l.53.59a1.796 1.796 0 00-.53.354c-.56.737 0 1.356.619 1.886l.236.177.825-1.15.619.472-.825 1.15 3.832 2.947-.59.885z"/><path d="M13.588 21.252l-3.772-2.948-.502.649-.795-.59.324-.678a2.593 2.593 0 01-1.209-1.798 2.21 2.21 0 01.472-1.533c.208-.255.457-.474.737-.648l.707.766c-.272.08-.517.233-.707.443a.943.943 0 000 .707c.132.429.414.795.796 1.032l.854-1.12.796.59-.854 1.149 3.86 2.947-.707 1.032zm-3.92-3.183l3.744 2.8.5-.649-3.86-2.947.854-1.12-.442-.325-.855 1.12-.324-.235a2.034 2.034 0 01-.884-1.18 1.18 1.18 0 01.442-.795c.114-.168.253-.317.412-.442l-.412-.354a3.3 3.3 0 00-.56.56c-.313.39-.461.887-.413 1.385a2.417 2.417 0 00.973 1.622l.412.176-.412.708.442.324.383-.648zm8.018-5.807a2.947 2.947 0 010 4.157 2.741 2.741 0 01-4.039 0 2.948 2.948 0 010-4.157 2.71 2.71 0 014.039 0zm-3.184 3.272a1.947 1.947 0 002.77.324 1.943 1.943 0 00-.235-2.947 1.885 1.885 0 00-2.741-.324 1.888 1.888 0 00.206 2.947z"/><path d="M15.829 17.361a2.947 2.947 0 01-2.093-.972 2.947 2.947 0 01-.943-2.211 2.948 2.948 0 01.972-2.093 2.8 2.8 0 014.186 0 2.949 2.949 0 01.943 2.358 3.124 3.124 0 01-1.002 1.946 2.947 2.947 0 01-2.063.972zm0-5.895a2.595 2.595 0 00-1.857.796 2.681 2.681 0 00-.914 1.945 2.948 2.948 0 002.948 2.948 2.771 2.771 0 001.68-.796c.512-.48.836-1.129.913-1.827a2.946 2.946 0 00-.913-2.181 2.741 2.741 0 00-1.946-.914l.089.03zm.383 4.982a2.446 2.446 0 01-1.68-.796 2.034 2.034 0 01-.207-2.948 1.621 1.621 0 011.592-.442c.508.12.97.386 1.326.766a2.092 2.092 0 01.236 2.948 1.916 1.916 0 01-1.356.442l.089.03zm-.825-4.068a1.503 1.503 0 00-1.003.413 1.797 1.797 0 00.207 2.652h.147a2.094 2.094 0 001.503.737 1.385 1.385 0 001.09-.412 1.826 1.826 0 00-.206-2.653 2.534 2.534 0 00-1.237-.708l-.502-.029zm8.99-4.422a2.947 2.947 0 01-.796 4.038 2.681 2.681 0 01-3.891-.943 2.946 2.946 0 01.914-4.067 2.741 2.741 0 013.773.972zm-3.95 2.506a1.945 1.945 0 002.653.884 1.975 1.975 0 00.5-2.8 1.916 1.916 0 00-2.623-.884 1.916 1.916 0 00-.53 2.8z"/><path d="M21.9 12.586h-.589a2.949 2.949 0 01-1.857-1.415 3.125 3.125 0 01-.471-2.328 3.184 3.184 0 011.414-1.828 2.947 2.947 0 014.068 1.003 2.948 2.948 0 01-.884 4.097 3.213 3.213 0 01-1.68.471zm0-5.895c-.45.031-.885.173-1.267.413a2.95 2.95 0 00-1.415 1.739 2.948 2.948 0 00.413 2.21 2.947 2.947 0 001.74 1.298 2.624 2.624 0 002.004-.56 2.683 2.683 0 00.884-3.891 2.623 2.623 0 00-2.24-1.268l-.118.06zm.325 5.1a2.269 2.269 0 01-1.887-1.18 2.037 2.037 0 01.443-2.947 1.621 1.621 0 011.267-.206 2.387 2.387 0 011.533 1.031 2.034 2.034 0 01-.413 2.948c-.273.208-.6.331-.943.354zm-1.592-1.415a1.797 1.797 0 002.476.854 1.798 1.798 0 00.324-2.623 2.3 2.3 0 00-1.326-1.061 1.533 1.533 0 00-1.12.206 1.769 1.769 0 00-.354 2.624zM29.682.147l2.24 6.367c.144.465.322.918.531 1.356l-.914.324-.353-.913a2.21 2.21 0 01-1.533 1.71 2.565 2.565 0 01-3.301-1.858 2.714 2.714 0 011.473-3.684 2.063 2.063 0 011.975.206L28.68.501l1.002-.354zm.62 4.952a2.443 2.443 0 00-.207-.383 1.533 1.533 0 00-1.828-.59 1.886 1.886 0 00-.943 2.624 1.8 1.8 0 002.329 1.356 1.592 1.592 0 001.061-1.65 2.366 2.366 0 000-.443l-.413-.914z"/><path d="M28.828 9.255a2.564 2.564 0 01-1.209-.412 3.242 3.242 0 01-1.415-1.74 3.33 3.33 0 010-2.505 2.533 2.533 0 011.503-1.356 2.21 2.21 0 011.799 0L28.474.295 29.74 0l2.24 6.367c.138.452.306.896.502 1.326l-1.12.383-.295-.678a2.388 2.388 0 01-1.533 1.474 2.71 2.71 0 01-.707.383zM28.65 3.36c-.272.006-.54.056-.796.148-.587.24-1.06.692-1.327 1.267a2.948 2.948 0 000 2.329 2.95 2.95 0 001.209 1.739 2.27 2.27 0 001.739 0A2.064 2.064 0 0030.92 7.25h.177l.324.796 1.003-.265c-.177-.384-.354-.914-.472-1.238L29.623.294l-.796.266 1.091 3.154h-.147a1.71 1.71 0 00-1.12-.324v-.03zm.412 4.952a1.415 1.415 0 01-.707-.177 2.388 2.388 0 01-1.15-1.385 2.006 2.006 0 011.032-2.77 1.68 1.68 0 011.975.648c.073.13.132.269.177.412l.324.914a1.56 1.56 0 010 .472 1.71 1.71 0 01-1.15 1.768 1.532 1.532 0 01-.5.148v-.03zm-.235-4.185a1.68 1.68 0 00-.531 0 1.798 1.798 0 00-.855 2.476 2.032 2.032 0 001.002 1.267c.369.15.781.15 1.15 0a1.474 1.474 0 001.002-1.562 1.033 1.033 0 000-.383l-.324-.914a2.39 2.39 0 00-.177-.383 1.415 1.415 0 00-1.267-.501zm21.813 3.92l1.415-4.598-.767-.236.207-.737.795.236v-.236A2.623 2.623 0 0153.5.796c.493-.19 1.04-.19 1.533 0 .348.037.682.158.972.354l-.383.707a1.503 1.503 0 00-.619-.324c-.855-.265-1.297.383-1.562 1.208v.295l1.356.413-.206.737-1.533-.413-1.445 4.598-.972-.324z"/><path d="M51.73 8.519l-1.238-.383 1.445-4.599-.796-.236.295-.972.795.236v-.148a2.593 2.593 0 011.297-1.71 2.122 2.122 0 011.592 0c.316.058.616.178.884.354l-.5.914a1.238 1.238 0 00-.59-.295c-.649-.206-1.12 0-1.415 1.12v.177l1.356.413-.295.973-1.503-.443-1.327 4.6zm-.943-.53l.796.235 1.474-4.598 1.356.412v-.53l-1.356-.413v-.383c.324-1.09.884-1.533 1.71-1.297.192.052.372.143.53.265l.501-.5a3.863 3.863 0 00-.707-.354 2 2 0 00-1.445 0 2.27 2.27 0 00-1.15 1.591v.354l-.913-.147-.147.5.766.266-1.415 4.598zm5.394-2.094c.266-.59.501-1.12.678-1.592l.855.383-.442 1.003a1.769 1.769 0 011.975-.443l.265.148-.413.884-.147-.118a1.444 1.444 0 00-1.857.59l-.236.412-1.238 2.683-.943-.413 1.503-3.537z"/><path d="M55.592 10.022l-1.18-.531 1.592-3.596c.264-.514.49-1.046.678-1.592l1.061.501-.324.767a1.74 1.74 0 011.828-.207.766.766 0 01.265.148l-.501 1.09-.059-.353a1.385 1.385 0 00-1.71.56c-.08.12-.15.249-.206.383l-1.444 2.83zm-.855-.649l.737.324 1.208-2.594c.048-.153.128-.294.236-.412a1.562 1.562 0 012.034-.649h.236l.295-.648h-.177a1.562 1.562 0 00-1.828.412h-.236l.443-1.002-.649-.294c0 .412-.354.884-.648 1.503l-1.651 3.36zm5.866.207a1.828 1.828 0 00.59 2.712c.444.334.958.565 1.502.678l-.265.707a5.63 5.63 0 01-1.798-.796 2.653 2.653 0 01-.825-4.038 2.741 2.741 0 013.95-.973 2.417 2.417 0 01.56 3.537l-.295.384-3.42-2.211zm2.947 1.12a1.473 1.473 0 00-.324-2.181 1.71 1.71 0 00-2.21.324L63.55 10.7z"/><path d="M62.519 13.795a5.394 5.394 0 01-1.857-.825 2.948 2.948 0 01-1.386-1.917 2.771 2.771 0 01.442-2.21 3.095 3.095 0 011.857-1.415 2.682 2.682 0 012.24.413 2.475 2.475 0 01.59 3.684 1.297 1.297 0 01-.295.354l-3.478-2.152a1.738 1.738 0 00.62 2.476c.44.317.942.538 1.473.649l-.206.943zm-.266-6.22a2.24 2.24 0 00-.619 0 2.947 2.947 0 00-1.739 1.327 2.624 2.624 0 00-.471 2.034 2.681 2.681 0 001.267 1.739 5.17 5.17 0 001.68.766l.177-.472a3.98 3.98 0 01-1.415-.678 1.915 1.915 0 01-.619-2.947l3.478 2.446.236-.265a2.33 2.33 0 00-.53-3.39 2.623 2.623 0 00-1.445-.56zm1.386 3.302l-2.8-1.887a1.798 1.798 0 012.416-.471 1.533 1.533 0 01.708.972 1.828 1.828 0 01-.354 1.356l.03.03zm-2.447-2.034l2.388 1.591a1.71 1.71 0 00.236-1.12 1.326 1.326 0 00-.59-.825 1.562 1.562 0 00-2.034.354zm3.478 5.659c.135.478.389.914.737 1.268.56.56 1.061.53 1.386.206.324-.324.324-.767 0-1.504-.325-.736-.472-1.739 0-2.21a1.74 1.74 0 012.564.236c.373.332.648.76.796 1.238l-.708.353a2.269 2.269 0 00-.619-1.06.855.855 0 00-1.237 0c-.325.323-.207.736.147 1.473.353.737.5 1.68 0 2.27-.501.59-1.74.648-2.741-.325a3.214 3.214 0 01-.914-1.414l.59-.531z"/><path d="M66.527 17.214h-.177a2.948 2.948 0 01-1.503-.825 3.684 3.684 0 01-.943-1.474v-.177l.943-.413c.126.458.37.875.708 1.209.183.212.432.357.707.412a.708.708 0 00.53-.206c.266-.295.266-.648 0-1.356-.648-1.267-.353-1.975 0-2.358.298-.19.652-.273 1.003-.236a2.24 2.24 0 011.474.708c.378.357.662.802.825 1.297l-.914.471a2.3 2.3 0 00-.619-1.002c-.354-.383-.796-.442-1.061 0-.265.442-.206.56 0 1.327.206.766.501 1.798 0 2.417-.294.17-.635.243-.973.206zm-2.446-2.27c.168.47.428.9.766 1.268.39.4.895.667 1.445.766a1.416 1.416 0 001.15-.442c.5-.53.53-1.18 0-2.152-.531-.973-.502-1.15 0-1.591a1.002 1.002 0 011.414 0 2.7 2.7 0 01.619.972l.501-.236a2.947 2.947 0 00-.737-1.09 2.151 2.151 0 00-1.444-.649 1.414 1.414 0 00-1.12.442c-.56.56-.295 1.445 0 2.064.294.619.471 1.208 0 1.65a.883.883 0 01-.708.236 1.42 1.42 0 01-.855-.442 3.3 3.3 0 01-.707-1.179l-.324.383zm10.493-.442l.59.884-2.948 2.005c.357-.032.715.04 1.032.206a2.034 2.034 0 011.16 1.53 2.062 2.062 0 01-1.072 2.154l-2.594 2.034-.619-.884 2.624-1.798c.737-.53 1.15-1.267.59-2.063a1.504 1.504 0 00-1.68-.59.914.914 0 00-.413.206l-2.771 1.946-.678-.914 6.78-4.716z"/><path d="M70.742 23.58l-.737-1.06 2.683-1.887c.56-.383 1.12-1.061.53-1.886a1.416 1.416 0 00-1.503-.56 1.357 1.357 0 00-.413.206l-2.947 2.004-.56-1.208 6.78-4.775.766 1.06-2.683 1.887c.266.023.525.093.767.206.343.194.643.455.884.767a2.182 2.182 0 01-.796 3.213l-2.77 2.034zm-.442-1.002l.501.678 2.624-1.827a1.947 1.947 0 00.737-2.948 2.152 2.152 0 00-.855-.796 1.858 1.858 0 00-.973 0l2.77-1.945-.56-1.002-6.513 4.51.471.678 2.653-1.857c.148-.114.32-.195.501-.236a1.65 1.65 0 011.769.619c.53.766.294 1.591-.62 2.24L70.3 22.578zm2.948 6.043l4.51-1.65-.295-.767.737-.265.295.766h.235a2.505 2.505 0 012.064 0c.457.247.805.658.972 1.15.11.292.16.602.148.914h-.767a2.475 2.475 0 000-.678c-.324-.855-1.09-.796-1.916-.501h-.265l.472 1.326-.737.265-.472-1.326-4.539 1.621-.442-.855z"/><path d="M73.513 29.741l-.413-1.208 4.422-1.592-.295-.767.943-.353.295.766h.147a2.594 2.594 0 012.152 0c.49.266.859.709 1.032 1.238.05.313.05.631 0 .943l-1.032.177v-.147a1.652 1.652 0 000-.62c-.236-.677-.796-.825-1.739-.47h-.177l.472 1.355-.943.324-.472-1.326-4.392 1.68zm0-1.061l.177.796 4.51-1.621.5 1.326.502-.177-.472-1.326.383-.148c1.091-.383 1.77-.176 2.064.59a2.33 2.33 0 010 .59h.53a2.27 2.27 0 00-.147-.767 1.945 1.945 0 00-.914-1.12 2.416 2.416 0 00-1.975 0h-.353l-.266-.766-.53.177.295.795-4.304 1.651zm4.746 8.342a2.948 2.948 0 01-3.449-2.329 2.712 2.712 0 012.329-3.271 2.77 2.77 0 013.448 2.299 2.711 2.711 0 01-2.328 3.301zm-.885-4.598a1.946 1.946 0 00-1.798 2.151 1.918 1.918 0 002.447 1.356c.943-.176 2.034-.884 1.798-2.122a1.918 1.918 0 00-2.447-1.385z"/><path d="M77.58 37.199a2.948 2.948 0 01-2.947-2.476 2.742 2.742 0 01.413-2.21 2.946 2.946 0 011.975-1.21 2.948 2.948 0 012.387.443 3.213 3.213 0 011.209 1.975A2.948 2.948 0 0178.2 37.14a2.944 2.944 0 01-.62.059zm.237-5.748h-.649a2.948 2.948 0 00-1.857 1.15 2.741 2.741 0 00-.383 2.004 2.683 2.683 0 003.33 2.24 2.565 2.565 0 002.211-3.154 2.77 2.77 0 00-1.09-1.798 2.594 2.594 0 00-1.562-.442zm-.325 4.687a1.946 1.946 0 01-2.034-1.503 2.006 2.006 0 011.887-2.27 2.002 2.002 0 012.594 1.444 2.034 2.034 0 01-1.887 2.27l-.56.059zm0-3.567a1.798 1.798 0 00-1.68 2.005 1.83 1.83 0 002.329 1.267c.943-.177 1.886-.855 1.68-1.975-.206-1.12-1.297-1.474-2.329-1.297zm.767 12.291a2.77 2.77 0 01-2.948-2.947 2.71 2.71 0 012.948-2.712 2.948 2.948 0 012.947 2.948 2.741 2.741 0 01-2.947 2.711zm0-4.627a1.887 1.887 0 00-2.181 1.71 1.917 1.917 0 002.092 1.827c.944 0 2.182-.413 2.211-1.68.03-1.268-.973-1.828-2.034-1.857h-.088z"/><path d="M78.377 44.98a2.95 2.95 0 01-2.948-3.124c.01-.763.317-1.492.855-2.034a3.095 3.095 0 015.188 2.3 2.77 2.77 0 01-3.095 2.858zm0-.235a2.594 2.594 0 002.74-2.624 2.948 2.948 0 00-4.804-2.151 2.594 2.594 0 00-.796 1.916 2.652 2.652 0 002.771 2.947l.089-.088zm0-.855a2.36 2.36 0 01-1.74-.708 1.652 1.652 0 01-.471-1.238 1.74 1.74 0 01.678-1.355 2.505 2.505 0 011.621-.472 2.476 2.476 0 011.769.678c.318.356.487.82.471 1.297a1.65 1.65 0 01-.825 1.415 2.476 2.476 0 01-1.533.383h.03zm0-3.567a2.358 2.358 0 00-1.386.442 1.503 1.503 0 00-.177 2.27 2.123 2.123 0 001.592.62c.415-.005.82-.117 1.18-.325a1.562 1.562 0 00.294-2.358 2.328 2.328 0 00-1.592-.649h.089zm3.507 13.294l-6.573-1.65-1.415-.296.236-.943.973.206a2.182 2.182 0 01-.59-2.21 2.594 2.594 0 013.36-1.74 2.713 2.713 0 012.27 3.125 1.916 1.916 0 01-1.238 1.503l3.243.796-.266 1.209zm-4.48-2.24h.413a1.503 1.503 0 001.503-1.209c.265-1.061-.472-1.916-1.65-2.21a1.826 1.826 0 00-2.447 1.178 1.592 1.592 0 00.825 1.798.857.857 0 00.413.148l.943.295z"/><path d="M81.943 53.735l-6.661-1.65a12.495 12.495 0 00-1.386-.296l.266-1.149h.736a2.536 2.536 0 01-.383-2.093 2.741 2.741 0 013.508-1.827 3.331 3.331 0 012.063 1.415c.36.602.466 1.323.295 2.004a2.239 2.239 0 01-1.032 1.474l2.948.766-.354 1.356zm-7.9-2.152c.443 0 1.003.206 1.298.266l6.455 1.62.177-.825-3.213-.795v-.177a1.944 1.944 0 001.15-1.445 2.358 2.358 0 00-.266-1.827 2.948 2.948 0 00-1.916-1.297 2.476 2.476 0 00-3.213 1.65 2.093 2.093 0 00.53 2.093v.177l-.854-.177-.147.737zm3.744 0h-.413l-.943-.236-.442-.147a1.71 1.71 0 01-.855-1.945 1.739 1.739 0 01.767-1.091 2.299 2.299 0 011.798-.177c1.297.324 2.004 1.268 1.739 2.358a1.62 1.62 0 01-1.621 1.297l-.03-.059zm-.825-3.508a1.681 1.681 0 00-.943.236 1.416 1.416 0 00-.678.944 1.533 1.533 0 00.737 1.68l.412.147.943.236h.384a1.444 1.444 0 001.415-1.12c.235-.943-.413-1.769-1.592-2.063l-.678-.06z"/></g><defs><clipPath id="clip0"><path fill="#fff" d="M0 0h82.267v81H0z"/></clipPath></defs></svg>