<svg width="78" height="81" fill="none" xmlns="http://www.w3.org/2000/svg"><g style="mix-blend-mode:multiply" fill="#fff"><path d="M8.902 58.848L4.1 62.085l.707 1.096 4.8-3.237-.705-1.096zm1.126-.923a.749.749 0 00-.317.47.789.789 0 00.122.582c.067.115.16.21.272.278a.758.758 0 00.367.11.745.745 0 00.586-.335.79.79 0 00.1-.68.76.76 0 00-.804-.54.747.747 0 00-.326.115zm4.02 8.13a2.253 2.253 0 00-.613-1.54 2.311 2.311 0 00-.853-.61 2.258 2.258 0 00-1.027-.165l.488-.544-.802-.861-.083.094c-.28.322-.593.646-1.04 1.084l-2.994 2.928.888.95 2.48-2.429a1.352 1.352 0 011.197-.368c.284.053.545.196.746.408a1.156 1.156 0 01.361.835c-.05.449-.268.86-.61 1.144l-2.382 2.33.807.867.081.084 2.453-2.403c.26-.224.475-.498.63-.808a2.65 2.65 0 00.273-.995zm6.05 4.788a2.191 2.191 0 00-.341-.93 2.124 2.124 0 00-.71-.673 2.731 2.731 0 00-2.201-.332c-.37.103-.715.282-1.015.526-.3.244-.547.55-.728.896a3.037 3.037 0 00-.449 2.24c.07.329.203.64.392.915.188.275.429.51.706.688a2.255 2.255 0 001.865.35l-.155.248c-.1.23-.25.434-.439.595a1.549 1.549 0 01-2.027.002 3.211 3.211 0 01-1.146-1.277l-.061-.132-.824.667.039.084a3.985 3.985 0 001.414 1.513c.565.39 1.223.612 1.902.643.106 0 .21-.006.315-.02a3.22 3.22 0 001.265-.641 3.34 3.34 0 00.881-1.13l1.737-2.755c.393-.617.632-.97.853-1.258l.079-.101-.983-.648-.369.53zm-.846.969a1.105 1.105 0 01-.173.375l-.54.853a1.58 1.58 0 01-.336.386 1.378 1.378 0 01-1.653.065 1.462 1.462 0 01-.436-.406 1.504 1.504 0 01-.242-.552c-.086-.538.04-1.09.349-1.534a2.02 2.02 0 01.672-.74c.282-.185.604-.294.937-.318.29.002.575.09.817.256.262.161.463.408.573.7.11.293.121.615.032.915zm7.229 1.21a1.783 1.783 0 00-1.785.295l.265-.786-1.07-.434-.036.119c-.145.457-.325.964-.588 1.647l-1.4 3.61-.044.11 1.19.483 1.127-2.906a3 3 0 01.197-.411c.15-.295.402-.523.705-.64.304-.117.639-.116.941.005.107.038.21.087.308.145l.117.078.395-1.032.039-.097-.122-.066a1.644 1.644 0 00-.24-.119zm4.736 1.252a2.772 2.772 0 00-1.165.018 2.811 2.811 0 00-1.06.495 2.897 2.897 0 00-.778.891 2.977 2.977 0 00-.365 1.136 3.03 3.03 0 00.37 2.264c.234.33.53.61.87.822.34.212.717.352 1.11.412.37.075.744.114 1.12.115.302.003.603-.028.898-.092l.095-.022-.066-.993-.129.028a3.708 3.708 0 01-1.583-.029 1.66 1.66 0 01-.67-.213 1.708 1.708 0 01-.53-.473 1.763 1.763 0 01-.31-1.373l3.88.773.093.018.034-.09c.059-.156.103-.318.132-.484a3.31 3.31 0 00-.164-1.844 2.363 2.363 0 00-.722-.913 2.28 2.28 0 00-1.06-.446zm.79 2.593l-2.778-.551a1.63 1.63 0 01.54-.798c.254-.203.563-.322.885-.34.1 0 .2.01.3.031a1.258 1.258 0 01.863.54c.191.338.258.734.19 1.119v-.001zm9.434 2.322l-.22-6.826-.005-.118-1.268.046.1 3.175a2.189 2.189 0 00-.731-.462 2.142 2.142 0 00-.847-.138l-.103.002c-.345.01-.684.09-.999.237a2.602 2.602 0 00-.832.614 3.29 3.29 0 00-.622 1.11c-.134.41-.188.841-.159 1.271a2.83 2.83 0 00.158 1.081c.123.346.311.663.555.933.243.27.536.488.863.64a2.63 2.63 0 001.037.245c.029 0 .06 0 .092-.002.362.002.72-.084 1.043-.251a2.29 2.29 0 00.815-.713l.064.768 1.163-.038-.012-.124a25.207 25.207 0 01-.092-1.45zm-1.332-.451c-.07.33-.245.627-.498.842-.254.216-.57.338-.9.346l-.063.001c-1.132 0-1.57-1.027-1.597-1.918-.04-1.229.585-2.076 1.555-2.11l.059-.002c.311-.006.616.092.867.281a1.452 1.452 0 01.577 1.165l.032.98c.008.14-.002.28-.032.415zm4.073-4.398l1.226 5.744 1.254-.28-1.227-5.745-1.253.28zm.451-.843a.783.783 0 00.522-.348.74.74 0 00.09-.552.764.764 0 00-.331-.486.721.721 0 00-.571-.089.763.763 0 00-.598.91c.032.168.12.318.249.425.129.107.29.165.456.161a.878.878 0 00.183-.02v-.001zm9.275 2.516c-.383.382-.84.677-1.341.864a1.672 1.672 0 01-1.97-.281 1.754 1.754 0 01-.399-.595l3.663-1.529.083-.035-.015-.093a2.383 2.383 0 00-.15-.482c-.1-.343-.27-.66-.497-.931a2.465 2.465 0 00-.826-.64 2.405 2.405 0 00-2.021-.022c-.34.132-.65.332-.912.589a2.778 2.778 0 00-.615.907 3.359 3.359 0 00.066 2.52c.179.547.52 1.023.975 1.362a2.653 2.653 0 001.564.528c.448-.005.891-.1 1.305-.279a5.038 5.038 0 001.702-1.11l.07-.072-.59-.794-.092.093zM50.715 73.2c.18-.079.371-.12.566-.124.154-.001.306.03.447.094.34.174.61.468.76.828l-2.623 1.094a1.603 1.603 0 01.074-1.112c.157-.349.433-.626.776-.78zm6.612-4.867c-.29.2-.533.465-.71.774-.178.31-.286.656-.317 1.013l-.453-.576-.952.689.078.097c.305.373.578.754.895 1.213l2.386 3.461 1.046-.758-1.977-2.868a1.265 1.265 0 01-.193-.399 1.454 1.454 0 01.015-.867c.093-.28.27-.523.504-.696.825-.592 1.476-.036 1.876.544l1.902 2.755 1.046-.758-1.958-2.84a2.203 2.203 0 00-.587-.733 2.102 2.102 0 00-2.601-.05zm9.199-1.836a1.968 1.968 0 01-.356.474c-.322.354-.661.31-1.159-.177l-2.067-2.025 1.04-1.115-.714-.703-1.044 1.117-.985-.961-.566 1.11-.041.078.724.705-.622.665.72.701.62-.665 2.091 2.049c.36.424.863.694 1.408.755.223-.01.442-.067.644-.167.201-.1.381-.24.529-.412.23-.24.42-.517.566-.818l.037-.08-.759-.658-.066.127zm3.624-6.155c-.685-.473-1.407-.368-2.351.344-.69.502-.966.59-1.266.382a.57.57 0 01-.244-.379.97.97 0 01.188-.703c.224-.336.531-.603.89-.775l.127-.062-.602-.821-.083.039a2.961 2.961 0 00-1.124 1.044 2.4 2.4 0 00-.42 1.735c.04.212.12.414.236.595.115.18.265.336.44.457.612.417 1.382.275 2.292-.421.634-.479.959-.555 1.295-.326a.617.617 0 01.273.406c.03.304-.06.608-.246.845a2.99 2.99 0 01-1.061.927l-.125.064.624.832.086-.042a3.571 3.571 0 001.275-1.2 2.598 2.598 0 00.495-1.88 1.658 1.658 0 00-.244-.603 1.611 1.611 0 00-.455-.457v-.002zm-7.416-42.827l.82 1.01 2.353-1.992c.113-.099.235-.187.363-.264a1.297 1.297 0 011.744.254c.076.085.143.178.2.277l.063.128.837-.709.073-.071-.054-.088a2.011 2.011 0 00-.168-.248 1.806 1.806 0 00-.77-.547c-.3-.11-.622-.137-.935-.078l.6-.556-.731-.91-.088.086c-.34.331-.737.687-1.293 1.156l-2.927 2.477-.087.075zM21.852 9.932l.86-.375L23.94.417l.03-.204-.864.375-1.226 9.14-.027.204zm36.663 3.677c.265.236.58.407.919.5.34.093.695.105 1.04.036l-.418.596.895.76.071-.105c.227-.332.51-.708.922-1.22l2.549-3.16.073-.092-.988-.834-2.222 2.754c-.1.13-.224.237-.365.315a1.357 1.357 0 01-1.532-.162 1.054 1.054 0 01-.422-.731 1.97 1.97 0 01.563-1.34l2.01-2.496-.988-.833-2.127 2.638a2.764 2.764 0 00-.57.916 2.82 2.82 0 00-.18 1.072 2.08 2.08 0 00.77 1.386zm-4.37-3.05c.287.166.598.283.921.347l.085.015.42-.924-.139-.03a1.915 1.915 0 01-.539-.226.615.615 0 01-.33-.367 1.17 1.17 0 01.194-.825l1.37-2.576 1.327.738.473-.89-1.327-.738.654-1.224-1.28-.29-.478.898-.79-.439-.474.89.79.44-1.387 2.606a2.257 2.257 0 00-.344 1.587c.069.219.18.421.326.594.147.174.326.315.527.415zm16.452 11.885a4.301 4.301 0 00-2.212-2.206 1.74 1.74 0 00-1.388.185 1.66 1.66 0 00-.493.428 1.707 1.707 0 00-.295.59 2.043 2.043 0 00.232 1.52c.152.287.359.54.609.744.25.204.537.353.844.44l-.466.35.581 1.054.105-.085a8.733 8.733 0 011.097-.73l1.8-1.037a2.453 2.453 0 001.243-1.432 2.437 2.437 0 00-.32-1.82 4.107 4.107 0 00-1.403-1.514l-.081-.048-.624.734.127.07a2.84 2.84 0 011.058 1.107 1.28 1.28 0 01.19.956 1.165 1.165 0 01-.605.694zm-1.527.908a.966.966 0 01-.268.105 1.328 1.328 0 01-.809-.15 1.378 1.378 0 01-.576-.6.935.935 0 01-.115-.694.867.867 0 01.424-.505.884.884 0 01.449-.129c.08 0 .161.013.239.037.453.135.92.643 1.39 1.512l-.734.424zM27.622 4.636c-.56-1.349-1.575-1.899-2.656-1.431-.23.095-.438.236-.613.416a1.9 1.9 0 00-.406.628 2.724 2.724 0 00.12 2.047c.134.436.392.822.742 1.107.35.284.773.456 1.218.492a1.87 1.87 0 00.739-.16 1.8 1.8 0 00.598-.405 1.84 1.84 0 00.395-.614 2.77 2.77 0 00-.137-2.08zm-.773 1.91a.702.702 0 01-.385.394.697.697 0 01-.567-.004 1.893 1.893 0 01-.873-1.093V5.84a2.04 2.04 0 01-.15-1.442.671.671 0 01.36-.386.767.767 0 01.306-.068c.558 0 .938.695 1.129 1.158.233.44.297.956.18 1.443zM43.365.952A2.144 2.144 0 0041.92.194a2.289 2.289 0 00-1.033.108 2.337 2.337 0 00-.886.554l.022-.737L38.865 0l-.002.126c-.01.454-.04.907-.098 1.518l-.398 4.099-.011.116 1.275.13.339-3.496c.011-.15.048-.295.107-.431.11-.248.287-.458.508-.607a1.365 1.365 0 01.884-.227 1.123 1.123 0 01.813.397c.245.372.338.828.26 1.27l-.314 3.24-.012.116 1.275.129.334-3.46a2.655 2.655 0 00-.46-1.967zm5.746 7.062l1.12.378.023-.135a8.95 8.95 0 01.329-1.294l.644-2.007a2.514 2.514 0 00-.022-1.913 2.365 2.365 0 00-.61-.712 2.296 2.296 0 00-.831-.411 3.967 3.967 0 00-2.03-.15l-.092.02.025.975.139-.038a2.776 2.776 0 011.51.087 1.235 1.235 0 01.77.576 1.21 1.21 0 01.012.926 4.165 4.165 0 00-3.09-.1c-.214.11-.404.264-.558.451-.155.188-.27.406-.34.641a1.735 1.735 0 00.088 1.294c.124.232.29.437.492.602.2.165.432.287.68.36a2.307 2.307 0 001.855-.128l-.114.578zm-1.186-1.309a.887.887 0 01-.544-.436.863.863 0 01-.02-.66.89.89 0 01.445-.543 1.4 1.4 0 01.636-.129c.475.02.944.116 1.39.284l-.263.822a.974.974 0 01-.13.26c-.18.221-.422.378-.694.45a1.312 1.312 0 01-.82-.048zm28.883 18.431l-7.72 2.86-.108.041.437 1.233 7.72-2.86.108-.04-.437-1.234zM14.301 14.85c.546 0 1.073-.203 1.483-.572.26-.21.473-.472.63-.77a2.54 2.54 0 00.28-.964 4.803 4.803 0 00-1.368-3.274h-.003c-1.569-1.884-3.27-2.345-4.553-1.232a2.492 2.492 0 00-.614.777 2.554 2.554 0 00-.27.962 4.66 4.66 0 001.3 3.232c.365.514.83.944 1.367 1.26a4.334 4.334 0 001.748.581zm-2.936-5.98c.2-.183.46-.283.727-.282.775 0 1.63.796 2.275 1.576a3.992 3.992 0 011.198 2.53 1.108 1.108 0 01-.383.762c-.688.598-1.839.104-3.005-1.296a3.994 3.994 0 01-1.163-2.554 1.055 1.055 0 01.351-.736zM6.063 19.419a4.943 4.943 0 002.875 1.178 2.23 2.23 0 001.053-.236c.328-.164.612-.406.83-.706.208-.261.362-.564.453-.889a2.55 2.55 0 00.074-1 4.75 4.75 0 00-2.024-2.905c-1.93-1.506-3.688-1.583-4.705-.213a2.516 2.516 0 00-.438.89 2.556 2.556 0 00-.061.997 4.613 4.613 0 001.943 2.884zm-.69-4.089c.734-.99 2.148-.213 3.204.611.81.5 1.414 1.288 1.698 2.214a1.11 1.11 0 01-.215.828c-.549.734-1.775.503-3.207-.611a3.962 3.962 0 01-1.67-2.248 1.064 1.064 0 01.19-.794zm16.37-11.564c-.56-1.34-1.574-1.889-2.652-1.422-.23.095-.438.237-.613.416a1.9 1.9 0 00-.406.629 2.726 2.726 0 00.12 2.046c.134.435.392.818.74 1.101.348.283.77.453 1.213.488a1.85 1.85 0 00.74-.16c.225-.093.428-.23.6-.406.17-.175.305-.384.396-.613a2.768 2.768 0 00-.139-2.08zm-.771 1.908a.746.746 0 01-.398.398.708.708 0 01-.556-.008 1.885 1.885 0 01-.873-1.092V4.97a2.018 2.018 0 01-.147-1.432.677.677 0 01.361-.386.755.755 0 01.305-.065c.559 0 .94.694 1.13 1.156.23.437.294.948.177 1.432zM6.74 26.188l.105.049.524-1.156-6.828-3.244-.105-.05-.425.94-.012.025.07 1.98.006.095 1.007.181-.061-1.537 5.719 2.717z"/><g style="mix-blend-mode:multiply"><path d="M30.38 34.001c-.241.321-.485.641-.723.965a31.407 31.407 0 00-3.023 4.877 17.273 17.273 0 00-1.646 5.144c-.4 2.775.103 5.608 1.43 8.06.239.461.5.91.784 1.344.155.23.274.486.353.755.235.84.526 1.662.773 2.497.032.107.103.231-.001.323-.11.097-.213-.007-.306-.063a17.152 17.152 0 01-5.498-5.135 13.46 13.46 0 01-2.266-6.132 14.341 14.341 0 01.229-4.293 36.469 36.469 0 012.042-6.532c.896-2.26 1.903-4.47 2.819-6.722.619-1.522 2.072-4.785 1.982-7.303-.024-.686.359-.631.748-.381a77.472 77.472 0 017.19 5.852 33.322 33.322 0 014.959 5.676l.064.095a.368.368 0 01.08.357.365.365 0 01-.263.25c-.72.3-1.436.615-2.144.944a27.393 27.393 0 00-5.51 3.226 16.977 16.977 0 00-3.994 4.304 10.377 10.377 0 00-1 2.062c-.025.072-.032.199-.125.183-.09-.015-.061-.137-.063-.215-.01-1.75.28-3.49.857-5.137a26.204 26.204 0 012.139-4.678c.055-.098.105-.199.158-.297L30.38 34z"/><path d="M46.855 39.341a4.31 4.31 0 00-.78.071c-1.582.199-3.15.508-4.691.926a18.015 18.015 0 00-5.64 2.56 12.722 12.722 0 00-4.8 6.497 18.317 18.317 0 00-.819 3.871 27.324 27.324 0 00-.114 3.57c.009.445.044.888.063 1.332.003.077.031.182-.07.215a.23.23 0 01-.241-.098.463.463 0 01-.1-.187c-.334-1.084-.682-2.163-.997-3.254a18.115 18.115 0 01-.626-3.643 16.24 16.24 0 01.432-5.294 12.987 12.987 0 013.228-5.88 15.51 15.51 0 012.871-2.3 38.51 38.51 0 015.75-2.918c2.22-.947 4.483-1.785 6.7-2.739a25.858 25.858 0 004.333-2.244 8.58 8.58 0 001.535-1.3.948.948 0 01.29-.232.265.265 0 01.383.125c.06.117.098.244.114.375.286 1.582.564 3.165.766 4.761.148 1.176.266 2.356.346 3.54.073 1.074.123 2.15.11 3.225a29.794 29.794 0 01-.823 7.063 18.285 18.285 0 01-2.391 5.606 14.316 14.316 0 01-5.1 4.69 19.535 19.535 0 01-6.3 2.126c-.917.154-1.84.258-2.768.312a28.14 28.14 0 01-1.882.06 1.266 1.266 0 01-.86-.222 1.325 1.325 0 01-.517-.74 11.472 11.472 0 01-.698-3.122 14.699 14.699 0 01.663-5.79 14.43 14.43 0 012.852-5.04 17.251 17.251 0 017.21-5.04 20.84 20.84 0 012.285-.74c.078-.021.154-.05.23-.078.012-.005.02-.023.056-.064z"/></g><path d="M37.543 15.088a24.158 24.158 0 0113.648 4.305c4.035 2.788 7.175 6.742 9.023 11.362a25.907 25.907 0 011.363 14.594c-.96 4.897-3.311 9.391-6.757 12.916-3.445 3.525-7.83 5.923-12.602 6.89a24.012 24.012 0 01-14.207-1.454c-4.492-1.916-8.33-5.155-11.03-9.31a25.76 25.76 0 01-4.141-14.03c.02-6.713 2.631-13.144 7.262-17.882 4.631-4.738 10.904-7.396 17.44-7.391zm0-4.225a28.196 28.196 0 00-15.93 5.025c-4.71 3.254-8.374 7.869-10.532 13.261a30.238 30.238 0 00-1.59 17.034c1.12 5.715 3.865 10.96 7.886 15.075 4.022 4.114 9.14 6.913 14.71 8.042a28.014 28.014 0 0016.58-1.697c5.243-2.236 9.723-6.017 12.875-10.866a30.066 30.066 0 004.833-16.376c-.014-7.838-3.06-15.35-8.467-20.881-5.407-5.532-12.733-8.632-20.365-8.617z"/></g><path d="M8.902 58.848L4.1 62.085l.707 1.096 4.8-3.237-.705-1.096zm1.126-.923a.749.749 0 00-.317.47.789.789 0 00.122.582c.067.115.16.21.272.278a.758.758 0 00.367.11.745.745 0 00.586-.335.79.79 0 00.1-.68.76.76 0 00-.804-.54.747.747 0 00-.326.115zm4.02 8.13a2.253 2.253 0 00-.613-1.54 2.311 2.311 0 00-.853-.61 2.258 2.258 0 00-1.027-.165l.488-.544-.802-.861-.083.094c-.28.322-.593.646-1.04 1.084l-2.994 2.928.888.95 2.48-2.429a1.352 1.352 0 011.197-.368c.284.053.545.196.746.408a1.156 1.156 0 01.361.835c-.05.449-.268.86-.61 1.144l-2.382 2.33.807.867.081.084 2.453-2.403c.26-.224.475-.498.63-.808a2.65 2.65 0 00.273-.995zm6.05 4.788a2.191 2.191 0 00-.341-.93 2.124 2.124 0 00-.71-.673 2.731 2.731 0 00-2.201-.332c-.37.103-.715.282-1.015.526-.3.244-.547.55-.728.896a3.037 3.037 0 00-.449 2.24c.07.329.203.64.392.915.188.275.429.51.706.688a2.255 2.255 0 001.865.35l-.155.248c-.1.23-.25.434-.439.595a1.549 1.549 0 01-2.027.002 3.211 3.211 0 01-1.146-1.277l-.061-.132-.824.667.039.084a3.985 3.985 0 001.414 1.513c.565.39 1.223.612 1.902.643.106 0 .21-.006.315-.02a3.22 3.22 0 001.265-.641 3.34 3.34 0 00.881-1.13l1.737-2.755c.393-.617.632-.97.853-1.258l.079-.101-.983-.648-.369.53zm-.846.969a1.105 1.105 0 01-.173.375l-.54.853a1.58 1.58 0 01-.336.386 1.378 1.378 0 01-1.653.065 1.462 1.462 0 01-.436-.406 1.504 1.504 0 01-.242-.552c-.086-.538.04-1.09.349-1.534a2.02 2.02 0 01.672-.74c.282-.185.604-.294.937-.318.29.002.575.09.817.256.262.161.463.408.573.7.11.293.121.615.032.915zm7.229 1.21a1.783 1.783 0 00-1.785.295l.265-.786-1.07-.434-.036.119c-.145.457-.325.964-.588 1.647l-1.4 3.61-.044.11 1.19.483 1.127-2.906a3 3 0 01.197-.411c.15-.295.402-.523.705-.64.304-.117.639-.116.941.005.107.038.21.087.308.145l.117.078.395-1.032.039-.097-.122-.066a1.644 1.644 0 00-.24-.119zm4.736 1.252a2.772 2.772 0 00-1.165.018 2.811 2.811 0 00-1.06.495 2.897 2.897 0 00-.778.891 2.977 2.977 0 00-.365 1.136 3.03 3.03 0 00.37 2.264c.234.33.53.61.87.822.34.212.717.352 1.11.412.37.075.744.114 1.12.115.302.003.603-.028.898-.092l.095-.022-.066-.993-.129.028a3.708 3.708 0 01-1.583-.029 1.66 1.66 0 01-.67-.213 1.708 1.708 0 01-.53-.473 1.763 1.763 0 01-.31-1.373l3.88.773.093.018.034-.09c.059-.156.103-.318.132-.484a3.31 3.31 0 00-.164-1.844 2.363 2.363 0 00-.722-.913 2.28 2.28 0 00-1.06-.446zm.79 2.593l-2.778-.551a1.63 1.63 0 01.54-.798c.254-.203.563-.322.885-.34.1 0 .2.01.3.031a1.258 1.258 0 01.863.54c.191.338.258.734.19 1.119v-.001zm9.434 2.322l-.22-6.826-.005-.118-1.268.046.1 3.175a2.189 2.189 0 00-.731-.462 2.142 2.142 0 00-.847-.138l-.103.002c-.345.01-.684.09-.999.237a2.602 2.602 0 00-.832.614 3.29 3.29 0 00-.622 1.11c-.134.41-.188.841-.159 1.271a2.83 2.83 0 00.158 1.081c.123.346.311.663.555.933.243.27.536.488.863.64a2.63 2.63 0 001.037.245c.029 0 .06 0 .092-.002.362.002.72-.084 1.043-.251a2.29 2.29 0 00.815-.713l.064.768 1.163-.038-.012-.124a25.207 25.207 0 01-.092-1.45zm-1.332-.451c-.07.33-.245.627-.498.842-.254.216-.57.338-.9.346l-.063.001c-1.132 0-1.57-1.027-1.597-1.918-.04-1.229.585-2.076 1.555-2.11l.059-.002c.311-.006.616.092.867.281a1.452 1.452 0 01.577 1.165l.032.98c.008.14-.002.28-.032.415zm4.073-4.398l1.226 5.744 1.254-.28-1.227-5.745-1.253.28zm.451-.843a.783.783 0 00.522-.348.74.74 0 00.09-.552.764.764 0 00-.331-.486.721.721 0 00-.571-.089.763.763 0 00-.598.91c.032.168.12.318.249.425.129.107.29.165.456.161a.878.878 0 00.183-.02v-.001zm9.275 2.516c-.383.382-.84.677-1.341.864a1.672 1.672 0 01-1.97-.281 1.754 1.754 0 01-.399-.595l3.663-1.529.083-.035-.015-.093a2.383 2.383 0 00-.15-.482c-.1-.343-.27-.66-.497-.931a2.465 2.465 0 00-.826-.64 2.405 2.405 0 00-2.021-.022c-.34.132-.65.332-.912.589a2.778 2.778 0 00-.615.907 3.359 3.359 0 00.066 2.52c.179.547.52 1.023.975 1.362a2.653 2.653 0 001.564.528c.448-.005.891-.1 1.305-.279a5.038 5.038 0 001.702-1.11l.07-.072-.59-.794-.092.093zM50.715 73.2c.18-.079.371-.12.566-.124.154-.001.306.03.447.094.34.174.61.468.76.828l-2.623 1.094a1.603 1.603 0 01.074-1.112c.157-.349.433-.626.776-.78zm6.612-4.867c-.29.2-.533.465-.71.774-.178.31-.286.656-.317 1.013l-.453-.576-.952.689.078.097c.305.373.578.754.895 1.213l2.386 3.461 1.046-.758-1.977-2.868a1.265 1.265 0 01-.193-.399 1.454 1.454 0 01.015-.867c.093-.28.27-.523.504-.696.825-.592 1.476-.036 1.876.544l1.902 2.755 1.046-.758-1.958-2.84a2.203 2.203 0 00-.587-.733 2.102 2.102 0 00-2.601-.05zm9.199-1.836a1.968 1.968 0 01-.356.474c-.322.354-.661.31-1.159-.177l-2.067-2.025 1.04-1.115-.714-.703-1.044 1.117-.985-.961-.566 1.11-.041.078.724.705-.622.665.72.701.62-.665 2.091 2.049c.36.424.863.694 1.408.755.223-.01.442-.067.644-.167.201-.1.381-.24.529-.412.23-.24.42-.517.566-.818l.037-.08-.759-.658-.066.127zm3.624-6.155c-.685-.473-1.407-.368-2.351.344-.69.502-.966.59-1.266.382a.57.57 0 01-.244-.379.97.97 0 01.188-.703c.224-.336.531-.603.89-.775l.127-.062-.602-.821-.083.039a2.961 2.961 0 00-1.124 1.044 2.4 2.4 0 00-.42 1.735c.04.212.12.414.236.595.115.18.265.336.44.457.612.417 1.382.275 2.292-.421.634-.479.959-.555 1.295-.326a.617.617 0 01.273.406c.03.304-.06.608-.246.845a2.99 2.99 0 01-1.061.927l-.125.064.624.832.086-.042a3.571 3.571 0 001.275-1.2 2.598 2.598 0 00.495-1.88 1.658 1.658 0 00-.244-.603 1.611 1.611 0 00-.455-.457v-.002zm-7.416-42.827l.82 1.01 2.353-1.992c.113-.099.235-.187.363-.264a1.297 1.297 0 011.744.254c.076.085.143.178.2.277l.063.128.837-.709.073-.071-.054-.088a2.011 2.011 0 00-.168-.248 1.806 1.806 0 00-.77-.547c-.3-.11-.622-.137-.935-.078l.6-.556-.731-.91-.088.086c-.34.331-.737.687-1.293 1.156l-2.927 2.477-.087.075zM21.852 9.932l.86-.375L23.94.417l.03-.204-.864.375-1.226 9.14-.027.204zm36.663 3.677c.265.236.58.407.919.5.34.093.695.105 1.04.036l-.418.596.895.76.071-.105c.227-.332.51-.708.922-1.22l2.549-3.16.073-.092-.988-.834-2.222 2.754c-.1.13-.224.237-.365.315a1.357 1.357 0 01-1.532-.162 1.054 1.054 0 01-.422-.731 1.97 1.97 0 01.563-1.34l2.01-2.496-.988-.833-2.127 2.638a2.764 2.764 0 00-.57.916 2.82 2.82 0 00-.18 1.072 2.08 2.08 0 00.77 1.386zm-4.37-3.05c.287.166.598.283.921.347l.085.015.42-.924-.139-.03a1.915 1.915 0 01-.539-.226.615.615 0 01-.33-.367 1.17 1.17 0 01.194-.825l1.37-2.576 1.327.738.473-.89-1.327-.738.654-1.224-1.28-.29-.478.898-.79-.439-.474.89.79.44-1.387 2.606a2.257 2.257 0 00-.344 1.587c.069.219.18.421.326.594.147.174.326.315.527.415zm16.452 11.885a4.301 4.301 0 00-2.212-2.206 1.74 1.74 0 00-1.388.185 1.66 1.66 0 00-.493.428 1.707 1.707 0 00-.295.59 2.043 2.043 0 00.232 1.52c.152.287.359.54.609.744.25.204.537.353.844.44l-.466.35.581 1.054.105-.085a8.733 8.733 0 011.097-.73l1.8-1.037a2.453 2.453 0 001.243-1.432 2.437 2.437 0 00-.32-1.82 4.107 4.107 0 00-1.403-1.514l-.081-.048-.624.734.127.07a2.84 2.84 0 011.058 1.107 1.28 1.28 0 01.19.956 1.165 1.165 0 01-.605.694zm-1.527.908a.966.966 0 01-.268.105 1.328 1.328 0 01-.809-.15 1.378 1.378 0 01-.576-.6.935.935 0 01-.115-.694.867.867 0 01.424-.505.884.884 0 01.449-.129c.08 0 .161.013.239.037.453.135.92.643 1.39 1.512l-.734.424zM27.622 4.636c-.56-1.349-1.575-1.899-2.656-1.431-.23.095-.438.236-.613.416a1.9 1.9 0 00-.406.628 2.724 2.724 0 00.12 2.047c.134.436.392.822.742 1.107.35.284.773.456 1.218.492a1.87 1.87 0 00.739-.16 1.8 1.8 0 00.598-.405 1.84 1.84 0 00.395-.614 2.77 2.77 0 00-.137-2.08zm-.773 1.91a.702.702 0 01-.385.394.697.697 0 01-.567-.004 1.893 1.893 0 01-.873-1.093V5.84a2.04 2.04 0 01-.15-1.442.671.671 0 01.36-.386.767.767 0 01.306-.068c.558 0 .938.695 1.129 1.158.233.44.297.956.18 1.443zM43.365.952A2.144 2.144 0 0041.92.194a2.289 2.289 0 00-1.033.108 2.337 2.337 0 00-.886.554l.022-.737L38.865 0l-.002.126c-.01.454-.04.907-.098 1.518l-.398 4.099-.011.116 1.275.13.339-3.496c.011-.15.048-.295.107-.431.11-.248.287-.458.508-.607a1.365 1.365 0 01.884-.227 1.123 1.123 0 01.813.397c.245.372.338.828.26 1.27l-.314 3.24-.012.116 1.275.129.334-3.46a2.655 2.655 0 00-.46-1.967zm5.746 7.062l1.12.378.023-.135a8.95 8.95 0 01.329-1.294l.644-2.007a2.514 2.514 0 00-.022-1.913 2.365 2.365 0 00-.61-.712 2.296 2.296 0 00-.831-.411 3.967 3.967 0 00-2.03-.15l-.092.02.025.975.139-.038a2.776 2.776 0 011.51.087 1.235 1.235 0 01.77.576 1.21 1.21 0 01.012.926 4.165 4.165 0 00-3.09-.1c-.214.11-.404.264-.558.451-.155.188-.27.406-.34.641a1.735 1.735 0 00.088 1.294c.124.232.29.437.492.602.2.165.432.287.68.36a2.307 2.307 0 001.855-.128l-.114.578zm-1.186-1.309a.887.887 0 01-.544-.436.863.863 0 01-.02-.66.89.89 0 01.445-.543 1.4 1.4 0 01.636-.129c.475.02.944.116 1.39.284l-.263.822a.974.974 0 01-.13.26c-.18.221-.422.378-.694.45a1.312 1.312 0 01-.82-.048zm28.883 18.431l-7.72 2.86-.108.041.437 1.233 7.72-2.86.108-.04-.437-1.234zM14.301 14.85c.546 0 1.073-.203 1.483-.572.26-.21.473-.472.63-.77a2.54 2.54 0 00.28-.964 4.803 4.803 0 00-1.368-3.274h-.003c-1.569-1.884-3.27-2.345-4.553-1.232a2.492 2.492 0 00-.614.777 2.554 2.554 0 00-.27.962 4.66 4.66 0 001.3 3.232c.365.514.83.944 1.367 1.26a4.334 4.334 0 001.748.581zm-2.936-5.98c.2-.183.46-.283.727-.282.775 0 1.63.796 2.275 1.576a3.992 3.992 0 011.198 2.53 1.108 1.108 0 01-.383.762c-.688.598-1.839.104-3.005-1.296a3.994 3.994 0 01-1.163-2.554 1.055 1.055 0 01.351-.736zM6.063 19.419a4.943 4.943 0 002.875 1.178 2.23 2.23 0 001.053-.236c.328-.164.612-.406.83-.706.208-.261.362-.564.453-.889a2.55 2.55 0 00.074-1 4.75 4.75 0 00-2.024-2.905c-1.93-1.506-3.688-1.583-4.705-.213a2.516 2.516 0 00-.438.89 2.556 2.556 0 00-.061.997 4.613 4.613 0 001.943 2.884zm-.69-4.089c.734-.99 2.148-.213 3.204.611.81.5 1.414 1.288 1.698 2.214a1.11 1.11 0 01-.215.828c-.549.734-1.775.503-3.207-.611a3.962 3.962 0 01-1.67-2.248 1.064 1.064 0 01.19-.794zm16.37-11.564c-.56-1.34-1.574-1.889-2.652-1.422-.23.095-.438.237-.613.416a1.9 1.9 0 00-.406.629 2.726 2.726 0 00.12 2.046c.134.435.392.818.74 1.101.348.283.77.453 1.213.488a1.85 1.85 0 00.74-.16c.225-.093.428-.23.6-.406.17-.175.305-.384.396-.613a2.768 2.768 0 00-.139-2.08zm-.771 1.908a.746.746 0 01-.398.398.708.708 0 01-.556-.008 1.885 1.885 0 01-.873-1.092V4.97a2.018 2.018 0 01-.147-1.432.677.677 0 01.361-.386.755.755 0 01.305-.065c.559 0 .94.694 1.13 1.156.23.437.294.948.177 1.432zM6.74 26.188l.105.049.524-1.156-6.828-3.244-.105-.05-.425.94-.012.025.07 1.98.006.095 1.007.181-.061-1.537 5.719 2.717zm23.64 7.813c-.241.321-.485.641-.723.965a31.407 31.407 0 00-3.023 4.877 17.273 17.273 0 00-1.646 5.144c-.4 2.775.103 5.608 1.43 8.06.239.461.5.91.784 1.344.155.23.274.486.353.755.235.84.526 1.662.773 2.497.032.107.103.231-.001.323-.11.097-.213-.007-.306-.063a17.152 17.152 0 01-5.498-5.135 13.46 13.46 0 01-2.266-6.132 14.341 14.341 0 01.229-4.293 36.469 36.469 0 012.042-6.532c.896-2.26 1.903-4.47 2.819-6.722.619-1.522 2.072-4.785 1.982-7.303-.024-.686.359-.631.748-.381a77.472 77.472 0 017.19 5.852 33.322 33.322 0 014.959 5.676l.064.095a.368.368 0 01.08.357.365.365 0 01-.263.25c-.72.3-1.436.615-2.144.944a27.393 27.393 0 00-5.51 3.226 16.977 16.977 0 00-3.994 4.304 10.377 10.377 0 00-1 2.062c-.025.072-.032.199-.125.183-.09-.015-.061-.137-.063-.215-.01-1.75.28-3.49.857-5.137a26.204 26.204 0 012.139-4.678c.055-.098.105-.199.158-.297L30.38 34z" fill="#fff"/><path d="M46.855 39.341a4.31 4.31 0 00-.78.071c-1.582.199-3.15.508-4.691.926a18.015 18.015 0 00-5.64 2.56 12.722 12.722 0 00-4.8 6.497 18.317 18.317 0 00-.819 3.871 27.36 27.36 0 00-.114 3.57c.009.445.044.888.063 1.332.003.077.031.182-.07.215a.23.23 0 01-.241-.098.463.463 0 01-.1-.187c-.334-1.084-.682-2.163-.997-3.254a18.115 18.115 0 01-.626-3.643 16.24 16.24 0 01.432-5.294 12.988 12.988 0 013.228-5.88 15.55 15.55 0 012.871-2.3 38.5 38.5 0 015.75-2.918c2.22-.947 4.483-1.785 6.7-2.739a25.82 25.82 0 004.333-2.244 8.583 8.583 0 001.535-1.3.946.946 0 01.29-.232.266.266 0 01.383.125c.06.117.098.244.114.375.286 1.582.564 3.165.766 4.761.148 1.176.267 2.356.346 3.54.073 1.074.123 2.15.11 3.225a29.794 29.794 0 01-.823 7.063 18.282 18.282 0 01-2.391 5.606 14.316 14.316 0 01-5.1 4.69 19.537 19.537 0 01-6.3 2.126c-.917.154-1.84.258-2.768.312a28.35 28.35 0 01-1.882.06 1.266 1.266 0 01-.86-.222 1.325 1.325 0 01-.517-.74 11.472 11.472 0 01-.698-3.122 14.697 14.697 0 01.663-5.79 14.428 14.428 0 012.852-5.04 17.25 17.25 0 017.21-5.04 21.03 21.03 0 012.285-.74c.078-.021.154-.05.23-.078.012-.005.02-.023.056-.064z" fill="#fff"/><path d="M37.543 15.088a24.158 24.158 0 0113.648 4.305c4.035 2.788 7.175 6.742 9.023 11.362a25.907 25.907 0 011.363 14.594c-.96 4.897-3.311 9.391-6.757 12.916-3.445 3.525-7.83 5.923-12.602 6.89a24.012 24.012 0 01-14.207-1.454c-4.492-1.916-8.33-5.155-11.03-9.31a25.76 25.76 0 01-4.141-14.03c.02-6.713 2.631-13.144 7.262-17.882 4.631-4.738 10.904-7.396 17.44-7.391zm0-4.225a28.196 28.196 0 00-15.93 5.025c-4.71 3.254-8.374 7.869-10.532 13.261a30.238 30.238 0 00-1.59 17.034c1.12 5.715 3.865 10.96 7.886 15.075 4.022 4.114 9.14 6.913 14.71 8.042a28.014 28.014 0 0016.58-1.697c5.243-2.236 9.723-6.017 12.875-10.866a30.066 30.066 0 004.833-16.376c-.014-7.838-3.06-15.35-8.467-20.881-5.407-5.532-12.733-8.632-20.365-8.617z" fill="#fff"/></svg>