<svg width="76" height="81" fill="none" xmlns="http://www.w3.org/2000/svg"><g clip-path="url(#clip0)" fill="#fff"><path d="M3.779 45.754c.546-.117.972-.22 1.393-.345l.174.86-.845.239.004.022c.336.112.637.317.87.591.232.274.388.608.45.967.15.738-.047 1.977-1.824 2.358l-3.083.662-.196-.971 2.987-.64c.835-.18 1.466-.65 1.281-1.565a1.44 1.44 0 00-.442-.75 1.37 1.37 0 00-.784-.345 1.366 1.366 0 00-.453.029l-3.115.669-.196-.97 3.779-.811zM6.208 57.57a2.537 2.537 0 01-2.104.154 2.584 2.584 0 01-.915-.588 2.678 2.678 0 01-.604-.92 2.666 2.666 0 01.002-2.096c.14-.33.347-.625.606-.869.258-.243.563-.428.895-.544a2.53 2.53 0 012.094-.15c.34.126.65.325.911.584.26.258.466.57.602.915a2.645 2.645 0 01.016 2.098 2.58 2.58 0 01-.606.873 2.489 2.489 0 01-.897.543zm-1.702-3.944c-.233.065-.45.179-.64.333-.19.154-.347.346-.463.564a1.89 1.89 0 00-.137 1.44c.12.22.28.411.472.565a1.766 1.766 0 002.051.123c.231-.066.447-.179.635-.332.188-.154.344-.345.459-.561a1.887 1.887 0 00.14-1.43 1.833 1.833 0 00-.464-.574 1.74 1.74 0 00-2.053-.128zM6.99 63.993l3.523-2.982-.465-.583.566-.479.465.584.178-.151c.252-.235.552-.41.877-.514a2.286 2.286 0 011.006-.088 2.521 2.521 0 011.497 1.007c.357.43.61.94.735 1.492l-5.821 4.927-.611-.767 5.408-4.577a1.786 1.786 0 00-.39-.719c-.632-.793-1.413-.583-2.064-.032l-.212.178.785.984-.566.48-.784-.985-3.524 2.983-.603-.758zm4.572 5.242l3.579-4.013.708.67-3.579 4.014-.708-.67zm5.373-4.394a.576.576 0 01-.42.204.558.558 0 01-.43-.183.583.583 0 01-.193-.42.599.599 0 01.166-.432.586.586 0 01.418-.207.569.569 0 01.432.17.59.59 0 01.196.428.611.611 0 01-.169.44zm-.502 3.96c.38-.579.668-1.058.93-1.5l.708.492-.463.807.018.012a2.007 2.007 0 012.129.218c.262.204.48.46.642.755a2.52 2.52 0 01.2 1.956 2.52 2.52 0 01-.476.877 2.578 2.578 0 01-.65.842 2.5 2.5 0 01-.925.498 2.441 2.441 0 01-2.021-.308 1.89 1.89 0 01-.654-.705 1.958 1.958 0 01-.231-.945l-.018-.012-1.612 2.455-.788-.549 3.21-4.893zm-.002 1.754a1.553 1.553 0 00-.251 1.16c.035.202.11.394.218.565.109.17.25.317.414.432.842.586 1.798.217 2.478-.82.158-.18.279-.39.354-.62a1.82 1.82 0 00-.114-1.407 1.761 1.761 0 00-.449-.553 1.482 1.482 0 00-1.867.17 1.6 1.6 0 00-.269.288l-.514.785zm10.757.731l-.424 1.232 1.298.475-.245.71-1.298-.475L25.564 76c-.22.637-.169 1.061.337 1.246.175.073.36.116.547.129l-.204.726a2.531 2.531 0 01-.847-.167 1.36 1.36 0 01-.5-.282 1.41 1.41 0 01-.345-.468 2.19 2.19 0 01.115-1.476l.965-2.803-.772-.283.244-.711.774.283.328-.956.982.048zm2.81-.332l.948.173-.578 3.363.021.004a1.81 1.81 0 01.8-.575 1.918 1.918 0 011.015-.09c.7.128 1.744.776 1.427 2.619l-.55 3.196-.948-.174.53-3.085c.15-.866-.039-1.644-.932-1.807a1.363 1.363 0 00-.831.133c-.258.132-.47.341-.607.6a1.297 1.297 0 00-.145.455l-.557 3.24-.948-.173 1.355-7.88zm6.562 6.362a1.79 1.79 0 00.503 1.373 1.653 1.653 0 001.342.489 3.356 3.356 0 001.46-.305l.186.706a4.191 4.191 0 01-1.766.379 2.4 2.4 0 01-1.04-.151 2.459 2.459 0 01-.886-.584 2.55 2.55 0 01-.569-.91 2.61 2.61 0 01-.149-1.072 2.714 2.714 0 01.084-1.082c.1-.35.27-.676.5-.955a2.52 2.52 0 011.853-.932c.311-.002.62.064.906.194.285.129.541.319.75.556.21.238.37.518.468.823.098.305.132.628.102.948.005.154-.004.31-.027.462l-3.716.06zm2.81-.756a1.448 1.448 0 00-.334-1.104 1.37 1.37 0 00-.463-.35 1.33 1.33 0 00-.561-.123 1.558 1.558 0 00-1.035.519 1.65 1.65 0 00-.416 1.105l2.81-.047zm5.88-1.21c-.197-.667-.376-1.2-.542-1.69l.816-.254.315.879.021-.007c.088-.378.275-.723.54-.999.266-.275.6-.47.966-.564a2.326 2.326 0 011.88.329c.276.185.51.426.691.708.18.282.303.6.36.933a2.652 2.652 0 01-.591 2.978c-.26.245-.566.43-.9.546a1.806 1.806 0 01-1.799-.334l-.021.006.831 2.836-.91.283-1.658-5.65zm1.318 1.108a1.508 1.508 0 00.716.932 1.455 1.455 0 001.147.123c.973-.303 1.298-1.298.947-2.495-.304-1.035-1.1-1.764-2.074-1.46a1.518 1.518 0 00-.793.611c-.19.29-.28.637-.257.986 0 .134.016.267.048.397l.266.906zm5.22-3.554a26.021 26.021 0 00-.771-1.504l.754-.385.504.949.03-.015a1.694 1.694 0 01.13-1.007 1.63 1.63 0 01.678-.737 2.24 2.24 0 01.245-.099l.403.838a1.467 1.467 0 00-.304.129c-.29.16-.51.423-.624.74-.113.317-.11.666.01.98.046.147.102.29.17.429l1.25 2.604-.863.44-1.612-3.362zm8.17-4.042c.234.285.408.619.51.978a2.748 2.748 0 01-.287 2.152 2.633 2.633 0 01-.746.801c-.284.212-.607.36-.95.435a2.45 2.45 0 01-1.99-.423 2.569 2.569 0 01-.704-.787 2.69 2.69 0 01-.505-.975 2.74 2.74 0 01.284-2.142c.19-.317.443-.589.741-.799.282-.215.604-.368.947-.446a2.429 2.429 0 011.04-.011c.345.072.67.217.956.427.286.21.526.478.704.79zm-3.384 2.542a1.8 1.8 0 001.083.922 1.743 1.743 0 001.396-.165 1.87 1.87 0 00.436-.594 1.922 1.922 0 00-.315-2.091 1.7 1.7 0 00-.425-.622 1.635 1.635 0 00-.645-.368 1.6 1.6 0 00-1.418.254c-.202.15-.368.345-.487.57a1.737 1.737 0 00.375 2.094zm4.438-11.053l4.662 4.514c.343.33.749.692 1.026.931l-.584.64-.699-.615-.022.023c.123.355.145.74.063 1.107a1.986 1.986 0 01-.527.966 2.412 2.412 0 01-.83.534 2.356 2.356 0 01-1.916-.103 2.43 2.43 0 01-.772-.621 2.578 2.578 0 01-.688-.788 2.68 2.68 0 01-.24-2.06c.1-.342.266-.66.49-.933.2-.249.46-.439.754-.55a1.72 1.72 0 01.92-.086l.016-.016-2.304-2.23.651-.713zm2.72 3.977a1.713 1.713 0 00-.325-.252 1.382 1.382 0 00-1.756.263c-.681.747-.448 1.808.397 2.626a1.7 1.7 0 00.533.466 1.656 1.656 0 001.964-.26 1.536 1.536 0 00.13-1.869 1.788 1.788 0 00-.274-.326l-.67-.648zm5.921-5.72c.474.302.889.553 1.26.75l-.448.747-.764-.42-.012.019a2.088 2.088 0 01-.083 2.067c-.437.729-1.36 1.346-2.933.344l-2.633-1.677.506-.843 2.484 1.582c.856.545 1.608.641 2.063-.116a1.46 1.46 0 00-.086-1.592 1.32 1.32 0 00-.373-.343L65.88 57.37l.507-.843 3.266 2.08zm3.743-5.708a3.941 3.941 0 01-.268 1.572c-.113.35-.297.67-.539.94-.242.27-.537.484-.866.627a2.45 2.45 0 01-2.07-.05 2.682 2.682 0 01-.964-.588 2.78 2.78 0 01-.649-.94 2.854 2.854 0 01.02-2.258 3.12 3.12 0 01.75-1.174l.603.485a2.429 2.429 0 00-.64.976 1.94 1.94 0 00.04 1.545 1.861 1.861 0 001.144.999 1.772 1.772 0 002.106-.364 1.88 1.88 0 00.405-.657c.153-.39.22-.808.196-1.227l.732.113zm-5.312-5.112l1.237.287.302-1.385.713.165-.3 1.384 2.783.642c.64.148 1.043.045 1.16-.493.049-.188.069-.382.059-.576l.724.121c.028.297.008.597-.059.887-.033.194-.105.38-.212.544a1.392 1.392 0 01-.41.409 2.013 2.013 0 01-1.435.06l-2.816-.649-.18.824-.714-.165.18-.824-.96-.22-.072-1.01zM2.089 32.663c-.536-.16-.959-.274-1.389-.368l.238-.844.856.198.006-.023a2.038 2.038 0 01-.499-.942 2.078 2.078 0 01.04-1.072c.204-.725.94-1.725 2.684-1.205l3.026.904-.268.952-2.931-.875c-.82-.245-1.59-.135-1.843.764-.073.29-.056.597.05.877.104.28.292.518.536.682.127.087.266.153.413.194l3.057.912-.268.952-3.708-1.106zm5.467-10.758c.335.144.638.359.887.63.25.272.441.595.562.948a2.745 2.745 0 01-.168 2.165c-.159.321-.38.605-.651.834-.27.228-.585.396-.922.493a2.45 2.45 0 01-2.011-.3 2.585 2.585 0 01-.882-.628 2.68 2.68 0 01-.56-.943 2.738 2.738 0 01.166-2.155 2.512 2.512 0 011.563-1.343 2.431 2.431 0 012.016.3zm-1.88 3.855a1.743 1.743 0 002.035.03c.202-.138.373-.316.505-.524a1.924 1.924 0 00-.04-1.459 1.871 1.871 0 00-.425-.602c-.179-.17-.39-.3-.619-.384a1.764 1.764 0 00-1.363-.304c-.236.045-.46.14-.66.276-.199.137-.37.313-.502.519a1.893 1.893 0 00.022 1.462c.1.23.244.435.425.605.18.17.392.3.623.381zm6.848-6.196l-3.328-3.212-.5.551-.535-.515.5-.551-.166-.162a2.425 2.425 0 01-.61-.83 2.492 2.492 0 01-.216-1.016c.054-.632.33-1.222.776-1.66a3.437 3.437 0 011.339-.946l5.5 5.307-.658.723-5.109-4.929c-.248.11-.468.278-.641.492-.68.748-.378 1.52.237 2.113l.2.192.844-.929.535.516-.845.93 3.329 3.21-.652.716zm.842-10.457a.597.597 0 01.134.458.604.604 0 01-.24.411.562.562 0 01-.43.136.553.553 0 01-.391-.234.61.61 0 01-.137-.455.616.616 0 01.227-.416.572.572 0 01.44-.137.565.565 0 01.397.237zm3.43 6.126l-3.329-4.241.75-.623 3.326 4.24-.748.624zm.444-5.036a40.313 40.313 0 00-.917-1.508l.733-.448.51.776.018-.012c-.002-.388.1-.77.294-1.102.194-.333.473-.605.807-.786a2.341 2.341 0 012.737.377c.241.23.433.508.565.818.218.285.375.613.461.964a2.667 2.667 0 01-.346 2.073c-.195.301-.45.557-.747.75a1.81 1.81 0 01-1.826.117l-.018.013 1.464 2.55-.82.498-2.916-5.08zm1.536.751c.097.178.228.335.384.46a1.444 1.444 0 001.67.108c.875-.532.96-1.58.343-2.655a1.776 1.776 0 00-.394-.596 1.675 1.675 0 00-1.96-.314c-.288.183-.51.46-.628.789a1.606 1.606 0 00-.021 1.02c.03.13.077.256.138.374l.468.814zm7.883-8.615l.357 1.254 1.322-.4.207.724-1.323.4.805 2.82c.185.65.468.963.982.807.183-.047.358-.123.517-.226l.249.71c-.238.17-.503.298-.782.378a1.334 1.334 0 01-1.11-.098 2.144 2.144 0 01-.749-1.264l-.814-2.853-.787.238-.206-.724.786-.238-.277-.973.823-.555zM30.223.124L31.18 0l.416 3.387.023-.002a1.85 1.85 0 01.597-.794c.275-.215.6-.352.943-.396.705-.093 1.889.208 2.117 2.064l.396 3.22-.955.125-.383-3.108c-.107-.873-.511-1.558-1.412-1.441a1.383 1.383 0 00-.755.381 1.461 1.461 0 00-.406.759c-.032.157-.034.32-.007.478l.401 3.265-.955.125-.976-7.939zm7.987 4.819a1.778 1.778 0 00.4 1.407c.163.191.363.343.588.445.225.103.469.153.715.149.5.049 1.006-.016 1.48-.191l.132.72a4.191 4.191 0 01-1.788.24 2.414 2.414 0 01-1.028-.233 2.476 2.476 0 01-.84-.651 2.566 2.566 0 01-.5-.953 2.616 2.616 0 01-.07-1.08 2.7 2.7 0 01.163-1.073 2.65 2.65 0 01.569-.914c.249-.26.548-.465.877-.6a2.5 2.5 0 011.038-.185c.312.022.615.112.89.264.275.15.517.36.709.613a2.362 2.362 0 01.438 1.81 2.493 2.493 0 01-.06.46l-3.713-.228zm2.858-.535a1.45 1.45 0 00-.252-1.128 1.38 1.38 0 00-.435-.385 1.337 1.337 0 00-.551-.167c-.397.002-.78.157-1.07.437a1.64 1.64 0 00-.498 1.07l2.806.173zm6.073.692c.223-.66.382-1.2.527-1.696l.805.288-.246.903.02.007a2.033 2.033 0 011.008-.481 2.003 2.003 0 011.103.127c.305.128.58.319.81.56.23.242.408.53.525.846a2.535 2.535 0 01-.086 1.964 2.63 2.63 0 01-.417.986 2.543 2.543 0 01-.77.726 2.442 2.442 0 01-2.03.238 1.848 1.848 0 01-.807-.508 1.93 1.93 0 01-.46-.852l-.02-.007-.944 2.8-.899-.323L47.141 5.1zm.436 1.696a1.575 1.575 0 00.048 1.188 1.49 1.49 0 00.859.795c.96.344 1.79-.266 2.19-1.447a1.814 1.814 0 00-.274-2.023 1.72 1.72 0 00-.572-.415 1.473 1.473 0 00-.991.015 1.52 1.52 0 00-.77.643c-.077.108-.14.225-.188.35l-.302.894zm6.21.944c.297-.565.543-1.056.748-1.518l.74.414-.462.972.03.016a1.558 1.558 0 011.849-.326c.076.044.15.094.22.149l-.432.822a1.517 1.517 0 00-.278-.18 1.303 1.303 0 00-.947-.1c-.316.089-.59.293-.77.576a2.92 2.92 0 00-.243.39L52.9 11.507l-.846-.472 1.734-3.296zm7.021 5.989a2.637 2.637 0 01-.755.793 2.52 2.52 0 01-2.081.36 2.566 2.566 0 01-.966-.496 2.58 2.58 0 01-.687-.805 2.658 2.658 0 01-.2-2.086c.109-.343.286-.659.52-.928.195-.314.451-.582.753-.788a2.555 2.555 0 011-.405 2.516 2.516 0 011.072.047c.35.093.678.26.962.492.283.213.52.485.696.798a2.636 2.636 0 01.21 2.09 2.6 2.6 0 01-.524.928zm-3.366-2.572a1.853 1.853 0 00-.399.614 1.897 1.897 0 00.435 2.05 1.786 1.786 0 001.403.211 1.79 1.79 0 00.65-.328c.193-.153.354-.344.474-.563a1.84 1.84 0 00.394-.61 1.898 1.898 0 00-.019-1.44 1.849 1.849 0 00-.41-.6 1.758 1.758 0 00-1.403-.23 1.77 1.77 0 00-.652.328 1.83 1.83 0 00-.473.568zm11.655 4.07l-4.795 4.369c-.353.321-.74.704-.996.967l-.565-.658.66-.662-.022-.025c-.355.094-.728.08-1.075-.037a1.911 1.911 0 01-.885-.63 2.525 2.525 0 01-.44-.901 2.569 2.569 0 01.276-1.957c.173-.29.402-.54.672-.735.23-.267.51-.483.825-.634a2.469 2.469 0 012.871.532c.222.229.382.513.462.825.081.313.08.641-.002.953l.014.017 2.37-2.158.63.734zm-4.098 2.424a1.74 1.74 0 00.274-.31 1.493 1.493 0 00-.093-1.826c-.66-.768-1.707-.627-2.576.165-.199.13-.37.302-.5.504a1.775 1.775 0 00-.236 1.39c.057.236.161.457.306.65a1.43 1.43 0 001.796.305c.123-.069.237-.152.34-.25l.689-.628zm2.861 7.625c-.483.29-.891.55-1.234.795l-.43-.759.719-.497-.012-.02a1.923 1.923 0 01-1.004-.279 2.01 2.01 0 01-.727-.765c-.42-.739-.515-1.867 1.08-2.828l2.67-1.607.485.855-2.519 1.517c-.869.523-1.302 1.162-.868 1.93a1.4 1.4 0 00.604.555 1.332 1.332 0 001.27-.065l2.792-1.681.486.855-3.313 1.994zm.974 6.127a3.832 3.832 0 01-.809-1.361 2.657 2.657 0 01.048-2.132 2.58 2.58 0 01.649-.862 2.49 2.49 0 01.935-.51 2.626 2.626 0 012.19.047c.342.165.646.402.893.696.246.294.43.638.54 1.01.165.443.23.918.19 1.39l-.761.048a2.502 2.502 0 00-.148-1.168 1.903 1.903 0 00-.393-.678 1.836 1.836 0 00-.627-.453 1.788 1.788 0 00-1.5.03 1.794 1.794 0 00-.673.352 1.86 1.86 0 00-.476.604 1.914 1.914 0 00-.077 1.52c.135.396.354.755.641 1.053l-.622.414zm6.843 1.497l-1.241.264.276 1.39-.716.152-.278-1.39-2.794.592c-.643.137-.97.4-.86.941.03.192.09.377.175.55l-.708.196a2.755 2.755 0 01-.3-.834 1.454 1.454 0 01.187-1.132 2.047 2.047 0 011.284-.662l2.826-.6-.165-.827.718-.15.164.827.964-.205.468.889zM37.515 12.302c-5.535 0-10.947 1.691-15.55 4.86-4.602 3.168-8.19 7.672-10.307 12.94a29.647 29.647 0 00-1.593 16.661c1.08 5.594 3.745 10.732 7.66 14.764 3.914 4.033 8.901 6.78 14.33 7.892a27.225 27.225 0 0016.171-1.641c5.114-2.183 9.485-5.879 12.56-10.62a29.46 29.46 0 004.718-16.02c0-3.787-.724-7.537-2.13-11.035a28.91 28.91 0 00-6.068-9.355 27.947 27.947 0 00-9.08-6.25 27.277 27.277 0 00-10.71-2.196zm0 53.74a23.65 23.65 0 01-12.906-3.845c-3.863-2.513-6.956-6.102-8.92-10.351a25.568 25.568 0 01-2.176-13.66 25.296 25.296 0 015.239-12.745l4.225 4.353a19.005 19.005 0 00-3.637 9.618 19.163 19.163 0 001.876 10.139l2.48-2.555a15.767 15.767 0 01-1.035-7.605 15.623 15.623 0 012.672-7.17l20.815 21.445a14.618 14.618 0 01-6.194 2.644 14.431 14.431 0 01-6.692-.432l1.014-2.464-8.447 1.072 5.124 7.001 1.015-2.466a17.598 17.598 0 008.617.628c2.88-.51 5.597-1.73 7.92-3.556l4.246 4.376c-4.303 3.612-9.685 5.58-15.236 5.573zm18.368-8.723L51.66 52.97a19.037 19.037 0 003.987-9.882 19.222 19.222 0 00-1.915-10.519l-2.47 2.545a15.787 15.787 0 011.057 7.989 15.613 15.613 0 01-3.015 7.44l-20.94-21.574a14.642 14.642 0 016.51-2.995 14.43 14.43 0 017.113.476l-.937 2.275 8.448-1.072-5.125-7.001-1.096 2.664a17.617 17.617 0 00-9.039-.684 17.889 17.889 0 00-8.23 3.91l-4.2-4.328c4.623-4.076 10.57-6.205 16.65-5.962 6.08.243 11.848 2.84 16.151 7.273 4.303 4.434 6.824 10.376 7.06 16.64.236 6.265-1.83 12.39-5.787 17.154z"/><path d="M3.779 45.754c.546-.117.972-.22 1.393-.345l.174.86-.845.239.004.022c.336.112.637.317.87.591.232.274.388.608.45.967.15.738-.047 1.977-1.824 2.358l-3.083.662-.196-.971 2.987-.64c.835-.18 1.466-.65 1.281-1.565a1.44 1.44 0 00-.442-.75 1.37 1.37 0 00-.784-.345 1.366 1.366 0 00-.453.029l-3.115.669-.196-.97 3.779-.811zM6.208 57.57a2.537 2.537 0 01-2.104.154 2.584 2.584 0 01-.915-.588 2.678 2.678 0 01-.604-.92 2.666 2.666 0 01.002-2.096c.14-.33.347-.625.606-.869.258-.243.563-.428.895-.544a2.53 2.53 0 012.094-.15c.34.126.65.325.911.584.26.258.466.57.602.915a2.645 2.645 0 01.016 2.098 2.58 2.58 0 01-.606.873 2.489 2.489 0 01-.897.543zm-1.702-3.944c-.233.065-.45.179-.64.333-.19.154-.347.346-.463.564a1.89 1.89 0 00-.137 1.44c.12.22.28.411.472.565a1.766 1.766 0 002.051.123c.231-.066.447-.179.635-.332.188-.154.344-.345.459-.561a1.887 1.887 0 00.14-1.43 1.833 1.833 0 00-.464-.574 1.74 1.74 0 00-2.053-.128zM6.99 63.993l3.523-2.982-.465-.583.566-.479.465.584.178-.151c.252-.235.552-.41.877-.514a2.286 2.286 0 011.006-.088 2.521 2.521 0 011.497 1.007c.357.43.61.94.735 1.492l-5.821 4.927-.611-.767 5.408-4.577a1.786 1.786 0 00-.39-.719c-.632-.793-1.413-.583-2.064-.032l-.212.178.785.984-.566.48-.784-.985-3.524 2.983-.603-.758zm4.572 5.242l3.579-4.013.708.67-3.579 4.014-.708-.67zm5.373-4.394a.576.576 0 01-.42.204.558.558 0 01-.43-.183.583.583 0 01-.193-.42.599.599 0 01.166-.432.586.586 0 01.418-.207.569.569 0 01.432.17.59.59 0 01.196.428.611.611 0 01-.169.44zm-.502 3.96c.38-.579.668-1.058.93-1.5l.708.492-.463.807.018.012a2.007 2.007 0 012.129.218c.262.204.48.46.642.755a2.52 2.52 0 01.2 1.956 2.52 2.52 0 01-.476.877 2.578 2.578 0 01-.65.842 2.5 2.5 0 01-.925.498 2.441 2.441 0 01-2.021-.308 1.89 1.89 0 01-.654-.705 1.958 1.958 0 01-.231-.945l-.018-.012-1.612 2.455-.788-.549 3.21-4.893zm-.002 1.754a1.553 1.553 0 00-.251 1.16c.035.202.11.394.218.565.109.17.25.317.414.432.842.586 1.798.217 2.478-.82.158-.18.279-.39.354-.62a1.82 1.82 0 00-.114-1.407 1.761 1.761 0 00-.449-.553 1.482 1.482 0 00-1.867.17 1.6 1.6 0 00-.269.288l-.514.785zm10.757.731l-.424 1.232 1.298.475-.245.71-1.298-.475L25.564 76c-.22.637-.169 1.061.337 1.246.175.073.36.116.547.129l-.204.726a2.531 2.531 0 01-.847-.167 1.36 1.36 0 01-.5-.282 1.41 1.41 0 01-.345-.468 2.19 2.19 0 01.115-1.476l.965-2.803-.772-.283.244-.711.774.283.328-.956.982.048zm2.81-.332l.948.173-.578 3.363.021.004a1.81 1.81 0 01.8-.575 1.918 1.918 0 011.015-.09c.7.128 1.744.776 1.427 2.619l-.55 3.196-.948-.174.53-3.085c.15-.866-.039-1.644-.932-1.807a1.363 1.363 0 00-.831.133c-.258.132-.47.341-.607.6a1.297 1.297 0 00-.145.455l-.557 3.24-.948-.173 1.355-7.88zm6.562 6.362a1.79 1.79 0 00.503 1.373 1.653 1.653 0 001.342.489 3.356 3.356 0 001.46-.305l.186.706a4.191 4.191 0 01-1.766.379 2.4 2.4 0 01-1.04-.151 2.459 2.459 0 01-.886-.584 2.55 2.55 0 01-.569-.91 2.61 2.61 0 01-.149-1.072 2.714 2.714 0 01.084-1.082c.1-.35.27-.676.5-.955a2.52 2.52 0 011.853-.932c.311-.002.62.064.906.194.285.129.541.319.75.556.21.238.37.518.468.823.098.305.132.628.102.948.005.154-.004.31-.027.462l-3.716.06zm2.81-.756a1.448 1.448 0 00-.334-1.104 1.37 1.37 0 00-.463-.35 1.33 1.33 0 00-.561-.123 1.558 1.558 0 00-1.035.519 1.65 1.65 0 00-.416 1.105l2.81-.047zm5.88-1.21a40.44 40.44 0 00-.542-1.69l.816-.254.315.879.021-.007c.088-.378.275-.723.54-.999.266-.275.6-.47.966-.564a2.326 2.326 0 011.88.329c.276.185.51.426.691.708.18.282.303.6.36.933a2.652 2.652 0 01-.591 2.978c-.26.245-.566.43-.9.546a1.805 1.805 0 01-.942.077 1.84 1.84 0 01-.857-.411l-.021.006.831 2.836-.91.283-1.658-5.65zm1.318 1.108a1.508 1.508 0 00.716.932 1.457 1.457 0 001.147.123c.973-.303 1.298-1.298.947-2.495-.304-1.035-1.1-1.764-2.074-1.46a1.518 1.518 0 00-.793.611c-.19.29-.28.637-.257.986 0 .134.016.267.048.397l.266.906zm5.22-3.554a26.021 26.021 0 00-.771-1.504l.754-.385.504.949.03-.015a1.694 1.694 0 01.13-1.007 1.63 1.63 0 01.678-.737 2.24 2.24 0 01.245-.099l.403.838a1.467 1.467 0 00-.304.129c-.29.16-.51.423-.624.74-.113.317-.11.666.01.98.046.147.102.29.17.429l1.25 2.604-.863.44-1.612-3.362zm8.17-4.043c.234.286.408.62.51.979a2.748 2.748 0 01-.287 2.152 2.63 2.63 0 01-.746.8 2.45 2.45 0 01-2.94.011 2.569 2.569 0 01-.704-.786 2.69 2.69 0 01-.505-.974 2.74 2.74 0 01.284-2.142c.19-.317.443-.59.741-.8.282-.215.604-.367.947-.446a2.429 2.429 0 011.04-.01c.345.071.67.216.956.426.286.21.526.479.704.79zm-3.384 2.543c.111.22.265.416.45.574.187.159.402.276.633.347a1.743 1.743 0 001.396-.164 1.87 1.87 0 00.436-.594 1.921 1.921 0 00-.315-2.092 1.699 1.699 0 00-.425-.621 1.635 1.635 0 00-.645-.368 1.601 1.601 0 00-1.418.253c-.202.15-.368.346-.487.572a1.736 1.736 0 00.375 2.093zm4.438-11.053l4.662 4.514c.343.33.749.692 1.026.931l-.584.64-.699-.615-.022.023c.123.355.145.74.063 1.107a1.986 1.986 0 01-.527.966 2.412 2.412 0 01-.83.534 2.356 2.356 0 01-1.916-.103 2.43 2.43 0 01-.772-.621 2.578 2.578 0 01-.688-.788 2.68 2.68 0 01-.24-2.06c.1-.342.266-.66.49-.933.2-.249.46-.439.754-.55a1.72 1.72 0 01.92-.086l.016-.016-2.304-2.23.651-.713zm2.72 3.977a1.713 1.713 0 00-.325-.252 1.382 1.382 0 00-1.756.263c-.681.747-.448 1.808.397 2.626a1.7 1.7 0 00.533.466 1.656 1.656 0 001.964-.26 1.536 1.536 0 00.13-1.869 1.788 1.788 0 00-.274-.326l-.67-.648zm5.921-5.72c.474.302.889.553 1.26.75l-.448.747-.764-.42-.012.019a2.088 2.088 0 01-.083 2.067c-.437.729-1.36 1.346-2.933.344l-2.633-1.677.506-.843 2.484 1.582c.856.545 1.608.641 2.063-.116a1.46 1.46 0 00-.086-1.592 1.32 1.32 0 00-.373-.343L65.88 57.37l.507-.843 3.266 2.08zm3.743-5.708a3.941 3.941 0 01-.268 1.572c-.113.35-.297.67-.539.94-.242.27-.537.484-.866.627a2.45 2.45 0 01-2.07-.05 2.682 2.682 0 01-.964-.588 2.78 2.78 0 01-.649-.94 2.854 2.854 0 01.02-2.258 3.12 3.12 0 01.75-1.174l.603.485a2.429 2.429 0 00-.64.976 1.94 1.94 0 00.04 1.545 1.861 1.861 0 001.144.999 1.772 1.772 0 002.106-.364 1.88 1.88 0 00.405-.657c.153-.39.22-.808.196-1.227l.732.113zm-5.312-5.112l1.237.287.302-1.385.713.165-.3 1.384 2.783.642c.64.148 1.043.045 1.16-.493.049-.188.069-.382.059-.576l.724.121c.028.297.008.597-.059.887-.033.194-.105.38-.212.544a1.392 1.392 0 01-.41.409 2.013 2.013 0 01-1.435.06l-2.816-.649-.18.824-.714-.165.18-.824-.96-.22-.072-1.01zM2.089 32.663c-.536-.16-.959-.274-1.389-.368l.238-.844.856.198.006-.023a2.038 2.038 0 01-.499-.942 2.078 2.078 0 01.04-1.072c.204-.725.94-1.725 2.684-1.205l3.026.904-.268.952-2.931-.875c-.82-.245-1.59-.135-1.843.764-.073.29-.056.597.05.877.104.28.292.518.536.682.127.087.266.153.413.194l3.057.912-.268.952-3.708-1.106zm5.467-10.758c.335.144.638.359.887.63.25.272.441.595.562.948a2.745 2.745 0 01-.168 2.165c-.159.321-.38.605-.65.834a2.516 2.516 0 01-.923.493 2.45 2.45 0 01-2.01-.3 2.585 2.585 0 01-.883-.628 2.679 2.679 0 01-.56-.943 2.738 2.738 0 01.166-2.155 2.512 2.512 0 011.563-1.343 2.431 2.431 0 012.016.3zm-1.88 3.855a1.743 1.743 0 002.035.03c.202-.138.373-.316.506-.524a1.923 1.923 0 00-.04-1.459 1.871 1.871 0 00-.426-.602c-.179-.17-.39-.3-.619-.384a1.764 1.764 0 00-1.363-.304 1.769 1.769 0 00-1.162.795 1.893 1.893 0 00.022 1.462c.1.23.244.435.425.605.18.17.392.3.623.381zm6.848-6.196l-3.328-3.212-.5.551-.535-.515.5-.551-.166-.162a2.425 2.425 0 01-.61-.83 2.492 2.492 0 01-.216-1.016c.054-.632.33-1.222.776-1.66a3.437 3.437 0 011.339-.946l5.5 5.307-.658.723-5.109-4.929c-.248.11-.468.278-.641.492-.68.748-.378 1.52.237 2.113l.2.192.844-.929.535.516-.845.93 3.329 3.21-.652.716zm.842-10.457a.599.599 0 01.134.458.603.603 0 01-.24.411.56.56 0 01-.43.136.553.553 0 01-.39-.234.61.61 0 01-.137-.455.616.616 0 01.226-.416.574.574 0 01.44-.137.566.566 0 01.397.237zm3.43 6.126l-3.329-4.241.75-.623 3.326 4.24-.748.624zm.444-5.036a40.19 40.19 0 00-.917-1.508l.733-.448.51.776.018-.012c-.002-.388.1-.77.294-1.102.194-.333.473-.605.807-.786a2.342 2.342 0 011.903-.141c.31.112.593.288.834.518.241.23.433.508.565.818.218.285.375.613.461.964a2.664 2.664 0 01-.346 2.073 2.55 2.55 0 01-.747.75 1.809 1.809 0 01-1.826.117l-.018.013 1.464 2.55-.82.498-2.916-5.08zm1.537.751c.096.178.227.335.383.46a1.444 1.444 0 001.67.108c.875-.532.96-1.58.343-2.655a1.774 1.774 0 00-.394-.596 1.674 1.674 0 00-1.96-.314c-.288.183-.51.46-.628.789a1.607 1.607 0 00-.021 1.02c.03.13.077.256.138.374l.468.814zm7.882-8.615l.357 1.254 1.322-.4.207.724-1.323.4.805 2.82c.185.65.468.963.982.807.183-.047.358-.123.517-.226l.249.71c-.238.17-.503.298-.782.378a1.334 1.334 0 01-1.11-.098 2.144 2.144 0 01-.749-1.264l-.814-2.853-.787.238-.206-.724.787-.238-.278-.973.823-.555zM30.223.124L31.18 0l.416 3.387.023-.002a1.85 1.85 0 01.597-.794c.275-.215.6-.352.943-.396.705-.093 1.889.208 2.117 2.064l.396 3.22-.955.125-.383-3.108c-.107-.873-.511-1.558-1.412-1.441a1.383 1.383 0 00-.755.381 1.461 1.461 0 00-.406.759 1.32 1.32 0 00-.007.478l.401 3.265-.955.125-.976-7.939zm7.987 4.819a1.778 1.778 0 00.4 1.407c.163.191.363.343.588.445.225.103.469.153.715.149.5.049 1.006-.016 1.48-.191l.133.72a4.191 4.191 0 01-1.79.24 2.405 2.405 0 01-1.026-.233 2.476 2.476 0 01-.84-.651 2.566 2.566 0 01-.501-.953 2.616 2.616 0 01-.07-1.08 2.7 2.7 0 01.163-1.073 2.65 2.65 0 01.569-.914c.249-.26.548-.465.877-.6a2.5 2.5 0 011.038-.185c.312.022.615.112.89.264.276.15.517.36.709.613a2.362 2.362 0 01.438 1.81 2.493 2.493 0 01-.06.46l-3.713-.228zm2.858-.535a1.45 1.45 0 00-.251-1.128 1.378 1.378 0 00-.436-.385 1.337 1.337 0 00-.55-.167c-.398.002-.78.157-1.071.437a1.64 1.64 0 00-.498 1.07l2.806.173zm6.073.692c.224-.66.382-1.2.527-1.696l.805.288-.246.903.02.007a2.033 2.033 0 011.008-.481 2.004 2.004 0 011.104.127c.304.128.579.319.809.56.23.242.408.53.525.846a2.533 2.533 0 01-.086 1.964 2.63 2.63 0 01-.417.986 2.54 2.54 0 01-.77.726 2.443 2.443 0 01-2.03.238 1.848 1.848 0 01-.807-.508 1.929 1.929 0 01-.46-.852l-.02-.007-.944 2.8-.899-.323L47.141 5.1zm.436 1.696a1.575 1.575 0 00.048 1.188 1.49 1.49 0 00.859.795c.96.344 1.79-.266 2.19-1.447a1.814 1.814 0 00-.274-2.023 1.72 1.72 0 00-.572-.415 1.473 1.473 0 00-.991.015 1.52 1.52 0 00-.77.643c-.077.108-.14.225-.188.35l-.302.894zm6.21.944c.297-.565.543-1.056.748-1.518l.74.414-.462.972.03.016a1.559 1.559 0 011.849-.326c.076.044.15.094.22.149l-.432.822a1.514 1.514 0 00-.278-.18 1.303 1.303 0 00-.947-.1 1.34 1.34 0 00-.77.576 2.91 2.91 0 00-.243.39L52.9 11.507l-.846-.472 1.734-3.296zm7.021 5.989a2.637 2.637 0 01-.755.793 2.52 2.52 0 01-2.081.36 2.566 2.566 0 01-.966-.496 2.58 2.58 0 01-.687-.805 2.658 2.658 0 01-.2-2.086c.109-.343.286-.659.52-.928.195-.314.451-.582.753-.788a2.555 2.555 0 011-.405 2.516 2.516 0 011.072.047c.35.093.678.26.962.492.283.213.52.485.696.798a2.636 2.636 0 01.21 2.09 2.6 2.6 0 01-.524.928zm-3.366-2.572a1.853 1.853 0 00-.399.614 1.897 1.897 0 00.435 2.05 1.786 1.786 0 001.403.211 1.79 1.79 0 00.65-.328c.193-.153.354-.344.474-.563a1.84 1.84 0 00.394-.61 1.898 1.898 0 00-.019-1.44 1.849 1.849 0 00-.41-.6 1.758 1.758 0 00-1.403-.23 1.77 1.77 0 00-.652.328 1.83 1.83 0 00-.473.568zm11.655 4.07l-4.795 4.369c-.353.321-.74.704-.996.967l-.565-.658.659-.662-.021-.025c-.355.094-.728.08-1.075-.037a1.912 1.912 0 01-.885-.63 2.525 2.525 0 01-.44-.901 2.567 2.567 0 01.276-1.957c.173-.29.402-.54.672-.735.23-.267.51-.483.825-.634a2.47 2.47 0 012.87.532c.223.229.383.513.463.825.081.313.08.641-.002.953l.014.017 2.37-2.158.63.734zm-4.098 2.424a1.69 1.69 0 00.274-.31 1.493 1.493 0 00-.093-1.826c-.66-.768-1.707-.627-2.576.165-.199.13-.37.302-.5.504a1.775 1.775 0 00-.236 1.39c.057.236.161.457.306.65a1.43 1.43 0 001.796.305c.123-.069.237-.152.34-.25l.689-.628zm2.861 7.625c-.483.29-.891.55-1.234.795l-.43-.759.719-.497-.011-.02c-.353.002-.7-.095-1.004-.279a2.011 2.011 0 01-.728-.765c-.42-.739-.515-1.867 1.08-2.828l2.67-1.607.486.855-2.52 1.517c-.868.523-1.302 1.162-.868 1.93a1.4 1.4 0 00.604.555 1.332 1.332 0 001.27-.065l2.792-1.681.486.855-3.313 1.994zm.974 6.127a3.832 3.832 0 01-.809-1.361 2.657 2.657 0 01.048-2.132 2.58 2.58 0 01.649-.862 2.49 2.49 0 01.935-.51 2.626 2.626 0 012.19.047c.342.165.646.402.893.696.246.294.43.638.54 1.01.165.443.23.918.19 1.39l-.761.048a2.502 2.502 0 00-.148-1.168 1.903 1.903 0 00-.393-.678 1.836 1.836 0 00-.627-.453 1.788 1.788 0 00-1.5.03 1.794 1.794 0 00-.673.352 1.86 1.86 0 00-.476.604 1.914 1.914 0 00-.077 1.52c.135.396.354.755.641 1.053l-.622.414zm6.843 1.497l-1.241.264.276 1.39-.716.152-.278-1.39-2.794.592c-.643.137-.969.4-.86.941.03.192.09.377.176.55l-.709.196a2.755 2.755 0 01-.3-.834 1.454 1.454 0 01.187-1.132 2.047 2.047 0 011.284-.662l2.826-.6-.165-.827.718-.15.165.827.963-.205.468.889zM37.515 12.302c-5.535 0-10.947 1.691-15.55 4.86-4.602 3.168-8.19 7.672-10.307 12.94a29.647 29.647 0 00-1.593 16.661c1.08 5.594 3.745 10.732 7.66 14.764 3.914 4.033 8.901 6.78 14.33 7.892a27.225 27.225 0 0016.171-1.641c5.114-2.183 9.485-5.879 12.56-10.62a29.46 29.46 0 004.718-16.02c0-3.787-.724-7.537-2.13-11.035a28.91 28.91 0 00-6.068-9.355 27.947 27.947 0 00-9.08-6.25 27.277 27.277 0 00-10.71-2.196zm0 53.74a23.65 23.65 0 01-12.906-3.845c-3.863-2.513-6.956-6.102-8.92-10.351a25.568 25.568 0 01-2.176-13.66 25.296 25.296 0 015.239-12.745l4.225 4.353a19.005 19.005 0 00-3.637 9.618 19.163 19.163 0 001.876 10.139l2.48-2.555a15.767 15.767 0 01-1.035-7.605 15.623 15.623 0 012.672-7.17l20.815 21.445a14.618 14.618 0 01-6.194 2.644 14.431 14.431 0 01-6.692-.432l1.014-2.464-8.447 1.072 5.124 7.001 1.015-2.466a17.598 17.598 0 008.617.628c2.88-.51 5.597-1.73 7.92-3.556l4.246 4.376c-4.303 3.612-9.685 5.58-15.236 5.573zm18.368-8.723L51.66 52.97a19.037 19.037 0 003.987-9.882 19.222 19.222 0 00-1.915-10.519l-2.47 2.545a15.787 15.787 0 011.057 7.989 15.613 15.613 0 01-3.015 7.44l-20.94-21.574a14.642 14.642 0 016.51-2.995 14.43 14.43 0 017.113.476l-.937 2.275 8.448-1.072-5.125-7.001-1.096 2.664a17.617 17.617 0 00-9.039-.684 17.889 17.889 0 00-8.23 3.91l-4.2-4.328c4.623-4.076 10.57-6.205 16.65-5.962 6.08.243 11.848 2.84 16.151 7.273 4.303 4.434 6.824 10.376 7.06 16.64.236 6.265-1.83 12.39-5.787 17.154z"/></g><defs><clipPath id="clip0"><path fill="#fff" d="M0 0h76v81H0z"/></clipPath></defs></svg>