<svg width="43" height="38" fill="none" xmlns="http://www.w3.org/2000/svg"><path d="M40.133 30.293V15.05a10.05 10.05 0 00-8.616-9.925c.005-.088.015-.174.015-.263V3.583a.717.717 0 00-.716-.716h-1.278a5.173 5.173 0 00-4.632 2.884 4.986 4.986 0 00-4.672-2.136A7.878 7.878 0 0013.617 0v1.433a6.437 6.437 0 015.146 2.58 4.992 4.992 0 00-2.701 6.268L3.33 15.096a.708.708 0 00-.452.67h-.011v14.526C.947 31.045 0 31.92 0 32.967c0 3.968 14.064 5.016 21.5 5.016S43 36.935 43 32.967c0-1.047-.947-1.922-2.867-2.674zM4.3 22.553c.481 0 .943.19 1.284.529a3.253 3.253 0 004.597 0 1.82 1.82 0 012.57 0 3.253 3.253 0 004.597 0 1.82 1.82 0 012.57 0 3.253 3.253 0 004.596 0 1.82 1.82 0 012.57 0 3.25 3.25 0 004.597 0 1.82 1.82 0 012.57 0 3.225 3.225 0 004.45.12v1.9a3.09 3.09 0 00-.966.65 1.679 1.679 0 01-2.371 0l-.2-.2a3.115 3.115 0 00-4.398 0l-.198.198a1.68 1.68 0 01-2.37 0l-.2-.2a3.116 3.116 0 00-4.399 0l-.198.198a1.68 1.68 0 01-2.37 0l-.2-.2a3.115 3.115 0 00-4.399 0l-.197.2a1.679 1.679 0 01-2.371 0l-.2-.201a3.116 3.116 0 00-4.398 0l-.198.199a1.68 1.68 0 01-2.37 0l-.2-.2a3.094 3.094 0 00-2.198-.901v-2.092zm34.4-1.098a3.25 3.25 0 00-.866.613 1.82 1.82 0 01-2.57 0 3.25 3.25 0 00-4.595-.001l-.001.001a1.82 1.82 0 01-2.57 0 3.253 3.253 0 00-4.597 0 1.82 1.82 0 01-2.57 0 3.254 3.254 0 00-4.597 0 1.82 1.82 0 01-2.57 0 3.253 3.253 0 00-4.596 0 1.82 1.82 0 01-2.57 0 3.248 3.248 0 00-2.298-.95v-4.635h3.287l2.032 2.033a2.616 2.616 0 003.696 0l2.032-2.033h2.99l2.032 2.033a2.616 2.616 0 003.695 0l2.033-2.033h2.99l2.032 2.033a2.616 2.616 0 003.696 0l2.032-2.033H38.7v4.972zM4.3 26.079a1.67 1.67 0 011.184.486l.199.2a3.116 3.116 0 004.4 0l.197-.199a1.68 1.68 0 012.37 0l.2.2a3.115 3.115 0 004.399 0l.197-.198a1.68 1.68 0 012.371 0l.2.2a3.115 3.115 0 004.398 0l.198-.2a1.68 1.68 0 012.37 0l.2.201a3.116 3.116 0 004.4 0l.197-.199a1.68 1.68 0 012.37 0l.2.2a3.104 3.104 0 004.35.033v5.447H4.3v-6.17zM31.402 8.295l1.021 1.022-1.021 1.021a2.858 2.858 0 01-4.038 0l-1.022-1.021 1.022-1.022a2.857 2.857 0 014.038 0zM29.538 4.3h.562v.562c0 .413-.07.824-.205 1.215a4.264 4.264 0 00-3.544 1.205l-.528.528a3.732 3.732 0 013.715-3.51zm-10.034.963c.37.824.562 1.717.563 2.62V8.6H21.5v-.717a7.832 7.832 0 00-.541-2.849 3.576 3.576 0 11-1.454.23zm-2.766 6.293a5.005 5.005 0 008.704-1.111l.907.906a4.292 4.292 0 006.064 0l1.53-1.528a.717.717 0 000-1.013l-1.528-1.528a4.215 4.215 0 00-1.016-.73A8.618 8.618 0 0138.7 15.05h-2.15a.717.717 0 00-.507.21l-2.242 2.243a1.182 1.182 0 01-1.668 0L29.89 15.26a.717.717 0 00-.507-.21H25.8a.717.717 0 00-.507.21l-2.242 2.243a1.182 1.182 0 01-1.668 0L19.14 15.26a.717.717 0 00-.507-.21H15.05a.717.717 0 00-.507.21l-2.242 2.243a1.182 1.182 0 01-1.668 0L8.39 15.26a.717.717 0 00-.507-.21h-.38l9.235-3.494zM21.5 36.55c-12.984 0-20.067-2.365-20.067-3.583 0-.185.335-.615 1.434-1.12v1.12c0 .395.32.716.716.716h35.834c.395 0 .716-.32.716-.716v-1.12c1.1.502 1.434.932 1.434 1.12 0 1.218-7.083 3.583-20.067 3.583z" fill="#D13274"/></svg>