<svg width="26" height="152" fill="none" xmlns="http://www.w3.org/2000/svg"><path d="M12.967 55C6.155 55 .613 60.542.613 67.354v17.292C.613 91.458 6.155 97 12.967 97c6.812 0 12.354-5.542 12.354-12.354V67.354C25.321 60.542 19.78 55 12.967 55zm9.835 29.646c0 5.422-4.412 9.834-9.835 9.834-5.422 0-9.834-4.412-9.834-9.834V67.354c0-5.422 4.412-9.834 9.834-9.834 5.423 0 9.835 4.412 9.835 9.834v17.292z" fill="#fff"/><path d="M12.967 63.355a1.26 1.26 0 00-1.26 1.26v5.8a1.26 1.26 0 002.52 0v-5.8a1.26 1.26 0 00-1.26-1.26z" fill="#FCD4DD"/><path d="M13.707.293a1 1 0 00-1.414 0L5.929 6.657A1 1 0 007.343 8.07L13 2.414l5.657 5.657a1 1 0 101.414-1.414L13.707.293zM14 27V1h-2v26h2zm-1.707 124.707a1 1 0 001.414 0l6.364-6.364a1 1 0 10-1.414-1.414L13 149.586l-5.657-5.657a1 1 0 10-1.414 1.414l6.364 6.364zM12 125v26h2v-26h-2z" fill="#fff"/></svg>