<svg width="36" height="36" fill="none" xmlns="http://www.w3.org/2000/svg"><g clip-path="url(#clip0)" fill="#D13274"><path d="M25.29 28.75l-3.34-3.34a2.475 2.475 0 00-3.497 0l-1.468 1.468a18.674 18.674 0 01-7.863-7.863l1.468-1.468a2.475 2.475 0 000-3.497l-3.34-3.34a2.475 2.475 0 00-3.497 0L1.08 13.382C-.316 14.78-.36 17.241.957 20.314c1.188 2.771 3.367 5.822 6.137 8.592 2.77 2.77 5.821 4.95 8.592 6.137 1.49.638 2.835.957 3.986.957 1.223 0 2.226-.36 2.946-1.08l2.672-2.673a2.456 2.456 0 00.725-1.748 2.46 2.46 0 00-.724-1.748zm-1.49 2.007l-2.673 2.672c-.724.724-2.447.603-4.61-.324-2.53-1.084-5.346-3.105-7.93-5.69-2.585-2.584-4.606-5.4-5.69-7.93-.927-2.163-1.048-3.886-.324-4.61l2.672-2.673a.363.363 0 01.513 0l3.341 3.341a.363.363 0 010 .513l-2.53 2.53.318.672a20.777 20.777 0 009.857 9.857l.672.318 2.53-2.53a.361.361 0 01.513 0l3.34 3.34a.361.361 0 010 .514z"/><path d="M32.748 2.725C30.698.968 27.982 0 25.1 0c-2.88 0-5.597.968-7.648 2.725-2.096 1.798-3.251 4.201-3.251 6.768s1.155 4.97 3.252 6.768c.375.322.774.617 1.191.885a17.978 17.978 0 01-2.685 3.178 17.77 17.77 0 006.216-1.682c.94.227 1.923.344 2.925.344 2.881 0 5.598-.968 7.648-2.725C34.845 14.464 36 12.06 36 9.493s-1.155-4.97-3.252-6.768zM25.1 16.877c-4.847 0-8.79-3.312-8.79-7.384 0-4.071 3.944-7.383 8.79-7.383 4.847 0 8.79 3.312 8.79 7.383 0 4.072-3.943 7.384-8.79 7.384z"/><path d="M25.1 10.9a1.406 1.406 0 100-2.813 1.406 1.406 0 000 2.813zm-4.922 0a1.406 1.406 0 100-2.813 1.406 1.406 0 000 2.813zm9.845 0a1.406 1.406 0 100-2.813 1.406 1.406 0 000 2.813z"/></g><defs><clipPath id="clip0"><path fill="#fff" d="M0 0h36v36H0z"/></clipPath></defs></svg>