<svg width="36" height="36" fill="none" xmlns="http://www.w3.org/2000/svg"><path d="M32.686 2.25H16.87a3.318 3.318 0 00-3.314 3.314V15.71l-2.936-1.46c-.1-.05-.2-.097-.302-.141a4.99 4.99 0 001.394-3.461 5.014 5.014 0 00-5.009-5.009 5.014 5.014 0 00-5.008 5.009c0 1.5.664 2.848 1.713 3.767A6.675 6.675 0 000 20.25v3.389c0 1.459.947 2.7 2.26 3.142v5.896c0 .582.471 1.054 1.054 1.054h6.778c.583 0 1.055-.472 1.055-1.054v-11.85l3.376 1.688c1.293.646 3.046.26 3.838-1.21h3.782l-4.005 11.011a1.056 1.056 0 00.631 1.352c.626.227 1.182-.165 1.352-.631l4.266-11.732h.74l4.31 11.735c.163.446.715.86 1.353.627.547-.201.828-.807.627-1.354l-4.044-11.008h5.313A3.314 3.314 0 0036 17.99V5.564a3.314 3.314 0 00-3.314-3.314zM3.804 10.648c0-1.6 1.3-2.9 2.899-2.9s2.9 1.3 2.9 2.9a2.903 2.903 0 01-2.9 2.899 2.902 2.902 0 01-2.899-2.9zm12.755 9.529a.784.784 0 01-.442.476.79.79 0 01-.65-.025l-4.904-2.451c-.7-.35-1.526.16-1.526.943v12.502H4.37v-5.724c0-.582-.473-1.054-1.055-1.054-.664 0-1.205-.54-1.205-1.205V20.25c0-2.577 2.099-4.594 4.594-4.594h.932c.707 0 1.413.166 2.044.481l6.564 3.265a.632.632 0 01.316.775zM33.89 17.99c0 .322-.125.624-.353.852a1.212 1.212 0 01-.852.352H18.59l-.005-.017 2.618-5.234A1.055 1.055 0 0019.316 13l-2.232 4.465-1.418-.706V5.564c0-.664.54-1.205 1.204-1.205h15.816a1.21 1.21 0 011.205 1.205v12.427z" fill="#D13274"/><path d="M30.427 6.769H19.13a1.055 1.055 0 100 2.109h11.297a1.055 1.055 0 000-2.11zm0 3.954h-5.65a1.055 1.055 0 000 2.109h5.65a1.055 1.055 0 000-2.11zm0 3.954h-5.65a1.055 1.055 0 000 2.11h5.65a1.055 1.055 0 000-2.11z" fill="#D13274"/></svg>