<svg width="32" height="32" viewBox="0 0 32 32" fill="none" xmlns="http://www.w3.org/2000/svg">
<path d="M24.2132 27.0416L4.41422 7.24267C3.63314 6.46159 3.63319 5.19525 4.41422 4.41422C5.19526 3.63319 6.46159 3.63314 7.24267 4.41422L27.0417 24.2132C27.8227 24.9943 27.8227 26.2607 27.0417 27.0417C26.2606 27.8227 24.9943 27.8227 24.2132 27.0416Z" fill="#0055BB"/>
<path d="M27.0416 7.24269L7.24267 27.0417C6.46159 27.8227 5.19526 27.8227 4.41422 27.0417C3.63319 26.2606 3.63314 24.9943 4.41422 24.2132L24.2132 4.4142C24.9943 3.63317 26.2607 3.63317 27.0417 4.4142C27.8227 5.19528 27.8227 6.46161 27.0416 7.24269Z" fill="#0055BB"/>
</svg>
