<svg width="20" height="21" viewBox="0 0 20 21" fill="none" xmlns="http://www.w3.org/2000/svg">
<path d="M11.1044 10.7045L19.7707 2.03816C20.0758 1.73304 20.0758 1.23835 19.7707 0.933275C19.4656 0.628197 18.9709 0.628158 18.6658 0.933275L9.9995 9.59959L1.33323 0.933275C1.02811 0.628158 0.533427 0.628158 0.228349 0.933275C-0.0767284 1.23839 -0.0767674 1.73308 0.228349 2.03816L8.89462 10.7044L0.228349 19.3707C-0.0767674 19.6759 -0.0767674 20.1705 0.228349 20.4756C0.380888 20.6282 0.580848 20.7044 0.780809 20.7044C0.98077 20.7044 1.18069 20.6282 1.33327 20.4756L9.9995 11.8093L18.6658 20.4756C18.8183 20.6282 19.0183 20.7044 19.2182 20.7044C19.4182 20.7044 19.6181 20.6282 19.7707 20.4756C20.0758 20.1705 20.0758 19.6758 19.7707 19.3707L11.1044 10.7045Z" fill="#00B2DD"/>
</svg>
