<svg width="372" height="372" viewBox="0 0 372 372" fill="none" xmlns="http://www.w3.org/2000/svg">
<path opacity="0.3" d="M218.964 188.335L92.0532 188.071L45.9758 132.919L52.0317 127.905L96.0027 180.155L216.331 180.419L275.836 127.641L257.405 101.253V42.142H265.304V98.6137L281.892 122.1L282.419 122.627L283.999 121.044H348.77L365.095 104.683L356.406 95.9748V87.7944H318.228C304.536 102.308 285.578 105.211 284.789 105.211L284.262 101.253L283.735 97.2943C283.999 97.2943 301.903 94.3915 313.488 80.9333L314.541 79.6139H366.938L371.677 69.5862L364.832 25.2533L316.121 14.6979L292.951 18.6562H224.23L195.793 4.40628H113.117C57.2977 -10.3714 22.8054 16.0173 13.3266 24.9894C33.864 43.9892 57.0344 52.1697 82.0478 49.267L82.8377 57.1836C79.4148 57.7113 75.9919 57.7113 72.3057 57.7113C61.2472 57.7113 50.7152 55.6002 40.1832 51.6419C34.3906 60.3502 20.4357 84.3639 10.6936 125.53C1.74143 162.738 -4.84105 219.738 4.63774 297.848C60.7206 344.028 132.338 372 210.801 372C245.03 372 277.943 366.722 309.012 356.958L236.341 172.502L218.964 188.335ZM321.387 26.045L331.129 37.656H356.143V45.5726H327.443L315.331 31.0588L321.387 26.045Z" fill="#00294F"/>
</svg>
