<svg width="32" height="32" viewBox="0 0 32 32" fill="none" xmlns="http://www.w3.org/2000/svg">
<g clip-path="url(#clip0_788_33044)">
<path d="M30 28H2.00001C0.895397 28 0 27.1046 0 26C0 24.8955 0.895397 24 2.00001 24H30.0001C31.1046 24 32.0001 24.8955 32.0001 26C32 27.1046 31.1046 28 30 28Z" fill="#0055BB"/>
<path d="M30 18.0001H2.00001C0.895397 18.0001 0 17.1047 0 16.0001C0 14.8956 0.895397 14.0001 2.00001 14.0001H30.0001C31.1046 14.0001 32.0001 14.8955 32.0001 16.0001C32.0001 17.1048 31.1046 18.0001 30 18.0001Z" fill="#0055BB"/>
<path d="M30 8.00003H2.00001C0.895397 8.00003 0 7.10463 0 6.00001C0 4.8954 0.895397 4 2.00001 4H30.0001C31.1046 4 32.0001 4.8954 32.0001 6.00001C32.0001 7.10463 31.1046 8.00003 30 8.00003Z" fill="#0055BB"/>
</g>
<defs>
<clipPath id="clip0_788_33044">
<rect width="32" height="32" fill="white"/>
</clipPath>
</defs>
</svg>
