<svg width="18" height="18" viewBox="0 0 18 18" fill="none" xmlns="http://www.w3.org/2000/svg">
<g clip-path="url(#clip0_505_43)">
<path d="M17.1818 0H10.6364C10.1845 0 9.81817 0.366328 9.81817 0.818191C9.81817 1.27005 10.1845 1.63638 10.6364 1.63638H15.2066L6.78513 10.0579C6.46567 10.3773 6.46567 10.8954 6.78513 11.2149C6.94485 11.3746 7.15424 11.4545 7.36363 11.4545C7.57302 11.4545 7.78244 11.3746 7.94212 11.2149L16.3637 2.79345V7.36365C16.3637 7.81552 16.73 8.18184 17.1819 8.18184C17.6337 8.18184 18 7.81552 18 7.36365V0.818191C18 0.366328 17.6337 0 17.1818 0Z" fill="#0055BB"/>
<path d="M13.9091 8.18178C13.4572 8.18178 13.0909 8.54811 13.0909 8.99997V16.3636H1.63635V4.90905H9C9.45186 4.90905 9.81819 4.54272 9.81819 4.09086C9.81819 3.639 9.45186 3.27271 9 3.27271H0.818191C0.366328 3.27271 0 3.63903 0 4.0909V17.1818C0 17.6336 0.366328 18 0.818191 18H13.9091C14.361 18 14.7273 17.6336 14.7273 17.1818V8.99997C14.7273 8.54811 14.3609 8.18178 13.9091 8.18178Z" fill="#0055BB"/>
</g>
<defs>
<clipPath id="clip0_505_43">
<rect width="18" height="18" fill="white"/>
</clipPath>
</defs>
</svg>
