<svg width="20" height="20" viewBox="0 0 20 20" fill="none" xmlns="http://www.w3.org/2000/svg">
<path d="M10.0322 1.60693C11.8878 1.60693 13.6674 2.34406 14.9795 3.65615C16.2916 4.96824 17.0287 6.74782 17.0287 8.60339C17.0287 11.5598 14.9513 14.7818 10.8503 18.3037C10.6222 18.4996 10.3315 18.6072 10.0309 18.6069C9.73027 18.6067 9.43972 18.4986 9.21203 18.3023L8.94078 18.0669C5.02133 14.6369 3.03577 11.4938 3.03577 8.60339C3.03577 6.74782 3.77289 4.96824 5.08498 3.65615C6.39707 2.34406 8.17665 1.60693 10.0322 1.60693ZM10.0322 5.91245C9.31854 5.91245 8.63409 6.19596 8.12944 6.70061C7.62479 7.20526 7.34128 7.88971 7.34128 8.60339C7.34128 9.31708 7.62479 10.0015 8.12944 10.5062C8.63409 11.0108 9.31854 11.2943 10.0322 11.2943C10.7459 11.2943 11.4304 11.0108 11.935 10.5062C12.4397 10.0015 12.7232 9.31708 12.7232 8.60339C12.7232 7.88971 12.4397 7.20526 11.935 6.70061C11.4304 6.19596 10.7459 5.91245 10.0322 5.91245Z" fill="#8E9092"/>
</svg>
