<svg width="73" height="73" viewBox="0 0 73 73" fill="none" xmlns="http://www.w3.org/2000/svg">
<g opacity="0.8" clip-path="url(#clip0_337_21560)">
<path d="M71.4112 19.0445C70.5738 15.899 68.7381 13.2367 65.5926 12.3993C59.8922 10.8749 36.5 10.7354 36.5 10.7354C36.5 10.7354 13.1078 10.8749 7.40735 12.3993C4.26191 13.2367 2.43691 15.899 1.58882 19.0445C0.0644118 24.7449 0 36.5001 0 36.5001C0 36.5001 0.0644118 48.2552 1.58882 53.9556C2.42618 57.1011 4.26191 59.7634 7.40735 60.6008C13.1078 62.1252 36.5 62.2648 36.5 62.2648C36.5 62.2648 59.8922 62.1252 65.5926 60.6008C68.7381 59.7634 70.5738 57.1011 71.4112 53.9556C72.9356 48.2552 73 36.5001 73 36.5001C73 36.5001 72.9356 24.7449 71.4112 19.0445Z" fill="#333333"/>
<path d="M48.3089 36.4999L28.9854 25.7646V47.2352" fill="white"/>
</g>
<defs>
<clipPath id="clip0_337_21560">
<rect width="73" height="73" fill="white"/>
</clipPath>
</defs>
</svg>
