<svg width="40" height="40" viewBox="0 0 40 40" fill="none" xmlns="http://www.w3.org/2000/svg">
<circle cx="20" cy="20" r="20" fill="#0055BB"/>
<g clip-path="url(#clip0_419_975)">
<path d="M28.6217 24.8725C28.5679 24.7824 28.2354 24.0599 26.6353 22.5748C24.9602 21.0197 25.1852 21.2722 27.2028 18.5832C28.4317 16.9456 28.9229 15.9455 28.7692 15.518C28.6229 15.1105 27.7191 15.218 27.7191 15.218L24.7139 15.2355C24.7139 15.2355 24.4914 15.2055 24.3251 15.3042C24.1638 15.4018 24.0601 15.6268 24.0601 15.6268C24.0601 15.6268 23.5838 16.8944 22.9488 17.9719C21.6099 20.2459 21.0736 20.3659 20.8549 20.2246C20.3461 19.8958 20.4736 18.902 20.4736 18.197C20.4736 15.993 20.8073 15.0742 19.8223 14.8367C19.4948 14.758 19.2547 14.7054 18.4184 14.6967C17.3458 14.6854 16.437 14.7004 15.9232 14.9517C15.5807 15.1192 15.3169 15.493 15.4782 15.5143C15.677 15.5405 16.127 15.6355 16.3658 15.9605C16.6745 16.3793 16.6633 17.3219 16.6633 17.3219C16.6633 17.3219 16.8408 19.9158 16.2495 20.2384C15.8432 20.4596 15.2869 20.0083 14.0931 17.9444C13.4818 16.8881 13.0193 15.7193 13.0193 15.7193C13.0193 15.7193 12.9305 15.5018 12.7718 15.3855C12.5792 15.2442 12.3092 15.1992 12.3092 15.1992L9.4515 15.2167C9.4515 15.2167 9.02272 15.2292 8.86521 15.4155C8.7252 15.5818 8.85396 15.9243 8.85396 15.9243C8.85396 15.9243 11.0916 21.1584 13.6243 23.7974C15.9482 26.2163 18.5859 26.0575 18.5859 26.0575H19.781C19.781 26.0575 20.1423 26.0175 20.3261 25.8188C20.4961 25.6363 20.4898 25.2937 20.4898 25.2937C20.4898 25.2937 20.4661 23.6899 21.2111 23.4536C21.9449 23.2211 22.8875 25.0037 23.8863 25.69C24.6414 26.2088 25.2152 26.095 25.2152 26.095L27.8866 26.0575C27.8866 26.0575 29.2842 25.9713 28.6217 24.8725Z" fill="white"/>
</g>
<defs>
<clipPath id="clip0_419_975">
<rect width="20" height="20" fill="white" transform="translate(8.79993 10.3999)"/>
</clipPath>
</defs>
</svg>
