<svg width="40" height="40" viewBox="0 0 40 40" fill="none" xmlns="http://www.w3.org/2000/svg">
<circle cx="20" cy="20" r="20" fill="#0055BB"/>
<path d="M24.9025 13H11V28H14.8695V23.1199H22.2841L25.6671 28H30L26.2695 23.0975C27.4281 22.9176 28.2622 22.4903 28.772 21.8156C29.2817 21.141 29.5366 20.0615 29.5366 18.6222V17.4978C29.5366 16.6432 29.444 15.9686 29.2817 15.4513C29.1195 14.934 28.8415 14.4843 28.4476 14.0795C28.0305 13.6972 27.5671 13.4273 27.011 13.2474C26.4549 13.0899 25.7597 13 24.9025 13ZM24.2769 19.8141H14.8695V16.3058H24.2769C24.8098 16.3058 25.1805 16.3958 25.3659 16.5532C25.5512 16.7106 25.6671 17.003 25.6671 17.4303V18.6897C25.6671 19.1395 25.5512 19.4318 25.3659 19.5892C25.1805 19.7466 24.8098 19.8141 24.2769 19.8141Z" fill="white"/>
</svg>
