<svg width="24" height="24" viewBox="0 0 24 24" fill="none" xmlns="http://www.w3.org/2000/svg">
<g clip-path="url(#clip0_392_13239)">
<path d="M21.5001 4.00008H18.8334V6.00008C18.8334 6.19268 18.7955 6.3834 18.7218 6.56135C18.6481 6.73929 18.54 6.90097 18.4038 7.03717C18.2677 7.17336 18.106 7.28139 17.928 7.3551C17.7501 7.42881 17.5594 7.46674 17.3668 7.46674C17.1742 7.46674 16.9834 7.42881 16.8055 7.3551C16.6275 7.28139 16.4659 7.17336 16.3297 7.03717C16.1935 6.90097 16.0854 6.73929 16.0117 6.56135C15.938 6.3834 15.9001 6.19268 15.9001 6.00008V4.00008H8.13342V6.00008C8.13342 6.38906 7.9789 6.76211 7.70385 7.03717C7.42879 7.31222 7.05574 7.46674 6.66676 7.46674C6.27777 7.46674 5.90472 7.31222 5.62967 7.03717C5.35461 6.76211 5.20009 6.38906 5.20009 6.00008V4.00008H2.53342C2.37477 3.99827 2.21737 4.0283 2.07053 4.08838C1.92368 4.14847 1.79038 4.23739 1.6785 4.34989C1.56662 4.46239 1.47844 4.59619 1.41917 4.74336C1.35989 4.89054 1.33074 5.0481 1.33342 5.20674V20.1267C1.33077 20.2826 1.35885 20.4374 1.41605 20.5824C1.47325 20.7274 1.55846 20.8597 1.6668 20.9717C1.77514 21.0838 1.90449 21.1734 2.04747 21.2355C2.19045 21.2975 2.34425 21.3308 2.50009 21.3334H21.5001C21.6559 21.3308 21.8097 21.2975 21.9527 21.2355C22.0957 21.1734 22.225 21.0838 22.3334 20.9717C22.4417 20.8597 22.5269 20.7274 22.5841 20.5824C22.6413 20.4374 22.6694 20.2826 22.6668 20.1267V5.20674C22.6694 5.0509 22.6413 4.89607 22.5841 4.75108C22.5269 4.60609 22.4417 4.47379 22.3334 4.36174C22.225 4.24968 22.0957 4.16007 21.9527 4.09802C21.8097 4.03596 21.6559 4.00268 21.5001 4.00008ZM6.66676 17.3334H5.33342V16.0001H6.66676V17.3334ZM6.66676 14.0001H5.33342V12.6667H6.66676V14.0001ZM6.66676 10.6667H5.33342V9.33341H6.66676V10.6667ZM10.6668 17.3334H9.33342V16.0001H10.6668V17.3334ZM10.6668 14.0001H9.33342V12.6667H10.6668V14.0001ZM10.6668 10.6667H9.33342V9.33341H10.6668V10.6667ZM14.6668 17.3334H13.3334V16.0001H14.6668V17.3334ZM14.6668 14.0001H13.3334V12.6667H14.6668V14.0001ZM14.6668 10.6667H13.3334V9.33341H14.6668V10.6667ZM18.6668 17.3334H17.3334V16.0001H18.6668V17.3334ZM18.6668 14.0001H17.3334V12.6667H18.6668V14.0001ZM18.6668 10.6667H17.3334V9.33341H18.6668V10.6667Z" fill="#00B2DD"/>
<path d="M6.66667 6.66683C6.84348 6.66683 7.01305 6.59659 7.13807 6.47157C7.2631 6.34654 7.33333 6.17697 7.33333 6.00016V2.00016C7.33333 1.82335 7.2631 1.65378 7.13807 1.52876C7.01305 1.40373 6.84348 1.3335 6.66667 1.3335C6.48986 1.3335 6.32029 1.40373 6.19526 1.52876C6.07024 1.65378 6 1.82335 6 2.00016V6.00016C6 6.17697 6.07024 6.34654 6.19526 6.47157C6.32029 6.59659 6.48986 6.66683 6.66667 6.66683Z" fill="#00B2DD"/>
<path d="M17.3334 6.66683C17.5102 6.66683 17.6798 6.59659 17.8048 6.47157C17.9298 6.34654 18.0001 6.17697 18.0001 6.00016V2.00016C18.0001 1.82335 17.9298 1.65378 17.8048 1.52876C17.6798 1.40373 17.5102 1.3335 17.3334 1.3335C17.1566 1.3335 16.987 1.40373 16.862 1.52876C16.737 1.65378 16.6667 1.82335 16.6667 2.00016V6.00016C16.6667 6.17697 16.737 6.34654 16.862 6.47157C16.987 6.59659 17.1566 6.66683 17.3334 6.66683Z" fill="#00B2DD"/>
</g>
<defs>
<clipPath id="clip0_392_13239">
<rect width="24" height="24" fill="white"/>
</clipPath>
</defs>
</svg>
