<svg width="24" height="24" viewBox="0 0 24 24" fill="none" xmlns="http://www.w3.org/2000/svg">
<path d="M22.7999 12.5999C22.7999 15.3051 21.7253 17.8995 19.8124 19.8124C17.8995 21.7253 15.3051 22.7999 12.5999 22.7999C9.89469 22.7999 7.30028 21.7253 5.38741 19.8124C3.47454 17.8995 2.3999 15.3051 2.3999 12.5999C2.3999 9.89469 3.47454 7.30028 5.38741 5.38741C7.30028 3.47454 9.89469 2.3999 12.5999 2.3999C15.3051 2.3999 17.8995 3.47454 19.8124 5.38741C21.7253 7.30028 22.7999 9.89469 22.7999 12.5999ZM12.5999 6.8624C12.5999 6.69333 12.5327 6.53118 12.4132 6.41162C12.2936 6.29207 12.1315 6.2249 11.9624 6.2249C11.7933 6.2249 11.6312 6.29207 11.5116 6.41162C11.3921 6.53118 11.3249 6.69333 11.3249 6.8624V13.8749C11.3249 13.9873 11.3547 14.0976 11.4111 14.1948C11.4675 14.292 11.5486 14.3725 11.6462 14.4283L16.1087 16.9783C16.2551 17.0574 16.4267 17.0761 16.5868 17.0304C16.7469 16.9847 16.8827 16.8782 16.9653 16.7337C17.0479 16.5892 17.0707 16.4181 17.0288 16.257C16.9869 16.0959 16.8836 15.9575 16.7411 15.8716L12.5999 13.5052V6.8624Z" fill="#00B2DD"/>
</svg>
