<svg width="20" height="20" viewBox="0 0 20 20" fill="none" xmlns="http://www.w3.org/2000/svg">
<path d="M10.0321 1.60693C11.8877 1.60693 13.6673 2.34406 14.9794 3.65615C16.2914 4.96824 17.0286 6.74782 17.0286 8.60339C17.0286 11.5598 14.9512 14.7818 10.8502 18.3037C10.6221 18.4996 10.3314 18.6072 10.0308 18.6069C9.73014 18.6067 9.43959 18.4986 9.21191 18.3023L8.94066 18.0669C5.0212 14.6369 3.03564 11.4938 3.03564 8.60339C3.03564 6.74782 3.77277 4.96824 5.08486 3.65615C6.39695 2.34406 8.17653 1.60693 10.0321 1.60693ZM10.0321 5.91245C9.31842 5.91245 8.63397 6.19596 8.12932 6.70061C7.62467 7.20526 7.34116 7.88971 7.34116 8.60339C7.34116 9.31708 7.62467 10.0015 8.12932 10.5062C8.63397 11.0108 9.31842 11.2943 10.0321 11.2943C10.7458 11.2943 11.4302 11.0108 11.9349 10.5062C12.4395 10.0015 12.7231 9.31708 12.7231 8.60339C12.7231 7.88971 12.4395 7.20526 11.9349 6.70061C11.4302 6.19596 10.7458 5.91245 10.0321 5.91245Z" fill="#484F5E"/>
</svg>
