<svg width="40" height="40" viewBox="0 0 40 40" fill="none" xmlns="http://www.w3.org/2000/svg">
<circle cx="20" cy="20" r="20" fill="#0055BB"/>
<g clip-path="url(#clip0_419_981)">
<path d="M19.1719 24.0874C17.6214 23.9257 16.2234 23.5439 15.0266 22.6078C14.878 22.4913 14.7247 22.379 14.5892 22.2489C14.0653 21.7458 14.0125 21.1696 14.4271 20.5757C14.7817 20.0676 15.377 19.9316 15.9958 20.2234C16.1156 20.28 16.2297 20.3506 16.3391 20.4264C18.5697 21.959 21.6339 22.0013 23.8729 20.4953C24.0947 20.3252 24.3319 20.1865 24.6067 20.1157C25.141 19.9785 25.6393 20.1748 25.9261 20.6423C26.2537 21.1763 26.2495 21.6974 25.8459 22.1119C25.2267 22.7475 24.482 23.2072 23.6547 23.5281C22.8723 23.8314 22.0154 23.9842 21.1673 24.0855C21.2952 24.2248 21.3556 24.2933 21.4356 24.3738C22.5872 25.5308 23.7439 26.6831 24.8918 27.8438C25.2828 28.2392 25.3645 28.7296 25.1492 29.1896C24.9138 29.6923 24.3867 30.023 23.87 29.9876C23.5426 29.965 23.2873 29.8021 23.0604 29.5735C22.1913 28.699 21.3059 27.8406 20.4544 26.9496C20.2066 26.6904 20.0875 26.7395 19.8688 26.9644C18.9945 27.8645 18.1059 28.7508 17.2121 29.632C16.8108 30.0277 16.3332 30.0989 15.8678 29.8729C15.373 29.633 15.0582 29.128 15.0825 28.6205C15.0992 28.2771 15.2681 28.0149 15.5037 27.7797C16.6434 26.6416 17.78 25.5007 18.917 24.3608C18.9922 24.2849 19.0623 24.2045 19.1719 24.0874Z" fill="white"/>
<path d="M20.1164 20.1233C17.3504 20.1139 15.0823 17.8208 15.0984 15.0504C15.1143 12.2495 17.3839 9.99227 20.1771 10C22.976 10.0076 25.2225 12.2972 25.2085 15.1273C25.1942 17.8921 22.9104 20.1329 20.1164 20.1233ZM22.6302 15.0571C22.6254 13.6816 21.5298 12.5865 20.157 12.5852C18.7727 12.5838 17.6673 13.6988 17.678 15.0869C17.6882 16.4572 18.7932 17.5446 20.1698 17.5395C21.5422 17.5347 22.6348 16.4325 22.6302 15.0571Z" fill="white"/>
</g>
<defs>
<clipPath id="clip0_419_981">
<rect width="20" height="20" fill="white" transform="translate(10.1562 10)"/>
</clipPath>
</defs>
</svg>
