<svg width="162" height="80" viewBox="0 0 162 80" fill="none" xmlns="http://www.w3.org/2000/svg">
<path d="M43.1841 39.977C46.3385 33.9552 48.817 27.7075 50.3191 22.4384C49.7183 22.3631 49.1925 22.2878 48.5917 22.2878C47.1647 27.2559 44.8364 33.2777 41.6819 39.2243C41.0811 40.3534 40.4802 41.4072 39.8794 42.4611C40.7056 42.16 41.5317 41.8589 42.3579 41.5578C42.6583 41.0309 42.9587 40.504 43.1841 39.977Z" fill="white"/>
<path d="M21.0268 28.2345C21.4024 27.557 21.7779 26.8043 22.1534 26.1268C21.3273 26.3527 20.5011 26.6537 19.75 26.8796C19.6749 27.0301 19.5998 27.1807 19.5247 27.3312C15.9948 33.9552 13.5163 40.4287 12.0142 46.2247C12.615 46.3 13.1407 46.3 13.8167 46.3753C15.1686 41.0309 17.572 34.8585 21.0268 28.2345Z" fill="white"/>
<path d="M17.6475 36.5142C17.4222 37.1163 17.1218 37.7185 16.8965 38.3207C19.375 40.5789 22.5294 42.6866 26.1345 44.4178C29.8147 46.2244 33.5699 47.4288 37.175 48.0309C37.5505 47.504 37.9261 46.9018 38.2265 46.3749C34.6214 45.9233 30.7159 44.7189 26.9606 42.8371C23.2805 41.1058 20.126 38.8476 17.6475 36.5142Z" fill="white"/>
<path d="M49.342 32.9013C46.488 29.0623 41.9065 25.5245 36.574 22.9652C31.3917 20.4059 25.909 19.051 21.2524 19.051C16.0701 19.051 12.39 20.707 10.8879 23.7932C9.01021 27.5569 10.963 32.6002 15.4693 37.1918C15.6946 36.5897 15.995 35.9122 16.2204 35.31C12.6904 31.4711 11.0381 27.4816 12.4651 24.6212C13.5917 22.2125 16.8212 20.8576 21.1773 20.8576C25.6086 20.8576 30.7158 22.2125 35.7478 24.6212C40.855 27.1052 45.1361 30.4925 47.8399 34.0304C50.3935 37.4177 51.2196 40.5791 50.093 42.9126C48.9665 45.3213 45.7369 46.6763 41.3808 46.6763C40.9301 46.6763 40.5546 46.6763 40.104 46.601C39.7285 47.2032 39.3529 47.8054 38.9774 48.3323C39.8036 48.4075 40.5546 48.4828 41.3808 48.4828C46.5631 48.4828 50.2433 46.8268 51.7454 43.7406C53.2475 40.6544 52.3462 36.8908 49.342 32.9013Z" fill="white"/>
<path d="M38.4519 44.7199C31.2418 56.4625 22.5295 64.8178 17.0468 64.8178C16.2957 64.8178 15.6949 64.6673 15.0941 64.3662C12.0898 62.7854 11.3388 56.7636 13.2915 48.1825C12.6907 48.1825 12.0898 48.1072 11.5641 48.0319C9.61134 56.9894 10.4375 63.764 14.343 65.8716C15.1692 66.3233 16.0704 66.5491 17.0468 66.5491C23.581 66.5491 33.0443 57.441 40.9304 43.9672C40.1794 44.193 39.3532 44.4941 38.4519 44.7199Z" fill="white"/>
<path d="M33.6437 43.5904C32.2166 43.8915 30.7896 44.1925 29.4377 44.4936C30.5643 44.9453 31.6909 45.3216 32.8175 45.698C33.2681 45.6227 33.6437 45.5475 34.0943 45.3969C40.0276 44.042 45.6606 42.0849 50.242 39.8267C50.1669 39.2245 49.9416 38.6976 49.7163 38.0201C45.1348 40.2783 39.577 42.2354 33.6437 43.5904Z" fill="white"/>
<path d="M11.7881 27.9336C11.8632 28.5358 12.0134 29.138 12.2387 29.7402C16.67 27.482 22.378 25.299 29.0624 23.7936C29.8886 23.5678 30.7147 23.4172 31.5409 23.2667C30.3392 22.815 29.2126 22.4387 28.086 22.1376C21.8522 23.643 16.2944 25.6754 11.7881 27.9336Z" fill="white"/>
<path d="M26.058 45.0199C22.9036 45.4715 19.8994 45.6973 17.0453 45.6973C8.5584 45.6973 2.77526 43.7403 2.0242 40.5035C1.42335 37.7937 4.50269 34.1053 10.5111 30.6427C10.2858 30.0405 10.1356 29.4384 9.9854 28.8362C3.22588 32.6751 -0.679609 37.0409 0.22166 40.8799C1.19803 45.0952 7.28159 47.5039 16.9702 47.5039C20.7255 47.5039 24.8563 47.1275 29.0623 46.3748C28.161 45.9232 27.1095 45.4715 26.058 45.0199Z" fill="white"/>
<path d="M62.4092 26.5032C61.4328 22.2879 55.3492 19.8792 45.6606 19.8792C41.3796 19.8792 36.5728 20.4061 31.6909 21.3093C32.7424 21.6857 33.7939 22.1373 34.9205 22.589C38.6758 21.9868 42.2808 21.6857 45.6606 21.6857C54.1475 21.6857 59.9307 23.6428 60.6817 26.8796C61.2826 29.3636 58.8041 32.525 53.9973 35.6112C53.1712 36.1382 52.2699 36.6651 51.3686 37.1167C51.5939 37.7189 51.8193 38.3211 51.9695 38.848C53.021 38.2458 54.0724 37.7189 54.9737 37.0414C60.4564 33.5789 63.1602 29.8152 62.4092 26.5032Z" fill="white"/>
<path d="M23.5044 23.8684C24.1803 22.8146 24.7812 21.7608 25.4571 20.707C24.7812 20.6317 24.1803 20.4811 23.5044 20.4811C22.6782 21.8361 21.852 23.191 21.0259 24.6212C21.852 24.3201 22.6782 24.0943 23.5044 23.8684Z" fill="white"/>
<path d="M26.5829 19.0509C33.2673 9.26543 40.7028 2.56612 45.5846 2.56612C46.3357 2.56612 46.9365 2.71667 47.5374 3.01776C50.6918 4.67377 51.3678 11.4484 48.9644 20.8575C49.5652 20.9328 50.1661 21.008 50.6918 21.0833C53.1703 11.2978 52.4944 3.77049 48.3635 1.5123C47.5374 1.06066 46.6361 0.834839 45.5846 0.834839C39.8766 0.834839 31.8403 7.83524 24.6301 18.7498C25.231 18.8251 25.9069 18.9004 26.5829 19.0509Z" fill="white"/>
<path fill-rule="evenodd" clip-rule="evenodd" d="M35.9707 33.8795C35.9707 36.6646 33.7175 38.9228 30.9386 38.9228C28.1597 38.9228 25.9065 36.6646 25.9065 33.8795C25.9065 31.0944 28.1597 28.8362 30.9386 28.8362C33.7175 28.8362 35.9707 31.0944 35.9707 33.8795Z" fill="white"/>
<path d="M106.271 44.8699V38.547H99.9625V44.8699H96.7329V29.439H99.9625V35.6866H106.271V29.439H109.501V44.7947H106.271V44.8699Z" fill="white"/>
<path d="M123.546 44.8699V35.1597L115.81 44.8699H113.932V29.439H117.162V39.1492L124.898 29.439H126.775V44.7947H123.546V44.8699Z" fill="white"/>
<path d="M139.768 44.8696V41.106H137.965C136.388 41.1812 135.937 41.4823 134.661 43.3642L133.609 44.8696H130.004L131.431 42.8373C132.483 41.3318 133.159 40.5791 133.91 40.1274C131.656 39.2994 130.38 37.5681 130.38 35.3099C130.38 32.0732 132.858 29.5139 137.44 29.5139H142.997V44.8696H139.768ZM137.139 32.299C135.036 32.299 133.384 33.2776 133.384 35.2347C133.384 37.267 135.036 38.1703 137.139 38.1703H139.768V32.2238H137.139V32.299Z" fill="white"/>
<path d="M149.007 44.8699L152.386 39.2997L146.453 29.439H150.133L154.264 36.1383L158.32 29.439H162L152.687 44.7947H149.007V44.8699Z" fill="white"/>
<path d="M65.5631 79.7217V59.8496L56.1749 71.6675L46.7866 59.8496V79.7217H42.5056V51.7954H44.9841L56.1749 65.9468L67.3656 51.7954H69.8441V79.7217H65.5631V79.7217Z" fill="white"/>
<path d="M90.5732 79.7217V60.0002L75.8525 79.7217H73.374V51.7954H77.655V71.517L92.3758 51.7954H94.8543V79.7217H90.5732Z" fill="white"/>
<path d="M157.417 79.7217V60.0002L142.697 79.7217H140.218V51.7954H144.499V71.517L159.22 51.7954H161.698V79.7217H157.417Z" fill="white"/>
<path d="M127.374 52.774C124.07 52.774 121.216 54.5052 119.714 56.914V51.7954H115.433V64.366C115.433 68.6566 112.278 71.818 108.147 71.818C104.092 71.818 100.862 68.7319 100.862 64.366C100.862 60.0754 104.017 56.914 108.147 56.914C110.325 56.914 112.203 57.8173 113.48 59.2474V54.8816C111.903 53.602 109.95 52.8492 107.697 52.8492C101.012 52.8492 96.5811 57.9678 96.5811 64.366C96.5811 70.7642 101.087 75.8828 107.697 75.8828C111.001 75.8828 113.855 74.2268 115.357 71.7428V79.797H119.714V63.8391C120.014 59.8496 123.018 56.914 126.924 56.914C130.979 56.914 134.209 60.0754 134.209 64.366C134.209 68.6566 131.055 71.818 126.924 71.818C124.821 71.818 122.943 70.99 121.591 69.5599V74.001C123.093 75.2053 125.121 75.9581 127.299 75.9581C133.909 75.9581 138.415 70.9148 138.415 64.4413C138.49 57.8925 133.984 52.774 127.374 52.774Z" fill="white"/>
</svg>
