<svg width="1805" height="20" viewBox="0 0 1805 20" fill="none" xmlns="http://www.w3.org/2000/svg">
<path d="M79.9858 20L89.9858 10.0001L79.9858 0.00015398L89.9858 0.000153543L99.9857 10.0001L89.9858 20L79.9858 20Z" fill="#0055BB"/>
<path d="M19.9998 20L29.9952 10.0001L19.9998 0.00015398L29.9952 0.000153543L39.9951 10.0001L29.9952 20L19.9998 20Z" fill="#CCCCCC"/>
<path d="M69.9905 20L79.9859 10.0001L69.9905 0.00015398L79.9859 0.000153543L89.9858 10.0001L79.9859 20L69.9905 20Z" fill="#003366"/>
<path d="M9.99976 20L19.9997 10.0001L9.99975 0.00015398L19.9997 0.000153543L29.9951 10.0001L19.9997 20L9.99976 20Z" fill="#00BBEE"/>
<path d="M59.9905 20L69.9904 10.0001L59.9905 0.00015398L69.9904 0.000153543L79.9858 10.0001L69.9904 20L59.9905 20Z" fill="#CAF9FE"/>
<path d="M49.9951 20L59.9905 10.0001L49.9951 0.00015398L59.9905 0.000153543L69.9905 10.0001L59.9905 20L49.9951 20Z" fill="#FF5000"/>
<path d="M39.9951 20L49.995 10.0001L39.9951 0.00015398L49.995 0.000153543L59.9905 10.0001L49.995 20L39.9951 20Z" fill="#8C0B07"/>
<path d="M29.9954 20L39.9953 10.0001L29.9954 0.00015398L39.9953 0.000153543L49.9952 10.0001L39.9953 20L29.9954 20Z" fill="#003366"/>
<path d="M169.846 20L179.846 10.0001L169.846 0.00015398L179.846 0.000153543L189.846 10.0001L179.846 20L169.846 20Z" fill="#FF5000"/>
<path d="M109.86 20L119.856 10.0001L109.86 0.00015398L119.856 0.000153543L129.856 10.0001L119.856 20L109.86 20Z" fill="#8C0B07"/>
<path d="M159.851 20L169.846 10.0001L159.851 0.00015398L169.846 0.000153543L179.846 10.0001L169.846 20L159.851 20Z" fill="#8C0B07"/>
<path d="M99.8606 20L109.861 10.0001L99.8606 0.00015398L109.861 0.000153543L119.856 10.0001L109.861 20L99.8606 20Z" fill="#CAF9FE"/>
<path d="M149.851 20L159.851 10.0001L149.851 0.00015398L159.851 0.000153543L169.846 10.0001L159.851 20L149.851 20Z" fill="#00BBEE"/>
<path d="M139.856 20L149.851 10.0001L139.856 0.00015398L149.851 0.000153543L159.851 10.0001L149.851 20L139.856 20Z" fill="#CCCCCC"/>
<path d="M129.856 20L139.856 10.0001L129.856 0.00015398L139.856 0.000153543L149.851 10.0001L139.856 20L129.856 20Z" fill="#0055BB"/>
<path d="M119.856 20L129.856 10.0001L119.856 0.00015398L129.856 0.000153543L139.856 10.0001L129.856 20L119.856 20Z" fill="#00BBEE"/>
<path d="M259.707 19.9951L269.707 9.9997L259.707 -0.000227541L269.707 -0.000227978L279.707 9.9997L269.707 19.9951L259.707 19.9951Z" fill="#00BBEE"/>
<path d="M199.721 19.9951L209.716 9.9997L199.721 -0.000227541L209.716 -0.000227978L219.716 9.9997L209.716 19.9951L199.721 19.9951Z" fill="#CCCCCC"/>
<path d="M249.711 19.9951L259.707 9.9997L249.711 -0.000227541L259.707 -0.000227978L269.707 9.9997L259.707 19.9951L249.711 19.9951Z" fill="#CAF9FE"/>
<path d="M189.721 19.9951L199.721 9.9997L189.721 -0.000227541L199.721 -0.000227978L209.716 9.9997L199.721 19.9951L189.721 19.9951Z" fill="#0055BB"/>
<path d="M239.712 19.9951L249.712 9.9997L239.712 -0.000227541L249.712 -0.000227978L259.707 9.9997L249.712 19.9951L239.712 19.9951Z" fill="#0055BB"/>
<path d="M229.716 19.9951L239.711 9.9997L229.716 -0.000227541L239.711 -0.000227978L249.711 9.9997L239.711 19.9951L229.716 19.9951Z" fill="#8C0B07"/>
<path d="M219.716 19.9951L229.716 9.9997L219.716 -0.000227541L229.716 -0.000227978L239.712 9.9997L229.716 19.9951L219.716 19.9951Z" fill="#FF5000"/>
<path d="M209.716 19.9951L219.716 9.9997L209.716 -0.000227541L219.716 -0.000227978L229.716 9.9997L219.716 19.9951L209.716 19.9951Z" fill="#003366"/>
<path d="M269.582 19.9956L279.582 10.0002L269.582 0.000260741L279.582 0.000260304L289.582 10.0002L279.582 19.9956L269.582 19.9956Z" fill="#8C0B07"/>
<path d="M349.568 19.9956L359.568 10.0002L349.568 0.000260741L359.568 0.000260304L369.567 10.0002L359.568 19.9956L349.568 19.9956Z" fill="#8C0B07"/>
<path d="M179.721 19.9951L189.721 9.9997L179.721 -0.000227541L189.721 -0.000227978L199.721 9.9997L189.721 19.9951L179.721 19.9951Z" fill="#00BBEE"/>
<path d="M289.582 19.9956L299.577 10.0002L289.582 0.000260741L299.577 0.000260304L309.577 10.0002L299.577 19.9956L289.582 19.9956Z" fill="#FF5000"/>
<path d="M339.572 19.9956L349.567 10.0002L339.572 0.000260741L349.567 0.000260304L359.567 10.0002L349.567 19.9956L339.572 19.9956Z" fill="#FF5000"/>
<path d="M279.582 19.9956L289.582 10.0002L279.582 0.000260741L289.582 0.000260304L299.577 10.0002L289.582 19.9956L279.582 19.9956Z" fill="#003366"/>
<path d="M0 20L9.99992 10.0001L-8.74221e-07 0.00015398L9.99992 0.000153543L19.9998 10.0001L9.99992 20L0 20Z" fill="#0055BB"/>
<path d="M89.8606 20L99.8605 10.0001L89.8606 0.00015398L99.8605 0.000153543L109.86 10.0001L99.8605 20L89.8606 20Z" fill="#FF5000"/>
<path d="M329.572 19.9956L339.572 10.0002L329.572 0.000260741L339.572 0.000260304L349.568 10.0002L339.572 19.9956L329.572 19.9956Z" fill="#CCCCCC"/>
<path d="M319.577 19.9956L329.572 10.0002L319.577 0.000260741L329.572 0.000260304L339.572 10.0002L329.572 19.9956L319.577 19.9956Z" fill="#003366"/>
<path d="M309.577 19.9956L319.577 10.0002L309.577 0.000260741L319.577 0.000260304L329.572 10.0002L319.577 19.9956L309.577 19.9956Z" fill="#0055BB"/>
<path d="M299.577 19.9956L309.577 10.0002L299.577 0.000260741L309.577 0.000260304L319.577 10.0002L309.577 19.9956L299.577 19.9956Z" fill="#00BBEE"/>
<path d="M439.319 20L449.319 10.0001L439.319 0.00015398L449.319 0.000153543L459.319 10.0001L449.319 20L439.319 20Z" fill="#0055BB"/>
<path d="M379.333 20L389.328 10.0001L379.333 0.00015398L389.328 0.000153543L399.328 10.0001L389.328 20L379.333 20Z" fill="#CCCCCC"/>
<path d="M429.324 20L439.319 10.0001L429.324 0.00015398L439.319 0.000153543L449.319 10.0001L439.319 20L429.324 20Z" fill="#003366"/>
<path d="M369.333 20L379.333 10.0001L369.333 0.00015398L379.333 0.000153543L389.328 10.0001L379.333 20L369.333 20Z" fill="#00BBEE"/>
<path d="M419.324 20L429.324 10.0001L419.324 0.00015398L429.324 0.000153543L439.319 10.0001L429.324 20L419.324 20Z" fill="#CAF9FE"/>
<path d="M409.328 20L419.324 10.0001L409.328 0.00015398L419.324 0.000153543L429.324 10.0001L419.324 20L409.328 20Z" fill="#FF5000"/>
<path d="M399.329 20L409.329 10.0001L399.329 0.00015398L409.329 0.000153543L419.324 10.0001L409.329 20L399.329 20Z" fill="#8C0B07"/>
<path d="M389.329 20L399.329 10.0001L389.329 0.00015398L399.329 0.000153543L409.328 10.0001L399.329 20L389.329 20Z" fill="#003366"/>
<path d="M529.18 20L539.18 10.0001L529.18 0.00015398L539.18 0.000153543L549.18 10.0001L539.18 20L529.18 20Z" fill="#FF5000"/>
<path d="M469.194 20L479.189 10.0001L469.194 0.00015398L479.189 0.000153543L489.189 10.0001L479.189 20L469.194 20Z" fill="#8C0B07"/>
<path d="M519.184 20L529.18 10.0001L519.184 0.00015398L529.18 0.000153543L539.179 10.0001L529.18 20L519.184 20Z" fill="#8C0B07"/>
<path d="M459.194 20L469.194 10.0001L459.194 0.00015398L469.194 0.000153543L479.189 10.0001L469.194 20L459.194 20Z" fill="#CAF9FE"/>
<path d="M509.184 20L519.184 10.0001L509.184 0.00015398L519.184 0.000153543L529.179 10.0001L519.184 20L509.184 20Z" fill="#00BBEE"/>
<path d="M499.189 20L509.184 10.0001L499.189 0.00015398L509.184 0.000153543L519.184 10.0001L509.184 20L499.189 20Z" fill="#CCCCCC"/>
<path d="M489.189 20L499.189 10.0001L489.189 0.00015398L499.189 0.000153543L509.184 10.0001L499.189 20L489.189 20Z" fill="#0055BB"/>
<path d="M479.189 20L489.189 10.0001L479.189 0.00015398L489.189 0.000153543L499.189 10.0001L489.189 20L479.189 20Z" fill="#00BBEE"/>
<path d="M619.04 19.9951L629.04 9.9997L619.04 -0.000227541L629.04 -0.000227978L639.04 9.9997L629.04 19.9951L619.04 19.9951Z" fill="#00BBEE"/>
<path d="M559.054 19.9951L569.05 9.9997L559.054 -0.000227541L569.05 -0.000227978L579.05 9.9997L569.05 19.9951L559.054 19.9951Z" fill="#CCCCCC"/>
<path d="M609.045 19.9951L619.04 9.9997L609.045 -0.000227541L619.04 -0.000227978L629.04 9.9997L619.04 19.9951L609.045 19.9951Z" fill="#CAF9FE"/>
<path d="M549.054 19.9951L559.054 9.9997L549.054 -0.000227541L559.054 -0.000227978L569.05 9.9997L559.054 19.9951L549.054 19.9951Z" fill="#0055BB"/>
<path d="M599.045 19.9951L609.045 9.9997L599.045 -0.000227541L609.045 -0.000227978L619.04 9.9997L609.045 19.9951L599.045 19.9951Z" fill="#0055BB"/>
<path d="M589.049 19.9951L599.045 9.9997L589.049 -0.000227541L599.045 -0.000227978L609.045 9.9997L599.045 19.9951L589.049 19.9951Z" fill="#8C0B07"/>
<path d="M579.05 19.9951L589.049 9.9997L579.05 -0.000227541L589.049 -0.000227978L599.045 9.9997L589.049 19.9951L579.05 19.9951Z" fill="#FF5000"/>
<path d="M569.05 19.9951L579.049 9.9997L569.05 -0.000227541L579.049 -0.000227978L589.049 9.9997L579.049 19.9951L569.05 19.9951Z" fill="#003366"/>
<path d="M628.915 19.9956L638.915 10.0002L628.915 0.000260741L638.915 0.000260304L648.915 10.0002L638.915 19.9956L628.915 19.9956Z" fill="#8C0B07"/>
<path d="M708.901 19.9956L718.901 10.0002L708.901 0.000260741L718.901 0.000260304L728.901 10.0002L718.901 19.9956L708.901 19.9956Z" fill="#8C0B07"/>
<path d="M539.054 19.9951L549.054 9.9997L539.054 -0.000227541L549.054 -0.000227978L559.054 9.9997L549.054 19.9951L539.054 19.9951Z" fill="#00BBEE"/>
<path d="M648.915 19.9956L658.91 10.0002L648.915 0.000260741L658.91 0.000260304L668.91 10.0002L658.91 19.9956L648.915 19.9956Z" fill="#FF5000"/>
<path d="M698.905 19.9956L708.901 10.0002L698.905 0.000260741L708.901 0.000260304L718.901 10.0002L708.901 19.9956L698.905 19.9956Z" fill="#FF5000"/>
<path d="M638.915 19.9956L648.915 10.0002L638.915 0.000260741L648.915 0.000260304L658.91 10.0002L648.915 19.9956L638.915 19.9956Z" fill="#003366"/>
<path d="M359.333 20L369.333 10.0001L359.333 0.00015398L369.333 0.000153543L379.333 10.0001L369.333 20L359.333 20Z" fill="#0055BB"/>
<path d="M449.194 20L459.194 10.0001L449.194 0.00015398L459.194 0.000153543L469.194 10.0001L459.194 20L449.194 20Z" fill="#FF5000"/>
<path d="M688.906 19.9956L698.905 10.0002L688.906 0.000260741L698.905 0.000260304L708.901 10.0002L698.905 19.9956L688.906 19.9956Z" fill="#CCCCCC"/>
<path d="M678.91 19.9956L688.906 10.0002L678.91 0.000260741L688.906 0.000260304L698.906 10.0002L688.906 19.9956L678.91 19.9956Z" fill="#003366"/>
<path d="M668.91 19.9956L678.91 10.0002L668.91 0.000260741L678.91 0.000260304L688.906 10.0002L678.91 19.9956L668.91 19.9956Z" fill="#0055BB"/>
<path d="M658.91 19.9956L668.91 10.0002L658.91 0.000260741L668.91 0.000260304L678.91 10.0002L668.91 19.9956L658.91 19.9956Z" fill="#00BBEE"/>
<path d="M798.653 20L808.653 10.0001L798.653 0.00015398L808.653 0.000153543L818.652 10.0001L808.653 20L798.653 20Z" fill="#0055BB"/>
<path d="M738.667 20L748.662 10.0001L738.667 0.00015398L748.662 0.000153543L758.662 10.0001L748.662 20L738.667 20Z" fill="#CCCCCC"/>
<path d="M788.657 20L798.652 10.0001L788.657 0.00015398L798.652 0.000153543L808.652 10.0001L798.652 20L788.657 20Z" fill="#003366"/>
<path d="M728.667 20L738.666 10.0001L728.667 0.00015398L738.666 0.000153543L748.662 10.0001L738.666 20L728.667 20Z" fill="#00BBEE"/>
<path d="M778.657 20L788.657 10.0001L778.657 0.00015398L788.657 0.000153543L798.653 10.0001L788.657 20L778.657 20Z" fill="#CAF9FE"/>
<path d="M768.662 20L778.657 10.0001L768.662 0.00015398L778.657 0.000153543L788.657 10.0001L778.657 20L768.662 20Z" fill="#FF5000"/>
<path d="M758.662 20L768.662 10.0001L758.662 0.00015398L768.662 0.000153543L778.657 10.0001L768.662 20L758.662 20Z" fill="#8C0B07"/>
<path d="M748.662 20L758.662 10.0001L748.662 0.00015398L758.662 0.000153543L768.662 10.0001L758.662 20L748.662 20Z" fill="#003366"/>
<path d="M888.513 20L898.513 10.0001L888.513 0.00015398L898.513 0.000153543L908.513 10.0001L898.513 20L888.513 20Z" fill="#FF5000"/>
<path d="M828.527 20L838.523 10.0001L828.527 0.00015398L838.523 0.000153543L848.522 10.0001L838.523 20L828.527 20Z" fill="#8C0B07"/>
<path d="M878.518 20L888.513 10.0001L878.518 0.00015398L888.513 0.000153543L898.513 10.0001L888.513 20L878.518 20Z" fill="#8C0B07"/>
<path d="M818.527 20L828.527 10.0001L818.527 0.00015398L828.527 0.000153543L838.522 10.0001L828.527 20L818.527 20Z" fill="#CAF9FE"/>
<path d="M868.518 20L878.518 10.0001L868.518 0.00015398L878.518 0.000153543L888.513 10.0001L878.518 20L868.518 20Z" fill="#00BBEE"/>
<path d="M858.522 20L868.518 10.0001L858.522 0.00015398L868.518 0.000153543L878.518 10.0001L868.518 20L858.522 20Z" fill="#CCCCCC"/>
<path d="M848.522 20L858.522 10.0001L848.522 0.00015398L858.522 0.000153543L868.518 10.0001L858.522 20L848.522 20Z" fill="#0055BB"/>
<path d="M838.522 20L848.522 10.0001L838.522 0.00015398L848.522 0.000153543L858.522 10.0001L848.522 20L838.522 20Z" fill="#00BBEE"/>
<path d="M978.374 19.9951L988.373 9.9997L978.374 -0.000227541L988.373 -0.000227978L998.373 9.9997L988.373 19.9951L978.374 19.9951Z" fill="#00BBEE"/>
<path d="M918.388 19.9951L928.383 9.9997L918.388 -0.000227541L928.383 -0.000227978L938.383 9.9997L928.383 19.9951L918.388 19.9951Z" fill="#CCCCCC"/>
<path d="M968.378 19.9951L978.374 9.9997L968.378 -0.000227541L978.374 -0.000227978L988.374 9.9997L978.374 19.9951L968.378 19.9951Z" fill="#CAF9FE"/>
<path d="M908.388 19.9951L918.388 9.9997L908.388 -0.000227541L918.388 -0.000227978L928.383 9.9997L918.388 19.9951L908.388 19.9951Z" fill="#0055BB"/>
<path d="M958.378 19.9951L968.378 9.9997L958.378 -0.000227541L968.378 -0.000227978L978.374 9.9997L968.378 19.9951L958.378 19.9951Z" fill="#0055BB"/>
<path d="M948.383 19.9951L958.378 9.9997L948.383 -0.000227541L958.378 -0.000227978L968.378 9.9997L958.378 19.9951L948.383 19.9951Z" fill="#8C0B07"/>
<path d="M938.383 19.9951L948.383 9.9997L938.383 -0.000227541L948.383 -0.000227978L958.378 9.9997L948.383 19.9951L938.383 19.9951Z" fill="#FF5000"/>
<path d="M928.383 19.9951L938.383 9.9997L928.383 -0.000227541L938.383 -0.000227978L948.383 9.9997L938.383 19.9951L928.383 19.9951Z" fill="#003366"/>
<path d="M988.249 19.9956L998.248 10.0002L988.249 0.000260741L998.248 0.000260304L1008.25 10.0002L998.248 19.9956L988.249 19.9956Z" fill="#8C0B07"/>
<path d="M1068.23 19.9956L1078.23 10.0002L1068.23 0.000260741L1078.23 0.000260304L1088.23 10.0002L1078.23 19.9956L1068.23 19.9956Z" fill="#8C0B07"/>
<path d="M898.388 19.9951L908.388 9.9997L898.388 -0.000227541L908.388 -0.000227978L918.388 9.9997L908.388 19.9951L898.388 19.9951Z" fill="#00BBEE"/>
<path d="M1008.25 19.9956L1018.24 10.0002L1008.25 0.000260741L1018.24 0.000260304L1028.24 10.0002L1018.24 19.9956L1008.25 19.9956Z" fill="#FF5000"/>
<path d="M1058.24 19.9956L1068.23 10.0002L1058.24 0.000260741L1068.23 0.000260304L1078.23 10.0002L1068.23 19.9956L1058.24 19.9956Z" fill="#FF5000"/>
<path d="M998.248 19.9956L1008.25 10.0002L998.248 0.000260741L1008.25 0.000260304L1018.24 10.0002L1008.25 19.9956L998.248 19.9956Z" fill="#003366"/>
<path d="M718.667 20L728.667 10.0001L718.667 0.00015398L728.667 0.000153543L738.667 10.0001L728.667 20L718.667 20Z" fill="#0055BB"/>
<path d="M808.527 20L818.527 10.0001L808.527 0.00015398L818.527 0.000153543L828.527 10.0001L818.527 20L808.527 20Z" fill="#FF5000"/>
<path d="M1048.24 19.9956L1058.24 10.0002L1048.24 0.000260741L1058.24 0.000260304L1068.23 10.0002L1058.24 19.9956L1048.24 19.9956Z" fill="#CCCCCC"/>
<path d="M1038.24 19.9956L1048.24 10.0002L1038.24 0.000260741L1048.24 0.000260304L1058.24 10.0002L1048.24 19.9956L1038.24 19.9956Z" fill="#003366"/>
<path d="M1028.24 19.9956L1038.24 10.0002L1028.24 0.000260741L1038.24 0.000260304L1048.24 10.0002L1038.24 19.9956L1028.24 19.9956Z" fill="#0055BB"/>
<path d="M1018.24 19.9956L1028.24 10.0002L1018.24 0.000260741L1028.24 0.000260304L1038.24 10.0002L1028.24 19.9956L1018.24 19.9956Z" fill="#00BBEE"/>
<path d="M1157.99 20L1167.99 10.0001L1157.99 0.00015398L1167.99 0.000153543L1177.99 10.0001L1167.99 20L1157.99 20Z" fill="#0055BB"/>
<path d="M1098 20L1108 10.0001L1098 0.00015398L1108 0.000153543L1118 10.0001L1108 20L1098 20Z" fill="#CCCCCC"/>
<path d="M1147.99 20L1157.99 10.0001L1147.99 0.00015398L1157.99 0.000153543L1167.99 10.0001L1157.99 20L1147.99 20Z" fill="#003366"/>
<path d="M1088 20L1098 10.0001L1088 0.00015398L1098 0.000153543L1108 10.0001L1098 20L1088 20Z" fill="#00BBEE"/>
<path d="M1137.99 20L1147.99 10.0001L1137.99 0.00015398L1147.99 0.000153543L1157.99 10.0001L1147.99 20L1137.99 20Z" fill="#CAF9FE"/>
<path d="M1128 20L1137.99 10.0001L1128 0.00015398L1137.99 0.000153543L1147.99 10.0001L1137.99 20L1128 20Z" fill="#FF5000"/>
<path d="M1118 20L1128 10.0001L1118 0.00015398L1128 0.000153543L1137.99 10.0001L1128 20L1118 20Z" fill="#8C0B07"/>
<path d="M1108 20L1118 10.0001L1108 0.00015398L1118 0.000153543L1127.99 10.0001L1118 20L1108 20Z" fill="#003366"/>
<path d="M1247.85 20L1257.85 10.0001L1247.85 0.00015398L1257.85 0.000153543L1267.85 10.0001L1257.85 20L1247.85 20Z" fill="#FF5000"/>
<path d="M1187.86 20L1197.86 10.0001L1187.86 0.00015398L1197.86 0.000153543L1207.86 10.0001L1197.86 20L1187.86 20Z" fill="#8C0B07"/>
<path d="M1237.85 20L1247.85 10.0001L1237.85 0.00015398L1247.85 0.000153543L1257.85 10.0001L1247.85 20L1237.85 20Z" fill="#8C0B07"/>
<path d="M1177.86 20L1187.86 10.0001L1177.86 0.00015398L1187.86 0.000153543L1197.86 10.0001L1187.86 20L1177.86 20Z" fill="#CAF9FE"/>
<path d="M1227.85 20L1237.85 10.0001L1227.85 0.00015398L1237.85 0.000153543L1247.85 10.0001L1237.85 20L1227.85 20Z" fill="#00BBEE"/>
<path d="M1217.86 20L1227.85 10.0001L1217.86 0.00015398L1227.85 0.000153543L1237.85 10.0001L1227.85 20L1217.86 20Z" fill="#CCCCCC"/>
<path d="M1207.86 20L1217.86 10.0001L1207.86 0.00015398L1217.86 0.000153543L1227.85 10.0001L1217.86 20L1207.86 20Z" fill="#0055BB"/>
<path d="M1197.86 20L1207.86 10.0001L1197.86 0.00015398L1207.86 0.000153543L1217.86 10.0001L1207.86 20L1197.86 20Z" fill="#00BBEE"/>
<path d="M1337.71 19.9951L1347.71 9.9997L1337.71 -0.000227541L1347.71 -0.000227978L1357.71 9.9997L1347.71 19.9951L1337.71 19.9951Z" fill="#00BBEE"/>
<path d="M1277.72 19.9951L1287.72 9.9997L1277.72 -0.000227541L1287.72 -0.000227978L1297.72 9.9997L1287.72 19.9951L1277.72 19.9951Z" fill="#CCCCCC"/>
<path d="M1327.71 19.9951L1337.71 9.9997L1327.71 -0.000227541L1337.71 -0.000227978L1347.71 9.9997L1337.71 19.9951L1327.71 19.9951Z" fill="#CAF9FE"/>
<path d="M1267.72 19.9951L1277.72 9.9997L1267.72 -0.000227541L1277.72 -0.000227978L1287.72 9.9997L1277.72 19.9951L1267.72 19.9951Z" fill="#0055BB"/>
<path d="M1317.71 19.9951L1327.71 9.9997L1317.71 -0.000227541L1327.71 -0.000227978L1337.71 9.9997L1327.71 19.9951L1317.71 19.9951Z" fill="#0055BB"/>
<path d="M1307.72 19.9951L1317.71 9.9997L1307.72 -0.000227541L1317.71 -0.000227978L1327.71 9.9997L1317.71 19.9951L1307.72 19.9951Z" fill="#8C0B07"/>
<path d="M1297.72 19.9951L1307.72 9.9997L1297.72 -0.000227541L1307.72 -0.000227978L1317.71 9.9997L1307.72 19.9951L1297.72 19.9951Z" fill="#FF5000"/>
<path d="M1287.72 19.9951L1297.72 9.9997L1287.72 -0.000227541L1297.72 -0.000227978L1307.72 9.9997L1297.72 19.9951L1287.72 19.9951Z" fill="#003366"/>
<path d="M1347.58 19.9956L1357.58 10.0002L1347.58 0.000260741L1357.58 0.000260304L1367.58 10.0002L1357.58 19.9956L1347.58 19.9956Z" fill="#8C0B07"/>
<path d="M1427.57 19.9956L1437.57 10.0002L1427.57 0.000260741L1437.57 0.000260304L1447.57 10.0002L1437.57 19.9956L1427.57 19.9956Z" fill="#8C0B07"/>
<path d="M1257.72 19.9951L1267.72 9.9997L1257.72 -0.000227541L1267.72 -0.000227978L1277.72 9.9997L1267.72 19.9951L1257.72 19.9951Z" fill="#00BBEE"/>
<path d="M1367.58 19.9956L1377.58 10.0002L1367.58 0.000260741L1377.58 0.000260304L1387.58 10.0002L1377.58 19.9956L1367.58 19.9956Z" fill="#FF5000"/>
<path d="M1417.57 19.9956L1427.57 10.0002L1417.57 0.000260741L1427.57 0.000260304L1437.57 10.0002L1427.57 19.9956L1417.57 19.9956Z" fill="#FF5000"/>
<path d="M1357.58 19.9956L1367.58 10.0002L1357.58 0.000260741L1367.58 0.000260304L1377.58 10.0002L1367.58 19.9956L1357.58 19.9956Z" fill="#003366"/>
<path d="M1078 20L1088 10.0001L1078 0.00015398L1088 0.000153543L1098 10.0001L1088 20L1078 20Z" fill="#0055BB"/>
<path d="M1167.86 20L1177.86 10.0001L1167.86 0.00015398L1177.86 0.000153543L1187.86 10.0001L1177.86 20L1167.86 20Z" fill="#FF5000"/>
<path d="M1407.57 19.9956L1417.57 10.0002L1407.57 0.000260741L1417.57 0.000260304L1427.57 10.0002L1417.57 19.9956L1407.57 19.9956Z" fill="#CCCCCC"/>
<path d="M1397.58 19.9956L1407.57 10.0002L1397.58 0.000260741L1407.57 0.000260304L1417.57 10.0002L1407.57 19.9956L1397.58 19.9956Z" fill="#003366"/>
<path d="M1387.58 19.9956L1397.58 10.0002L1387.58 0.000260741L1397.58 0.000260304L1407.57 10.0002L1397.58 19.9956L1387.58 19.9956Z" fill="#0055BB"/>
<path d="M1377.58 19.9956L1387.58 10.0002L1377.58 0.000260741L1387.58 0.000260304L1397.58 10.0002L1387.58 19.9956L1377.58 19.9956Z" fill="#00BBEE"/>
<path d="M1514.99 20L1524.99 10.0001L1514.99 0.00015398L1524.99 0.000153543L1534.99 10.0001L1524.99 20L1514.99 20Z" fill="#0055BB"/>
<path d="M1455 20L1465 10.0001L1455 0.00015398L1465 0.000153543L1475 10.0001L1465 20L1455 20Z" fill="#CCCCCC"/>
<path d="M1504.99 20L1514.99 10.0001L1504.99 0.00015398L1514.99 0.000153543L1524.99 10.0001L1514.99 20L1504.99 20Z" fill="#003366"/>
<path d="M1445 20L1455 10.0001L1445 0.00015398L1455 0.000153543L1465 10.0001L1455 20L1445 20Z" fill="#00BBEE"/>
<path d="M1494.99 20L1504.99 10.0001L1494.99 0.00015398L1504.99 0.000153543L1514.99 10.0001L1504.99 20L1494.99 20Z" fill="#CAF9FE"/>
<path d="M1485 20L1494.99 10.0001L1485 0.00015398L1494.99 0.000153543L1504.99 10.0001L1494.99 20L1485 20Z" fill="#FF5000"/>
<path d="M1475 20L1485 10.0001L1475 0.00015398L1485 0.000153543L1494.99 10.0001L1485 20L1475 20Z" fill="#8C0B07"/>
<path d="M1465 20L1475 10.0001L1465 0.00015398L1475 0.000153543L1484.99 10.0001L1475 20L1465 20Z" fill="#003366"/>
<path d="M1604.85 20L1614.85 10.0001L1604.85 0.00015398L1614.85 0.000153543L1624.85 10.0001L1614.85 20L1604.85 20Z" fill="#FF5000"/>
<path d="M1544.86 20L1554.86 10.0001L1544.86 0.00015398L1554.86 0.000153543L1564.86 10.0001L1554.86 20L1544.86 20Z" fill="#8C0B07"/>
<path d="M1594.85 20L1604.85 10.0001L1594.85 0.00015398L1604.85 0.000153543L1614.85 10.0001L1604.85 20L1594.85 20Z" fill="#8C0B07"/>
<path d="M1534.86 20L1544.86 10.0001L1534.86 0.00015398L1544.86 0.000153543L1554.86 10.0001L1544.86 20L1534.86 20Z" fill="#CAF9FE"/>
<path d="M1584.85 20L1594.85 10.0001L1584.85 0.00015398L1594.85 0.000153543L1604.85 10.0001L1594.85 20L1584.85 20Z" fill="#00BBEE"/>
<path d="M1574.86 20L1584.85 10.0001L1574.86 0.00015398L1584.85 0.000153543L1594.85 10.0001L1584.85 20L1574.86 20Z" fill="#CCCCCC"/>
<path d="M1564.86 20L1574.86 10.0001L1564.86 0.00015398L1574.86 0.000153543L1584.85 10.0001L1574.86 20L1564.86 20Z" fill="#0055BB"/>
<path d="M1554.86 20L1564.86 10.0001L1554.86 0.00015398L1564.86 0.000153543L1574.86 10.0001L1564.86 20L1554.86 20Z" fill="#00BBEE"/>
<path d="M1694.71 19.9951L1704.71 9.9997L1694.71 -0.000227541L1704.71 -0.000227978L1714.71 9.9997L1704.71 19.9951L1694.71 19.9951Z" fill="#00BBEE"/>
<path d="M1634.72 19.9951L1644.72 9.9997L1634.72 -0.000227541L1644.72 -0.000227978L1654.72 9.9997L1644.72 19.9951L1634.72 19.9951Z" fill="#CCCCCC"/>
<path d="M1684.71 19.9951L1694.71 9.9997L1684.71 -0.000227541L1694.71 -0.000227978L1704.71 9.9997L1694.71 19.9951L1684.71 19.9951Z" fill="#CAF9FE"/>
<path d="M1624.72 19.9951L1634.72 9.9997L1624.72 -0.000227541L1634.72 -0.000227978L1644.72 9.9997L1634.72 19.9951L1624.72 19.9951Z" fill="#0055BB"/>
<path d="M1674.71 19.9951L1684.71 9.9997L1674.71 -0.000227541L1684.71 -0.000227978L1694.71 9.9997L1684.71 19.9951L1674.71 19.9951Z" fill="#0055BB"/>
<path d="M1664.72 19.9951L1674.71 9.9997L1664.72 -0.000227541L1674.71 -0.000227978L1684.71 9.9997L1674.71 19.9951L1664.72 19.9951Z" fill="#8C0B07"/>
<path d="M1654.72 19.9951L1664.72 9.9997L1654.72 -0.000227541L1664.72 -0.000227978L1674.71 9.9997L1664.72 19.9951L1654.72 19.9951Z" fill="#FF5000"/>
<path d="M1644.72 19.9951L1654.72 9.9997L1644.72 -0.000227541L1654.72 -0.000227978L1664.72 9.9997L1654.72 19.9951L1644.72 19.9951Z" fill="#003366"/>
<path d="M1704.58 19.9956L1714.58 10.0002L1704.58 0.000260741L1714.58 0.000260304L1724.58 10.0002L1714.58 19.9956L1704.58 19.9956Z" fill="#8C0B07"/>
<path d="M1784.57 19.9956L1794.57 10.0002L1784.57 0.000260741L1794.57 0.000260304L1804.57 10.0002L1794.57 19.9956L1784.57 19.9956Z" fill="#8C0B07"/>
<path d="M1614.72 19.9951L1624.72 9.9997L1614.72 -0.000227541L1624.72 -0.000227978L1634.72 9.9997L1624.72 19.9951L1614.72 19.9951Z" fill="#00BBEE"/>
<path d="M1724.58 19.9956L1734.58 10.0002L1724.58 0.000260741L1734.58 0.000260304L1744.58 10.0002L1734.58 19.9956L1724.58 19.9956Z" fill="#FF5000"/>
<path d="M1774.57 19.9956L1784.57 10.0002L1774.57 0.000260741L1784.57 0.000260304L1794.57 10.0002L1784.57 19.9956L1774.57 19.9956Z" fill="#FF5000"/>
<path d="M1714.58 19.9956L1724.58 10.0002L1714.58 0.000260741L1724.58 0.000260304L1734.58 10.0002L1724.58 19.9956L1714.58 19.9956Z" fill="#003366"/>
<path d="M1435 20L1445 10.0001L1435 0.00015398L1445 0.000153543L1455 10.0001L1445 20L1435 20Z" fill="#0055BB"/>
<path d="M1524.86 20L1534.86 10.0001L1524.86 0.00015398L1534.86 0.000153543L1544.86 10.0001L1534.86 20L1524.86 20Z" fill="#FF5000"/>
<path d="M1764.57 19.9956L1774.57 10.0002L1764.57 0.000260741L1774.57 0.000260304L1784.57 10.0002L1774.57 19.9956L1764.57 19.9956Z" fill="#CCCCCC"/>
<path d="M1754.58 19.9956L1764.57 10.0002L1754.58 0.000260741L1764.57 0.000260304L1774.57 10.0002L1764.57 19.9956L1754.58 19.9956Z" fill="#003366"/>
<path d="M1744.58 19.9956L1754.58 10.0002L1744.58 0.000260741L1754.58 0.000260304L1764.57 10.0002L1754.58 19.9956L1744.58 19.9956Z" fill="#0055BB"/>
<path d="M1734.58 19.9956L1744.58 10.0002L1734.58 0.000260741L1744.58 0.000260304L1754.58 10.0002L1744.58 19.9956L1734.58 19.9956Z" fill="#00BBEE"/>
</svg>
