<svg width="38" height="32" viewBox="0 0 38 32" fill="none" xmlns="http://www.w3.org/2000/svg">
<path d="M4.47054 8.15712C5.35736 3.42739 9.48711 0 14.2993 0H25.9507C32.2121 0 36.9334 5.68875 35.7795 11.8429L33.5295 23.8429C32.6426 28.5726 28.5129 32 23.7007 32H12.0493C5.78788 32 1.06664 26.3113 2.22054 20.1571L4.47054 8.15712Z" fill="#0865C9"/>
<path d="M22.4054 14.7826H25.9817L26 20.2475C26 21.7643 24.7572 23 23.2307 23H14.7705C13.2416 23 12.0024 21.7643 12.0024 20.2475V14.7826L15.6141 14.7741C15.3889 15.468 15.4108 15.2915 15.4108 16.0609C15.4108 18.0318 17.014 19.6278 18.9909 19.6278C20.9702 19.6278 22.5721 18.0318 22.5721 16.0609C22.5709 15.2903 22.6013 15.6311 22.4054 14.7826ZM14.706 9.00122C14.7267 9 14.7474 9 14.7681 9H15.2161L14.706 9.00122ZM14.7681 9H23.2282C24.7559 9 25.9976 10.232 25.9976 11.7562V13.7563H21.7371C21.0858 13.099 19.9842 12.5012 18.9872 12.5012C17.9866 12.5012 16.8886 13.0612 16.2398 13.7186L12 13.7369V11.7562C12 10.8249 12.3615 9.45652 14.073 9H14.7681ZM24.3981 10.8784C24.3981 10.663 24.2228 10.4877 24.0073 10.4877H22.6805C22.4662 10.4877 22.2934 10.663 22.2934 10.8784V12.2224C22.2934 12.4367 22.4674 12.6144 22.6805 12.6144H24.0073C24.224 12.6144 24.3981 12.4367 24.3981 12.2224V10.8784ZM16.9604 16.0609C16.9604 17.187 17.8722 18.0939 18.9982 18.0939C20.1229 18.0939 21.0371 17.187 21.0371 16.0609C21.0371 14.9421 20.1229 14.0363 18.9982 14.0363C17.871 14.0363 16.9604 14.9421 16.9604 16.0609Z" fill="white"/>
</svg>
