<svg width="56" height="64" viewBox="0 0 56 64" fill="none" xmlns="http://www.w3.org/2000/svg">
<path d="M54.7734 20.8441C54.3341 20.8441 53.8947 20.4037 53.8947 19.9634V16.1468C53.8947 14.8257 52.8695 13.7982 51.5515 13.7982C51.1121 13.7982 50.6727 13.3578 50.6727 12.9175C50.6727 12.4771 51.1121 12.0367 51.5515 12.0367C53.7482 12.0367 55.6521 13.7982 55.6521 16.1468V19.9634C55.6521 20.4037 55.2128 20.8441 54.7734 20.8441Z" fill="#0865C9"/>
<path d="M54.7735 43.4496C54.3341 43.4496 53.8948 43.0092 53.8948 42.5688V40.8074C53.8948 40.367 54.3341 39.9266 54.7735 39.9266C55.2129 39.9266 55.6522 40.367 55.6522 40.8074V42.5688C55.6522 43.156 55.2129 43.4496 54.7735 43.4496Z" fill="#0865C9"/>
<path d="M54.7735 34.055C54.3341 34.055 53.8948 33.6147 53.8948 33.1743V29.3578C53.8948 28.9174 54.3341 28.4771 54.7735 28.4771C55.2129 28.4771 55.6522 28.9174 55.6522 29.3578V33.1743C55.6522 33.7615 55.2129 34.055 54.7735 34.055Z" fill="#0865C9"/>
<path d="M54.7735 22.6055C54.3341 22.6055 53.8948 22.1651 53.8948 21.7247V19.9633C53.8948 19.5229 54.3341 19.0825 54.7735 19.0825C55.2129 19.0825 55.6522 19.5229 55.6522 19.9633V21.7247C55.6522 22.1651 55.2129 22.6055 54.7735 22.6055Z" fill="#0865C9"/>
<path d="M51.5515 52.8441H4.10069C1.75744 52.8441 0 51.0826 0 48.8808V16.1468C0 13.945 1.75744 12.0367 4.10069 12.0367C4.54005 12.0367 4.9794 12.4771 4.9794 12.9175C4.9794 13.3578 4.54005 13.7982 4.10069 13.7982C2.78261 13.7982 1.75744 14.8257 1.75744 16.1468V48.734C1.75744 50.0551 2.78261 51.0826 4.10069 51.0826H51.5515C52.8696 51.0826 53.8947 50.0551 53.8947 48.734V42.5689C53.8947 42.1285 54.3341 41.6881 54.7735 41.6881C55.2128 41.6881 55.6522 42.1285 55.6522 42.5689V48.734C55.6522 51.0826 53.7483 52.8441 51.5515 52.8441Z" fill="#0865C9"/>
<path d="M54.7735 47.1193H0.878719C0.439359 47.1193 0 46.6789 0 46.2385C0 45.7982 0.439359 45.3578 0.878719 45.3578H54.7735C55.2128 45.3578 55.6522 45.7982 55.6522 46.2385C55.6522 46.6789 55.2128 47.1193 54.7735 47.1193Z" fill="#0865C9"/>
<path d="M36.1739 64H19.4782C19.0388 64 18.5995 63.5596 18.5995 63.1192V59.3027C18.5995 58.8623 19.0388 58.422 19.4782 58.422H21.675V51.9633C21.675 51.5229 22.1144 51.0825 22.5537 51.0825H32.9519C33.3912 51.0825 33.8306 51.5229 33.8306 51.9633V58.422H36.0274C36.4668 58.422 36.9061 58.8623 36.9061 59.3027V63.1192C36.9061 63.7064 36.6132 64 36.1739 64ZM20.3569 62.3853H35.1487V60.1834H32.9519C32.5125 60.1834 32.0732 59.7431 32.0732 59.3027V52.844H23.4324V59.3027C23.4324 59.7431 22.9931 60.1834 22.5537 60.1834H20.3569V62.3853Z" fill="#0865C9"/>
<path d="M29.2906 60.1835H22.7003C22.2609 60.1835 21.8215 59.7431 21.8215 59.3027C21.8215 58.8624 22.2609 58.422 22.7003 58.422H29.2906C29.73 58.422 30.1694 58.8624 30.1694 59.3027C30.1694 59.7431 29.73 60.1835 29.2906 60.1835Z" fill="#0865C9"/>
<path d="M54.7735 64H0.878719C0.439359 64 0 63.7064 0 63.1193C0 62.6789 0.439359 62.2385 0.878719 62.2385H54.7735C55.2128 62.2385 55.6522 62.6789 55.6522 63.1193C55.6522 63.7064 55.2128 64 54.7735 64Z" fill="#0865C9"/>
<path d="M27.8261 44.3303C15.6705 44.3303 5.71167 34.3486 5.71167 22.1651C5.71167 9.98165 15.6705 0 27.8261 0C39.9817 0 49.9405 9.98165 49.9405 22.1651C49.9405 34.3486 39.9817 44.3303 27.8261 44.3303ZM27.8261 1.76147C16.5492 1.76147 7.46911 10.8624 7.46911 22.1651C7.46911 33.3211 16.5492 42.5688 27.8261 42.5688C39.103 42.5688 48.1831 33.4679 48.1831 22.1651C48.1831 10.8624 39.103 1.76147 27.8261 1.76147Z" fill="#0865C9"/>
<path d="M27.8261 44.3303C21.6751 44.3303 16.8421 34.6422 16.8421 22.1651C16.8421 9.68807 21.6751 0 27.8261 0C33.9771 0 38.8101 9.68807 38.8101 22.1651C38.8101 34.4954 33.9771 44.3303 27.8261 44.3303ZM27.8261 1.76147C22.8467 1.76147 18.4531 11.156 18.4531 22.1651C18.4531 33.1743 22.8467 42.5688 27.8261 42.5688C32.8055 42.5688 37.1991 33.1743 37.1991 22.1651C37.1991 11.156 32.8055 1.76147 27.8261 1.76147Z" fill="#0865C9"/>
<path d="M27.8261 33.1744C15.3776 33.1744 5.71167 28.3303 5.71167 22.1652C5.71167 16 15.3776 11.156 27.8261 11.156C40.2746 11.156 49.9405 16 49.9405 22.1652C49.9405 28.3303 40.1281 33.1744 27.8261 33.1744ZM27.8261 12.7707C16.8421 12.7707 7.46911 17.0276 7.46911 22.1652C7.46911 27.156 16.8421 31.5597 27.8261 31.5597C38.8101 31.5597 48.1831 27.3028 48.1831 22.1652C48.1831 17.0276 38.8101 12.7707 27.8261 12.7707Z" fill="#0865C9"/>
<path d="M27.8261 44.3303C27.3867 44.3303 26.9474 43.8899 26.9474 43.4495V0.880734C26.9474 0.440367 27.3867 0 27.8261 0C28.2655 0 28.7048 0.440367 28.7048 0.880734V43.4495C28.7048 43.8899 28.2655 44.3303 27.8261 44.3303Z" fill="#0865C9"/>
<path d="M49.0618 23.0459H6.59039C6.15103 23.0459 5.71167 22.6055 5.71167 22.1652C5.71167 21.7248 6.15103 21.2844 6.59039 21.2844H49.0618C49.5011 21.2844 49.9405 21.7248 49.9405 22.1652C49.9405 22.6055 49.5011 23.0459 49.0618 23.0459Z" fill="#0865C9"/>
</svg>
