<svg width="32" height="32" viewBox="0 0 32 32" fill="none" xmlns="http://www.w3.org/2000/svg">
<path d="M31.7031 22.7031L23 31.4219L18.7969 27.2031L20.2031 25.7969L23 28.5781L30.2969 21.2969L31.7031 22.7031ZM11.5 22.8438C12.1875 23.1875 12.8073 23.6094 13.3594 24.1094C13.9115 24.6094 14.3802 25.1667 14.7656 25.7812C15.151 26.3958 15.4531 27.0625 15.6719 27.7812C15.8906 28.5 16 29.2396 16 30H14C14 29.1771 13.8438 28.401 13.5312 27.6719C13.2188 26.9427 12.7917 26.3073 12.25 25.7656C11.7083 25.224 11.0677 24.7917 10.3281 24.4688C9.58854 24.1458 8.8125 23.9896 8 24C7.16667 24 6.39062 24.1562 5.67188 24.4688C4.95312 24.7812 4.31771 25.2083 3.76562 25.75C3.21354 26.2917 2.78125 26.9323 2.46875 27.6719C2.15625 28.4115 2 29.1875 2 30H0C0 29.2396 0.104167 28.5 0.3125 27.7812C0.520833 27.0625 0.822917 26.3958 1.21875 25.7812C1.61458 25.1667 2.08854 24.6094 2.64062 24.1094C3.19271 23.6094 3.8125 23.1875 4.5 22.8438C3.71875 22.2812 3.10938 21.5781 2.67188 20.7344C2.23438 19.8906 2.01042 18.9792 2 18C2 17.1771 2.15625 16.401 2.46875 15.6719C2.78125 14.9427 3.20833 14.3073 3.75 13.7656C4.29167 13.224 4.92708 12.7917 5.65625 12.4688C6.38542 12.1458 7.16667 11.9896 8 12C8.97917 12 9.89062 12.2188 10.7344 12.6562C11.5781 13.0938 12.2812 13.7083 12.8438 14.5C13.2396 13.7083 13.75 13 14.375 12.375C15 11.75 15.7083 11.2396 16.5 10.8438C15.7188 10.2812 15.1094 9.57812 14.6719 8.73438C14.2344 7.89062 14.0104 6.97917 14 6C14 5.17708 14.1562 4.40104 14.4688 3.67188C14.7812 2.94271 15.2083 2.30729 15.75 1.76562C16.2917 1.22396 16.9271 0.791667 17.6562 0.46875C18.3854 0.145833 19.1667 -0.0104167 20 0C20.8229 0 21.599 0.15625 22.3281 0.46875C23.0573 0.78125 23.6927 1.20833 24.2344 1.75C24.776 2.29167 25.2083 2.93229 25.5312 3.67188C25.8542 4.41146 26.0104 5.1875 26 6C26 6.97917 25.7812 7.89062 25.3438 8.73438C24.9062 9.57812 24.2917 10.2812 23.5 10.8438C24.1875 11.1875 24.8073 11.6094 25.3594 12.1094C25.9115 12.6094 26.3802 13.1667 26.7656 13.7812C27.151 14.3958 27.4531 15.0625 27.6719 15.7812C27.8906 16.5 28 17.2396 28 18H26C26 17.1771 25.8438 16.401 25.5312 15.6719C25.2188 14.9427 24.7917 14.3073 24.25 13.7656C23.7083 13.224 23.0677 12.7917 22.3281 12.4688C21.5885 12.1458 20.8125 11.9896 20 12C19.1667 12 18.3906 12.1562 17.6719 12.4688C16.9531 12.7812 16.3177 13.2083 15.7656 13.75C15.2135 14.2917 14.7812 14.9323 14.4688 15.6719C14.1562 16.4115 14 17.1875 14 18C14 18.9792 13.7812 19.8906 13.3438 20.7344C12.9062 21.5781 12.2917 22.2812 11.5 22.8438ZM16 6C16 6.55208 16.1042 7.06771 16.3125 7.54688C16.5208 8.02604 16.8073 8.45312 17.1719 8.82812C17.5365 9.20312 17.9583 9.48958 18.4375 9.6875C18.9167 9.88542 19.4375 9.98958 20 10C20.5521 10 21.0677 9.89583 21.5469 9.6875C22.026 9.47917 22.4531 9.19271 22.8281 8.82812C23.2031 8.46354 23.4896 8.04167 23.6875 7.5625C23.8854 7.08333 23.9896 6.5625 24 6C24 5.44792 23.8958 4.93229 23.6875 4.45312C23.4792 3.97396 23.1927 3.54688 22.8281 3.17188C22.4635 2.79688 22.0417 2.51042 21.5625 2.3125C21.0833 2.11458 20.5625 2.01042 20 2C19.4479 2 18.9323 2.10417 18.4531 2.3125C17.974 2.52083 17.5469 2.80729 17.1719 3.17188C16.7969 3.53646 16.5104 3.95833 16.3125 4.4375C16.1146 4.91667 16.0104 5.4375 16 6ZM4 18C4 18.5521 4.10417 19.0677 4.3125 19.5469C4.52083 20.026 4.80729 20.4531 5.17188 20.8281C5.53646 21.2031 5.95833 21.4896 6.4375 21.6875C6.91667 21.8854 7.4375 21.9896 8 22C8.55208 22 9.06771 21.8958 9.54688 21.6875C10.026 21.4792 10.4531 21.1927 10.8281 20.8281C11.2031 20.4635 11.4896 20.0417 11.6875 19.5625C11.8854 19.0833 11.9896 18.5625 12 18C12 17.4479 11.8958 16.9323 11.6875 16.4531C11.4792 15.974 11.1927 15.5469 10.8281 15.1719C10.4635 14.7969 10.0417 14.5104 9.5625 14.3125C9.08333 14.1146 8.5625 14.0104 8 14C7.44792 14 6.93229 14.1042 6.45312 14.3125C5.97396 14.5208 5.54688 14.8073 5.17188 15.1719C4.79688 15.5365 4.51042 15.9583 4.3125 16.4375C4.11458 16.9167 4.01042 17.4375 4 18Z" fill="#0865C9"/>
</svg>
