<svg width="26" height="32" viewBox="0 0 26 32" fill="none" xmlns="http://www.w3.org/2000/svg">
<path d="M13 0C13.8617 0 14.8343 0.047619 15.9176 0.142857C17.0009 0.238095 18.0843 0.404762 19.1676 0.642857C20.2509 0.880952 21.285 1.19643 22.2699 1.58929C23.2547 1.98214 24.0672 2.4881 24.7074 3.10714C25.089 3.46429 25.3968 3.85119 25.6307 4.26786C25.8646 4.68452 25.9877 5.16667 26 5.71429V26.2857C26 26.8214 25.883 27.2976 25.6491 27.7143C25.4152 28.131 25.1013 28.5238 24.7074 28.8929C24.0672 29.5 23.2609 30 22.2884 30.3929C21.3158 30.7857 20.2817 31.1071 19.1861 31.3571C18.0904 31.6071 17.0009 31.7738 15.9176 31.8571C14.8343 31.9405 13.8617 31.9881 13 32C12.1383 32 11.1657 31.9524 10.0824 31.8571C8.99905 31.7619 7.91572 31.5952 6.83239 31.3571C5.74905 31.119 4.71496 30.8036 3.73011 30.4107C2.74527 30.0179 1.93277 29.5119 1.29261 28.8929C0.910985 28.5357 0.60322 28.1488 0.369318 27.7321C0.135417 27.3155 0.0123106 26.8333 0 26.2857V5.71429C0 5.17857 0.116951 4.70238 0.350852 4.28571C0.584754 3.86905 0.898674 3.47619 1.29261 3.10714C1.93277 2.5 2.73911 2 3.71165 1.60714C4.68419 1.21429 5.71828 0.892857 6.81392 0.642857C7.90956 0.392857 8.99905 0.22619 10.0824 0.142857C11.1657 0.0595238 12.1383 0.0119048 13 0ZM13 2.28571C12.3722 2.28571 11.7197 2.30357 11.0426 2.33929C10.3655 2.375 9.68229 2.44643 8.9929 2.55357C8.3035 2.66071 7.62642 2.79167 6.96165 2.94643C6.29687 3.10119 5.66903 3.29762 5.07812 3.53571C4.89347 3.60714 4.64725 3.71429 4.33949 3.85714C4.03172 4 3.73011 4.17262 3.43466 4.375C3.1392 4.57738 2.88684 4.78571 2.67756 5C2.46828 5.21429 2.36364 5.45238 2.36364 5.71429C2.36364 5.80952 2.3821 5.89881 2.41903 5.98214C2.45597 6.06548 2.50521 6.14881 2.56676 6.23214C2.82528 6.6131 3.1946 6.94643 3.67472 7.23214C4.15483 7.51786 4.70265 7.76786 5.31818 7.98214C5.93371 8.19643 6.58617 8.375 7.27557 8.51786C7.96496 8.66072 8.65436 8.77976 9.34375 8.875C10.0331 8.97024 10.6918 9.03572 11.3196 9.07143C11.9474 9.10714 12.5076 9.13095 13 9.14286C13.4924 9.14286 14.0526 9.125 14.6804 9.08929C15.3082 9.05357 15.9669 8.9881 16.6562 8.89286C17.3456 8.79762 18.035 8.67857 18.7244 8.53572C19.4138 8.39286 20.0601 8.20833 20.6634 7.98214C21.2666 7.75595 21.8144 7.50595 22.3068 7.23214C22.7992 6.95833 23.1747 6.625 23.4332 6.23214C23.4948 6.14881 23.544 6.06548 23.581 5.98214C23.6179 5.89881 23.6364 5.80952 23.6364 5.71429C23.6364 5.47619 23.5317 5.24405 23.3224 5.01786C23.1132 4.79167 22.8608 4.57738 22.5653 4.375C22.2699 4.17262 21.9683 4.00595 21.6605 3.875C21.3527 3.74405 21.1065 3.63095 20.9219 3.53571C20.331 3.30952 19.7031 3.11905 19.0384 2.96429C18.3736 2.80952 17.7027 2.67857 17.0256 2.57143C16.3485 2.46429 15.6652 2.39286 14.9759 2.35714C14.2865 2.32143 13.6278 2.29762 13 2.28571ZM13 29.7143C13.6278 29.7143 14.2803 29.6964 14.9574 29.6607C15.6345 29.625 16.3239 29.5536 17.0256 29.4464C17.7273 29.3393 18.4044 29.2083 19.0568 29.0536C19.7093 28.8988 20.331 28.7024 20.9219 28.4643C21.1065 28.3929 21.3527 28.2857 21.6605 28.1429C21.9683 28 22.2699 27.8274 22.5653 27.625C22.8608 27.4226 23.1132 27.2143 23.3224 27C23.5317 26.7857 23.6364 26.5476 23.6364 26.2857V22.8214C22.9347 23.2738 22.1406 23.6488 21.2543 23.9464C20.3679 24.244 19.4508 24.4821 18.5028 24.6607C17.5549 24.8393 16.607 24.9643 15.6591 25.0357C14.7112 25.1071 13.8248 25.1429 13 25.1429C12.1752 25.1429 11.2888 25.1071 10.3409 25.0357C9.39299 24.9643 8.44508 24.8393 7.49716 24.6607C6.54924 24.4821 5.6321 24.244 4.74574 23.9464C3.85937 23.6488 3.06534 23.2738 2.36364 22.8214V26.2857C2.36364 26.5357 2.46828 26.7738 2.67756 27C2.88684 27.2262 3.1392 27.4345 3.43466 27.625C3.73011 27.8155 4.03172 27.9821 4.33949 28.125C4.64725 28.2679 4.89347 28.381 5.07812 28.4643C5.65672 28.7024 6.27841 28.8988 6.94318 29.0536C7.60795 29.2083 8.28504 29.3333 8.97443 29.4286C9.66383 29.5238 10.3471 29.5952 11.0241 29.6429C11.7012 29.6905 12.3598 29.7143 13 29.7143ZM13 22.8571C13.6278 22.8571 14.2803 22.8393 14.9574 22.8036C15.6345 22.7679 16.3239 22.6964 17.0256 22.5893C17.7273 22.4821 18.4044 22.3512 19.0568 22.1964C19.7093 22.0417 20.331 21.8452 20.9219 21.6071C21.1065 21.5357 21.3527 21.4286 21.6605 21.2857C21.9683 21.1429 22.2699 20.9702 22.5653 20.7679C22.8608 20.5655 23.1132 20.3571 23.3224 20.1429C23.5317 19.9286 23.6364 19.6905 23.6364 19.4286V15.9643C22.9347 16.4167 22.1406 16.7917 21.2543 17.0893C20.3679 17.3869 19.4508 17.625 18.5028 17.8036C17.5549 17.9821 16.607 18.1071 15.6591 18.1786C14.7112 18.25 13.8248 18.2857 13 18.2857C12.1752 18.2857 11.2888 18.25 10.3409 18.1786C9.39299 18.1071 8.44508 17.9821 7.49716 17.8036C6.54924 17.625 5.6321 17.3869 4.74574 17.0893C3.85937 16.7917 3.06534 16.4167 2.36364 15.9643V19.4286C2.36364 19.6786 2.46828 19.9167 2.67756 20.1429C2.88684 20.369 3.1392 20.5774 3.43466 20.7679C3.73011 20.9583 4.03172 21.125 4.33949 21.2679C4.64725 21.4107 4.89347 21.5238 5.07812 21.6071C5.65672 21.8452 6.27841 22.0417 6.94318 22.1964C7.60795 22.3512 8.28504 22.4762 8.97443 22.5714C9.66383 22.6667 10.3471 22.7381 11.0241 22.7857C11.7012 22.8333 12.3598 22.8571 13 22.8571ZM13 16C13.6402 16 14.2988 15.9821 14.9759 15.9464C15.6529 15.9107 16.33 15.8393 17.0071 15.7321C17.6842 15.625 18.3613 15.494 19.0384 15.3393C19.7154 15.1845 20.3433 14.9881 20.9219 14.75C21.1065 14.6786 21.3527 14.5714 21.6605 14.4286C21.9683 14.2857 22.2699 14.1131 22.5653 13.9107C22.8608 13.7083 23.1132 13.5 23.3224 13.2857C23.5317 13.0714 23.6364 12.8333 23.6364 12.5714V9.10714C22.9347 9.54762 22.1468 9.91667 21.2727 10.2143C20.3987 10.5119 19.4815 10.75 18.5213 10.9286C17.5611 11.1071 16.607 11.2321 15.6591 11.3036C14.7112 11.375 13.8248 11.4167 13 11.4286C12.1752 11.4286 11.2888 11.3929 10.3409 11.3214C9.39299 11.25 8.44508 11.119 7.49716 10.9286C6.54924 10.7381 5.6321 10.5 4.74574 10.2143C3.85937 9.92857 3.06534 9.55952 2.36364 9.10714V12.5714C2.36364 12.8095 2.46828 13.0417 2.67756 13.2679C2.88684 13.494 3.1392 13.7083 3.43466 13.9107C3.73011 14.1131 4.03172 14.2798 4.33949 14.4107C4.64725 14.5417 4.89347 14.6548 5.07812 14.75C5.66903 14.9881 6.29687 15.1845 6.96165 15.3393C7.62642 15.494 8.29735 15.619 8.97443 15.7143C9.65152 15.8095 10.3348 15.881 11.0241 15.9286C11.7135 15.9762 12.3722 16 13 16Z" fill="#0865C9"/>
</svg>
