<svg width="32" height="32" viewBox="0 0 32 32" fill="none" xmlns="http://www.w3.org/2000/svg">
<path d="M16 0C17.4762 0 18.8929 0.190476 20.25 0.571429C21.6071 0.952381 22.881 1.4881 24.0714 2.17857C25.2619 2.86905 26.3393 3.70238 27.3036 4.67857C28.2679 5.65476 29.1012 6.73214 29.8036 7.91071C30.506 9.08929 31.0476 10.3631 31.4286 11.7321C31.8095 13.1012 32 14.5238 32 16C32 17.4762 31.8095 18.8929 31.4286 20.25C31.0476 21.6071 30.5119 22.881 29.8214 24.0714C29.131 25.2619 28.2976 26.3393 27.3214 27.3036C26.3452 28.2679 25.2679 29.1012 24.0893 29.8036C22.9107 30.506 21.6369 31.0476 20.2679 31.4286C18.8988 31.8095 17.4762 32 16 32C14.5238 32 13.1071 31.8095 11.75 31.4286C10.3929 31.0476 9.11905 30.5119 7.92857 29.8214C6.7381 29.131 5.66071 28.2976 4.69643 27.3214C3.73214 26.3452 2.89881 25.2679 2.19643 24.0893C1.49405 22.9107 0.952381 21.6369 0.571429 20.2679C0.190476 18.8988 0 17.4762 0 16C0 14.5238 0.190476 13.1071 0.571429 11.75C0.952381 10.3929 1.4881 9.11905 2.17857 7.92857C2.86905 6.7381 3.70238 5.66071 4.67857 4.69643C5.65476 3.73214 6.73214 2.89881 7.91071 2.19643C9.08929 1.49405 10.3631 0.952381 11.7321 0.571429C13.1012 0.190476 14.5238 0 16 0ZM16 29.7143C17.2619 29.7143 18.4762 29.5536 19.6429 29.2321C20.8095 28.9107 21.8988 28.4464 22.9107 27.8393C23.9226 27.2321 24.8512 26.5179 25.6964 25.6964C26.5417 24.875 27.256 23.9524 27.8393 22.9286C28.4226 21.9048 28.881 20.8095 29.2143 19.6429C29.5476 18.4762 29.7143 17.2619 29.7143 16C29.7143 14.7381 29.5536 13.5238 29.2321 12.3571C28.9107 11.1905 28.4464 10.1012 27.8393 9.08929C27.2321 8.07738 26.5179 7.14881 25.6964 6.30357C24.875 5.45833 23.9524 4.74405 22.9286 4.16071C21.9048 3.57738 20.8095 3.11905 19.6429 2.78571C18.4762 2.45238 17.2619 2.28571 16 2.28571C14.7381 2.28571 13.5238 2.44643 12.3571 2.76786C11.1905 3.08929 10.1012 3.55357 9.08929 4.16071C8.07738 4.76786 7.14881 5.48214 6.30357 6.30357C5.45833 7.125 4.74405 8.04762 4.16071 9.07143C3.57738 10.0952 3.11905 11.1905 2.78571 12.3571C2.45238 13.5238 2.28571 14.7381 2.28571 16C2.28571 17.2619 2.44643 18.4762 2.76786 19.6429C3.08929 20.8095 3.55357 21.8988 4.16071 22.9107C4.76786 23.9226 5.48214 24.8512 6.30357 25.6964C7.125 26.5417 8.04762 27.256 9.07143 27.8393C10.0952 28.4226 11.1905 28.881 12.3571 29.2143C13.5238 29.5476 14.7381 29.7143 16 29.7143ZM16 9.14286C16.9405 9.14286 17.8274 9.32143 18.6607 9.67857C19.494 10.0357 20.2202 10.5238 20.8393 11.1429C21.4583 11.7619 21.9524 12.494 22.3214 13.3393C22.6905 14.1845 22.869 15.0714 22.8571 16C22.8571 16.9524 22.6786 17.8393 22.3214 18.6607C21.9643 19.4821 21.4762 20.2083 20.8571 20.8393C20.2381 21.4702 19.506 21.9643 18.6607 22.3214C17.8155 22.6786 16.9286 22.8571 16 22.8571C15.0476 22.8571 14.1607 22.6786 13.3393 22.3214C12.5179 21.9643 11.7917 21.4762 11.1607 20.8571C10.5298 20.2381 10.0357 19.5119 9.67857 18.6786C9.32143 17.8452 9.14286 16.9524 9.14286 16C9.14286 15.0595 9.32143 14.1726 9.67857 13.3393C10.0357 12.506 10.5238 11.7798 11.1429 11.1607C11.7619 10.5417 12.4881 10.0476 13.3214 9.67857C14.1548 9.30952 15.0476 9.13095 16 9.14286ZM16 20.5714C16.631 20.5714 17.2202 20.4524 17.7679 20.2143C18.3155 19.9762 18.8036 19.6488 19.2321 19.2321C19.6607 18.8155 19.9881 18.3333 20.2143 17.7857C20.4405 17.2381 20.5595 16.6429 20.5714 16C20.5714 15.369 20.4524 14.7798 20.2143 14.2321C19.9762 13.6845 19.6488 13.1964 19.2321 12.7679C18.8155 12.3393 18.3333 12.0119 17.7857 11.7857C17.2381 11.5595 16.6429 11.4405 16 11.4286C15.369 11.4286 14.7798 11.5476 14.2321 11.7857C13.6845 12.0238 13.1964 12.3512 12.7679 12.7679C12.3393 13.1845 12.0119 13.6667 11.7857 14.2143C11.5595 14.7619 11.4405 15.3571 11.4286 16C11.4286 16.631 11.5476 17.2202 11.7857 17.7679C12.0238 18.3155 12.3512 18.8036 12.7679 19.2321C13.1845 19.6607 13.6667 19.9881 14.2143 20.2143C14.7619 20.4405 15.3571 20.5595 16 20.5714Z" fill="#0865C9"/>
</svg>
