<svg width="30" height="30" viewBox="0 0 30 30" fill="none" xmlns="http://www.w3.org/2000/svg">
<rect width="30" height="30" fill="#2B7AD1"/>
<g clip-path="url(#clip0)">
<path d="M18.5806 6H10.6694C8.09465 6 6 8.09465 6 10.6694V18.5807C6 21.1553 8.09465 23.25 10.6694 23.25H18.5807C21.1553 23.25 23.25 21.1553 23.25 18.5807V10.6694C23.25 8.09465 21.1553 6 18.5806 6ZM14.625 19.3416C12.0242 19.3416 9.90833 17.2258 9.90833 14.625C9.90833 12.0242 12.0242 9.90833 14.625 9.90833C17.2258 9.90833 19.3416 12.0242 19.3416 14.625C19.3416 17.2258 17.2258 19.3416 14.625 19.3416ZM19.4544 11.0207C18.6858 11.0207 18.0607 10.3955 18.0607 9.62695C18.0607 8.85837 18.6858 8.2331 19.4544 8.2331C20.223 8.2331 20.8483 8.85837 20.8483 9.62695C20.8483 10.3955 20.223 11.0207 19.4544 11.0207Z" fill="white"/>
<path d="M14.6251 10.9197C12.582 10.9197 10.9197 12.5819 10.9197 14.6251C10.9197 16.6681 12.582 18.3305 14.6251 18.3305C16.6683 18.3305 18.3305 16.6681 18.3305 14.6251C18.3305 12.5819 16.6683 10.9197 14.6251 10.9197Z" fill="white"/>
<path d="M19.4545 9.24438C19.2436 9.24438 19.072 9.416 19.072 9.62683C19.072 9.83767 19.2436 10.0093 19.4545 10.0093C19.6654 10.0093 19.8371 9.8378 19.8371 9.62683C19.8371 9.41587 19.6654 9.24438 19.4545 9.24438Z" fill="white"/>
</g>
<defs>
<clipPath id="clip0">
<rect width="17.25" height="17.25" fill="white" transform="translate(6 6)"/>
</clipPath>
</defs>
</svg>
