<svg width="30" height="30" viewBox="0 0 30 30" fill="none" xmlns="http://www.w3.org/2000/svg">
<rect width="30" height="30" fill="#2B7AD1"/>
<g clip-path="url(#clip0)">
<path d="M23.25 9.88397C22.6364 10.1531 21.9826 10.3315 21.3009 10.4182C22.0022 9.99947 22.5374 9.34153 22.789 8.5485C22.1352 8.93831 21.4133 9.21366 20.644 9.36731C20.0232 8.70628 19.1384 8.29688 18.1732 8.29688C16.3004 8.29688 14.7927 9.81694 14.7927 11.6804C14.7927 11.9485 14.8154 12.2063 14.8711 12.4518C12.0589 12.3146 9.57047 10.9668 7.89881 8.91356C7.60697 9.41991 7.43578 9.99947 7.43578 10.6234C7.43578 11.7949 8.03906 12.8333 8.93831 13.4346C8.39484 13.4242 7.86169 13.2665 7.41 13.0179C7.41 13.0282 7.41 13.0417 7.41 13.0551C7.41 14.6989 8.58253 16.0642 10.1201 16.3788C9.84478 16.4541 9.54469 16.4902 9.23325 16.4902C9.01669 16.4902 8.79806 16.4778 8.59284 16.4324C9.03113 17.772 10.2748 18.7568 11.7536 18.7888C10.6028 19.6891 9.14147 20.2315 7.55953 20.2315C7.28213 20.2315 7.01606 20.2192 6.75 20.1851C8.24841 21.1514 10.0242 21.7031 11.9392 21.7031C18.1639 21.7031 21.567 16.5469 21.567 12.0774C21.567 11.9279 21.5618 11.7835 21.5546 11.6402C22.226 11.1637 22.7901 10.5687 23.25 9.88397Z" fill="white"/>
</g>
<defs>
<clipPath id="clip0">
<rect width="16.5" height="16.5" fill="white" transform="translate(6.75 6.75)"/>
</clipPath>
</defs>
</svg>
