<svg width="38" height="32" viewBox="0 0 38 32" fill="none" xmlns="http://www.w3.org/2000/svg">
<path d="M4.47054 8.15712C5.35736 3.42739 9.48711 0 14.2993 0H25.9507C32.2121 0 36.9334 5.68875 35.7795 11.8429L33.5295 23.8429C32.6426 28.5726 28.5129 32 23.7007 32H12.0493C5.78788 32 1.06664 26.3113 2.22054 20.1571L4.47054 8.15712Z" fill="#0865C9"/>
<path d="M17.4942 13.2299H16V15.9651H17.4942V24H20.3738V15.9309H22.3812L22.594 13.2282H20.3738C20.3738 13.2282 20.3738 12.219 20.3738 11.6892C20.3738 11.0521 20.4891 10.8002 21.0364 10.8002C21.4782 10.8002 23 10.7173 23 10.7173V8C23 8 20.9552 8 20.6012 8C18.4589 8 17.4926 9.05475 17.4926 11.0781C17.4942 12.8382 17.4942 13.2299 17.4942 13.2299Z" fill="white"/>
</svg>
