<svg width="46" height="46" viewBox="0 0 46 46" fill="none" xmlns="http://www.w3.org/2000/svg">
<path fill-rule="evenodd" clip-rule="evenodd" d="M43 23C43 34.0457 34.0457 43 23 43C11.9543 43 3 34.0457 3 23C3 11.9543 11.9543 3 23 3C34.0457 3 43 11.9543 43 23ZM46 23C46 35.7025 35.7025 46 23 46C10.2975 46 0 35.7025 0 23C0 10.2975 10.2975 0 23 0C35.7025 0 46 10.2975 46 23ZM14 18V14H32V18H14ZM11 18V11H35V18V21V25V28V35H11V28V25V21V18ZM14 32V28H32V32H14ZM28 29H30V31H28V29ZM32 21V25H14V21H32ZM26 29H24V31H26V29ZM28 22H30V24H28V22ZM26 22H24V24H26V22ZM28 15H30V17H28V15ZM26 15H24V17H26V15Z" fill="black"/>
</svg>
