<svg width="16" height="18" viewBox="0 0 16 18" fill="none" xmlns="http://www.w3.org/2000/svg">
<path d="M9.01562 14.7773H5.08984V18H2.85156V14.7773H0.425781V12.9258H2.85156V11.3203H0.425781V9.48047H2.85156V0.9375H9.14453C10.9727 0.9375 12.4219 1.40234 13.4922 2.33203C14.5625 3.26172 15.0977 4.51953 15.0977 6.10547C15.0977 7.76953 14.582 9.05469 13.5508 9.96094C12.5273 10.8594 11.0703 11.3125 9.17969 11.3203H5.08984V12.9258H9.01562V14.7773ZM5.08984 9.48047H9.14453C10.3555 9.48047 11.2773 9.19531 11.9102 8.625C12.543 8.05469 12.8594 7.22266 12.8594 6.12891C12.8594 5.13672 12.5312 4.33594 11.875 3.72656C11.2188 3.10937 10.332 2.79688 9.21484 2.78906H5.08984V9.48047Z" fill="#C4C4C4"/>
</svg>
