<svg width="30" height="30" viewBox="0 0 30 30" fill="none" xmlns="http://www.w3.org/2000/svg">
<rect width="30" height="30" fill="#2B7AD1"/>
<g clip-path="url(#clip0)">
<path d="M24.5695 19.1535C24.5151 19.0624 24.1784 18.3308 22.5583 16.8271C20.8622 15.2525 21.0901 15.5082 23.1329 12.7857C24.3771 11.1276 24.8746 10.115 24.7189 9.68212C24.5708 9.26949 23.6557 9.37834 23.6557 9.37834L20.6129 9.39606C20.6129 9.39606 20.3876 9.36569 20.2192 9.46568C20.056 9.5644 19.9509 9.79223 19.9509 9.79223C19.9509 9.79223 19.4687 11.0757 18.8257 12.1667C17.4701 14.4691 16.9271 14.5906 16.7056 14.4475C16.1905 14.1147 16.3196 13.1084 16.3196 12.3946C16.3196 10.1631 16.6575 9.23279 15.6601 8.9923C15.3285 8.91256 15.0855 8.8594 14.2387 8.85054C13.1527 8.83915 12.2326 8.85434 11.7123 9.10875C11.3655 9.27835 11.0985 9.6568 11.2618 9.67832C11.463 9.7049 11.9187 9.80109 12.1604 10.1302C12.473 10.5542 12.4617 11.5085 12.4617 11.5085C12.4617 11.5085 12.6414 14.1349 12.0427 14.4615C11.6313 14.6855 11.0681 14.2286 9.85934 12.1389C9.2404 11.0693 8.77208 9.8859 8.77208 9.8859C8.77208 9.8859 8.68222 9.66566 8.52147 9.54795C8.32655 9.40492 8.05316 9.35936 8.05316 9.35936L5.15972 9.37708C5.15972 9.37708 4.72558 9.38974 4.5661 9.57833C4.42434 9.74667 4.55471 10.0935 4.55471 10.0935C4.55471 10.0935 6.82035 15.393 9.38469 18.065C11.7377 20.5141 14.4083 20.3534 14.4083 20.3534H15.6184C15.6184 20.3534 15.9842 20.3129 16.1702 20.1116C16.3423 19.9268 16.336 19.58 16.336 19.58C16.336 19.58 16.312 17.9561 17.0663 17.7169C17.8093 17.4815 18.7637 19.2864 19.775 19.9813C20.5395 20.5065 21.1204 20.3914 21.1204 20.3914L23.8253 20.3534C23.8253 20.3534 25.2404 20.2661 24.5695 19.1535Z" fill="white"/>
</g>
<defs>
<clipPath id="clip0">
<rect width="20.25" height="20.25" fill="white" transform="translate(4.5 4.5)"/>
</clipPath>
</defs>
</svg>
