<svg width="64" height="57" viewBox="0 0 64 57" fill="none" xmlns="http://www.w3.org/2000/svg">
<path d="M63.1048 47.4405C62.6573 47.4405 62.2097 46.993 62.2097 46.5454V44.7552C62.2097 44.3077 62.6573 43.8601 63.1048 43.8601C63.5524 43.8601 63.9999 44.3077 63.9999 44.7552V46.5454C63.9999 46.993 63.5524 47.4405 63.1048 47.4405Z" fill="#0865C9"/>
<path d="M63.1048 38.1912C62.6573 38.1912 62.2097 37.7436 62.2097 37.2961V33.5665C62.2097 33.1189 62.6573 32.6714 63.1048 32.6714C63.5524 32.6714 63.9999 33.1189 63.9999 33.5665V37.2961C63.9999 37.7436 63.5524 38.1912 63.1048 38.1912Z" fill="#0865C9"/>
<path d="M63.1048 26.8531C62.6573 26.8531 62.2097 26.4056 62.2097 25.958V24.1678C62.2097 23.7203 62.6573 23.2727 63.1048 23.2727C63.5524 23.2727 63.9999 23.7203 63.9999 24.1678V25.958C63.9999 26.4056 63.5524 26.8531 63.1048 26.8531Z" fill="#0865C9"/>
<path d="M56.69 56.2424H7.31002C3.28205 56.2424 0 52.9603 0 48.9323V13.1281C0 10.4428 2.08858 8.35425 4.77389 8.35425H17.6037C17.9021 8.35425 18.2005 8.50343 18.3496 8.65262L24.1678 16.5594H59.0769C61.7622 16.5594 63.8508 18.648 63.8508 21.3333V24.0186C63.8508 24.4661 63.4033 24.9137 62.9557 24.9137C62.5082 24.9137 62.0606 24.4661 62.0606 24.0186V21.3333C62.0606 19.6922 60.7179 18.3496 59.0769 18.3496H23.7203C23.4219 18.3496 23.1235 18.2004 22.9744 18.0512L17.1562 10.1445H4.77389C3.13287 10.1445 1.79021 11.4871 1.79021 13.1281V48.9323C1.79021 51.916 4.32634 54.4521 7.31002 54.4521H56.69C59.6737 54.4521 62.2098 51.916 62.2098 48.9323V46.3962C62.2098 45.9487 62.6573 45.5011 63.1049 45.5011C63.5524 45.5011 64 45.9487 64 46.3962V48.9323C64 53.1095 60.7179 56.2424 56.69 56.2424Z" fill="#0865C9"/>
<path d="M34.3124 18.3497H12.3823C11.9347 18.3497 11.4872 17.9021 11.4872 17.4546C11.4872 17.007 11.9347 16.5594 12.3823 16.5594H34.3124C34.7599 16.5594 35.2075 17.007 35.2075 17.4546C35.2075 17.9021 34.7599 18.3497 34.3124 18.3497Z" fill="#0865C9"/>
<path d="M53.7063 18.3496C53.2588 18.3496 52.8112 17.9021 52.8112 17.4545V14.9184H49.9767C49.5292 14.9184 49.2308 14.62 49.0816 14.3217C48.7833 13.2774 48.3357 12.0839 47.739 11.1888C47.739 10.8904 47.739 10.4429 48.0373 10.1445L50.1259 8.05594L46.5455 4.47552L44.6061 6.5641C44.3077 6.86247 43.8602 6.86247 43.5618 6.71329C42.5175 6.11655 41.4732 5.669 40.429 5.37063C39.9814 5.22145 39.8322 4.92308 39.8322 4.47552V1.64103H34.76V4.47552C34.76 4.92308 34.4616 5.22145 34.1632 5.37063C33.1189 5.669 31.9255 6.11655 31.0304 6.71329C30.732 6.86247 30.2844 6.86247 29.9861 6.5641L27.8975 4.47552L24.3171 8.05594L26.4056 9.99534C26.704 10.2937 26.704 10.7413 26.5548 11.0396C25.9581 12.0839 25.5105 13.1282 25.2122 14.1725C25.063 14.62 24.7646 14.7692 24.3171 14.7692H21.4826C21.035 14.7692 20.5875 14.3217 20.5875 13.8741C20.5875 13.4266 21.035 12.979 21.4826 12.979H23.7203C24.0187 12.2331 24.3171 11.338 24.7646 10.5921L23.2728 9.10023C22.5269 9.10023 22.3777 8.65268 22.3777 8.20513C22.3777 7.75758 22.5269 7.31002 22.8252 7.01165L26.4056 3.43124C26.8532 2.98368 27.3007 2.8345 27.7483 2.8345C28.1959 2.8345 28.6434 2.98368 28.9418 3.28205L30.4336 4.77389C31.1795 4.32634 31.9255 4.02797 32.8206 3.7296V1.64103C32.8206 0.745921 33.5665 0 34.4616 0H39.5338C40.429 0 41.1749 0.745921 41.1749 1.64103V3.87879C41.9208 4.17716 42.8159 4.47552 43.5618 4.92308L45.0537 3.43124C45.352 3.13287 45.7996 2.98368 46.2471 2.98368C46.6947 2.98368 47.1422 3.13287 47.4406 3.43124L51.021 7.01165C51.3194 7.31002 51.4686 7.75758 51.4686 8.20513C51.4686 8.65268 51.3194 9.10023 51.021 9.3986L49.5292 10.8904C49.9767 11.6364 50.2751 12.3823 50.5735 13.2774H52.8112C53.7063 13.2774 54.4523 14.0233 54.4523 14.9184V17.4545C54.6014 18.0513 54.1539 18.3496 53.7063 18.3496Z" fill="#0865C9"/>
<path d="M46.8437 18.3497H27.3006C26.8531 18.3497 26.4055 17.9022 26.4055 17.4546C26.4055 11.6364 31.1794 6.86255 36.9976 6.86255C42.8158 6.86255 47.5897 11.6364 47.5897 17.4546C47.7388 18.0514 47.2913 18.3497 46.8437 18.3497ZM28.1957 16.7087H45.7995C45.3519 12.2332 41.6223 8.65276 36.9976 8.65276C32.5221 8.65276 28.6433 12.2332 28.1957 16.7087Z" fill="#0865C9"/>
<path d="M40.8764 18.3497H33.268C32.8205 18.3497 32.3729 17.9021 32.3729 17.4546C32.3729 14.9184 34.4615 12.6807 37.1468 12.6807C39.6829 12.6807 41.9207 14.7692 41.9207 17.4546C41.7715 18.0513 41.324 18.3497 40.8764 18.3497ZM34.3123 16.7086H39.9813C39.5338 15.5152 38.4895 14.6201 37.1468 14.6201C35.8042 14.6201 34.6107 15.5152 34.3123 16.7086Z" fill="#0865C9"/>
<path d="M31.7762 49.5291C31.627 49.5291 31.4778 49.5291 31.3287 49.3799C31.0303 49.2308 30.8811 48.9324 30.8811 48.634V40.5781C30.8811 40.1305 31.3287 39.683 31.7762 39.683C32.2238 39.683 32.6713 40.1305 32.6713 40.5781V46.8438L45.9487 36.1026L32.6713 25.3613V31.627C32.6713 32.0746 32.2238 32.5221 31.7762 32.5221C31.3287 32.5221 30.8811 32.0746 30.8811 31.627V23.5711C30.8811 23.2727 31.0303 22.9743 31.3287 22.8252C31.627 22.676 31.9254 22.676 32.2238 22.9743L47.8881 35.5058C48.0373 35.655 48.1865 35.9534 48.1865 36.2517C48.1865 36.5501 48.0373 36.6993 47.8881 36.9977L32.3729 49.2308C32.0746 49.3799 31.9254 49.5291 31.7762 49.5291Z" fill="#0865C9"/>
<path d="M35.655 32.373H16.5594C16.1119 32.373 15.6643 31.9254 15.6643 31.4779C15.6643 31.0303 16.1119 30.5828 16.5594 30.5828H35.5058C35.9534 30.5828 36.4009 31.0303 36.4009 31.4779C36.4009 31.9254 36.1025 32.373 35.655 32.373Z" fill="#0865C9"/>
<path d="M35.655 41.324H16.5594C16.1119 41.324 15.6643 40.8765 15.6643 40.4289C15.6643 39.9814 16.1119 39.5338 16.5594 39.5338H35.5058C35.9534 39.5338 36.4009 39.9814 36.4009 40.4289C36.4009 40.8765 36.1025 41.324 35.655 41.324Z" fill="#0865C9"/>
<path d="M39.5338 36.8486H23.422C22.9744 36.8486 22.5269 36.401 22.5269 35.9535C22.5269 35.5059 22.9744 35.0583 23.422 35.0583H39.5338C39.9814 35.0583 40.429 35.5059 40.429 35.9535C40.429 36.401 39.9814 36.8486 39.5338 36.8486Z" fill="#0865C9"/>
</svg>
