<svg width="46" height="46" viewBox="0 0 46 46" fill="none" xmlns="http://www.w3.org/2000/svg">
<path fill-rule="evenodd" clip-rule="evenodd" d="M29.1102 0.820434C27.1537 0.275166 25.1169 0.0025322 23 0.0025322C20.9152 -0.0295424 18.8784 0.243091 16.8898 0.820434C14.9012 1.39778 13.0649 2.17558 11.381 3.15386C9.69707 4.13213 8.14947 5.32691 6.73819 6.73819C5.32691 8.14947 4.12411 9.70509 3.1298 11.405C2.13549 13.105 1.3657 14.9332 0.820434 16.8898C0.275166 18.8463 0.0025322 20.8831 0.0025322 23C-0.0295424 25.0848 0.243092 27.1216 0.820434 29.1102C1.39778 31.0988 2.17558 32.9351 3.15386 34.619C4.13213 36.3029 5.32691 37.8505 6.73819 39.2618C8.14947 40.6731 9.70509 41.8759 11.405 42.8702C13.105 43.8645 14.9332 44.6343 16.8898 45.1796C18.8463 45.7248 20.8831 45.9975 23 45.9975C25.0848 46.0295 27.1216 45.7569 29.1102 45.1796C31.0988 44.6022 32.9351 43.8244 34.619 42.8461C36.3029 41.8679 37.8505 40.6731 39.2618 39.2618C40.6731 37.8505 41.8759 36.2949 42.8702 34.595C43.8645 32.895 44.6343 31.0668 45.1796 29.1102C45.7248 27.1537 45.9975 25.1169 45.9975 23C46.0295 20.9152 45.7569 18.8784 45.1796 16.8898C44.6022 14.9012 43.8244 13.0649 42.8461 11.381C41.8679 9.69707 40.6731 8.14947 39.2618 6.73819C37.8505 5.32691 36.2949 4.12411 34.595 3.1298C32.895 2.13549 31.0668 1.3657 29.1102 0.820434ZM28.3404 42.3891C26.6244 42.8702 24.8443 43.1108 23 43.1108C21.1718 43.1268 19.3916 42.8862 17.6596 42.3891C15.9276 41.8919 14.3238 41.2103 12.8484 40.3443C11.373 39.4783 10.0178 38.4359 8.78295 37.2171C7.54808 35.9982 6.49763 34.6431 5.63162 33.1516C4.76561 31.6601 4.09204 30.0564 3.61092 28.3404C3.1298 26.6244 2.88924 24.8443 2.88924 23C2.87321 21.1718 3.11377 19.3916 3.61092 17.6596C4.10808 15.9276 4.78966 14.3238 5.65568 12.8484C6.52169 11.373 7.56411 10.0178 8.78295 8.78295C10.0018 7.54808 11.3569 6.49763 12.8484 5.63162C14.3399 4.76561 15.9436 4.09204 17.6596 3.61092C19.3756 3.1298 21.1557 2.88924 23 2.88924C24.8283 2.87321 26.6084 3.11377 28.3404 3.61092C30.0724 4.10808 31.6762 4.78966 33.1516 5.65568C34.627 6.52169 35.9822 7.56411 37.2171 8.78295C38.4519 10.0018 39.5024 11.3569 40.3684 12.8484C41.2344 14.3399 41.908 15.9436 42.3891 17.6596C42.8702 19.3756 43.1108 21.1557 43.1108 23C43.1268 24.8283 42.8862 26.6084 42.3891 28.3404C41.8919 30.0724 41.2103 31.6762 40.3443 33.1516C39.4783 34.627 38.4359 35.9822 37.2171 37.2171C35.9982 38.4519 34.6431 39.5024 33.1516 40.3684C31.6601 41.2344 30.0564 41.908 28.3404 42.3891ZM35 14.2123H32V29.7052L13.5664 11.7083L11.4336 13.7893L29.8789 31.7747H14V34.7018H35V14.2123Z" fill="black"/>
</svg>
