<svg width="46" height="46" viewBox="0 0 46 46" fill="none" xmlns="http://www.w3.org/2000/svg">
<path d="M23 0.0025322C25.1169 0.0025322 27.1537 0.275166 29.1102 0.820434C31.0668 1.3657 32.895 2.13549 34.595 3.1298C36.2949 4.12411 37.8505 5.32691 39.2618 6.73819C40.6731 8.14947 41.8679 9.69707 42.8461 11.381C43.8244 13.0649 44.6022 14.9012 45.1796 16.8898C45.7569 18.8784 46.0295 20.9152 45.9975 23C45.9975 25.1169 45.7248 27.1537 45.1796 29.1102C44.6343 31.0668 43.8645 32.895 42.8702 34.595C41.8759 36.2949 40.6731 37.8505 39.2618 39.2618C37.8505 40.6731 36.3029 41.8679 34.619 42.8461C32.9351 43.8244 31.0988 44.6022 29.1102 45.1796C27.1216 45.7569 25.0849 46.0295 23 45.9975C20.8831 45.9975 18.8463 45.7248 16.8898 45.1796C14.9332 44.6343 13.105 43.8645 11.405 42.8702C9.70509 41.8759 8.14947 40.6731 6.73819 39.2618C5.32691 37.8505 4.13213 36.3029 3.15386 34.619C2.17558 32.9351 1.39778 31.0988 0.820434 29.1102C0.243091 27.1216 -0.0295424 25.0849 0.0025322 23C0.0025322 20.8831 0.275166 18.8463 0.820434 16.8898C1.3657 14.9332 2.13549 13.105 3.1298 11.405C4.12411 9.70509 5.32691 8.14947 6.73819 6.73819C8.14947 5.32691 9.69707 4.13213 11.381 3.15386C13.0649 2.17558 14.9012 1.39778 16.8898 0.820434C18.8784 0.243091 20.9152 -0.0295424 23 0.0025322ZM23 43.1108C24.8443 43.1108 26.6244 42.8702 28.3404 42.3891C30.0564 41.908 31.6601 41.2344 33.1516 40.3684C34.6431 39.5024 35.9982 38.4519 37.2171 37.2171C38.4359 35.9822 39.4783 34.627 40.3443 33.1516C41.2103 31.6762 41.8919 30.0724 42.3891 28.3404C42.8862 26.6084 43.1268 24.8283 43.1108 23C43.1108 21.1557 42.8702 19.3756 42.3891 17.6596C41.908 15.9436 41.2344 14.3399 40.3684 12.8484C39.5024 11.3569 38.4519 10.0018 37.2171 8.78295C35.9822 7.56411 34.627 6.52169 33.1516 5.65568C31.6762 4.78966 30.0724 4.10808 28.3404 3.61092C26.6084 3.11377 24.8283 2.87321 23 2.88924C21.1557 2.88924 19.3756 3.1298 17.6596 3.61092C15.9436 4.09204 14.3399 4.76561 12.8484 5.63162C11.3569 6.49763 10.0018 7.54808 8.78295 8.78295C7.56411 10.0178 6.52169 11.373 5.65568 12.8484C4.78966 14.3238 4.10808 15.9276 3.61092 17.6596C3.11377 19.3916 2.87321 21.1718 2.88924 23C2.88924 24.8443 3.1298 26.6244 3.61092 28.3404C4.09204 30.0564 4.76561 31.6601 5.63162 33.1516C6.49763 34.6431 7.54808 35.9982 8.78295 37.2171C10.0178 38.4359 11.373 39.4783 12.8484 40.3443C14.3238 41.2103 15.9276 41.8919 17.6596 42.3891C19.3916 42.8862 21.1718 43.1268 23 43.1108ZM21.4604 32.9208H24.5396V36H21.4604V32.9208ZM23 9.82715C24.0585 9.82715 25.0528 10.0276 25.9829 10.4286C26.9131 10.8295 27.723 11.3828 28.4126 12.0884C29.1022 12.7941 29.6555 13.612 30.0724 14.5421C30.4894 15.4723 30.6979 16.4666 30.6979 17.5251C30.6979 18.4873 30.5455 19.3212 30.2408 20.0269C29.9361 20.7325 29.5593 21.382 29.1102 21.9754C28.6612 22.5688 28.164 23.09 27.6187 23.539C27.0735 23.9881 26.5843 24.4612 26.1513 24.9583C25.7183 25.4555 25.3334 25.9607 24.9966 26.4739C24.6599 26.987 24.5075 27.5965 24.5396 28.3021V29.8417H21.4604V28.3021C21.4604 27.3399 21.6128 26.5059 21.9175 25.8003C22.2222 25.0947 22.5991 24.4451 23.0481 23.8518C23.4972 23.2584 23.9943 22.7372 24.5396 22.2881C25.0849 21.8391 25.574 21.366 26.007 20.8688C26.44 20.3717 26.8249 19.8665 27.1617 19.3533C27.4985 18.8401 27.6508 18.2307 27.6187 17.5251C27.6187 16.8836 27.4985 16.2822 27.2579 15.7209C27.0173 15.1596 26.6886 14.6704 26.2716 14.2534C25.8546 13.8365 25.3655 13.5077 24.8042 13.2672C24.2429 13.0266 23.6415 12.9063 23 12.9063C22.3585 12.9063 21.7571 13.0266 21.1958 13.2672C20.6345 13.5077 20.1454 13.8365 19.7284 14.2534C19.3114 14.6704 18.9827 15.1596 18.7421 15.7209C18.5015 16.2822 18.3813 16.8836 18.3813 17.5251H15.3021C15.3021 16.4666 15.5026 15.4723 15.9035 14.5421C16.3044 13.612 16.8497 12.8021 17.5393 12.1125C18.2289 11.4229 19.0468 10.8696 19.993 10.4526C20.9392 10.0356 21.9415 9.82715 23 9.82715Z" fill="black"/>
</svg>
