<svg width="46" height="46" viewBox="0 0 46 46" fill="none" xmlns="http://www.w3.org/2000/svg">
<path fill-rule="evenodd" clip-rule="evenodd" d="M29.1102 0.820434C27.1537 0.275166 25.1169 0.0025322 23 0.0025322C20.9152 -0.0295424 18.8784 0.243091 16.8898 0.820434C14.9012 1.39778 13.0649 2.17558 11.381 3.15386C9.69707 4.13213 8.14947 5.32691 6.73819 6.73819C5.32691 8.14947 4.12411 9.70509 3.1298 11.405C2.13549 13.105 1.3657 14.9332 0.820434 16.8898C0.275166 18.8463 0.0025322 20.8831 0.0025322 23C-0.0295424 25.0848 0.243092 27.1216 0.820434 29.1102C1.39778 31.0988 2.17558 32.9351 3.15386 34.619C4.13213 36.3029 5.32691 37.8505 6.73819 39.2618C8.14947 40.6731 9.70509 41.8759 11.405 42.8702C13.105 43.8645 14.9332 44.6343 16.8898 45.1796C18.8463 45.7248 20.8831 45.9975 23 45.9975C25.0848 46.0295 27.1216 45.7569 29.1102 45.1796C31.0988 44.6022 32.9351 43.8244 34.619 42.8461C36.3029 41.8679 37.8505 40.6731 39.2618 39.2618C40.6731 37.8505 41.8759 36.2949 42.8702 34.595C43.8645 32.895 44.6343 31.0668 45.1796 29.1102C45.7248 27.1537 45.9975 25.1169 45.9975 23C46.0295 20.9152 45.7569 18.8784 45.1796 16.8898C44.6022 14.9012 43.8244 13.0649 42.8461 11.381C41.8679 9.69707 40.6731 8.14947 39.2618 6.73819C37.8505 5.32691 36.2949 4.12411 34.595 3.1298C32.895 2.13549 31.0668 1.3657 29.1102 0.820434ZM28.3404 42.3891C26.6244 42.8702 24.8443 43.1108 23 43.1108C21.1718 43.1268 19.3916 42.8862 17.6596 42.3891C15.9276 41.8919 14.3238 41.2103 12.8484 40.3443C11.373 39.4783 10.0178 38.4359 8.78295 37.2171C7.54808 35.9982 6.49763 34.6431 5.63162 33.1516C4.76561 31.6601 4.09204 30.0564 3.61092 28.3404C3.1298 26.6244 2.88924 24.8443 2.88924 23C2.87321 21.1717 3.11377 19.3916 3.61092 17.6596C4.10808 15.9276 4.78966 14.3238 5.65568 12.8484C6.52169 11.373 7.56411 10.0178 8.78295 8.78295C10.0018 7.54808 11.3569 6.49763 12.8484 5.63162C14.3399 4.76561 15.9436 4.09204 17.6596 3.61092C19.3756 3.1298 21.1557 2.88924 23 2.88924C24.8283 2.87321 26.6084 3.11377 28.3404 3.61092C30.0724 4.10808 31.6762 4.78966 33.1516 5.65568C34.627 6.52169 35.9822 7.56411 37.2171 8.78295C38.4519 10.0018 39.5024 11.3569 40.3684 12.8484C41.2344 14.3399 41.908 15.9436 42.3891 17.6596C42.8702 19.3756 43.1108 21.1557 43.1108 23C43.1268 24.8283 42.8862 26.6084 42.3891 28.3404C41.8919 30.0724 41.2103 31.6762 40.3443 33.1516C39.4783 34.627 38.4359 35.9822 37.2171 37.2171C35.9982 38.4519 34.6431 39.5024 33.1516 40.3684C31.6601 41.2344 30.0564 41.908 28.3404 42.3891ZM23 10C23.425 10 23.8292 10.0274 24.2125 10.0822C24.5958 10.1369 24.9667 10.2282 25.325 10.356C25.6833 10.4838 26.0417 10.639 26.4 10.8215C26.7583 11.0041 27.1125 11.2231 27.4625 11.4787C28.0625 11.8986 28.6625 12.2409 29.2625 12.5056C29.8625 12.7703 30.4708 12.9757 31.0875 13.1218C31.7042 13.2678 32.3375 13.3682 32.9875 13.423C33.6375 13.4778 34.3083 13.5051 35 13.5051V20.5154C35 21.8481 34.85 23.1123 34.55 24.3081C34.25 25.5038 33.8292 26.6357 33.2875 27.7037C32.7458 28.7716 32.1083 29.7848 31.375 30.7433C30.6417 31.7017 29.8458 32.5917 28.9875 33.4132C28.1292 34.2347 27.225 35.0152 26.275 35.7545C25.325 36.4939 24.3625 37.1602 23.3875 37.7535L23 38L22.6125 37.7535C21.6458 37.142 20.6875 36.4756 19.7375 35.7545C18.7875 35.0334 17.8792 34.2575 17.0125 33.4269C16.1458 32.5963 15.35 31.7017 14.625 30.7433C13.9 29.7848 13.2667 28.7762 12.725 27.7174C12.1833 26.6585 11.7625 25.5221 11.4625 24.3081C11.1625 23.094 11.0083 21.8298 11 20.5154V13.5051C11.6917 13.5051 12.3625 13.4778 13.0125 13.423C13.6625 13.3682 14.2958 13.2678 14.9125 13.1218C15.5292 12.9757 16.1375 12.7703 16.7375 12.5056C17.3375 12.2409 17.9375 11.8986 18.5375 11.4787C19.2458 10.9767 19.9542 10.607 20.6625 10.3697C21.3708 10.1324 22.15 10.0091 23 10ZM23 13C23.3187 13 23.6219 13.0212 23.9094 13.0637C24.1969 13.1061 24.475 13.1769 24.7437 13.2759C25.0125 13.3749 25.2812 13.4952 25.55 13.6367C25.8187 13.7782 26.0844 13.9479 26.3469 14.146C26.7969 14.4714 27.2469 14.7367 27.6969 14.9419C28.1469 15.147 28.6031 15.3062 29.0656 15.4194C29.5281 15.5326 30.0031 15.6104 30.4906 15.6528C30.9781 15.6953 31.4813 15.7165 32 15.7165V21.1494C32 22.1823 31.8875 23.162 31.6625 24.0888C31.4375 25.0155 31.1219 25.8927 30.7156 26.7203C30.3094 27.548 29.8312 28.3333 29.2812 29.076C28.7313 29.8188 28.1344 30.5086 27.4906 31.1452C26.8469 31.7819 26.1687 32.3867 25.4562 32.9598C24.7437 33.5328 24.0219 34.0492 23.2906 34.509L23 34.7L22.7094 34.509C21.9844 34.035 21.2656 33.5186 20.5531 32.9598C19.8406 32.4009 19.1594 31.7996 18.5094 31.1558C17.8594 30.5121 17.2625 29.8188 16.7188 29.076C16.175 28.3333 15.7 27.5516 15.2937 26.731C14.8875 25.9103 14.5719 25.0296 14.3469 24.0888C14.1219 23.1479 14.0062 22.1681 14 21.1494V15.7165C14.5188 15.7165 15.0219 15.6953 15.5094 15.6528C15.9969 15.6104 16.4719 15.5326 16.9344 15.4194C17.3969 15.3062 17.8531 15.147 18.3031 14.9419C18.7531 14.7367 19.2031 14.4714 19.6531 14.146C20.1844 13.7569 20.7156 13.4704 21.2469 13.2865C21.7781 13.1026 22.3625 13.0071 23 13Z" fill="black"/>
</svg>
