<svg width="64" height="64" viewBox="0 0 64 64" fill="none" xmlns="http://www.w3.org/2000/svg">
<path d="M32 52.9231C20.4615 52.9231 11.0769 43.5384 11.0769 32C11.0769 20.4615 20.4615 11.0769 32 11.0769C43.5384 11.0769 52.9231 20.4615 52.9231 32C52.9231 43.5384 43.5384 52.9231 32 52.9231ZM32 12.9231C21.3846 12.9231 12.9231 21.5384 12.9231 32C12.9231 42.4615 21.5384 51.0769 32 51.0769C42.6154 51.0769 51.0769 42.4615 51.0769 32C51.0769 21.5384 42.6154 12.9231 32 12.9231Z" fill="#0865C9"/>
<path d="M48.9231 32.1538C48.1539 32.1538 47.5385 32 47.0769 31.5384C46.7692 31.2307 46 30.4615 46.6154 29.0769C46.6154 28.9231 46.6154 28.9231 46.6154 28.9231C46.4615 28.7692 45.6923 28.4615 45.2308 28.3077C44.1539 27.8461 42.7692 27.3846 42.1539 26.1538C41.6923 25.0769 39.3846 25.5384 38 25.6923C37.6923 25.6923 37.5385 25.8461 37.3846 25.8461C36.6154 26 36 25.6923 35.5385 25.0769C34.7692 24 34.7692 22.1538 35.2308 21.2307C34.7692 20.6154 32.7692 19.5384 30.6154 19.3846C29.2308 19.3846 28.1539 18.6154 28 17.5384C27.6923 16.1538 28.7692 14.4615 30.3077 13.8461C31.3846 13.3846 31.2308 12.7692 31.0769 12.4615C30.9231 12 31.2308 11.5384 31.6923 11.3846C32.1539 11.2307 32.6154 11.3846 32.7692 12C33.0769 13.0769 32.9231 14.9231 30.9231 15.6923C30.1539 16 29.6923 16.9231 29.6923 17.3846C29.6923 17.6923 30.1539 17.8461 30.6154 17.8461C33.0769 17.8461 36 19.2307 36.7692 20.6154C37.2308 21.2307 36.9231 21.8461 36.7692 22.1538C36.4615 22.6154 36.6154 24.3077 36.9231 24.4615C37.0769 24.4615 37.2308 24.4615 37.5385 24.3077C39.3846 24 42.6154 23.3846 43.6923 25.8461C43.8462 26.4615 44.7692 26.7692 45.6923 27.0769C46.6154 27.3846 47.6923 27.8461 48.1539 28.6154C48.3077 29.0769 48.3077 29.6923 48.1539 30.1538C48 30.4615 48 30.4615 48.1539 30.6154C48.1539 30.6154 48.3077 30.6154 48.4615 30.7692C49.0769 30.9231 50.4615 30.7692 51.5385 30C52 29.6923 52.4615 29.8461 52.7692 30.3077C53.0769 30.7692 52.9231 31.2307 52.4615 31.5384C51.3846 31.6923 50 32.1538 48.9231 32.1538Z" fill="#0865C9"/>
<path d="M39.8462 41.6923C38.1539 41.6923 36.7693 40.7692 36.0001 38.9231C35.2308 37.3846 35.2308 35.3846 36.3078 34.3077C37.077 33.6923 37.077 32.7692 36.4616 30.7692C36.3078 30.1538 36.4616 29.5385 36.7693 29.0769C37.6924 28 40.0001 28.1538 40.7693 28.1538C43.6924 28.1538 44.6155 30 45.2308 31.2308C45.6924 32.1538 46.0001 32.7692 46.9232 32.9231C48.3078 33.2308 49.077 34.1538 49.077 35.3846C49.077 37.0769 47.3847 38.7692 45.6924 39.0769C45.077 39.2308 44.7693 39.3846 44.3078 39.8461C43.6924 40.4615 42.7693 41.2308 40.4616 41.6923C40.3078 41.6923 40.0001 41.6923 39.8462 41.6923ZM38.1539 30.3077C38.1539 30.3077 38.1539 30.4615 38.1539 30.3077C38.6155 32.3077 39.2308 34.3077 37.3847 35.8461C37.2308 36 37.077 37.0769 37.5385 38.3077C37.8462 39.0769 38.6155 40.1538 40.3078 39.8461C42.1539 39.5385 42.7693 39.0769 43.2308 38.4615C43.6924 38 44.3078 37.5385 45.5385 37.2308C46.4616 37.0769 47.3847 36 47.3847 35.2308C47.3847 35.0769 47.3847 34.7692 46.6155 34.6154C44.9232 34.3077 44.3078 33.0769 43.6924 32C43.077 30.7692 42.6155 30 40.7693 29.8461C40.7693 29.8461 40.7693 29.8461 40.6155 29.8461C39.5385 30 38.3078 30.1538 38.1539 30.3077Z" fill="#0865C9"/>
<path d="M12.6154 38C12.3077 38 12 37.8461 11.8462 37.6923C11.5385 37.2307 11.6923 36.7692 12 36.4615C12.1539 36.4615 14.3077 34.7692 16.6154 35.3846C17.3846 35.5384 18 35.0769 18.3077 34.7692C18.4616 34.4615 18.6154 34.1538 18.4616 34C18.1539 33.3846 18 32.6154 18.1539 31.8461C18.4616 30.6154 19.5385 29.2307 20.9231 28.4615C21.8462 28 22.6154 26.7692 22.7693 25.6923C22.7693 24.923 22.3077 24.1538 21.3846 23.5384C17.5385 21.0769 18.4616 16.4615 18.4616 16.1538C18.6154 15.6923 19.077 15.3846 19.5385 15.5384C20 15.6923 20.3077 16.1538 20.1539 16.6154C20.1539 16.7692 19.3846 20.3077 22.1539 22C24 23.2307 24.4616 24.6154 24.4616 25.6923C24.4616 27.5384 23.077 29.2307 21.8462 30C20.9231 30.6154 20.1539 31.5384 19.8462 32.3077C19.8462 32.4615 19.6923 32.7692 19.8462 33.0769C20.3077 33.8461 20.1539 34.923 19.5385 35.8461C18.7693 36.923 17.2308 37.5384 16 37.2307C14.6154 36.923 12.9231 38 12.9231 38C12.9231 38 12.7693 38 12.6154 38Z" fill="#0865C9"/>
<path d="M19.2308 48.4615C18.9231 48.4615 18.6154 48.3077 18.4616 47.8461C18.3078 47.3846 18.4616 46.923 18.9231 46.6154C19.5385 46.3077 19.8462 45.8461 20.0001 45.2307C20.1539 44.7692 20.0001 44.4615 20.0001 44.4615C19.3847 44.4615 18.6154 44.1538 18.1539 43.6923C17.5385 42.7692 17.3847 41.3846 17.6924 39.6923C17.2308 39.6923 16.4616 39.6923 15.6924 39.0769C15.5385 39.0769 14.6154 39.3846 13.8462 40C13.3847 40.3077 12.9231 40.3077 12.6154 39.8461C12.3078 39.3846 12.3078 38.923 12.7693 38.6154C13.077 38.4615 15.5385 36.6154 17.077 37.8461C17.2308 38 17.5385 38 17.8462 38C18.3078 38 18.9231 38 19.3847 38.4615C19.8462 38.923 19.6924 39.6923 19.5385 40.1538C19.2308 41.3846 19.3847 42.1538 19.6924 42.4615C19.6924 42.6154 19.8462 42.6154 20.1539 42.6154C21.077 42.6154 21.6924 43.2307 21.8462 44.1538C22.1539 45.5384 21.3847 47.5384 19.6924 48.1538C19.5385 48.3077 19.3847 48.4615 19.2308 48.4615Z" fill="#0865C9"/>
<path d="M36.7692 64H27.2308C25.8462 64 24.7692 62.9231 24.7692 61.5385V56.9231C22.9231 56.4615 21.2308 55.6923 19.5385 54.7692L16.3077 58C15.3846 58.9231 13.8462 58.9231 12.9231 58L6.15385 51.2308C5.69231 50.7692 5.38462 50.1538 5.38462 49.5385C5.38462 48.9231 5.69231 48.3077 6.15385 47.8462L9.23077 44.4615C8.30769 42.7692 7.53846 41.0769 7.07692 39.2308H2.46154C1.07692 39.2308 0 38.1538 0 36.7692V27.2308C0 25.8462 1.07692 24.7692 2.46154 24.7692H7.07692C7.69231 22.9231 8.30769 21.2308 9.23077 19.5385L6 16.3077C5.53846 15.8462 5.23077 15.2308 5.23077 14.6154C5.23077 14 5.53846 13.3846 6 12.9231L12.7692 6.15385C13.6923 5.23077 15.2308 5.23077 16.1538 6.15385L19.5385 9.23077C21.2308 8.30769 22.9231 7.53846 24.7692 7.07692V2.46154C24.7692 1.07692 25.8462 0 27.2308 0H36.7692C38.1538 0 39.2308 1.07692 39.2308 2.46154V7.07692C41.0769 7.69231 42.7692 8.30769 44.4615 9.23077L47.6923 6C48.6154 5.07692 50.1538 5.07692 51.0769 6L57.8462 12.7692C58.7692 13.6923 58.7692 15.2308 57.8462 16.1538L54.6154 19.3846C55.5385 21.0769 56.3077 22.7692 56.7692 24.6154H61.3846C62.7692 24.6154 63.8462 25.6923 63.8462 27.0769V36.6154C63.8462 38 62.7692 39.0769 61.3846 39.0769H56.7692C56.3077 40.9231 55.5385 42.6154 54.6154 44.3077L57.8462 47.5385C58.7692 48.4615 58.7692 50 57.8462 50.9231L51.0769 57.6923C50.1538 58.6154 48.6154 58.6154 47.6923 57.6923L44.4615 54.4615C42.7692 55.3846 41.0769 56.1538 39.2308 56.6154V61.2308C39.2308 62.9231 38.1538 64 36.7692 64ZM19.3846 52.6154C19.5385 52.6154 19.6923 52.6154 19.8462 52.7692C21.6923 53.8462 23.8462 54.7692 26 55.2308C26.4615 55.3846 26.6154 55.6923 26.6154 56.1538V61.5385C26.6154 61.8462 26.9231 62.1539 27.2308 62.1539H36.7692C37.0769 62.1539 37.3846 61.8462 37.3846 61.5385V56.1538C37.3846 55.6923 37.6923 55.3846 38 55.2308C40.1538 54.6154 42.1538 53.8462 44.1538 52.7692C44.4615 52.6154 44.9231 52.6154 45.2308 52.9231L49.0769 56.7692C49.3846 57.0769 49.6923 57.0769 50 56.7692L56.7692 50C57.0769 49.6923 57.0769 49.3846 56.7692 49.0769L52.9231 45.2308C52.6154 44.9231 52.6154 44.4615 52.7692 44.1538C53.8462 42.3077 54.7692 40.1538 55.2308 38C55.3846 37.5385 55.6923 37.3846 56.1538 37.3846H61.5385C61.8462 37.3846 62.1539 37.0769 62.1539 36.7692V27.2308C62.1539 26.9231 61.8462 26.6154 61.5385 26.6154H56.1538C55.6923 26.6154 55.3846 26.3077 55.2308 26C54.6154 23.8462 53.8462 21.8462 52.7692 19.8462C52.6154 19.5385 52.6154 19.0769 52.9231 18.7692L56.7692 14.9231C57.0769 14.6154 57.0769 14.3077 56.7692 14L50 7.23077C49.6923 6.92308 49.3846 6.92308 49.0769 7.23077L45.2308 11.0769C44.9231 11.3846 44.4615 11.3846 44.1538 11.2308C42.3077 10.1538 40.1538 9.23077 38 8.76923C37.5385 8.61538 37.3846 8.30769 37.3846 7.84615V2.46154C37.3846 2.15385 37.0769 1.84615 36.7692 1.84615H27.2308C26.9231 1.84615 26.6154 2.15385 26.6154 2.46154V7.84615C26.6154 8.30769 26.3077 8.61538 26 8.76923C23.8462 9.38461 21.8462 10.1538 19.8462 11.2308C19.5385 11.3846 19.0769 11.3846 18.7692 11.0769L14.9231 7.23077C14.6154 6.92308 14.3077 6.92308 14 7.23077L7.23077 14C6.92308 14.3077 6.92308 14.6154 7.23077 14.9231L11.0769 18.7692C11.3846 19.0769 11.3846 19.5385 11.2308 19.8462C10.1538 21.6923 9.23077 23.8462 8.76923 26C8.61538 26.4615 8.30769 26.6154 7.84615 26.6154H2.46154C2.15385 26.6154 1.84615 26.9231 1.84615 27.2308V36.7692C1.84615 37.0769 2.15385 37.3846 2.46154 37.3846H7.84615C8.30769 37.3846 8.61538 37.6923 8.76923 38C9.38461 40.1538 10.1538 42.1538 11.2308 44.1538C11.3846 44.4615 11.3846 44.9231 11.0769 45.2308L7.23077 49.0769C6.92308 49.3846 6.92308 49.6923 7.23077 50L14 56.7692C14.3077 57.0769 14.6154 57.0769 14.9231 56.7692L18.7692 52.9231C18.9231 52.7692 19.0769 52.6154 19.3846 52.6154Z" fill="#0865C9"/>
</svg>
