<svg width="38" height="32" viewBox="0 0 38 32" fill="none" xmlns="http://www.w3.org/2000/svg">
<path d="M4.47054 8.15712C5.35736 3.42739 9.48711 0 14.2993 0H25.9507C32.2121 0 36.9334 5.68875 35.7795 11.8429L33.5295 23.8429C32.6426 28.5726 28.5129 32 23.7007 32H12.0493C5.78788 32 1.06664 26.3113 2.22054 20.1571L4.47054 8.15712Z" fill="#0865C9"/>
<path d="M19.3225 20.9955C19.7539 20.9955 19.9317 20.6971 19.9215 20.3297C19.904 18.9323 20.4288 18.1811 21.382 19.1632C22.4373 20.2488 22.6545 20.997 23.9371 20.997C24.4211 20.997 25.7285 20.997 26.2037 20.997C27.9848 20.997 26.3975 19.1542 25.1411 17.9591C23.9473 16.8181 23.8934 16.7896 24.921 15.4176C26.1993 13.7143 27.8667 11.5191 26.3888 11.5191C26.1016 11.5191 26.3028 11.5191 23.5669 11.5191C23.0218 11.5191 22.9839 11.849 22.7886 12.3213C22.086 14.0307 20.7451 16.2453 20.2349 15.9079C19.7014 15.5556 19.9463 14.353 19.9886 12.2749C20.0032 11.7261 19.9988 11.3482 19.1811 11.1503C16.9496 10.6165 15.0212 11.6646 15.8083 11.8145C16.9233 12.0274 16.814 14.3066 16.5546 15.3756C16.1027 17.2394 14.4032 13.9002 13.6963 12.2389C13.5257 11.8385 13.4747 11.5161 12.864 11.5161C12.5288 11.5161 11.0537 11.5161 10.5567 11.5161C10.1121 11.5161 9.89348 11.7276 10.0509 12.1504C10.2054 12.5777 11.9895 16.6801 14.1 19.0237C16.0517 21.1904 17.9801 20.9955 19.3225 20.9955Z" fill="white"/>
</svg>
