<svg width="32" height="28" viewBox="0 0 32 28" fill="none" xmlns="http://www.w3.org/2000/svg">
<path d="M30 18L32 28H0L2 18H5.625C5.09375 17.0833 4.69271 16.1198 4.42188 15.1094C4.15104 14.099 4.01042 13.0625 4 12C4 10.8958 4.14062 9.83333 4.42188 8.8125C4.70312 7.79167 5.10938 6.83854 5.64062 5.95312C6.17188 5.06771 6.79688 4.25521 7.51562 3.51562C8.23438 2.77604 9.04167 2.15104 9.9375 1.64062C10.8333 1.13021 11.7917 0.729167 12.8125 0.4375C13.8333 0.145833 14.8958 0 16 0C17.1042 0 18.1667 0.140625 19.1875 0.421875C20.2083 0.703125 21.1615 1.10938 22.0469 1.64062C22.9323 2.17188 23.7448 2.79688 24.4844 3.51562C25.224 4.23438 25.849 5.04167 26.3594 5.9375C26.8698 6.83333 27.2708 7.79167 27.5625 8.8125C27.8542 9.83333 28 10.8958 28 12C28 13.0625 27.8646 14.099 27.5938 15.1094C27.3229 16.1198 26.9167 17.0833 26.375 18H30ZM26 12C26 11.6667 25.9844 11.3333 25.9531 11C25.9219 10.6667 25.8698 10.3333 25.7969 10H21.9062C21.9688 10.6771 22 11.3438 22 12C22 12.6667 21.9688 13.3333 21.9062 14H25.7969C25.8594 13.6667 25.9062 13.3333 25.9375 13C25.9688 12.6667 25.9896 12.3333 26 12ZM12.0938 14H19.9062C19.9688 13.3333 20 12.6667 20 12C20 11.3438 19.9688 10.6771 19.9062 10H12.0938C12.0312 10.6771 12 11.3438 12 12C12 12.6667 12.0312 13.3333 12.0938 14ZM19.625 16H12.375C12.4167 16.2396 12.4896 16.5521 12.5938 16.9375C12.6979 17.3229 12.8281 17.7448 12.9844 18.2031C13.1406 18.6615 13.3229 19.1094 13.5312 19.5469C13.7396 19.9844 13.9688 20.3906 14.2188 20.7656C14.4688 21.1406 14.7448 21.4375 15.0469 21.6562C15.349 21.875 15.6667 21.9896 16 22C16.3333 22 16.6458 21.8854 16.9375 21.6562C17.2292 21.4271 17.5052 21.1302 17.7656 20.7656C18.026 20.401 18.2552 19.9948 18.4531 19.5469C18.651 19.099 18.8333 18.651 19 18.2031C19.1667 17.7552 19.2969 17.3385 19.3906 16.9531C19.4844 16.5677 19.5625 16.25 19.625 16ZM12.1719 21.2344C11.6927 20.4427 11.3073 19.599 11.0156 18.7031C10.724 17.8073 10.5 16.9062 10.3438 16H6.84375C7.09375 16.5521 7.40625 17.0885 7.78125 17.6094C8.15625 18.1302 8.57292 18.625 9.03125 19.0938C9.48958 19.5625 9.98958 19.974 10.5312 20.3281C11.0729 20.6823 11.6198 20.9844 12.1719 21.2344ZM21.6562 16C21.4896 16.8958 21.2656 17.7917 20.9844 18.6875C20.7031 19.5833 20.3229 20.4323 19.8438 21.2344C20.4062 20.9844 20.9479 20.6771 21.4688 20.3125C21.9896 19.9479 22.4844 19.5417 22.9531 19.0938C23.4219 18.6458 23.8438 18.1562 24.2188 17.625C24.5938 17.0938 24.9062 16.5521 25.1562 16H21.6562ZM25.1562 8C24.625 6.82292 23.9062 5.78125 23 4.875C22.0938 3.96875 21.0365 3.26562 19.8281 2.76562C20.3073 3.55729 20.6875 4.40104 20.9688 5.29688C21.25 6.19271 21.4792 7.09375 21.6562 8H25.1562ZM16 2C15.6667 2 15.3542 2.11458 15.0625 2.34375C14.7708 2.57292 14.4948 2.86979 14.2344 3.23438C13.974 3.59896 13.7448 4.00521 13.5469 4.45312C13.349 4.90104 13.1667 5.34896 13 5.79688C12.8333 6.24479 12.6979 6.66146 12.5938 7.04688C12.4896 7.43229 12.4167 7.75 12.375 8H19.625C19.5729 7.76042 19.5 7.44792 19.4062 7.0625C19.3125 6.67708 19.1823 6.25521 19.0156 5.79688C18.849 5.33854 18.6667 4.89062 18.4688 4.45312C18.2708 4.01562 18.0417 3.60938 17.7812 3.23438C17.5208 2.85938 17.2448 2.5625 16.9531 2.34375C16.6615 2.125 16.3438 2.01042 16 2ZM12.1719 2.76562C10.974 3.26562 9.92188 3.96875 9.01562 4.875C8.10938 5.78125 7.38542 6.82292 6.84375 8H10.3438C10.5104 7.09375 10.7344 6.19271 11.0156 5.29688C11.2969 4.40104 11.6823 3.55729 12.1719 2.76562ZM6.20312 10C6.14062 10.3333 6.09375 10.6667 6.0625 11C6.03125 11.3333 6.01042 11.6667 6 12C6 12.3333 6.01562 12.6667 6.04688 13C6.07812 13.3333 6.13021 13.6667 6.20312 14H10.0938C10.0312 13.3333 10 12.6667 10 12C10 11.3438 10.0312 10.6771 10.0938 10H6.20312ZM2.4375 26H29.5625L28.3594 20H24.9219C24.3594 20.6354 23.7396 21.1979 23.0625 21.6875C22.3854 22.1771 21.6615 22.599 20.8906 22.9531C20.1198 23.3073 19.3281 23.5677 18.5156 23.7344C17.7031 23.901 16.8646 23.9896 16 24C15.1458 24 14.3073 23.9115 13.4844 23.7344C12.6615 23.5573 11.8698 23.2969 11.1094 22.9531C10.349 22.6094 9.63021 22.1927 8.95312 21.7031C8.27604 21.2135 7.65104 20.6458 7.07812 20H3.64062L2.4375 26Z" fill="#0865C9"/>
</svg>
