<svg width="20" height="20" viewBox="0 0 20 20" fill="none" xmlns="http://www.w3.org/2000/svg">
<path d="M10 0.00110096C10.9204 0.00110096 11.8059 0.119637 12.6566 0.35671C13.5073 0.593783 14.3022 0.928475 15.0413 1.36078C15.7804 1.79309 16.4568 2.31605 17.0704 2.92965C17.684 3.54325 18.2034 4.21612 18.6288 4.94826C19.0541 5.68039 19.3923 6.47877 19.6433 7.34339C19.8943 8.20801 20.0128 9.09354 19.9989 10C19.9989 10.9204 19.8804 11.8059 19.6433 12.6566C19.4062 13.5073 19.0715 14.3022 18.6392 15.0413C18.2069 15.7804 17.684 16.4568 17.0704 17.0704C16.4568 17.684 15.7839 18.2034 15.0517 18.6288C14.3196 19.0541 13.5212 19.3923 12.6566 19.6433C11.792 19.8943 10.9065 20.0128 10 19.9989C9.0796 19.9989 8.19406 19.8804 7.34339 19.6433C6.49272 19.4062 5.69782 19.0715 4.95871 18.6392C4.2196 18.2069 3.54325 17.684 2.92965 17.0704C2.31605 16.4568 1.79658 15.7839 1.37124 15.0517C0.945906 14.3196 0.607729 13.5212 0.35671 12.6566C0.105692 11.792 -0.0128445 10.9065 0.00110096 10C0.00110096 9.0796 0.119637 8.19406 0.35671 7.34339C0.593783 6.49272 0.928475 5.69782 1.36078 4.95871C1.79309 4.2196 2.31605 3.54325 2.92965 2.92965C3.54325 2.31605 4.21612 1.79658 4.94826 1.37124C5.68039 0.945906 6.47877 0.607729 7.34339 0.35671C8.20801 0.105692 9.09354 -0.0128445 10 0.00110096ZM10 18.7438C10.8019 18.7438 11.5758 18.6392 12.3219 18.43C13.068 18.2209 13.7653 17.928 14.4137 17.5515C15.0622 17.1749 15.6514 16.7182 16.1813 16.1813C16.7113 15.6444 17.1645 15.0552 17.541 14.4137C17.9175 13.7722 18.2139 13.075 18.43 12.3219C18.6462 11.5689 18.7508 10.7949 18.7438 10C18.7438 9.19814 18.6392 8.42416 18.43 7.67808C18.2209 6.932 17.928 6.23472 17.5515 5.58626C17.1749 4.9378 16.7182 4.3486 16.1813 3.81867C15.6444 3.28874 15.0552 2.83552 14.4137 2.45899C13.7722 2.08246 13.075 1.78612 12.3219 1.56997C11.5689 1.35381 10.7949 1.24922 10 1.25619C9.19814 1.25619 8.42416 1.36078 7.67808 1.56997C6.932 1.77915 6.23472 2.072 5.58626 2.44853C4.9378 2.82506 4.3486 3.28177 3.81867 3.81867C3.28874 4.35557 2.83552 4.94477 2.45899 5.58626C2.08246 6.22775 1.78612 6.92503 1.56997 7.67808C1.35381 8.43114 1.24922 9.20511 1.25619 10C1.25619 10.8019 1.36078 11.5758 1.56997 12.3219C1.77915 13.068 2.072 13.7653 2.44853 14.4137C2.82506 15.0622 3.28177 15.6514 3.81867 16.1813C4.35557 16.7113 4.94477 17.1645 5.58626 17.541C6.22775 17.9175 6.92503 18.2139 7.67808 18.43C8.43114 18.6462 9.20511 18.7508 10 18.7438ZM9.33062 14.6857H10.6694V16.0244H9.33062V14.6857ZM10 4.64494C10.4602 4.64494 10.8925 4.7321 11.2969 4.90642C11.7013 5.08074 12.0535 5.3213 12.3533 5.6281C12.6531 5.9349 12.8937 6.29051 13.075 6.69493C13.2563 7.09934 13.3469 7.53165 13.3469 7.99185C13.3469 8.41022 13.2807 8.7728 13.1482 9.0796C13.0157 9.3864 12.8518 9.6688 12.6566 9.92679C12.4614 10.1848 12.2452 10.4114 12.0081 10.6066C11.7711 10.8019 11.5584 11.0076 11.3701 11.2237C11.1819 11.4399 11.0145 11.6595 10.8681 11.8826C10.7217 12.1058 10.6554 12.3707 10.6694 12.6775V13.3469H9.33062V12.6775C9.33062 12.2592 9.39686 11.8966 9.52934 11.5898C9.66182 11.283 9.82568 11.0006 10.0209 10.7426C10.2162 10.4846 10.4323 10.258 10.6694 10.0628C10.9065 9.86752 11.1191 9.66182 11.3074 9.44567C11.4957 9.22951 11.663 9.00987 11.8094 8.78675C11.9559 8.56362 12.0221 8.29865 12.0081 7.99185C12.0081 7.71294 11.9559 7.45147 11.8513 7.20742C11.7467 6.96338 11.6037 6.75071 11.4224 6.56942C11.2411 6.38812 11.0285 6.24518 10.7844 6.14059C10.5404 6.036 10.2789 5.98371 10 5.98371C9.72109 5.98371 9.45961 6.036 9.21557 6.14059C8.97152 6.24518 8.75885 6.38812 8.57756 6.56942C8.39627 6.75071 8.25333 6.96338 8.14874 7.20742C8.04415 7.45147 7.99185 7.71294 7.99185 7.99185H6.65309C6.65309 7.53165 6.74025 7.09934 6.91457 6.69493C7.08888 6.29051 7.32596 5.93838 7.62578 5.63856C7.92561 5.33873 8.28122 5.09817 8.69261 4.91688C9.104 4.73559 9.5398 4.64494 10 4.64494Z" fill="#0865C9"/>
</svg>
