<svg width="64" height="54" viewBox="0 0 64 54" fill="none" xmlns="http://www.w3.org/2000/svg">
<path d="M63.1351 11.0991H49.5856C49.1531 11.0991 48.7207 10.6667 48.7207 10.2342C48.7207 9.80182 49.1531 9.36938 49.5856 9.36938H63.1351C63.5675 9.36938 64 9.80182 64 10.2342C64 10.6667 63.5675 11.0991 63.1351 11.0991Z" fill="#0865C9"/>
<path d="M16.7207 11.0991H0.864865C0.432432 11.0991 0 10.6667 0 10.2342C0 9.80182 0.432432 9.36938 0.864865 9.36938H16.8649C17.2973 9.36938 17.7297 9.80182 17.7297 10.2342C17.7297 10.6667 17.2973 11.0991 16.7207 11.0991Z" fill="#0865C9"/>
<path d="M8.36042 6.34232C8.36042 5.47746 7.6397 4.90088 6.91898 4.90088C6.05412 4.90088 5.47754 5.6216 5.47754 6.34232C5.47754 7.20719 6.19826 7.78376 6.91898 7.78376C7.6397 7.92791 8.36042 7.20719 8.36042 6.34232Z" fill="#0865C9"/>
<path d="M12.5405 6.34232C12.5405 5.47746 11.8198 4.90088 11.099 4.90088C10.2342 4.90088 9.65759 5.6216 9.65759 6.34232C9.65759 7.20719 10.3783 7.78376 11.099 7.78376C11.8198 7.92791 12.5405 7.20719 12.5405 6.34232Z" fill="#0865C9"/>
<path d="M16.7207 6.34232C16.7207 5.47746 15.9999 4.90088 15.2792 4.90088C14.4143 4.90088 13.8378 5.6216 13.8378 6.34232C13.8378 7.20719 14.5585 7.78376 15.2792 7.78376C16.1441 7.92791 16.7207 7.20719 16.7207 6.34232Z" fill="#0865C9"/>
<path d="M33.009 48.2883C32.8648 48.2883 32.7207 48.2883 32.5765 48.1441C27.3874 45.5495 15.4234 37.1892 14.1261 16.5766C14.1261 16.2883 14.2702 16 14.5585 15.8559L32.5765 5.33333C32.8648 5.18918 33.1531 5.18918 33.4414 5.33333L51.4594 15.8559C51.7477 16 51.8919 16.2883 51.8919 16.5766C50.5946 37.1892 38.6306 45.5495 33.4414 48.1441C33.2973 48.2883 33.1531 48.2883 33.009 48.2883ZM15.8558 17.009C17.1531 35.8919 27.9639 43.8198 33.009 46.4144C38.054 43.6757 48.8648 35.7477 50.1621 17.009L33.009 7.06306L15.8558 17.009Z" fill="#0865C9"/>
<path d="M33.009 53.3333C32.8649 53.3333 32.8649 53.3333 32.7208 53.3333C32.4325 53.1892 9.94598 44.6847 9.51355 14.1261C9.51355 13.8378 9.65769 13.5495 9.94598 13.4054L32.5766 0.288264C32.8649 -2.39685e-05 33.1532 -2.39685e-05 33.4415 0.14412L56.0721 13.2612C56.3604 13.4054 56.5045 13.6937 56.5045 13.982C56.0721 44.5405 33.5856 53.1892 33.2973 53.1892C33.1532 53.3333 33.1532 53.3333 33.009 53.3333ZM11.2433 14.4144C11.8199 41.6576 30.4144 50.4504 33.009 51.4594C35.6036 50.4504 54.1982 41.6576 54.7748 14.4144L33.009 1.87385L11.2433 14.4144Z" fill="#0865C9"/>
<path d="M24.2162 47.7117H5.18919C2.30631 47.7117 0 45.4054 0 42.5225V6.91893C0 4.03604 2.30631 1.72974 5.18919 1.72974H30.1261C30.5586 1.72974 30.8468 2.01802 30.991 2.30631C31.1351 2.73875 30.991 3.02703 30.5586 3.31532L11.2432 14.4144C11.5315 31.1351 18.7387 40.9369 24.7928 46.1261C25.0811 46.4144 25.2252 46.7027 25.0811 47.1351C24.9369 47.4234 24.5045 47.7117 24.2162 47.7117ZM5.18919 3.45947C3.31532 3.45947 1.72973 5.04505 1.72973 6.91893V42.6667C1.72973 44.5405 3.31532 46.1261 5.18919 46.1261H22.0541C16.1441 40.3604 9.8018 30.4144 9.51351 14.1261C9.51351 13.8378 9.65766 13.5496 9.94595 13.4054L26.955 3.60361H5.18919V3.45947Z" fill="#0865C9"/>
<path d="M58.8109 47.7117H41.8019C41.5136 47.7117 41.0812 47.4234 40.937 47.1351C40.7929 46.8469 40.937 46.4144 41.2253 46.1261C47.2794 40.9369 54.3424 31.1351 54.7748 14.4144L35.4595 3.31532C35.1712 3.17118 35.0271 2.73875 35.0271 2.30631C35.1712 1.87388 35.4595 1.72974 35.892 1.72974H58.8109C61.6938 1.72974 64.0001 4.03604 64.0001 6.91893V42.6667C64.0001 45.4054 61.6938 47.7117 58.8109 47.7117ZM43.964 45.982H58.8109C60.6848 45.982 62.2703 44.3964 62.2703 42.5225V6.91893C62.2703 5.04505 60.6848 3.45947 58.8109 3.45947H39.0631L56.0721 13.2613C56.3604 13.4054 56.5046 13.6937 56.5046 13.982C56.2163 30.2703 49.8739 40.2162 43.964 45.982Z" fill="#0865C9"/>
<path d="M33.009 48.2883C32.5766 48.2883 32.1442 47.8559 32.1442 47.4234V20.1802C32.1442 19.7477 32.5766 19.3153 33.009 19.3153C33.4415 19.3153 33.8739 19.7477 33.8739 20.1802V47.4234C33.8739 47.8559 33.4415 48.2883 33.009 48.2883Z" fill="#0865C9"/>
</svg>
