<svg width="30" height="28" viewBox="0 0 30 28" fill="none" xmlns="http://www.w3.org/2000/svg">
<path d="M29.6588 20.4206C29.4188 19.8195 28.7372 19.5267 28.1361 19.7666C27.535 20.0066 27.2422 20.6883 27.4822 21.2893C27.7872 22.0536 27.6872 22.9261 27.2146 23.6236C26.7417 24.3215 25.9846 24.7218 25.1375 24.7218H4.8673C3.94321 24.7218 3.12261 24.2396 2.67208 23.4318C2.22085 22.6227 2.24206 21.6692 2.7288 20.881L12.8639 4.47166C13.3254 3.72447 14.1248 3.27839 15.0024 3.27839C15.88 3.27839 16.6794 3.72447 17.1409 4.47166L24.6366 16.6079C24.9767 17.1585 25.6988 17.3293 26.2493 16.989C26.7999 16.649 26.9706 15.9269 26.6305 15.3763L19.1347 3.24013C18.2431 1.79661 16.6983 0.934814 15.0023 0.934814C13.3063 0.934814 11.7616 1.79667 10.87 3.24013L0.734906 19.6496C-0.204706 21.171 -0.245604 23.0117 0.625394 24.5734C1.49569 26.1338 3.08141 27.0653 4.8673 27.0653H25.1375C26.7745 27.0653 28.2387 26.2899 29.1547 24.9381C30.0638 23.5965 30.2522 21.9076 29.6588 20.4206Z" fill="#E70000"/>
<path d="M15.0029 22.4368C15.65 22.4368 16.1746 21.9122 16.1746 21.265C16.1746 20.6179 15.65 20.0933 15.0029 20.0933H15.0023C14.3551 20.0933 13.8308 20.6179 13.8308 21.265C13.8308 21.9122 14.3557 22.4368 15.0029 22.4368Z" fill="#E70000"/>
<path d="M16.1741 17.1638V8.55128C16.1741 7.90411 15.6495 7.37952 15.0023 7.37952C14.3552 7.37952 13.8306 7.90411 13.8306 8.55128V17.1638C13.8306 17.811 14.3552 18.3356 15.0023 18.3356C15.6495 18.3356 16.1741 17.811 16.1741 17.1638Z" fill="#E70000"/>
</svg>
